<?xml version="1.0" encoding="utf-8"?>
<!-- Generator: Adobe Illustrator 22.1.0, SVG Export Plug-In . SVG Version: 6.00 Build 0)  -->
<svg version="1.1" xmlns="http://www.w3.org/2000/svg" xmlns:xlink="http://www.w3.org/1999/xlink" x="0px" y="0px"
	 viewBox="0 0 754.9 430.7" style="enable-background:new 0 0 754.9 430.7;" xml:space="preserve">
<style type="text/css">
	.st0{display:none;}
	.st1{fill-rule:evenodd;clip-rule:evenodd;fill:#747577;}
	.st2{fill:#FFFFFF;}
</style>
<g id="Grid" class="st0">
</g>
<g id="Layer_1">
</g>
<g id="Desktop">
</g>
<g id="Guides">
</g>
<g id="Page_1">
	<g id="Layer_1_1_">
	</g>
	<rect x="178.5" y="331.1" class="st1" width="4.1" height="19.5"/>
	<path class="st1" d="M213.3,371.8c-0.6,0.3-1.4,0.5-2.6,0.5c-1,0-1.9-0.2-2.8-0.5c-0.9-0.3-1.7-0.9-2.4-1.7l-2.9,2.5
		c0.8,1.1,1.8,2,3.2,2.6c1.4,0.6,2.9,0.9,4.6,0.9c1.4,0,2.6-0.1,3.5-0.4c1-0.3,1.8-0.7,2.4-1.3c0.6-0.5,1.1-1.2,1.4-2
		c0.3-0.8,0.5-1.6,0.5-2.5c0-1.1-0.2-1.9-0.6-2.6c-0.4-0.7-0.9-1.3-1.6-1.7c-0.6-0.4-1.4-0.8-2.1-1c-0.8-0.3-1.6-0.5-2.4-0.7
		c-0.8-0.2-1.5-0.4-2-0.5c-0.5-0.1-0.9-0.3-1.2-0.5c-0.3-0.2-0.5-0.4-0.6-0.6c-0.1-0.2-0.2-0.5-0.2-0.8c0-0.2,0-0.4,0.1-0.6
		c0.1-0.2,0.3-0.4,0.5-0.6c0.2-0.2,0.5-0.3,0.9-0.4c0.4-0.1,0.8-0.2,1.3-0.2c0.9,0,1.7,0.2,2.5,0.5c0.7,0.3,1.4,0.8,2.1,1.5l2.9-2.7
		c-1-1-2-1.7-3.2-2.3c-1.2-0.5-2.5-0.8-4.1-0.8c-1,0-1.9,0.1-2.8,0.4c-0.9,0.3-1.6,0.6-2.3,1.1c-0.6,0.5-1.2,1.1-1.5,1.8
		c-0.4,0.7-0.6,1.5-0.6,2.4c0,1,0.2,1.8,0.5,2.4s0.7,1.2,1.3,1.6c0.6,0.4,1.2,0.8,2,1.1c0.8,0.3,1.6,0.5,2.5,0.7
		c0.9,0.2,1.7,0.4,2.3,0.6c0.6,0.2,1,0.4,1.4,0.6c0.3,0.2,0.5,0.4,0.6,0.7c0.1,0.2,0.2,0.5,0.2,0.8
		C214.2,370.9,213.9,371.4,213.3,371.8z"/>
	<path class="st1" d="M188.6,375.1c1.4,0.6,2.9,0.9,4.6,0.9c1.4,0,2.6-0.1,3.5-0.4c1-0.3,1.8-0.7,2.4-1.3c0.6-0.5,1.1-1.2,1.4-2
		c0.3-0.8,0.5-1.6,0.5-2.5c0-1.1-0.2-1.9-0.6-2.6c-0.4-0.7-0.9-1.3-1.6-1.7c-0.6-0.4-1.4-0.8-2.1-1c-0.8-0.3-1.6-0.5-2.4-0.7
		c-0.8-0.2-1.5-0.4-2-0.5c-0.5-0.1-0.9-0.3-1.2-0.5c-0.3-0.2-0.5-0.4-0.6-0.6c-0.1-0.2-0.2-0.5-0.2-0.8c0-0.2,0-0.4,0.1-0.6
		c0.1-0.2,0.3-0.4,0.5-0.6c0.2-0.2,0.5-0.3,0.9-0.4c0.4-0.1,0.8-0.2,1.3-0.2c0.9,0,1.7,0.2,2.5,0.5c0.7,0.3,1.4,0.8,2.1,1.5l2.9-2.7
		c-1-1-2-1.7-3.2-2.3c-1.2-0.5-2.5-0.8-4.1-0.8c-1,0-1.9,0.1-2.8,0.4c-0.9,0.3-1.6,0.6-2.3,1.1c-0.6,0.5-1.2,1.1-1.5,1.8
		c-0.4,0.7-0.6,1.5-0.6,2.4c0,1,0.2,1.8,0.5,2.4s0.7,1.2,1.3,1.6c0.6,0.4,1.2,0.8,2,1.1c0.8,0.3,1.6,0.5,2.5,0.7
		c0.9,0.2,1.7,0.4,2.3,0.6c0.6,0.2,1,0.4,1.4,0.6c0.3,0.2,0.5,0.4,0.6,0.7c0.1,0.2,0.2,0.5,0.2,0.8c0,0.7-0.3,1.3-0.8,1.6
		c-0.6,0.3-1.4,0.5-2.6,0.5c-1,0-1.9-0.2-2.8-0.5c-0.9-0.3-1.7-0.9-2.4-1.7l-2.9,2.5C186.2,373.6,187.3,374.5,188.6,375.1z"/>
	<polygon class="st1" points="191.8,350.6 195.9,350.6 195.9,334.9 201.8,334.9 201.8,331.1 185.9,331.1 185.9,334.9 191.8,334.9 	
		"/>
	<polygon class="st1" points="184.3,360.1 184.3,356.3 170,356.3 170,375.8 184.7,375.8 184.7,372 174.1,372 174.1,367.2 
		182.7,367.2 182.7,363.5 174.1,363.5 174.1,360.1 	"/>
	<path class="st1" d="M115.6,367.2c0,1.6-0.4,2.8-1.1,3.7c-0.7,0.9-1.7,1.3-3,1.3c-1.3,0-2.3-0.5-3-1.4c-0.7-0.9-1.1-2.2-1.1-3.7
		v-10.9h-4v11c0,1.4,0.2,2.7,0.6,3.8c0.4,1.1,0.9,2,1.6,2.8c0.7,0.8,1.6,1.3,2.6,1.7c1,0.4,2.1,0.6,3.3,0.6c2.6,0,4.6-0.8,6-2.3
		c1.4-1.6,2.1-3.7,2.1-6.6v-10.9h-4V367.2z"/>
	<path class="st1" d="M167.9,350c1.3-0.4,2.4-1,3.4-1.7c1-0.8,1.8-1.8,2.4-3c0.6-1.2,0.9-2.7,0.9-4.4c0-1.8-0.3-3.3-0.8-4.5
		c-0.5-1.2-1.2-2.2-2.1-3c-0.9-0.8-2-1.3-3.2-1.7c-1.2-0.3-2.6-0.5-4.1-0.5h-6.4v19.5h6.1C165.3,350.6,166.6,350.4,167.9,350z
		 M162,334.9h2.2c2.2,0,3.7,0.5,4.7,1.5c1,1,1.4,2.5,1.4,4.5c0,0.9-0.1,1.7-0.4,2.4c-0.3,0.7-0.6,1.4-1.1,1.9
		c-0.5,0.5-1.2,0.9-2,1.2c-0.8,0.3-1.7,0.4-2.8,0.4h-2V334.9z"/>
	<path class="st1" d="M124.8,343.5l3.7,0.2l4.3,6.9h4.7l-4.6-7.4c1.3-0.5,2.8-1.4,3.4-2.3c0.7-0.9,1-2.1,1-3.6c0-1-0.2-1.9-0.6-2.7
		c-0.4-0.8-0.9-1.4-1.5-1.9c-0.6-0.5-1.4-0.9-2.3-1.2s-1.8-0.4-2.7-0.4h-9.6v19.5h4.1V343.5z M124.8,334.9h5.4
		c0.9,0,1.6,0.2,2.2,0.6c0.5,0.4,0.8,1,0.8,1.9c0,1.7-1,2.5-2.9,2.5h-5.4V334.9z"/>
	<path class="st1" d="M127.9,360.3c0.2-0.2,0.5-0.3,0.9-0.4c0.4-0.1,0.8-0.2,1.3-0.2c0.9,0,1.7,0.2,2.5,0.5c0.7,0.3,1.4,0.8,2.1,1.5
		l2.9-2.7c-1-1-2-1.7-3.2-2.3c-1.2-0.5-2.5-0.8-4.1-0.8c-1,0-1.9,0.1-2.8,0.4c-0.9,0.3-1.6,0.6-2.3,1.1c-0.6,0.5-1.2,1.1-1.5,1.8
		c-0.4,0.7-0.6,1.5-0.6,2.4c0,1,0.2,1.8,0.5,2.4c0.3,0.7,0.7,1.2,1.3,1.6c0.6,0.4,1.2,0.8,2,1.1c0.8,0.3,1.6,0.5,2.5,0.7
		c0.9,0.2,1.7,0.4,2.3,0.6c0.6,0.2,1,0.4,1.4,0.6c0.3,0.2,0.5,0.4,0.6,0.7c0.1,0.2,0.2,0.5,0.2,0.8c0,0.7-0.3,1.3-0.8,1.6
		c-0.6,0.3-1.4,0.5-2.6,0.5c-1,0-1.9-0.2-2.8-0.5c-0.9-0.3-1.7-0.9-2.4-1.7l-2.9,2.5c0.8,1.1,1.8,2,3.2,2.6c1.4,0.6,2.9,0.9,4.6,0.9
		c1.4,0,2.6-0.1,3.5-0.4c1-0.3,1.8-0.7,2.4-1.3c0.6-0.5,1.1-1.2,1.4-2c0.3-0.8,0.5-1.6,0.5-2.5c0-1.1-0.2-1.9-0.6-2.6
		s-0.9-1.3-1.6-1.7c-0.6-0.4-1.4-0.8-2.1-1c-0.8-0.3-1.6-0.5-2.4-0.7c-0.8-0.2-1.5-0.4-2-0.5c-0.5-0.1-0.9-0.3-1.2-0.5
		c-0.3-0.2-0.5-0.4-0.6-0.6c-0.1-0.2-0.2-0.5-0.2-0.8c0-0.2,0-0.4,0.1-0.6C127.5,360.7,127.6,360.5,127.9,360.3z"/>
	<polygon class="st1" points="154.8,346.8 144.2,346.8 144.2,342 152.7,342 152.7,338.3 144.2,338.3 144.2,334.9 154.3,334.9 
		154.3,331.1 140.1,331.1 140.1,350.6 154.8,350.6 	"/>
	<path class="st1" d="M153.6,259h-14.1v12.3h14.7C162.8,271.3,162.5,259,153.6,259z"/>
	<path class="st1" d="M155.3,281.6h-15.8v13.2h15.8C166.2,294.8,166.9,281.6,155.3,281.6z"/>
	<path class="st1" d="M103.3,348.2c0.8,0.9,1.7,1.5,2.8,2c1.1,0.5,2.3,0.7,3.7,0.7c2.5,0,6.8-1.4,8-3.8l-2.9-2.6
		c-0.8,1.3-3.4,2.5-5,2.5c-0.8,0-1.4-0.2-2.1-0.5c-0.6-0.3-1.1-0.8-1.5-1.3s-0.7-1.2-1-2c-0.2-0.8-0.3-1.6-0.3-2.4
		c0-0.9,0.1-1.7,0.3-2.5c0.2-0.8,0.5-1.4,0.9-2c0.4-0.5,0.9-1,1.5-1.3c0.6-0.3,1.3-0.5,2.1-0.5c1.5,0,3.7,1,4.7,2.4l2.9-2.7
		c-1.2-1.4-3.1-2.7-4.9-3.2c-0.8-0.2-1.7-0.3-2.6-0.3c-1.4,0-2.6,0.2-3.7,0.7c-1.1,0.5-2.1,1.2-2.9,2.1c-0.8,0.9-1.4,1.9-1.9,3.2
		c-0.5,1.2-0.7,2.6-0.7,4.1c0,1.5,0.2,2.9,0.6,4.2C101.9,346.2,102.5,347.3,103.3,348.2z"/>
	<path class="st1" d="M99.6,259H85.5v12.3h14.7C108.8,271.3,108.5,259,99.6,259z"/>
	<path class="st1" d="M207.6,259h-14.1v12.3h14.7C216.8,271.3,216.5,259,207.6,259z"/>
	<polygon class="st1" points="219.1,346.8 208.5,346.8 208.5,342 217.1,342 217.1,338.3 208.5,338.3 208.5,334.9 218.7,334.9 
		218.7,331.1 204.4,331.1 204.4,350.6 219.1,350.6 	"/>
	<path class="st1" d="M209.3,281.6h-15.8v13.2h15.8C220.2,294.8,220.9,281.6,209.3,281.6z"/>
	<path class="st1" d="M161.7,364.5c0,0.3,0,0.6,0,1c0,0.4,0,0.8,0,1.3c0,0.4,0,0.8,0,1.2c0,0.4,0,0.6,0,0.8c-0.1-0.3-0.3-0.6-0.6-1
		c-0.3-0.4-0.5-0.8-0.8-1.2l-7.1-10.3h-3.8v19.5h4v-8.6c0-0.3,0-0.6,0-1c0-0.4,0-0.8,0-1.2c0-0.4,0-0.8,0-1.2c0-0.4,0-0.6,0-0.8
		c0.1,0.3,0.3,0.6,0.6,1c0.3,0.4,0.5,0.8,0.8,1.2l7.4,10.7h3.6v-19.5h-4V364.5z"/>
	<path class="st1" d="M481.4,108.1c0-3.7-2.4-5.8-7.2-5.8h-8.5V114h8.2C479.3,114,481.4,111.9,481.4,108.1z"/>
	<rect x="141.2" y="356.3" class="st1" width="4" height="19.5"/>
	<path class="st1" d="M101.3,281.6H85.5v13.2h15.8C112.2,294.8,112.9,281.6,101.3,281.6z"/>
	<path class="st1" d="M232.2,350c1.3-0.4,2.4-1,3.4-1.7c1-0.8,1.8-1.8,2.4-3c0.6-1.2,0.9-2.7,0.9-4.4c0-1.8-0.3-3.3-0.8-4.5
		c-0.5-1.2-1.2-2.2-2.1-3c-0.9-0.8-2-1.3-3.2-1.7c-1.2-0.3-2.6-0.5-4.1-0.5h-6.4v19.5h6.1C229.7,350.6,231,350.4,232.2,350z
		 M226.3,334.9h2.2c2.2,0,3.7,0.5,4.7,1.5c1,1,1.4,2.5,1.4,4.5c0,0.9-0.1,1.7-0.4,2.4c-0.3,0.7-0.6,1.4-1.1,1.9
		c-0.5,0.5-1.2,0.9-2,1.2c-0.8,0.3-1.7,0.4-2.8,0.4h-2V334.9z"/>
	<path class="st1" d="M67.4,346.2H75l1.6,4.3h4.5l-7.8-19.5h-4l-7.9,19.5h4.4L67.4,346.2z M70.2,339c0.2-0.6,0.4-1.1,0.6-1.7
		c0.2-0.5,0.3-1,0.4-1.4c0.1,0.4,0.2,0.8,0.4,1.4c0.2,0.5,0.4,1.1,0.6,1.7l1.3,3.5h-4.7L70.2,339z"/>
	<path class="st1" d="M338.1,107.2c0-3.3-2.5-5.1-6.3-5.1h-9.4v10.3h9.1C336.2,112.5,338.1,110.4,338.1,107.2z"/>
	<path class="st1" d="M382.1,107.2c0-3.3-2.5-5.1-6.3-5.1h-9.4v10.3h9.1C380.2,112.5,382.1,110.4,382.1,107.2z"/>
	<path class="st1" d="M375.2,120.1h-8.8v12.4h8.9c5.3,0,7.7-2.2,7.7-6.3C383,122.4,380.7,120.1,375.2,120.1z"/>
	<path class="st1" d="M517.5,101.6L517.5,101.6c-1.2,4.5-3.5,11.6-6,19.8h12.4C520.7,111.9,518.6,105.7,517.5,101.6z"/>
	<path class="st1" d="M93.6,356.3h-9.2v19.5h9.1c1.1,0,2-0.1,2.9-0.4c0.9-0.3,1.6-0.7,2.2-1.2c0.6-0.5,1.1-1.2,1.4-2
		c0.3-0.8,0.5-1.7,0.5-2.7c0-1.1-0.3-2-0.8-2.7c-0.5-0.7-1.2-1.2-2-1.6c0.7-0.4,1.2-0.9,1.6-1.6c0.4-0.7,0.6-1.4,0.6-2.2
		c0-1.7-0.6-3-1.7-3.8C97.1,356.7,95.6,356.3,93.6,356.3z M88.3,359.9h5.1c0.9,0,1.5,0.2,1.9,0.5c0.4,0.3,0.6,0.8,0.6,1.4
		c0,0.5-0.2,1-0.5,1.3c-0.3,0.3-0.9,0.5-1.8,0.5h-5.3V359.9z M95.8,371.4c-0.5,0.5-1.2,0.7-2.2,0.7h-5.3v-5h5.3
		c1.9,0,2.9,0.8,2.9,2.5C96.5,370.3,96.3,370.9,95.8,371.4z"/>
	<path class="st1" d="M331.3,120.1h-8.8v12.4h8.9c5.3,0,7.7-2.2,7.7-6.3C339,122.4,336.7,120.1,331.3,120.1z"/>
	<path class="st1" d="M84.3,348.2c0.8,0.9,1.7,1.5,2.8,2c1.1,0.5,2.3,0.7,3.7,0.7c2.5,0,6.8-1.4,8-3.8l-2.9-2.6
		c-0.8,1.3-3.4,2.5-5,2.5c-0.8,0-1.4-0.2-2.1-0.5c-0.6-0.3-1.1-0.8-1.5-1.3s-0.7-1.2-1-2c-0.2-0.8-0.3-1.6-0.3-2.4
		c0-0.9,0.1-1.7,0.3-2.5c0.2-0.8,0.5-1.4,0.9-2c0.4-0.5,0.9-1,1.5-1.3c0.6-0.3,1.3-0.5,2.1-0.5c1.5,0,3.7,1,4.7,2.4l2.9-2.7
		c-1.2-1.4-3.1-2.7-4.9-3.2c-0.8-0.2-1.7-0.3-2.6-0.3c-1.4,0-2.6,0.2-3.7,0.7c-1.1,0.5-2.1,1.2-2.9,2.1c-0.8,0.9-1.4,1.9-1.9,3.2
		c-0.5,1.2-0.7,2.6-0.7,4.1c0,1.5,0.2,2.9,0.6,4.2C82.9,346.2,83.5,347.3,84.3,348.2z"/>
	<g>
		<path class="st1" d="M239.5,37.9H61.2c-10.7,0-19.5,8.8-19.5,19.5v315.1c0,10.7,8.8,19.5,19.5,19.5h178.3
			c10.8,0,19.5-8.8,19.5-19.5V57.5C259,46.7,250.2,37.9,239.5,37.9z M236.3,299.1h0.8l1.6,3.9c0,0.1,0.1,0.2,0.1,0.3
			c0,0.1,0.1,0.2,0.1,0.4c0,0.1,0.1,0.2,0.1,0.3c0,0.1,0.1,0.2,0.1,0.3c0-0.1,0-0.2,0.1-0.3c0-0.1,0.1-0.2,0.1-0.3
			c0-0.1,0.1-0.2,0.1-0.4c0-0.1,0.1-0.2,0.1-0.3l1.6-3.9h0.8v6.5h-0.7v-4.4v-0.7c0,0.1,0,0.1-0.1,0.2c0,0.1-0.1,0.2-0.1,0.3
			c0,0.1-0.1,0.2-0.1,0.3c0,0.1-0.1,0.2-0.1,0.3l-1.8,4.2l-1.8-4.2c0-0.1-0.1-0.2-0.1-0.3c0-0.1-0.1-0.2-0.1-0.3
			c0-0.1-0.1-0.2-0.1-0.3c0-0.1-0.1-0.2-0.1-0.2v0.7v4.4h-0.7V299.1z M234.3,303.5c-0.1-0.1-0.1-0.2-0.3-0.3
			c-0.1-0.1-0.3-0.2-0.5-0.3c-0.2-0.1-0.5-0.2-0.8-0.3c-0.4-0.1-0.7-0.2-0.9-0.4c-0.2-0.1-0.4-0.3-0.6-0.4c-0.1-0.1-0.3-0.3-0.3-0.5
			c-0.1-0.2-0.1-0.4-0.1-0.6c0-0.3,0.1-0.5,0.2-0.7c0.1-0.2,0.2-0.4,0.4-0.5c0.2-0.1,0.4-0.3,0.7-0.3c0.3-0.1,0.5-0.1,0.9-0.1
			c0.4,0,0.8,0.1,1.1,0.2c0.3,0.1,0.6,0.3,0.9,0.5l-0.5,0.6c-0.2-0.2-0.5-0.3-0.7-0.5c-0.2-0.1-0.5-0.2-0.9-0.2
			c-0.2,0-0.4,0-0.6,0.1c-0.2,0.1-0.3,0.1-0.4,0.2c-0.1,0.1-0.2,0.2-0.2,0.3c0,0.1-0.1,0.2-0.1,0.4c0,0.1,0,0.3,0.1,0.4
			c0,0.1,0.1,0.2,0.2,0.3c0.1,0.1,0.3,0.2,0.5,0.3c0.2,0.1,0.5,0.2,0.8,0.3c0.4,0.1,0.7,0.3,0.9,0.4c0.2,0.1,0.4,0.3,0.6,0.4
			c0.2,0.2,0.3,0.3,0.3,0.5c0.1,0.2,0.1,0.4,0.1,0.6c0,0.3,0,0.5-0.1,0.7c-0.1,0.2-0.2,0.4-0.4,0.6c-0.2,0.2-0.4,0.3-0.7,0.4
			c-0.3,0.1-0.6,0.1-0.9,0.1c-0.5,0-0.9-0.1-1.3-0.3c-0.4-0.2-0.7-0.4-1-0.6l0.5-0.5c0.3,0.2,0.5,0.4,0.8,0.6c0.3,0.1,0.6,0.2,1,0.2
			c0.4,0,0.8-0.1,1.1-0.3c0.3-0.2,0.4-0.5,0.4-0.8C234.4,303.8,234.3,303.6,234.3,303.5z M227.1,263.3c0,5.4-2.8,9.4-7.5,12.1
			c6.1,2.7,9.2,4.5,10.3,12.1c2,13.2-10.2,18.3-21.7,18.3h-26.9v-57.8h27.2C218.1,247.9,227.1,252.4,227.1,263.3z M131.7,77.4
			l19.8-27.5l3,2.1c-4.1,5.8-1.6,11.8,3.3,15.3l34.9,25.3c15.9,11.5,16.5,32.5,6.4,46.8l-22.5,31.7l-2.8-2.1
			c4.8-6.3,4-18.7-2.7-23.6l-32.6-23.9C125.8,112.2,122.4,90.2,131.7,77.4z M118.4,145.1l12.8-17.6l3.4,2.5
			c-1.6,3.3-1.3,6.2,1.6,8.2l23.8,17.4c11,8,11.6,21.9,4.2,32.2l-12,16.6l-3.4-2.5c1.9-3.1,1.6-6-2.5-8.9l-23.6-17.1
			C114,169.5,112,153.9,118.4,145.1z M102.7,210.3c32.7,0,65.4,0,98.1,0l3.4,11.7h-26.3l-4.7,15.9c-14.3,0-28.7,0-43,0l-4.7-15.9
			H99.3L102.7,210.3z M175.9,287.5c2,13.2-10.2,18.3-21.7,18.3h-26.9v-57.8h27.2c9.7,0,18.7,4.4,18.7,15.3c0,5.4-2.8,9.4-7.5,12.1
			C171.7,278.1,174.8,279.9,175.9,287.5z M73.2,247.9h27.2c9.7,0,18.7,4.4,18.7,15.3c0,5.4-2.8,9.4-7.5,12.1
			c6.1,2.7,9.2,4.5,10.3,12.1c2,13.2-10.2,18.3-21.7,18.3H73.2V247.9z M254.7,372.6c0,8.4-6.9,15.2-15.2,15.2H61.2
			c-8.4,0-15.2-6.9-15.2-15.2v-49.1h208.7V372.6z"/>
		<path class="st1" d="M720.4,0H34.6C15.5,0,0,15.5,0,34.6v361.5c0,19.1,15.5,34.6,34.6,34.6h685.8c19.1,0,34.6-15.5,34.6-34.6V34.6
			C754.9,15.5,739.5,0,720.4,0z M536.4,94.5h37.4v8.1h-13.8V140h-9.8v-37.4h-13.8V94.5z M511.6,94.5H524l16.1,45.5h-10.3l-3.7-10.5
			h-16.6l-3.5,10.5h-9.7L511.6,94.5z M456,94.5h20c9.9,0,15.3,5.5,15.3,12.5c0,6.1-3.3,9.4-6.6,10.8c2.3,0.8,5.7,3.2,5.7,11.3v2.2
			c0,3.1,0,6.5,0.7,8.7h-9.3c-0.8-2-1-5.4-1-10.2v-0.7c0-5-1.3-7.3-8.6-7.3h-6.5V140H456V94.5z M396.5,94.5h37.4v8.1h-13.8V140h-9.8
			v-37.4h-13.8V94.5z M260.5,372.6c0,11.5-9.4,21-21,21H61.2c-11.5,0-21-9.4-21-21V57.5c0-11.5,9.4-21,21-21h178.3
			c11.5,0,21,9.4,21,21V372.6z M333.3,140h-20.5V94.5h19.9c11,0,15.2,5.7,15.2,11.6c0,5.1-2.7,8.5-5.8,9.9c3.1,1.2,7.1,4.4,7.1,10.4
			C349.1,134.2,343,140,333.3,140z M377.3,140h-20.5V94.5h19.9c11,0,15.2,5.7,15.2,11.6c0,5.1-2.7,8.5-5.8,9.9
			c3.1,1.2,7.1,4.4,7.1,10.4C393.1,134.2,387,140,377.3,140z M485.5,375.3c-52.5,0-95.1-42.6-95.1-95.1c0-52.5,42.6-95.1,95.1-95.1
			c52.5,0,95.1,42.6,95.1,95.1C580.6,332.7,538,375.3,485.5,375.3z M589.8,140H580V94.5h9.8V140z M639.8,140h-11.6
			c-4.9-8.9-16.5-30.1-18.8-35.3h-0.1c0.3,4,0.4,13.3,0.4,21.5V140h-9V94.5h12.2c5.7,10.2,16.2,28.6,18.3,33.6h0.1
			c-0.5-4.7-0.5-12.6-0.5-20.1V94.5h8.9V140z M670.6,133c8.4,0,10-5.8,10-9.9v-0.4h-10v-8.1h19.6V140H683c-0.4-1.4-0.6-3-0.8-4.5
			c-2.5,3.4-7,5.2-13.3,5.2c-13.2,0-20.6-10-20.6-22.9c0-13.7,8-24,22.3-24c11.7,0,18.6,6.6,19.7,14.4h-9.8c-0.9-3-3.3-6.7-10-6.7
			c-9.3,0-12,7.8-12,15.8C658.5,125.2,661.6,133,670.6,133z"/>
		<path class="st1" d="M444.8,231.9l-27.2,80h17l6.2-18.5h29.2l6.6,18.5h18.2l-28.3-80H444.8z M444.5,279.2
			c4.6-14.4,8.5-27,10.5-34.8h0.1c1.9,7.2,5.5,18,11.2,34.8H444.5z"/>
		<polygon class="st1" points="534.4,250.1 527,250.1 527,277.4 500.8,277.4 500.8,284.4 527,284.4 527,311.8 534.4,311.8 
			534.4,284.4 560.6,284.4 560.6,277.4 534.4,277.4 		"/>
	</g>
	<path class="st2" d="M725.9,17.2H30.2c-6.6,0-12,5.4-12,12v372c0,6.6,5.4,12,12,12h695.7c6.6,0,12-5.4,12-12v-372
		C737.9,22.6,732.5,17.2,725.9,17.2z M732.1,396.2c0,6.6-5.4,12-12,12h-684c-6.6,0-12-5.4-12-12v-362c0-6.6,5.4-12,12-12h684
		c6.6,0,12,5.4,12,12V396.2z"/>
</g>
</svg>
