<?xml version="1.0" encoding="utf-8"?>
<!-- Generator: Adobe Illustrator 22.0.1, SVG Export Plug-In . SVG Version: 6.00 Build 0)  -->
<svg version="1.1" id="Layer_1" xmlns="http://www.w3.org/2000/svg" xmlns:xlink="http://www.w3.org/1999/xlink" x="0px" y="0px"
	 viewBox="0 0 792 612" style="enable-background:new 0 0 792 612;" xml:space="preserve">
<style type="text/css">
	.st0{fill:#010101;}
	.st1{fill:#FFFFFF;}
	.st2{fill:none;stroke:#FFFFFF;stroke-width:3.582;stroke-linecap:round;stroke-linejoin:round;stroke-miterlimit:10;}
</style>
<circle class="st0" cx="412.7" cy="290" r="202.3"/>
<g>
	<g>
		<g>
			<path class="st1" d="M295.1,232.9l12.4-30.3l12.4,30.3l9.2-28.6h2.1l-11.2,34.4L307.4,208l-12.7,30.8l-11.1-34.4h2.1L295.1,232.9
				z"/>
			<path class="st1" d="M332.4,227.6c-0.1,5.2,3.4,8.6,8.2,8.6c3.2,0,5.7-1.9,7.2-4.6l1.7,1c-1.9,3.5-5.1,5.5-9.1,5.5
				c-6,0-9.9-4.9-9.9-10.7c0-5.7,3.9-10.6,9.9-10.6c6.2,0,9.8,4.9,9.8,10.8H332.4z M348.1,225.7c-0.5-3.8-3.6-7.1-7.8-7.1
				c-4.1,0-7.6,3.3-7.9,7.1H348.1z"/>
			<path class="st1" d="M370.6,233.9L370.6,233.9c-1.6,2.6-4.9,4.1-7.9,4.1c-6.2,0-10.1-4.8-10.1-10.8s3.8-10.5,10-10.5
				c3.1,0,6.1,1.4,7.9,4h0.1v-19.5h2v36.4h-2V233.9z M370.7,227.1c0-4.7-3.2-8.4-8.2-8.4c-4.7,0-7.9,4.2-7.9,8.6
				c0,4.7,3.1,8.9,8,8.9C367.9,236.2,370.7,232,370.7,227.1z"/>
			<path class="st1" d="M395.1,233.9L395.1,233.9c-1.6,2.6-4.9,4.1-7.9,4.1c-6.2,0-10.1-4.8-10.1-10.8s3.8-10.5,10-10.5
				c3.1,0,6.1,1.4,7.9,4h0.1v-19.5h2v36.4h-2V233.9z M395.2,227.1c0-4.7-3.2-8.4-8.2-8.4c-4.7,0-7.9,4.2-7.9,8.6
				c0,4.7,3.1,8.9,8,8.9C392.4,236.2,395.2,232,395.2,227.1z"/>
			<path class="st1" d="M407.2,210.4c0,1-0.8,1.8-1.8,1.8c-1,0-1.8-0.8-1.8-1.8c0-1,0.8-1.8,1.8-1.8
				C406.4,208.6,407.2,209.5,407.2,210.4z M406.4,237.6h-2v-20.4h2V237.6z"/>
			<path class="st1" d="M415.7,220.4L415.7,220.4c1.3-2.3,3.5-3.6,6.1-3.6c5.3,0,6.7,3.3,6.7,8.5v12.3h-2v-12.3
				c0-3.7-0.4-6.7-4.9-6.7c-5.1,0-6,4.8-6,8.9v10.1h-2v-20.4h2V220.4z"/>
			<path class="st1" d="M453.4,236.6c0,3.1-0.1,6-2,8.6c-1.9,2.6-4.9,3.9-8.1,3.9c-5.3,0-9.8-3.1-10.1-8.7h2
				c0.2,4.2,3.8,6.9,7.9,6.9c2.6,0,5-0.9,6.5-3c1.6-2.3,1.8-5,1.8-7.7v-2.5h-0.1c-1.8,2.4-4.9,4-7.9,4c-5.9,0-9.9-5-9.9-10.7
				c0-5.9,4.2-10.6,10.2-10.6c3.3,0,5.8,1.4,7.7,4h0.1v-3.5h2V236.6z M435.5,227.3c0,4.7,3.1,8.9,8,8.9c5.2,0,8-4.2,8-9.1
				c0-4.7-3.2-8.4-8.2-8.4C438.7,218.6,435.5,222.9,435.5,227.3z"/>
			<path class="st1" d="M468.9,228.2l9.4-24.5l9.4,24.5l9.3-23.8h4.5l-13.8,34.6l-9.4-24.4l-9.4,24.4l-13.8-34.6h4.5L468.9,228.2z"
				/>
			<path class="st1" d="M509.1,207.5c0,1.5-1.2,2.7-2.7,2.7c-1.5,0-2.7-1.2-2.7-2.7c0-1.5,1.2-2.8,2.7-2.8
				C507.9,204.7,509.1,206,509.1,207.5z M508.3,237.6h-4V217h4V237.6z"/>
			<path class="st1" d="M518.7,220.3h0.1c1-2.4,3-4,5.6-4c1.1,0,2.3,0.4,3.3,1l-1.8,3.6c-0.7-0.6-1.5-0.8-2.4-0.8
				c-4.3,0-4.8,4-4.8,7.3v10.1h-4V217h4V220.3z"/>
			<path class="st1" d="M531.2,227.9c0,3.5,2.4,6.8,6.2,6.8c3,0,4.7-1.5,6.2-4l3.4,1.9c-1.9,3.6-5.6,5.6-9.6,5.6
				c-6.3,0-10.1-4.8-10.1-10.9c0-6.4,3.4-11.1,10.1-11.1c6.6,0,9.7,4.9,9.7,11v0.6H531.2z M543,224.9c-0.5-3.1-2.5-5.2-5.7-5.2
				c-3.1,0-5.4,2.2-5.9,5.2H543z"/>
		</g>
	</g>
	<path class="st1" d="M284.3,321.9v-69.3h30.7c6.2,0,10.9,0.6,14.1,1.9c3.2,1.2,5.8,3.4,7.7,6.6c1.9,3.2,2.9,6.6,2.9,10.4
		c0,4.9-1.6,9.1-4.8,12.4c-3.2,3.4-8.1,5.5-14.7,6.4c2.4,1.2,4.3,2.3,5.5,3.4c2.7,2.5,5.2,5.5,7.6,9.2l12.1,18.9h-11.5l-9.2-14.4
		c-2.7-4.2-4.9-7.3-6.6-9.5c-1.7-2.2-3.3-3.7-4.7-4.6c-1.4-0.9-2.8-1.5-4.2-1.8c-1-0.2-2.7-0.3-5.1-0.3h-10.6v30.8H284.3z
		 M293.5,283.2h19.7c4.2,0,7.5-0.4,9.8-1.3c2.4-0.9,4.2-2.3,5.4-4.2c1.2-1.9,1.8-4,1.8-6.2c0-3.3-1.2-6-3.6-8.1
		c-2.4-2.1-6.1-3.2-11.3-3.2h-21.9V283.2z"/>
	<path class="st1" d="M389.1,315.7c-3.2,2.7-6.2,4.6-9.1,5.7c-2.9,1.1-6,1.7-9.4,1.7c-5.5,0-9.8-1.3-12.7-4c-3-2.7-4.4-6.1-4.4-10.3
		c0-2.5,0.6-4.7,1.7-6.7c1.1-2,2.6-3.7,4.4-4.9c1.8-1.2,3.9-2.2,6.1-2.8c1.7-0.4,4.2-0.9,7.6-1.3c6.9-0.8,11.9-1.8,15.2-2.9
		c0-1.2,0-1.9,0-2.2c0-3.5-0.8-5.9-2.4-7.3c-2.2-1.9-5.4-2.9-9.7-2.9c-4,0-7,0.7-8.9,2.1c-1.9,1.4-3.3,3.9-4.2,7.4l-8.3-1.1
		c0.8-3.6,2-6.4,3.7-8.6c1.7-2.2,4.2-3.9,7.5-5.1c3.3-1.2,7.1-1.8,11.4-1.8c4.3,0,7.8,0.5,10.4,1.5c2.7,1,4.6,2.3,5.9,3.8
		c1.3,1.5,2.1,3.5,2.6,5.8c0.3,1.4,0.4,4.1,0.4,7.8v11.3c0,7.9,0.2,12.9,0.5,15c0.4,2.1,1.1,4.1,2.2,6h-8.9
		C390,320.2,389.4,318.1,389.1,315.7z M388.4,296.7c-3.1,1.3-7.7,2.3-13.9,3.2c-3.5,0.5-6,1.1-7.4,1.7c-1.4,0.6-2.6,1.6-3.4,2.8
		c-0.8,1.2-1.2,2.6-1.2,4c0,2.3,0.9,4.2,2.6,5.7c1.7,1.5,4.2,2.3,7.5,2.3c3.3,0,6.2-0.7,8.7-2.2c2.6-1.4,4.4-3.4,5.6-5.9
		c0.9-1.9,1.4-4.8,1.4-8.5V296.7z"/>
	<path class="st1" d="M432.2,314.3l1.2,7.5c-2.4,0.5-4.5,0.8-6.4,0.8c-3.1,0-5.5-0.5-7.2-1.5c-1.7-1-2.9-2.3-3.6-3.9
		c-0.7-1.6-1-4.9-1-10v-28.9h-6.2v-6.6h6.2v-12.4l8.5-5.1v17.5h8.6v6.6h-8.6v29.4c0,2.4,0.1,4,0.4,4.7c0.3,0.7,0.8,1.2,1.5,1.7
		c0.7,0.4,1.6,0.6,2.9,0.6C429.4,314.6,430.6,314.5,432.2,314.3z"/>
	<path class="st1" d="M478.3,305.8l8.8,1.1c-1.4,5.1-4,9.1-7.7,12c-3.8,2.8-8.5,4.3-14.4,4.3c-7.3,0-13.2-2.3-17.5-6.8
		c-4.3-4.5-6.5-10.9-6.5-19c0-8.4,2.2-15,6.5-19.7c4.3-4.7,10-7,16.9-7c6.7,0,12.2,2.3,16.4,6.9c4.3,4.6,6.4,11,6.4,19.3
		c0,0.5,0,1.3,0,2.3h-37.4c0.3,5.5,1.9,9.7,4.7,12.7c2.8,2.9,6.3,4.4,10.5,4.4c3.1,0,5.8-0.8,8-2.5C475.2,312,477,309.4,478.3,305.8
		z M450.3,292h28c-0.4-4.2-1.4-7.4-3.2-9.5c-2.7-3.3-6.2-4.9-10.5-4.9c-3.9,0-7.2,1.3-9.9,3.9C452.1,284.1,450.6,287.6,450.3,292z"
		/>
	<path class="st1" d="M533.7,321.9v-6.3c-3.2,5-7.9,7.5-14,7.5c-4,0-7.7-1.1-11-3.3c-3.4-2.2-6-5.3-7.8-9.2c-1.8-4-2.8-8.5-2.8-13.6
		c0-5,0.8-9.6,2.5-13.6c1.7-4.1,4.2-7.2,7.5-9.4c3.3-2.2,7.1-3.3,11.2-3.3c3,0,5.7,0.6,8.1,1.9c2.4,1.3,4.3,2.9,5.8,5v-24.9h8.5
		v69.3H533.7z M506.8,296.9c0,6.4,1.4,11.2,4.1,14.4c2.7,3.2,5.9,4.8,9.6,4.8c3.7,0,6.9-1.5,9.5-4.6c2.6-3,3.9-7.7,3.9-13.9
		c0-6.9-1.3-11.9-4-15.1c-2.6-3.2-5.9-4.8-9.8-4.8c-3.8,0-6.9,1.5-9.5,4.6C508.1,285.4,506.8,290.2,506.8,296.9z"/>
	<g>
		<path class="st1" d="M325.6,374.1h-4.4v-16.7c-1.6,1.5-3.5,2.6-5.7,3.4v-4c1.2-0.4,2.4-1.1,3.8-2.1c1.4-1.1,2.3-2.3,2.8-3.7h3.6
			V374.1z"/>
		<path class="st1" d="M339.7,350.9c2.2,0,4,0.8,5.2,2.4c1.5,1.9,2.3,5,2.3,9.4c0,4.4-0.8,7.5-2.3,9.4c-1.2,1.6-3,2.4-5.2,2.4
			c-2.2,0-4.1-0.9-5.4-2.6c-1.4-1.7-2.1-4.8-2.1-9.2c0-4.3,0.8-7.5,2.3-9.4C335.7,351.7,337.5,350.9,339.7,350.9z M339.7,354.5
			c-0.5,0-1,0.2-1.4,0.5c-0.4,0.3-0.7,1-1,1.8c-0.3,1.1-0.5,3.1-0.5,5.8c0,2.7,0.1,4.6,0.4,5.6c0.3,1,0.6,1.7,1,2
			c0.4,0.3,0.9,0.5,1.4,0.5c0.5,0,1-0.2,1.4-0.5c0.4-0.3,0.7-1,1-1.8c0.3-1.1,0.5-3.1,0.5-5.8c0-2.7-0.1-4.6-0.4-5.6
			c-0.3-1-0.6-1.7-1-2C340.7,354.7,340.2,354.5,339.7,354.5z"/>
		<path class="st1" d="M357.6,350.9c2.2,0,4,0.8,5.2,2.4c1.5,1.9,2.3,5,2.3,9.4c0,4.4-0.8,7.5-2.3,9.4c-1.2,1.6-3,2.4-5.2,2.4
			c-2.2,0-4.1-0.9-5.4-2.6c-1.4-1.7-2.1-4.8-2.1-9.2c0-4.3,0.8-7.5,2.3-9.4C353.7,351.7,355.4,350.9,357.6,350.9z M357.6,354.5
			c-0.5,0-1,0.2-1.4,0.5c-0.4,0.3-0.7,1-1,1.8c-0.3,1.1-0.5,3.1-0.5,5.8c0,2.7,0.1,4.6,0.4,5.6c0.3,1,0.6,1.7,1,2
			c0.4,0.3,0.9,0.5,1.4,0.5c0.5,0,1-0.2,1.4-0.5c0.4-0.3,0.7-1,1-1.8c0.3-1.1,0.5-3.1,0.5-5.8c0-2.7-0.1-4.6-0.4-5.6
			c-0.3-1-0.6-1.7-1-2C358.7,354.7,358.2,354.5,357.6,354.5z"/>
		<path class="st1" d="M378,374.1V351h9.8c2.5,0,4.3,0.2,5.4,0.6c1.1,0.4,2,1.2,2.7,2.2c0.7,1.1,1,2.3,1,3.6c0,1.7-0.5,3.2-1.5,4.3
			c-1,1.1-2.5,1.8-4.6,2.1c1,0.6,1.8,1.2,2.5,1.9c0.7,0.7,1.5,2,2.7,3.7l2.8,4.5h-5.6l-3.4-5c-1.2-1.8-2-2.9-2.5-3.4
			c-0.4-0.5-0.9-0.8-1.4-1c-0.5-0.2-1.3-0.3-2.3-0.3h-0.9v9.6H378z M382.7,360.7h3.4c2.2,0,3.6-0.1,4.2-0.3c0.6-0.2,1-0.5,1.3-1
			c0.3-0.5,0.5-1,0.5-1.7c0-0.8-0.2-1.4-0.6-1.9c-0.4-0.5-1-0.8-1.8-0.9c-0.4-0.1-1.5-0.1-3.4-0.1h-3.6V360.7z"/>
		<path class="st1" d="M411,368.7l4.4,0.7c-0.6,1.6-1.5,2.8-2.7,3.7c-1.2,0.8-2.8,1.3-4.6,1.3c-2.9,0-5.1-0.9-6.5-2.8
			c-1.1-1.5-1.7-3.4-1.7-5.8c0-2.8,0.7-4.9,2.2-6.5c1.4-1.6,3.3-2.4,5.5-2.4c2.5,0,4.4,0.8,5.9,2.5c1.4,1.6,2.1,4.2,2.1,7.5h-11.1
			c0,1.3,0.4,2.3,1.1,3.1c0.7,0.7,1.5,1.1,2.6,1.1c0.7,0,1.3-0.2,1.7-0.6C410.4,370.2,410.7,369.6,411,368.7z M411.2,364.3
			c0-1.3-0.4-2.3-1-2.9c-0.6-0.7-1.4-1-2.3-1c-1,0-1.8,0.4-2.4,1.1c-0.6,0.7-0.9,1.7-0.9,2.9H411.2z"/>
		<path class="st1" d="M423.8,374.1l-6.7-16.7h4.6l3.1,8.5l0.9,2.8c0.2-0.7,0.4-1.2,0.5-1.4c0.1-0.5,0.3-0.9,0.5-1.4l3.2-8.5h4.5
			l-6.6,16.7H423.8z"/>
		<path class="st1" d="M437.1,355.1V351h4.4v4.1H437.1z M437.1,374.1v-16.7h4.4v16.7H437.1z"/>
		<path class="st1" d="M455.8,368.7l4.4,0.7c-0.6,1.6-1.5,2.8-2.7,3.7c-1.2,0.8-2.8,1.3-4.6,1.3c-2.9,0-5.1-0.9-6.5-2.8
			c-1.1-1.5-1.7-3.4-1.7-5.8c0-2.8,0.7-4.9,2.2-6.5c1.4-1.6,3.3-2.4,5.5-2.4c2.5,0,4.4,0.8,5.9,2.5c1.4,1.6,2.1,4.2,2.1,7.5h-11.1
			c0,1.3,0.4,2.3,1.1,3.1c0.7,0.7,1.5,1.1,2.6,1.1c0.7,0,1.3-0.2,1.7-0.6C455.2,370.2,455.5,369.6,455.8,368.7z M456,364.3
			c0-1.3-0.4-2.3-1-2.9c-0.6-0.7-1.4-1-2.3-1c-1,0-1.8,0.4-2.4,1.1c-0.6,0.7-0.9,1.7-0.9,2.9H456z"/>
		<path class="st1" d="M467.1,374.1l-5.3-16.7h4.3l3.1,11l2.9-11h4.3l2.8,11l3.2-11h4.4l-5.4,16.7h-4.3l-2.9-10.8l-2.8,10.8H467.1z"
			/>
		<path class="st1" d="M487.5,369.3l4.4-0.7c0.2,0.9,0.6,1.5,1.1,2c0.6,0.4,1.4,0.7,2.4,0.7c1.1,0,2-0.2,2.6-0.6
			c0.4-0.3,0.6-0.7,0.6-1.2c0-0.3-0.1-0.6-0.3-0.8c-0.2-0.2-0.7-0.4-1.5-0.6c-3.6-0.8-5.8-1.5-6.8-2.2c-1.3-0.9-2-2.2-2-3.8
			c0-1.4,0.6-2.7,1.7-3.7c1.1-1,2.9-1.5,5.3-1.5c2.3,0,4,0.4,5.1,1.1c1.1,0.7,1.9,1.8,2.3,3.3l-4.2,0.8c-0.2-0.7-0.5-1.1-1-1.5
			c-0.5-0.3-1.2-0.5-2.1-0.5c-1.2,0-2,0.2-2.5,0.5c-0.3,0.2-0.5,0.5-0.5,0.9c0,0.3,0.1,0.6,0.4,0.8c0.4,0.3,1.8,0.7,4.1,1.2
			c2.4,0.5,4,1.2,4.9,2c0.9,0.8,1.4,1.9,1.4,3.3c0,1.5-0.6,2.8-1.9,4c-1.3,1.1-3.2,1.7-5.7,1.7c-2.3,0-4.1-0.5-5.4-1.4
			C488.8,372.1,487.9,370.9,487.5,369.3z"/>
	</g>
	<path class="st2" d="M301.8,185.8c0,0,39.8-49.4,109.1-49.4c87.6,0,123.4,60.5,123.4,60.5"/>
	<path class="st2" d="M272.7,224c0,0-15.1,33.8-13.9,76c1.2,42.6,24.3,70.8,24.3,70.8"/>
	<path class="st2" d="M544.2,367.3c0,0,14.8-15.3,21.9-56.9c7.6-44.2-8.8-72-8.8-72"/>
	<g>
		<polygon class="st1" points="294.1,385.4 303.6,394.7 303.5,381 294.8,372.4 		"/>
		<polygon class="st1" points="293.4,386.2 280,385.6 289.3,395.7 301.6,396.3 		"/>
		<polygon class="st1" points="305.3,398.8 292,399.5 302.2,408.7 314.5,408.1 		"/>
		<polygon class="st1" points="318.7,410.4 305.5,412.5 316.6,420.6 328.7,418.8 		"/>
		<polygon class="st1" points="332.4,420.5 319.4,423.3 330.9,430.8 342.9,428.3 		"/>
		<polygon class="st1" points="347.3,429.2 334.9,434.1 347.5,439.6 358.9,435.2 		"/>
		<polygon class="st1" points="363.2,436.1 351.8,441.8 365,445.7 375.8,440 		"/>
		<polygon class="st1" points="380.5,440.3 369.7,447 383.1,449.8 393.4,443.1 		"/>
		<polygon class="st1" points="306,397.7 315.7,407.1 315.7,393.4 306.8,384.7 		"/>
		<polygon class="st1" points="318.5,408.6 328.3,417.4 327.3,403.7 318.4,395.6 		"/>
		<polygon class="st1" points="332.4,419.1 343.2,427.2 341.3,413.6 331.5,406.1 		"/>
		<polygon class="st1" points="347.4,427.8 359.3,434.2 355.5,421 344.6,415.1 		"/>
		<polygon class="st1" points="363.9,434.8 376.8,438.9 370.5,426.6 358.7,422.9 		"/>
		<polygon class="st1" points="380.6,439.1 394.4,441.6 388.1,431 373.3,428.3 		"/>
	</g>
	<g>
		<polygon class="st1" points="530.3,385.4 520.8,394.7 520.9,381 529.6,372.4 		"/>
		<polygon class="st1" points="531.1,386.2 544.4,385.6 535.1,395.7 522.8,396.3 		"/>
		<polygon class="st1" points="519.1,398.8 532.4,399.5 522.2,408.7 509.9,408.1 		"/>
		<polygon class="st1" points="505.7,410.4 518.9,412.5 507.8,420.6 495.7,418.8 		"/>
		<polygon class="st1" points="492,420.5 505,423.3 493.5,430.8 481.5,428.3 		"/>
		<polygon class="st1" points="477.1,429.2 489.5,434.1 477,439.6 465.5,435.2 		"/>
		<polygon class="st1" points="461.2,436.1 472.6,441.8 459.4,445.7 448.6,440 		"/>
		<polygon class="st1" points="443.9,440.3 454.7,447 441.3,449.8 431,443.1 		"/>
		<polygon class="st1" points="518.4,397.7 508.7,407.1 508.7,393.4 517.6,384.7 		"/>
		<polygon class="st1" points="505.9,408.6 496.1,417.4 497.1,403.7 506,395.6 		"/>
		<polygon class="st1" points="492,419.1 481.2,427.2 483.1,413.6 492.9,406.1 		"/>
		<polygon class="st1" points="477,427.8 465.1,434.2 469,421 479.8,415.1 		"/>
		<polygon class="st1" points="460.5,434.8 447.6,438.9 453.9,426.6 465.7,422.9 		"/>
		<polygon class="st1" points="443.8,439.1 430,441.6 436.3,431 451.1,428.3 		"/>
	</g>
	<path class="st1" d="M409.6,434l3.6-9.4l3.1,9.3l9.7,0.3l-7.6,7.2l3.7,9.3l-9.3-5.7c0,0-7.2,5.8-7.2,5.4s1.9-9.4,1.9-9.4l-6.4-6.9
		H409.6z"/>
	<circle class="st2" cx="412.7" cy="290" r="174"/>
</g>
</svg>
