<?xml version="1.0" encoding="utf-8"?>
<!-- Generator: Adobe Illustrator 22.0.1, SVG Export Plug-In . SVG Version: 6.00 Build 0)  -->
<svg version="1.1" id="Layer_1" xmlns="http://www.w3.org/2000/svg" xmlns:xlink="http://www.w3.org/1999/xlink" x="0px" y="0px"
	 viewBox="0 0 95.5 108" style="enable-background:new 0 0 95.5 108;" xml:space="preserve">
<style type="text/css">
	.st0{fill:#565656;}
	.st1{fill:none;stroke:#565656;stroke-width:0.7098;stroke-miterlimit:10;}
</style>
<g>
	<path class="st0" d="M14.3,25l-1.6-6.1h1.4c0.6,2.8,0.8,4.1,0.9,4.7h0c0.2-1.1,0.8-3.2,1.2-4.7h1.2c0.3,1.2,0.9,3.5,1.1,4.7h0
		c0.2-1.3,0.8-3.7,1-4.7h1.3L19.2,25h-1.4c-0.3-1.4-0.9-3.3-1.1-4.4h0c-0.2,1.1-0.8,3.1-1.1,4.4H14.3z"/>
	<path class="st0" d="M26.4,22.3h-2.9v1.6h3.2L26.6,25h-4.3v-6.1h4.3v1.1h-3.1v1.3h2.9V22.3z"/>
	<path class="st0" d="M28.2,18.8h2.4c1.8,0,2.9,1.2,2.9,3c0,1.8-1.1,3.1-3,3.1h-2.4V18.8z M29.6,23.9h1c1.2,0,1.7-0.9,1.7-2.1
		c0-1-0.5-1.9-1.7-1.9h-1V23.9z"/>
	<path class="st0" d="M35.3,18.8h2.4c1.8,0,2.9,1.2,2.9,3c0,1.8-1.1,3.1-3,3.1h-2.4V18.8z M36.7,23.9h1c1.2,0,1.7-0.9,1.7-2.1
		c0-1-0.5-1.9-1.7-1.9h-1V23.9z"/>
	<path class="st0" d="M43.7,18.8V25h-1.3v-6.1H43.7z"/>
	<path class="st0" d="M45.8,25v-6.1h1.6c0.8,1.4,2.2,3.8,2.5,4.5h0c-0.1-0.6-0.1-1.7-0.1-2.7v-1.8H51V25h-1.6
		c-0.7-1.2-2.2-4-2.5-4.7h0c0,0.5,0.1,1.8,0.1,2.9V25H45.8z"/>
	<path class="st0" d="M58.3,25h-1c-0.1-0.2-0.1-0.4-0.1-0.6c-0.3,0.5-0.9,0.7-1.8,0.7c-1.8,0-2.8-1.3-2.8-3.1c0-1.8,1.1-3.2,3-3.2
		c1.6,0,2.5,0.9,2.6,1.9H57c-0.1-0.4-0.4-0.9-1.3-0.9c-1.3,0-1.6,1-1.6,2.1c0,1.1,0.4,2.1,1.6,2.1c1.1,0,1.3-0.8,1.3-1.3v-0.1h-1.3
		v-1.1h2.6V25z"/>
	<path class="st0" d="M61.5,25l-1.7-6.2h0.5c0.4,1.5,1.4,4.9,1.5,5.6h0c0.1-0.6,1.1-4,1.6-5.6h0.5c0.4,1.5,1.4,5.2,1.5,5.6h0
		c0.2-0.9,1.2-4.2,1.7-5.6h0.5L65.6,25H65c-0.4-1.5-1.4-5.1-1.5-5.6h0c-0.2,0.8-1.1,4-1.6,5.6H61.5z"/>
	<path class="st0" d="M69.7,18.8V25h-0.5v-6.2H69.7z"/>
	<path class="st0" d="M72.5,22.1V25H72v-6.2h2.2c1.2,0,1.9,0.7,1.9,1.6c0,0.8-0.5,1.3-1.2,1.5c0.6,0.2,1.1,0.6,1.1,1.6v0.2
		c0,0.4,0,1,0.1,1.3h-0.5c-0.1-0.3-0.1-0.8-0.1-1.3v-0.2c0-1-0.3-1.4-1.5-1.4H72.5z M72.5,21.6H74c1.1,0,1.6-0.4,1.6-1.2
		c0-0.8-0.5-1.2-1.5-1.2h-1.6V21.6z"/>
	<path class="st0" d="M81.9,21.9h-3.2v2.6h3.5L82.1,25h-3.9v-6.2H82v0.4h-3.3v2.3h3.2V21.9z"/>
</g>
<g>
	<path class="st0" d="M15.2,53.2l-1.5,4.1H12l4.9-13.7h2.2l5.1,13.7h-1.9l-1.5-4.1H15.2z M20.3,51.7c-1.3-3.6-2-5.5-2.3-6.6h0
		c-0.3,1.2-1.1,3.5-2.2,6.6H20.3z"/>
	<path class="st0" d="M26.8,47.3c1.2,4.7,2,7.4,2.1,8.4h0c0.2-0.9,0.9-3.4,2.3-8.4h1.7c1.6,5.7,2,7.3,2.2,8.2h0
		c0.2-1.1,0.6-2.6,2.2-8.2h1.8l-3.1,10h-1.9c-1-3.6-1.9-7-2.1-8.1h0c-0.2,1.1-1.1,4.1-2.2,8.1h-1.9l-2.9-10H26.8z"/>
	<path class="st0" d="M48.8,55.2c0,0.9,0.1,1.9,0.1,2.2h-1.7c-0.1-0.2-0.1-0.7-0.2-1.3c-0.3,0.7-1.1,1.5-3.1,1.5
		c-2.4,0-3.4-1.5-3.4-3.1c0-2.2,1.8-3.3,4.7-3.3c0.7,0,1.3,0,1.7,0v-0.9c0-0.9-0.3-2-2.2-2c-1.7,0-2,0.8-2.1,1.6h-1.7
		c0.1-1.4,1-3,3.9-3c2.4,0,3.8,1,3.8,3.3V55.2z M47.1,52.5c-0.3,0-1.1,0-1.6,0c-2,0-3.1,0.6-3.1,2c0,1,0.7,1.8,1.9,1.8
		c2.4,0,2.7-1.6,2.7-3.4V52.5z"/>
	<path class="st0" d="M52.5,50.1c0-1.4,0-2.2,0-2.7h1.7c0,0.3,0.1,1.1,0.1,2c0.5-1.4,1.7-2.2,3.4-2.3v1.7c-2.1,0.1-3.4,1.1-3.4,3.7
		v4.9h-1.7V50.1z"/>
	<path class="st0" d="M68.3,42.9v11.6c0,0.9,0,1.9,0,2.8h-1.7c0-0.3-0.1-1-0.1-1.4c-0.5,1-1.5,1.7-3.1,1.7c-2.6,0-4.1-2.1-4.1-5.1
		c0-3.1,1.7-5.3,4.5-5.3c1.8,0,2.6,0.7,2.8,1.3v-5.5H68.3z M61,52.4c0,2.4,1.1,3.7,2.7,3.7c2.3,0,2.9-1.7,2.9-3.9
		c0-2.2-0.5-3.6-2.7-3.6C62.1,48.6,61,50,61,52.4z"/>
	<path class="st0" d="M72.6,54.5c0.3,1.1,1.1,1.7,2.5,1.7c1.5,0,2-0.6,2-1.5c0-0.9-0.5-1.4-2.4-1.8c-2.9-0.7-3.5-1.6-3.5-2.9
		c0-1.4,1-2.8,3.6-2.8c2.6,0,3.6,1.5,3.8,2.9H77c-0.1-0.6-0.6-1.5-2.2-1.5c-1.4,0-1.8,0.7-1.8,1.3c0,0.7,0.4,1.1,2.2,1.6
		c3,0.7,3.6,1.7,3.6,3.2c0,1.8-1.4,3-3.9,3c-2.6,0-3.9-1.3-4.1-3.1H72.6z"/>
	<path class="st0" d="M83.6,45.5c0,1.3-1,2.3-2.3,2.3c-1.3,0-2.3-1-2.3-2.3c0-1.3,1-2.3,2.3-2.3C82.5,43.2,83.6,44.2,83.6,45.5z
		 M79.5,45.5c0,1,0.7,1.8,1.8,1.8c1,0,1.7-0.8,1.7-1.8c0-1-0.7-1.8-1.7-1.8S79.5,44.5,79.5,45.5z M80.9,46.7h-0.5v-2.3
		c0.2,0,0.5-0.1,0.9-0.1c0.4,0,0.6,0.1,0.8,0.2c0.1,0.1,0.2,0.3,0.2,0.5c0,0.2-0.2,0.4-0.5,0.5v0c0.2,0.1,0.3,0.2,0.4,0.6
		c0.1,0.3,0.1,0.5,0.2,0.6h-0.6c-0.1-0.1-0.1-0.3-0.2-0.6c0-0.2-0.2-0.4-0.5-0.4h-0.2V46.7z M80.9,45.4h0.2c0.3,0,0.5-0.1,0.5-0.3
		c0-0.2-0.2-0.3-0.5-0.3c-0.1,0-0.2,0-0.3,0V45.4z"/>
</g>
<g>
	<path class="st0" d="M16.8,36.3c-0.2,0.9-0.9,1.6-2.2,1.6c-1.6,0-2.4-1.1-2.4-2.6c0-1.4,0.8-2.6,2.4-2.6c1.4,0,2,0.8,2.1,1.6h-1.1
		c-0.1-0.4-0.4-0.8-1.1-0.8c-0.9,0-1.3,0.8-1.3,1.7c0,0.9,0.3,1.8,1.3,1.8c0.7,0,0.9-0.5,1-0.8H16.8z"/>
	<path class="st0" d="M22.8,35.3c0,1.4-0.9,2.6-2.5,2.6c-1.6,0-2.4-1.2-2.4-2.6c0-1.5,0.9-2.6,2.5-2.6
		C21.8,32.7,22.8,33.8,22.8,35.3z M19,35.3c0,1,0.4,1.7,1.3,1.7c1,0,1.3-0.8,1.3-1.7c0-1-0.4-1.7-1.3-1.7C19.4,33.6,19,34.3,19,35.3
		z"/>
	<path class="st0" d="M25.1,32.8v3c0,1,0.5,1.3,1.1,1.3c0.6,0,1-0.3,1-1.3v-3h1.1v3c0,1.7-1,2.2-2.1,2.2C25,38,24,37.5,24,35.8v-3
		H25.1z"/>
	<path class="st0" d="M29.7,32.8h2.1c1.1,0,1.8,0.6,1.8,1.6c0,1.1-0.8,1.6-1.8,1.6h-1v1.9h-1.1V32.8z M30.8,35.1h0.8
		c0.5,0,0.9-0.2,0.9-0.7c0-0.5-0.4-0.7-0.8-0.7h-0.9V35.1z"/>
	<path class="st0" d="M34.8,32.8h1.1V37h2.5l-0.1,0.9h-3.5V32.8z"/>
	<path class="st0" d="M42.9,35.7h-2.4V37h2.7L43,37.9h-3.6v-5.1H43v0.9h-2.5v1.1h2.4V35.7z"/>
	<path class="st0" d="M45.1,36.4c0.1,0.5,0.5,0.7,1.1,0.7c0.6,0,0.8-0.2,0.8-0.6c0-0.4-0.2-0.6-1.1-0.8c-1.4-0.3-1.7-0.8-1.7-1.5
		c0-0.9,0.7-1.5,1.9-1.5c1.4,0,1.9,0.7,2,1.5h-1.1c-0.1-0.3-0.2-0.7-0.9-0.7c-0.4,0-0.7,0.2-0.7,0.5c0,0.4,0.2,0.5,1,0.7
		c1.5,0.3,1.8,0.9,1.8,1.6c0,0.9-0.7,1.6-2,1.6c-1.3,0-2-0.6-2.1-1.6H45.1z"/>
	<path class="st0" d="M49,34.7c0.2-0.6,0.5-1.4,0.7-1.8l0.4,0c-0.2,0.4-0.4,1.2-0.4,1.7L49,34.7z"/>
	<path class="st0" d="M57.6,36.3c-0.2,0.9-0.9,1.6-2.2,1.6c-1.6,0-2.4-1.1-2.4-2.6c0-1.4,0.8-2.6,2.4-2.6c1.4,0,2,0.8,2.1,1.6h-1.1
		c-0.1-0.4-0.4-0.8-1.1-0.8c-0.9,0-1.3,0.8-1.3,1.7c0,0.9,0.3,1.8,1.3,1.8c0.7,0,0.9-0.5,1-0.8H57.6z"/>
	<path class="st0" d="M58.8,32.8h1.1v2h2v-2H63v5.1h-1.1v-2.2h-2v2.2h-1.1V32.8z"/>
	<path class="st0" d="M69.2,35.3c0,1.4-0.9,2.6-2.5,2.6c-1.6,0-2.4-1.2-2.4-2.6c0-1.5,0.9-2.6,2.5-2.6
		C68.3,32.7,69.2,33.8,69.2,35.3z M65.4,35.3c0,1,0.4,1.7,1.3,1.7c1,0,1.3-0.8,1.3-1.7c0-1-0.4-1.7-1.3-1.7
		C65.8,33.6,65.4,34.3,65.4,35.3z"/>
	<path class="st0" d="M71.6,32.8v5.1h-1.1v-5.1H71.6z"/>
	<path class="st0" d="M77.5,36.3c-0.2,0.9-0.9,1.6-2.2,1.6c-1.6,0-2.4-1.1-2.4-2.6c0-1.4,0.8-2.6,2.4-2.6c1.4,0,2,0.8,2.1,1.6h-1.1
		c-0.1-0.4-0.4-0.8-1.1-0.8c-0.9,0-1.3,0.8-1.3,1.7c0,0.9,0.3,1.8,1.3,1.8c0.7,0,0.9-0.5,1-0.8H77.5z"/>
	<path class="st0" d="M82.1,35.7h-2.4V37h2.7l-0.1,0.9h-3.6v-5.1h3.6v0.9h-2.5v1.1h2.4V35.7z"/>
</g>
<g>
	<polygon class="st0" points="22.2,65.2 23.9,68.5 27.5,69 24.9,71.6 25.5,75.2 22.2,73.5 19,75.2 19.6,71.6 17,69 20.6,68.5 	"/>
	<polygon class="st0" points="35.2,65.2 36.8,68.5 40.5,69 37.8,71.6 38.4,75.2 35.2,73.5 31.9,75.2 32.5,71.6 29.9,69 33.6,68.5 	
		"/>
	<polygon class="st0" points="48,65.2 49.6,68.5 53.3,69 50.6,71.6 51.3,75.2 48,73.5 44.7,75.2 45.4,71.6 42.7,69 46.4,68.5 	"/>
	<polygon class="st0" points="60.5,65.2 62.1,68.5 65.8,69 63.1,71.6 63.7,75.2 60.5,73.5 57.2,75.2 57.8,71.6 55.2,69 58.8,68.5 	
		"/>
	<polygon class="st0" points="73,65.2 74.6,68.5 78.2,69 75.6,71.6 76.2,75.2 73,73.5 69.7,75.2 70.3,71.6 67.7,69 71.3,68.5 	"/>
</g>
<g>
	<path class="st0" d="M33.7,97L33.7,97c0-1.3,0.8-2.6,2.6-4c1.4-1.1,1.8-1.4,1.8-2.4c0-0.9-0.5-1.5-1.5-1.5c-1.1,0-1.6,0.6-1.7,1.6
		h-1.1c0.2-1.5,1.1-2.6,2.9-2.6c2,0,2.7,1.3,2.7,2.5c0,1.3-0.6,1.8-2.2,3.1c-1.2,0.9-1.8,1.6-2.1,2.3h4.6l-0.2,1H33.7z"/>
	<path class="st0" d="M47.4,92.5c0,2.2-0.6,4.6-3.1,4.6c-2.4,0-3.1-2.3-3.1-4.5c0-2.2,0.7-4.5,3.1-4.5
		C46.7,88.1,47.4,90.3,47.4,92.5z M42.5,92.6c0,1.7,0.3,3.5,1.8,3.5c1.6,0,1.8-1.8,1.8-3.6c0-1.7-0.3-3.5-1.8-3.5
		C42.9,89.1,42.5,90.7,42.5,92.6z"/>
	<path class="st0" d="M50.9,97v-7.4c-0.4,0.3-1.3,0.7-1.8,0.8v-0.9c0.7-0.2,1.5-0.7,2.1-1.3H52V97H50.9z"/>
	<path class="st0" d="M59.2,90.1C59,89.5,58.6,89,57.7,89c-1.5,0-2,1.4-2,3.2c0.4-0.6,1-1.2,2.2-1.2c1.7,0,2.7,1.2,2.7,2.9
		c0,1.7-1,3.2-3,3.2c-2.4,0-3.1-2-3.1-4.4c0-2.4,0.8-4.7,3.2-4.7c1.8,0,2.5,1.2,2.6,2.1H59.2z M59.4,94c0-1-0.4-2-1.7-2
		c-1.1,0-1.8,0.7-1.8,2c0,0.7,0.4,2.1,1.8,2.1C58.9,96.1,59.4,95.1,59.4,94z"/>
</g>
<g>
	<path class="st0" d="M3.1,4v100.9h89.2V4H3.1z M89.1,101.9H6.4V6.9h82.7V101.9z"/>
	<line class="st1" x1="6.5" y1="84.1" x2="89.4" y2="84"/>
</g>
</svg>
