<?xml version="1.0" encoding="utf-8"?>
<!-- Generator: Adobe Illustrator 22.0.1, SVG Export Plug-In . SVG Version: 6.00 Build 0)  -->
<svg version="1.1" id="Layer_1" xmlns="http://www.w3.org/2000/svg" xmlns:xlink="http://www.w3.org/1999/xlink" x="0px" y="0px"
	 viewBox="0 0 195 57.7" style="enable-background:new 0 0 195 57.7;" xml:space="preserve">
<style type="text/css">
	.st0{fill:#666667;}
</style>
<g>
	<path class="st0" d="M25.9,54.7c-1.3,0-2.6,0-4-0.1c-0.7,0-1.5,0-2.2,0c-0.9,0-1.8,0-2.7-0.1c-1,0-1.9,0-2.9-0.1
		c-1.1,0-2.3-0.1-3.4-0.1c-0.4,0-0.7,0-1.1,0H9.5c0,0,0-0.1,0.1-0.1c0.2-0.2,0.4-0.5,0.6-0.7c2.4-2.6,4.8-5.2,7.2-7.9
		c1.6-1.7,3.1-3.4,4.7-5.2c2.2-2.4,4.3-4.7,6.5-7.1c1.7-1.9,3.4-3.7,5.1-5.6c0.3-0.3,0.6-0.7,0.9-1c0.1-0.1,0.1-0.1,0.3,0
		c0.5,0.4,0.9,0.7,1.4,1.1c3.3,2.6,6.6,5.3,10,7.9c1.3,1,2.6,2.1,3.9,3.1c0.3,0.2,0.3,0.2,0.3,0.6c0,0.3,0,0.6,0,1
		c0,1.1,0,2.1,0.1,3.2c0,1.3,0,2.6,0.1,3.9c0,0.7-0.1,1.4-0.4,2.1c-0.3,1-0.8,1.8-1.5,2.6s-1.6,1.4-2.6,1.7
		c-0.6,0.2-1.2,0.3-1.8,0.4c-1.4,0.2-2.8,0.2-4.2,0.3c-0.9,0-1.9,0-2.8,0.1c-1.4,0-2.8,0.1-4.2,0.1c-0.7,0-1.4,0-2.1,0
		c-1.1,0-2.2,0-3.3,0C26.9,54.7,26.4,54.8,25.9,54.7L25.9,54.7z"/>
	<path class="st0" d="M0.2,35.6c0-0.5,0-1.1,0.1-1.6c0.1-1.5,0.1-2.9,0.2-4.4c0.1-1.4,0.1-2.9,0.2-4.3c0-0.9,0.1-1.8,0.1-2.8
		c0.1-1.3,0.1-2.7,0.2-4s0.1-2.5,0.2-3.8c0-0.8,0.1-1.6,0.1-2.4C1.4,10.6,1.9,9,2.8,7.5c0.4-0.6,0.9-1.2,1.4-1.7
		C5.1,5,6.3,4.6,7.5,4.5c0.9-0.1,1.8,0.1,2.8,0.3c0.6,0.2,1.2,0.4,1.8,0.6c0.2,0.1,0.4,0.2,0.5,0.3c3,3,6,6,9,9
		c1.8,1.8,3.6,3.6,5.4,5.4c0.3,0.3,0.3,0.2,0,0.6c-1.7,1.9-3.4,3.9-5.2,5.8c-1.2,1.3-2.3,2.6-3.5,3.9s-2.4,2.7-3.6,4
		c-1.1,1.3-2.3,2.6-3.4,3.8C10.2,39.7,9,41,7.7,42.4c-1.5,1.7-3,3.4-4.6,5.1c-0.8,0.9-1.6,1.8-2.4,2.7c-0.1,0.1-0.1,0.2-0.2,0.2
		c-0.1,0.1-0.1,0-0.2,0c-0.1-0.1-0.1-0.3-0.1-0.5c-0.1-0.5-0.1-0.9-0.1-1.4C0,46.8,0,45,0,43.2c0-0.7,0-1.4,0-2.1
		c0-0.9,0-1.8,0.1-2.7C0.1,37.4,0.2,36.5,0.2,35.6z"/>
	<path class="st0" d="M119.2,22.8l-0.1,0.1c-1,1.2-2,2.3-3,3.5c-0.2,0.2-0.2,0.4-0.2,0.6c0,4.1,0,8.1,0,12.2c0,0.1,0,0.2,0,0.3
		s0,0.1-0.1,0.1s-0.2,0-0.2,0c-2,0-4,0-5.9,0c-0.4,0-0.4,0-0.4-0.4c0-12,0-24,0-36c0-0.1,0-0.1,0-0.2c0-0.2,0-0.2,0.2-0.2
		c0.7,0,1.4,0,2,0c1.4,0,2.7,0,4.1,0c0.3,0,0.3,0,0.3,0.3c0,1.5,0,3.1,0,4.6c0,3.9,0,7.8,0,11.6c0,0.1,0,0.3,0,0.4
		c0.2,0,0.2-0.2,0.3-0.3c1.2-1.9,2.5-3.6,3.8-5.4c2.7-3.6,5.4-7.2,8-10.8c0.1-0.1,0.2-0.2,0.2-0.3c0.1-0.1,0.1-0.1,0.2-0.1
		c0.1,0,0.1,0,0.2,0c2.5,0,5,0,7.6,0c0.1,0,0.2,0,0.2,0s0.1,0.1,0,0.1c0,0.1-0.1,0.1-0.1,0.2c-1.4,1.8-2.9,3.6-4.3,5.3
		c-1.6,2-3.2,3.9-4.8,5.9c-1,1.3-2.1,2.6-3.1,3.9c-0.3,0.3-0.3,0.2,0,0.6c2,3.1,3.9,6.1,5.9,9.2c2.3,3.6,4.5,7.1,6.8,10.7
		c0.2,0.2,0.3,0.5,0.5,0.7c0.1,0.1,0.1,0.2-0.1,0.2c-0.1,0-0.2,0-0.2,0c-2.4,0-4.7,0-7.1,0h-0.1c-0.3,0-0.3,0-0.5-0.3
		c-1.2-1.9-2.3-3.8-3.5-5.7c-2.2-3.5-4.4-7.1-6.5-10.6C119.3,23,119.3,22.9,119.2,22.8z"/>
	<path class="st0" d="M76.1,39.6c-1.2,0-2.3,0-3.5,0c-0.1,0-0.2,0-0.3,0c-0.1,0-0.1,0-0.2-0.1v-0.1c-0.4-1.3-0.8-2.6-1.3-3.9
		c-0.8-2.3-1.5-4.7-2.3-7c-0.9-2.7-1.7-5.4-2.6-8c-0.6-1.8-1.1-3.5-1.7-5.2c-0.7-2.1-1.4-4.2-2-6.3c-0.6-1.7-1.1-3.5-1.7-5.2
		c-0.1-0.4-0.3-0.8-0.4-1.3V2.4c0-0.1,0-0.2,0.1-0.2s0.1,0,0.2,0c2.3,0,4.6,0,6.8,0h0.1c0.2,0,0.2,0,0.2,0.2
		c0.1,0.4,0.2,0.8,0.3,1.1c1,3.3,2,6.6,3,9.9c0.9,3.2,1.9,6.3,2.9,9.5c0.7,2.5,1.4,4.9,2,7.4c0.2,0.8,0.4,1.6,0.5,2.4
		c0,0.1,0,0.1,0,0.2c0,0,0,0,0.1,0l0,0c0-0.1,0.1-0.2,0.1-0.3c0.5-2.1,1-4.2,1.6-6.2c0.9-3,1.8-6,2.8-9.1c1.4-4.4,2.8-8.7,4.2-13.1
		c0.2-0.6,0.4-1.3,0.6-1.9c0.1-0.2,0.1-0.2,0.2-0.2s0.2,0,0.2,0c2.1,0,4.3,0,6.4,0c0.1,0,0.2,0,0.3,0c0.1,0,0.1,0,0.1,0.1
		s0,0.2-0.1,0.2c-1.1,3.1-2.1,6.2-3.2,9.3c-1.1,3.2-2.2,6.4-3.3,9.5c-1.2,3.5-2.4,7-3.6,10.4c-0.9,2.5-1.7,5-2.6,7.5
		c-0.1,0.4-0.1,0.4-0.5,0.4C78.5,39.6,77.3,39.6,76.1,39.6z"/>
	<path class="st0" d="M171.4,18.1c0-0.1-0.1-0.2-0.1-0.3c-0.4-1.5-0.8-3-1.2-4.4v-0.1c0-0.2,0-0.2,0.1-0.2c0.2-0.1,0.4-0.2,0.7-0.3
		c1.2-0.5,2.4-0.8,3.7-1c1.2-0.2,2.5-0.3,3.7-0.3c1.7,0,3.3,0.2,4.9,0.6c0.9,0.3,1.8,0.6,2.6,1.1c1.4,0.8,2.4,2,3.1,3.5
		c0.4,1,0.7,2,0.9,3c0.3,1.3,0.4,2.7,0.4,4.1c0,0.8,0,1.7,0,2.5c0,1.8,0,3.6,0,5.4c0,1.1,0.1,2.2,0.4,3.3c0.1,0.5,0.3,1,0.5,1.4
		c0.3,0.6,0.7,1.2,1.3,1.6c0.1,0.1,0.1,0.1,0,0.3c-0.2,0.4-0.5,0.8-0.9,1.1c-0.3,0.2-0.6,0.4-1,0.5c-0.7,0.2-1.5,0.3-2.2,0.3
		c-0.8,0-1.5-0.3-2.2-0.8c-0.7-0.6-1.3-1.3-1.7-2.2c0-0.1,0-0.1-0.1-0.1c0,0-0.1,0-0.1,0.1c-0.6,0.9-1.5,1.5-2.6,2
		c-1.2,0.6-2.5,0.9-3.9,1.1c-1.6,0.1-3.2,0-4.7-0.4c-1.4-0.4-2.6-1-3.6-1.9s-1.7-2.1-2.1-3.4c-0.3-1.2-0.4-2.4-0.3-3.6
		c0.1-0.9,0.2-1.9,0.6-2.7c0.5-1.5,1.4-2.7,2.7-3.7c1.1-0.9,2.3-1.5,3.6-2c1.5-0.5,2.9-0.8,4.5-0.9c0.8-0.1,1.5-0.1,2.3-0.1
		c0.9,0,1.7,0.1,2.6,0.3c0.1,0,0.2,0,0.2,0c0.1,0,0.1,0,0.1-0.1c0-0.4-0.1-0.9-0.2-1.3c-0.3-1.3-1.1-2.2-2.3-2.8
		c-0.6-0.3-1.3-0.5-2-0.6c-1.2-0.2-2.4-0.1-3.5,0c-1,0.1-2,0.3-2.9,0.6C172.3,17.8,171.9,18,171.4,18.1
		C171.6,18,171.5,18,171.4,18.1z M183.8,28.5c0-0.5,0-1,0-1.5c0-0.1,0-0.2,0-0.2c0-0.1,0-0.1-0.1-0.2c-0.1,0-0.2,0-0.2,0
		c-1-0.2-2-0.3-3-0.3c-0.9,0.1-1.8,0.1-2.7,0.3c-0.8,0.2-1.6,0.5-2.3,1s-1.2,1.1-1.5,2c-0.3,1-0.4,2-0.1,3c0.2,1,0.9,1.7,1.8,2.1
		c0.3,0.1,0.6,0.2,0.9,0.3c1,0.2,1.9,0.2,2.9,0c0.6-0.1,1.1-0.2,1.6-0.4c1-0.4,1.7-1.1,2.2-2.1c0.4-0.7,0.5-1.5,0.6-2.3
		C183.8,29.6,183.8,29,183.8,28.5z"/>
	<path class="st0" d="M162.4,26.1c0,1.9,0,3.8,0,5.8c0,1.1,0,2.2,0,3.3c0,1.4,0.1,2.7,0.2,4.1c0,0.4,0.1,0.4-0.4,0.4
		c-1.7,0-3.5,0-5.2,0c-0.4,0-0.4,0-0.4-0.4c-0.1-1.1-0.2-2.2-0.3-3.3c0-0.1,0-0.2,0-0.3c0,0,0-0.1-0.1-0.1s-0.1,0-0.1,0
		c-0.1,0.1-0.1,0.1-0.1,0.2c-0.6,0.9-1.3,1.7-2.1,2.3c-1.3,1-2.7,1.6-4.3,1.9c-1.6,0.3-3.1,0.3-4.7-0.1c-2.5-0.6-4.2-2-5.4-4.3
		c-0.6-1.2-1-2.5-1.2-3.9c-0.2-1-0.2-2.1-0.2-3.1c0-5.2,0-10.5,0-15.7c0-0.5-0.1-0.5,0.5-0.5c2,0,3.9,0,5.9,0c0.1,0,0.1,0,0.2,0
		c0.3,0,0.3,0,0.3,0.3c0,0.1,0,0.1,0,0.2c0,4.7,0,9.4,0,14.1c0,1,0.1,2,0.3,3c0.1,0.8,0.4,1.5,0.7,2.2c0.4,0.7,0.8,1.2,1.5,1.7
		c0.5,0.3,1,0.5,1.6,0.6c0.9,0.2,1.8,0.1,2.6-0.2c1.3-0.4,2.3-1.2,3-2.3c0.4-0.6,0.7-1.3,0.9-2.1c0.1-0.4,0.1-0.9,0.1-1.3
		c0-5.2,0-10.5,0-15.7c0-0.1,0-0.2,0-0.3s0-0.2,0.2-0.2c0.1,0,0.1,0,0.2,0c2,0,4.1,0,6.1,0c0,0,0,0,0.1,0c0.3,0,0.3,0,0.3,0.3
		c0,3.2,0,6.3,0,9.5C162.4,23.6,162.4,24.8,162.4,26.1z"/>
	<path class="st0" d="M21.5,3.3c0-0.1,0.1-0.1,0.2-0.1c1,0,2.1-0.1,3.1-0.1c0.9,0,1.8-0.1,2.6-0.1c0.9,0,1.8,0,2.7-0.1
		c1.1,0,2.2,0,3.2-0.1h0.1c1.9,0,3.7,0,5.6,0c0.1,0,0.3,0,0.4,0c0.2,0,0.2,0,0.2,0.2c-0.1,0.4-0.1,0.8-0.1,1.2
		c-0.1,1.4,0.2,2.8,0.7,4.1c1.3,3,3.6,4.8,6.7,5.6c1.5,0.4,3,0.4,4.5,0c0.1,0,0.1,0,0.2,0c0.1,0,0.2,0,0.2,0.1s0,0.2,0,0.3
		c0,1.1,0.1,2.1,0.1,3.2c0,1.4,0,2.8,0,4.3c0,1,0,2,0,3c0,1.1-0.1,2.2-0.1,3.3v0.1c-0.1,0-0.2-0.1-0.2-0.1c-0.9-0.7-1.7-1.4-2.6-2.1
		c-2.5-2-5-4.1-7.4-6.1c-2.2-1.8-4.4-3.6-6.6-5.4c-2.3-1.9-4.6-3.8-7-5.7c-2.1-1.7-4.2-3.5-6.3-5.2C21.6,3.4,21.5,3.4,21.5,3.3z"/>
	<path class="st0" d="M102.2,26.4c0,4.5,0,9,0,13.4c0,0.1,0,0.2,0,0.3s-0.1,0.1-0.1,0.1c-0.1,0-0.2,0-0.2,0c-1.9,0-3.9,0-5.8,0H96
		c-0.3,0-0.3,0-0.3-0.2c0-0.1,0-0.2,0-0.2c0-7.2,0-14.3,0-21.5c0-0.1,0-0.3,0-0.4c0,0,0-0.1-0.1-0.1s-0.2,0-0.3,0
		c-0.9,0-1.8,0-2.7,0c-0.1,0-0.2,0-0.3,0c-0.1,0-0.1-0.1-0.1-0.1c0.1-0.2,0.2-0.5,0.3-0.7c0.5-1.4,1.1-2.8,1.6-4.2
		c0.2-0.4,0.1-0.3,0.5-0.3c2.4,0,4.9,0,7.3,0l0,0c0.4,0,0.3,0,0.3,0.3C102.2,17.3,102.2,21.8,102.2,26.4z"/>
	<path class="st0" d="M48,0c2.2,0,4.4,1.4,5.2,3.7c0.7,1.9,0.2,4-1.1,5.4c-2,2.2-5.4,2.4-7.6,0.6c-1.1-0.9-1.7-2-2-3.3
		c-0.4-2.3,0.7-4.4,2.6-5.5C45.9,0.3,46.9,0,48,0z"/>
	<path class="st0" d="M102.7,5.5c0.1,2.1-1.7,3.8-3.8,3.8c-1.8,0-3.8-1.5-3.8-3.8c0-2.1,1.7-3.8,3.8-3.8
		C101.2,1.7,102.8,3.5,102.7,5.5z"/>
	<path class="st0" d="M117,52.3c0,0.6,0,1.3,0,1.9c0,0.1,0,0.2,0,0.2c0,0.1-0.1,0.2-0.2,0.2s-0.1,0-0.2,0.1c-0.5,0.1-1,0.3-1.5,0.3
		c-0.6,0.1-1.2,0.1-1.8,0.1c-0.4-0.1-0.9-0.1-1.3-0.2c-1.4-0.4-2.3-1.4-2.6-2.8c-0.3-1.1-0.2-2.2,0.2-3.3c0.4-0.9,1-1.6,1.9-2.1
		c0.6-0.3,1.3-0.5,2-0.6c0.3,0,0.7-0.1,1-0.1c0.6,0,1.2,0.1,1.8,0.3c0.5,0.1,0.5,0.1,0.3,0.6c-0.1,0.3-0.2,0.7-0.3,1
		c0,0.1-0.1,0.1-0.2,0.1c-0.3-0.1-0.6-0.2-0.9-0.2c-0.7-0.1-1.3-0.1-2,0c-0.6,0.2-1.1,0.5-1.4,1c-0.2,0.3-0.3,0.6-0.4,0.9
		c-0.2,0.7-0.1,1.3,0.1,2c0.3,0.9,0.9,1.4,1.8,1.7c0.5,0.1,1,0.1,1.5,0c0.2,0,0.2-0.1,0.2-0.2c0-0.5,0-1,0-1.5c0-0.2,0-0.2-0.2-0.2
		c-0.3,0-0.5,0-0.8,0c-0.1,0-0.2,0-0.2,0s-0.1,0-0.1-0.1v-0.1c0-0.4,0-0.8,0-1.2c0-0.2,0-0.2,0.2-0.2c0.7,0,1.4,0,2.1,0
		c0.3,0,0.6,0,0.8,0c0.2,0,0.2,0,0.2,0.2c0,0.5,0,1,0,1.5C117,51.9,117,52.1,117,52.3z"/>
	<path class="st0" d="M135.2,49.5c0.2-0.2,0.3-0.4,0.5-0.5c0.4-0.3,0.8-0.4,1.3-0.5c0.7-0.1,1.3,0,1.8,0.4c0.3,0.2,0.6,0.5,0.8,0.9
		c0.3,0.5,0.4,1.1,0.4,1.7c0,0.4,0,0.7-0.1,1.1c-0.1,0.7-0.4,1.3-0.9,1.7c-0.5,0.5-1,0.7-1.6,0.8c-0.5,0.1-1,0-1.5-0.3
		c-0.1-0.1-0.2-0.2-0.4-0.3c-0.1,0-0.1,0-0.1,0.1s0,0.2,0,0.3c0,0.8,0,1.5,0,2.3c0,0.1,0,0.2,0,0.3s0,0.1-0.1,0.1h-0.1
		c-0.5,0-1.1,0-1.6,0c-0.2,0-0.2,0-0.2-0.2c0-0.1,0-0.2,0-0.3c0-2.3,0-4.5,0-6.8c0-0.5,0-0.9,0-1.4c0-0.1,0-0.2,0-0.3s0-0.1,0.1-0.1
		h0.1c0.4,0,0.9,0,1.3,0c0.2,0,0.2,0,0.2,0.2C135.1,49,135.2,49.2,135.2,49.5z M135.4,51.8c0,0.2,0,0.3,0,0.5s0,0.3,0.1,0.5
		c0.2,0.7,0.8,1,1.5,0.8c0.4-0.1,0.7-0.4,0.8-0.8c0.2-0.6,0.2-1.2,0-1.8c-0.1-0.2-0.2-0.4-0.4-0.6c-0.4-0.3-0.8-0.4-1.2-0.2
		s-0.6,0.5-0.7,0.9C135.4,51.3,135.4,51.6,135.4,51.8z"/>
	<path class="st0" d="M188.9,50.3c0-1.4,0-2.8,0-4.2c0-0.4,0-0.4,0.4-0.4s0.8,0,1.2,0c0.1,0,0.2,0,0.2,0c0.1,0,0.1,0,0.1,0.1
		s0,0.2,0,0.3c0,0.9,0,1.9,0,2.8c0,0.1,0,0.2,0,0.3c0,0,0,0.1,0.1,0l0.1-0.1c0.1-0.1,0.2-0.2,0.4-0.3c0.7-0.5,1.9-0.5,2.5,0
		c0.4,0.3,0.6,0.6,0.7,1c0.1,0.4,0.2,0.8,0.2,1.2c0,1.2,0,2.4,0,3.6c0,0.3,0,0.3-0.3,0.3c-0.5,0-1,0-1.5,0c-0.2,0-0.2,0-0.2-0.2
		s0-0.3,0-0.5c0-0.9,0-1.8,0-2.7c0-0.3,0-0.5-0.1-0.8c-0.1-0.5-0.4-0.8-0.9-0.8s-0.9,0.3-1,0.8c0,0.2-0.1,0.3-0.1,0.5
		c0,1.1,0,2.2,0,3.3c0,0.4,0,0.4-0.4,0.4s-0.8,0-1.2,0c-0.1,0-0.2,0-0.2,0c-0.1,0-0.1-0.1-0.1-0.1c0-0.1,0-0.2,0-0.3
		C188.9,53.2,188.9,51.8,188.9,50.3z"/>
	<path class="st0" d="M129.2,54.2c0,0,0,0.1-0.1,0.1c-0.4,0.5-0.9,0.8-1.6,0.9c-0.5,0.1-0.9,0-1.4-0.2c-0.3-0.2-0.6-0.4-0.8-0.7
		c-0.2-0.4-0.3-0.7-0.4-1.1c-0.1-0.4-0.1-0.7-0.1-1.1c0-1,0-2,0-3c0-0.1,0-0.2,0-0.3s0-0.1,0.1-0.1s0.1,0,0.2,0c0.5,0,1,0,1.5,0h0.1
		c0.1,0,0.2,0,0.2,0.2c0,0.1,0,0.2,0,0.3c0,1,0,2.1,0,3.1c0,0.2,0,0.5,0.1,0.7c0.1,0.4,0.3,0.6,0.7,0.7c0.4,0,0.7-0.1,1-0.4
		c0.2-0.2,0.2-0.5,0.2-0.7c0-1.1,0-2.2,0-3.3c0-0.1,0-0.2,0-0.2c0-0.3,0-0.3,0.3-0.3s0.6,0,1,0c0.2,0,0.3,0,0.5,0s0.2,0,0.2,0.3
		c0,0.1,0,0.1,0,0.2c0,0.9,0,1.8,0,2.7s0,1.9,0.1,2.8c0,0.4,0,0.4-0.4,0.4s-0.8,0-1.2,0c-0.2,0-0.2,0-0.2-0.2
		C129.3,54.6,129.3,54.4,129.2,54.2L129.2,54.2z"/>
	<path class="st0" d="M141.6,51.8c0-0.5,0.1-1,0.3-1.5c0.4-0.8,1-1.4,1.8-1.7s1.6-0.3,2.4,0c1,0.3,1.7,1,2,2.1
		c0.2,0.8,0.2,1.7-0.1,2.5c-0.3,0.7-0.7,1.2-1.4,1.6c-0.4,0.2-0.9,0.4-1.4,0.4c-0.6,0.1-1.1,0-1.6-0.2c-0.9-0.4-1.6-1-1.8-2
		C141.7,52.6,141.6,52.2,141.6,51.8z M146.2,51.8c0-0.3,0-0.7-0.1-1c-0.1-0.2-0.2-0.4-0.3-0.5c-0.2-0.3-0.7-0.5-1.1-0.4
		c-0.4,0.1-0.6,0.4-0.8,0.8c-0.3,0.7-0.3,1.4-0.1,2.1c0.1,0.2,0.2,0.4,0.3,0.6c0.4,0.5,1.2,0.5,1.6,0.1c0.1-0.2,0.3-0.3,0.3-0.5
		C146.2,52.6,146.3,52.2,146.2,51.8z"/>
	<path class="st0" d="M158.2,52.4c0-0.4,0-0.8,0-1.2c0-0.7,0-1.5-0.1-2.2c0-0.4,0-0.4,0.4-0.4s0.8,0,1.2,0c0.2,0,0.2,0,0.2,0.2
		c0,0.1,0,0.3,0,0.4c0,0.1,0,0.1,0.1,0.1c0,0,0.1,0,0.1-0.1c0.2-0.2,0.4-0.4,0.6-0.5c0.5-0.3,1-0.4,1.5-0.3c0.1,0,0.3,0,0.4,0.1
		c0.8,0.2,1.3,0.8,1.5,1.5c0.1,0.3,0.2,0.7,0.1,1c0,1.2,0,2.5,0,3.7v0.1c0,0.2,0,0.2-0.2,0.2c-0.5,0-1.1,0-1.6,0
		c-0.2,0-0.2,0-0.2-0.2c0-0.3,0-0.6,0-1c0-0.8,0-1.6,0-2.5c0-0.2,0-0.5-0.1-0.7c-0.2-0.6-1-0.8-1.4-0.4c-0.3,0.2-0.5,0.5-0.5,0.9
		c0,0.3,0,0.6,0,0.9c0,0.9,0,1.7,0,2.6c0,0.3,0,0.3-0.3,0.3c-0.5,0-0.9,0-1.4,0c-0.1,0-0.1,0-0.2,0c-0.1,0-0.1-0.1-0.1-0.1
		c0-0.1,0-0.2,0-0.3C158.2,53.9,158.2,53.1,158.2,52.4z"/>
	<path class="st0" d="M178.2,52.5c-0.6,0-1.1,0-1.7,0c-0.1,0-0.2,0-0.2,0c-0.1,0-0.2,0.1-0.1,0.2c0.1,0.3,0.2,0.5,0.4,0.6
		c0.3,0.2,0.6,0.3,0.9,0.4c0.6,0.1,1.2,0,1.8-0.1c0.1,0,0.2-0.1,0.3-0.1s0.1,0,0.2,0.1c0.1,0.4,0.1,0.7,0.2,1.1c0,0.1,0,0.2-0.1,0.2
		c-0.3,0.1-0.6,0.2-0.9,0.2c-0.6,0.1-1.2,0.1-1.7,0.1c-0.8-0.1-1.5-0.3-2.1-0.9c-0.4-0.4-0.6-0.9-0.7-1.5c-0.2-0.8-0.1-1.6,0.2-2.3
		s0.8-1.3,1.5-1.7c0.2-0.1,0.5-0.2,0.8-0.3c0.5-0.1,1.1-0.1,1.6,0c0.8,0.2,1.3,0.7,1.7,1.4c0.2,0.4,0.3,0.8,0.3,1.3c0,0.3,0,0.7,0,1
		c0,0.2,0,0.2-0.2,0.2c-0.1,0-0.2,0-0.2,0C179.3,52.5,178.7,52.5,178.2,52.5z M177.3,51.1L177.3,51.1c0.3,0,0.5,0,0.8,0
		c0.4,0,0.4,0,0.3-0.4c0,0,0,0,0-0.1c-0.2-0.7-1-1.1-1.7-0.6c-0.4,0.2-0.5,0.6-0.6,1c0,0.1,0,0.1,0.1,0.1
		C176.6,51.1,176.9,51.1,177.3,51.1z"/>
	<path class="st0" d="M170.4,51.5c0,1,0,2.1,0,3.1c0,0.1,0,0.2,0,0.3c0,0.2,0,0.2-0.2,0.2c-0.5,0-1.1,0-1.6,0c-0.2,0-0.2,0-0.2-0.2
		c0-0.1,0-0.2,0-0.3c0-2.1,0-4.2,0-6.3c0-0.5,0-0.4-0.4-0.4c-0.5,0-1,0-1.6,0c-0.1,0-0.2,0-0.2,0c-0.1,0-0.1,0-0.1-0.1v-0.1
		c0-0.4,0-0.8,0-1.2v-0.1c0-0.1,0.1-0.1,0.1-0.1c0.1,0,0.2,0,0.2,0c2,0,4,0,6,0h0.1c0.3,0,0.3,0,0.3,0.3c0,0.4,0,0.8,0,1.2
		c0,0.2,0,0.2-0.2,0.2c-0.6,0-1.1,0-1.7,0c-0.1,0-0.2,0-0.3,0c-0.2,0-0.2,0-0.2,0.2c0,0.1,0,0.2,0,0.2
		C170.4,49.4,170.4,50.4,170.4,51.5z"/>
	<path class="st0" d="M185.3,55.2c-0.5,0-1-0.1-1.5-0.3c-0.9-0.4-1.5-1-1.8-2c-0.2-0.7-0.2-1.3,0-2c0.3-1.1,1-1.8,2-2.2
		c0.5-0.2,0.9-0.2,1.4-0.2s1,0.1,1.4,0.2c0.1,0,0.1,0.1,0.1,0.2c-0.1,0.4-0.2,0.8-0.3,1.2c0,0.1-0.1,0.2-0.2,0.1
		c-0.3-0.1-0.6-0.1-1-0.1c-0.9,0-1.6,0.6-1.7,1.5c0,0.3,0,0.6,0.1,0.9c0.2,0.6,0.7,1,1.4,1.1c0.4,0,0.8,0,1.1-0.1h0.1
		c0.1,0,0.1,0,0.1,0.1c0.1,0.3,0.1,0.7,0.2,1c0.1,0.4,0,0.4-0.3,0.5C186.2,55.1,185.9,55.2,185.3,55.2z"/>
	<path class="st0" d="M155.8,50.6c0,1.3,0,2.7,0,4c0,0.4,0,0.4-0.4,0.4s-0.8,0-1.2,0c-0.1,0-0.1,0-0.2,0c-0.2,0-0.2,0-0.2-0.2v-0.1
		c0-2.7,0-5.4,0-8.1c0-0.4,0-0.4,0.4-0.4s0.9,0,1.3,0h0.1c0.2,0,0.2,0,0.2,0.2c0,0.1,0,0.2,0,0.2C155.8,48,155.8,49.3,155.8,50.6z"
		/>
	<path class="st0" d="M121.3,53.2c0,0.5,0,1,0,1.5c0,0.1,0,0.1,0,0.2c0,0.1,0,0.1-0.1,0.1s-0.1,0-0.2,0c-0.5,0-0.9,0-1.4,0
		c-0.1,0-0.1,0-0.2,0s-0.1,0-0.1-0.1s0-0.2,0-0.3c0-1.5,0-3,0-4.5c0-0.4,0-0.8,0-1.1v-0.1c0-0.2,0-0.2,0.2-0.2c0.3,0,0.6,0,0.8,0
		c0.2,0,0.3,0,0.5,0s0.2,0,0.2,0.2s0,0.5,0.1,0.7v0.1l0,0c0,0,0,0,0.1,0c0.1-0.1,0.2-0.3,0.3-0.4c0.4-0.5,0.9-0.7,1.6-0.7h0.1
		c0.1,0,0.1,0.1,0.1,0.2c0,0.3,0,0.5,0,0.8c0,0.2,0,0.5,0,0.7s0,0.2-0.2,0.2c-0.1,0-0.3,0-0.4,0c-0.8,0-1.3,0.6-1.3,1.3
		c0,0,0,0,0,0.1C121.3,52.2,121.3,52.7,121.3,53.2L121.3,53.2z"/>
</g>
</svg>
