<?xml version="1.0" encoding="utf-8"?>
<!-- Generator: Adobe Illustrator 16.0.0, SVG Export Plug-In . SVG Version: 6.00 Build 0)  -->
<!DOCTYPE svg PUBLIC "-//W3C//DTD SVG 1.1//EN" "http://www.w3.org/Graphics/SVG/1.1/DTD/svg11.dtd">
<svg version="1.1" id="Layer_1" xmlns="http://www.w3.org/2000/svg" xmlns:xlink="http://www.w3.org/1999/xlink" x="0px" y="0px"
	 width="1344px" height="1500px" viewBox="74.5 0 1344 1500" enable-background="new 74.5 0 1344 1500" xml:space="preserve">
<g>
	<g>
		<path fill="#FFFFFF" d="M293.065,1330.299l-22.127-86.667h19.914c8.114,39.831,11.803,57.533,12.908,67.121l0,0
			c3.32-15.857,11.801-46.099,16.597-67.121h16.964c4.426,16.597,13.277,50.156,16.227,66.014l0,0
			c2.951-19.175,11.433-52.737,14.384-66.014h18.071l-23.604,86.667h-19.546c-4.426-19.178-12.17-47.205-15.122-61.958l0,0
			c-3.318,15.49-11.063,44.625-15.488,61.958H293.065z"/>
		<path fill="#FFFFFF" d="M459.393,1293.05h-41.307v22.13h45.732l-2.214,15.487h-61.587V1244h61.587v15.491h-43.149v18.439h41.307
			L459.393,1293.05L459.393,1293.05z"/>
		<path fill="#FFFFFF" d="M479.676,1243.632h34.299c25.447,0,41.674,16.597,41.674,42.411c0,25.448-15.86,44.624-42.412,44.624
			h-33.561V1243.632z M498.484,1315.18h14.015c16.595,0,23.972-12.539,23.972-29.137c0-14.015-7.008-27.29-23.972-27.29h-14.015
			V1315.18z"/>
		<path fill="#FFFFFF" d="M574.457,1243.632h34.297c25.447,0,41.674,16.597,41.674,42.411c0,25.448-15.857,44.624-42.411,44.624
			h-33.56V1243.632L574.457,1243.632z M593.266,1315.18h14.013c16.598,0,23.974-12.539,23.974-29.137
			c0-14.015-7.007-27.29-23.974-27.29h-14.013V1315.18L593.266,1315.18z"/>
		<path fill="#FFFFFF" d="M688.414,1243.632v86.667h-18.809v-86.667H688.414z"/>
		<path fill="#FFFFFF" d="M711.279,1330.299v-86.667h23.233c10.696,19.546,30.98,54.581,34.668,64.171h0.369
			c-1.107-9.22-1.107-23.972-1.107-38.355v-25.815h16.965v86.667H763.28c-9.221-16.964-31.348-57.163-35.773-67.489h-0.369
			c0.738,7.745,0.738,25.447,0.738,40.935v26.555H711.279z"/>
		<path fill="#FFFFFF" d="M884.245,1330.299H870.6c-0.738-2.581-1.107-5.531-1.477-8.483c-4.794,6.64-13.277,9.959-25.446,9.959
			c-25.077,0-39.092-19.177-39.092-43.888c0-26.184,15.12-45.729,42.412-45.729c22.495,0,35.403,12.538,37.617,27.29h-18.81
			c-1.844-5.899-6.269-12.539-19.177-12.539c-17.702,0-22.865,14.753-22.865,30.242c0,14.752,5.9,29.504,22.865,29.504
			c15.859,0,18.809-11.064,18.809-18.81v-0.738h-19.178v-15.487h37.248v48.68H884.245z"/>
		<path fill="#FFFFFF" d="M922.969,1330.299l-24.34-88.142h7.006c5.902,21.021,19.178,69.702,21.391,80.028l0,0
			c1.474-8.112,16.227-56.794,22.127-80.028h7.376c5.901,21.391,19.916,73.392,21.39,80.028l0,0
			c2.951-12.54,17.334-59.008,23.603-80.028h7.007l-26.92,88.142h-7.746c-5.9-20.653-19.546-71.546-21.022-79.291l0,0
			c-2.211,11.434-15.857,57.534-22.127,79.291H922.969z"/>
		<path fill="#FFFFFF" d="M1033.606,1242.157v88.142h-6.639v-88.142H1033.606z"/>
		<path fill="#FFFFFF" d="M1069.012,1289.363v41.304h-7.007v-88.143h31.717c17.333,0,26.552,9.221,26.552,23.237
			c0,11.062-6.638,18.437-16.596,20.65c9.22,2.213,15.122,8.114,15.122,22.865v3.32c0,6.269-0.368,14.384,1.104,17.701h-7.007
			c-1.475-3.688-1.105-10.694-1.105-18.439v-2.214c0-14.382-4.426-20.651-21.021-20.651L1069.012,1289.363L1069.012,1289.363z
			 M1069.012,1283.094h21.39c15.49,0,22.496-5.901,22.496-17.332c0-10.697-7.006-16.967-20.652-16.967h-23.233V1283.094z"/>
		<path fill="#FFFFFF" d="M1195.877,1287.15h-44.994v36.879h49.05l-1.106,6.27h-54.581v-88.142h53.844v6.269h-47.206v32.086h44.994
			V1287.15z"/>
	</g>
	<g>
		<path fill="#FFFFFF" d="M471.563,1017.56c0,22.498-12.908,40.569-36.512,40.569c-22.497,0-35.772-16.966-35.772-40.199
			c0-22.866,13.277-40.198,36.88-40.198C457.18,977.362,471.563,993.22,471.563,1017.56z M414.03,1017.56
			c0,16.599,8.114,28.029,21.021,28.029c13.277,0,21.021-11.062,21.021-28.029c0-16.964-7.374-28.027-21.021-28.027
			C421.406,989.532,414.03,1000.227,414.03,1017.56z"/>
		<path fill="#FFFFFF" d="M559.336,1033.788c0,7.375,0,17.334,0,22.495h-14.383c-0.369-2.212-0.369-6.638-0.369-11.062
			c-4.057,8.48-11.062,12.908-22.864,12.908c-13.646,0-25.447-7.007-25.447-28.398v-50.524h14.751v47.205
			c0,9.958,2.951,18.81,15.121,18.81c13.277,0,18.439-7.377,18.439-25.816v-40.198h14.752V1033.788L559.336,1033.788z"/>
		<path fill="#FFFFFF" d="M581.833,979.206h12.908v-22.497h14.75v22.497h16.596v11.802h-16.596v43.519
			c0,7.005,1.846,10.694,8.483,10.694c1.843,0,4.426,0,6.271-0.738v11.064c-3.32,1.106-8.114,1.475-12.171,1.475
			c-12.539,0-17.701-6.638-17.701-19.546v-46.468h-12.908L581.833,979.206L581.833,979.206z"/>
		<path fill="#FFFFFF" d="M762.173,1017.56c0,22.498-12.908,40.569-36.51,40.569c-22.496,0-35.773-16.966-35.773-40.199
			c0-22.866,13.277-40.198,36.88-40.198C747.79,977.362,762.173,993.22,762.173,1017.56z M705.01,1017.56
			c0,16.599,8.114,28.029,21.022,28.029c13.276,0,21.02-11.062,21.02-28.029c0-16.964-7.374-28.027-21.02-28.027
			C712.386,989.532,705.01,1000.227,705.01,1017.56z"/>
		<path fill="#FFFFFF" d="M790.202,1055.915v-64.907H778.03v-11.802h12.172v-8.852c0-14.383,5.899-26.554,22.866-26.554
			c2.949,0,7.006,0.369,8.85,1.107v12.169c-1.844-0.368-4.425-0.737-6.27-0.737c-7.745,0-10.326,4.427-10.326,15.121v7.745h15.12
			v11.802h-15.489v64.907H790.202L790.202,1055.915z"/>
		<path fill="#FFFFFF" d="M946.572,969.248h-41.307c-0.738,7.376-3.319,21.391-4.057,26.554c4.057-4.425,10.326-7.376,20.284-7.376
			c18.439,0,30.242,12.908,30.242,32.822c0,19.178-10.328,36.512-34.669,36.512c-18.069,0-31.346-9.958-33.929-26.923h15.122
			c2.212,8.482,8.481,14.752,19.176,14.752c12.908,0,19.178-9.22,19.178-23.233c0-12.538-5.163-21.76-18.44-21.76
			c-11.432,0-16.227,4.794-19.544,12.539l-13.646-2.211c2.949-12.908,6.639-41.676,8.112-54.215h55.688L946.572,969.248z"/>
		<path fill="#FFFFFF" d="M974.968,1055.915v-23.234h15.488v23.234H974.968z"/>
		<path fill="#FFFFFF" d="M1081.92,1005.758c0,25.079-7.376,52.002-35.405,52.002c-27.658,0-35.405-25.447-35.405-51.632
			c0-25.814,8.483-51.631,35.773-51.631C1073.806,954.866,1081.92,979.575,1081.92,1005.758z M1026.599,1006.128
			c0,18.808,2.952,39.093,19.916,39.093s19.546-19.178,19.546-39.831c0-19.176-2.952-38.354-19.178-38.354
			C1030.657,967.405,1026.599,984.369,1026.599,1006.128z"/>
	</g>
	<g>
		<path fill="#FFFFFF" d="M533.521,899.547V767.886H305.974v-36.511l226.441-304.992h39.091v305.73h63.803l-5.163,35.404h-58.64
			v131.661h-37.984V899.547z M533.521,590.497c0-27.292,0.735-85.56,1.474-116.909c-19.547,34.666-131.29,183.661-185.503,258.894
			h184.029V590.497z"/>
		<path fill="#FFFFFF" d="M1144.614,462.894H941.407c-5.163,46.099-19.176,134.608-25.076,163.745
			c21.389-26.923,54.95-46.101,108.057-46.101c82.24,0,140.142,55.688,140.142,156.737c0,92.568-47.574,171.121-153.788,171.121
			c-78.553,0-134.979-46.099-148.623-123.914h39.46c12.17,49.786,48.681,88.511,111.377,88.511c74.128,0,111.375-52,111.375-133.504
			c0-68.597-29.871-122.809-102.892-122.809c-65.647,0-92.938,27.292-113.222,71.178l-37.249-9.958
			c15.121-63.065,31.717-195.093,37.986-251.15h240.453L1144.614,462.894z"/>
	</g>
	<path fill="#FFFFFF" d="M95.761,10.75v1478.5h1301.479V10.75H95.761z M1368.104,1460.484H125.265V39.147h1242.839V1460.484z"/>
	<circle fill="#FFFFFF" cx="735.988" cy="880.738" r="29.873"/>
	<g>
		<polygon fill="#FDFEFF" points="400.385,138.722 421.406,180.764 467.874,187.772 434.314,220.225 442.06,266.694 
			400.385,244.934 359.08,266.694 366.825,220.225 333.264,187.772 379.733,180.764 		"/>
		<polygon fill="#FDFEFF" points="565.236,138.722 586.259,180.764 632.726,187.772 599.166,220.225 606.911,266.694 
			565.236,244.934 523.932,266.694 531.676,220.225 498.115,187.772 544.584,180.764 		"/>
		<polygon fill="#FDFEFF" points="728.614,138.722 749.265,180.764 795.733,187.772 762.173,220.225 769.919,266.694 
			728.614,244.934 686.938,266.694 695.053,220.225 661.491,187.772 707.961,180.764 		"/>
		<polygon fill="#FDFEFF" points="887.563,138.722 908.217,180.764 954.685,187.772 921.124,220.225 929.237,266.694 
			887.563,244.934 845.89,266.694 854.004,220.225 820.442,187.772 866.911,180.764 		"/>
		<path fill="#FDFEFF" d="M1113.636,187.772l-46.468-6.639l-20.653-42.042l-20.652,42.042l-46.469,6.639l33.562,32.821l-8.114,46.1
			l41.674-21.76l41.674,21.76l-8.113-46.1L1113.636,187.772z M1047.621,237.19l0.737-80.397l15.857,30.61
			c1.845,0.369,34.668,4.425,34.668,4.425l-26.185,25.078l6.27,38.724L1047.621,237.19z"/>
	</g>
</g>
</svg>
