<?xml version="1.0" encoding="utf-8"?>
<!-- Generator: Adobe Illustrator 22.1.0, SVG Export Plug-In . SVG Version: 6.00 Build 0)  -->
<svg version="1.1" id="Layer_1" xmlns="http://www.w3.org/2000/svg" xmlns:xlink="http://www.w3.org/1999/xlink" x="0px" y="0px"
	 viewBox="0 0 404.6 404.6" style="enable-background:new 0 0 404.6 404.6;" xml:space="preserve">
<style type="text/css">
	.st0{fill:#010101;}
	.st1{fill:#FFFFFF;}
	.st2{fill:none;stroke:#FFFFFF;stroke-width:3.582;stroke-linecap:round;stroke-linejoin:round;stroke-miterlimit:10;}
</style>
<circle class="st0" cx="201.3" cy="202.3" r="202.3"/>
<g>
	<g>
		<g>
			<path class="st1" d="M83.7,145.2l12.4-30.3l12.4,30.3l9.2-28.6h2.1L108.6,151L96,120.3l-12.7,30.8l-11.1-34.4h2.1L83.7,145.2z"/>
			<path class="st1" d="M121,139.9c-0.1,5.2,3.4,8.6,8.2,8.6c3.2,0,5.7-1.9,7.2-4.6l1.7,1c-1.9,3.5-5.1,5.5-9.1,5.5
				c-6,0-9.9-4.9-9.9-10.7c0-5.7,3.9-10.6,9.9-10.6c6.2,0,9.8,4.9,9.8,10.8H121z M136.7,138c-0.5-3.8-3.6-7.1-7.8-7.1
				c-4.1,0-7.6,3.3-7.9,7.1H136.7z"/>
			<path class="st1" d="M159.2,146.2L159.2,146.2c-1.6,2.6-4.9,4.1-7.9,4.1c-6.2,0-10.1-4.8-10.1-10.8s3.8-10.5,10-10.5
				c3.1,0,6.1,1.4,7.9,4h0.1v-19.5h2v36.4h-2V146.2z M159.3,139.4c0-4.7-3.2-8.4-8.2-8.4c-4.7,0-7.9,4.2-7.9,8.6
				c0,4.7,3.1,8.9,8,8.9C156.5,148.5,159.3,144.3,159.3,139.4z"/>
			<path class="st1" d="M183.7,146.2L183.7,146.2c-1.6,2.6-4.9,4.1-7.9,4.1c-6.2,0-10.1-4.8-10.1-10.8s3.8-10.5,10-10.5
				c3.1,0,6.1,1.4,7.9,4h0.1v-19.5h2v36.4h-2V146.2z M183.8,139.4c0-4.7-3.2-8.4-8.2-8.4c-4.7,0-7.9,4.2-7.9,8.6
				c0,4.7,3.1,8.9,8,8.9C181,148.5,183.8,144.3,183.8,139.4z"/>
			<path class="st1" d="M195.8,122.7c0,1-0.8,1.8-1.8,1.8s-1.8-0.8-1.8-1.8s0.8-1.8,1.8-1.8C195,120.9,195.8,121.8,195.8,122.7z
				 M195,149.9h-2v-20.4h2V149.9z"/>
			<path class="st1" d="M204.3,132.7L204.3,132.7c1.3-2.3,3.5-3.6,6.1-3.6c5.3,0,6.7,3.3,6.7,8.5v12.3h-2v-12.3
				c0-3.7-0.4-6.7-4.9-6.7c-5.1,0-6,4.8-6,8.9v10.1h-2v-20.4h2L204.3,132.7L204.3,132.7z"/>
			<path class="st1" d="M242,148.9c0,3.1-0.1,6-2,8.6s-4.9,3.9-8.1,3.9c-5.3,0-9.8-3.1-10.1-8.7h2c0.2,4.2,3.8,6.9,7.9,6.9
				c2.6,0,5-0.9,6.5-3c1.6-2.3,1.8-5,1.8-7.7v-2.5h-0.1c-1.8,2.4-4.9,4-7.9,4c-5.9,0-9.9-5-9.9-10.7c0-5.9,4.2-10.6,10.2-10.6
				c3.3,0,5.8,1.4,7.7,4h0.1v-3.5h2v19.3H242z M224.1,139.6c0,4.7,3.1,8.9,8,8.9c5.2,0,8-4.2,8-9.1c0-4.7-3.2-8.4-8.2-8.4
				C227.3,130.9,224.1,135.2,224.1,139.6z"/>
			<path class="st1" d="M257.5,140.5l9.4-24.5l9.4,24.5l9.3-23.8h4.5l-13.8,34.6l-9.4-24.4l-9.4,24.4l-13.8-34.6h4.5L257.5,140.5z"
				/>
			<path class="st1" d="M297.7,119.8c0,1.5-1.2,2.7-2.7,2.7s-2.7-1.2-2.7-2.7s1.2-2.8,2.7-2.8S297.7,118.3,297.7,119.8z
				 M296.9,149.9h-4v-20.6h4V149.9z"/>
			<path class="st1" d="M307.3,132.6L307.3,132.6c1.1-2.4,3.1-4,5.7-4c1.1,0,2.3,0.4,3.3,1l-1.8,3.6c-0.7-0.6-1.5-0.8-2.4-0.8
				c-4.3,0-4.8,4-4.8,7.3v10.1h-4v-20.5h4L307.3,132.6L307.3,132.6z"/>
			<path class="st1" d="M319.8,140.2c0,3.5,2.4,6.8,6.2,6.8c3,0,4.7-1.5,6.2-4l3.4,1.9c-1.9,3.6-5.6,5.6-9.6,5.6
				c-6.3,0-10.1-4.8-10.1-10.9c0-6.4,3.4-11.1,10.1-11.1c6.6,0,9.7,4.9,9.7,11v0.6L319.8,140.2L319.8,140.2z M331.6,137.2
				c-0.5-3.1-2.5-5.2-5.7-5.2c-3.1,0-5.4,2.2-5.9,5.2H331.6z"/>
		</g>
	</g>
	<path class="st1" d="M72.9,234.2v-69.3h30.7c6.2,0,10.9,0.6,14.1,1.9c3.2,1.2,5.8,3.4,7.7,6.6c1.9,3.2,2.9,6.6,2.9,10.4
		c0,4.9-1.6,9.1-4.8,12.4c-3.2,3.4-8.1,5.5-14.7,6.4c2.4,1.2,4.3,2.3,5.5,3.4c2.7,2.5,5.2,5.5,7.6,9.2l12.1,18.9h-11.5l-9.2-14.4
		c-2.7-4.2-4.9-7.3-6.6-9.5s-3.3-3.7-4.7-4.6c-1.4-0.9-2.8-1.5-4.2-1.8c-1-0.2-2.7-0.3-5.1-0.3H82.1v30.8L72.9,234.2L72.9,234.2z
		 M82.1,195.5h19.7c4.2,0,7.5-0.4,9.8-1.3c2.4-0.9,4.2-2.3,5.4-4.2c1.2-1.9,1.8-4,1.8-6.2c0-3.3-1.2-6-3.6-8.1s-6.1-3.2-11.3-3.2H82
		v23H82.1z"/>
	<path class="st1" d="M177.7,228c-3.2,2.7-6.2,4.6-9.1,5.7s-6,1.7-9.4,1.7c-5.5,0-9.8-1.3-12.7-4c-3-2.7-4.4-6.1-4.4-10.3
		c0-2.5,0.6-4.7,1.7-6.7s2.6-3.7,4.4-4.9c1.8-1.2,3.9-2.2,6.1-2.8c1.7-0.4,4.2-0.9,7.6-1.3c6.9-0.8,11.9-1.8,15.2-2.9
		c0-1.2,0-1.9,0-2.2c0-3.5-0.8-5.9-2.4-7.3c-2.2-1.9-5.4-2.9-9.7-2.9c-4,0-7,0.7-8.9,2.1s-3.3,3.9-4.2,7.4l-8.3-1.1
		c0.8-3.6,2-6.4,3.7-8.6s4.2-3.9,7.5-5.1s7.1-1.8,11.4-1.8s7.8,0.5,10.4,1.5c2.7,1,4.6,2.3,5.9,3.8s2.1,3.5,2.6,5.8
		c0.3,1.4,0.4,4.1,0.4,7.8v11.3c0,7.9,0.2,12.9,0.5,15c0.4,2.1,1.1,4.1,2.2,6h-8.9C178.6,232.5,178,230.4,177.7,228z M177,209
		c-3.1,1.3-7.7,2.3-13.9,3.2c-3.5,0.5-6,1.1-7.4,1.7s-2.6,1.6-3.4,2.8c-0.8,1.2-1.2,2.6-1.2,4c0,2.3,0.9,4.2,2.6,5.7
		s4.2,2.3,7.5,2.3s6.2-0.7,8.7-2.2c2.6-1.4,4.4-3.4,5.6-5.9c0.9-1.9,1.4-4.8,1.4-8.5L177,209L177,209z"/>
	<path class="st1" d="M220.8,226.6l1.2,7.5c-2.4,0.5-4.5,0.8-6.4,0.8c-3.1,0-5.5-0.5-7.2-1.5s-2.9-2.3-3.6-3.9s-1-4.9-1-10v-28.9
		h-6.2V184h6.2v-12.4l8.5-5.1V184h8.6v6.6h-8.6V220c0,2.4,0.1,4,0.4,4.7s0.8,1.2,1.5,1.7c0.7,0.4,1.6,0.6,2.9,0.6
		C218,226.9,219.2,226.8,220.8,226.6z"/>
	<path class="st1" d="M266.9,218.1l8.8,1.1c-1.4,5.1-4,9.1-7.7,12c-3.8,2.8-8.5,4.3-14.4,4.3c-7.3,0-13.2-2.3-17.5-6.8
		s-6.5-10.9-6.5-19c0-8.4,2.2-15,6.5-19.7s10-7,16.9-7c6.7,0,12.2,2.3,16.4,6.9c4.3,4.6,6.4,11,6.4,19.3c0,0.5,0,1.3,0,2.3h-37.4
		c0.3,5.5,1.9,9.7,4.7,12.7c2.8,2.9,6.3,4.4,10.5,4.4c3.1,0,5.8-0.8,8-2.5C263.8,224.3,265.6,221.7,266.9,218.1z M238.9,204.3h28
		c-0.4-4.2-1.4-7.4-3.2-9.5c-2.7-3.3-6.2-4.9-10.5-4.9c-3.9,0-7.2,1.3-9.9,3.9C240.7,196.4,239.2,199.9,238.9,204.3z"/>
	<path class="st1" d="M322.3,234.2v-6.3c-3.2,5-7.9,7.5-14,7.5c-4,0-7.7-1.1-11-3.3c-3.4-2.2-6-5.3-7.8-9.2c-1.8-4-2.8-8.5-2.8-13.6
		c0-5,0.8-9.6,2.5-13.6c1.7-4.1,4.2-7.2,7.5-9.4c3.3-2.2,7.1-3.3,11.2-3.3c3,0,5.7,0.6,8.1,1.9c2.4,1.3,4.3,2.9,5.8,5V165h8.5v69.3
		h-8V234.2z M295.4,209.2c0,6.4,1.4,11.2,4.1,14.4c2.7,3.2,5.9,4.8,9.6,4.8s6.9-1.5,9.5-4.6c2.6-3,3.9-7.7,3.9-13.9
		c0-6.9-1.3-11.9-4-15.1c-2.6-3.2-5.9-4.8-9.8-4.8c-3.8,0-6.9,1.5-9.5,4.6C296.7,197.7,295.4,202.5,295.4,209.2z"/>
	<g>
		<path class="st1" d="M114.2,286.4h-4.4v-16.7c-1.6,1.5-3.5,2.6-5.7,3.4v-4c1.2-0.4,2.4-1.1,3.8-2.1c1.4-1.1,2.3-2.3,2.8-3.7h3.6
			L114.2,286.4L114.2,286.4z"/>
		<path class="st1" d="M128.3,263.2c2.2,0,4,0.8,5.2,2.4c1.5,1.9,2.3,5,2.3,9.4c0,4.4-0.8,7.5-2.3,9.4c-1.2,1.6-3,2.4-5.2,2.4
			s-4.1-0.9-5.4-2.6c-1.4-1.7-2.1-4.8-2.1-9.2c0-4.3,0.8-7.5,2.3-9.4C124.3,264,126.1,263.2,128.3,263.2z M128.3,266.8
			c-0.5,0-1,0.2-1.4,0.5s-0.7,1-1,1.8c-0.3,1.1-0.5,3.1-0.5,5.8c0,2.7,0.1,4.6,0.4,5.6s0.6,1.7,1,2s0.9,0.5,1.4,0.5s1-0.2,1.4-0.5
			s0.7-1,1-1.8c0.3-1.1,0.5-3.1,0.5-5.8c0-2.7-0.1-4.6-0.4-5.6s-0.6-1.7-1-2S128.8,266.8,128.3,266.8z"/>
		<path class="st1" d="M146.2,263.2c2.2,0,4,0.8,5.2,2.4c1.5,1.9,2.3,5,2.3,9.4c0,4.4-0.8,7.5-2.3,9.4c-1.2,1.6-3,2.4-5.2,2.4
			s-4.1-0.9-5.4-2.6c-1.4-1.7-2.1-4.8-2.1-9.2c0-4.3,0.8-7.5,2.3-9.4C142.3,264,144,263.2,146.2,263.2z M146.2,266.8
			c-0.5,0-1,0.2-1.4,0.5s-0.7,1-1,1.8c-0.3,1.1-0.5,3.1-0.5,5.8c0,2.7,0.1,4.6,0.4,5.6s0.6,1.7,1,2s0.9,0.5,1.4,0.5s1-0.2,1.4-0.5
			s0.7-1,1-1.8c0.3-1.1,0.5-3.1,0.5-5.8c0-2.7-0.1-4.6-0.4-5.6s-0.6-1.7-1-2C147.3,267,146.8,266.8,146.2,266.8z"/>
		<path class="st1" d="M166.6,286.4v-23.1h9.8c2.5,0,4.3,0.2,5.4,0.6c1.1,0.4,2,1.2,2.7,2.2c0.7,1.1,1,2.3,1,3.6
			c0,1.7-0.5,3.2-1.5,4.3c-1,1.1-2.5,1.8-4.6,2.1c1,0.6,1.8,1.2,2.5,1.9c0.7,0.7,1.5,2,2.7,3.7l2.8,4.5h-5.6l-3.4-5
			c-1.2-1.8-2-2.9-2.5-3.4c-0.4-0.5-0.9-0.8-1.4-1s-1.3-0.3-2.3-0.3h-0.9v9.6h-4.7V286.4z M171.3,273h3.4c2.2,0,3.6-0.1,4.2-0.3
			s1-0.5,1.3-1s0.5-1,0.5-1.7c0-0.8-0.2-1.4-0.6-1.9s-1-0.8-1.8-0.9c-0.4-0.1-1.5-0.1-3.4-0.1h-3.6V273z"/>
		<path class="st1" d="M199.6,281l4.4,0.7c-0.6,1.6-1.5,2.8-2.7,3.7c-1.2,0.8-2.8,1.3-4.6,1.3c-2.9,0-5.1-0.9-6.5-2.8
			c-1.1-1.5-1.7-3.4-1.7-5.8c0-2.8,0.7-4.9,2.2-6.5c1.4-1.6,3.3-2.4,5.5-2.4c2.5,0,4.4,0.8,5.9,2.5c1.4,1.6,2.1,4.2,2.1,7.5h-11.1
			c0,1.3,0.4,2.3,1.1,3.1c0.7,0.7,1.5,1.1,2.6,1.1c0.7,0,1.3-0.2,1.7-0.6C199,282.5,199.3,281.9,199.6,281z M199.8,276.6
			c0-1.3-0.4-2.3-1-2.9c-0.6-0.7-1.4-1-2.3-1c-1,0-1.8,0.4-2.4,1.1s-0.9,1.7-0.9,2.9h6.6V276.6z"/>
		<path class="st1" d="M212.4,286.4l-6.7-16.7h4.6l3.1,8.5l0.9,2.8c0.2-0.7,0.4-1.2,0.5-1.4c0.1-0.5,0.3-0.9,0.5-1.4l3.2-8.5h4.5
			l-6.6,16.7H212.4z"/>
		<path class="st1" d="M225.7,267.4v-4.1h4.4v4.1H225.7z M225.7,286.4v-16.7h4.4v16.7H225.7z"/>
		<path class="st1" d="M244.4,281l4.4,0.7c-0.6,1.6-1.5,2.8-2.7,3.7c-1.2,0.8-2.8,1.3-4.6,1.3c-2.9,0-5.1-0.9-6.5-2.8
			c-1.1-1.5-1.7-3.4-1.7-5.8c0-2.8,0.7-4.9,2.2-6.5c1.4-1.6,3.3-2.4,5.5-2.4c2.5,0,4.4,0.8,5.9,2.5c1.4,1.6,2.1,4.2,2.1,7.5h-11.1
			c0,1.3,0.4,2.3,1.1,3.1c0.7,0.7,1.5,1.1,2.6,1.1c0.7,0,1.3-0.2,1.7-0.6C243.8,282.5,244.1,281.9,244.4,281z M244.6,276.6
			c0-1.3-0.4-2.3-1-2.9c-0.6-0.7-1.4-1-2.3-1c-1,0-1.8,0.4-2.4,1.1s-0.9,1.7-0.9,2.9h6.6V276.6z"/>
		<path class="st1" d="M255.7,286.4l-5.3-16.7h4.3l3.1,11l2.9-11h4.3l2.8,11l3.2-11h4.4l-5.4,16.7h-4.3l-2.9-10.8l-2.8,10.8H255.7z"
			/>
		<path class="st1" d="M276.1,281.6l4.4-0.7c0.2,0.9,0.6,1.5,1.1,2c0.6,0.4,1.4,0.7,2.4,0.7c1.1,0,2-0.2,2.6-0.6
			c0.4-0.3,0.6-0.7,0.6-1.2c0-0.3-0.1-0.6-0.3-0.8c-0.2-0.2-0.7-0.4-1.5-0.6c-3.6-0.8-5.8-1.5-6.8-2.2c-1.3-0.9-2-2.2-2-3.8
			c0-1.4,0.6-2.7,1.7-3.7c1.1-1,2.9-1.5,5.3-1.5c2.3,0,4,0.4,5.1,1.1c1.1,0.7,1.9,1.8,2.3,3.3l-4.2,0.8c-0.2-0.7-0.5-1.1-1-1.5
			c-0.5-0.3-1.2-0.5-2.1-0.5c-1.2,0-2,0.2-2.5,0.5c-0.3,0.2-0.5,0.5-0.5,0.9c0,0.3,0.1,0.6,0.4,0.8c0.4,0.3,1.8,0.7,4.1,1.2
			c2.4,0.5,4,1.2,4.9,2c0.9,0.8,1.4,1.9,1.4,3.3c0,1.5-0.6,2.8-1.9,4c-1.3,1.1-3.2,1.7-5.7,1.7c-2.3,0-4.1-0.5-5.4-1.4
			C277.4,284.4,276.5,283.2,276.1,281.6z"/>
	</g>
	<path class="st2" d="M90.4,98.1c0,0,39.8-49.4,109.1-49.4c87.6,0,123.4,60.5,123.4,60.5"/>
	<path class="st2" d="M61.3,136.3c0,0-15.1,33.8-13.9,76c1.2,42.6,24.3,70.8,24.3,70.8"/>
	<path class="st2" d="M332.8,279.6c0,0,14.8-15.3,21.9-56.9c7.6-44.2-8.8-72-8.8-72"/>
	<g>
		<polygon class="st1" points="82.7,297.7 92.2,307 92.1,293.3 83.4,284.7 		"/>
		<polygon class="st1" points="82,298.5 68.6,297.9 77.9,308 90.2,308.6 		"/>
		<polygon class="st1" points="93.9,311.1 80.6,311.8 90.8,321 103.1,320.4 		"/>
		<polygon class="st1" points="107.3,322.7 94.1,324.8 105.2,332.9 117.3,331.1 		"/>
		<polygon class="st1" points="121,332.8 108,335.6 119.5,343.1 131.5,340.6 		"/>
		<polygon class="st1" points="135.9,341.5 123.5,346.4 136.1,351.9 147.5,347.5 		"/>
		<polygon class="st1" points="151.8,348.4 140.4,354.1 153.6,358 164.4,352.3 		"/>
		<polygon class="st1" points="169.1,352.6 158.3,359.3 171.7,362.1 182,355.4 		"/>
		<polygon class="st1" points="94.6,310 104.3,319.4 104.3,305.7 95.4,297 		"/>
		<polygon class="st1" points="107.1,320.9 116.9,329.7 115.9,316 107,307.9 		"/>
		<polygon class="st1" points="121,331.4 131.8,339.5 129.9,325.9 120.1,318.4 		"/>
		<polygon class="st1" points="136,340.1 147.9,346.5 144.1,333.3 133.2,327.4 		"/>
		<polygon class="st1" points="152.5,347.1 165.4,351.2 159.1,338.9 147.3,335.2 		"/>
		<polygon class="st1" points="169.2,351.4 183,353.9 176.7,343.3 161.9,340.6 		"/>
	</g>
	<g>
		<polygon class="st1" points="318.9,297.7 309.4,307 309.5,293.3 318.2,284.7 		"/>
		<polygon class="st1" points="319.7,298.5 333,297.9 323.7,308 311.4,308.6 		"/>
		<polygon class="st1" points="307.7,311.1 321,311.8 310.8,321 298.5,320.4 		"/>
		<polygon class="st1" points="294.3,322.7 307.5,324.8 296.4,332.9 284.3,331.1 		"/>
		<polygon class="st1" points="280.6,332.8 293.6,335.6 282.1,343.1 270.1,340.6 		"/>
		<polygon class="st1" points="265.7,341.5 278.1,346.4 265.6,351.9 254.1,347.5 		"/>
		<polygon class="st1" points="249.8,348.4 261.2,354.1 248,358 237.2,352.3 		"/>
		<polygon class="st1" points="232.5,352.6 243.3,359.3 229.9,362.1 219.6,355.4 		"/>
		<polygon class="st1" points="307,310 297.3,319.4 297.3,305.7 306.2,297 		"/>
		<polygon class="st1" points="294.5,320.9 284.7,329.7 285.7,316 294.6,307.9 		"/>
		<polygon class="st1" points="280.6,331.4 269.8,339.5 271.7,325.9 281.5,318.4 		"/>
		<polygon class="st1" points="265.6,340.1 253.7,346.5 257.6,333.3 268.4,327.4 		"/>
		<polygon class="st1" points="249.1,347.1 236.2,351.2 242.5,338.9 254.3,335.2 		"/>
		<polygon class="st1" points="232.4,351.4 218.6,353.9 224.9,343.3 239.7,340.6 		"/>
	</g>
	<path class="st1" d="M198.2,346.3l3.6-9.4l3.1,9.3l9.7,0.3l-7.6,7.2l3.7,9.3l-9.3-5.7c0,0-7.2,5.8-7.2,5.4c0-0.4,1.9-9.4,1.9-9.4
		l-6.4-6.9L198.2,346.3L198.2,346.3z"/>
	<circle class="st2" cx="201.3" cy="202.3" r="174"/>
</g>
</svg>
