<?xml version="1.0" encoding="utf-8"?>
<!-- Generator: Adobe Illustrator 16.0.0, SVG Export Plug-In . SVG Version: 6.00 Build 0)  -->
<!DOCTYPE svg PUBLIC "-//W3C//DTD SVG 1.1//EN" "http://www.w3.org/Graphics/SVG/1.1/DTD/svg11.dtd">
<svg version="1.1" id="Layer_1" xmlns="http://www.w3.org/2000/svg" xmlns:xlink="http://www.w3.org/1999/xlink" x="0px" y="0px"
	 width="2100px" height="1300px" viewBox="700 1100 2100 1300" enable-background="new 700 1100 2100 1300" xml:space="preserve">
<g>
	<g>
		<path fill="#EFCEE2" d="M1702.936,1573.965c-13.699-3.094-28.283-13.7-57.892-1.326c-18.118,7.513-34.911,28.725-46.844,48.169
			v268.245l-67.171,10.164v24.306c0,0,244.822,0,245.265,0l-7.514-333.648C1767.898,1589.874,1755.082,1589.432,1702.936,1573.965z"
			/>
		<path fill="#EFCEE2" d="M1961.016,1331.793c-1.324,16.351-16.791,35.354-16.791,35.354s-3.094-29.167-11.049-41.099
			c-5.303-7.954-11.932-9.722-11.932-9.722s-34.027-11.933-43.309-15.025c-9.279-3.536-33.586-17.677-39.771,8.838
			c-10.607,45.076,33.143,53.473,69.822,68.939c44.191,18.561,60.102,46.844,70.707,73.801c6.188,16.351,3.535,39.331-5.744,60.101
			c24.305-28.282,36.236-63.636,36.236-106.061c0-58.333-22.096-100.315-66.287-126.389c2.209,6.629,3.535,17.677,3.535,17.677
			S1962.785,1311.022,1961.016,1331.793z"/>
		<path fill="#EFCEE2" d="M1659.627,1473.207c34.47-32.702,100.316-62.311,175.884-49.495c30.492,5.303,61.869,15.025,86.174,61.869
			c6.188,11.932,29.609,15.909,25.631-19.444c-3.977-33.145-26.072-55.24-48.168-64.962c-14.584-6.629-52.59-19.887-66.73-32.702
			c-26.516-23.864-35.354-82.197,2.209-105.619c8.396-5.303,16.793-8.396,25.189-10.164c-21.211-3.094-44.633-4.861-70.707-4.861
			h-269.57v23.422l78.661,10.164v287.689C1610.133,1537.285,1629.135,1501.932,1659.627,1473.207z"/>
		<path fill="#EFCEE2" d="M1997.695,1626.111c-27.84-26.516-124.621-57.45-132.574-59.218c-7.955-1.325-11.049-0.441-11.049-0.441
			l-12.373,8.838c-21.654,12.816-45.076,13.7-45.076,13.7l-12.373,334.091c76.01-0.442,136.553-15.468,184.279-45.076
			c48.17-30.05,72.033-76.01,72.033-138.32C2040.121,1691.515,2025.979,1653.068,1997.695,1626.111z"/>
	</g>
	<g>
		<path fill="#EFCEE2" d="M812.911,2174.533c13.258-2.652,20.771,0.441,22.979,10.164c0.884,3.977,0.442,7.513-1.325,10.605
			c-1.768,3.094-4.861,5.304-8.839,6.629c5.745,0,10.164,0.884,13.258,2.651s4.861,4.861,6.187,9.28
			c1.326,5.745,0,10.164-3.977,13.7c-3.978,3.535-8.839,6.187-15.909,7.513l-22.538,4.86l-0.442-2.209l5.745-2.21l-11.932-54.798
			l-7.07,0.442l-0.442-2.21L812.911,2174.533z M807.608,2178.51l5.303,25.632l2.21-0.442c3.978-0.884,6.628-2.651,8.396-5.303
			c1.768-2.651,2.209-6.187,0.884-10.606c-0.884-4.419-2.652-7.513-4.42-8.838c-2.209-1.326-4.861-1.768-8.396-0.884
			L807.608,2178.51z M816.004,2205.909l-2.21,0.441l6.187,27.841c1.326,0,2.21,0,3.536-0.441c3.977-0.884,6.628-2.651,8.838-5.745
			s2.651-7.07,1.326-12.374c-1.326-6.628-4.861-10.164-10.606-10.605C820.423,2205.025,818.213,2205.467,816.004,2205.909z"/>
		<path fill="#EFCEE2" d="M903.504,2219.608l-0.442-2.209l7.071-2.21l-9.723-55.24l-7.513,0.442l-0.442-2.21l42.425-7.513
			l2.21,12.815l-2.652,0.442l-4.86-9.28l-18.119,3.094l4.419,24.747l16.352-3.094l1.326-7.07l2.209-0.442l3.094,17.235l-2.21,0.441
			l-3.535-6.629l-16.351,3.094l4.86,27.399l20.771-3.978l2.651-11.048l2.651-0.442l1.326,13.7L903.504,2219.608z"/>
		<path fill="#EFCEE2" d="M1008.239,2198.839c-2.651-1.326-3.977-3.094-4.419-5.745c-0.442-3.535,1.768-6.188,6.629-7.955
			c1.768,5.745,4.419,9.28,7.513,11.048c2.651,1.769,5.744,2.21,8.396,1.769c2.651-0.442,5.303-1.769,7.07-3.978
			c1.768-2.21,2.21-5.745,1.768-10.164c-0.441-3.094-1.768-5.745-4.419-7.513s-5.303-3.094-8.839-3.978
			c-3.535-0.884-5.744-1.768-7.07-2.209c-1.326-0.442-3.094-0.885-4.861-1.769s-3.535-1.768-4.419-2.651
			c-2.651-2.651-4.419-5.744-4.861-9.28c-0.884-5.745,0.442-10.605,3.978-14.142c3.535-3.535,8.838-5.744,15.909-6.629
			c3.978-0.441,8.838-0.884,14.142-0.441l2.209,13.699l-2.651,0.442l-4.861-10.164c-3.093-0.442-5.745-0.442-8.838-0.442
			c-3.094,0.442-5.304,1.768-7.071,3.978s-2.651,5.303-1.768,9.28c0.442,4.419,3.094,7.513,7.071,9.28
			c2.209,0.884,4.419,1.326,7.07,2.21s4.419,1.325,5.745,1.325c1.326,0.442,2.651,0.884,4.861,1.768
			c2.209,0.884,3.535,1.768,4.419,2.651c0.884,0.885,2.21,2.21,3.094,3.978s1.768,3.535,1.768,5.745
			c0.884,5.303-0.442,9.723-3.978,13.699c-3.535,3.978-8.838,6.188-15.909,7.513
			C1018.845,2201.49,1012.659,2201.048,1008.239,2198.839z"/>
		<path fill="#EFCEE2" d="M1147.001,2135.202l-2.651,0.441l-5.303-10.164l-13.699,1.326l6.628,55.682h7.955l0.441,2.21
			l-26.957,3.093l-0.441-2.209l7.954-1.768l-6.629-55.682l-13.699,1.768l-2.651,11.048l-2.651,0.441l-1.768-14.142l25.631-3.093
			l25.631-3.094L1147.001,2135.202z"/>
		<path fill="#EFCEE2" d="M1348.075,2165.253l-23.863,1.768v-2.21l6.187-1.325l-5.745-47.286l-13.258,52.146l-4.419,0.442
			l-24.306-48.611l1.768,45.518l7.071,1.768v2.21l-17.235,1.325v-2.209l6.629-3.094l-2.651-53.914l-7.07-0.442v-2.209l16.793-1.326
			l22.979,47.285l12.815-49.937l18.119-1.326l0.442,2.21l-7.071,1.326l6.187,55.682l6.629,0.441V2165.253z"/>
		<path fill="#EFCEE2" d="M1430.272,2160.392l-26.073,1.325v-2.209l7.513-1.326l-3.094-55.682l-7.513-0.442v-2.209l26.073-1.326
			v2.21l-7.513,1.325l3.094,55.683l7.513,0.441V2160.392z"/>
		<path fill="#EFCEE2" d="M1543.845,2155.088l-24.748,0.885v-2.21l6.629-0.884l-8.838-21.212l-19.003,0.884l-6.187,19.886
			l7.513,2.21v2.21l-17.677,0.884v-2.21l6.187-2.651l18.119-58.333l5.744-0.442l24.748,58.333l6.629,0.442L1543.845,2155.088z
			 M1516.004,2128.573l-9.28-22.096l-7.513,22.979L1516.004,2128.573z"/>
		<path fill="#EFCEE2" d="M1668.024,2152.437l-23.863,0.442v-2.21l6.629-0.884l-3.094-47.727l-16.351,51.262h-4.419l-21.213-49.937
			l-0.884,45.96l7.071,2.209v2.21l-17.235,0.442v-2.21l7.071-2.651l0.884-53.914l-7.071-0.884v-2.21l16.793-0.442l19.887,48.611
			l15.467-49.495l18.119-0.441v2.209l-7.071,0.884l2.651,56.124l6.629,0.884V2152.437z"/>
		<path fill="#EFCEE2" d="M1749.78,2151.995h-26.074v-2.21l7.514-0.884v-56.124l-7.514-0.884v-2.209h26.074v2.209l-7.514,0.884
			v56.124l7.514,0.884V2151.995z"/>
		<path fill="#EFCEE2" d="M1870.865,2091.452l24.748,0.884v2.21l-6.188,0.441l15.025,46.844l11.49-28.725l-5.746-17.235
			l-6.186-0.884v-2.21l24.746,0.885v2.209l-6.629,0.442l15.025,46.843l16.352-44.191l-7.512-2.651v-2.21l17.676,0.442v2.209
			l-6.629,2.21l-22.096,57.008h-5.303l-12.816-38.006l-15.025,36.68h-5.303l-19.887-60.543l-6.629-0.884L1870.865,2091.452z"/>
		<path fill="#EFCEE2" d="M2013.164,2159.949v-2.209l7.512-0.442l3.535-55.682l-7.512-1.326v-2.209l43.307,2.651l-0.883,13.258
			h-2.652l-2.65-10.164l-18.561-1.326l-1.77,24.748l16.352,0.884l3.094-6.629h2.209l-0.883,17.234h-2.652l-2.209-7.07l-16.352-0.884
			l-1.768,27.841l21.213,0.884l4.861-10.164h2.65l-1.768,13.699L2013.164,2159.949z"/>
		<path fill="#EFCEE2" d="M2180.209,2141.389c-1.768,20.771-14.584,30.051-38.006,27.841l-26.516-2.209v-2.21l7.514-0.442
			l4.861-55.682l-7.07-1.768v-2.209c2.65,0.441,5.744,0.884,8.838,0.884l7.955,0.884l10.605,0.441
			c5.303,0.442,9.723,1.326,13.258,2.652c3.977,1.325,7.07,3.093,10.164,5.744
			C2178.441,2120.619,2181.092,2129.015,2180.209,2141.389z M2167.393,2140.505c0.885-10.605-0.441-18.118-3.535-22.538
			c-0.883-1.325-2.209-2.651-3.094-3.535c-0.883-0.884-2.209-1.325-3.535-1.768c-2.209-0.884-4.418-1.325-7.07-1.768h-1.326
			c-3.977-0.442-7.07-0.442-9.279-0.442l-4.861,55.24l7.953,0.884c5.305,0,9.281-0.441,11.934-1.325
			C2162.09,2161.717,2166.066,2153.763,2167.393,2140.505z"/>
		<path fill="#EFCEE2" d="M2298.643,2154.204c-2.209,20.771-15.025,29.609-38.447,26.958l-26.514-3.094l0.441-2.21h7.512
			l6.188-55.239l-7.07-1.769l0.441-2.209c2.652,0.441,5.744,0.884,8.838,1.325l7.955,0.884l10.605,0.885
			c5.303,0.441,9.723,1.768,13.258,3.093c3.535,1.326,7.07,3.535,10.164,5.745
			C2297.316,2132.992,2299.969,2141.831,2298.643,2154.204z M2285.828,2152.437c1.324-10.605,0.441-18.118-3.094-22.979
			c-0.885-1.768-2.211-2.651-3.094-3.535c-0.885-0.884-2.211-1.326-3.535-2.21c-2.211-0.884-4.42-1.325-7.072-1.768h-1.324
			c-3.979-0.441-7.07-0.441-9.281-0.441l-6.186,55.239l7.953,1.326c5.303,0.441,9.281,0,12.375-0.884
			C2279.641,2174.091,2284.061,2166.137,2285.828,2152.437z"/>
		<path fill="#EFCEE2" d="M2376.863,2195.745l-25.633-3.535l0.443-2.21h7.512l7.514-55.24l-7.07-1.768l0.441-2.209l25.631,3.535
			l-0.441,2.209h-7.514l-7.512,55.24l7.07,1.768L2376.863,2195.745z"/>
		<path fill="#EFCEE2" d="M2484.691,2149.344l16.793,2.651l-0.443,2.209l-6.186,1.326l-9.281,57.008l-5.744-0.884l-29.166-56.124
			l-7.514,45.959l6.629,3.536l-0.441,2.209l-16.793-2.651l0.441-2.21l6.629-1.325l8.838-53.914l-7.07-2.21l0.441-2.21l15.91,2.652
			l26.072,51.263l6.629-41.541l-6.188-3.093L2484.691,2149.344z"/>
		<path fill="#EFCEE2" d="M2592.961,2168.346l18.119,4.419l-2.652,16.793l-3.094-0.441l-0.441-12.374
			c-3.535-2.209-7.07-3.535-10.605-4.419c-6.629-1.326-12.375,0-17.678,3.978c-5.303,3.977-8.396,10.605-10.164,19.886
			s-1.324,16.793,2.211,21.654c3.092,5.303,7.953,8.396,14.141,9.723c2.209,0.441,4.861,0.884,7.514,0.884l3.977-20.329
			l-6.629-2.209l0.441-2.21l22.539,4.419l-0.443,2.21h-5.303l-4.418,21.654c-7.072,0.441-13.701,0-18.563-0.884
			c-5.303-0.884-9.721-2.21-12.814-3.978c-3.535-1.768-6.629-3.978-9.281-6.629c-2.65-2.651-4.859-6.187-5.744-10.605
			c-0.885-4.42-0.885-9.281,0-15.025c0.885-5.745,3.094-10.164,5.744-14.142c2.652-3.978,5.746-6.629,9.723-8.839
			C2576.168,2167.462,2584.123,2166.578,2592.961,2168.346z"/>
		<path fill="#EFCEE2" d="M2663.668,2243.914c-1.768-2.21-2.65-4.419-2.209-7.07c0.883-3.536,3.977-5.304,9.279-4.861
			c-0.441,5.745,0.441,10.164,3.094,12.815c2.209,2.651,4.42,3.978,7.512,4.861c2.652,0.441,5.305,0.441,7.955-1.326
			c2.652-1.325,4.42-4.419,5.303-8.838c0.885-3.094,0.443-6.188-1.324-8.396c-1.768-2.21-3.979-4.861-7.072-7.071
			c-3.092-2.209-4.859-3.535-5.744-4.419c-0.883-0.884-2.209-2.209-3.977-3.535c-1.326-1.768-2.652-3.094-3.094-3.978
			c-1.768-3.093-1.768-6.629-1.326-10.164c1.326-5.745,3.977-9.722,8.838-11.489c4.42-2.21,10.164-2.21,17.236-0.885
			c3.977,0.885,8.396,2.21,13.256,4.42l-3.092,13.257l-2.652-0.441l-0.883-11.49c-2.652-1.768-5.305-2.651-7.955-3.535
			c-2.652-0.441-5.746,0-7.955,1.326c-2.65,1.325-4.418,3.977-5.303,7.954c-0.885,4.419,0,7.954,3.094,11.048
			c1.768,1.326,3.535,3.094,5.744,4.419c2.211,1.768,3.979,2.652,4.861,3.536c0.885,0.884,2.209,1.768,3.977,3.535
			c1.77,1.325,2.652,3.093,3.094,4.419c0.443,1.325,1.326,3.094,1.326,4.861c0.441,1.768,0.441,3.977-0.441,6.187
			c-1.326,5.303-3.979,8.839-8.838,11.048c-4.861,2.21-10.607,2.651-17.236,1.326
			C2672.064,2250.101,2666.762,2247.449,2663.668,2243.914z"/>
	</g>
</g>
</svg>
