<?xml version="1.0" encoding="utf-8"?>
<!-- Generator: Adobe Illustrator 16.0.0, SVG Export Plug-In . SVG Version: 6.00 Build 0)  -->
<!DOCTYPE svg PUBLIC "-//W3C//DTD SVG 1.1//EN" "http://www.w3.org/Graphics/SVG/1.1/DTD/svg11.dtd">
<svg version="1.1" id="Layer_1" xmlns="http://www.w3.org/2000/svg" xmlns:xlink="http://www.w3.org/1999/xlink" x="0px" y="0px"
	 width="2900px" height="1650px" viewBox="300 925 2900 1650" enable-background="new 300 925 2900 1650" xml:space="preserve">
<text transform="matrix(1 0 0 1 0 397.7256)" font-family="'ArialMT'" font-size="53.0303"> </text>
<g>
	<g>
		<path fill="#666666" d="M1682.828,1498.314c-19.444-4.419-40.656-19.887-83.081-2.21c-26.072,11.049-49.937,41.099-67.171,69.382
			v384.47l-96.339,14.583v34.912c0,0,350.442,0,351.326,0l-11.049-478.157C1776.073,1520.853,1757.954,1520.41,1682.828,1498.314z"
			/>
		<path fill="#666666" d="M2052.715,1151.408c-2.21,23.422-23.864,50.82-23.864,50.82s-4.419-41.982-15.467-59.217
			c-7.513-11.49-16.793-14.142-16.793-14.142s-48.611-16.793-61.869-21.654c-13.257-4.86-48.169-25.189-57.007,12.374
			c-15.025,64.521,47.728,76.452,100.315,98.99c63.194,26.515,86.174,67.171,101.199,105.618
			c8.839,23.422,5.304,56.565-8.396,86.175c34.912-40.657,52.146-91.478,52.146-152.021c0-83.081-31.818-143.624-95.454-181.187
			c3.535,9.279,5.303,25.631,5.303,25.631S2055.366,1121.357,2052.715,1151.408z"/>
		<path fill="#666666" d="M1620.96,1353.807c49.494-46.401,144.065-89.268,251.894-71.148
			c43.308,7.513,88.384,21.653,123.296,88.384c8.838,17.234,42.865,22.538,36.679-27.841c-5.303-47.728-37.563-79.104-68.939-93.245
			c-20.771-9.28-75.568-28.725-95.896-46.844c-38.005-34.47-50.379-117.992,3.094-151.136c11.932-7.514,24.306-11.933,36.237-14.584
			c-30.492-4.861-64.078-7.07-101.199-7.07h-386.237v33.144l112.247,14.583v412.311
			C1549.811,1445.284,1577.21,1394.905,1620.96,1353.807z"/>
		<path fill="#666666" d="M2104.861,1572.999c-39.772-38.005-178.978-82.639-190.025-84.849s-15.909-0.442-15.909-0.442
			l-18.119,12.816c-31.376,18.561-64.52,19.886-64.52,19.886l-17.677,478.599c108.712-0.442,195.77-22.096,263.825-64.521
			c68.939-42.866,102.968-109.154,102.968-197.979C2165.846,1666.244,2145.518,1611.445,2104.861,1572.999z"/>
	</g>
	<g>
		<path fill="#666666" d="M407.892,2358.731c19.002-3.978,30.051,0.884,32.702,14.142c1.325,5.744,0.441,10.605-1.768,15.024
			c-2.651,4.42-6.629,7.513-12.816,9.723c8.396,0,14.584,1.325,19.003,3.978c4.419,2.651,7.07,7.07,8.838,13.699
			c1.769,7.954,0,14.583-5.303,19.887c-5.303,5.303-12.815,8.838-22.979,11.048l-32.261,7.07l-0.883-3.094l8.396-3.093
			l-16.793-78.22l-10.165,0.884l-0.441-3.094L407.892,2358.731z M399.937,2364.034l7.955,36.237l2.651-0.441
			c5.745-1.326,9.28-3.978,11.932-7.955c2.21-3.977,3.094-9.28,1.326-15.467c-1.326-6.188-3.535-10.606-6.629-12.374
			c-3.094-2.209-7.071-2.651-12.374-1.325L399.937,2364.034z M411.869,2403.365l-3.094,0.884l8.396,39.772
			c1.768,0,3.535,0,5.303-0.441c5.304-1.326,9.723-3.978,12.815-7.955c3.094-3.978,3.536-10.164,1.768-17.677
			c-2.209-9.722-7.07-15.025-15.467-15.025C418.497,2402.039,414.962,2402.481,411.869,2403.365z"/>
		<path fill="#666666" d="M537.815,2422.81l-0.441-3.094l10.164-3.094l-14.142-79.104l-10.606,0.884l-0.441-3.093l60.984-11.048
			l3.094,18.561l-3.978,0.884l-7.07-13.258l-26.073,4.419l6.187,35.354l23.422-3.977l1.768-10.164l3.536-0.442l4.419,24.306
			l-3.536,0.442l-5.303-9.281l-23.422,3.978l7.071,38.889l29.608-5.744l3.535-15.909l3.978-0.884l2.21,19.886L537.815,2422.81z"/>
		<path fill="#666666" d="M687.626,2393.201c-3.535-1.768-5.744-4.861-6.187-8.396c-0.884-5.304,2.651-8.839,9.722-11.049
			c2.652,7.955,6.188,13.258,10.606,15.909c3.978,2.21,8.396,3.094,12.374,2.652c3.977-0.442,7.513-2.652,10.164-5.745
			c2.651-3.094,3.535-7.955,2.651-14.142c-0.884-4.861-2.651-8.396-6.187-10.606c-3.535-2.209-7.955-3.977-12.816-5.744
			c-4.86-1.326-8.396-2.21-10.164-3.094c-1.768-0.442-3.977-1.326-7.07-2.651c-2.651-1.326-4.861-2.651-6.629-3.978
			c-3.977-3.535-6.187-7.954-7.07-13.258c-1.326-8.396,0.884-15.025,5.744-19.886c4.861-4.861,12.374-8.396,22.539-9.723
			c5.744-0.884,12.373-0.884,20.328-0.884l2.651,19.444l-3.978,0.442l-7.07-15.025c-4.42-0.884-8.396-0.884-12.374-0.442
			c-3.978,0.442-7.513,2.651-10.164,5.745s-3.536,7.954-2.651,13.258c0.884,6.629,4.419,10.605,10.164,13.257
			c2.651,1.326,6.187,2.21,10.164,3.094c3.977,0.884,6.629,1.768,8.396,2.21c1.768,0.441,3.977,1.325,7.07,2.651
			s4.861,2.651,6.629,3.978c1.326,1.325,3.094,3.535,4.419,5.744c1.326,2.652,2.21,5.304,2.651,8.396
			c0.885,7.513-0.883,14.142-6.187,19.445c-4.86,5.744-12.815,9.28-22.538,10.605
			C701.768,2397.62,693.813,2396.736,687.626,2393.201z"/>
		<path fill="#666666" d="M886.49,2302.166l-3.536,0.441l-7.512-14.583l-19.445,2.209l9.723,79.546h11.49l0.441,3.094l-38.447,4.419
			l-0.883-3.094l11.047-2.651l-9.722-79.546l-19.003,2.652l-3.977,15.908l-3.535,0.442l-2.21-19.887l36.679-4.86l36.68-3.978
			L886.49,2302.166z"/>
		<path fill="#666666" d="M1175.063,2345.031l-34.028,2.652l-0.441-3.094l9.28-1.768l-8.396-68.056l-18.561,74.242l-6.629,0.442
			l-34.47-69.382l2.651,65.404l10.606,2.651l0.441,3.094l-24.747,1.768l-0.442-3.094l9.723-4.419l-3.536-77.336l-10.605-0.442
			l-0.441-3.093l24.305-1.768l32.702,68.055l18.119-71.591l25.631-2.209l0.442,3.093l-10.164,2.21l8.838,79.545l9.28,0.442
			L1175.063,2345.031z"/>
		<path fill="#666666" d="M1292.172,2337.961l-37.121,2.21v-3.094l10.606-1.768l-4.42-79.987l-10.605-0.442v-3.094l37.121-2.209
			v3.093l-10.606,1.769l4.419,79.987l10.606,0.441V2337.961z"/>
		<path fill="#666666" d="M1455.24,2330.891l-35.796,1.325v-3.094l9.723-1.768l-12.374-30.05l-27.399,0.884l-8.838,28.725
			l11.048,3.094v3.093l-25.189,0.885v-3.094l9.28-3.978l26.073-83.522l8.396-0.442l35.354,83.081l9.28,0.884L1455.24,2330.891z
			 M1415.025,2292.443l-13.258-31.818l-10.606,32.702L1415.025,2292.443z"/>
		<path fill="#666666" d="M1632.449,2326.913l-34.027,0.441v-3.093l9.28-1.326l-4.419-68.056l-22.98,73.358h-6.628l-30.493-71.591
			l-1.325,65.404l10.164,3.094v3.093l-24.748,0.442v-3.094l10.164-3.977l0.885-77.336l-10.165-1.326v-3.094l24.306-0.441
			l28.725,69.823l22.538-70.707l26.073-0.442v3.094l-10.605,1.325l3.977,79.988l9.28,0.884V2326.913z"/>
		<path fill="#666666" d="M1750,2326.471h-37.121v-3.093l10.606-1.326l-0.442-79.987l-10.606-1.325v-3.094h37.121v3.094
			l-10.605,1.325l0.441,79.987l10.606,1.326V2326.471z"/>
		<path fill="#666666" d="M1923.675,2239.854l35.354,1.326v3.094l-9.281,0.884l21.654,67.172l16.793-41.099l-8.396-24.748
			l-8.838-1.325v-3.094l35.354,1.326v3.093l-9.723,0.885l21.654,67.171l23.863-63.194l-10.605-3.977v-3.094l25.189,0.884v3.094
			l-9.281,3.094l-31.376,81.755l-7.07-0.442l-18.119-54.355l-21.212,52.588l-7.07-0.441l-28.726-86.616l-9.28-1.326
			L1923.675,2239.854z"/>
		<path fill="#666666" d="M2127.841,2337.52v-3.094l10.605-0.442l4.861-79.987l-10.605-1.768v-3.094l61.869,3.978l-1.326,19.003
			l-3.978-0.442l-3.978-14.583l-26.515-2.21l-2.21,35.796l23.422,1.325l4.419-9.722h3.536l-1.768,24.747h-3.536l-3.093-10.164
			l-23.422-1.326l-2.652,39.773l30.051,1.325l7.071-14.583l3.978,0.442l-2.652,19.886L2127.841,2337.52z"/>
		<path fill="#666666" d="M2366.478,2311.004c-2.651,29.608-20.771,42.866-54.356,40.215l-37.563-3.535l0.442-3.094l10.606-0.442
			l7.07-79.545l-10.164-2.651l0.441-3.536c3.536,0.442,7.955,0.884,12.816,1.326l11.49,0.884l15.025,0.884
			c7.512,0.442,13.699,1.768,19.002,3.535s10.164,4.42,14.583,7.955C2364.71,2280.953,2368.245,2293.327,2366.478,2311.004z
			 M2348.358,2309.236c1.326-15.468-0.441-26.073-5.303-32.702c-1.326-2.21-3.094-3.978-4.419-4.861
			c-1.326-1.325-3.094-2.209-5.304-2.651c-3.094-0.884-6.187-1.768-10.605-2.21h-1.769c-5.745-0.441-10.164-0.884-12.815-0.441
			l-7.07,79.104l11.047,1.325c7.514,0.442,13.7-0.441,17.235-1.768C2340.846,2340.171,2346.591,2328.681,2348.358,2309.236z"/>
		<path fill="#666666" d="M2536.175,2329.122c-3.536,29.609-21.654,42.425-55.24,38.447l-38.005-4.419l0.441-3.094h10.606
			l8.838-79.104l-10.164-2.651l0.442-3.535c3.535,0.884,7.954,1.325,12.815,1.768l11.49,1.325l15.025,1.326
			c7.513,0.884,13.699,2.21,19.002,3.978s10.164,4.86,14.584,8.396C2534.849,2299.072,2538.384,2311.445,2536.175,2329.122z
			 M2518.056,2326.913c1.768-15.468,0.441-26.073-4.42-32.702c-1.325-2.21-2.65-3.978-3.977-5.303
			c-1.326-1.326-3.094-2.21-5.304-3.094c-3.093-1.326-6.187-2.21-10.164-2.651h-1.768c-5.745-0.884-10.164-0.884-12.815-0.884
			l-8.839,79.104l11.048,1.768c7.513,0.441,13.699,0,17.235-1.326C2509.659,2357.848,2515.846,2346.357,2518.056,2326.913z"/>
		<path fill="#666666" d="M2648.422,2388.781l-37.122-5.303l0.442-3.094l10.606,0.442l11.048-79.546l-10.164-2.651l0.441-3.094
			l37.122,5.304l-0.442,3.093l-10.606-0.441l-11.048,79.545l10.164,2.652L2648.422,2388.781z"/>
		<path fill="#666666" d="M2803.093,2322.494l24.307,3.977l-0.442,3.094l-8.839,1.768l-13.257,81.313l-7.954-1.326l-41.541-80.871
			l-10.606,65.404l9.723,4.861l-0.442,3.093l-23.863-3.977l0.441-3.094l9.28-1.768l12.374-76.895l-10.164-3.093l0.441-3.094
			l22.538,3.535l37.121,73.358l9.723-59.217l-8.839-4.419V2322.494z"/>
		<path fill="#666666" d="M2958.207,2349.451l26.073,6.187l-3.977,23.863l-4.42-0.884l-0.884-18.118
			c-5.304-3.094-10.164-5.304-15.468-6.188c-9.279-1.768-17.676,0-25.189,5.745c-7.07,5.745-11.932,15.467-14.582,28.725
			c-2.652,13.258-1.769,23.864,3.093,30.935c4.419,7.513,11.489,11.932,20.328,13.699c3.094,0.442,6.629,0.884,10.606,1.326
			l5.744-29.167l-9.722-3.094l0.442-3.093l32.26,6.187l-0.441,3.094h-7.514l-6.187,30.934c-10.606,0.442-19.444,0-26.957-1.325
			c-7.513-1.326-13.7-3.535-18.561-5.745c-4.861-2.209-9.28-5.303-13.7-9.28c-4.418-3.978-6.629-8.838-8.396-15.467
			s-1.325-13.258,0-21.212c1.768-7.955,4.42-15.025,7.955-20.329c3.978-5.744,8.396-9.722,13.699-12.373
			C2934.343,2348.567,2945.392,2347.241,2958.207,2349.451z"/>
		<path fill="#666666" d="M3059.406,2457.721c-2.651-3.093-3.978-6.629-3.093-10.164c1.325-4.861,5.303-7.513,12.815-7.07
			c-0.442,8.396,0.884,14.583,4.419,18.561c3.094,3.535,6.629,5.745,10.606,6.629s7.954,0.441,11.489-1.768
			c3.535-2.21,6.188-6.188,7.514-12.374c0.883-4.861,0.441-8.838-2.211-11.932c-2.209-3.535-5.744-6.629-9.722-9.723
			c-3.978-3.093-7.07-5.303-8.396-6.629c-1.325-1.325-3.093-3.093-5.304-5.303c-2.209-2.21-3.977-4.419-4.86-6.187
			c-2.21-4.861-2.651-9.723-1.768-15.025c1.768-7.955,6.187-13.699,12.374-16.793c6.629-3.094,14.582-3.094,24.305-0.884
			c5.745,1.325,11.932,3.535,19.003,6.629l-4.419,19.444l-3.979-0.884l-1.325-16.352c-3.535-2.209-7.513-3.977-11.489-4.861
			c-3.978-0.884-7.955-0.441-11.49,1.769c-3.535,2.209-6.188,6.187-7.513,11.489c-1.325,6.187,0,11.49,4.419,15.909
			c2.21,2.21,4.861,4.419,8.396,6.629c3.094,2.21,5.746,3.978,7.071,4.861s3.093,2.651,5.303,4.861
			c2.21,2.209,3.978,4.419,4.861,6.187s1.768,3.978,2.21,7.07c0.441,3.094,0.441,5.745-0.442,8.839
			c-1.768,7.513-5.745,12.815-12.815,15.909c-6.629,3.535-15.025,3.978-24.748,1.768
			C3071.339,2466.56,3063.825,2463.024,3059.406,2457.721z"/>
	</g>
</g>
</svg>
