<?xml version="1.0" encoding="utf-8"?>
<!-- Generator: Adobe Illustrator 22.0.1, SVG Export Plug-In . SVG Version: 6.00 Build 0)  -->
<svg version="1.1" id="Layer_1" xmlns="http://www.w3.org/2000/svg" xmlns:xlink="http://www.w3.org/1999/xlink" x="0px" y="0px"
	 viewBox="0 0 792 612" style="enable-background:new 0 0 792 612;" xml:space="preserve">
<style type="text/css">
	.st0{font-family:'ArialMT';}
	.st1{font-size:12px;}
	.st2{fill:#666666;}
</style>
<text class="st0 st1"> </text>
<g>
	<g>
		<path class="st2" d="M371.1,234.8c-4.4-1-9.2-4.5-18.8-0.5c-5.9,2.5-11.3,9.3-15.2,15.7v87l-21.8,3.3v7.9c0,0,79.3,0,79.5,0
			l-2.5-108.2C392.2,239.9,388.1,239.8,371.1,234.8z"/>
		<path class="st2" d="M454.8,156.3c-0.5,5.3-5.4,11.5-5.4,11.5s-1-9.5-3.5-13.4c-1.7-2.6-3.8-3.2-3.8-3.2s-11-3.8-14-4.9
			c-3-1.1-10.9-5.7-12.9,2.8c-3.4,14.6,10.8,17.3,22.7,22.4c14.3,6,19.5,15.2,22.9,23.9c2,5.3,1.2,12.8-1.9,19.5
			c7.9-9.2,11.8-20.7,11.8-34.4c0-18.8-7.2-32.5-21.6-41c0.8,2.1,1.2,5.8,1.2,5.8S455.4,149.5,454.8,156.3z"/>
		<path class="st2" d="M357.1,202.1c11.2-10.5,32.6-20.2,57-16.1c9.8,1.7,20,4.9,27.9,20c2,3.9,9.7,5.1,8.3-6.3
			c-1.2-10.8-8.5-17.9-15.6-21.1c-4.7-2.1-17.1-6.5-21.7-10.6c-8.6-7.8-11.4-26.7,0.7-34.2c2.7-1.7,5.5-2.7,8.2-3.3
			c-6.9-1.1-14.5-1.6-22.9-1.6h-87.4v7.5l25.4,3.3v93.3C341,222.8,347.2,211.4,357.1,202.1z"/>
		<path class="st2" d="M466.6,251.7c-9-8.6-40.5-18.7-43-19.2s-3.6-0.1-3.6-0.1l-4.1,2.9c-7.1,4.2-14.6,4.5-14.6,4.5l-4,108.3
			c24.6-0.1,44.3-5,59.7-14.6c15.6-9.7,23.3-24.7,23.3-44.8C480.4,272.8,475.8,260.4,466.6,251.7z"/>
	</g>
	<g>
		<path class="st2" d="M82.6,429.5c4.3-0.9,6.8,0.2,7.4,3.2c0.3,1.3,0.1,2.4-0.4,3.4c-0.6,1-1.5,1.7-2.9,2.2c1.9,0,3.3,0.3,4.3,0.9
			c1,0.6,1.6,1.6,2,3.1c0.4,1.8,0,3.3-1.2,4.5c-1.2,1.2-2.9,2-5.2,2.5l-7.3,1.6l-0.2-0.7l1.9-0.7l-3.8-17.7l-2.3,0.2l-0.1-0.7
			L82.6,429.5z M80.8,430.7l1.8,8.2l0.6-0.1c1.3-0.3,2.1-0.9,2.7-1.8c0.5-0.9,0.7-2.1,0.3-3.5c-0.3-1.4-0.8-2.4-1.5-2.8
			c-0.7-0.5-1.6-0.6-2.8-0.3L80.8,430.7z M83.5,439.6l-0.7,0.2l1.9,9c0.4,0,0.8,0,1.2-0.1c1.2-0.3,2.2-0.9,2.9-1.8
			c0.7-0.9,0.8-2.3,0.4-4c-0.5-2.2-1.6-3.4-3.5-3.4C85,439.3,84.2,439.4,83.5,439.6z"/>
		<path class="st2" d="M112,444l-0.1-0.7l2.3-0.7l-3.2-17.9l-2.4,0.2l-0.1-0.7l13.8-2.5l0.7,4.2l-0.9,0.2l-1.6-3l-5.9,1l1.4,8
			l5.3-0.9l0.4-2.3l0.8-0.1l1,5.5l-0.8,0.1l-1.2-2.1l-5.3,0.9l1.6,8.8l6.7-1.3l0.8-3.6l0.9-0.2l0.5,4.5L112,444z"/>
		<path class="st2" d="M145.9,437.3c-0.8-0.4-1.3-1.1-1.4-1.9c-0.2-1.2,0.6-2,2.2-2.5c0.6,1.8,1.4,3,2.4,3.6
			c0.9,0.5,1.9,0.7,2.8,0.6c0.9-0.1,1.7-0.6,2.3-1.3s0.8-1.8,0.6-3.2c-0.2-1.1-0.6-1.9-1.4-2.4c-0.8-0.5-1.8-0.9-2.9-1.3
			c-1.1-0.3-1.9-0.5-2.3-0.7c-0.4-0.1-0.9-0.3-1.6-0.6c-0.6-0.3-1.1-0.6-1.5-0.9c-0.9-0.8-1.4-1.8-1.6-3c-0.3-1.9,0.2-3.4,1.3-4.5
			s2.8-1.9,5.1-2.2c1.3-0.2,2.8-0.2,4.6-0.2l0.6,4.4l-0.9,0.1l-1.6-3.4c-1-0.2-1.9-0.2-2.8-0.1c-0.9,0.1-1.7,0.6-2.3,1.3
			c-0.6,0.7-0.8,1.8-0.6,3c0.2,1.5,1,2.4,2.3,3c0.6,0.3,1.4,0.5,2.3,0.7c0.9,0.2,1.5,0.4,1.9,0.5c0.4,0.1,0.9,0.3,1.6,0.6
			c0.7,0.3,1.1,0.6,1.5,0.9c0.3,0.3,0.7,0.8,1,1.3c0.3,0.6,0.5,1.2,0.6,1.9c0.2,1.7-0.2,3.2-1.4,4.4c-1.1,1.3-2.9,2.1-5.1,2.4
			C149.1,438.3,147.3,438.1,145.9,437.3z"/>
		<path class="st2" d="M190.9,416.7l-0.8,0.1l-1.7-3.3L184,414l2.2,18l2.6,0l0.1,0.7l-8.7,1L180,433l2.5-0.6l-2.2-18L176,415
			l-0.9,3.6l-0.8,0.1l-0.5-4.5l8.3-1.1l8.3-0.9L190.9,416.7z"/>
		<path class="st2" d="M256.2,426.4l-7.7,0.6l-0.1-0.7l2.1-0.4l-1.9-15.4l-4.2,16.8l-1.5,0.1l-7.8-15.7l0.6,14.8l2.4,0.6l0.1,0.7
			l-5.6,0.4l-0.1-0.7l2.2-1l-0.8-17.5l-2.4-0.1l-0.1-0.7l5.5-0.4l7.4,15.4l4.1-16.2l5.8-0.5l0.1,0.7l-2.3,0.5l2,18l2.1,0.1
			L256.2,426.4z"/>
		<path class="st2" d="M282.7,424.8l-8.4,0.5l0-0.7l2.4-0.4l-1-18.1l-2.4-0.1l0-0.7l8.4-0.5l0,0.7l-2.4,0.4l1,18.1l2.4,0.1
			L282.7,424.8z"/>
		<path class="st2" d="M319.6,423.2l-8.1,0.3l0-0.7l2.2-0.4l-2.8-6.8l-6.2,0.2l-2,6.5l2.5,0.7l0,0.7l-5.7,0.2l0-0.7l2.1-0.9
			l5.9-18.9l1.9-0.1l8,18.8l2.1,0.2L319.6,423.2z M310.5,414.5l-3-7.2l-2.4,7.4L310.5,414.5z"/>
		<path class="st2" d="M359.7,422.3l-7.7,0.1l0-0.7l2.1-0.3l-1-15.4l-5.2,16.6l-1.5,0l-6.9-16.2l-0.3,14.8l2.3,0.7l0,0.7l-5.6,0.1
			l0-0.7l2.3-0.9l0.2-17.5l-2.3-0.3l0-0.7l5.5-0.1l6.5,15.8l5.1-16l5.9-0.1l0,0.7l-2.4,0.3l0.9,18.1l2.1,0.2L359.7,422.3z"/>
		<path class="st2" d="M386.3,422.2l-8.4,0l0-0.7l2.4-0.3l-0.1-18.1l-2.4-0.3l0-0.7l8.4,0l0,0.7l-2.4,0.3l0.1,18.1l2.4,0.3
			L386.3,422.2z"/>
		<path class="st2" d="M425.6,402.6l8,0.3l0,0.7l-2.1,0.2l4.9,15.2l3.8-9.3l-1.9-5.6l-2-0.3l0-0.7l8,0.3l0,0.7l-2.2,0.2l4.9,15.2
			l5.4-14.3l-2.4-0.9l0-0.7l5.7,0.2l0,0.7l-2.1,0.7l-7.1,18.5l-1.6-0.1l-4.1-12.3l-4.8,11.9l-1.6-0.1l-6.5-19.6l-2.1-0.3
			L425.6,402.6z"/>
		<path class="st2" d="M471.8,424.7l0-0.7l2.4-0.1l1.1-18.1l-2.4-0.4l0-0.7l14,0.9l-0.3,4.3l-0.9-0.1l-0.9-3.3l-6-0.5l-0.5,8.1
			l5.3,0.3l1-2.2l0.8,0l-0.4,5.6l-0.8,0l-0.7-2.3l-5.3-0.3l-0.6,9l6.8,0.3l1.6-3.3l0.9,0.1l-0.6,4.5L471.8,424.7z"/>
		<path class="st2" d="M525.8,418.7c-0.6,6.7-4.7,9.7-12.3,9.1L505,427l0.1-0.7l2.4-0.1l1.6-18l-2.3-0.6l0.1-0.8
			c0.8,0.1,1.8,0.2,2.9,0.3l2.6,0.2l3.4,0.2c1.7,0.1,3.1,0.4,4.3,0.8c1.2,0.4,2.3,1,3.3,1.8C525.4,411.9,526.2,414.7,525.8,418.7z
			 M521.7,418.3c0.3-3.5-0.1-5.9-1.2-7.4c-0.3-0.5-0.7-0.9-1-1.1c-0.3-0.3-0.7-0.5-1.2-0.6c-0.7-0.2-1.4-0.4-2.4-0.5l-0.4,0
			c-1.3-0.1-2.3-0.2-2.9-0.1l-1.6,17.9l2.5,0.3c1.7,0.1,3.1-0.1,3.9-0.4C520,425.3,521.3,422.7,521.7,418.3z"/>
		<path class="st2" d="M564.2,422.8c-0.8,6.7-4.9,9.6-12.5,8.7l-8.6-1l0.1-0.7l2.4,0l2-17.9l-2.3-0.6l0.1-0.8
			c0.8,0.2,1.8,0.3,2.9,0.4l2.6,0.3l3.4,0.3c1.7,0.2,3.1,0.5,4.3,0.9c1.2,0.4,2.3,1.1,3.3,1.9C563.9,416,564.7,418.8,564.2,422.8z
			 M560.1,422.3c0.4-3.5,0.1-5.9-1-7.4c-0.3-0.5-0.6-0.9-0.9-1.2c-0.3-0.3-0.7-0.5-1.2-0.7c-0.7-0.3-1.4-0.5-2.3-0.6l-0.4,0
			c-1.3-0.2-2.3-0.2-2.9-0.2l-2,17.9l2.5,0.4c1.7,0.1,3.1,0,3.9-0.3C558.2,429.3,559.6,426.7,560.1,422.3z"/>
		<path class="st2" d="M589.6,436.3l-8.4-1.2l0.1-0.7l2.4,0.1l2.5-18l-2.3-0.6l0.1-0.7l8.4,1.2l-0.1,0.7l-2.4-0.1l-2.5,18l2.3,0.6
			L589.6,436.3z"/>
		<path class="st2" d="M624.6,421.3l5.5,0.9l-0.1,0.7l-2,0.4l-3,18.4l-1.8-0.3l-9.4-18.3l-2.4,14.8l2.2,1.1l-0.1,0.7l-5.4-0.9
			l0.1-0.7l2.1-0.4l2.8-17.4l-2.3-0.7l0.1-0.7l5.1,0.8l8.4,16.6l2.2-13.4l-2-1L624.6,421.3z"/>
		<path class="st2" d="M659.7,427.4l5.9,1.4l-0.9,5.4l-1-0.2l-0.2-4.1c-1.2-0.7-2.3-1.2-3.5-1.4c-2.1-0.4-4,0-5.7,1.3
			c-1.6,1.3-2.7,3.5-3.3,6.5c-0.6,3-0.4,5.4,0.7,7c1,1.7,2.6,2.7,4.6,3.1c0.7,0.1,1.5,0.2,2.4,0.3l1.3-6.6l-2.2-0.7l0.1-0.7l7.3,1.4
			l-0.1,0.7l-1.7,0l-1.4,7c-2.4,0.1-4.4,0-6.1-0.3c-1.7-0.3-3.1-0.8-4.2-1.3c-1.1-0.5-2.1-1.2-3.1-2.1s-1.5-2-1.9-3.5s-0.3-3,0-4.8
			c0.4-1.8,1-3.4,1.8-4.6c0.9-1.3,1.9-2.2,3.1-2.8C654.3,427.2,656.8,426.9,659.7,427.4z"/>
		<path class="st2" d="M682.6,451.9c-0.6-0.7-0.9-1.5-0.7-2.3c0.3-1.1,1.2-1.7,2.9-1.6c-0.1,1.9,0.2,3.3,1,4.2
			c0.7,0.8,1.5,1.3,2.4,1.5c0.9,0.2,1.8,0.1,2.6-0.4c0.8-0.5,1.4-1.4,1.7-2.8c0.2-1.1,0.1-2-0.5-2.7c-0.5-0.8-1.3-1.5-2.2-2.2
			c-0.9-0.7-1.6-1.2-1.9-1.5c-0.3-0.3-0.7-0.7-1.2-1.2s-0.9-1-1.1-1.4c-0.5-1.1-0.6-2.2-0.4-3.4c0.4-1.8,1.4-3.1,2.8-3.8
			c1.5-0.7,3.3-0.7,5.5-0.2c1.3,0.3,2.7,0.8,4.3,1.5l-1,4.4l-0.9-0.2l-0.3-3.7c-0.8-0.5-1.7-0.9-2.6-1.1c-0.9-0.2-1.8-0.1-2.6,0.4
			c-0.8,0.5-1.4,1.4-1.7,2.6c-0.3,1.4,0,2.6,1,3.6c0.5,0.5,1.1,1,1.9,1.5c0.7,0.5,1.3,0.9,1.6,1.1c0.3,0.2,0.7,0.6,1.2,1.1
			c0.5,0.5,0.9,1,1.1,1.4c0.2,0.4,0.4,0.9,0.5,1.6s0.1,1.3-0.1,2c-0.4,1.7-1.3,2.9-2.9,3.6c-1.5,0.8-3.4,0.9-5.6,0.4
			C685.3,453.9,683.6,453.1,682.6,451.9z"/>
	</g>
</g>
</svg>
