<?xml version="1.0" encoding="utf-8"?>
<!-- Generator: Adobe Illustrator 22.1.0, SVG Export Plug-In . SVG Version: 6.00 Build 0)  -->
<svg version="1.1" id="Layer_1" xmlns="http://www.w3.org/2000/svg" xmlns:xlink="http://www.w3.org/1999/xlink" x="0px" y="0px"
	 viewBox="0 0 130.9 174" style="enable-background:new 0 0 130.9 174;" xml:space="preserve">
<style type="text/css">
	.st0{fill:#FFFFFF;}
</style>
<g>
	<g>
		<path class="st0" d="M50.1,82.8c-3.1-0.7-6.4-3.1-13.1-0.3c-4.1,1.7-7.9,6.5-10.6,10.9v60.7l-15.2,2.3v5.5c0,0,55.4,0,55.5,0
			L65,86.4C64.8,86.4,61.9,86.3,50.1,82.8z"/>
		<path class="st0" d="M108.5,28c-0.3,3.7-3.8,8-3.8,8s-0.7-6.6-2.5-9.3c-1.2-1.8-2.7-2.2-2.7-2.2s-7.7-2.7-9.8-3.4
			c-2.1-0.8-7.6-4-9,2c-2.4,10.2,7.5,12.1,15.8,15.6c10,4.2,13.6,10.6,16,16.7c1.4,3.7,0.8,8.9-1.3,13.6c5.5-6.4,8.2-14.4,8.2-24
			c0-13.2-5-22.7-15-28.6c0.5,1.5,0.8,4,0.8,4S108.9,23.3,108.5,28z"/>
		<path class="st0" d="M40.3,60c7.8-7.4,22.7-14.1,39.8-11.2c6.9,1.2,14,3.4,19.5,14c1.4,2.7,6.7,3.6,5.8-4.4
			c-0.9-7.5-5.9-12.5-10.9-14.7c-3.3-1.5-11.9-4.5-15.1-7.4c-6-5.4-8-18.6,0.5-23.9c1.9-1.2,3.8-1.9,5.7-2.3C80.8,9.4,75.5,9,69.6,9
			h-61v5.3l17.8,2.3v65.1C29.1,74.5,33.4,66.5,40.3,60z"/>
		<path class="st0" d="M116.8,94.6c-6.3-6-28.2-13-30-13.4c-1.8-0.3-2.5-0.1-2.5-0.1l-2.8,2c-4.9,2.9-10.2,3.1-10.2,3.1l-2.8,75.6
			c17.2-0.1,30.9-3.5,41.7-10.2c10.9-6.8,16.3-17.2,16.3-31.3C126.4,109.4,123.2,100.7,116.8,94.6z"/>
	</g>
	<g>
		<path class="st0" d="M-151.3,218.7c3-0.6,4.7,0.1,5.2,2.3c0.2,0.9,0.1,1.7-0.3,2.4c-0.4,0.7-1.1,1.2-2,1.5c1.3,0,2.3,0.2,3,0.6
			c0.7,0.4,1.1,1.1,1.4,2.1c0.3,1.3,0,2.3-0.9,3.1c-0.9,0.8-2,1.4-3.6,1.7l-5.1,1.1l-0.1-0.5l1.3-0.5l-2.7-12.4l-1.6,0.1l-0.1-0.5
			L-151.3,218.7z M-152.5,219.6l1.2,5.8l0.5-0.1c0.9-0.2,1.5-0.6,1.9-1.2c0.4-0.6,0.5-1.4,0.2-2.4c-0.2-1-0.6-1.7-1-2
			c-0.5-0.3-1.1-0.4-1.9-0.2L-152.5,219.6z M-150.6,225.8l-0.5,0.1l1.4,6.3c0.3,0,0.5,0,0.8-0.1c0.9-0.2,1.5-0.6,2-1.3
			s0.6-1.6,0.3-2.8c-0.3-1.5-1.1-2.3-2.4-2.4C-149.6,225.6-150.1,225.7-150.6,225.8z"/>
		<path class="st0" d="M-130.8,228.9l-0.1-0.5l1.6-0.5l-2.2-12.5l-1.7,0.1l-0.1-0.5l9.6-1.7l0.5,2.9l-0.6,0.1l-1.1-2.1l-4.1,0.7
			l1,5.6l3.7-0.7l0.3-1.6l0.5-0.1l0.7,3.9l-0.5,0.1l-0.8-1.5l-3.7,0.7l1.1,6.2l4.7-0.9l0.6-2.5l0.6-0.1l0.3,3.1L-130.8,228.9z"/>
		<path class="st0" d="M-107.1,224.2c-0.6-0.3-0.9-0.7-1-1.3c-0.1-0.8,0.4-1.4,1.5-1.8c0.4,1.3,1,2.1,1.7,2.5
			c0.6,0.4,1.3,0.5,1.9,0.4s1.2-0.4,1.6-0.9s0.5-1.3,0.4-2.3c-0.1-0.7-0.4-1.3-1-1.7s-1.2-0.7-2-0.9s-1.3-0.4-1.6-0.5
			s-0.7-0.2-1.1-0.4c-0.4-0.2-0.8-0.4-1-0.6c-0.6-0.6-1-1.3-1.1-2.1c-0.2-1.3,0.1-2.4,0.9-3.2s2-1.3,3.6-1.5c0.9-0.1,2-0.2,3.2-0.1
			l0.5,3.1l-0.6,0.1l-1.1-2.3c-0.7-0.1-1.3-0.1-2-0.1c-0.7,0.1-1.2,0.4-1.6,0.9c-0.4,0.5-0.6,1.2-0.4,2.1c0.1,1,0.7,1.7,1.6,2.1
			c0.5,0.2,1,0.3,1.6,0.5c0.6,0.2,1,0.3,1.3,0.3c0.3,0.1,0.6,0.2,1.1,0.4s0.8,0.4,1,0.6s0.5,0.5,0.7,0.9c0.2,0.4,0.4,0.8,0.4,1.3
			c0.2,1.2-0.1,2.2-0.9,3.1c-0.8,0.9-2,1.4-3.6,1.7S-106.1,224.7-107.1,224.2z"/>
		<path class="st0" d="M-75.7,209.8l-0.6,0.1l-1.2-2.3l-3.1,0.3l1.5,12.6h1.8l0.1,0.5l-6.1,0.7l-0.1-0.5l1.8-0.4l-1.5-12.6l-3.1,0.4
			l-0.6,2.5l-0.6,0.1l-0.4-3.2l5.8-0.7l5.8-0.7L-75.7,209.8z"/>
		<path class="st0" d="M-30.2,216.6l-5.4,0.4v-0.5l1.4-0.3l-1.3-10.7l-3,11.8l-1,0.1l-5.5-11l0.4,10.3l1.6,0.4v0.5l-3.9,0.3v-0.5
			l1.5-0.7l-0.6-12.2l-1.6-0.1v-0.5l3.8-0.3l5.2,10.7l2.9-11.3l4.1-0.3l0.1,0.5l-1.6,0.3l1.4,12.6l1.5,0.1V216.6z"/>
		<path class="st0" d="M-11.6,215.5l-5.9,0.3v-0.5l1.7-0.3l-0.7-12.6l-1.7-0.1v-0.5l5.9-0.3v0.5l-1.7,0.3l0.7,12.6l1.7,0.1V215.5z"
			/>
		<path class="st0" d="M14.1,214.3l-5.6,0.2V214l1.5-0.2L8,209l-4.3,0.2l-1.4,4.5l1.7,0.5v0.5l-4,0.2v-0.5l1.4-0.6l4.1-13.2l1.3-0.1
			l5.6,13.2l1.5,0.1L14.1,214.3z M7.8,208.3l-2.1-5L4,208.5L7.8,208.3z"/>
		<path class="st0" d="M42.2,213.7l-5.4,0.1v-0.5l1.5-0.2l-0.7-10.8l-3.7,11.6h-1l-4.8-11.3L27.9,213l1.6,0.5v0.5l-3.9,0.1v-0.5
			l1.6-0.6l0.2-12.2l-1.6-0.2v-0.5l3.8-0.1l4.5,11l3.5-11.2l4.1-0.1v0.5l-1.6,0.2l0.6,12.7l1.5,0.2L42.2,213.7L42.2,213.7z"/>
		<path class="st0" d="M60.7,213.6h-5.9v-0.5l1.7-0.2v-12.7l-1.7-0.2v-0.5h5.9v0.5l-1.7,0.2v12.7l1.7,0.2V213.6z"/>
		<path class="st0" d="M88.1,199.9l5.6,0.2v0.5l-1.4,0.1l3.4,10.6l2.6-6.5l-1.3-3.9l-1.4-0.2v-0.5l5.6,0.2v0.5l-1.5,0.1l3.4,10.6
			l3.7-10l-1.7-0.6v-0.5l4,0.1v0.5l-1.5,0.5l-5,12.9h-1.2l-2.9-8.6l-3.4,8.3h-1.2l-4.5-13.7l-1.5-0.2L88.1,199.9z"/>
		<path class="st0" d="M120.3,215.4v-0.5l1.7-0.1l0.8-12.6l-1.7-0.3v-0.5l9.8,0.6l-0.2,3h-0.6l-0.6-2.3l-4.2-0.3l-0.4,5.6l3.7,0.2
			l0.7-1.5h0.5l-0.2,3.9H129l-0.5-1.6l-3.7-0.2l-0.4,6.3l4.8,0.2l1.1-2.3h0.6l-0.4,3.1L120.3,215.4z"/>
		<path class="st0" d="M158.1,211.2c-0.4,4.7-3.3,6.8-8.6,6.3l-6-0.5v-0.5l1.7-0.1l1.1-12.6l-1.6-0.4v-0.5c0.6,0.1,1.3,0.2,2,0.2
			l1.8,0.2l2.4,0.1c1.2,0.1,2.2,0.3,3,0.6c0.9,0.3,1.6,0.7,2.3,1.3C157.7,206.5,158.3,208.4,158.1,211.2z M155.2,211
			c0.2-2.4-0.1-4.1-0.8-5.1c-0.2-0.3-0.5-0.6-0.7-0.8s-0.5-0.3-0.8-0.4c-0.5-0.2-1-0.3-1.6-0.4H151c-0.9-0.1-1.6-0.1-2.1-0.1
			l-1.1,12.5l1.8,0.2c1.2,0,2.1-0.1,2.7-0.3C154,215.8,154.9,214,155.2,211z"/>
		<path class="st0" d="M184.9,214.1c-0.5,4.7-3.4,6.7-8.7,6.1l-6-0.7l0.1-0.5h1.7l1.4-12.5l-1.6-0.4l0.1-0.5c0.6,0.1,1.3,0.2,2,0.3
			l1.8,0.2l2.4,0.2c1.2,0.1,2.2,0.4,3,0.7s1.6,0.8,2.3,1.3C184.6,209.3,185.2,211.3,184.9,214.1z M182,213.7
			c0.3-2.4,0.1-4.1-0.7-5.2c-0.2-0.4-0.5-0.6-0.7-0.8s-0.5-0.3-0.8-0.5c-0.5-0.2-1-0.3-1.6-0.4h-0.3c-0.9-0.1-1.6-0.1-2.1-0.1
			l-1.4,12.5l1.8,0.3c1.2,0.1,2.1,0,2.8-0.2C180.6,218.6,181.6,216.8,182,213.7z"/>
		<path class="st0" d="M202.6,223.5l-5.8-0.8l0.1-0.5h1.7l1.7-12.5l-1.6-0.4l0.1-0.5l5.8,0.8l-0.1,0.5h-1.7l-1.7,12.5l1.6,0.4
			L202.6,223.5z"/>
		<path class="st0" d="M227,213l3.8,0.6l-0.1,0.5l-1.4,0.3l-2.1,12.9l-1.3-0.2l-6.6-12.7l-1.7,10.4l1.5,0.8l-0.1,0.5l-3.8-0.6
			l0.1-0.5l1.5-0.3l2-12.2l-1.6-0.5l0.1-0.5l3.6,0.6l5.9,11.6l1.5-9.4l-1.4-0.7L227,213z"/>
		<path class="st0" d="M251.5,217.3l4.1,1l-0.6,3.8l-0.7-0.1l-0.1-2.8c-0.8-0.5-1.6-0.8-2.4-1c-1.5-0.3-2.8,0-4,0.9
			s-1.9,2.4-2.3,4.5s-0.3,3.8,0.5,4.9c0.7,1.2,1.8,1.9,3.2,2.2c0.5,0.1,1.1,0.2,1.7,0.2l0.9-4.6l-1.5-0.5l0.1-0.5l5.1,1l-0.1,0.5
			h-1.2l-1,4.9c-1.6,0.1-3.1,0-4.2-0.2c-1.2-0.2-2.2-0.5-2.9-0.9c-0.8-0.4-1.5-0.9-2.1-1.5s-1.1-1.4-1.3-2.4s-0.2-2.1,0-3.4
			s0.7-2.3,1.3-3.2c0.6-0.9,1.3-1.5,2.2-2C247.7,217.1,249.5,216.9,251.5,217.3z"/>
		<path class="st0" d="M267.5,234.4c-0.4-0.5-0.6-1-0.5-1.6c0.2-0.8,0.9-1.2,2.1-1.1c-0.1,1.3,0.1,2.3,0.7,2.9
			c0.5,0.6,1,0.9,1.7,1.1c0.6,0.1,1.2,0.1,1.8-0.3c0.6-0.3,1-1,1.2-2c0.2-0.7,0.1-1.4-0.3-1.9s-0.9-1.1-1.6-1.6s-1.1-0.8-1.3-1
			s-0.5-0.5-0.9-0.8c-0.3-0.4-0.6-0.7-0.7-0.9c-0.4-0.7-0.4-1.5-0.3-2.3c0.3-1.3,0.9-2.2,2-2.6c1-0.5,2.3-0.5,3.9-0.2
			c0.9,0.2,1.9,0.5,3,1l-0.7,3L277,226l-0.2-2.6c-0.6-0.4-1.2-0.6-1.8-0.8c-0.6-0.1-1.3,0-1.8,0.3c-0.6,0.3-1,0.9-1.2,1.8
			c-0.2,1,0,1.8,0.7,2.5c0.4,0.3,0.8,0.7,1.3,1c0.5,0.4,0.9,0.6,1.1,0.8s0.5,0.4,0.9,0.8c0.4,0.3,0.6,0.7,0.7,1s0.3,0.7,0.3,1.1
			c0.1,0.4,0.1,0.9-0.1,1.4c-0.3,1.2-0.9,2-2,2.5s-2.4,0.6-3.9,0.3C269.4,235.8,268.2,235.2,267.5,234.4z"/>
	</g>
</g>
</svg>
