<?xml version="1.0" encoding="utf-8"?>
<!-- Generator: Adobe Illustrator 22.0.1, SVG Export Plug-In . SVG Version: 6.00 Build 0)  -->
<svg version="1.1" id="Layer_1" xmlns="http://www.w3.org/2000/svg" xmlns:xlink="http://www.w3.org/1999/xlink" x="0px" y="0px"
	 viewBox="0 0 639.4 424.2" style="enable-background:new 0 0 639.4 424.2;" xml:space="preserve">
<style type="text/css">
	.st0{fill:#AF9EAC;}
	.st1{fill-rule:evenodd;clip-rule:evenodd;fill:#AF9EAC;}
</style>
<g>
	<g>
		<path class="st0" d="M237.7,354.1l6.7-11.9c0.3-0.5,0.4-0.9,0.5-1.3c0.1-0.4,0.1-0.8,0.1-1.1c0-0.9-0.2-1.7-0.6-2.4
			c-0.4-0.7-1-1-1.8-1.1c-0.7,0-1.2,0.3-1.7,0.9c-0.5,0.6-0.7,1.5-0.8,2.6h-2.5c0.1-2,0.5-3.7,1.4-5c0.9-1.3,2-1.9,3.3-2
			c1.5,0,2.7,0.7,3.6,2c0.9,1.3,1.4,3,1.4,5c0,1.6-0.3,3-1,4.3l-5.5,9.8h6.6v3.5h-9.8V354.1z"/>
		<path class="st0" d="M250.3,339.8c0-2.2,0.5-4,1.5-5.2c0.9-1.2,2.1-1.8,3.4-1.8c1.3,0,2.5,0.6,3.4,1.8c1,1.2,1.4,2.9,1.5,5.2v10.7
			c0,2.2-0.5,4-1.5,5.2c-0.9,1.2-2.1,1.8-3.4,1.8c-1.3,0-2.4-0.6-3.4-1.8c-1-1.2-1.5-2.9-1.5-5.2V339.8z M257.6,340.1
			c0-2.4-0.9-3.7-2.4-3.7c-1.6,0-2.4,1.3-2.4,3.7v10.3c0,2.5,0.8,3.7,2.4,3.7c1.6,0,2.4-1.3,2.4-3.7V340.1z"/>
		<path class="st0" d="M266.5,336.7l-2.4,2.5v-3.7l2.4-2.5h2.5v24.3h-2.5V336.7z"/>
		<path class="st0" d="M275.2,339.8c0-2.2,0.5-4,1.5-5.2c0.9-1.2,2.1-1.8,3.4-1.8c1.3,0,2.5,0.6,3.4,1.8c1,1.2,1.4,2.9,1.5,5.2v10.7
			c0,2.2-0.5,4-1.5,5.2c-0.9,1.2-2.1,1.8-3.4,1.8c-1.3,0-2.4-0.6-3.4-1.8c-1-1.2-1.5-2.9-1.5-5.2V339.8z M282.5,340.1
			c0-2.4-0.9-3.7-2.4-3.7c-1.6,0-2.4,1.3-2.4,3.7v10.3c0,2.5,0.8,3.7,2.4,3.7c1.6,0,2.4-1.3,2.4-3.7V340.1z"/>
	</g>
	<g>
		<path class="st0" d="M339.2,354.1l6.7-11.9c0.3-0.5,0.4-0.9,0.5-1.3c0.1-0.4,0.1-0.8,0.1-1.1c0-0.9-0.2-1.7-0.6-2.4
			c-0.4-0.7-1-1-1.8-1.1c-0.7,0-1.2,0.3-1.7,0.9c-0.5,0.6-0.7,1.5-0.8,2.6h-2.5c0.1-2,0.5-3.7,1.4-5c0.9-1.3,2-1.9,3.3-2
			c1.5,0,2.7,0.7,3.6,2c0.9,1.3,1.4,3,1.4,5c0,1.6-0.3,3-1,4.3l-5.5,9.8h6.6v3.5h-9.8V354.1z"/>
		<path class="st0" d="M351.8,339.8c0-2.2,0.5-4,1.5-5.2c0.9-1.2,2.1-1.8,3.4-1.8c1.3,0,2.5,0.6,3.4,1.8c1,1.2,1.4,2.9,1.5,5.2v10.7
			c0,2.2-0.5,4-1.5,5.2c-0.9,1.2-2.1,1.8-3.4,1.8c-1.3,0-2.4-0.6-3.4-1.8c-1-1.2-1.5-2.9-1.5-5.2V339.8z M359.1,340.1
			c0-2.4-0.9-3.7-2.4-3.7c-1.6,0-2.4,1.3-2.4,3.7v10.3c0,2.5,0.8,3.7,2.4,3.7c1.6,0,2.4-1.3,2.4-3.7V340.1z"/>
		<path class="st0" d="M368,336.7l-2.4,2.5v-3.7l2.4-2.5h2.5v24.3H368V336.7z"/>
		<path class="st0" d="M377,333.1h9.8v3.5l-5.8,20.8h-2.7l5.8-20.8h-4.6v3.5H377V333.1z"/>
	</g>
	<g>
		<path class="st0" d="M133.6,286.1l5.8-28.3l5.9,1.9l-4,17.7l7.4-16.6l5.6,1.8l-4.1,17.7l7.3-16.7l5.9,2L151,291.9l-7.2-2.4
			l2.8-13.6l-5.8,12.7L133.6,286.1z"/>
		<path class="st0" d="M164.1,295.4l6.9-27.8l5.9,1.5l-6.9,27.8L164.1,295.4z"/>
		<path class="st0" d="M180.5,299.3l5.5-28.2l6.4,1.2l0.2,14l2.6-13.5l6,1.2l-5.5,28.2l-6.1-1.2l-0.4-14.7l-2.7,14.1L180.5,299.3z"
			/>
		<path class="st0" d="M206.6,304.1l3.9-28.4l6.4,0.9l1,14l1.9-13.6l6,0.8l-3.9,28.4l-6.1-0.8l-1.2-14.7l-2,14.2L206.6,304.1z"/>
		<path class="st0" d="M232.3,307.3l2.8-28.6l6.1,0.6l-2.8,28.6L232.3,307.3z"/>
		<path class="st0" d="M248.5,308.8l1.9-28.6l6.5,0.4l2,13.9l0.9-13.7l6.1,0.4l-1.9,28.6l-6.2-0.4l-2.2-14.5l-0.9,14.3L248.5,308.8z
			"/>
		<path class="st0" d="M275.3,308.4c-1.1-1.5-1.6-3.7-1.5-6.7l0.3-12.4c0.1-2.6,0.8-4.6,2.1-6c1.3-1.3,3.3-1.9,5.9-1.9
			c2.1,0.1,3.7,0.5,4.8,1.3c1.1,0.8,1.9,1.9,2.3,3.4c0.4,1.5,0.6,3.3,0.5,5.6l-6.2-0.2l0.1-2.6c0-0.7-0.1-1.2-0.3-1.6
			c-0.2-0.4-0.6-0.6-1.1-0.6c-1.2,0-1.8,0.7-1.9,2.1l-0.4,13.9c0,0.9,0.1,1.5,0.3,2c0.2,0.5,0.7,0.7,1.3,0.7c0.6,0,1-0.2,1.3-0.6
			c0.3-0.4,0.4-1.1,0.4-2l0.1-4.1l-1.7,0l0.1-4.9l7.7,0.2l-0.5,16.7l-2.5-0.1l-1-2.4c-1.2,1.7-2.9,2.6-5.3,2.5
			C278.1,310.7,276.4,309.9,275.3,308.4z"/>
		<path class="st0" d="M315,310.7l-0.5-28.7l6.3-0.1l0.4,23.8l6.5-0.1l0.1,4.9L315,310.7z"/>
		<path class="st0" d="M338.4,308.3c-1.4-1.4-2.1-3.3-2.2-5.9l-0.6-13.6c-0.1-2.5,0.5-4.4,1.7-5.7c1.3-1.3,3.2-2,5.7-2.1
			c2.5-0.1,4.5,0.4,5.9,1.6c1.4,1.2,2.1,3,2.2,5.5l0.6,13.6c0.1,2.6-0.5,4.6-1.7,6.1c-1.3,1.5-3.2,2.2-5.7,2.4
			C341.7,310.3,339.7,309.7,338.4,308.3z M345.1,304.2c0.2-0.5,0.2-1.1,0.2-1.9l-0.6-14c0-0.6-0.1-1.1-0.3-1.5
			c-0.2-0.4-0.6-0.6-1.1-0.5c-1.1,0-1.5,0.8-1.5,2.2l0.6,14c0,0.8,0.2,1.4,0.4,1.9s0.7,0.6,1.2,0.6
			C344.6,304.9,345,304.7,345.1,304.2z"/>
		<path class="st0" d="M363.4,307.2c-1.5-1.2-2.3-2.9-2.5-5.2l-1-13.2c-0.2-2.8,0.2-5,1.4-6.6c1.1-1.5,3-2.4,5.7-2.6
			c2.3-0.2,4.2,0.3,5.7,1.3c1.5,1,2.3,2.7,2.5,4.8l0.4,4.9l-6.3,0.5l-0.3-4.2c-0.1-0.8-0.2-1.4-0.5-1.7c-0.2-0.3-0.6-0.4-1.2-0.4
			c-0.6,0-0.9,0.3-1.1,0.6c-0.2,0.4-0.2,0.9-0.2,1.6l1.1,14.4c0.1,0.8,0.2,1.3,0.5,1.6c0.3,0.3,0.6,0.5,1.1,0.4
			c1-0.1,1.4-0.8,1.3-2.3l-0.4-5.2l6.3-0.5l0.4,5.4c0.4,4.8-2.1,7.4-7.4,7.8C366.8,308.9,364.9,308.4,363.4,307.2z"/>
		<path class="st0" d="M385.7,307l-0.3-28.9l10.6-1.2l6.3,28.1l-6,0.7l-1-4.6l-3.8,0.4l0.2,4.7L385.7,307z M391.6,297.1l2.8-0.3
			l-3.1-14.3l-0.3,0L391.6,297.1z"/>
		<path class="st0" d="M415,303.2l-3.8-22.9l-3.7,0.6l-0.9-5.4l13.6-2.3l0.9,5.4l-3.7,0.6l3.8,22.9L415,303.2z"/>
		<path class="st0" d="M434.3,299.7l-6.1-28l6-1.3l6.1,28L434.3,299.7z"/>
		<path class="st0" d="M452.1,293.6c-1.7-1-2.9-2.7-3.6-5.2l-3.8-13.1c-0.7-2.4-0.6-4.3,0.4-5.9c0.9-1.6,2.6-2.7,5.1-3.4
			s4.5-0.6,6.1,0.2c1.6,0.8,2.8,2.4,3.5,4.8l3.8,13.1c0.7,2.5,0.6,4.6-0.2,6.3c-0.9,1.7-2.5,2.9-5,3.6
			C455.8,294.7,453.7,294.6,452.1,293.6z M457.7,288c0.1-0.5,0-1.1-0.2-1.9l-3.9-13.5c-0.2-0.6-0.4-1.1-0.7-1.4
			c-0.3-0.3-0.7-0.4-1.2-0.2c-1,0.3-1.3,1.1-0.9,2.5l3.9,13.4c0.2,0.8,0.5,1.4,0.8,1.7c0.3,0.3,0.8,0.4,1.3,0.3
			C457.3,288.8,457.6,288.5,457.7,288z"/>
		<path class="st0" d="M476.9,287.7l-11.5-26.3l6-2.6l8.2,11.4l-5.5-12.6l5.6-2.4l11.5,26.3l-5.7,2.5l-8.6-11.9l5.8,13.2
			L476.9,287.7z"/>
	</g>
	<path class="st0" d="M583.9,104.5c0,0-9.1-18.2-33-8.1C550.9,96.4,561.1,116.8,583.9,104.5L583.9,104.5z M584.6,69.5
		c0,0-14.7,14,1.9,33.9C586.5,103.4,603,87.7,584.6,69.5z M597,123.7c0,0-6.9-19.1-31.9-11.8C565.1,111.9,572.9,133.3,597,123.7z
		 M601.8,89c0,0-16.3,12.2-2.1,33.9C599.7,123,617.9,109.3,601.8,89z M606.3,145.2c0,0-3.4-20-29.3-17.3
		C577,127.9,580.8,150.4,606.3,145.2z M617.1,111.9c0,0-18.2,9.1-8,33C609.1,144.9,629.4,134.8,617.1,111.9z M611.2,167.9
		c0,0-1-20.3-27-20.7C584.2,147.2,585.3,170,611.2,167.9z M626,136.2c0,0-19.1,6.8-12,31.8C614,168,635.5,160.3,626,136.2z
		 M613.9,191.2c0,0,1.8-20.2-23.9-24.2C590,167,588,189.7,613.9,191.2z M632.9,161.7c0,0-19.9,4.2-16.2,29.9
		C616.7,191.6,639,187,632.9,161.7z M612,214.3c0,0,5.9-19.4-18.4-28.6C593.6,185.7,587,207.5,612,214.3z M636.7,189.4
		c0,0-20.3,0-22,25.9C614.6,215.3,637.4,215.3,636.7,189.4z M607.2,237.9c0,0,9.4-18-12.9-31.5C594.3,206.4,583.8,226.6,607.2,237.9
		z M635.9,217.9c0,0-20-3.7-26.4,21.5C609.6,239.3,632,243.5,635.9,217.9z M598.7,260c0,0,11.9-16.5-8.2-33
		C590.5,227,577.2,245.5,598.7,260z M630,243c0,0-19.2-6.6-29.2,17.4C600.8,260.5,622.4,267.8,630,243z M585,280.3
		c0,0,14.9-13.8-1.6-34C583.4,246.3,566.7,261.8,585,280.3z M619,269.8c0,0-17.6-10.2-32.1,11.3C587,281.2,606.7,292.6,619,269.8z
		 M570.3,299.3c0,0,16.7-11.5,3.4-33.8C573.7,265.5,555,278.4,570.3,299.3z M605.6,293.9c0,0-15.9-12.7-33.4,6.6
		C572.2,300.5,590,314.7,605.6,293.9z M553.2,314.6c0,0,17.1-9.6,6.1-32.2C559.3,282.4,540.2,293.2,553.2,314.6z M587.5,312.4
		c0,0-14.2-13.5-32.6,3.5C554.8,315.9,570.7,331.1,587.5,312.4z M532.7,326.8c0,0,18.6-6.3,12.1-30.5
		C544.7,296.3,523.9,303.3,532.7,326.8z M566.8,331c0,0-11.4-15.9-32.7-2.7C534.1,328.3,546.9,346.2,566.8,331z M511.5,336.9
		c0,0,19.3-3.6,16.2-28.5C527.7,308.4,506.1,312.5,511.5,336.9z M544.7,345.9c0,0-9.1-17.4-32-7.2
		C512.7,338.7,522.9,358.2,544.7,345.9z M490.4,342.1c0,0,19.6-0.6,20.4-25.7C510.8,316.5,488.8,317.1,490.4,342.1z M521.8,356.1
		c0,0-6.3-18.6-30.5-12.1C491.3,344.1,498.3,364.9,521.8,356.1z M574.6,90.6c0,0,1.5-20.3-24.2-23.9
		C550.4,66.7,548.7,89.5,574.6,90.6z"/>
	<path class="st0" d="M55.2,104.5c0,0,9.1-18.2,33-8.1C88.2,96.4,78,116.8,55.2,104.5L55.2,104.5z M54.5,69.5c0,0,14.7,14-1.9,33.9
		C52.6,103.4,36,87.7,54.5,69.5z M42.1,123.7c0,0,6.9-19.1,31.9-11.8C74,111.9,66.2,133.3,42.1,123.7z M37.3,89
		c0,0,16.3,12.2,2.1,33.9C39.4,123,21.1,109.3,37.3,89z M32.8,145.2c0,0,3.4-20,29.3-17.3C62.1,127.9,58.2,150.4,32.8,145.2z
		 M22,111.9c0,0,18.2,9.1,8,33C30,144.9,9.6,134.8,22,111.9z M27.8,167.9c0,0,1-20.3,27-20.7C54.8,147.2,53.7,170,27.8,167.9z
		 M13.1,136.2c0,0,19.1,6.8,12,31.8C25.1,168,3.6,160.3,13.1,136.2z M25.2,191.2c0,0-1.8-20.2,23.9-24.2
		C49.1,167,51.1,189.7,25.2,191.2z M6.2,161.7c0,0,19.9,4.2,16.2,29.9C22.4,191.6,0.1,187,6.2,161.7z M27.1,214.3
		c0,0-5.9-19.4,18.4-28.6C45.5,185.7,52.1,207.5,27.1,214.3z M2.4,189.4c0,0,20.3,0,22,25.9C24.4,215.3,1.7,215.3,2.4,189.4z
		 M31.9,237.9c0,0-9.4-18,12.9-31.5C44.8,206.4,55.3,226.6,31.9,237.9z M3.1,217.9c0,0,20-3.7,26.4,21.5
		C29.5,239.3,7.1,243.5,3.1,217.9z M40.4,260c0,0-11.9-16.5,8.2-33C48.6,227,61.9,245.5,40.4,260z M9.1,243c0,0,19.2-6.6,29.2,17.4
		C38.3,260.5,16.7,267.8,9.1,243z M54.1,280.3c0,0-14.9-13.8,1.6-34C55.7,246.3,72.4,261.8,54.1,280.3z M20,269.8
		c0,0,17.6-10.2,32.1,11.3C52.1,281.2,32.4,292.6,20,269.8z M68.7,299.3c0,0-16.7-11.5-3.4-33.8C65.3,265.5,84.1,278.4,68.7,299.3z
		 M33.5,293.9c0,0,15.9-12.7,33.4,6.6C66.9,300.5,49.1,314.7,33.5,293.9z M85.9,314.6c0,0-17.1-9.6-6.1-32.2
		C79.8,282.4,98.9,293.2,85.9,314.6z M51.6,312.4c0,0,14.2-13.5,32.6,3.5C84.2,315.9,68.3,331.1,51.6,312.4z M106.4,326.8
		c0,0-18.6-6.3-12.1-30.5C94.4,296.3,115.2,303.3,106.4,326.8z M72.3,331c0,0,11.4-15.9,32.7-2.7C105,328.3,92.2,346.2,72.3,331z
		 M127.5,336.9c0,0-19.3-3.6-16.2-28.5C111.3,308.4,132.9,312.5,127.5,336.9z M94.4,345.9c0,0,9.1-17.4,32-7.2
		C126.4,338.7,116.2,358.2,94.4,345.9z M148.7,342.1c0,0-19.6-0.6-20.4-25.7C128.3,316.5,150.3,317.1,148.7,342.1z M117.3,356.1
		c0,0,6.3-18.6,30.5-12.1C147.8,344.1,140.8,364.9,117.3,356.1z M64.5,90.6c0,0-1.5-20.3,24.2-23.9C88.7,66.7,90.4,89.5,64.5,90.6z"
		/>
	<path class="st1" d="M124.5,177.6l0.2,1.3h6.3l-3.2-21.5L124.5,177.6z M139.9,232.4l-4.1-29h-16.1l-0.7,5h11.3l4.3,29h22.4l5-5
		H139.9z M87.2,232.4L112.9,108l-4.1,3.9L83.1,237.4h21l5-5H87.2z M120.6,181.9l7-45h0.5l6.8,45H120.6z M164.8,112.2H158l25.3,125.5
		h22.2l0.9-5H189L164.8,112.2z M228.6,172l-3.2,16.5l9.9,49.1h21.9l1.1-5h-17.6L228.6,172z M213.6,112.2H210l-8.6,52.9l1.8,11.8
		L213.6,112.2z M265.4,112.2h-3.8l-8.4,52.9l1.8,11.8L265.4,112.2z M270,103.6l-14.7,92.8h-0.5l-14.5-92.8h-22l-14.9,92.8H203
		l-14.5-92.8h-22L191.7,229h22l14.9-74l14.9,74h22l25.3-125.5H270z M324.9,177.6l0.2,1.3h6.3l-3.2-21.5L324.9,177.6z M340.3,232.4
		l-4.1-29H320l-0.7,5h11.3l4.3,29h22.4l5-5H340.3z M287.6,232.4L313.2,108l-4.1,3.9l-25.6,125.5h21l5-5H287.6z M320.9,181.9l7-45
		h0.5l6.8,45H320.9z M343.3,229h22.4l-25.8-125.5h-22.4L291.7,229h21.1l4.3-29.2h21.7L343.3,229z M432.9,232.6l-21.3-50.5
		c-0.5,0-1.1,0-1.6,0v16.1l16.8,39.4H450l-2.2-5H432.9z M421.1,124.9H410v5.2h2.7c9,0,11.1,7.9,11.1,17.9c0,3,0,5.6-0.4,7.5
		c4.3-1.3,5.4-5,5.4-16C428.8,126.9,425,124.9,421.1,124.9z M381,112.2h-5v125.5h22.4v-5.2H381V112.2z M406.8,159.5v-37.8h14.3
		c8.8,0,11.1,7.7,11.1,17.7c0,18.5-4.1,20.1-18.5,20.1H406.8z M435.1,229h23.3l-23.7-53.6c10.8-5.4,18.8-17.4,18.8-36
		c0-20.1-10.2-35.8-31.7-35.8h-37.5V229h22.4v-50.5c0.9,0,3.8,0.2,7,0.2L435.1,229z M510.4,124.9h-10v5.2h1.8
		c9,0,11.1,7.7,11.1,17.9v53.6c0,2.1-0.2,4.1-0.4,6.1c3-1.1,5.4-4.3,5.4-14.3v-53.8C518.2,126.9,514.7,124.9,510.4,124.9z
		 M497.1,232.4h-25.8V112.2h-5v125.5h40.3c6.6,0,12.7-2.5,17.4-6.6c-2.9,0.9-5.9,1.4-9,1.4H497.1z M521.6,193.2
		c0,10-2.2,17.7-11.3,17.7h-13.3v-89.2h13.3c9.1,0,11.3,7.7,11.3,17.7V193.2z M541.2,124.5c-2.9-12.2-13.4-21-26.2-21h-40.3V229H515
		c19.4,0,27.8-16.7,27.8-35.8v-53.8C542.8,134.4,542.3,129.2,541.2,124.5z M143,229h22.4l-25.8-125.5h-22.4L91.3,229h21.1l4.3-29.2
		h21.7L143,229z"/>
	<path class="st1" d="M248.9,31.4l5.7,31.2c31.3-5.7,64-5.7,95.3,0l5.7-31.2l-15,14l-4.5-32.2l-17.6,26L302.3,2.9L286,39.1l-17.6-26
		L264,45.3L248.9,31.4z"/>
	<g>
		<polygon class="st1" points="314.1,371.5 320.1,390.7 340.2,390.8 323.8,402.4 329.9,421.5 313.8,409.6 297.5,421.3 303.9,402.3 
			287.7,390.4 307.8,390.6 		"/>
		<polygon class="st1" points="389.2,374.6 393.5,388.1 407.7,388.2 396.1,396.5 400.4,410 389,401.5 377.5,409.8 382,396.3 
			370.5,387.9 384.7,388.1 		"/>
		<polygon class="st1" points="242,373.5 246.3,387.1 260.5,387.1 248.9,395.4 253.2,408.9 241.8,400.5 230.3,408.8 234.8,395.3 
			223.3,386.9 237.5,387 		"/>
		<polygon class="st1" points="176.3,364 179.7,374.8 191.1,374.8 181.8,381.4 185.3,392.2 176.2,385.5 167,392.1 170.6,381.3 
			161.5,374.6 172.8,374.7 		"/>
		<polygon class="st1" points="457.1,366 460.5,376.8 471.9,376.8 462.6,383.4 466.1,394.2 457,387.5 447.8,394.1 451.4,383.3 
			442.2,376.6 453.6,376.7 		"/>
	</g>
	<circle class="st1" cx="312.2" cy="346.4" r="3.8"/>
</g>
</svg>
