<?xml version="1.0" encoding="utf-8"?>
<!-- Generator: Adobe Illustrator 22.1.0, SVG Export Plug-In . SVG Version: 6.00 Build 0)  -->
<svg version="1.1" id="Layer_1" xmlns="http://www.w3.org/2000/svg" xmlns:xlink="http://www.w3.org/1999/xlink" x="0px" y="0px"
	 viewBox="0 0 1058 589.5" style="enable-background:new 0 0 1058 589.5;" xml:space="preserve">
<style type="text/css">
	.st0{display:none;}
	.st1{fill:#FFFFFF;}
	.st2{fill:none;stroke:#FFFFFF;stroke-width:5;stroke-miterlimit:10;}
</style>
<g id="Grid" class="st0">
</g>
<g id="Layer_1_1_">
</g>
<g id="Desktop">
</g>
<g id="Guides">
</g>
<g id="Page_1">
	<g id="Layer_1_2_">
		<path class="st1" d="M163.3,166.4l-18.9,25.9c-9.5,13-6.5,36,6.4,45.4l34.9,25.3c6.1,4.3,6.5,8.6,3.7,13.1l5,3.7l17.7-24.5
			c10.9-15.1,9.9-35.8-6.2-47.6l-35.2-25.7c-4.3-3.1-4.6-7.4-2.4-12.1L163.3,166.4L163.3,166.4z M193.4,51.8l-29.3,40.6
			c-13.7,19.1-8.7,51.6,10,65.3l48.2,35.3c9.8,7.2,11.1,25.4,4,34.9l4.1,3.1l33.2-46.8c14.9-21,14-52-9.5-69.1l-51.6-37.4
			c-7.2-5.2-10.8-14.2-4.9-22.6L193.4,51.8L193.4,51.8z M116.2,306H155l6.9,23.5c21.1,0,42.4,0,63.5,0l6.9-23.5h38.9l-5-17.3
			c-48.3,0-96.6,0-144.9,0L116.2,306L116.2,306z M60,32h263.4c17,0,31,13.9,31,31v465.5c0,17-13.9,31-31,31H60c-17,0-31-13.9-31-31
			V63C29,45.9,42.9,32,60,32L60,32z M60,34h263.4c16,0,28.8,13,28.8,28.8v465.5c0,15.8-13,28.8-28.8,28.8H60
			c-15.8,0-28.8-13-28.8-28.8V63C31.1,47,44.1,34,60,34L60,34z M345.9,456v72.5c0,12.4-10.2,22.5-22.5,22.5H60
			c-12.4,0-22.5-10.2-22.5-22.5V456L345.9,456L345.9,456z M89.4,495.9l-11.5-28.8H72l-11.7,28.8h6.5l2.4-6.4h11.1l2.4,6.4H89.4
			L89.4,495.9z M78.2,484.1h-6.9l1.9-5.2c0.3-0.9,0.6-1.6,0.9-2.5c0.3-0.7,0.4-1.5,0.6-2.1c0.1,0.6,0.3,1.2,0.6,2.1
			c0.3,0.7,0.6,1.6,0.9,2.5L78.2,484.1L78.2,484.1z M115,471.8c-1.8-2.1-4.6-4-7.2-4.7c-1.2-0.3-2.5-0.4-3.8-0.4
			c-2.1,0-3.8,0.3-5.5,1c-1.6,0.7-3.1,1.8-4.3,3.1c-1.2,1.3-2.1,2.8-2.8,4.7c-0.7,1.8-1,3.8-1,6.1s0.3,4.3,0.9,6.2
			c0.6,1.8,1.5,3.4,2.7,4.7s2.5,2.2,4.1,3s3.4,1,5.5,1c3.7,0,10-2.1,11.8-5.6L111,487c-1.2,1.9-5,3.7-7.4,3.7
			c-1.2,0-2.1-0.3-3.1-0.7c-0.9-0.4-1.6-1.2-2.2-1.9c-0.6-0.7-1-1.8-1.5-3c-0.3-1.2-0.4-2.4-0.4-3.5c0-1.3,0.1-2.5,0.4-3.7
			s0.7-2.1,1.3-3c0.6-0.7,1.3-1.5,2.2-1.9c0.9-0.4,1.9-0.7,3.1-0.7c2.2,0,5.5,1.5,6.9,3.5L115,471.8L115,471.8z M172.6,495.9
			l-6.8-10.9c1.9-0.7,4.1-2.1,5-3.4c1-1.3,1.5-3.1,1.5-5.3c0-1.5-0.3-2.8-0.9-4c-0.6-1.2-1.3-2.1-2.2-2.8s-2.1-1.3-3.4-1.8
			c-1.3-0.4-2.7-0.6-4-0.6h-14.2v28.8h6.1v-10.3l5.5,0.3l6.4,10.2h7.1V495.9z M166.3,476.4c0,2.5-1.5,3.7-4.3,3.7h-8v-7.4h8
			c1.3,0,2.4,0.3,3.3,0.9C165.8,474.2,166.3,475,166.3,476.4L166.3,476.4z M198.2,495.9v-5.6h-15.7v-6.9h12.6v-5.6h-12.6v-5h15.1
			v-5.6h-21.1v28.8H198.2L198.2,495.9z M227.4,481.5c0-2.7-0.4-4.9-1.2-6.6s-1.8-3.3-3.1-4.4c-1.3-1.2-3-1.9-4.7-2.5
			c-1.8-0.4-3.8-0.7-6.1-0.7h-9.5V496h9c1.9,0,3.8-0.3,5.8-0.9c1.9-0.6,3.5-1.5,5-2.5c1.5-1.2,2.7-2.7,3.5-4.4
			C227,486.3,227.4,484.1,227.4,481.5L227.4,481.5z M221.1,481.5c0,1.3-0.1,2.5-0.6,3.5s-0.9,2.1-1.6,2.8c-0.7,0.7-1.8,1.3-3,1.8
			c-1.2,0.4-2.5,0.6-4.1,0.6h-3v-17.6h3.3c3.3,0,5.5,0.7,6.9,2.2C220.5,476.4,221.1,478.6,221.1,481.5L221.1,481.5z M239.4,495.9
			v-28.8h-6.1v28.8H239.4L239.4,495.9z M267.6,472.8v-5.8h-23.5v5.6h8.7v23.2h6.1v-23.2h8.7V472.8z M322.4,481.5
			c0-2.7-0.4-4.9-1.2-6.6s-1.8-3.3-3.1-4.4c-1.3-1.2-3-1.9-4.7-2.5c-1.8-0.4-3.8-0.7-6.1-0.7h-9.5V496h9c1.9,0,3.8-0.3,5.8-0.9
			c1.9-0.6,3.5-1.5,5-2.5c1.5-1.2,2.7-2.7,3.5-4.4C322,486.3,322.4,484.1,322.4,481.5L322.4,481.5z M316.2,481.5
			c0,1.3-0.1,2.5-0.6,3.5s-0.9,2.1-1.6,2.8c-0.7,0.7-1.8,1.3-3,1.8c-1.2,0.4-2.5,0.6-4.1,0.6h-3v-17.6h3.3c3.3,0,5.5,0.7,6.9,2.2
			C315.5,476.4,316.2,478.6,316.2,481.5L316.2,481.5z M293.3,495.9v-5.6h-15.7v-6.9h12.6v-5.6h-12.6v-5h15.1v-5.6h-21.1v28.8H293.3
			L293.3,495.9z M242.5,533.1v-5.6h-15.7v-6.9h12.6v-5.6h-12.6v-5h15.1v-5.6h-21.1v28.8H242.5L242.5,533.1z M143.1,471.8
			c-1.8-2.1-4.6-4-7.2-4.7c-1.2-0.3-2.5-0.4-3.8-0.4c-2.1,0-3.8,0.3-5.5,1c-1.6,0.7-3.1,1.8-4.3,3.1c-1.2,1.3-2.1,2.8-2.8,4.7
			c-0.7,1.8-1,3.8-1,6.1s0.3,4.3,0.9,6.2c0.6,1.8,1.5,3.4,2.7,4.7c1.2,1.3,2.5,2.2,4.1,3c1.6,0.7,3.4,1,5.5,1c3.7,0,10-2.1,11.8-5.6
			l-4.3-3.8c-1.2,1.9-5,3.7-7.4,3.7c-1.2,0-2.1-0.3-3.1-0.7c-0.9-0.4-1.6-1.2-2.2-1.9c-0.6-0.7-1-1.8-1.5-3
			c-0.3-1.2-0.4-2.4-0.4-3.5c0-1.3,0.1-2.5,0.4-3.7c0.3-1.2,0.7-2.1,1.3-3c0.6-0.7,1.3-1.5,2.2-1.9s1.9-0.7,3.1-0.7
			c2.2,0,5.5,1.5,6.9,3.5L143.1,471.8L143.1,471.8z M118.2,523.8c0-1.6-0.4-3-1.2-4c-0.7-1-1.8-1.8-3-2.4c1-0.6,1.8-1.3,2.4-2.4
			c0.6-1,0.9-2.1,0.9-3.3c0-2.5-0.9-4.4-2.5-5.6c-1.6-1.3-4-1.9-6.8-1.9H94.5v28.8h13.4c1.6,0,3-0.1,4.3-0.6c1.3-0.4,2.4-1,3.3-1.8
			c0.9-0.7,1.6-1.8,2.1-3C117.9,526.8,118.2,525.4,118.2,523.8L118.2,523.8z M111.1,512.4c0,0.7-0.3,1.5-0.7,1.9
			c-0.4,0.4-1.3,0.7-2.7,0.7h-7.7v-5.5h7.5c1.3,0,2.2,0.3,2.8,0.7S111.1,511.5,111.1,512.4L111.1,512.4z M112.2,523.9
			c0,1.2-0.3,2.1-1,2.8s-1.8,1-3.3,1h-7.8v-7.4h7.8C110.7,520.3,112.2,521.4,112.2,523.9L112.2,523.9z M146.2,520.4v-16.1h-5.9v16.3
			c0,2.4-0.6,4.1-1.6,5.5s-2.5,1.9-4.4,1.9s-3.4-0.7-4.4-2.1s-1.6-3.3-1.6-5.5v-16.1h-5.9v16.3c0,2.1,0.3,4,0.9,5.6s1.3,3,2.4,4.1
			c1,1.2,2.4,1.9,3.8,2.5s3.1,0.9,4.9,0.9c3.8,0,6.8-1.2,8.9-3.4C145.1,527.9,146.2,524.7,146.2,520.4L146.2,520.4z M173.3,524.4
			c0-1.6-0.3-2.8-0.9-3.8c-0.6-1-1.3-1.9-2.4-2.5c-0.9-0.6-2.1-1.2-3.1-1.5c-1.2-0.4-2.4-0.7-3.5-1c-1.2-0.3-2.2-0.6-3-0.7
			s-1.3-0.4-1.8-0.7c-0.4-0.3-0.7-0.6-0.9-0.9c-0.1-0.3-0.3-0.7-0.3-1.2c0-0.3,0-0.6,0.1-0.9c0.1-0.3,0.4-0.6,0.7-0.9
			c0.3-0.3,0.7-0.4,1.3-0.6c0.6-0.1,1.2-0.3,1.9-0.3c1.3,0,2.5,0.3,3.7,0.7c1,0.4,2.1,1.2,3.1,2.2l4.3-4c-1.5-1.5-3-2.5-4.7-3.4
			c-1.8-0.7-3.7-1.2-6.1-1.2c-1.5,0-2.8,0.1-4.1,0.6c-1.3,0.4-2.4,0.9-3.4,1.6c-0.9,0.7-1.8,1.6-2.2,2.7c-0.6,1-0.9,2.2-0.9,3.5
			c0,1.5,0.3,2.7,0.7,3.5c0.4,0.9,1,1.8,1.9,2.4c0.9,0.6,1.8,1.2,3,1.6c1.2,0.4,2.4,0.7,3.7,1c1.3,0.3,2.5,0.6,3.4,0.9
			c0.9,0.3,1.5,0.6,2.1,0.9c0.4,0.3,0.7,0.6,0.9,1c0.1,0.3,0.3,0.7,0.3,1.2c0,1-0.4,1.9-1.2,2.4c-0.9,0.4-2.1,0.7-3.8,0.7
			c-1.5,0-2.8-0.3-4.1-0.7c-1.3-0.4-2.5-1.3-3.5-2.5l-4.3,3.7c1.2,1.6,2.7,3,4.7,3.8c2.1,0.9,4.3,1.3,6.8,1.3c2.1,0,3.8-0.1,5.2-0.6
			c1.5-0.4,2.7-1,3.5-1.9c0.9-0.7,1.6-1.8,2.1-3C173.2,527,173.3,525.9,173.3,524.4L173.3,524.4z M184.1,533.1v-28.8h-5.9v28.8
			H184.1L184.1,533.1z M214.3,533.1v-28.8h-5.9v12.3c0,0.4,0,0.9,0,1.5s0,1.2,0,1.9c0,0.6,0,1.2,0,1.8s0,0.9,0,1.2
			c-0.1-0.4-0.4-0.9-0.9-1.5c-0.4-0.6-0.7-1.2-1.2-1.8l-10.5-15.2h-5.6v28.8h5.9v-12.7c0-0.4,0-0.9,0-1.5s0-1.2,0-1.8s0-1.2,0-1.8
			s0-0.9,0-1.2c0.1,0.4,0.4,0.9,0.9,1.5c0.4,0.6,0.7,1.2,1.2,1.8l10.9,15.8h5.2V533.1z M266.6,524.4c0-1.6-0.3-2.8-0.9-3.8
			c-0.6-1-1.3-1.9-2.4-2.5c-0.9-0.6-2.1-1.2-3.1-1.5c-1.2-0.4-2.4-0.7-3.5-1c-1.2-0.3-2.2-0.6-3-0.7s-1.3-0.4-1.8-0.7
			c-0.4-0.3-0.7-0.6-0.9-0.9c-0.1-0.3-0.3-0.7-0.3-1.2c0-0.3,0-0.6,0.1-0.9c0.1-0.3,0.4-0.6,0.7-0.9c0.3-0.3,0.7-0.4,1.3-0.6
			c0.6-0.1,1.2-0.3,1.9-0.3c1.3,0,2.5,0.3,3.7,0.7c1,0.4,2.1,1.2,3.1,2.2l4.3-4c-1.5-1.5-3-2.5-4.7-3.4c-1.8-0.7-3.7-1.2-6.1-1.2
			c-1.5,0-2.8,0.1-4.1,0.6c-1.3,0.4-2.4,0.9-3.4,1.6c-0.9,0.7-1.8,1.6-2.2,2.7c-0.6,1-0.9,2.2-0.9,3.5c0,1.5,0.3,2.7,0.7,3.5
			c0.4,0.9,1,1.8,1.9,2.4c0.9,0.6,1.8,1.2,3,1.6c1.2,0.4,2.4,0.7,3.7,1c1.3,0.3,2.5,0.6,3.4,0.9c0.9,0.3,1.5,0.6,2.1,0.9
			c0.4,0.3,0.7,0.6,0.9,1c0.1,0.3,0.3,0.7,0.3,1.2c0,1-0.4,1.9-1.2,2.4c-0.9,0.4-2.1,0.7-3.8,0.7c-1.5,0-2.8-0.3-4.1-0.7
			c-1.3-0.4-2.5-1.3-3.5-2.5l-4.3,3.7c1.2,1.6,2.7,3,4.7,3.8c2.1,0.9,4.3,1.3,6.8,1.3c2.1,0,3.8-0.1,5.2-0.6c1.5-0.4,2.7-1,3.5-1.9
			c0.9-0.7,1.6-1.8,2.1-3C266.4,527,266.6,525.9,266.6,524.4L266.6,524.4z M292.1,524.4c0-1.6-0.3-2.8-0.9-3.8
			c-0.6-1-1.3-1.9-2.4-2.5c-0.9-0.6-2.1-1.2-3.1-1.5c-1.2-0.4-2.4-0.7-3.5-1c-1.2-0.3-2.2-0.6-3-0.7s-1.3-0.4-1.8-0.7
			c-0.4-0.3-0.7-0.6-0.9-0.9c-0.1-0.3-0.3-0.7-0.3-1.2c0-0.3,0-0.6,0.1-0.9c0.1-0.3,0.4-0.6,0.7-0.9c0.3-0.3,0.7-0.4,1.3-0.6
			c0.6-0.1,1.2-0.3,1.9-0.3c1.3,0,2.5,0.3,3.7,0.7c1,0.4,2.1,1.2,3.1,2.2l4.3-4c-1.5-1.5-3-2.5-4.7-3.4c-1.8-0.7-3.7-1.2-6.1-1.2
			c-1.5,0-2.8,0.1-4.1,0.6c-1.3,0.4-2.4,0.9-3.4,1.6c-0.9,0.7-1.8,1.6-2.2,2.7c-0.6,1-0.9,2.2-0.9,3.5c0,1.5,0.3,2.7,0.7,3.5
			c0.4,0.9,1,1.8,1.9,2.4c0.9,0.6,1.8,1.2,3,1.6c1.2,0.4,2.4,0.7,3.7,1c1.3,0.3,2.5,0.6,3.4,0.9c0.9,0.3,1.5,0.6,2.1,0.9
			c0.4,0.3,0.7,0.6,0.9,1c0.1,0.3,0.3,0.7,0.3,1.2c0,1-0.4,1.9-1.2,2.4c-0.9,0.4-2.1,0.7-3.8,0.7c-1.5,0-2.8-0.3-4.1-0.7
			c-1.3-0.4-2.5-1.3-3.5-2.5l-4.3,3.7c1.2,1.6,2.7,3,4.7,3.8c2.1,0.9,4.3,1.3,6.8,1.3c2.1,0,3.8-0.1,5.2-0.6c1.5-0.4,2.7-1,3.5-1.9
			c0.9-0.7,1.6-1.8,2.1-3C291.8,527,292.1,525.9,292.1,524.4L292.1,524.4z M119.1,413.6H95.8v-19.5h23.3
			C136.3,394.1,135.2,413.6,119.1,413.6L119.1,413.6z M198.9,413.6h-23.3v-19.5h23.3C216,394.1,215,413.6,198.9,413.6L198.9,413.6z
			 M278.7,413.6h-23.3v-19.5h23.3C295.8,394.1,294.8,413.6,278.7,413.6L278.7,413.6z M117.5,378.9H95.8v-18.2h20.8
			C129.8,360.7,130.2,378.9,117.5,378.9L117.5,378.9z M197.3,378.9h-21.7v-18.2h20.8C209.5,360.7,210,378.9,197.3,378.9L197.3,378.9
			z M277.1,378.9h-21.7v-18.2h20.8C289.3,360.7,289.8,378.9,277.1,378.9L277.1,378.9z M149.6,402.8c-1.6-11.2-6.2-13.9-15.2-17.9
			c6.8-4,11.1-9.9,11.1-17.9c0-16.1-13.1-22.6-27.6-22.6H77.6v85.4h39.7C134.5,429.7,152.5,422.3,149.6,402.8L149.6,402.8z
			 M229.3,402.8c-1.6-11.2-6.2-13.9-15.2-17.9c6.8-4,11.1-9.9,11.1-17.9c0-16.1-13.1-22.6-27.6-22.6h-40.2v85.4h39.7
			C214.3,429.7,232.3,422.3,229.3,402.8L229.3,402.8z M309.1,402.8c-1.6-11.2-6.2-13.9-15.2-17.9c6.8-4,11.1-9.9,11.1-17.9
			c0-16.1-13.1-22.6-27.6-22.6h-40.2v85.4h39.7C294.1,429.7,312.1,422.3,309.1,402.8L309.1,402.8z M317,426.9c0-0.3,0-0.7-0.1-0.9
			c-0.1-0.3-0.3-0.6-0.4-0.7c-0.3-0.3-0.4-0.4-0.9-0.6c-0.3-0.1-0.9-0.4-1.3-0.6c-0.4-0.1-0.9-0.3-1.2-0.4c-0.3-0.1-0.6-0.3-0.7-0.4
			c-0.1-0.1-0.3-0.3-0.3-0.4c0-0.1-0.1-0.3-0.1-0.6c0-0.1,0-0.4,0.1-0.6c0-0.1,0.1-0.3,0.3-0.4c0.1-0.1,0.3-0.3,0.6-0.3
			c0.3-0.1,0.6-0.1,0.9-0.1c0.4,0,0.9,0.1,1.3,0.3c0.3,0.1,0.7,0.4,1,0.7l0.7-0.9c-0.4-0.3-0.9-0.6-1.3-0.7c-0.4-0.1-1-0.3-1.6-0.3
			c-0.4,0-0.9,0-1.3,0.1c-0.4,0.1-0.7,0.3-1,0.4c-0.3,0.1-0.4,0.4-0.6,0.7c-0.1,0.3-0.3,0.6-0.3,1c0,0.3,0,0.6,0.1,0.9
			c0.1,0.3,0.3,0.4,0.4,0.7c0.3,0.1,0.4,0.4,0.9,0.6c0.3,0.1,0.9,0.4,1.3,0.6c0.4,0.1,0.9,0.3,1.2,0.4c0.3,0.1,0.6,0.3,0.7,0.4
			c0.1,0.1,0.3,0.3,0.4,0.4c0.1,0.1,0.1,0.4,0.1,0.6c0,0.4-0.1,0.9-0.6,1.2c-0.4,0.3-0.9,0.4-1.6,0.4c-0.4,0-1-0.1-1.5-0.3
			c-0.4-0.1-0.9-0.4-1.2-0.9l-0.7,0.7c0.4,0.4,0.9,0.7,1.5,0.9c0.6,0.3,1.2,0.4,1.9,0.4c0.6,0,1,0,1.3-0.1c0.4-0.1,0.7-0.3,1-0.6
			c0.3-0.3,0.4-0.6,0.6-0.9C316.8,427.6,317,427.3,317,426.9L317,426.9z M327.1,429.5v-9.8H326l-2.4,5.8c0,0.1-0.1,0.3-0.1,0.4
			c0,0.1-0.1,0.3-0.1,0.6c0,0.1-0.1,0.3-0.1,0.4c0,0.1-0.1,0.3-0.1,0.4c0-0.1,0-0.3-0.1-0.4c0-0.1-0.1-0.3-0.1-0.4
			c0-0.1-0.1-0.3-0.1-0.6c0-0.1-0.1-0.3-0.1-0.4l-2.4-5.8h-1.2v9.6h1v-6.5v-1c0,0.1,0,0.1,0.1,0.3c0,0.1,0.1,0.3,0.1,0.4
			c0,0.1,0.1,0.3,0.1,0.4c0,0.1,0.1,0.3,0.1,0.4l2.7,6.2l2.7-6.2c0-0.1,0.1-0.3,0.1-0.4c0-0.1,0.1-0.3,0.1-0.4
			c0-0.1,0.1-0.3,0.1-0.4c0-0.1,0.1-0.3,0.1-0.3v1v6.5h0.7V429.5z"/>
	</g>
	<g>
		<path class="st1" d="M431.6,117.7H461c16.3,0,22.5,8.4,22.5,17.1c0,7.5-4,12.6-8.6,14.6c4.6,1.8,10.5,6.5,10.5,15.4
			c0,11.5-9,20.1-23.3,20.1h-30.3v-67.2H431.6z M459.4,144.1c6.9,0,9.8-3.1,9.8-7.8c0-4.9-3.7-7.5-9.3-7.5h-13.9V144h13.4V144.1z
			 M445.9,173.7h13.1c7.8,0,11.4-3.3,11.4-9.3c0-5.5-3.5-8.9-11.5-8.9h-13L445.9,173.7L445.9,173.7z"/>
		<path class="st1" d="M496.6,117.7H526c16.3,0,22.5,8.4,22.5,17.1c0,7.5-4,12.6-8.6,14.6c4.6,1.8,10.5,6.5,10.5,15.4
			c0,11.5-9,20.1-23.3,20.1h-30.3v-67.2H496.6z M524.4,144.1c6.9,0,9.8-3.1,9.8-7.8c0-4.9-3.7-7.5-9.3-7.5h-13.9V144h13.4V144.1z
			 M510.9,173.7h13.1c7.8,0,11.4-3.3,11.4-9.3c0-5.5-3.5-8.9-11.5-8.9h-13L510.9,173.7L510.9,173.7z"/>
		<path class="st1" d="M575.8,129.6h-20.4v-12h55.3v12h-20.4v55.3h-14.5V129.6z"/>
		<path class="st1" d="M657.5,158v26.9h-14.2v-67.2h29.5c14.6,0,22.6,8.1,22.6,18.5c0,9-4.9,13.9-9.8,16c3.4,1.2,8.4,4.7,8.4,16.7
			v3.3c0,4.6,0,9.6,1,12.9h-13.7c-1.2-3-1.5-8-1.5-15.1v-1c0-7.4-1.9-10.8-12.7-10.8H657.5z M657.5,146.5h12.1c8,0,11.1-3,11.1-8.7
			c0-5.5-3.5-8.6-10.6-8.6h-12.6V146.5z"/>
		<path class="st1" d="M722.1,169.4l-5.2,15.5h-14.3l22.9-67.2h18.3l23.8,67.2h-15.2l-5.5-15.5H722.1z M743.6,157.4
			c-4.7-14.2-7.8-23.2-9.5-29.3H734c-1.6,6.6-5,17.1-8.9,29.3H743.6z"/>
		<path class="st1" d="M782.5,129.6h-20.4v-12h55.3v12H797v55.3h-14.5L782.5,129.6L782.5,129.6z"/>
		<path class="st1" d="M841,117.7v67.2h-14.5v-67.2H841z"/>
		<path class="st1" d="M857.1,184.9v-67.2h18c8.4,15.1,23.9,42.3,27,49.6h0.1c-0.7-6.9-0.7-18.6-0.7-29.7v-19.9h13.1v67.2h-17.1
			c-7.2-13.1-24.4-44.5-27.8-52.2h-0.1c0.4,5.9,0.6,19.6,0.6,31.8v20.4H857.1z"/>
		<path class="st1" d="M989.2,184.9h-10.6c-0.6-2.1-0.9-4.4-1.2-6.6c-3.7,5-10.3,7.7-19.6,7.7c-19.5,0-30.4-14.8-30.4-33.8
			c0-20.2,11.8-35.5,32.9-35.5c17.3,0,27.5,9.8,29.1,21.3h-14.5c-1.3-4.4-4.9-9.9-14.8-9.9c-13.7,0-17.7,11.5-17.7,23.3
			c0,11.5,4.4,22.9,17.9,22.9c12.4,0,14.8-8.6,14.8-14.6V159h-14.8v-12h29V184.9z"/>
	</g>
	<g>
		<path class="st1" d="M620.9,411.4l-9.2,27.3h-25.1l40.2-118.2h32.1l41.8,118.2h-26.9l-9.8-27.3H620.9z M658.5,390.5
			c-8.4-25-13.7-40.9-16.5-51.4h-0.1c-3,11.7-8.9,30.1-15.5,51.4H658.5z"/>
		<path class="st1" d="M759,347.5v40.3h38.7v10.3H759v40.6h-10.9v-40.6h-38.7v-10.3h38.7v-40.3H759z"/>
	</g>
	<circle class="st2" cx="686.7" cy="391.9" r="140.5"/>
	<path class="st2" d="M1035.3,582.3H20.3c-9.8,0-17.7-8-17.7-17.7V31.2c0-9.8,8-17.7,17.7-17.7h1015c9.8,0,17.7,8,17.7,17.7v533.3
		C1053,574.3,1045,582.3,1035.3,582.3z"/>
</g>
</svg>
