<?xml version="1.0" encoding="utf-8"?>
<!-- Generator: Adobe Illustrator 22.1.0, SVG Export Plug-In . SVG Version: 6.00 Build 0)  -->
<svg version="1.1" id="Layer_1" xmlns="http://www.w3.org/2000/svg" xmlns:xlink="http://www.w3.org/1999/xlink" x="0px" y="0px"
	 viewBox="0 0 460 456.6" style="enable-background:new 0 0 460 456.6;" xml:space="preserve">
<style type="text/css">
	.st0{fill:#FFFFFF;}
	.st1{fill:none;stroke:#FFFFFF;stroke-width:9.2023;stroke-miterlimit:10;}
	.st2{fill:none;stroke:#FFFFFF;stroke-width:2.3006;stroke-miterlimit:10;}
</style>
<g>
	<g>
		<path class="st0" d="M118.7,223.4c0,1.8-0.6,3.4-1.7,4.7c-1.1,1.3-2.6,2.2-4.6,2.6c-1.5,0.4-3,0.6-4.4,0.6
			c-1.4,0.1-5.4,0.1-12.1,0.1c-0.9,0-1.5,0-1.7,0s-0.3-0.1-0.3-0.3c0-0.3,0.5-0.4,1.4-0.4s1.5-0.1,1.8-0.4c0.2-0.3,0.3-1,0.3-2v-25
			c0-0.8-0.7-1.3-2-1.3c-1,0-1.5-0.2-1.5-0.4c0-0.2,0.3-0.4,1-0.4c0.6,0,1.2,0,1.8,0h10.5c6.7,0,10.1,2.3,10.1,6.9
			c0,3.8-2.5,6.2-7.5,7.1l-0.1,0.2c2.9,0.6,5,1.4,6.1,2.3C117.8,219.2,118.7,221.1,118.7,223.4z M111.7,223.2c0-4.1-1.2-6.5-3.5-7.2
			c-0.9-0.3-2.2-0.4-4-0.4v2.5c0,0.7,0,1.8-0.1,3.1c0,0.7,0,1.9,0,3.8c0,3.1,0.1,4.8,0.3,5c0.2,0.3,0.9,0.5,2,0.5
			C109.9,230.6,111.7,228.1,111.7,223.2z M110.9,208.3c0-4.2-1.3-6.3-3.9-6.3c-0.9,0-1.5,0-1.8,0.1c-0.6,0.2-0.9,0.7-0.9,1.4V215
			c2.5,0,4.3-0.4,5.2-1.4C110.4,212.7,110.9,210.9,110.9,208.3z"/>
		<path class="st0" d="M143.3,226c0,0.6-0.4,1.5-1.1,2.5c-1.6,2.2-3.8,3.4-6.4,3.4c-2.9,0-5.4-0.9-7.3-2.8c-1.9-1.9-2.8-4.3-2.8-7.2
			c0-2.9,0.9-5.2,2.8-7.1c1.8-1.9,4.1-2.9,6.9-2.9c1.9,0,3.5,0.4,4.8,1.2c1.5,0.9,2.4,2.2,2.8,3.9c0.1,0.5,0.2,1.2,0.3,1.9
			c-0.7,0.1-3.4,0.1-8.1,0.2c-0.7,0-1.6,0-2.8,0.1c-0.1,1-0.1,1.9-0.1,2.7c0,3.4,0.7,5.8,2.1,7.2c0.8,0.8,1.9,1.3,3.1,1.3
			c1,0,2-0.4,3-1c0.9-0.7,1.7-1.6,2.2-2.7C142.9,226.1,143.1,225.9,143.3,226C143.3,225.7,143.3,225.8,143.3,226z M137.8,218.3
			c0-2.2-0.1-3.8-0.5-4.6c-0.3-0.9-1-1.3-1.8-1.3c-1.8,0-2.8,2-3.1,5.9c0.6,0,1.9,0,3.8,0C136.9,218.3,137.4,218.3,137.8,218.3z"/>
		<path class="st0" d="M163,225.3c0,2-0.6,3.5-1.8,4.7c-1.2,1.2-2.7,1.8-4.6,1.8c-0.9,0-2-0.2-3.3-0.7c-1-0.4-1.7-0.6-2-0.6
			c-0.6,0-0.9,0.2-1.1,0.6s-0.3,0.6-0.4,0.6c-0.2,0-0.3-0.1-0.3-0.3c0-0.2,0-0.5,0.1-0.8c0.1-0.6,0.1-1.5,0.1-2.9c0-0.1,0-0.2,0-0.4
			c0-0.2,0-0.6,0-1v-0.7c0-0.3,0.1-0.5,0.2-0.5c0.2,0,0.3,0.2,0.4,0.7c0.3,1.5,1,2.8,2.2,3.9c1.2,1,2.6,1.6,4.1,1.6
			c1,0,1.7-0.3,2.3-0.9c0.6-0.6,0.9-1.4,0.9-2.3c0-0.8-0.3-1.4-0.8-1.9c-0.4-0.4-1.5-0.9-3.3-1.4c-2.2-0.7-3.8-1.6-4.7-2.6
			c-1-1-1.5-2.4-1.5-4c0-1.7,0.6-3.2,1.7-4.4c1.2-1.2,2.6-1.8,4.3-1.8c0.6,0,1.7,0.2,3.3,0.6c0.2,0.1,0.4,0.1,0.5,0.1
			c0.6,0,1.1-0.4,1.4-1.2c0.1-0.1,0.1-0.2,0.2-0.2c0.2,0,0.3,0.2,0.3,0.5v0.8c0,0.1,0,0.3,0,0.6c0,1.2,0.1,2.4,0.2,3.7v0.2
			c0,0.2-0.1,0.4-0.3,0.4c-0.1,0-0.3-0.1-0.4-0.4c-0.8-3-2.6-4.5-5.2-4.5c-1,0-1.8,0.3-2.4,0.8s-0.9,1.2-0.9,2s0.3,1.4,0.8,1.8
			s1.5,0.9,3.1,1.5c2.7,0.9,4.4,1.9,5.4,2.8C162.5,222.3,163,223.6,163,225.3z"/>
		<path class="st0" d="M182.9,228.5c0,0.3-0.3,0.7-0.8,1.3c-1.4,1.4-3.4,2.1-5.9,2.1c-2.3,0-3.8-0.6-4.6-1.7
			c-0.3-0.4-0.5-0.8-0.5-1.2c0-0.4-0.1-1.4-0.1-2.9V224c0.1-0.6,0.1-1.1,0.1-1.7l-0.1-0.9v-3.9v-3.1c0-0.5-0.1-0.8-0.2-0.9
			s-0.6-0.1-1.3-0.1c-0.9,0-1.3-0.1-1.3-0.4c0-0.2,0.2-0.3,0.5-0.3c2.7-0.1,5.1-1.6,7.1-4.5c0.3-0.4,0.5-0.6,0.6-0.6
			c0.2,0,0.3,0.2,0.3,0.6c0,2.5,0.1,3.9,0.3,4.1c0.2,0.2,0.9,0.4,2.1,0.4s2.1-0.1,2.6-0.2c0.1,0,0.1,0,0.2,0s0.2,0.1,0.2,0.3
			c0,0.4-0.2,0.6-0.6,0.6c-1.2,0-2.5,0-3.9,0c-0.1,0-0.3,0-0.6,0v0.9c0,7.8,0.1,12.3,0.2,13.7c0.3,1.7,1.1,2.5,2.5,2.5
			c0.6,0,1.4-0.4,2.4-1.3c0.5-0.4,0.8-0.6,0.9-0.6C182.9,228.3,182.9,228.4,182.9,228.5z"/>
		<path class="st0" d="M217.7,222c0,3.1-1.2,5.6-3.7,7.6c-1.9,1.5-4,2.3-6.3,2.3c-2.7,0-5.1-1-7.1-2.9c-2-2-3-4.3-3-7
			c0-2.8,1-5.2,3-7.1c2-2,4.4-2.9,7.2-2.9c2.7,0,5,1,7,3C216.8,216.8,217.7,219.2,217.7,222z M211.1,222.1c0-3.6-0.2-6.1-0.7-7.4
			c-0.6-1.5-1.4-2.2-2.6-2.2c-1.1,0-2,0.8-2.6,2.3c-0.6,1.6-1,3.7-1,6.4c0,3.8,0.4,6.5,1.1,8.1c0.6,1.3,1.5,1.9,2.6,1.9
			c1.4,0,2.3-0.8,2.7-2.4C210.9,227.3,211.1,225,211.1,222.1z"/>
		<path class="st0" d="M240.7,204.7c0,0.8-0.2,1.4-0.7,1.9s-1.1,0.7-1.9,0.7c-0.8,0-1.4-0.2-1.9-0.7s-0.7-1-0.7-1.7
			c0-0.6,0.3-1.3,0.9-2.3c0.1-0.1,0.2-0.4,0.2-0.6c0-0.7-0.4-1-1.3-1c-0.7,0-1.3,0.4-1.7,1.1c-0.4,0.6-0.7,1.3-0.9,2.1
			c-0.2,0.8-0.3,2.2-0.3,4.2v4h3.1c0.3,0,0.5,0.1,0.5,0.3c0,0.1-0.1,0.2-0.3,0.3c-0.3,0.1-0.8,0.1-1.7,0.1c-0.2,0-0.8,0-1.7,0v15.4
			c0,1,0,1.5,0.1,1.7c0.1,0.3,0.6,0.5,1.4,0.4h1.3c0.4,0,0.6,0.1,0.6,0.4c0,0.2-0.2,0.3-0.6,0.3c-0.2,0-0.4,0-0.7,0
			c-0.9-0.1-2-0.1-3.3-0.1c-0.6,0-1.8,0-3.6,0.1c-1.8,0.1-2.8,0.1-3,0.1h-0.6c-0.3,0-0.5-0.1-0.5-0.3c0-0.2,0.5-0.4,1.5-0.4
			c0.8,0,1.2-0.1,1.4-0.3c0.1-0.2,0.2-0.7,0.2-1.7v-15.5h-2.3c-0.4,0-0.7-0.1-0.7-0.4c0-0.2,0.1-0.3,0.3-0.3c0.2,0,0.9,0,2.1,0h0.6
			v-0.9c0-1.7,0.3-3.5,0.9-5.1c0.6-1.7,1.4-2.9,2.4-3.8c1.4-1.3,3.2-2,5.3-2c1.7,0,3,0.4,4,1.2C240.2,202.5,240.7,203.5,240.7,204.7
			z"/>
	</g>
	<g>
		<path class="st0" d="M151,113.5c0,0.1-0.1,0.2-0.2,0.2s-0.2,0-0.2-0.1s-0.1-0.4-0.3-0.9c-0.4-1.5-1.1-2.5-2.1-3
			c-0.6-0.3-1.7-0.4-3.4-0.4c-0.7,0-1.6,0-2.5,0.1v8.4h0.8c1.7,0,2.8-0.2,3.3-0.6c0.4-0.4,0.8-1.4,1-3.1c0-0.2,0.1-0.4,0.3-0.4
			s0.2,0.1,0.2,0.4c0-0.1,0,0,0,0.4c0,0.3,0,0.9,0,1.7v1.8c0,1.3,0,2.1,0,2.6c0,0.4,0,0.8,0,1.1s-0.1,0.4-0.3,0.4
			c-0.2,0-0.4-0.3-0.4-0.9c-0.1-1.3-0.4-2.2-1-2.6c-0.3-0.2-0.8-0.3-1.5-0.3c-0.9,0-1.7,0-2.4,0v6.7c0,1.2,0.1,1.9,0.3,2.1
			c0.2,0.2,0.8,0.3,1.9,0.3c0.3,0,0.5,0.1,0.5,0.2c0,0.2-0.2,0.2-0.5,0.2c-0.4,0-0.9,0-1.5,0c-1.1,0-2.4-0.1-3.9-0.1
			c-1,0-1.9,0-2.7,0.1c-0.1,0-0.2,0-0.4,0c-0.2,0-0.3-0.1-0.3-0.2c0-0.2,0.3-0.2,0.9-0.3c0.9,0,1.3-0.2,1.4-0.6
			c0.1-0.1,0.1-0.4,0.1-0.8v-16c0-0.3-0.1-0.4-0.3-0.5c-0.2-0.1-0.5-0.2-1.1-0.2c-0.5,0-0.8-0.1-0.8-0.2c0-0.2,0.2-0.3,0.6-0.3h0.5
			c0.1,0,0.8,0,2.1,0c1.5,0,2.8-0.1,3.9-0.1c1.7,0,3.1,0,4.3,0l1.9,0.1c0.3,0,0.7,0,1.3-0.1c0.1,2.2,0.3,3.7,0.4,4.5
			C151,113.2,151,113.3,151,113.5z"/>
		<path class="st0" d="M165.3,121.9c0,2-0.8,3.6-2.3,4.8c-1.2,1-2.5,1.4-4,1.4c-1.7,0-3.2-0.6-4.5-1.9s-1.9-2.7-1.9-4.4
			c0-1.8,0.6-3.3,1.9-4.5s2.8-1.9,4.6-1.9c1.7,0,3.2,0.6,4.4,1.9C164.7,118.6,165.3,120.2,165.3,121.9z M161.1,122
			c0-2.3-0.2-3.8-0.5-4.7s-0.9-1.4-1.7-1.4c-0.7,0-1.3,0.5-1.7,1.5c-0.4,1-0.6,2.3-0.6,4.1c0,2.4,0.2,4.1,0.7,5.1
			c0.4,0.8,0.9,1.2,1.6,1.2c0.9,0,1.4-0.5,1.7-1.5C161,125.2,161.1,123.8,161.1,122z"/>
		<path class="st0" d="M177.9,118.3c0,0.4-0.1,0.8-0.4,1.1s-0.6,0.4-1,0.4c-1,0-1.5-0.4-1.5-1.3c0-0.2,0.1-0.5,0.2-0.8
			s0.2-0.5,0.2-0.6c0-0.4-0.1-0.6-0.4-0.9c-0.3-0.2-0.6-0.4-1-0.4c-1.7,0-2.5,1.9-2.5,5.6c0,2.1,0.4,3.7,1.1,4.6
			c0.6,0.7,1.3,1,2.1,1c0.9,0,1.7-0.6,2.6-1.7c0.1-0.1,0.2-0.2,0.3-0.2c0.1,0,0.1,0.1,0.1,0.2c0,0.4-0.3,0.8-1,1.5
			c-1,0.9-2.1,1.4-3.5,1.4c-1.7,0-3.1-0.6-4.2-1.8c-1.2-1.2-1.8-2.6-1.8-4.3c0-1.8,0.6-3.4,1.8-4.7c1.2-1.3,2.8-1.9,4.6-1.9
			c1.2,0,2.1,0.3,2.9,0.8C177.5,116.9,177.9,117.5,177.9,118.3z"/>
		<path class="st0" d="M194.1,126.9c0,0.1-0.2,0.2-0.5,0.2c-1.7,0.1-2.8,0.1-3.5,0.3c-0.6,0.1-1.2,0.3-1.7,0.6
			c-0.1,0.1-0.2,0.1-0.3,0.1c-0.1,0-0.1-0.1-0.1-0.2c0-0.3,0-0.5,0-0.6c0-0.2,0-0.3,0-0.6c0-0.2,0-0.3,0-0.4
			c-1.2,1.2-2.4,1.8-3.8,1.8c-1.2,0-2.2-0.4-2.8-1.2c-0.4-0.5-0.7-1.4-0.7-2.7v-2c0-0.2,0-0.8,0-1.6c0-0.9,0-2.1,0-3.6
			c0-0.4-0.1-0.7-0.2-0.7c-0.1-0.1-0.4-0.1-1-0.2c-0.5,0-0.7-0.1-0.7-0.2c0-0.1,0.1-0.2,0.4-0.2h0.3c0.3,0,0.7,0,1.3,0
			c0.6,0,0.9,0,1.1,0c0,0,0.2,0,0.6,0c0.3,0,0.8,0,1.5,0h0.5v3c0,1.4,0,2.5-0.1,3.1c0,0.7-0.1,1-0.1,0.9c0,1.9,0.1,3.2,0.4,3.6
			c0.2,0.5,0.6,0.7,1.2,0.7s1.2-0.3,1.7-1c0.2-0.2,0.3-0.4,0.3-0.6s0-0.7,0-1.6V119c0-1.3,0-2.2-0.1-2.4c0-0.4-0.3-0.5-0.7-0.5h-0.8
			c-0.3,0-0.4-0.1-0.4-0.2c0-0.1,0.5-0.2,1.5-0.2c0.9,0,2.2,0,4.1,0c0,0.7,0,1.8,0,3.4v5.6c0,0.9,0,1.4,0.1,1.5
			c0,0.2,0.2,0.3,0.4,0.3c0.2,0,0.7,0.1,1.5,0.1C194,126.7,194.1,126.7,194.1,126.9z"/>
		<path class="st0" d="M204,124c0,1.2-0.4,2.2-1.1,3c-0.8,0.8-1.7,1.1-2.9,1.1c-0.6,0-1.3-0.1-2.1-0.4c-0.7-0.2-1.1-0.4-1.3-0.4
			c-0.3,0-0.6,0.1-0.7,0.4s-0.2,0.4-0.2,0.4c-0.1,0-0.2-0.1-0.2-0.2s0-0.3,0-0.5c0-0.4,0.1-1,0.1-1.8c0,0,0-0.1,0-0.3
			c0-0.1,0-0.4,0-0.6v-0.5c0-0.2,0-0.3,0.1-0.3s0.2,0.1,0.2,0.4c0.2,1,0.6,1.8,1.4,2.4c0.8,0.7,1.6,1,2.6,1c0.6,0,1.1-0.2,1.5-0.6
			s0.6-0.9,0.6-1.5c0-0.5-0.2-0.9-0.5-1.2c-0.3-0.2-0.9-0.5-2.1-0.9c-1.4-0.5-2.4-1-3-1.7s-0.9-1.5-0.9-2.5c0-1.1,0.4-2,1.1-2.8
			s1.6-1.1,2.7-1.1c0.4,0,1.1,0.1,2.1,0.4c0.1,0,0.3,0.1,0.3,0.1c0.4,0,0.7-0.2,0.9-0.7c0-0.1,0.1-0.1,0.1-0.1
			c0.1,0,0.2,0.1,0.2,0.3v0.5c0,0.1,0,0.2,0,0.4c0,0.8,0,1.5,0.1,2.3v0.1c0,0.1-0.1,0.2-0.2,0.2s-0.2-0.1-0.2-0.2
			c-0.5-1.9-1.6-2.8-3.3-2.8c-0.6,0-1.1,0.2-1.5,0.5s-0.6,0.8-0.6,1.3s0.2,0.9,0.5,1.1c0.3,0.3,1,0.6,1.9,0.9
			c1.7,0.6,2.8,1.2,3.4,1.8C203.7,122.1,204,122.9,204,124z"/>
		<path class="st0" d="M228.8,118.3c0,2.8-0.9,5.1-2.6,7c-1.7,1.9-3.8,2.9-6.3,2.9c-2.4,0-4.5-1-6.3-2.9c-1.7-1.9-2.6-4.3-2.6-7
			c0-2.8,0.9-5.1,2.6-7s3.9-2.8,6.5-2.8c2.5,0,4.6,0.9,6.2,2.8C228,113.1,228.8,115.5,228.8,118.3z M224,118.7
			c0-3.7-0.4-6.4-1.3-8.1c-0.6-1.1-1.5-1.7-2.7-1.7c-1.3,0-2.3,0.8-3,2.4c-0.7,1.6-1.1,3.7-1.1,6.4c0,3.9,0.7,6.8,2,8.7
			c0.6,0.8,1.4,1.2,2.4,1.2c1.2,0,2.1-0.6,2.6-1.7C223.6,124.1,224,121.7,224,118.7z"/>
		<path class="st0" d="M245.5,127.6c0,0.1-0.2,0.2-0.7,0.2c0,0-0.3,0-0.7,0s-1.1,0-1.9,0h-0.9h-2.4c-0.3,0-0.4-0.1-0.4-0.2
			s0.1-0.2,0.3-0.2h0.2c0.5,0,0.7-0.1,0.8-0.2s0.1-0.5,0.1-1.2v-5.4c0-2-0.1-3.2-0.4-3.6c-0.2-0.3-0.6-0.5-1.2-0.5
			c-0.6,0-1,0.2-1.4,0.5s-0.5,0.8-0.5,1.3v8.3c0,0.2,0.1,0.4,0.2,0.4c0.1,0.1,0.4,0.1,0.9,0.1c0.1,0,0.2,0.1,0.2,0.2
			s-0.1,0.2-0.2,0.2s-0.6,0-1.4,0c-0.8,0-1.4,0-2,0c-1,0-2,0.1-3.1,0.1c-0.2,0-0.3-0.1-0.3-0.2s0.3-0.2,0.8-0.2c0.6,0,0.9-0.1,1-0.3
			l0.1-0.4v-6.3c0-1.8,0-2.7-0.1-2.8c-0.1-0.3-0.3-0.4-0.7-0.4c-0.2,0-0.5,0-0.6,0h-0.3c-0.3,0-0.4-0.1-0.4-0.2
			c0-0.1,0.1-0.2,0.3-0.2c2.1-0.1,3.7-0.5,4.9-1.3c0.1-0.1,0.2-0.1,0.3-0.1s0.2,0.1,0.2,0.4c0,0.8,0,1.3,0,1.6
			c1-1.3,2.2-1.9,3.8-1.9s2.6,0.6,3.1,1.7c0.2,0.5,0.3,1,0.4,1.5c0,0.6,0.1,1.8,0.1,3.5v4c0,0.6,0,0.9,0.1,1s0.4,0.2,0.9,0.2
			C245.3,127.4,245.5,127.5,245.5,127.6z"/>
		<path class="st0" d="M270.2,127.5c0,0.1-0.1,0.2-0.2,0.3c-0.1,0-0.5,0-1.1,0c-0.1,0-0.6,0-1.2,0c-1.4,0-2.3-0.1-2.8-0.1
			c-0.6,0-1.1,0-1.6,0c-0.9,0-1.5,0.1-1.9,0.1c-0.5,0-0.7-0.1-0.7-0.3c0-0.2,0.5-0.3,1.6-0.3c0.3,0,0.5,0,0.6-0.1
			c0.3,0,0.4-0.1,0.4-0.3c0-0.1-0.1-0.5-0.3-1.2l-0.6-1.8c-0.1-0.4-0.3-1.1-0.7-2.2h-0.5H259c-0.8,0-1.6,0-2.5,0
			c-0.2,0.4-0.5,1.2-0.9,2.5l-0.6,1.8c-0.1,0.3-0.1,0.5-0.1,0.7c0,0.3,0.2,0.5,0.6,0.6c0.1,0,0.5,0.1,1.4,0.1c0.3,0,0.4,0.1,0.4,0.2
			c0,0.2-0.2,0.2-0.5,0.2h-4.6c-0.1,0-0.2,0-0.4,0c-0.3,0-0.4-0.1-0.4-0.3c0-0.1,0.3-0.2,0.9-0.2c0.7,0,1.2-0.2,1.4-0.4
			c0.2-0.2,0.5-1,1-2.3c0.4-0.9,0.9-2.3,1.5-4.1l3.3-9.2c0.2-0.4,0.4-1,0.7-1.9c0.2-0.6,0.4-0.9,0.5-0.9s0.3,0.4,0.6,1.3
			c0.4,1.1,2,5.4,4.9,12.9c0.4,1,0.7,1.9,1.1,2.9c0.3,0.8,0.6,1.4,0.9,1.5c0.2,0.1,0.8,0.2,1.7,0.2
			C270.1,127.3,270.2,127.3,270.2,127.5z M261.4,121c0-0.1-0.1-0.2-0.2-0.5c-0.7-2.1-1.3-3.6-1.6-4.5c-0.1-0.2-0.2-0.6-0.4-1.1
			l-0.2-0.5c-0.3,0.8-0.7,1.9-1.2,3.3c-0.5,1.6-0.9,2.7-1.2,3.3c0.2,0,0.4,0,0.6,0c0.2,0,0.4,0,0.6,0h1.5
			C259.9,121,260.5,121,261.4,121z"/>
		<path class="st0" d="M285.9,117.3c0,1-0.5,1.5-1.4,1.5s-1.3-0.4-1.3-1.2c0-0.1,0-0.3,0.1-0.4c0.1-0.2,0.1-0.3,0.1-0.4
			c0-0.3-0.2-0.5-0.5-0.5c-0.2,0-0.4,0.1-0.6,0.3c-0.2,0.2-0.3,0.4-0.3,0.6c0,0.1,0.1,0.3,0.2,0.6c0.4,0.7,0.5,1.3,0.5,1.9
			c0,1.4-0.6,2.5-1.9,3.5c-1,0.7-2.2,1-3.6,1c-0.6,0-1.3-0.1-2-0.4c-0.2-0.1-0.4-0.1-0.5-0.1c-0.3,0-0.6,0.1-0.9,0.3
			c-0.2,0.2-0.4,0.5-0.4,0.8c0,0.7,0.5,1,1.6,1c0.8,0,2-0.1,3.5-0.3c0.4-0.1,0.8-0.1,1.1-0.1c1.2,0,2.2,0.3,2.9,0.9s1,1.5,1,2.6
			c0,1.8-0.7,3.2-2.1,4.3c-1.4,1.1-3.3,1.6-5.6,1.6c-1.7,0-3-0.3-3.9-0.9c-1-0.6-1.5-1.4-1.5-2.4c0-1.5,1.1-2.5,3.4-2.8
			c-1.3-0.5-2-1.3-2-2.4c0-1.5,0.9-2.5,2.6-3c-1.7-0.9-2.5-2.1-2.5-3.6c0-1.2,0.5-2.3,1.6-3.1s2.4-1.3,3.9-1.3
			c1.8,0,3.2,0.5,4.2,1.5c0.7-0.9,1.5-1.4,2.5-1.4C285.2,115.6,285.9,116.2,285.9,117.3z M282,130.7c0-1.4-0.8-2-2.4-2
			c-0.8,0-1.8,0.1-3,0.3c-0.9,0.1-1.6,0.2-2,0.2h-0.4c-0.5,0.6-0.8,1.4-0.8,2.3c0,2,1.3,2.9,3.8,2.9c1.4,0,2.5-0.4,3.4-1.1
			C281.6,132.6,282,131.7,282,130.7z M279.3,120c0-2.8-0.7-4.2-2-4.2s-2,1.3-2,3.8c0,1.5,0.2,2.6,0.5,3.3s0.9,1,1.7,1
			c0.7,0,1.2-0.3,1.5-0.8C279.2,122.5,279.3,121.5,279.3,120z"/>
		<path class="st0" d="M293.3,127.6c0,0.1-0.1,0.2-0.2,0.2h-3.7h-2.6c-0.1,0-0.2,0-0.4,0c-0.1,0-0.2,0-0.2,0c-0.2,0-0.3-0.1-0.3-0.2
			s0.2-0.1,0.6-0.2c0.6,0,1-0.1,1.1-0.2s0.2-0.5,0.2-1.1v-8c0-0.7-0.1-1.1-0.2-1.3c-0.1-0.1-0.5-0.2-1.1-0.2c-0.4,0-0.6,0-0.7,0
			c-0.1,0-0.1-0.1-0.1-0.2c0-0.1,0.1-0.2,0.4-0.2c2,0,3.8-0.3,5.2-0.9c0,0.2,0.1,0.8,0.1,1.8v3.5v5.2c0,0.8,0.1,1.2,0.2,1.3
			c0.1,0.1,0.6,0.2,1.4,0.2C293.2,127.4,293.3,127.5,293.3,127.6z M291.4,110.1c0,0.5-0.2,1-0.5,1.3c-0.4,0.4-0.8,0.6-1.3,0.6
			s-1-0.2-1.3-0.5c-0.4-0.4-0.5-0.8-0.5-1.3s0.2-0.9,0.5-1.3c0.4-0.3,0.8-0.5,1.4-0.5c0.5,0,0.9,0.2,1.3,0.5
			C291.2,109.2,291.4,109.6,291.4,110.1z"/>
		<path class="st0" d="M309.2,127.6c0,0.1-0.2,0.2-0.7,0.2c0,0-0.3,0-0.7,0s-1.1,0-1.9,0H305h-2.4c-0.3,0-0.4-0.1-0.4-0.2
			s0.1-0.2,0.3-0.2h0.2c0.5,0,0.7-0.1,0.8-0.2s0.1-0.5,0.1-1.2v-5.4c0-2-0.1-3.2-0.4-3.6c-0.2-0.3-0.6-0.5-1.2-0.5s-1,0.2-1.4,0.5
			s-0.5,0.8-0.5,1.3v8.3c0,0.2,0.1,0.4,0.2,0.4c0.1,0.1,0.4,0.1,0.9,0.1c0.1,0,0.2,0.1,0.2,0.2s-0.1,0.2-0.2,0.2c-0.1,0-0.6,0-1.4,0
			c-0.8,0-1.4,0-2,0c-1,0-2,0.1-3.1,0.1c-0.2,0-0.3-0.1-0.3-0.2s0.3-0.2,0.8-0.2c0.6,0,0.9-0.1,1-0.3l0.1-0.4v-6.3
			c0-1.8,0-2.7-0.1-2.8c-0.1-0.3-0.3-0.4-0.7-0.4c-0.2,0-0.5,0-0.6,0h-0.3c-0.3,0-0.4-0.1-0.4-0.2c0-0.1,0.1-0.2,0.3-0.2
			c2.1-0.1,3.7-0.5,4.9-1.3c0.1-0.1,0.2-0.1,0.3-0.1s0.2,0.1,0.2,0.4c0,0.8,0,1.3,0,1.6c1-1.3,2.2-1.9,3.8-1.9s2.6,0.6,3.1,1.7
			c0.2,0.5,0.3,1,0.4,1.5c0,0.6,0.1,1.8,0.1,3.5v4c0,0.6,0,0.9,0.1,1s0.4,0.2,0.9,0.2C308.9,127.4,309.2,127.5,309.2,127.6z"/>
		<path class="st0" d="M325,117.3c0,1-0.5,1.5-1.4,1.5s-1.3-0.4-1.3-1.2c0-0.1,0-0.3,0.1-0.4c0.1-0.2,0.1-0.3,0.1-0.4
			c0-0.3-0.2-0.5-0.5-0.5c-0.2,0-0.4,0.1-0.6,0.3c-0.2,0.2-0.3,0.4-0.3,0.6c0,0.1,0.1,0.3,0.2,0.6c0.4,0.7,0.5,1.3,0.5,1.9
			c0,1.4-0.6,2.5-1.9,3.5c-1,0.7-2.2,1-3.6,1c-0.6,0-1.3-0.1-2-0.4c-0.2-0.1-0.4-0.1-0.5-0.1c-0.3,0-0.6,0.1-0.9,0.3
			c-0.2,0.2-0.4,0.5-0.4,0.8c0,0.7,0.5,1,1.6,1c0.8,0,2-0.1,3.5-0.3c0.4-0.1,0.8-0.1,1.1-0.1c1.2,0,2.2,0.3,2.9,0.9s1,1.5,1,2.6
			c0,1.8-0.7,3.2-2.1,4.3c-1.4,1.1-3.3,1.6-5.6,1.6c-1.7,0-3-0.3-3.9-0.9c-1-0.6-1.5-1.4-1.5-2.4c0-1.5,1.1-2.5,3.4-2.8
			c-1.3-0.5-2-1.3-2-2.4c0-1.5,0.9-2.5,2.6-3c-1.7-0.9-2.5-2.1-2.5-3.6c0-1.2,0.5-2.3,1.6-3.1s2.4-1.3,3.9-1.3
			c1.8,0,3.2,0.5,4.2,1.5c0.7-0.9,1.5-1.4,2.5-1.4C324.4,115.6,325,116.2,325,117.3z M321.2,130.7c0-1.4-0.8-2-2.4-2
			c-0.8,0-1.8,0.1-3,0.3c-0.9,0.1-1.6,0.2-2,0.2h-0.4c-0.5,0.6-0.8,1.4-0.8,2.3c0,2,1.3,2.9,3.8,2.9c1.4,0,2.5-0.4,3.4-1.1
			C320.7,132.6,321.2,131.7,321.2,130.7z M318.5,120c0-2.8-0.7-4.2-2-4.2s-2,1.3-2,3.8c0,1.5,0.2,2.6,0.5,3.3s0.9,1,1.7,1
			c0.7,0,1.2-0.3,1.5-0.8C318.4,122.5,318.5,121.5,318.5,120z"/>
	</g>
	<g>
		<path class="st0" d="M128.8,316.5c0-4,0.6-7.7,1.9-11c1.2-3.4,2.8-6.4,4.6-9.1s4.2-5.9,7.2-9.5c3-3.8,5.4-7,7.2-9.6
			s3.3-5.7,4.6-9.1c1.2-3.4,1.9-7.1,1.9-11.1c0-2.4-0.3-4.2-1-5.5s-1.9-2-3.6-2c-2.9,0-4.4,2.6-4.4,7.8V268h-18.4l-0.2-5.4
			c0-6.6,0.7-12,2-16.3s3.7-7.5,7.1-9.7s8-3.3,14-3.3c7.3,0,12.9,2,16.9,6.1s6,9.9,6,17.4c0,4.8-0.7,9.1-2,13s-2.9,7.3-4.9,10.2
			c-1.9,2.9-4.5,6.3-7.6,10.2c-2.3,2.8-4.2,5.2-5.7,7.4c-1.5,2.2-2.9,4.4-4.1,6.7H174v16.4h-45.2V316.5z"/>
		<path class="st0" d="M191.9,315.2c-4-4.2-6-10.1-6-17.8v-39.3c0-8.2,1.9-14.5,5.8-18.8c3.8-4.3,9.6-6.5,17.2-6.5
			c7.7,0,13.5,2.2,17.3,6.5s5.8,10.6,5.8,18.8v39.3c0,7.8-2,13.7-6,17.8c-4,4.1-9.7,6.2-17.1,6.2
			C201.5,321.4,195.8,319.4,191.9,315.2z M212,303.7c0.8-1.2,1.2-2.6,1.2-4.2v-42.9c0-2.5-0.3-4.4-0.9-5.7c-0.6-1.3-1.7-2-3.5-2
			s-2.9,0.7-3.4,2s-0.8,3.2-0.8,5.7v42.9c0,1.6,0.4,3,1.2,4.2c0.8,1.2,1.8,1.8,3.1,1.8C210.1,305.5,211.2,304.9,212,303.7z"/>
		<path class="st0" d="M253.9,253.6c-1.1,1.4-2.7,2.6-4.8,3.4c-2.1,0.9-4,1.3-5.9,1.3v-13.9c3-0.5,5.9-1.7,8.9-3.5
			c2.9-1.9,5-4.4,6.3-7.4h14v87.1H254L253.9,253.6L253.9,253.6z"/>
		<path class="st0" d="M286.6,316.5c0-4,0.6-7.7,1.9-11c1.2-3.4,2.8-6.4,4.6-9.1s4.2-5.9,7.2-9.5c3-3.8,5.5-7,7.2-9.6
			s3.3-5.7,4.6-9.1c1.2-3.4,1.9-7.1,1.9-11.1c0-2.4-0.3-4.2-1-5.5s-1.9-2-3.6-2c-2.9,0-4.4,2.6-4.4,7.8V268h-18.3l-0.2-5.4
			c0-6.6,0.7-12,2-16.3s3.7-7.5,7.1-9.7c3.4-2.2,8-3.3,14-3.3c7.3,0,12.9,2,16.9,6.1s6,9.9,6,17.4c0,4.8-0.7,9.1-2,13
			s-2.9,7.3-4.9,10.2c-1.9,2.9-4.5,6.3-7.6,10.2c-2.3,2.8-4.2,5.2-5.7,7.4c-1.5,2.2-2.9,4.4-4.1,6.7h23.6v16.4h-45.1v-4.2H286.6z"/>
	</g>
	<g>
		<path class="st0" d="M176,318.2c0.6,0,0.8,0.1,0.8,0.4c0,0.2-0.3,0.4-0.8,0.7c-0.5,0.2-1.1,0.7-1.9,1.3c-0.7,0.6-1.5,1.4-2.4,2.5
			c-0.9,1-1.9,2.3-3,3.9l-3.8,5.6c-8.2,12.8-17.3,19.2-27.4,19.2c-2.3,0-4.2-0.5-5.9-1.5c-1.7-1-2.5-2.2-2.5-3.5
			c0-1.5,0.7-2.4,2.1-2.7c0.4-0.1,0.8-0.2,1.1-0.2c0.4,0,0.8,0.1,1.1,0.4c0.4,0.2,0.6,0.6,0.6,1.2c0,0.5-0.2,1-0.6,1.3
			s-0.9,0.5-1.6,0.5c-0.6,0-1.1-0.1-1.5-0.3v0.2c0,1.7,1.4,2.9,4.3,3.5c0.9,0.2,2,0.3,3.3,0.3s2.6-0.3,4.1-0.8
			c1.4-0.5,2.9-1.4,4.5-2.5c3.2-2.4,6.9-6.4,11-12c1.6-2,2.8-3.5,3.7-4.5c2.3-2.6,3.7-4.3,4.5-5.1c-6.7,4.8-12.1,7.2-16.2,7.2
			c-1.7,0-2.9-0.2-3.5-0.7c-1.1-0.8-1.6-1.9-1.6-3.4c0-0.4,0.1-1,0.2-1.8c-0.9,0.1-1.9,0.1-3.1,0.1c-2.5,0-4.8-0.6-6.8-1.7
			c-0.6-0.3-0.9-0.6-0.9-0.8c0-0.2,0.1-0.3,0.2-0.3c0.2,0,0.4,0.1,0.9,0.3c0.4,0.2,0.9,0.5,1.5,0.7s1.2,0.4,1.8,0.6
			c1.1,0.3,2.3,0.5,3.6,0.5c1.2,0,2.2,0,3-0.1c0.9-3.6,3.2-7.5,7-11.5c3.6-3.8,7.7-7,12.5-9.6c4.8-2.7,9.1-4,12.7-4
			c1.5,0,2.6,0.2,3.3,0.7c0.6,0.5,1,1.3,1,2.5s-0.5,2.6-1.6,4.1c-1.1,1.6-2.5,3.2-4.5,4.8c-4,3.4-9.2,6.7-15.7,9.6
			c-3.7,1.6-7.3,2.8-11,3.5c-0.7,1.4-1.1,2.5-1.1,3c0,0.6,0,1,0.1,1.2s0.2,0.4,0.5,0.6c0.5,0.4,1.2,0.6,2.2,0.6s2.2-0.2,3.4-0.6
			c1.3-0.4,2.7-1,4.4-1.9c3.4-1.8,7.6-4.6,12.6-8.5C173.3,319.3,175.1,318.2,176,318.2z M180.5,304.2c0-1.3-0.9-1.9-2.7-1.9
			c-4,0-9.3,2.8-15.8,8.5c-4.1,3.6-7.7,7.5-10.7,11.6c-0.9,1.3-1.7,2.4-2.3,3.6c3.2-0.8,6.6-2.1,10.1-3.9s6.6-3.6,9.1-5.4
			s4.7-3.4,6.5-5.1C178.6,308.2,180.5,305.7,180.5,304.2z"/>
		<path class="st0" d="M170.3,349.6c0,0.8,0.6,1.1,1.7,1.1s2.3-0.3,3.6-0.9c1.3-0.6,2.5-1.3,3.8-2.2c1.2-0.9,2.4-1.9,3.6-3
			s2.2-2.1,3.2-3.1l2.4-2.6c0.6-0.7,1.1-1.2,1.3-1.5l0.7,0.6c-0.3,0.3-0.7,0.8-1.4,1.5c-0.7,0.8-1.5,1.6-2.5,2.6s-2.1,2.1-3.3,3.2
			c-1.2,1.1-2.5,2.1-3.8,3.1c-3.1,2.1-5.8,3.2-8.1,3.2c-1,0-1.8-0.3-2.4-0.8s-1-1.1-1-1.7s0-1.1,0.1-1.5s0.2-0.8,0.4-1.3
			c0.2-0.5,0.5-1,0.8-1.7c0.3-0.6,0.8-1.4,1.4-2.3l5.3-7.9l26.9-38.5c1.7,0.2,3.3,0.2,4.8,0c-22.1,30.8-33.6,46.8-34.4,47.9
			c-0.8,1.2-1.4,2.1-1.7,2.6c-0.4,0.6-0.6,1.1-0.8,1.4C170.4,348.7,170.3,349.2,170.3,349.6z"/>
		<path class="st0" d="M203,348.6c-1.5,0.9-3.1,1.7-4.8,2.3c-1.7,0.6-3.3,0.9-4.9,0.9c-1.5,0-2.7-0.2-3.5-0.5s-1.5-0.8-2-1.3
			c-2.2-2.4-2.2-5.9,0-10.5c1-2,2.4-3.9,4.3-5.6s3.6-2.9,5.1-3.8c2.8-1.6,5.5-2.4,8-2.4s3.7,0.8,3.9,2.3c0.2,2.5-2.9,5.2-9.1,8.1
			c-2.3,1.1-5.1,2.2-8.6,3.3c-1.4,2.2-2.1,4-2.1,5.4s0.4,2.4,1.1,3s1.8,0.9,3.2,0.9c1.4,0,2.9-0.3,4.6-0.9c1.6-0.6,3.2-1.4,4.6-2.3
			s2.7-1.9,3.9-3c1.2-1.1,2.2-2.1,3.1-3.1s1.6-1.9,2.2-2.6s1-1.2,1.2-1.4l0.7,0.6c-0.3,0.3-0.8,0.8-1.4,1.6
			c-0.6,0.8-1.4,1.7-2.3,2.7s-2,2.1-3.2,3.2C205.8,346.7,204.5,347.7,203,348.6z M192.3,340.3c7-2.5,11.5-4.9,13.5-7.3
			c0.7-0.8,1-1.6,1-2.4c0-1.3-0.6-2-1.8-2c-2.1,0-4.8,1.9-8,5.6C194.8,336.8,193.2,338.9,192.3,340.3z"/>
		<path class="st0" d="M214.3,351c-0.6-0.1-1.3-0.2-2.1-0.2c-1.2,0-2.3,0.1-3.2,0.3l12.1-17.3c1.5-2.1,2.3-3.4,2.3-3.8
			c0.1-0.8-0.2-1.1-0.7-1.1c-0.9,0-3,2.1-6.4,6.4l-2.2,2.7c-0.2,0.1-0.4,0-0.6-0.2s-0.2-0.3-0.2-0.4c0.7-0.7,1.4-1.6,2.3-2.7
			c0.8-1.1,1.7-2.2,2.7-3.2c2.3-2.5,4.2-3.8,5.7-3.8c2.6,0,3.4,1.3,2.4,3.9c-0.2,0.6-0.6,1.3-1.2,2.2l-7.3,10.2l0.2,0.4
			c5.9-6.4,10-10.6,12.5-12.7c2.3-2,4.1-3.1,5.2-3.4s2.1-0.5,2.8-0.5s1.4,0.1,1.9,0.3c0.5,0.2,0.9,0.5,1.3,0.8
			c0.6,0.6,0.9,1.3,0.9,2.2c0,0.8-0.2,1.7-0.5,2.6s-0.8,1.9-1.6,3.1c-1.6,2.5-4.2,5.7-7.9,9.7c-1.5,1.6-2.3,2.5-2.4,2.8
			s-0.1,0.5-0.1,0.6c0,0.5,0.7,0.8,2.1,0.8s2.8-0.3,4-0.9s2.5-1.3,3.7-2.2c1.2-0.9,2.3-1.9,3.4-3c1.1-1.1,2-2.1,2.9-3.1
			s1.6-1.8,2.2-2.6c0.6-0.7,1-1.2,1.2-1.4l0.7,0.6c-0.2,0.3-0.7,0.8-1.3,1.5c-0.6,0.8-1.4,1.6-2.2,2.6c-0.9,1-1.9,2.1-3,3.2
			s-2.3,2.1-3.6,3.1c-2.9,2.1-5.6,3.2-7.9,3.2c-2.1,0-3.5-0.5-4.4-1.6c-0.3-0.3-0.4-0.7-0.4-1.2s0.1-0.9,0.2-1.5s0.4-1.3,0.9-2.2
			c1.1-1.9,2.6-3.9,4.6-6.2c2-2.3,3.3-3.8,4-4.6c0.6-0.8,1.1-1.5,1.5-2.1c0.7-1.1,1-2,1-2.6c0-0.8-0.6-1.3-1.7-1.3
			c-2.3,0-6.1,2.6-11.4,7.8c-2.7,2.6-5.7,6-9.2,10.3L214.3,351z"/>
		<path class="st0" d="M258,328c1.1,0.1,2.1,0.2,3.1,0.2s1.7,0,2.4-0.1c-2.1,1.9-3.6,3.4-4.6,4.5l-4.7,5.2c-0.4,0.4-0.9,0.9-1.5,1.5
			l-3.9,4.2c-2.5,2.7-3.7,4.5-3.7,5.5c0,0.9,0.2,1.5,0.5,1.6c0.3,0.2,1,0.2,1.9,0.2s2.1-0.3,3.6-0.8s2.9-1.3,4.5-2.1
			c2.7-1.6,5.2-3.4,7.4-5.3s3.6-3.4,4.4-4.3c0.8-1,1.3-1.9,1.7-2.8c0.7-1.5,1-3.3,1-5.5c0-0.9,0.3-1.6,0.8-2.1s1.2-0.8,2-0.8
			c1.3,0,2,0.6,2,1.9c0,2.6-2.3,6.2-6.9,10.7l-0.9,0.9c-1.4,2-1.8,3.3-1.1,4.1c0.3,0.3,0.7,0.4,1.4,0.4s1.6-0.3,2.6-0.9
			s2-1.3,2.9-2.1c1-0.8,1.9-1.6,2.7-2.5l1.9-2l0.7,0.6c-4.8,5.1-8.5,7.7-11.2,7.7c-1.1,0-1.9-0.3-2.1-1c-0.3-0.7-0.2-1.6,0.3-2.7
			c-5,4.2-9.7,7.1-14.1,8.7c-1.6,0.6-3.1,0.9-4.4,0.9c-1.3,0-2.3-0.3-3-0.8c-0.6-0.5-1-1.2-1-1.9s0.1-1.4,0.2-2.1
			c0.2-0.6,0.5-1.4,1-2.2c0.9-1.6,2.3-3.6,4.2-6s3.6-4.4,5.1-5.9L258,328z"/>
		<path class="st0" d="M273.3,349.6c0,0.7,0.7,1.1,2.1,1.1c1.4,0,2.7-0.3,3.9-0.9s2.4-1.4,3.7-2.4c1.2-0.9,2.4-2,3.6-3.1l3.1-3.1
			c0.9-1,1.7-1.8,2.3-2.5s1-1.1,1.1-1.2l0.7,0.6c-0.2,0.2-0.7,0.7-1.3,1.5s-1.4,1.6-2.4,2.6s-2,2.1-3.2,3.2s-2.4,2.1-3.7,3.1
			c-3,2.2-5.6,3.2-7.9,3.2c-1.4,0-2.6-0.3-3.4-0.8c-0.9-0.5-1.3-1.1-1.3-1.8c0-0.7,0.1-1.3,0.2-1.8s0.4-1.2,0.8-1.9
			c0.4-0.7,0.9-1.6,1.6-2.6c0.7-1,1.5-2.2,2.6-3.6s2.3-3,3.8-4.8l5.4-6.3c0.3,0.1,0.8,0.1,1.7,0.1h1.6c0.6,0,1.1,0,1.5-0.1
			c-7.7,9.2-12,14.4-13,15.7s-1.7,2.3-2.1,3C273.7,347.9,273.3,348.9,273.3,349.6z M295.4,320.2c-0.3,0.3-0.7,0.5-1.1,0.7
			c-0.4,0.2-0.9,0.3-1.4,0.3s-1-0.2-1.4-0.6s-0.6-0.9-0.6-1.4s0.1-1,0.3-1.4s0.4-0.7,0.8-1c0.7-0.7,1.4-1,2.2-1s1.4,0.2,1.8,0.6
			c0.4,0.4,0.6,0.9,0.6,1.4s-0.1,1-0.3,1.4S295.8,319.9,295.4,320.2z"/>
		<path class="st0" d="M306.2,348.6c-1.5,0.9-3.1,1.7-4.8,2.3c-1.7,0.6-3.3,0.9-4.9,0.9s-2.7-0.2-3.5-0.5s-1.5-0.8-2-1.3
			c-2.2-2.4-2.2-5.9,0-10.5c1-2,2.4-3.9,4.3-5.6c1.9-1.7,3.6-2.9,5.1-3.8c2.8-1.6,5.5-2.4,8-2.4s3.7,0.8,3.9,2.3
			c0.2,2.5-2.9,5.2-9.1,8.1c-2.3,1.1-5.1,2.2-8.6,3.3c-1.4,2.2-2.1,4-2.1,5.4s0.4,2.4,1.1,3c0.7,0.6,1.8,0.9,3.2,0.9
			s2.9-0.3,4.6-0.9c1.6-0.6,3.2-1.4,4.6-2.3c1.4-0.9,2.7-1.9,3.9-3s2.2-2.1,3.1-3.1c0.9-1,1.6-1.9,2.2-2.6c0.6-0.7,1-1.2,1.2-1.4
			l0.7,0.6c-0.3,0.3-0.8,0.8-1.4,1.6s-1.4,1.7-2.3,2.7c-0.9,1-2,2.1-3.2,3.2C309.1,346.7,307.7,347.7,306.2,348.6z M295.6,340.3
			c7-2.5,11.5-4.9,13.5-7.3c0.7-0.8,1-1.6,1-2.4c0-1.3-0.6-2-1.8-2c-2.1,0-4.8,1.9-8,5.6C298.1,336.8,296.5,338.9,295.6,340.3z"/>
		<path class="st0" d="M317.9,341.6c-4.2,4.5-6.3,7.4-6.3,8.4c0,0.5,0.3,0.7,0.8,0.7s1.1-0.1,1.8-0.3c0.7-0.2,1.4-0.5,2.3-0.9
			c1.8-0.9,3.8-2.1,5.9-3.7c3.7-2.7,6.8-5.5,9.1-8.2l0.9-1.1l0,0c2.2-2.6,5-5.5,8.2-8.6c1.1,0.1,2,0.2,2.6,0.2c1.3,0,2.2,0,2.7-0.1
			l-12.4,13.2l-3.7,4.1c-1.9,2.3-2.8,3.7-2.8,4.5c0,0.5,0.3,0.8,1,0.8s1.7-0.3,3-0.8s2.8-1.2,4.3-2.1c4.6-2.6,8.7-6.1,12.3-10.4
			c1.5-1.8,2.3-3.2,2.6-4.3c0.2-1.1,0.3-2.1,0.3-3.1c0-0.9,0.2-1.7,0.7-2.4c0.4-0.7,1-1,1.8-1c1.5,0,2.3,0.8,2.3,2.3
			c0,2.5-2.3,6.1-6.9,10.7c-0.4,0.4-0.8,0.8-1.3,1.3l-1.5,1.3c-0.7,1.9-0.3,2.8,1.4,2.8c2.3,0,5.7-2.5,9.9-7.4l0.8,0.6l-2.2,2.3
			c-3.5,3.6-6.5,5.4-8.8,5.4c-0.9,0-1.6-0.2-2-0.7s-0.5-1.1-0.3-1.9c-4.7,3.7-9.2,6.3-13.3,7.8c-1.4,0.5-2.5,0.8-3.5,0.8
			c-1.5,0-2.2-0.8-2.2-2.3c0-1.8,0.8-4,2.4-6.6l-2.2,1.9c-5.6,4.6-10,7-13.2,7c-1.5,0-2.3-0.7-2.3-2.2c0-3.4,2.9-8.4,8.8-15
			c1.9-2.1,4-4.3,6.4-6.5c0.9,0.1,1.6,0.2,2.2,0.2h1.2c0.9,0,1.6,0,1.9-0.1l-8.8,9.3L317.9,341.6z"/>
	</g>
	<polygon class="st1" points="26.1,209.4 89,83.7 229.3,17.7 363.9,69.1 432.5,226.3 367.3,384.3 229.3,438.7 81.3,375.1 	"/>
	<polygon class="st2" points="19.9,141.2 138,17.7 304.4,9.3 437.1,135.8 445.5,320.6 315.9,443.3 141.1,443.3 26.1,328.3 
		13.8,230.5 	"/>
	<line class="st2" x1="130.2" y1="141.2" x2="334.8" y2="141.2"/>
	<g>
		<path class="st0" d="M134.6,166.5v-12.8h-1.9v-3h6.9v3h-1.8v12.8H134.6z"/>
		<path class="st0" d="M141.1,166.5v-15.8h3.1v5.7h1.5v-5.7h3.1v15.8h-3.1v-7.2h-1.5v7.2H141.1z"/>
		<path class="st0" d="M150.8,150.7h4.9c0.8,0,1.4,0.2,1.8,0.5s0.7,0.8,0.9,1.5c0.1,0.6,0.2,1.4,0.2,2.4c0,0.9-0.1,1.6-0.3,2.1
			c-0.2,0.5-0.6,0.9-1.2,1c0.5,0.1,0.8,0.3,1,0.7c0.2,0.4,0.3,0.9,0.3,1.5v6h-3.1v-6.2c0-0.4-0.1-0.7-0.3-0.8
			c-0.2-0.1-0.5-0.2-0.9-0.2v7.2h-3.3V150.7z M154.8,156.5c0.4,0,0.7-0.5,0.7-1.4c0-0.4,0-0.7-0.1-0.9c0-0.2-0.1-0.4-0.2-0.4
			c-0.1-0.1-0.2-0.1-0.4-0.1h-0.7v2.9h0.7V156.5z"/>
		<path class="st0" d="M160.1,166.5v-15.8h6.3v3.1h-3.1v3.1h3v3h-3v3.6h3.3v3.1h-6.5V166.5z"/>
		<path class="st0" d="M168.2,166.5v-15.8h6.3v3.1h-3.1v3.1h3v3h-3v3.6h3.3v3.1h-6.5V166.5z"/>
		<path class="st0" d="M176.2,161.9v-2.1h4.6v2.1H176.2z"/>
		<path class="st0" d="M183.9,166.5v-12.8H182v-3h6.9v3H187v12.8H183.9z"/>
		<path class="st0" d="M190.3,166.5v-15.8h3.1v15.8H190.3z"/>
		<path class="st0" d="M195.1,166.5v-15.8h4.8l1.3,9.6l1.3-9.6h4.9v15.8h-2.9v-11.4l-1.8,11.4h-2.8l-1.9-11.4v11.4H195.1z"/>
		<path class="st0" d="M209.4,166.5v-15.8h6.3v3.1h-3.1v3.1h3v3h-3v3.6h3.3v3.1h-6.5V166.5z"/>
		<path class="st0" d="M221.9,166.5l1.5-15.8h5.4l1.5,15.8h-3l-0.2-2.6h-1.9l-0.2,2.6H221.9z M225.4,161.4h1.4l-0.7-8H226
			L225.4,161.4z"/>
		<path class="st0" d="M232.8,166.5l-1.7-15.8h3.1l0.9,10l0.9-10h2.9l0.8,10l0.8-10h3.1l-1.7,15.8h-3.8l-0.8-7.6l-0.8,7.6H232.8z"/>
		<path class="st0" d="M244.4,166.5l1.5-15.8h5.4l1.5,15.8h-3l-0.2-2.6h-1.9l-0.2,2.6H244.4z M247.9,161.4h1.4l-0.7-8h-0.1
			L247.9,161.4z"/>
		<path class="st0" d="M254.2,150.7h4.9c0.8,0,1.4,0.2,1.8,0.5c0.4,0.3,0.7,0.8,0.9,1.5c0.1,0.6,0.2,1.4,0.2,2.4
			c0,0.9-0.1,1.6-0.4,2.1c-0.2,0.5-0.6,0.9-1.2,1c0.5,0.1,0.8,0.3,1,0.7c0.2,0.4,0.3,0.9,0.3,1.5v6h-3.1v-6.2c0-0.4-0.1-0.7-0.3-0.8
			c-0.2-0.1-0.5-0.2-0.9-0.2v7.2h-3.2V150.7z M258.2,156.5c0.4,0,0.7-0.5,0.7-1.4c0-0.4,0-0.7-0.1-0.9c0-0.2-0.1-0.4-0.2-0.4
			c-0.1-0.1-0.2-0.1-0.4-0.1h-0.7v2.9h0.7V156.5z"/>
		<path class="st0" d="M263.6,150.7h4.4c1.1,0,2,0.3,2.5,0.9c0.6,0.6,0.9,1.6,0.9,2.8v7.4c0,1.6-0.3,2.7-0.8,3.5
			c-0.6,0.8-1.5,1.2-2.7,1.2h-4.3L263.6,150.7L263.6,150.7z M267.3,163.7c0.6,0,0.9-0.3,0.9-0.8v-8.2c0-0.4,0-0.6-0.1-0.8
			c-0.1-0.2-0.2-0.3-0.3-0.4s-0.4-0.1-0.7-0.1h-0.4v10.3H267.3z"/>
		<path class="st0" d="M279.2,166.5l-1.7-15.8h3.1l0.9,10l0.9-10h2.9l0.8,10l0.8-10h3.1l-1.7,15.8h-3.8l-0.8-7.6l-0.8,7.6H279.2z"/>
		<path class="st0" d="M291.5,166.5v-15.8h3.1v15.8H291.5z"/>
		<path class="st0" d="M296.4,166.5v-15.8h3.3l1.5,7.6v-7.6h3.1v15.8h-3.1l-1.6-7.9v7.9H296.4z"/>
		<path class="st0" d="M306.1,166.5v-15.8h3.3l1.5,7.6v-7.6h3.1v15.8h-3.1l-1.6-7.9v7.9H306.1z"/>
		<path class="st0" d="M315.8,166.5v-15.8h6.3v3.1H319v3.1h3v3h-3v3.6h3.3v3.1h-6.5V166.5z"/>
		<path class="st0" d="M323.9,150.7h4.9c0.8,0,1.4,0.2,1.8,0.5c0.4,0.3,0.7,0.8,0.9,1.5c0.1,0.6,0.2,1.4,0.2,2.4
			c0,0.9-0.1,1.6-0.3,2.1s-0.6,0.9-1.2,1c0.5,0.1,0.8,0.3,1,0.7c0.2,0.4,0.3,0.9,0.3,1.5v6h-3.1v-6.2c0-0.4-0.1-0.7-0.3-0.8
			c-0.2-0.1-0.5-0.2-0.9-0.2v7.2H324v-15.7H323.9z M327.8,156.5c0.4,0,0.7-0.5,0.7-1.4c0-0.4,0-0.7-0.1-0.9c0-0.2-0.1-0.4-0.2-0.4
			c-0.1-0.1-0.2-0.1-0.4-0.1h-0.7v2.9h0.7V156.5z"/>
		<path class="st0" d="M173.1,187.8c0-0.7,0.1-1.4,0.3-2c0.2-0.6,0.5-1.2,0.8-1.7s0.8-1.1,1.3-1.7c0.6-0.7,1-1.3,1.3-1.7
			c0.3-0.5,0.6-1,0.8-1.6c0.2-0.6,0.3-1.3,0.3-2c0-0.4-0.1-0.8-0.2-1s-0.3-0.4-0.7-0.4c-0.5,0-0.8,0.5-0.8,1.4v1.9h-3.3v-1
			c0-1.2,0.1-2.2,0.4-3c0.2-0.8,0.7-1.4,1.3-1.8c0.6-0.4,1.5-0.6,2.5-0.6c1.3,0,2.3,0.4,3.1,1.1c0.7,0.7,1.1,1.8,1.1,3.2
			c0,0.9-0.1,1.7-0.4,2.4c-0.2,0.7-0.5,1.3-0.9,1.8c-0.3,0.5-0.8,1.1-1.4,1.9c-0.4,0.5-0.8,1-1,1.3c-0.3,0.4-0.5,0.8-0.7,1.2h4.3v3
			H173v-0.7H173.1z"/>
		<path class="st0" d="M183.6,187.6c-0.7-0.8-1.1-1.8-1.1-3.2v-7.1c0-1.5,0.3-2.6,1-3.4s1.7-1.2,3.1-1.2s2.4,0.4,3.1,1.2
			c0.7,0.8,1,1.9,1,3.4v7.1c0,1.4-0.4,2.5-1.1,3.2s-1.8,1.1-3.1,1.1C185.4,188.7,184.3,188.4,183.6,187.6z M187.3,185.5
			c0.1-0.2,0.2-0.5,0.2-0.8v-7.8c0-0.5-0.1-0.8-0.2-1s-0.3-0.4-0.6-0.4s-0.5,0.1-0.6,0.4c-0.1,0.2-0.1,0.6-0.1,1v7.8
			c0,0.3,0.1,0.5,0.2,0.8c0.1,0.2,0.3,0.3,0.6,0.3C186.9,185.8,187.1,185.7,187.3,185.5z"/>
		<path class="st0" d="M194,176.4c-0.2,0.3-0.5,0.5-0.9,0.6c-0.4,0.2-0.7,0.2-1.1,0.2v-2.5c0.5-0.1,1.1-0.3,1.6-0.6
			c0.5-0.3,0.9-0.8,1.2-1.3h2.5v15.8H194L194,176.4L194,176.4z"/>
		<path class="st0" d="M199.9,187.6c-0.7-0.8-1.1-1.8-1.1-3.2v-7.1c0-1.5,0.3-2.6,1-3.4s1.7-1.2,3.1-1.2s2.4,0.4,3.1,1.2
			c0.7,0.8,1,1.9,1,3.4v7.1c0,1.4-0.4,2.5-1.1,3.2s-1.8,1.1-3.1,1.1C201.6,188.7,200.6,188.4,199.9,187.6z M203.5,185.5
			c0.1-0.2,0.2-0.5,0.2-0.8v-7.8c0-0.5-0.1-0.8-0.2-1s-0.3-0.4-0.6-0.4c-0.3,0-0.5,0.1-0.6,0.4c-0.1,0.2-0.1,0.6-0.1,1v7.8
			c0,0.3,0.1,0.5,0.2,0.8c0.1,0.2,0.3,0.3,0.6,0.3C203.2,185.8,203.4,185.7,203.5,185.5z"/>
		<path class="st0" d="M209.1,190.7l0.6-2.1h-1.1v-2.7h3.3v2.6l-0.9,2.2H209.1z"/>
		<path class="st0" d="M218.3,187.8c0-0.7,0.1-1.4,0.3-2c0.2-0.6,0.5-1.2,0.8-1.7s0.8-1.1,1.3-1.7c0.6-0.7,1-1.3,1.3-1.7
			c0.3-0.5,0.6-1,0.8-1.6c0.2-0.6,0.3-1.3,0.3-2c0-0.4-0.1-0.8-0.2-1s-0.3-0.4-0.7-0.4c-0.5,0-0.8,0.5-0.8,1.4v1.9h-3.3v-1
			c0-1.2,0.1-2.2,0.4-3c0.2-0.8,0.7-1.4,1.3-1.8c0.6-0.4,1.5-0.6,2.5-0.6c1.3,0,2.4,0.4,3.1,1.1s1.1,1.8,1.1,3.2
			c0,0.9-0.1,1.7-0.4,2.4c-0.2,0.7-0.5,1.3-0.9,1.8c-0.3,0.5-0.8,1.1-1.4,1.9c-0.4,0.5-0.8,1-1,1.3c-0.3,0.4-0.5,0.8-0.7,1.2h4.3v3
			h-8.2v-0.7H218.3z"/>
		<path class="st0" d="M228.8,187.6c-0.7-0.8-1.1-1.8-1.1-3.2v-7.1c0-1.5,0.3-2.6,1-3.4s1.7-1.2,3.1-1.2s2.4,0.4,3.1,1.2
			c0.7,0.8,1,1.9,1,3.4v7.1c0,1.4-0.4,2.5-1.1,3.2c-0.7,0.7-1.8,1.1-3.1,1.1C230.6,188.7,229.6,188.4,228.8,187.6z M232.5,185.5
			c0.1-0.2,0.2-0.5,0.2-0.8v-7.8c0-0.5-0.1-0.8-0.2-1s-0.3-0.4-0.6-0.4s-0.5,0.1-0.6,0.4c-0.1,0.2-0.1,0.6-0.1,1v7.8
			c0,0.3,0.1,0.5,0.2,0.8c0.1,0.2,0.3,0.3,0.6,0.3C232.2,185.8,232.4,185.7,232.5,185.5z"/>
		<path class="st0" d="M239.2,176.4c-0.2,0.3-0.5,0.5-0.9,0.6c-0.4,0.2-0.7,0.2-1.1,0.2v-2.5c0.5-0.1,1.1-0.3,1.6-0.6
			c0.5-0.3,0.9-0.8,1.2-1.3h2.5v15.8h-3.3V176.4z"/>
		<path class="st0" d="M245.8,176.4c-0.2,0.3-0.5,0.5-0.9,0.6c-0.4,0.2-0.7,0.2-1.1,0.2v-2.5c0.5-0.1,1.1-0.3,1.6-0.6
			c0.5-0.3,0.9-0.8,1.2-1.3h2.5v15.8h-3.3V176.4z"/>
		<path class="st0" d="M251.3,190.7l0.6-2.1h-1.1v-2.7h3.3v2.6l-0.9,2.2H251.3z"/>
		<path class="st0" d="M262.1,176.4c-0.2,0.3-0.5,0.5-0.9,0.6c-0.4,0.2-0.7,0.2-1.1,0.2v-2.5c0.5-0.1,1.1-0.3,1.6-0.6
			c0.5-0.3,0.9-0.8,1.2-1.3h2.5v15.8h-3.3V176.4z"/>
		<path class="st0" d="M268.1,187.6c-0.7-0.8-1.1-1.8-1.1-3.2v-7.1c0-1.5,0.4-2.6,1-3.4c0.7-0.8,1.7-1.2,3.1-1.2
			c1.4,0,2.4,0.4,3.1,1.2c0.7,0.8,1,1.9,1,3.4v7.1c0,1.4-0.4,2.5-1.1,3.2c-0.7,0.7-1.8,1.1-3.1,1.1
			C269.8,188.7,268.8,188.4,268.1,187.6z M271.7,185.5c0.1-0.2,0.2-0.5,0.2-0.8v-7.8c0-0.5-0.1-0.8-0.2-1c-0.1-0.2-0.3-0.4-0.6-0.4
			s-0.5,0.1-0.6,0.4c-0.1,0.2-0.1,0.6-0.1,1v7.8c0,0.3,0.1,0.5,0.2,0.8c0.1,0.2,0.3,0.3,0.6,0.3
			C271.4,185.8,271.6,185.7,271.7,185.5z"/>
		<path class="st0" d="M278.4,176.4c-0.2,0.3-0.5,0.5-0.9,0.6c-0.4,0.2-0.7,0.2-1.1,0.2v-2.5c0.5-0.1,1.1-0.3,1.6-0.6
			c0.5-0.3,0.9-0.8,1.2-1.3h2.5v15.8h-3.3V176.4z"/>
		<path class="st0" d="M283.4,187.8c0-0.7,0.1-1.4,0.3-2s0.5-1.2,0.8-1.7s0.8-1.1,1.3-1.7c0.6-0.7,1-1.3,1.3-1.7
			c0.3-0.5,0.6-1,0.8-1.6s0.3-1.3,0.3-2c0-0.4-0.1-0.8-0.2-1c-0.1-0.2-0.3-0.4-0.7-0.4c-0.5,0-0.8,0.5-0.8,1.4v1.9h-3.3v-1
			c0-1.2,0.1-2.2,0.4-3c0.2-0.8,0.7-1.4,1.3-1.8s1.5-0.6,2.5-0.6c1.3,0,2.3,0.4,3.1,1.1c0.7,0.7,1.1,1.8,1.1,3.2
			c0,0.9-0.1,1.7-0.4,2.4c-0.2,0.7-0.5,1.3-0.9,1.8c-0.3,0.5-0.8,1.1-1.4,1.9c-0.4,0.5-0.8,1-1,1.3c-0.3,0.4-0.5,0.8-0.7,1.2h4.3v3
			h-8.2v-0.7H283.4z"/>
	</g>
</g>
</svg>
