<?xml version="1.0" encoding="utf-8"?>
<!-- Generator: Adobe Illustrator 22.0.1, SVG Export Plug-In . SVG Version: 6.00 Build 0)  -->
<svg version="1.1" id="Layer_1" xmlns="http://www.w3.org/2000/svg" xmlns:xlink="http://www.w3.org/1999/xlink" x="0px" y="0px"
	 viewBox="0 0 612 792" style="enable-background:new 0 0 612 792;" xml:space="preserve">
<style type="text/css">
	.st0{fill:#FFFFFF;}
</style>
<g>
	<g>
		<path class="st0" d="M176.3,350.7h4.5v6.1c-0.7,0.2-1.5,0.4-2.1,0.5c-0.7,0.1-1.4,0.1-2.2,0.1c-1.9,0-3.3-0.5-4.3-1.6
			s-1.5-2.6-1.5-4.6c0-1.9,0.6-3.5,1.7-4.6c1.1-1.1,2.7-1.6,4.7-1.6c1.3,0,2.5,0.2,3.7,0.7l-0.7,1.6c-1-0.5-2-0.7-3-0.7
			c-1.3,0-2.4,0.4-3.1,1.2c-0.8,0.8-1.1,1.9-1.1,3.3c0,1.5,0.3,2.6,1,3.4s1.7,1.2,3,1.2c0.7,0,1.3-0.1,2.1-0.2v-3.1h-2.6
			L176.3,350.7L176.3,350.7z"/>
		<path class="st0" d="M186.7,357.4c-1.4,0-2.6-0.4-3.4-1.2c-0.8-0.8-1.2-2-1.2-3.4c0-1.5,0.4-2.7,1.1-3.5c0.8-0.9,1.8-1.3,3.1-1.3
			c1.2,0,2.2,0.4,2.9,1.1s1.1,1.7,1.1,3v1h-6.2c0,0.9,0.3,1.6,0.7,2c0.5,0.5,1.1,0.7,1.9,0.7c0.6,0,1.1-0.1,1.5-0.2
			c0.5-0.1,1-0.3,1.5-0.5v1.6c-0.5,0.2-1,0.4-1.5,0.5C187.9,357.4,187.4,357.4,186.7,357.4z M186.4,349.4c-0.6,0-1.1,0.2-1.5,0.6
			s-0.6,1-0.7,1.7h4.2c0-0.8-0.2-1.3-0.6-1.7C187.5,349.6,187,349.4,186.4,349.4z"/>
		<path class="st0" d="M200,357.3h-2v-5.6c0-0.7-0.1-1.2-0.4-1.6c-0.3-0.3-0.7-0.5-1.4-0.5c-0.8,0-1.4,0.2-1.8,0.7
			c-0.4,0.5-0.6,1.3-0.6,2.4v4.6h-2v-9.1h1.6l0.3,1.2h0.1c0.3-0.4,0.7-0.8,1.2-1s1.1-0.4,1.7-0.4c2.2,0,3.4,1.1,3.4,3.3v6H200z"/>
		<path class="st0" d="M205.9,357.4c-1.4,0-2.6-0.4-3.4-1.2c-0.8-0.8-1.2-2-1.2-3.4c0-1.5,0.4-2.7,1.1-3.5c0.8-0.9,1.8-1.3,3.1-1.3
			c1.2,0,2.2,0.4,2.9,1.1s1.1,1.7,1.1,3v1h-6.2c0,0.9,0.3,1.6,0.7,2c0.5,0.5,1.1,0.7,1.9,0.7c0.6,0,1.1-0.1,1.5-0.2
			c0.5-0.1,1-0.3,1.5-0.5v1.6c-0.5,0.2-1,0.4-1.5,0.5C207.1,357.4,206.6,357.4,205.9,357.4z M205.6,349.4c-0.6,0-1.1,0.2-1.5,0.6
			s-0.6,1-0.7,1.7h4.2c0-0.8-0.2-1.3-0.6-1.7C206.7,349.6,206.2,349.4,205.6,349.4z"/>
		<path class="st0" d="M215.7,348c0.4,0,0.7,0,1,0.1l-0.2,1.8c-0.3-0.1-0.6-0.1-0.9-0.1c-0.8,0-1.4,0.3-1.9,0.8s-0.7,1.2-0.7,2v4.8
			h-2v-9.1h1.6l0.3,1.6h0.1c0.3-0.5,0.7-1,1.2-1.3C214.6,348.1,215.1,348,215.7,348z"/>
		<path class="st0" d="M225.8,352.7c0,1.5-0.4,2.7-1.2,3.5s-1.9,1.3-3.3,1.3c-0.9,0-1.6-0.2-2.3-0.6s-1.2-0.9-1.5-1.7
			c-0.4-0.7-0.5-1.6-0.5-2.5c0-1.5,0.4-2.6,1.2-3.5c0.8-0.8,1.9-1.2,3.3-1.2c1.3,0,2.4,0.4,3.2,1.3
			C225.4,350.1,225.8,351.2,225.8,352.7z M219,352.7c0,2.1,0.8,3.2,2.4,3.2c1.6,0,2.4-1.1,2.4-3.2s-0.8-3.1-2.4-3.1
			c-0.8,0-1.4,0.3-1.8,0.8C219.2,350.9,219,351.7,219,352.7z"/>
		<path class="st0" d="M233.8,357.3l-0.3-1.2h-0.1c-0.3,0.4-0.7,0.8-1.2,1s-1.1,0.4-1.7,0.4c-1.1,0-2-0.3-2.5-0.8
			c-0.6-0.6-0.8-1.4-0.8-2.5v-6h2v5.6c0,0.7,0.1,1.2,0.4,1.6c0.3,0.3,0.8,0.5,1.4,0.5c0.8,0,1.4-0.2,1.8-0.7
			c0.4-0.5,0.6-1.3,0.6-2.4v-4.6h2v9.1H233.8z"/>
		<path class="st0" d="M243.5,354.7c0,0.9-0.3,1.6-1,2.1s-1.6,0.7-2.8,0.7s-2.2-0.2-3-0.6v-1.7c1.1,0.5,2.1,0.7,3.1,0.7
			c1.2,0,1.8-0.4,1.8-1.1c0-0.2-0.1-0.4-0.2-0.6c-0.1-0.2-0.4-0.3-0.7-0.5s-0.7-0.4-1.3-0.6c-1.1-0.4-1.8-0.8-2.2-1.2
			c-0.4-0.4-0.6-0.9-0.6-1.6c0-0.8,0.3-1.4,1-1.8c0.6-0.4,1.5-0.6,2.6-0.6s2.1,0.2,3.1,0.7l-0.6,1.5c-1-0.4-1.9-0.6-2.5-0.6
			c-1,0-1.6,0.3-1.6,0.9c0,0.3,0.1,0.5,0.4,0.7c0.3,0.2,0.9,0.5,1.8,0.8c0.8,0.3,1.3,0.6,1.7,0.8c0.3,0.2,0.6,0.5,0.8,0.8
			C243.5,353.9,243.5,354.2,243.5,354.7z"/>
		<path class="st0" d="M254.7,354.7c0,0.9-0.3,1.6-1,2.1s-1.6,0.7-2.8,0.7s-2.2-0.2-3-0.6v-1.7c1.1,0.5,2.1,0.7,3.1,0.7
			c1.2,0,1.8-0.4,1.8-1.1c0-0.2-0.1-0.4-0.2-0.6c-0.1-0.2-0.4-0.3-0.7-0.5s-0.7-0.4-1.3-0.6c-1.1-0.4-1.8-0.8-2.2-1.2
			c-0.4-0.4-0.6-0.9-0.6-1.6c0-0.8,0.3-1.4,1-1.8c0.6-0.4,1.5-0.6,2.6-0.6s2.1,0.2,3.1,0.7l-0.6,1.5c-1-0.4-1.9-0.6-2.5-0.6
			c-1,0-1.6,0.3-1.6,0.9c0,0.3,0.1,0.5,0.4,0.7c0.3,0.2,0.9,0.5,1.8,0.8c0.8,0.3,1.3,0.6,1.7,0.8c0.3,0.2,0.6,0.5,0.8,0.8
			C254.6,353.9,254.7,354.2,254.7,354.7z"/>
		<path class="st0" d="M262.6,357.3l-0.3-1.2h-0.1c-0.3,0.4-0.7,0.8-1.2,1s-1.1,0.4-1.7,0.4c-1.1,0-2-0.3-2.5-0.8
			c-0.6-0.6-0.8-1.4-0.8-2.5v-6h2v5.6c0,0.7,0.1,1.2,0.4,1.6c0.3,0.3,0.8,0.5,1.4,0.5c0.8,0,1.4-0.2,1.8-0.7s0.6-1.3,0.6-2.4v-4.6h2
			v9.1H262.6z"/>
		<path class="st0" d="M270.8,357.4c-1.2,0-2.1-0.4-2.7-1.2H268c0.1,0.8,0.1,1.2,0.1,1.4v3.7h-2v-13.2h1.6c0,0.2,0.1,0.6,0.3,1.2
			h0.1c0.6-0.9,1.5-1.4,2.8-1.4c1.2,0,2.1,0.4,2.7,1.2c0.6,0.8,1,2,1,3.5s-0.3,2.7-1,3.5C272.9,357,272,357.4,270.8,357.4z
			 M270.3,349.6c-0.8,0-1.4,0.2-1.7,0.7c-0.4,0.5-0.5,1.2-0.5,2.2v0.3c0,1.1,0.2,1.9,0.5,2.4c0.4,0.5,0.9,0.7,1.8,0.7
			c0.7,0,1.2-0.3,1.6-0.8c0.4-0.6,0.6-1.3,0.6-2.4c0-1-0.2-1.8-0.6-2.3C271.6,349.8,271,349.6,270.3,349.6z"/>
		<path class="st0" d="M280.7,357.4c-1.2,0-2.1-0.4-2.7-1.2h-0.1c0.1,0.8,0.1,1.2,0.1,1.4v3.7h-2v-13.2h1.6c0,0.2,0.1,0.6,0.3,1.2
			h0.1c0.6-0.9,1.5-1.4,2.8-1.4c1.2,0,2.1,0.4,2.7,1.2c0.6,0.8,1,2,1,3.5s-0.3,2.7-1,3.5C282.8,357,281.9,357.4,280.7,357.4z
			 M280.2,349.6c-0.8,0-1.4,0.2-1.7,0.7c-0.4,0.5-0.5,1.2-0.5,2.2v0.3c0,1.1,0.2,1.9,0.5,2.4c0.4,0.5,0.9,0.7,1.8,0.7
			c0.7,0,1.2-0.3,1.6-0.8c0.4-0.6,0.6-1.3,0.6-2.4c0-1-0.2-1.8-0.6-2.3C281.5,349.8,280.9,349.6,280.2,349.6z"/>
		<path class="st0" d="M294.1,352.7c0,1.5-0.4,2.7-1.2,3.5c-0.8,0.8-1.9,1.3-3.3,1.3c-0.9,0-1.6-0.2-2.3-0.6
			c-0.7-0.4-1.2-0.9-1.5-1.7c-0.4-0.7-0.5-1.6-0.5-2.5c0-1.5,0.4-2.6,1.2-3.5c0.8-0.8,1.9-1.2,3.3-1.2c1.3,0,2.4,0.4,3.2,1.3
			C293.7,350.1,294.1,351.2,294.1,352.7z M287.4,352.7c0,2.1,0.8,3.2,2.4,3.2s2.4-1.1,2.4-3.2s-0.8-3.1-2.4-3.1
			c-0.8,0-1.4,0.3-1.8,0.8C287.5,350.9,287.4,351.7,287.4,352.7z"/>
		<path class="st0" d="M300.3,348c0.4,0,0.7,0,1,0.1l-0.2,1.8c-0.3-0.1-0.6-0.1-0.9-0.1c-0.8,0-1.4,0.3-1.9,0.8s-0.7,1.2-0.7,2v4.8
			h-2v-9.1h1.6l0.3,1.6h0.1c0.3-0.5,0.7-1,1.2-1.3C299.2,348.1,299.7,348,300.3,348z"/>
		<path class="st0" d="M305.6,355.9c0.5,0,1-0.1,1.4-0.2v1.5c-0.2,0.1-0.5,0.2-0.8,0.2c-0.3,0.1-0.7,0.1-1.1,0.1
			c-1.9,0-2.8-1-2.8-2.9v-4.9H301v-0.9l1.4-0.7l0.7-1.9h1.2v2h2.7v1.5h-2.7v4.9c0,0.5,0.1,0.8,0.4,1
			C304.9,355.8,305.2,355.9,305.6,355.9z"/>
		<path class="st0" d="M316.3,349.6H314v7.7h-2v-7.7h-1.5v-0.9l1.5-0.6v-0.6c0-1.1,0.3-1.9,0.8-2.4s1.3-0.8,2.4-0.8
			c0.7,0,1.4,0.1,2.1,0.3l-0.5,1.5c-0.5-0.2-1-0.2-1.4-0.2s-0.8,0.1-1,0.4s-0.3,0.7-0.3,1.2v0.6h2.3v1.5H316.3z"/>
		<path class="st0" d="M325.3,352.7c0,1.5-0.4,2.7-1.2,3.5c-0.8,0.8-1.9,1.3-3.3,1.3c-0.9,0-1.6-0.2-2.3-0.6
			c-0.7-0.4-1.2-0.9-1.5-1.7c-0.4-0.7-0.5-1.6-0.5-2.5c0-1.5,0.4-2.6,1.2-3.5c0.8-0.8,1.9-1.2,3.3-1.2c1.3,0,2.4,0.4,3.2,1.3
			C324.9,350.1,325.3,351.2,325.3,352.7z M318.6,352.7c0,2.1,0.8,3.2,2.4,3.2s2.4-1.1,2.4-3.2s-0.8-3.1-2.4-3.1
			c-0.8,0-1.4,0.3-1.8,0.8C318.7,350.9,318.6,351.7,318.6,352.7z"/>
		<path class="st0" d="M331.5,348c0.4,0,0.7,0,1,0.1l-0.2,1.8c-0.3-0.1-0.6-0.1-0.9-0.1c-0.8,0-1.4,0.3-1.9,0.8s-0.7,1.2-0.7,2v4.8
			h-2v-9.1h1.6l0.3,1.6h0.1c0.3-0.5,0.7-1,1.2-1.3C330.4,348.1,330.9,348,331.5,348z"/>
		<path class="st0" d="M341,357.4c-1.4,0-2.6-0.4-3.4-1.2c-0.8-0.8-1.2-2-1.2-3.4c0-1.5,0.4-2.7,1.1-3.5c0.8-0.9,1.8-1.3,3.1-1.3
			c1.2,0,2.2,0.4,2.9,1.1c0.7,0.7,1.1,1.7,1.1,3v1h-6.2c0,0.9,0.3,1.6,0.7,2c0.5,0.5,1.1,0.7,1.9,0.7c0.6,0,1.1-0.1,1.5-0.2
			c0.5-0.1,1-0.3,1.5-0.5v1.6c-0.5,0.2-1,0.4-1.5,0.5C342.2,357.4,341.7,357.4,341,357.4z M340.7,349.4c-0.6,0-1.1,0.2-1.5,0.6
			s-0.6,1-0.7,1.7h4.2c0-0.8-0.2-1.3-0.6-1.7C341.8,349.6,341.3,349.4,340.7,349.4z"/>
		<path class="st0" d="M352.3,354.7c0,0.9-0.3,1.6-1,2.1s-1.6,0.7-2.8,0.7c-1.2,0-2.2-0.2-3-0.6v-1.7c1.1,0.5,2.1,0.7,3.1,0.7
			c1.2,0,1.8-0.4,1.8-1.1c0-0.2-0.1-0.4-0.2-0.6s-0.4-0.3-0.7-0.5c-0.3-0.2-0.7-0.4-1.3-0.6c-1.1-0.4-1.8-0.8-2.2-1.2
			c-0.4-0.4-0.6-0.9-0.6-1.6c0-0.8,0.3-1.4,1-1.8c0.6-0.4,1.5-0.6,2.6-0.6s2.1,0.2,3.1,0.7l-0.6,1.5c-1-0.4-1.9-0.6-2.5-0.6
			c-1,0-1.6,0.3-1.6,0.9c0,0.3,0.1,0.5,0.4,0.7s0.9,0.5,1.8,0.8c0.8,0.3,1.3,0.6,1.7,0.8c0.3,0.2,0.6,0.5,0.8,0.8
			C352.2,353.9,352.3,354.2,352.3,354.7z"/>
		<path class="st0" d="M357,355.9c0.5,0,1-0.1,1.4-0.2v1.5c-0.2,0.1-0.5,0.2-0.8,0.2c-0.3,0.1-0.7,0.1-1.1,0.1c-1.9,0-2.8-1-2.8-2.9
			v-4.9h-1.3v-0.9l1.4-0.7l0.7-1.9h1.2v2h2.7v1.5h-2.7v4.9c0,0.5,0.1,0.8,0.4,1C356.3,355.8,356.7,355.9,357,355.9z"/>
		<path class="st0" d="M365.3,357.3l-0.4-1.3h-0.1c-0.4,0.6-0.9,0.9-1.4,1.1s-1,0.3-1.8,0.3c-0.9,0-1.6-0.2-2.1-0.7
			s-0.8-1.2-0.8-2.1s0.4-1.7,1.1-2.1c0.7-0.5,1.8-0.7,3.3-0.8h1.6v-0.5c0-0.6-0.1-1-0.4-1.3s-0.7-0.4-1.3-0.4
			c-0.5,0-0.9,0.1-1.4,0.2c-0.4,0.1-0.9,0.3-1.3,0.5l-0.6-1.4c0.5-0.3,1.1-0.5,1.7-0.6s1.2-0.2,1.7-0.2c1.2,0,2.1,0.3,2.7,0.8
			s0.9,1.3,0.9,2.4v6.2h-1.4V357.3z M362.4,356c0.7,0,1.3-0.2,1.7-0.6c0.4-0.4,0.7-0.9,0.7-1.7v-0.8h-1.2c-0.9,0-1.6,0.2-2,0.5
			s-0.6,0.7-0.6,1.3c0,0.4,0.1,0.7,0.4,0.9C361.5,355.8,361.9,356,362.4,356z"/>
		<path class="st0" d="M373.4,348c1.2,0,2.1,0.4,2.7,1.2c0.6,0.8,1,2,1,3.5s-0.3,2.7-1,3.5s-1.6,1.3-2.7,1.3c-1.2,0-2.1-0.4-2.7-1.2
			h-0.1l-0.4,1.1h-1.5v-12.9h2v3.1c0,0.2,0,0.6,0,1s0,0.7-0.1,0.9h0.1C371.3,348.4,372.2,348,373.4,348z M372.9,349.6
			c-0.8,0-1.4,0.2-1.7,0.7c-0.4,0.5-0.5,1.2-0.5,2.3v0.1c0,1.1,0.2,1.9,0.5,2.4c0.4,0.5,0.9,0.7,1.8,0.7c0.7,0,1.2-0.3,1.6-0.8
			s0.5-1.3,0.5-2.4C375.1,350.6,374.3,349.6,372.9,349.6z"/>
		<path class="st0" d="M380.5,357.3h-2v-12.9h2V357.3z"/>
		<path class="st0" d="M382.4,345.7c0-0.3,0.1-0.6,0.3-0.8c0.2-0.2,0.5-0.3,0.8-0.3s0.6,0.1,0.8,0.3c0.2,0.2,0.3,0.5,0.3,0.8
			s-0.1,0.6-0.3,0.8c-0.2,0.2-0.5,0.3-0.8,0.3c-0.4,0-0.6-0.1-0.8-0.3C382.5,346.3,382.4,346,382.4,345.7z M384.5,357.3h-2v-9.1h2
			V357.3z"/>
		<path class="st0" d="M392.7,354.7c0,0.9-0.3,1.6-1,2.1s-1.6,0.7-2.8,0.7c-1.2,0-2.2-0.2-3-0.6v-1.7c1.1,0.5,2.1,0.7,3.1,0.7
			c1.2,0,1.8-0.4,1.8-1.1c0-0.2-0.1-0.4-0.2-0.6s-0.4-0.3-0.7-0.5c-0.3-0.2-0.7-0.4-1.3-0.6c-1.1-0.4-1.8-0.8-2.2-1.2
			c-0.4-0.4-0.6-0.9-0.6-1.6c0-0.8,0.3-1.4,1-1.8c0.6-0.4,1.5-0.6,2.6-0.6s2.1,0.2,3.1,0.7l-0.6,1.5c-1-0.4-1.9-0.6-2.5-0.6
			c-1,0-1.6,0.3-1.6,0.9c0,0.3,0.1,0.5,0.4,0.7s0.9,0.5,1.8,0.8c0.8,0.3,1.3,0.6,1.7,0.8c0.3,0.2,0.6,0.5,0.8,0.8
			C392.6,353.9,392.7,354.2,392.7,354.7z"/>
		<path class="st0" d="M402.2,357.3h-2v-5.6c0-0.7-0.1-1.2-0.4-1.6c-0.3-0.3-0.7-0.5-1.4-0.5c-0.8,0-1.4,0.2-1.8,0.7
			s-0.6,1.3-0.6,2.5v4.5h-2v-12.9h2v3.3c0,0.5,0,1.1-0.1,1.7h0.1c0.3-0.4,0.6-0.8,1.1-1s1-0.4,1.7-0.4c2.3,0,3.4,1.1,3.4,3.3
			L402.2,357.3L402.2,357.3z"/>
		<path class="st0" d="M404,345.7c0-0.3,0.1-0.6,0.3-0.8c0.2-0.2,0.5-0.3,0.8-0.3s0.6,0.1,0.8,0.3c0.2,0.2,0.3,0.5,0.3,0.8
			s-0.1,0.6-0.3,0.8c-0.2,0.2-0.5,0.3-0.8,0.3c-0.4,0-0.6-0.1-0.8-0.3C404.1,346.3,404,346,404,345.7z M406.1,357.3h-2v-9.1h2V357.3
			z"/>
		<path class="st0" d="M416.2,357.3h-2v-5.6c0-0.7-0.1-1.2-0.4-1.6c-0.3-0.3-0.7-0.5-1.4-0.5c-0.8,0-1.4,0.2-1.8,0.7
			s-0.6,1.3-0.6,2.4v4.6h-2v-9.1h1.6l0.3,1.2h0.1c0.3-0.4,0.7-0.8,1.2-1s1.1-0.4,1.7-0.4c2.2,0,3.4,1.1,3.4,3.3v6H416.2z"/>
		<path class="st0" d="M426,348.1v1.1l-1.6,0.3c0.1,0.2,0.3,0.4,0.4,0.7c0.1,0.3,0.1,0.6,0.1,0.9c0,0.9-0.3,1.7-1,2.2
			s-1.6,0.8-2.7,0.8c-0.3,0-0.6,0-0.8-0.1c-0.4,0.3-0.6,0.6-0.6,0.9c0,0.2,0.1,0.4,0.3,0.5c0.2,0.1,0.6,0.2,1.1,0.2h1.6
			c1,0,1.8,0.2,2.3,0.6s0.8,1,0.8,1.9c0,1-0.4,1.8-1.3,2.4s-2.1,0.8-3.8,0.8c-1.3,0-2.2-0.2-2.9-0.7c-0.7-0.4-1-1.1-1-1.9
			c0-0.6,0.2-1,0.5-1.4c0.4-0.4,0.9-0.6,1.5-0.8c-0.3-0.1-0.5-0.3-0.7-0.5s-0.3-0.5-0.3-0.8s0.1-0.6,0.3-0.9
			c0.2-0.2,0.5-0.5,0.9-0.7c-0.5-0.2-0.9-0.5-1.2-1c-0.3-0.5-0.5-1-0.5-1.6c0-1,0.3-1.8,1-2.3c0.6-0.5,1.5-0.8,2.7-0.8
			c0.3,0,0.5,0,0.8,0.1c0.3,0,0.5,0.1,0.7,0.1L426,348.1L426,348.1z M418.7,358.7c0,0.4,0.2,0.7,0.6,1c0.4,0.2,0.9,0.3,1.6,0.3
			c1.1,0,1.9-0.2,2.4-0.5s0.8-0.7,0.8-1.2c0-0.4-0.1-0.7-0.4-0.8c-0.3-0.2-0.8-0.3-1.6-0.3h-1.5c-0.6,0-1,0.1-1.4,0.4
			C418.8,357.9,418.7,358.2,418.7,358.7z M419.5,351.1c0,0.6,0.2,1,0.5,1.3s0.7,0.5,1.3,0.5c1.1,0,1.7-0.6,1.7-1.8
			c0-0.6-0.1-1.1-0.4-1.4s-0.7-0.5-1.3-0.5c-0.6,0-1,0.2-1.3,0.5C419.7,350,419.5,350.5,419.5,351.1z"/>
		<path class="st0" d="M229.6,379.5h-2v-10.4H224v-1.7h9.3v1.7h-3.6L229.6,379.5L229.6,379.5z"/>
		<path class="st0" d="M242.2,379.5h-2v-5.6c0-0.7-0.1-1.2-0.4-1.6c-0.3-0.3-0.7-0.5-1.4-0.5c-0.8,0-1.4,0.2-1.8,0.7
			c-0.4,0.5-0.6,1.3-0.6,2.5v4.5h-2v-12.9h2v3.3c0,0.5,0,1.1-0.1,1.7h0.1c0.3-0.4,0.6-0.8,1.1-1s1-0.4,1.7-0.4
			c2.3,0,3.4,1.1,3.4,3.3V379.5z"/>
		<path class="st0" d="M248.2,379.6c-1.4,0-2.6-0.4-3.4-1.2c-0.8-0.8-1.2-2-1.2-3.4c0-1.5,0.4-2.7,1.1-3.5c0.8-0.9,1.8-1.3,3.1-1.3
			c1.2,0,2.2,0.4,2.9,1.1s1.1,1.7,1.1,3v1h-6.2c0,0.9,0.3,1.6,0.7,2c0.5,0.5,1.1,0.7,1.9,0.7c0.6,0,1.1-0.1,1.5-0.2
			c0.5-0.1,1-0.3,1.5-0.5v1.6c-0.5,0.2-1,0.4-1.5,0.5C249.4,379.6,248.8,379.6,248.2,379.6z M247.8,371.6c-0.6,0-1.1,0.2-1.5,0.6
			s-0.6,1-0.7,1.7h4.2c0-0.8-0.2-1.3-0.6-1.7C248.9,371.8,248.4,371.6,247.8,371.6z"/>
		<path class="st0" d="M259,379.5h-2v-12.1h7v1.7h-5v3.8h4.6v1.7H259V379.5z"/>
		<path class="st0" d="M267.1,379.5h-2v-12.9h2V379.5z"/>
		<path class="st0" d="M277.4,374.9c0,1.5-0.4,2.7-1.2,3.5c-0.8,0.8-1.9,1.3-3.3,1.3c-0.9,0-1.6-0.2-2.3-0.6
			c-0.7-0.4-1.2-0.9-1.5-1.7c-0.4-0.7-0.5-1.6-0.5-2.5c0-1.5,0.4-2.6,1.2-3.5c0.8-0.8,1.9-1.2,3.3-1.2c1.3,0,2.4,0.4,3.2,1.3
			C277,372.3,277.4,373.4,277.4,374.9z M270.6,374.9c0,2.1,0.8,3.2,2.4,3.2s2.4-1.1,2.4-3.2s-0.8-3.1-2.4-3.1
			c-0.8,0-1.4,0.3-1.8,0.8C270.8,373.1,270.6,373.9,270.6,374.9z"/>
		<path class="st0" d="M283.5,370.2c0.4,0,0.7,0,1,0.1l-0.2,1.8c-0.3-0.1-0.6-0.1-0.9-0.1c-0.8,0-1.4,0.3-1.9,0.8s-0.7,1.2-0.7,2
			v4.8h-2v-9.1h1.6l0.3,1.6h0.1c0.3-0.5,0.7-1,1.2-1.3C282.4,370.3,282.9,370.2,283.5,370.2z"/>
		<path class="st0" d="M285.2,367.9c0-0.3,0.1-0.6,0.3-0.8c0.2-0.2,0.5-0.3,0.8-0.3s0.6,0.1,0.8,0.3c0.2,0.2,0.3,0.5,0.3,0.8
			s-0.1,0.6-0.3,0.8c-0.2,0.2-0.5,0.3-0.8,0.3c-0.4,0-0.6-0.1-0.8-0.3C285.3,368.5,285.2,368.2,285.2,367.9z M287.3,379.5h-2v-9.1h2
			V379.5z"/>
		<path class="st0" d="M292.4,379.6c-1.2,0-2.1-0.4-2.7-1.2c-0.7-0.8-1-2-1-3.5s0.3-2.7,1-3.5s1.6-1.3,2.7-1.3
			c1.2,0,2.2,0.4,2.8,1.3h0.1c-0.1-0.7-0.1-1.2-0.1-1.6v-3.3h2v12.9h-1.6l-0.3-1.2h-0.1C294.6,379.2,293.7,379.6,292.4,379.6z
			 M293,378.1c0.8,0,1.4-0.2,1.8-0.7c0.4-0.4,0.6-1.2,0.6-2.2v-0.3c0-1.2-0.2-2-0.6-2.5s-1-0.7-1.8-0.7c-0.7,0-1.2,0.3-1.6,0.8
			c-0.4,0.6-0.6,1.3-0.6,2.4c0,1,0.2,1.8,0.5,2.3C291.7,377.8,292.2,378.1,293,378.1z"/>
		<path class="st0" d="M305,379.5l-0.4-1.3h-0.1c-0.4,0.6-0.9,0.9-1.4,1.1s-1,0.3-1.8,0.3c-0.9,0-1.6-0.2-2.1-0.7s-0.8-1.2-0.8-2.1
			s0.4-1.7,1.1-2.1c0.7-0.5,1.8-0.7,3.3-0.8h1.6v-0.5c0-0.6-0.1-1-0.4-1.3s-0.7-0.4-1.3-0.4c-0.5,0-0.9,0.1-1.4,0.2
			c-0.4,0.1-0.9,0.3-1.3,0.5l-0.6-1.4c0.5-0.3,1.1-0.5,1.7-0.6s1.2-0.2,1.7-0.2c1.2,0,2.1,0.3,2.7,0.8s0.9,1.3,0.9,2.4v6.2H305
			V379.5z M302.1,378.1c0.7,0,1.3-0.2,1.7-0.6c0.4-0.4,0.7-0.9,0.7-1.7V375h-1.2c-0.9,0-1.6,0.2-2,0.5s-0.6,0.7-0.6,1.3
			c0,0.4,0.1,0.7,0.4,0.9C301.2,378,301.6,378.1,302.1,378.1z"/>
		<path class="st0" d="M317.4,368.9c-1.2,0-2.1,0.4-2.7,1.2c-0.7,0.8-1,1.9-1,3.3c0,1.5,0.3,2.6,1,3.4c0.6,0.8,1.6,1.1,2.8,1.1
			c0.5,0,1-0.1,1.5-0.2s1-0.2,1.5-0.4v1.7c-1,0.4-2.1,0.5-3.3,0.5c-1.8,0-3.2-0.5-4.2-1.6s-1.4-2.6-1.4-4.6c0-1.3,0.2-2.4,0.7-3.3
			s1.1-1.7,2-2.2s1.9-0.8,3.1-0.8c1.3,0,2.4,0.3,3.5,0.8l-0.7,1.6c-0.4-0.2-0.9-0.4-1.3-0.5C318.4,369,317.9,368.9,317.4,368.9z"/>
		<path class="st0" d="M330.2,379.5h-2v-5.6c0-0.7-0.1-1.2-0.4-1.6c-0.3-0.3-0.7-0.5-1.4-0.5c-0.8,0-1.4,0.2-1.8,0.7
			s-0.6,1.3-0.6,2.5v4.5h-2v-12.9h2v3.3c0,0.5,0,1.1-0.1,1.7h0.1c0.3-0.4,0.6-0.8,1.1-1s1-0.4,1.7-0.4c2.3,0,3.4,1.1,3.4,3.3
			L330.2,379.5L330.2,379.5z"/>
		<path class="st0" d="M338,379.5l-0.4-1.3h-0.1c-0.4,0.6-0.9,0.9-1.4,1.1s-1,0.3-1.8,0.3c-0.9,0-1.6-0.2-2.1-0.7s-0.8-1.2-0.8-2.1
			s0.4-1.7,1.1-2.1c0.7-0.5,1.8-0.7,3.3-0.8h1.6v-0.5c0-0.6-0.1-1-0.4-1.3s-0.7-0.4-1.3-0.4c-0.5,0-0.9,0.1-1.4,0.2
			c-0.4,0.1-0.9,0.3-1.3,0.5l-0.6-1.4c0.5-0.3,1.1-0.5,1.7-0.6s1.2-0.2,1.7-0.2c1.2,0,2.1,0.3,2.7,0.8s0.9,1.3,0.9,2.4v6.2H338
			V379.5z M335,378.1c0.7,0,1.3-0.2,1.7-0.6c0.4-0.4,0.7-0.9,0.7-1.7V375h-1.2c-0.9,0-1.6,0.2-2,0.5s-0.6,0.7-0.6,1.3
			c0,0.4,0.1,0.7,0.4,0.9C334.1,378,334.5,378.1,335,378.1z"/>
		<path class="st0" d="M346,379.6c-1.2,0-2.1-0.4-2.7-1.2h-0.1c0.1,0.8,0.1,1.2,0.1,1.4v3.7h-2v-13.2h1.6c0,0.2,0.1,0.6,0.3,1.2h0.1
			c0.6-0.9,1.5-1.4,2.8-1.4c1.2,0,2.1,0.4,2.7,1.2c0.6,0.8,1,2,1,3.5s-0.3,2.7-1,3.5C348.1,379.2,347.2,379.6,346,379.6z
			 M345.5,371.7c-0.8,0-1.4,0.2-1.7,0.7c-0.4,0.5-0.5,1.2-0.5,2.2v0.3c0,1.1,0.2,1.9,0.5,2.4c0.4,0.5,0.9,0.7,1.8,0.7
			c0.7,0,1.2-0.3,1.6-0.8c0.4-0.6,0.6-1.3,0.6-2.4c0-1-0.2-1.8-0.6-2.3C346.8,372,346.2,371.7,345.5,371.7z"/>
		<path class="st0" d="M354.6,378.1c0.5,0,1-0.1,1.4-0.2v1.5c-0.2,0.1-0.5,0.2-0.8,0.2c-0.3,0.1-0.7,0.1-1.1,0.1
			c-1.9,0-2.8-1-2.8-2.9v-4.9H350V371l1.4-0.7l0.7-1.9h1.2v2h2.7v1.5h-2.7v4.9c0,0.5,0.1,0.8,0.4,1
			C353.9,377.9,354.3,378.1,354.6,378.1z"/>
		<path class="st0" d="M361.2,379.6c-1.4,0-2.6-0.4-3.4-1.2c-0.8-0.8-1.2-2-1.2-3.4c0-1.5,0.4-2.7,1.1-3.5c0.8-0.9,1.8-1.3,3.1-1.3
			c1.2,0,2.2,0.4,2.9,1.1c0.7,0.7,1.1,1.7,1.1,3v1h-6.2c0,0.9,0.3,1.6,0.7,2c0.5,0.5,1.1,0.7,1.9,0.7c0.6,0,1.1-0.1,1.5-0.2
			c0.5-0.1,1-0.3,1.5-0.5v1.6c-0.5,0.2-1,0.4-1.5,0.5C362.4,379.6,361.8,379.6,361.2,379.6z M360.8,371.6c-0.6,0-1.1,0.2-1.5,0.6
			s-0.6,1-0.7,1.7h4.2c0-0.8-0.2-1.3-0.6-1.7C361.9,371.8,361.4,371.6,360.8,371.6z"/>
		<path class="st0" d="M370.9,370.2c0.4,0,0.7,0,1,0.1l-0.2,1.8c-0.3-0.1-0.6-0.1-0.9-0.1c-0.8,0-1.4,0.3-1.9,0.8s-0.7,1.2-0.7,2
			v4.8h-2v-9.1h1.6l0.3,1.6h0.1c0.3-0.5,0.7-1,1.2-1.3C369.8,370.3,370.3,370.2,370.9,370.2z"/>
		<path class="st0" d="M181.4,396.7c0,2-0.5,3.5-1.5,4.6s-2.4,1.6-4.3,1.6c-1.9,0-3.3-0.5-4.3-1.6s-1.5-2.6-1.5-4.6s0.5-3.5,1.5-4.6
			s2.4-1.6,4.3-1.6c1.8,0,3.2,0.5,4.2,1.6C180.9,393.2,181.4,394.7,181.4,396.7z M172,396.7c0,1.5,0.3,2.6,0.9,3.4s1.5,1.2,2.7,1.2
			s2.1-0.4,2.7-1.1c0.6-0.8,0.9-1.9,0.9-3.4s-0.3-2.6-0.9-3.4c-0.6-0.8-1.5-1.1-2.7-1.1s-2.1,0.4-2.7,1.1S172,395.2,172,396.7z"/>
		<path class="st0" d="M187.7,395.1h-2.3v7.7h-2v-7.7h-1.5v-0.9l1.5-0.6V393c0-1.1,0.3-1.9,0.8-2.4s1.3-0.8,2.4-0.8
			c0.7,0,1.4,0.1,2.1,0.3l-0.5,1.5c-0.5-0.2-1-0.2-1.4-0.2s-0.8,0.1-1,0.4s-0.3,0.7-0.3,1.2v0.6h2.3v1.5H187.7z"/>
		<path class="st0" d="M195.5,401.3c0.5,0,1-0.1,1.4-0.2v1.5c-0.2,0.1-0.5,0.2-0.8,0.2c-0.3,0.1-0.7,0.1-1.1,0.1
			c-1.9,0-2.8-1-2.8-2.9v-4.9h-1.3v-0.9l1.4-0.7l0.7-1.9h1.2v2h2.7v1.5h-2.7v4.9c0,0.5,0.1,0.8,0.4,1
			C194.8,401.2,195.1,401.3,195.5,401.3z"/>
		<path class="st0" d="M206.1,402.7h-2v-5.6c0-0.7-0.1-1.2-0.4-1.6c-0.3-0.3-0.7-0.5-1.4-0.5c-0.8,0-1.4,0.2-1.8,0.7
			c-0.4,0.5-0.6,1.3-0.6,2.5v4.5h-2v-12.9h2v3.3c0,0.5,0,1.1-0.1,1.7h0.1c0.3-0.4,0.6-0.8,1.1-1s1-0.4,1.7-0.4
			c2.3,0,3.4,1.1,3.4,3.3V402.7z"/>
		<path class="st0" d="M212.1,402.9c-1.4,0-2.6-0.4-3.4-1.2c-0.8-0.8-1.2-2-1.2-3.4c0-1.5,0.4-2.7,1.1-3.5c0.8-0.9,1.8-1.3,3.1-1.3
			c1.2,0,2.2,0.4,2.9,1.1s1.1,1.7,1.1,3v1h-6.2c0,0.9,0.3,1.6,0.7,2c0.5,0.5,1.1,0.7,1.9,0.7c0.6,0,1.1-0.1,1.5-0.2
			c0.5-0.1,1-0.3,1.5-0.5v1.6c-0.5,0.2-1,0.4-1.5,0.5C213.3,402.9,212.7,402.9,212.1,402.9z M211.7,394.9c-0.6,0-1.1,0.2-1.5,0.6
			s-0.6,1-0.7,1.7h4.2c0-0.8-0.2-1.3-0.6-1.7C212.9,395.1,212.4,394.9,211.7,394.9z"/>
		<path class="st0" d="M226,396.2h4.5v6.1c-0.7,0.2-1.5,0.4-2.1,0.5c-0.7,0.1-1.4,0.1-2.2,0.1c-1.9,0-3.3-0.5-4.3-1.6
			s-1.5-2.6-1.5-4.6c0-1.9,0.6-3.5,1.7-4.6c1.1-1.1,2.7-1.6,4.7-1.6c1.3,0,2.5,0.2,3.7,0.7l-0.7,1.6c-1-0.5-2-0.7-3-0.7
			c-1.3,0-2.4,0.4-3.1,1.2c-0.8,0.8-1.1,1.9-1.1,3.3c0,1.5,0.3,2.6,1,3.4s1.7,1.2,3,1.2c0.7,0,1.3-0.1,2.1-0.2v-3.1H226V396.2z"/>
		<path class="st0" d="M234.4,402.7h-2v-12.9h2V402.7z"/>
		<path class="st0" d="M244.6,398.2c0,1.5-0.4,2.7-1.2,3.5s-1.9,1.3-3.3,1.3c-0.9,0-1.6-0.2-2.3-0.6s-1.2-0.9-1.5-1.7
			c-0.4-0.7-0.5-1.6-0.5-2.5c0-1.5,0.4-2.6,1.2-3.5c0.8-0.8,1.9-1.2,3.3-1.2c1.3,0,2.4,0.4,3.2,1.3
			C244.2,395.6,244.6,396.7,244.6,398.2z M237.8,398.2c0,2.1,0.8,3.2,2.4,3.2c1.6,0,2.4-1.1,2.4-3.2s-0.8-3.1-2.4-3.1
			c-0.8,0-1.4,0.3-1.8,0.8C238,396.4,237.8,397.1,237.8,398.2z"/>
		<path class="st0" d="M250.8,393.4c1.2,0,2.1,0.4,2.7,1.2c0.6,0.8,1,2,1,3.5s-0.3,2.7-1,3.5s-1.6,1.3-2.7,1.3
			c-1.2,0-2.1-0.4-2.7-1.2H248l-0.4,1.1H246v-12.9h2v3.1c0,0.2,0,0.6,0,1s0,0.7-0.1,0.9h0.1C248.6,393.9,249.6,393.4,250.8,393.4z
			 M250.3,395c-0.8,0-1.4,0.2-1.7,0.7c-0.4,0.5-0.5,1.2-0.5,2.3v0.1c0,1.1,0.2,1.9,0.5,2.4c0.4,0.5,0.9,0.7,1.8,0.7
			c0.7,0,1.2-0.3,1.6-0.8s0.5-1.3,0.5-2.4C252.5,396.1,251.7,395,250.3,395z"/>
		<path class="st0" d="M261.8,402.7l-0.4-1.3h-0.1c-0.4,0.6-0.9,0.9-1.4,1.1s-1,0.3-1.8,0.3c-0.9,0-1.6-0.2-2.1-0.7
			s-0.8-1.2-0.8-2.1s0.4-1.7,1.1-2.1c0.7-0.5,1.8-0.7,3.3-0.8h1.6v-0.5c0-0.6-0.1-1-0.4-1.3s-0.7-0.4-1.3-0.4
			c-0.5,0-0.9,0.1-1.4,0.2c-0.4,0.1-0.9,0.3-1.3,0.5l-0.6-1.4c0.5-0.3,1.1-0.5,1.7-0.6s1.2-0.2,1.7-0.2c1.2,0,2.1,0.3,2.7,0.8
			s0.9,1.3,0.9,2.4v6.2h-1.4V402.7z M258.8,401.4c0.7,0,1.3-0.2,1.7-0.6c0.4-0.4,0.7-0.9,0.7-1.7v-0.8H260c-0.9,0-1.6,0.2-2,0.5
			s-0.6,0.7-0.6,1.3c0,0.4,0.1,0.7,0.4,0.9C257.9,401.3,258.3,401.4,258.8,401.4z"/>
		<path class="st0" d="M267.1,402.7h-2v-12.9h2V402.7z"/>
		<path class="st0" d="M281,394.3c0,1.3-0.4,2.2-1.3,2.9c-0.8,0.7-2,1-3.6,1h-1.3v4.5h-2v-12.1h3.5c1.5,0,2.7,0.3,3.5,0.9
			C280.6,392.2,281,393.1,281,394.3z M274.9,396.6h1.1c1,0,1.8-0.2,2.3-0.5c0.5-0.4,0.7-0.9,0.7-1.7c0-0.7-0.2-1.2-0.6-1.6
			c-0.4-0.3-1.1-0.5-2-0.5H275v4.3H274.9z"/>
		<path class="st0" d="M286.5,402.9c-1.4,0-2.6-0.4-3.4-1.2c-0.8-0.8-1.2-2-1.2-3.4c0-1.5,0.4-2.7,1.1-3.5c0.8-0.9,1.8-1.3,3.1-1.3
			c1.2,0,2.2,0.4,2.9,1.1c0.7,0.7,1.1,1.7,1.1,3v1h-6.2c0,0.9,0.3,1.6,0.7,2c0.5,0.5,1.1,0.7,1.9,0.7c0.6,0,1.1-0.1,1.5-0.2
			c0.5-0.1,1-0.3,1.5-0.5v1.6c-0.5,0.2-1,0.4-1.5,0.5C287.7,402.9,287.1,402.9,286.5,402.9z M286.1,394.9c-0.6,0-1.1,0.2-1.5,0.6
			s-0.6,1-0.7,1.7h4.2c0-0.8-0.2-1.3-0.6-1.7C287.2,395.1,286.7,394.9,286.1,394.9z"/>
		<path class="st0" d="M297.3,402.7l-0.4-1.3h-0.1c-0.4,0.6-0.9,0.9-1.4,1.1s-1,0.3-1.8,0.3c-0.9,0-1.6-0.2-2.1-0.7
			s-0.8-1.2-0.8-2.1s0.4-1.7,1.1-2.1c0.7-0.5,1.8-0.7,3.3-0.8h1.6v-0.5c0-0.6-0.1-1-0.4-1.3s-0.7-0.4-1.3-0.4
			c-0.5,0-0.9,0.1-1.4,0.2c-0.4,0.1-0.9,0.3-1.3,0.5l-0.6-1.4c0.5-0.3,1.1-0.5,1.7-0.6s1.2-0.2,1.7-0.2c1.2,0,2.1,0.3,2.7,0.8
			s0.9,1.3,0.9,2.4v6.2h-1.4V402.7z M294.4,401.4c0.7,0,1.3-0.2,1.7-0.6c0.4-0.4,0.7-0.9,0.7-1.7v-0.8h-1.2c-0.9,0-1.6,0.2-2,0.5
			s-0.6,0.7-0.6,1.3c0,0.4,0.1,0.7,0.4,0.9C293.5,401.3,293.9,401.4,294.4,401.4z"/>
		<path class="st0" d="M306.9,400.1c0,0.9-0.3,1.6-1,2.1s-1.6,0.7-2.8,0.7c-1.2,0-2.2-0.2-3-0.6v-1.7c1.1,0.5,2.1,0.7,3.1,0.7
			c1.2,0,1.8-0.4,1.8-1.1c0-0.2-0.1-0.4-0.2-0.6s-0.4-0.3-0.7-0.5c-0.3-0.2-0.7-0.4-1.3-0.6c-1.1-0.4-1.8-0.8-2.2-1.2
			c-0.4-0.4-0.6-0.9-0.6-1.6c0-0.8,0.3-1.4,1-1.8c0.6-0.4,1.5-0.6,2.6-0.6s2.1,0.2,3.1,0.7l-0.6,1.5c-1-0.4-1.9-0.6-2.5-0.6
			c-1,0-1.6,0.3-1.6,0.9c0,0.3,0.1,0.5,0.4,0.7s0.9,0.5,1.8,0.8c0.8,0.3,1.3,0.6,1.7,0.8c0.3,0.2,0.6,0.5,0.8,0.8
			C306.8,399.3,306.9,399.7,306.9,400.1z"/>
		<path class="st0" d="M312.3,402.9c-1.4,0-2.6-0.4-3.4-1.2c-0.8-0.8-1.2-2-1.2-3.4c0-1.5,0.4-2.7,1.1-3.5c0.8-0.9,1.8-1.3,3.1-1.3
			c1.2,0,2.2,0.4,2.9,1.1c0.7,0.7,1.1,1.7,1.1,3v1h-6.2c0,0.9,0.3,1.6,0.7,2c0.5,0.5,1.1,0.7,1.9,0.7c0.6,0,1.1-0.1,1.5-0.2
			c0.5-0.1,1-0.3,1.5-0.5v1.6c-0.5,0.2-1,0.4-1.5,0.5C313.5,402.9,312.9,402.9,312.3,402.9z M311.9,394.9c-0.6,0-1.1,0.2-1.5,0.6
			s-0.6,1-0.7,1.7h4.2c0-0.8-0.2-1.3-0.6-1.7C313,395.1,312.5,394.9,311.9,394.9z"/>
		<path class="st0" d="M323.1,402.7h-2v-12.1h7v1.7h-5v3.8h4.6v1.7h-4.6V402.7z"/>
		<path class="st0" d="M340.4,396.7c0,2-0.5,3.5-1.5,4.6s-2.4,1.6-4.3,1.6s-3.3-0.5-4.3-1.6s-1.5-2.6-1.5-4.6s0.5-3.5,1.5-4.6
			s2.4-1.6,4.3-1.6c1.8,0,3.2,0.5,4.2,1.6C339.9,393.2,340.4,394.7,340.4,396.7z M331,396.7c0,1.5,0.3,2.6,0.9,3.4s1.5,1.2,2.7,1.2
			s2.1-0.4,2.7-1.1c0.6-0.8,0.9-1.9,0.9-3.4s-0.3-2.6-0.9-3.4s-1.5-1.1-2.7-1.1s-2.1,0.4-2.7,1.1S331,395.2,331,396.7z"/>
		<path class="st0" d="M351.8,390.7v7.8c0,0.9-0.2,1.7-0.6,2.3c-0.4,0.7-1,1.2-1.7,1.5c-0.7,0.4-1.6,0.5-2.7,0.5
			c-1.5,0-2.7-0.4-3.6-1.2c-0.8-0.8-1.3-1.9-1.3-3.3v-7.8h2v7.6c0,1,0.2,1.7,0.7,2.2s1.2,0.7,2.2,0.7c1.9,0,2.8-1,2.8-2.9v-7.6h2.2
			V390.7z"/>
		<path class="st0" d="M364.4,402.7h-2.5l-6.1-9.6h-0.1v0.5c0.1,1,0.1,2,0.1,2.8v6.3H354v-12.1h2.4l6,9.6h0.1c0-0.1,0-0.6-0.1-1.4
			c0-0.8-0.1-1.4-0.1-1.9v-6.3h1.8v12.1H364.4z"/>
		<path class="st0" d="M376.8,396.6c0,2-0.6,3.5-1.7,4.6s-2.8,1.6-4.9,1.6h-3.4v-12.1h3.8c2,0,3.5,0.5,4.6,1.6
			C376.2,393.2,376.8,394.7,376.8,396.6z M374.6,396.6c0-2.9-1.4-4.3-4.1-4.3h-1.7v8.8h1.4C373.2,401.1,374.6,399.6,374.6,396.6z"/>
		<path class="st0" d="M386.2,402.7l-1.2-3.4h-4.7l-1.2,3.4H377l4.6-12.1h2.2l4.6,12.1H386.2z M384.4,397.7l-1.2-3.3
			c-0.1-0.2-0.2-0.6-0.3-1c-0.1-0.5-0.3-0.8-0.3-1c-0.2,0.7-0.4,1.4-0.7,2.2l-1.1,3.1L384.4,397.7L384.4,397.7z"/>
		<path class="st0" d="M393.4,402.7h-2v-10.4h-3.6v-1.7h9.3v1.7h-3.6L393.4,402.7L393.4,402.7z"/>
		<path class="st0" d="M398,402.7v-12.1h2v12.1H398z"/>
		<path class="st0" d="M413.4,396.7c0,2-0.5,3.5-1.5,4.6s-2.4,1.6-4.3,1.6s-3.3-0.5-4.3-1.6s-1.5-2.6-1.5-4.6s0.5-3.5,1.5-4.6
			s2.4-1.6,4.3-1.6c1.8,0,3.2,0.5,4.2,1.6C412.9,393.2,413.4,394.7,413.4,396.7z M404,396.7c0,1.5,0.3,2.6,0.9,3.4s1.5,1.2,2.7,1.2
			s2.1-0.4,2.7-1.1c0.6-0.8,0.9-1.9,0.9-3.4s-0.3-2.6-0.9-3.4s-1.5-1.1-2.7-1.1s-2.1,0.4-2.7,1.1S404,395.2,404,396.7z"/>
		<path class="st0" d="M425.4,402.7h-2.5l-6.1-9.6h-0.1v0.5c0.1,1,0.1,2,0.1,2.8v6.3H415v-12.1h2.4l6,9.6h0.1c0-0.1,0-0.6-0.1-1.4
			c0-0.8-0.1-1.4-0.1-1.9v-6.3h1.8v12.1H425.4z"/>
		<path class="st0" d="M154.4,426l-0.4-1.3h-0.1c-0.4,0.6-0.9,0.9-1.4,1.1s-1,0.3-1.8,0.3c-0.9,0-1.6-0.2-2.1-0.7s-0.8-1.2-0.8-2.1
			s0.4-1.7,1.1-2.1c0.7-0.5,1.8-0.7,3.3-0.8h1.6v-0.5c0-0.6-0.1-1-0.4-1.3c-0.3-0.3-0.7-0.4-1.3-0.4c-0.5,0-0.9,0.1-1.4,0.2
			c-0.4,0.1-0.9,0.3-1.3,0.5l-0.6-1.4c0.5-0.3,1.1-0.5,1.7-0.6c0.6-0.1,1.2-0.2,1.7-0.2c1.2,0,2.1,0.3,2.7,0.8
			c0.6,0.5,0.9,1.3,0.9,2.4v6.2h-1.4V426z M151.4,424.7c0.7,0,1.3-0.2,1.7-0.6s0.7-0.9,0.7-1.7v-0.8h-1.2c-0.9,0-1.6,0.2-2,0.5
			s-0.6,0.7-0.6,1.3c0,0.4,0.1,0.7,0.4,0.9C150.6,424.6,150.9,424.7,151.4,424.7z"/>
		<path class="st0" d="M165.9,426h-2v-5.6c0-0.7-0.1-1.2-0.4-1.6c-0.3-0.3-0.7-0.5-1.4-0.5c-0.8,0-1.4,0.2-1.8,0.7
			c-0.4,0.5-0.6,1.3-0.6,2.4v4.6h-2v-9.1h1.6l0.3,1.2h0.1c0.3-0.4,0.7-0.8,1.2-1s1.1-0.4,1.7-0.4c2.2,0,3.4,1.1,3.4,3.3v6H165.9z"/>
		<path class="st0" d="M170.9,426.2c-1.2,0-2.1-0.4-2.7-1.2c-0.7-0.8-1-2-1-3.5s0.3-2.7,1-3.5s1.6-1.3,2.7-1.3
			c1.2,0,2.2,0.4,2.8,1.3h0.1c-0.1-0.7-0.1-1.2-0.1-1.6v-3.3h2V426h-1.6l-0.3-1.2h-0.1C173.1,425.7,172.2,426.2,170.9,426.2z
			 M171.5,424.6c0.8,0,1.4-0.2,1.8-0.7c0.4-0.4,0.6-1.2,0.6-2.2v-0.3c0-1.2-0.2-2-0.6-2.5c-0.4-0.5-1-0.7-1.8-0.7
			c-0.7,0-1.2,0.3-1.6,0.8c-0.4,0.6-0.6,1.3-0.6,2.4c0,1,0.2,1.8,0.5,2.3C170.2,424.3,170.7,424.6,171.5,424.6z"/>
		<path class="st0" d="M181.5,426v-12.1h2v10.4h5.2v1.7H181.5z"/>
		<path class="st0" d="M195.6,426l-0.4-1.3h-0.1c-0.4,0.6-0.9,0.9-1.4,1.1s-1,0.3-1.8,0.3c-0.9,0-1.6-0.2-2.1-0.7s-0.8-1.2-0.8-2.1
			s0.4-1.7,1.1-2.1c0.7-0.5,1.8-0.7,3.3-0.8h1.6v-0.5c0-0.6-0.1-1-0.4-1.3c-0.3-0.3-0.7-0.4-1.3-0.4c-0.5,0-0.9,0.1-1.4,0.2
			c-0.4,0.1-0.9,0.3-1.3,0.5l-0.6-1.4c0.5-0.3,1.1-0.5,1.7-0.6c0.6-0.1,1.2-0.2,1.7-0.2c1.2,0,2.1,0.3,2.7,0.8
			c0.6,0.5,0.9,1.3,0.9,2.4v6.2h-1.4V426z M192.7,424.7c0.7,0,1.3-0.2,1.7-0.6s0.7-0.9,0.7-1.7v-0.8h-1.2c-0.9,0-1.6,0.2-2,0.5
			s-0.6,0.7-0.6,1.3c0,0.4,0.1,0.7,0.4,0.9C191.8,424.6,192.2,424.7,192.7,424.7z"/>
		<path class="st0" d="M202.4,424.6c0.5,0,1-0.1,1.4-0.2v1.5c-0.2,0.1-0.5,0.2-0.8,0.2c-0.3,0.1-0.7,0.1-1.1,0.1
			c-1.9,0-2.8-1-2.8-2.9v-4.9h-1.3v-0.9l1.4-0.7l0.7-1.9h1.2v2h2.7v1.5h-2.7v4.9c0,0.5,0.1,0.8,0.4,1
			C201.7,424.5,202,424.6,202.4,424.6z"/>
		<path class="st0" d="M204.8,414.5c0-0.3,0.1-0.6,0.3-0.8s0.5-0.3,0.8-0.3s0.6,0.1,0.8,0.3c0.2,0.2,0.3,0.5,0.3,0.8
			s-0.1,0.6-0.3,0.8c-0.2,0.2-0.5,0.3-0.8,0.3c-0.4,0-0.6-0.1-0.8-0.3C204.9,415,204.8,414.8,204.8,414.5z M206.9,426h-2v-9.1h2V426
			z"/>
		<path class="st0" d="M217,426h-2v-5.6c0-0.7-0.1-1.2-0.4-1.6c-0.3-0.3-0.7-0.5-1.4-0.5c-0.8,0-1.4,0.2-1.8,0.7
			c-0.4,0.5-0.6,1.3-0.6,2.4v4.6h-2v-9.1h1.6l0.3,1.2h0.1c0.3-0.4,0.7-0.8,1.2-1s1.1-0.4,1.7-0.4c2.2,0,3.4,1.1,3.4,3.3v6H217z"/>
		<path class="st0" d="M230.4,426l-1.2-3.4h-4.7l-1.2,3.4h-2.1l4.6-12.1h2.2l4.6,12.1H230.4z M228.6,421l-1.2-3.3
			c-0.1-0.2-0.2-0.6-0.3-1c-0.1-0.5-0.3-0.8-0.3-1c-0.2,0.7-0.4,1.4-0.7,2.2L225,421L228.6,421L228.6,421z"/>
		<path class="st0" d="M241,426h-2v-5.6c0-0.7-0.1-1.2-0.4-1.6c-0.3-0.3-0.7-0.5-1.3-0.5c-0.8,0-1.3,0.2-1.7,0.7s-0.5,1.3-0.5,2.4
			v4.6h-2v-9.1h1.6l0.3,1.2h0.1c0.3-0.4,0.6-0.8,1.1-1s1-0.4,1.6-0.4c1.4,0,2.4,0.5,2.8,1.4h0.1c0.3-0.5,0.7-0.8,1.2-1.1
			c0.5-0.3,1.1-0.4,1.7-0.4c1.1,0,1.9,0.3,2.4,0.8c0.5,0.6,0.8,1.4,0.8,2.5v6h-2v-5.6c0-0.7-0.1-1.2-0.4-1.6
			c-0.3-0.3-0.7-0.5-1.3-0.5c-0.8,0-1.3,0.2-1.7,0.7s-0.5,1.2-0.5,2.2L241,426L241,426z"/>
		<path class="st0" d="M252.8,426.2c-1.4,0-2.6-0.4-3.4-1.2c-0.8-0.8-1.2-2-1.2-3.4c0-1.5,0.4-2.7,1.1-3.5c0.8-0.9,1.8-1.3,3.1-1.3
			c1.2,0,2.2,0.4,2.9,1.1c0.7,0.7,1.1,1.7,1.1,3v1h-6.2c0,0.9,0.3,1.6,0.7,2c0.5,0.5,1.1,0.7,1.9,0.7c0.6,0,1.1-0.1,1.5-0.2
			c0.5-0.1,1-0.3,1.5-0.5v1.6c-0.5,0.2-1,0.4-1.5,0.5C254,426.1,253.4,426.2,252.8,426.2z M252.4,418.2c-0.6,0-1.1,0.2-1.5,0.6
			s-0.6,1-0.7,1.7h4.2c0-0.8-0.2-1.3-0.6-1.7C253.6,418.4,253.1,418.2,252.4,418.2z"/>
		<path class="st0" d="M262.6,416.7c0.4,0,0.7,0,1,0.1l-0.2,1.8c-0.3-0.1-0.6-0.1-0.9-0.1c-0.8,0-1.4,0.3-1.9,0.8s-0.7,1.2-0.7,2
			v4.8h-2V417h1.6l0.3,1.6h0.1c0.3-0.5,0.7-1,1.2-1.3C261.4,416.9,262,416.7,262.6,416.7z"/>
		<path class="st0" d="M264.3,414.5c0-0.3,0.1-0.6,0.3-0.8s0.5-0.3,0.8-0.3s0.6,0.1,0.8,0.3s0.3,0.5,0.3,0.8s-0.1,0.6-0.3,0.8
			c-0.2,0.2-0.5,0.3-0.8,0.3c-0.4,0-0.6-0.1-0.8-0.3C264.4,415,264.3,414.8,264.3,414.5z M266.4,426h-2v-9.1h2V426z"/>
		<path class="st0" d="M272.1,426.2c-1.4,0-2.5-0.4-3.2-1.2c-0.7-0.8-1.1-2-1.1-3.5s0.4-2.7,1.2-3.5c0.8-0.8,1.9-1.2,3.3-1.2
			c1,0,1.9,0.2,2.7,0.5l-0.6,1.6c-0.8-0.3-1.5-0.5-2.1-0.5c-1.6,0-2.4,1-2.4,3.1c0,1,0.2,1.8,0.6,2.3s1,0.8,1.8,0.8
			c0.9,0,1.7-0.2,2.5-0.6v1.7c-0.4,0.2-0.7,0.4-1.1,0.4C273.2,426.1,272.7,426.2,272.1,426.2z"/>
		<path class="st0" d="M281.9,426l-0.4-1.3h-0.1c-0.4,0.6-0.9,0.9-1.4,1.1s-1,0.3-1.8,0.3c-0.9,0-1.6-0.2-2.1-0.7s-0.8-1.2-0.8-2.1
			s0.4-1.7,1.1-2.1c0.7-0.5,1.8-0.7,3.3-0.8h1.6v-0.5c0-0.6-0.1-1-0.4-1.3s-0.7-0.4-1.3-0.4c-0.5,0-0.9,0.1-1.4,0.2
			c-0.4,0.1-0.9,0.3-1.3,0.5l-0.6-1.4c0.5-0.3,1.1-0.5,1.7-0.6s1.2-0.2,1.7-0.2c1.2,0,2.1,0.3,2.7,0.8s0.9,1.3,0.9,2.4v6.2h-1.4V426
			z M278.9,424.7c0.7,0,1.3-0.2,1.7-0.6c0.4-0.4,0.7-0.9,0.7-1.7v-0.8h-1.2c-0.9,0-1.6,0.2-2,0.5s-0.6,0.7-0.6,1.3
			c0,0.4,0.1,0.7,0.4,0.9C278.1,424.6,278.4,424.7,278.9,424.7z"/>
		<path class="st0" d="M293.4,426h-2v-5.6c0-0.7-0.1-1.2-0.4-1.6c-0.3-0.3-0.7-0.5-1.4-0.5c-0.8,0-1.4,0.2-1.8,0.7s-0.6,1.3-0.6,2.4
			v4.6h-2v-9.1h1.6l0.3,1.2h0.1c0.3-0.4,0.7-0.8,1.2-1s1.1-0.4,1.7-0.4c2.2,0,3.4,1.1,3.4,3.3v6H293.4z"/>
		<path class="st0" d="M307.3,417.6c0,1.3-0.4,2.2-1.3,2.9c-0.8,0.7-2,1-3.6,1h-1.3v4.5h-2v-12.1h3.5c1.5,0,2.7,0.3,3.5,0.9
			C306.9,415.5,307.3,416.4,307.3,417.6z M301.1,419.8h1.1c1,0,1.8-0.2,2.3-0.5c0.5-0.4,0.7-0.9,0.7-1.7c0-0.7-0.2-1.2-0.6-1.6
			c-0.4-0.3-1.1-0.5-2-0.5h-1.4v4.3H301.1z"/>
		<path class="st0" d="M313.4,416.7c0.4,0,0.7,0,1,0.1l-0.2,1.8c-0.3-0.1-0.6-0.1-0.9-0.1c-0.8,0-1.4,0.3-1.9,0.8s-0.7,1.2-0.7,2
			v4.8h-2V417h1.6l0.3,1.6h0.1c0.3-0.5,0.7-1,1.2-1.3C312.3,416.9,312.8,416.7,313.4,416.7z"/>
		<path class="st0" d="M319.3,426.2c-1.4,0-2.6-0.4-3.4-1.2c-0.8-0.8-1.2-2-1.2-3.4c0-1.5,0.4-2.7,1.1-3.5c0.8-0.9,1.8-1.3,3.1-1.3
			c1.2,0,2.2,0.4,2.9,1.1c0.7,0.7,1.1,1.7,1.1,3v1h-6.2c0,0.9,0.3,1.6,0.7,2c0.5,0.5,1.1,0.7,1.9,0.7c0.6,0,1.1-0.1,1.5-0.2
			c0.5-0.1,1-0.3,1.5-0.5v1.6c-0.5,0.2-1,0.4-1.5,0.5C320.5,426.1,319.9,426.2,319.3,426.2z M318.9,418.2c-0.6,0-1.1,0.2-1.5,0.6
			s-0.6,1-0.7,1.7h4.2c0-0.8-0.2-1.3-0.6-1.7C320.1,418.4,319.6,418.2,318.9,418.2z"/>
		<path class="st0" d="M330.6,423.4c0,0.9-0.3,1.6-1,2.1s-1.6,0.7-2.8,0.7c-1.2,0-2.2-0.2-3-0.6v-1.7c1.1,0.5,2.1,0.7,3.1,0.7
			c1.2,0,1.8-0.4,1.8-1.1c0-0.2-0.1-0.4-0.2-0.6s-0.4-0.3-0.7-0.5c-0.3-0.2-0.7-0.4-1.3-0.6c-1.1-0.4-1.8-0.8-2.2-1.2
			c-0.4-0.4-0.6-0.9-0.6-1.6c0-0.8,0.3-1.4,1-1.8c0.6-0.4,1.5-0.6,2.6-0.6s2.1,0.2,3.1,0.7l-0.6,1.5c-1-0.4-1.9-0.6-2.5-0.6
			c-1,0-1.6,0.3-1.6,0.9c0,0.3,0.1,0.5,0.4,0.7s0.9,0.5,1.8,0.8c0.8,0.3,1.3,0.6,1.7,0.8c0.3,0.2,0.6,0.5,0.8,0.8
			C330.5,422.6,330.6,423,330.6,423.4z"/>
		<path class="st0" d="M331.7,414.5c0-0.3,0.1-0.6,0.3-0.8s0.5-0.3,0.8-0.3s0.6,0.1,0.8,0.3c0.2,0.2,0.3,0.5,0.3,0.8
			s-0.1,0.6-0.3,0.8c-0.2,0.2-0.5,0.3-0.8,0.3c-0.4,0-0.6-0.1-0.8-0.3C331.8,415,331.7,414.8,331.7,414.5z M333.8,426h-2v-9.1h2V426
			z"/>
		<path class="st0" d="M339,426.2c-1.2,0-2.1-0.4-2.7-1.2c-0.7-0.8-1-2-1-3.5s0.3-2.7,1-3.5s1.6-1.3,2.7-1.3c1.2,0,2.2,0.4,2.8,1.3
			h0.1c-0.1-0.7-0.1-1.2-0.1-1.6v-3.3h2V426h-1.6l-0.3-1.2h-0.1C341.1,425.7,340.2,426.2,339,426.2z M339.5,424.6
			c0.8,0,1.4-0.2,1.8-0.7c0.4-0.4,0.6-1.2,0.6-2.2v-0.3c0-1.2-0.2-2-0.6-2.5s-1-0.7-1.8-0.7c-0.7,0-1.2,0.3-1.6,0.8
			c-0.4,0.6-0.6,1.3-0.6,2.4c0,1,0.2,1.8,0.5,2.3C338.2,424.3,338.8,424.6,339.5,424.6z"/>
		<path class="st0" d="M349.8,426.2c-1.4,0-2.6-0.4-3.4-1.2c-0.8-0.8-1.2-2-1.2-3.4c0-1.5,0.4-2.7,1.1-3.5c0.8-0.9,1.8-1.3,3.1-1.3
			c1.2,0,2.2,0.4,2.9,1.1c0.7,0.7,1.1,1.7,1.1,3v1h-6.2c0,0.9,0.3,1.6,0.7,2c0.5,0.5,1.1,0.7,1.9,0.7c0.6,0,1.1-0.1,1.5-0.2
			c0.5-0.1,1-0.3,1.5-0.5v1.6c-0.5,0.2-1,0.4-1.5,0.5C351,426.1,350.4,426.2,349.8,426.2z M349.4,418.2c-0.6,0-1.1,0.2-1.5,0.6
			s-0.6,1-0.7,1.7h4.2c0-0.8-0.2-1.3-0.6-1.7C350.5,418.4,350,418.2,349.4,418.2z"/>
		<path class="st0" d="M363,426h-2v-5.6c0-0.7-0.1-1.2-0.4-1.6c-0.3-0.3-0.7-0.5-1.4-0.5c-0.8,0-1.4,0.2-1.8,0.7s-0.6,1.3-0.6,2.4
			v4.6h-2v-9.1h1.6l0.3,1.2h0.1c0.3-0.4,0.7-0.8,1.2-1s1.1-0.4,1.7-0.4c2.2,0,3.4,1.1,3.4,3.3v6H363z"/>
		<path class="st0" d="M368.4,424.6c0.5,0,1-0.1,1.4-0.2v1.5c-0.2,0.1-0.5,0.2-0.8,0.2c-0.3,0.1-0.7,0.1-1.1,0.1
			c-1.9,0-2.8-1-2.8-2.9v-4.9h-1.3v-0.9l1.4-0.7l0.7-1.9h1.2v2h2.7v1.5h-2.7v4.9c0,0.5,0.1,0.8,0.4,1
			C367.7,424.5,368,424.6,368.4,424.6z"/>
		<path class="st0" d="M370.7,414.5c0-0.3,0.1-0.6,0.3-0.8s0.5-0.3,0.8-0.3s0.6,0.1,0.8,0.3s0.3,0.5,0.3,0.8s-0.1,0.6-0.3,0.8
			c-0.2,0.2-0.5,0.3-0.8,0.3c-0.4,0-0.6-0.1-0.8-0.3C370.8,415,370.7,414.8,370.7,414.5z M372.8,426h-2v-9.1h2V426z"/>
		<path class="st0" d="M380.6,426l-0.4-1.3h-0.1c-0.4,0.6-0.9,0.9-1.4,1.1s-1,0.3-1.8,0.3c-0.9,0-1.6-0.2-2.1-0.7s-0.8-1.2-0.8-2.1
			s0.4-1.7,1.1-2.1c0.7-0.5,1.8-0.7,3.3-0.8h1.6v-0.5c0-0.6-0.1-1-0.4-1.3s-0.7-0.4-1.3-0.4c-0.5,0-0.9,0.1-1.4,0.2
			c-0.4,0.1-0.9,0.3-1.3,0.5l-0.6-1.4c0.5-0.3,1.1-0.5,1.7-0.6s1.2-0.2,1.7-0.2c1.2,0,2.1,0.3,2.7,0.8s0.9,1.3,0.9,2.4v6.2h-1.4V426
			z M377.6,424.7c0.7,0,1.3-0.2,1.7-0.6c0.4-0.4,0.7-0.9,0.7-1.7v-0.8h-1.2c-0.9,0-1.6,0.2-2,0.5s-0.6,0.7-0.6,1.3
			c0,0.4,0.1,0.7,0.4,0.9C376.8,424.6,377.1,424.7,377.6,424.7z"/>
		<path class="st0" d="M385.9,426h-2v-12.9h2V426z"/>
		<path class="st0" d="M397,426l-3.6-10.1h-0.1c0.1,1.5,0.1,2.9,0.1,4.2v5.9h-1.8v-12.1h2.8l3.4,9.6h0.1l3.5-9.6h2.8V426h-1.9v-6
			c0-0.6,0-1.4,0-2.3c0-1,0.1-1.5,0.1-1.8h-0.1l-3.7,10.1L397,426L397,426z"/>
		<path class="st0" d="M406.4,414.5c0-0.3,0.1-0.6,0.3-0.8s0.5-0.3,0.8-0.3s0.6,0.1,0.8,0.3c0.2,0.2,0.3,0.5,0.3,0.8
			s-0.1,0.6-0.3,0.8c-0.2,0.2-0.5,0.3-0.8,0.3c-0.4,0-0.6-0.1-0.8-0.3C406.5,415,406.4,414.8,406.4,414.5z M408.5,426h-2v-9.1h2V426
			z"/>
		<path class="st0" d="M416.8,423.4c0,0.9-0.3,1.6-1,2.1s-1.6,0.7-2.8,0.7c-1.2,0-2.2-0.2-3-0.6v-1.7c1.1,0.5,2.1,0.7,3.1,0.7
			c1.2,0,1.8-0.4,1.8-1.1c0-0.2-0.1-0.4-0.2-0.6s-0.4-0.3-0.7-0.5c-0.3-0.2-0.7-0.4-1.3-0.6c-1.1-0.4-1.8-0.8-2.2-1.2
			c-0.4-0.4-0.6-0.9-0.6-1.6c0-0.8,0.3-1.4,1-1.8c0.6-0.4,1.5-0.6,2.6-0.6s2.1,0.2,3.1,0.7l-0.6,1.5c-1-0.4-1.9-0.6-2.5-0.6
			c-1,0-1.6,0.3-1.6,0.9c0,0.3,0.1,0.5,0.4,0.7s0.9,0.5,1.8,0.8c0.8,0.3,1.3,0.6,1.7,0.8c0.3,0.2,0.6,0.5,0.8,0.8
			C416.7,422.6,416.8,423,416.8,423.4z"/>
		<path class="st0" d="M424.3,423.4c0,0.9-0.3,1.6-1,2.1s-1.6,0.7-2.8,0.7c-1.2,0-2.2-0.2-3-0.6v-1.7c1.1,0.5,2.1,0.7,3.1,0.7
			c1.2,0,1.8-0.4,1.8-1.1c0-0.2-0.1-0.4-0.2-0.6s-0.4-0.3-0.7-0.5c-0.3-0.2-0.7-0.4-1.3-0.6c-1.1-0.4-1.8-0.8-2.2-1.2
			c-0.4-0.4-0.6-0.9-0.6-1.6c0-0.8,0.3-1.4,1-1.8c0.6-0.4,1.5-0.6,2.6-0.6s2.1,0.2,3.1,0.7l-0.6,1.5c-1-0.4-1.9-0.6-2.5-0.6
			c-1,0-1.6,0.3-1.6,0.9c0,0.3,0.1,0.5,0.4,0.7s0.9,0.5,1.8,0.8c0.8,0.3,1.3,0.6,1.7,0.8c0.3,0.2,0.6,0.5,0.8,0.8
			C424.2,422.6,424.3,423,424.3,423.4z"/>
		<path class="st0" d="M425.5,414.5c0-0.3,0.1-0.6,0.3-0.8s0.5-0.3,0.8-0.3s0.6,0.1,0.8,0.3s0.3,0.5,0.3,0.8s-0.1,0.6-0.3,0.8
			c-0.2,0.2-0.5,0.3-0.8,0.3c-0.4,0-0.6-0.1-0.8-0.3C425.6,415,425.5,414.8,425.5,414.5z M427.6,426h-2v-9.1h2V426z"/>
		<path class="st0" d="M437.8,421.4c0,1.5-0.4,2.7-1.2,3.5c-0.8,0.8-1.9,1.3-3.3,1.3c-0.9,0-1.6-0.2-2.3-0.6
			c-0.7-0.4-1.2-0.9-1.5-1.7c-0.4-0.7-0.5-1.6-0.5-2.5c0-1.5,0.4-2.6,1.2-3.5c0.8-0.8,1.9-1.2,3.3-1.2c1.3,0,2.4,0.4,3.2,1.3
			C437.4,418.8,437.8,420,437.8,421.4z M431,421.4c0,2.1,0.8,3.2,2.4,3.2s2.4-1.1,2.4-3.2s-0.8-3.1-2.4-3.1c-0.8,0-1.4,0.3-1.8,0.8
			C431.2,419.6,431,420.4,431,421.4z"/>
		<path class="st0" d="M447.4,426h-2v-5.6c0-0.7-0.1-1.2-0.4-1.6c-0.3-0.3-0.7-0.5-1.4-0.5c-0.8,0-1.4,0.2-1.8,0.7s-0.6,1.3-0.6,2.4
			v4.6h-2v-9.1h1.6l0.3,1.2h0.1c0.3-0.4,0.7-0.8,1.2-1s1.1-0.4,1.7-0.4c2.2,0,3.4,1.1,3.4,3.3v6H447.4z"/>
	</g>
	<g>
		<path class="st0" d="M275.4,455h-12v-1.8l4.8-4.8c1.5-1.5,2.4-2.5,2.9-3.2c0.5-0.6,0.8-1.3,1.1-1.9c0.2-0.6,0.4-1.2,0.4-1.9
			c0-1-0.3-1.7-0.9-2.3c-0.6-0.6-1.4-0.9-2.5-0.9c-0.8,0-1.5,0.1-2.2,0.4s-1.4,0.7-2.3,1.4l-1.1-1.4c1.7-1.4,3.5-2.1,5.5-2.1
			c1.7,0,3.1,0.4,4,1.3c1,0.9,1.5,2.1,1.5,3.5c0,1.2-0.3,2.3-1,3.4s-1.9,2.6-3.7,4.3l-4,3.9v0.1h9.4v2H275.4z"/>
		<path class="st0" d="M290.3,445.8c0,3.2-0.5,5.5-1.5,7.1s-2.5,2.3-4.6,2.3c-2,0-3.5-0.8-4.5-2.4s-1.5-3.9-1.5-7
			c0-3.2,0.5-5.5,1.5-7.1c1-1.5,2.5-2.3,4.5-2.3s3.5,0.8,4.5,2.4C289.7,440.4,290.3,442.8,290.3,445.8z M280.3,445.8
			c0,2.7,0.3,4.6,0.9,5.8c0.6,1.2,1.6,1.8,3,1.8s2.4-0.6,3-1.8c0.6-1.2,0.9-3.2,0.9-5.8c0-2.6-0.3-4.6-0.9-5.8
			c-0.6-1.2-1.6-1.8-3-1.8s-2.4,0.6-3,1.8C280.6,441.2,280.3,443.2,280.3,445.8z"/>
		<path class="st0" d="M300.6,455h-2v-13c0-1.1,0-2.1,0.1-3.1c-0.2,0.2-0.4,0.4-0.6,0.6s-1.2,1-3,2.4l-1.1-1.4l4.8-3.7h1.8
			L300.6,455L300.6,455z"/>
		<path class="st0" d="M307.9,447.2c0-3.6,0.7-6.3,2.1-8.1c1.4-1.8,3.5-2.7,6.2-2.7c0.9,0,1.7,0.1,2.2,0.2v1.8
			c-0.6-0.2-1.4-0.3-2.2-0.3c-2,0-3.5,0.6-4.5,1.8c-1,1.2-1.6,3.1-1.7,5.8h0.2c0.9-1.4,2.4-2.2,4.4-2.2c1.6,0,2.9,0.5,3.9,1.5
			c0.9,1,1.4,2.3,1.4,4c0,1.9-0.5,3.4-1.6,4.5c-1,1.1-2.4,1.6-4.2,1.6c-1.9,0-3.4-0.7-4.5-2.1C308.4,451.7,307.9,449.7,307.9,447.2z
			 M314,453.5c1.2,0,2.1-0.4,2.8-1.1c0.7-0.7,1-1.8,1-3.2c0-1.2-0.3-2.2-0.9-2.9c-0.6-0.7-1.5-1-2.7-1c-0.8,0-1.4,0.2-2.1,0.5
			c-0.6,0.3-1.1,0.7-1.5,1.3c-0.4,0.5-0.6,1.1-0.6,1.7c0,0.9,0.2,1.7,0.5,2.4c0.3,0.7,0.8,1.3,1.4,1.8
			C312.6,453.3,313.3,453.5,314,453.5z"/>
	</g>
	<g>
		<path class="st0" d="M224,488c-2.4,0.3-2.5,0.5-2.5,2.8v3.2c0,1.3,0,2.6,0.2,3.6c-2.4,0.5-5.3,1.4-8.6,1.4
			c-8.5,0-14.1-5.4-14.1-13.1c0-8.3,6.6-12.9,14.2-12.9c4,0,6.8,0.9,7.9,1c0.1,1.4,0.3,3.8,0.6,6.2l-1.1,0.2
			c-0.9-3.2-2.1-4.7-4.5-5.5c-0.9-0.3-2.2-0.4-3.4-0.4c-5.8,0-9.7,3.8-9.7,11c0,6.1,3.1,12.1,10.6,12.1c1.3,0,2.5-0.2,3.2-0.6
			c0.8-0.5,1.3-1,1.3-2.5v-3.1c0-2.8-0.3-3.1-4-3.4v-1.1h9.8v1.1H224z"/>
		<path class="st0" d="M225.8,498.4v-1.1c2.4-0.2,2.7-0.4,2.7-2.9v-18.3c0-2.3-0.2-2.6-2.6-2.9v-1c2.1-0.2,4.4-0.8,5.7-1.3
			c0,1.8,0,3.6,0,5.4v18c0,2.5,0.2,2.7,2.7,2.9v1.1L225.8,498.4L225.8,498.4z"/>
		<path class="st0" d="M244.6,481.2c4.8,0,8.3,3.6,8.3,8.6c0,6.2-4.6,9.1-8.3,9.1c-5.3,0-8.5-4.2-8.5-8.5
			C236.1,484.1,241,481.2,244.6,481.2z M244.1,482.5c-2.3,0-4.4,2.3-4.4,6.7c0,4.8,2.1,8.4,5.3,8.4c2.4,0,4.4-1.7,4.4-6.9
			C249.3,486.1,247.5,482.5,244.1,482.5z"/>
		<path class="st0" d="M263.2,481.5c0.6-0.3,1.2-0.4,1.7-0.4c4.1,0,7.5,3.6,7.5,8.1c0,5.2-4.4,9.6-9.4,9.6c-1.6,0-3.8-0.4-5.9-1.4
			c0-1,0-2,0-3.1V476c0-2.4-0.1-2.6-2.6-2.8v-1c1.8-0.2,4.2-0.8,5.6-1.3c0,1.5,0,3,0,4.5v7.4L263.2,481.5z M260.1,493.9
			c0,0.6,0,1,0.2,1.3c0.5,1,1.8,2.1,3.6,2.1c3.2,0,5.1-2.8,5.1-7.1c0-4.4-2.6-6.9-5.8-6.9c-1.1,0-2.4,0.3-3.1,0.7L260.1,493.9
			L260.1,493.9z"/>
		<path class="st0" d="M287.1,498.8c-0.6,0-1.4-0.3-1.8-0.7c-0.5-0.5-0.7-1-0.9-1.7c-1.5,1-3.4,2.4-4.6,2.4c-2.7,0-4.7-2.3-4.7-4.7
			c0-1.9,1-3.1,3.1-3.8c2.3-0.8,5.2-1.8,6-2.5V487c0-2.7-1.4-4.3-3.4-4.3c-0.9,0-1.4,0.4-1.8,0.9s-0.7,1.4-1,2.5
			c-0.2,0.6-0.5,0.9-1.1,0.9c-0.7,0-1.7-0.8-1.7-1.7c0-0.5,0.5-1,1.3-1.5c1.1-0.8,3.3-2.2,5.5-2.7c1.1,0,2.3,0.3,3.2,1
			c1.3,1.1,1.9,2.4,1.9,4.4c0,2.1,0,5.3,0,7.4c0,1.8,0.6,2.3,1.3,2.3c0.5,0,1-0.2,1.4-0.4l0.4,1.1L287.1,498.8z M284.3,489.2
			c-0.8,0.4-2.7,1.2-3.6,1.6c-1.5,0.6-2.3,1.4-2.3,2.8c0,2,1.5,2.9,2.7,2.9c1,0,2.4-0.6,3.1-1.4C284.3,493.3,284.3,491,284.3,489.2z
			"/>
		<path class="st0" d="M291,498.4v-1.1c2.4-0.2,2.7-0.4,2.7-2.9v-18.3c0-2.3-0.2-2.6-2.6-2.9v-1c2.1-0.2,4.4-0.8,5.7-1.3
			c0,1.8,0,3.6,0,5.4v18c0,2.5,0.2,2.7,2.7,2.9v1.1L291,498.4L291,498.4z"/>
		<path class="st0" d="M320,473.6c2.7,0,4.9,0.5,6.5,1.6c1.5,1.1,2.5,2.9,2.5,5.4c0,5.6-4.8,7.8-8.4,7.8c-0.4,0-0.8,0-1-0.1
			l-2.6-0.7v6c0,3.2,0.3,3.3,3.8,3.7v1.1h-10.5v-1.1c3.3-0.3,3.4-0.6,3.4-3.7v-15.2c0-3.4-0.4-3.5-3.4-3.8v-1.1h9.7V473.6z
			 M316.9,486.4c0.5,0.2,1.5,0.5,2.8,0.5c2.6,0,5.7-1.3,5.7-6.1c0-4.2-2.7-5.9-6-5.9c-1.1,0-1.9,0.2-2.1,0.5
			c-0.3,0.3-0.4,0.7-0.4,1.8V486.4z"/>
		<path class="st0" d="M344.6,495.1c-2.4,3.1-5.1,3.7-6.3,3.7c-4.7,0-7.5-3.8-7.5-8.2c0-2.6,0.9-5,2.5-6.7c1.6-1.8,3.7-2.8,5.7-2.8
			c3.3,0,5.8,2.9,5.8,5.9c0,0.8-0.2,1.1-0.8,1.3c-0.8,0.2-5.7,0.5-10.2,0.6c-0.1,5.1,3,7.2,5.7,7.2c1.6,0,3-0.6,4.4-1.9L344.6,495.1
			z M338,482.6c-1.8,0-3.5,1.6-4,4.7c2.1,0,4.3,0,6.5-0.1c0.7,0,0.9-0.2,0.9-0.8C341.5,484.4,340.1,482.6,338,482.6z"/>
		<path class="st0" d="M359.2,498.8c-0.6,0-1.4-0.3-1.8-0.7c-0.5-0.5-0.7-1-0.9-1.7c-1.5,1-3.4,2.4-4.6,2.4c-2.7,0-4.7-2.3-4.7-4.7
			c0-1.9,1-3.1,3.1-3.8c2.3-0.8,5.2-1.8,6-2.5V487c0-2.7-1.4-4.3-3.4-4.3c-0.9,0-1.4,0.4-1.8,0.9s-0.7,1.4-1,2.5
			c-0.2,0.6-0.5,0.9-1.1,0.9c-0.7,0-1.7-0.8-1.7-1.7c0-0.5,0.5-1,1.3-1.5c1.1-0.8,3.3-2.2,5.5-2.7c1.1,0,2.3,0.3,3.2,1
			c1.3,1.1,1.9,2.4,1.9,4.4c0,2.1,0,5.3,0,7.4c0,1.8,0.6,2.3,1.3,2.3c0.5,0,1-0.2,1.4-0.4l0.4,1.1L359.2,498.8z M356.4,489.2
			c-0.8,0.4-2.7,1.2-3.6,1.6c-1.5,0.6-2.3,1.4-2.3,2.8c0,2,1.5,2.9,2.7,2.9c1,0,2.4-0.6,3.1-1.4C356.4,493.3,356.4,491,356.4,489.2z
			"/>
		<path class="st0" d="M373.5,486.2c-0.7-2.2-1.8-3.7-4.1-3.7c-1.3,0-2.4,1-2.4,2.5c0,1.7,1.3,2.5,3.3,3.4c3.1,1.4,4.9,2.6,4.9,5.2
			c0,3.5-3.2,5.3-6.2,5.3c-2,0-3.7-0.6-4.5-1.1c-0.2-1.1-0.5-3.3-0.7-4.5l1.1-0.2c0.7,2.4,2,4.5,4.7,4.5c1.5,0,2.7-1,2.7-2.6
			c0-1.7-1-2.6-3.1-3.6c-2.5-1.1-4.9-2.4-4.9-5.3c0-2.8,2.4-4.9,6-4.9c1.6,0,3,0.4,3.7,0.5c0.1,0.9,0.4,3.3,0.6,4.2L373.5,486.2z"/>
		<path class="st0" d="M391.8,495.1c-2.4,3.1-5.1,3.7-6.3,3.7c-4.7,0-7.5-3.8-7.5-8.2c0-2.6,0.9-5,2.5-6.7c1.6-1.8,3.7-2.8,5.7-2.8
			c3.3,0,5.8,2.9,5.8,5.9c0,0.8-0.2,1.1-0.8,1.3c-0.8,0.2-5.7,0.5-10.2,0.6c-0.1,5.1,3,7.2,5.7,7.2c1.6,0,3-0.6,4.4-1.9L391.8,495.1
			z M385.2,482.6c-1.8,0-3.5,1.6-4,4.7c2.1,0,4.3,0,6.5-0.1c0.7,0,0.9-0.2,0.9-0.8C388.7,484.4,387.3,482.6,385.2,482.6z"/>
	</g>
	<g>
		<path class="st0" d="M210.9,514.6c-0.2-0.7-0.4-1.2-0.8-1.8c-0.5-0.8-0.9-1-2.4-1h-2.8c-0.8,0-0.8,0.1-0.8,0.8v5.5h3.3
			c1.9,0,2-0.3,2.4-1.9h0.8v5h-0.8c-0.3-1.7-0.5-2-2.4-2h-3.3v4.2c0,2.1,0.3,2.2,2.6,2.3v0.7h-7.3v-0.7c2.1-0.1,2.4-0.3,2.4-2.3V514
			c0-2.1-0.3-2.2-2.4-2.3V511h8.3c2.4,0,3.3,0,3.7,0c0,0.9,0.1,2.5,0.3,3.6L210.9,514.6z"/>
		<path class="st0" d="M225.7,510.6c4.5,0,8.5,3.1,8.5,7.8c0,5.1-3.8,8.3-8.7,8.3c-5,0-8.7-3.5-8.7-7.9
			C216.9,514.5,220.2,510.6,225.7,510.6z M225.2,511.4c-2.9,0-5.6,2.2-5.6,6.7c0,4.4,2.7,7.7,6.4,7.7c3.2,0,5.6-2.1,5.6-6.7
			C231.6,514.1,228.6,511.4,225.2,511.4z"/>
		<path class="st0" d="M257.4,511.6c-1.7,0.1-2.3,0.5-2.3,1.6c0,0.5-0.1,1.5-0.1,3.7v2.6c0,2.4-0.3,4.3-1.8,5.7
			c-1.2,1.2-3,1.5-4.8,1.5c-1.5,0-3.1-0.3-4.3-1.1c-1.6-1.1-2.3-2.7-2.3-5.5v-6c0-2.1-0.2-2.3-2.3-2.4V511h6.9v0.7
			c-2.1,0.1-2.3,0.3-2.3,2.4v5.9c0,3.5,1.8,5.4,5,5.4c3.7,0,4.9-2.1,4.9-6V517c0-2.2-0.1-3.1-0.1-3.7c-0.1-1.1-0.7-1.5-2.6-1.6V511
			h6.3v0.6H257.4z"/>
		<path class="st0" d="M279.6,511.6c-1.7,0.2-2.2,0.4-2.3,1.5c0,0.8-0.1,1.8-0.1,4v9.5h-1L265,514.1v5.9c0,2.1,0.1,3.2,0.1,3.9
			c0.1,1.2,0.7,1.6,2.6,1.7v0.7h-6.4v-0.7c1.6-0.1,2.3-0.5,2.4-1.6c0.1-0.8,0.1-1.8,0.1-4v-6c0-0.7-0.1-1-0.5-1.6
			c-0.5-0.6-1-0.7-2.3-0.9v-0.7h3.9l11.1,11.9V517c0-2.2-0.1-3.2-0.1-3.9c-0.1-1.1-0.7-1.4-2.8-1.5v-0.7h6.5L279.6,511.6
			L279.6,511.6z"/>
		<path class="st0" d="M291.6,510.9c3.7,0,6,0.7,7.7,2.1c1.3,1.1,2.2,2.8,2.2,5.1c0,2.8-1.3,5-3.3,6.4s-4.5,1.9-7.8,1.9h-6.1v-0.7
			c2.3-0.2,2.4-0.4,2.4-2.3v-9.5c0-2-0.3-2.1-2.4-2.3v-0.7L291.6,510.9L291.6,510.9z M289,523.1c0,1.8,0.8,2.3,2.8,2.3
			c4.7,0,7.1-2.9,7.1-7.1c0-2.6-1-4.5-3-5.7c-1.2-0.7-2.7-0.9-4.5-0.9c-1.2,0-1.8,0.1-2.1,0.3c-0.2,0.1-0.3,0.4-0.3,1.3V523.1z"/>
		<path class="st0" d="M315.9,526.3v-0.7c1.7-0.2,1.9-0.4,1.5-1.3c-0.3-0.9-0.9-2.1-1.4-3.6h-5.7c-0.4,1.1-0.8,2-1.2,3
			c-0.6,1.5-0.2,1.7,1.9,2v0.7h-6.1v-0.7c1.7-0.2,2.1-0.4,3-2.5l5.4-12.4l0.8-0.1c1.7,4.1,3.5,8.5,5.1,12.6c0.8,2.1,1.1,2.3,2.9,2.4
			v0.7h-6.2V526.3z M313.3,513.7c-0.8,2-1.7,4.2-2.5,6.1h4.9L313.3,513.7z"/>
		<path class="st0" d="M337.7,514.6c-0.2-0.8-0.6-1.5-0.8-2c-0.4-0.6-0.7-0.8-2.1-0.8h-2.6v11.5c0,1.8,0.2,2.1,2.7,2.3v0.7h-7.6
			v-0.7c2.4-0.1,2.6-0.4,2.6-2.3v-11.5h-2.4c-1.4,0-1.9,0.1-2.3,0.9c-0.3,0.5-0.5,1-0.9,1.9h-0.8c0.2-1.4,0.3-2.9,0.4-4.3h0.6
			c0.4,0.6,0.7,0.5,1.4,0.5h10.4c0.7,0,0.9-0.1,1.3-0.5h0.6c0,1.1,0.1,2.8,0.2,4.2L337.7,514.6z"/>
		<path class="st0" d="M343.3,526.3v-0.7c2.1-0.2,2.4-0.3,2.4-2.3v-9.4c0-2-0.2-2.1-2.4-2.3v-0.7h7v0.7c-2.2,0.2-2.4,0.3-2.4,2.3
			v9.4c0,2,0.2,2.1,2.4,2.3v0.7H343.3z"/>
		<path class="st0" d="M364.3,510.6c4.5,0,8.5,3.1,8.5,7.8c0,5.1-3.8,8.3-8.7,8.3c-5,0-8.7-3.5-8.7-7.9
			C355.4,514.5,358.8,510.6,364.3,510.6z M363.8,511.4c-2.9,0-5.6,2.2-5.6,6.7c0,4.4,2.7,7.7,6.4,7.7c3.2,0,5.6-2.1,5.6-6.7
			C370.1,514.1,367.2,511.4,363.8,511.4z"/>
		<path class="st0" d="M396.1,511.6c-1.7,0.2-2.2,0.4-2.3,1.5c0,0.8-0.1,1.8-0.1,4v9.5h-1l-11.2-12.4v5.9c0,2.1,0.1,3.2,0.1,3.9
			c0.1,1.2,0.7,1.6,2.6,1.7v0.7h-6.4v-0.7c1.6-0.1,2.3-0.5,2.4-1.6c0.1-0.8,0.1-1.8,0.1-4v-6c0-0.7-0.1-1-0.5-1.6
			c-0.5-0.6-1-0.7-2.3-0.9v-0.7h3.9l11.1,11.9V517c0-2.2-0.1-3.2-0.1-3.9c-0.1-1.1-0.7-1.4-2.8-1.5v-0.7h6.5L396.1,511.6
			L396.1,511.6z"/>
	</g>
	<path class="st0" d="M148.4,478.7c1.1-2.8,3.8-6,3.6-5.5l-0.7,2.9l5.3-1.6l-5.2,4c0,0,0,2.3,0.3,3.7c0.3,1.4,1.2,3.6,1.2,3.6
		s-2-2.7-2.6-3.7c-0.7-1.3-0.9-2.6-0.9-2.6l-2.1,4.8c0,0,0.2-2.6,0.5-3.6S148.4,478.7,148.4,478.7z"/>
	
		<ellipse transform="matrix(0.5987 -0.801 0.801 0.5987 -318.4263 312.9062)" class="st0" cx="153.1" cy="474.2" rx="1.4" ry="0.6"/>
	
		<ellipse transform="matrix(0.8121 -0.5836 0.5836 0.8121 -243.3952 196.0918)" class="st0" cx="182.7" cy="475.9" rx="0.4" ry="1"/>
	
		<ellipse transform="matrix(0.9967 -8.159108e-02 8.159108e-02 0.9967 -37.6088 15.2841)" class="st0" cx="168.2" cy="467.8" rx="1.4" ry="0.6"/>
	
		<ellipse transform="matrix(0.998 -6.294586e-02 6.294586e-02 0.998 -30.4908 10.3489)" class="st0" cx="149" cy="489.1" rx="0.6" ry="1.4"/>
	<ellipse transform="matrix(0.866 -0.5 0.5 0.866 -228.6784 142.5685)" class="st0" cx="151.7" cy="498" rx="0.4" ry="1.4"/>
	<ellipse transform="matrix(0.8832 -0.469 0.469 0.8832 -215.0841 142.3696)" class="st0" cx="178.3" cy="503" rx="1.4" ry="0.4"/>
	
		<ellipse transform="matrix(0.1623 -0.9867 0.9867 0.1623 -326.7383 594.8517)" class="st0" cx="187" cy="489.9" rx="1.2" ry="0.4"/>
	<path class="st0" d="M147.7,490.9c0,0,1.6,0.4,2.2,0s1-5.8,1-5.8l1.6,5.6l10.4-0.2c0,0-3.2,1.4-5.4,1.8s-3.7,0.9-3.7,0.9
		s-0.2,0.8,0.3,1.4s3.3,3.7,3.3,3.7s-6.2-5.1-6.4-5.1c-0.2-0.1-2-0.9-2.4-1.3S147.7,490.9,147.7,490.9z"/>
	<path class="st0" d="M156.8,496.1c0.5,0.1,3.8,1.5,3.8,1.5s2.3,0.4,3.3-0.8c1-1.2,4-3.7,4-3.7l-1.4,4.4c0,0-0.4,1.2,0.1,1.7
		s6.7,2.4,6.7,2.4s-2.3,0.4-4.4,0.1c-2.1-0.3-3.4-0.7-3.4-0.7s-0.5,0.1-0.5,0.4s0.1,3.2,0.1,3.2s-1.7-1.7-2.2-2.7s-0.9-2-1.3-2.5
		c-0.4-0.4-1.4-0.6-2.7-1.4C157.3,497,156.8,496.1,156.8,496.1z"/>
	<path class="st0" d="M156.5,475.6c0,0,1.3,2.4,2.7,2.8c1.5,0.4,3,0,3.7-0.3s5.2-1.4,5.2-1.4l-5.3,3.6c0,0-0.9,0.6-0.5,1.8
		s5.6,7.1,5.6,7.1s-5.3-2.8-6.7-3.7s-1.9-1.9-2.2-2.1c-0.2-0.2-1.1-0.2-1.2,0.1c-0.2,0.3-3.3,5.1-3.3,5.1s0.3-3.4,1.1-5.5
		s1.7-3.1,1.4-4.1s-0.6-1.4-0.7-2.1S156.5,475.6,156.5,475.6z"/>
	<path class="st0" d="M167,473.7c0,0,3.4,2.2,3.9,2.6c0.5,0.3,1.5,1.1,1.4,1.9c-0.2,0.8-3.2,4.5-3.5,5c-0.4,0.6-1.7,2.1-1.7,2.1
		s3.9-2.1,5.2-3.1s3-2.5,3.3-2.6s0.8,0.1,1.3,0.7s3.7,4.7,3.7,4.7s-0.6-3.8-1.7-5.5s-1.9-2-2-2.7s0.6-1.6,0.5-2.3s-0.4-1.6-0.4-1.6
		s-1.1,2.5-1.9,2.6c-0.8,0.1-1.4,0.3-3.2-0.5s-3.4-1-3.7-1.1C167.7,473.7,167,473.7,167,473.7z"/>
	<path class="st0" d="M164.4,490.1c0,0,8.5,0.9,9.5,0.3c1-0.5,3.2-3,3.6-3.6c0.4-0.6,1.1-1.7,1.1-1.7l0.1,5.4c0,0,3.3,2.2,3.5,2.4
		s1.9,1.2,1.9,1.2s-4.7-0.3-5-0.3s-1.7-0.2-2,0s-1.5,2.2-1.9,3s-1.7,2.5-1.7,2.5s-0.2-3.9-0.3-4.6s0.2-1.5-0.3-1.9s-3.9-0.9-5.8-1.6
		C165.2,490.4,164.4,490.1,164.4,490.1z"/>
	<path class="st0" d="M167.3,503.3c0,0,5.8,1.1,6.7,0.9c1-0.2,4.6-4.3,4.6-4.3l-2.6,4.3c0,0,2.6,0,4.1-0.9s-2.8,2-5.8,2.7
		s-6.6,1.1-6.6,1.1s2-0.5,3.1-0.7s1.8-0.2,1.8-0.6s-1-0.2-2.6-1S167.3,503.3,167.3,503.3z"/>
	<path class="st0" d="M151.2,495.4l2,4.2c0,0,0.3,0.6-0.2,0.6s-3.1-2.8-3.9-3.9s1.7,3.9,4.5,6.2c2.8,2.3,7.3,4.2,7.5,4.2
		s0.4-0.2-0.8-1s-3.8-2.1-4-2.3c-0.2-0.2,1.8-0.2,3.2-0.2c1.3,0,2.6,0.2,2.6,0s-0.5-0.4-1.9-0.6c-2.4-0.4-3.8-0.8-4.5-1.6
		c-1.5-1.7-2.8-3-3.5-4.1C151.5,495.7,151.2,495.4,151.2,495.4z"/>
	<path class="st0" d="M180.6,500.1c0.1-0.1,4.4-4.5,4.7-5.1c0.3-0.5,0.5-1.5,0.3-1.9s-1-1.5-1.2-1.8s-0.6-1.1-0.5-1.3
		s0.5-0.3,0.9,0.3c0.4,0.6,0.8,1,1.1,1.3s0.9,0.4,1.1,0.2c0.1-0.2,0.8-1.5,1-2.7c0.2-1.1,0.3-0.1,0.2,0.2s-0.3,2.7-1.8,5.1
		c-1.4,2.4-2.6,3.4-3.6,4.3C181.2,500.2,180.6,500.1,180.6,500.1z"/>
	
		<ellipse transform="matrix(0.2189 -0.9757 0.9757 0.2189 -357.8693 544.7354)" class="st0" cx="161.3" cy="495.9" rx="1" ry="1.3"/>
	
		<ellipse transform="matrix(7.347216e-02 -0.9973 0.9973 7.347216e-02 -327.2271 624.5064)" class="st0" cx="172.5" cy="488.4" rx="1.1" ry="1.9"/>
	<ellipse transform="matrix(0.9479 -0.3185 0.3185 0.9479 -143.4822 76.0723)" class="st0" cx="160.9" cy="476.8" rx="1.6" ry="1"/>
	
		<ellipse transform="matrix(0.296 -0.9552 0.9552 0.296 -330.2879 499.1649)" class="st0" cx="173.5" cy="473.6" rx="0.9" ry="1.4"/>
	<path class="st0" d="M157.8,469.1c0,0,0.9-0.2,1.9-0.1c0.2,0,0.3,1,0.2,1.3l-1.8,4c0,0,0.1,0.2,0.4,0c0.2-0.2,3.6-4.1,4.5-4.4
		s5.5,0.1,6.4,0.3s3.3,0.7,3.3,0.7s0.3-0.1,0.1-0.3s-2.2-1.4-6.3-1.9c-1-0.1-1.7-0.1-1.7-0.3c0-0.7,2-1.3,2.7-1.6
		c0.6-0.2,1.9-0.2,1.8-0.3c0-0.3-3.1-0.3-4.5,0c-1.9,0.4-3.3,1.2-3.3,1.2s-3.5,0.7-4.6,1.3s-0.8,0.5-0.6,0.5
		C156.7,469.4,157.8,469.1,157.8,469.1z"/>
	<path class="st0" d="M178.9,475.9l4.5,1.8c0,0,0.7,0.3,0.8,0c0-0.3-0.2-2.4-0.2-2.4s1,2.5,1.6,3.6c0.3,0.6,1,1.8,1.2,2.8
		s0.3,1.3,0.4,2.1c0.1,0.7,0.2,2,0.2,2s-1.1-3.6-1.5-3.9c-0.8-0.6-0.8,0.5-1.6,1.8c-0.2,0.3-1.3,1.6-1.3,1.6s-1.5,1.2-1.6,1.3
		c-0.1,0-0.1-0.4,0.7-1.3c0.9-0.9,1.7-3.9,1.5-5s-0.7-1.3-1.3-1.9s-1.4-1-1.4-1l-2-1.3L178.9,475.9z"/>
	<path class="st0" d="M172.4,467l2.1,1.3l-2.8,0.3c0,0-1.1,0.3,0.1,0.4c1.2,0,3.8,0.5,4.5,0.9s3.8,4.6,3.8,4.6s0.2-0.1-0.4-1.5
		c-0.6-1.4-1.5-3-1.5-3s0.9,0.4,2,1.2c0.4,0.3,1.1,0.9,1.1,0.7s-0.2-1.1-2.7-2.6s-2.7-1.5-3.6-1.8C172.6,466.6,172.4,467,172.4,467z
		"/>
	<g>
		<path class="st0" d="M142,340.9c0,0-1.9-7.6,1.2-13.2c3.1-5.6,8-6.7,8-6.7s2.7,6.9-0.6,12.3C147.3,338.7,142,340.9,142,340.9z"/>
		<path class="st0" d="M151.2,337.3c0,0,3.6-4.9,8.5-5.9s8,1.4,8,1.4s-2.8,5-7.7,5.8C155.1,339.3,151.2,337.3,151.2,337.3z"/>
		<path class="st0" d="M140.2,341.7c0,0,7.5-2.3,13.3,0.5s7.1,7.6,7.1,7.6s-6.7,3-12.3,0C142.7,346.9,140.2,341.7,140.2,341.7z"/>
		<path class="st0" d="M124.4,350.8c0,0,7-3.4,13.2-1.5s8.2,6.5,8.2,6.5s-6.2,4-12.2,1.9C127.6,355.5,124.4,350.8,124.4,350.8z"/>
		<path class="st0" d="M110.1,362.7c0,0,6.4-4.5,12.8-3.6s9.1,5.1,9.1,5.1s-5.5,4.9-11.8,3.8S110.1,362.7,110.1,362.7z"/>
		<path class="st0" d="M97.3,377.8c0,0,5.8-5.9,12.6-6.2c6.8-0.3,10.5,3.5,10.5,3.5s-4.8,6.2-11.5,6.2
			C102.2,381.4,97.3,377.8,97.3,377.8z"/>
		<path class="st0" d="M87.7,394.7c0,0,4.6-6.9,11.2-8.5s11,1.5,11,1.5s-3.5,7-10.1,8.3C93.1,397.3,87.7,394.7,87.7,394.7z"/>
		<path class="st0" d="M81.2,413c0,0,3.5-7.9,10-10.6c6.5-2.8,11.5-0.4,11.5-0.4s-2.4,7.7-8.9,10.2S81.2,413,81.2,413z"/>
		<path class="st0" d="M78.2,432.1c0,0,2-8.4,7.8-12.3c5.9-3.9,11.2-2.6,11.2-2.6s-0.9,8.1-6.8,11.7
			C84.5,432.6,78.2,432.1,78.2,432.1z"/>
		<path class="st0" d="M78.4,451.7c0,0,0.6-9,6-14s11.1-4.5,11.1-4.5s0.4,8.5-5.1,13.2S78.4,451.7,78.4,451.7z"/>
		<path class="st0" d="M82.4,470.2c0,0-1.1-8.9,3.3-14.9c4.3-6,10.1-6.5,10.1-6.5s2,8.2-2.5,13.9C88.7,468.5,82.4,470.2,82.4,470.2z
			"/>
		<path class="st0" d="M88.5,487.4c0,0-2.3-8.7,1.2-15.2s9.1-7.8,9.1-7.8s3.1,7.9-0.6,14.2C94.5,484.9,88.5,487.4,88.5,487.4z"/>
		<path class="st0" d="M87.2,485.8c0,0-8.7,2.3-15.2-1.2s-7.8-9.1-7.8-9.1s7.9-3.1,14.2,0.6S87.2,485.8,87.2,485.8z"/>
		<path class="st0" d="M96.9,502.2c0,0-8.4,4-15.7,1.7c-7.3-2.3-9.7-7.8-9.7-7.8s7.4-4.7,14.6-2.1C93.2,496.5,96.9,502.2,96.9,502.2
			z"/>
		<path class="st0" d="M109.5,516.9c0,0-7.8,5.7-15.7,4.7s-11.4-6.1-11.4-6.1s6.7-6.2,14.4-4.9C104.7,511.9,109.5,516.9,109.5,516.9
			z"/>
		<path class="st0" d="M123.7,529.4c0,0-6.9,6.8-14.8,7s-12.2-4.3-12.2-4.3s5.7-7.1,13.5-7.1S123.7,529.4,123.7,529.4z"/>
		<path class="st0" d="M141.3,539.1c0,0-6.1,8.2-14.3,9.7s-13.4-2.5-13.4-2.5s4.8-8.3,13-9.5S141.3,539.1,141.3,539.1z"/>
		<path class="st0" d="M125.8,530c0,0-6.8-6.9-7-14.8c-0.2-7.9,4.3-12.2,4.3-12.2s7.1,5.7,7.1,13.5C130,524.4,125.8,530,125.8,530z"
			/>
		<path class="st0" d="M143.4,539.2c0,0-8.3-5.4-10.2-13.3s1.7-13.1,1.7-13.1s8.4,4.2,10,12C146.4,532.7,143.4,539.2,143.4,539.2z"
			/>
		<path class="st0" d="M162.3,546c0,0-9.7-4.1-13.3-12c-3.5-7.9-0.8-14.1-0.8-14.1s9.6,2.7,12.8,10.7
			C164.2,538.5,162.3,546,162.3,546z"/>
		<path class="st0" d="M159.7,546c0,0-4.7,9.5-12.8,12.5s-14.1-0.1-14.1-0.1s3.3-9.4,11.5-12.1C152.5,543.7,159.7,546,159.7,546z"/>
		<path class="st0" d="M98.7,504.5c0,0-4.4-8.5-2.3-16c2.1-7.6,7.6-10.2,7.6-10.2s5.1,7.4,2.7,14.8
			C104.3,500.5,98.7,504.5,98.7,504.5z"/>
		<path class="st0" d="M111.2,518.6c0,0-5.7-8.1-4.6-16.1s6.3-11.5,6.3-11.5s6.2,6.9,4.8,14.8C116.4,513.7,111.2,518.6,111.2,518.6z
			"/>
		<path class="st0" d="M81.3,467.9c0,0-8.9,1.1-14.9-3.3c-6-4.3-6.5-10.1-6.5-10.1s8.2-2,13.9,2.5C79.6,461.6,81.3,467.9,81.3,467.9
			z"/>
		<path class="st0" d="M78.2,449.2c0,0-8.8-0.6-13.8-6s-4.4-11-4.4-11s8.3-0.4,13,5S78.2,449.2,78.2,449.2z"/>
		<path class="st0" d="M77.9,430c0,0-8.3-2.3-12-8.3c-3.7-6-2.1-11.3-2.1-11.3s8,1.2,11.5,7.3C78.7,423.8,77.9,430,77.9,430z"/>
		<path class="st0" d="M81.8,410.6c0,0-7.9-3.5-10.6-10s-0.4-11.5-0.4-11.5s7.7,2.4,10.2,8.9S81.8,410.6,81.8,410.6z"/>
		<path class="st0" d="M88.7,392.4c0,0-6.9-4.6-8.5-11.2s1.5-11,1.5-11s7,3.5,8.3,10.1C91.3,387,88.7,392.4,88.7,392.4z"/>
		<path class="st0" d="M125.6,350c0,0-3.2-7.5-1.1-13.7s6.8-8.2,6.8-8.2s3.8,6.6,1.5,12.7S125.6,350,125.6,350z"/>
		<path class="st0" d="M111.2,361.5c0,0-4.6-6.7-3.8-13.3c0.9-6.6,5.1-9.4,5.1-9.4s5.1,5.7,4,12.2
			C115.3,357.5,111.2,361.5,111.2,361.5z"/>
		<path class="st0" d="M98.6,375.9c0,0-5.7-5.8-6-12.4s3.4-10.2,3.4-10.2s6,4.8,6,11.3S98.6,375.9,98.6,375.9z"/>
		<path class="st0" d="M154.7,337.9c0,0-19.5,5-40,24c-16.1,14.9-22.9,29.5-26,37.2c-2.4,5.9-7.8,21-8.3,40.3
			c-0.4,15.9,3.1,26.1,6.2,36.9s10.1,20.5,16.8,30.2c6.7,9.6,18.5,18.8,27.2,24.9c8.6,6.1,22,11,26.2,12.1s16.2,3,24.9,6.5
			c6.6,2.7,12.2,7,12.2,14.4c-0.1,9.4-5.6,12-5.6,12s-0.4-6.1-0.8-7.9s-2.3-7.2-5.8-10.7s-9.4-6.9-16-8.8
			c-6.5-1.9-13.9-3.4-22.4-6.9s-15-8.2-23.4-14.9s-15.9-14.9-21.3-21.8s-11.8-20-15.2-30.2c-3.4-10.3-5.1-22.5-5.2-31.1
			c-0.1-8.5,1.4-21.1,2.8-27.2s5.9-18.5,7.3-21.9s10.9-18.3,10.9-18.3s5.5-9.2,20.6-21c16.4-12.7,34.1-18.5,34.1-18.5L154.7,337.9z"
			/>
	</g>
	<g>
		<path class="st0" d="M451.7,340.9c0,0,1.9-7.6-1.2-13.2s-8-6.7-8-6.7s-2.7,6.9,0.6,12.3C446.5,338.7,451.7,340.9,451.7,340.9z"/>
		<path class="st0" d="M442.6,337.3c0,0-3.6-4.9-8.5-5.9s-8,1.4-8,1.4s2.8,5,7.7,5.8S442.6,337.3,442.6,337.3z"/>
		<path class="st0" d="M453.6,341.7c0,0-7.5-2.3-13.3,0.5s-7.1,7.6-7.1,7.6s6.7,3,12.3,0C451.1,346.9,453.6,341.7,453.6,341.7z"/>
		<path class="st0" d="M469.4,350.8c0,0-7-3.4-13.2-1.5s-8.2,6.5-8.2,6.5s6.2,4,12.2,1.9C466.2,355.5,469.4,350.8,469.4,350.8z"/>
		<path class="st0" d="M483.7,362.7c0,0-6.4-4.5-12.8-3.6s-9.1,5.1-9.1,5.1s5.5,4.9,11.8,3.8C479.8,366.9,483.7,362.7,483.7,362.7z"
			/>
		<path class="st0" d="M496.5,377.8c0,0-5.8-5.9-12.6-6.2c-6.8-0.3-10.5,3.5-10.5,3.5s4.8,6.2,11.5,6.2
			C491.6,381.4,496.5,377.8,496.5,377.8z"/>
		<path class="st0" d="M506.1,394.7c0,0-4.6-6.9-11.2-8.5s-11,1.5-11,1.5s3.5,7,10.1,8.3S506.1,394.7,506.1,394.7z"/>
		<path class="st0" d="M512.6,413c0,0-3.5-7.9-10-10.6s-11.5-0.4-11.5-0.4s2.4,7.7,8.9,10.2S512.6,413,512.6,413z"/>
		<path class="st0" d="M515.5,432.1c0,0-2-8.4-7.8-12.3c-5.9-3.9-11.2-2.6-11.2-2.6s0.9,8.1,6.8,11.7
			C509.3,432.6,515.5,432.1,515.5,432.1z"/>
		<path class="st0" d="M515.4,451.7c0,0-0.6-9-6-14c-5.4-5-11.1-4.5-11.1-4.5s-0.4,8.5,5.1,13.2S515.4,451.7,515.4,451.7z"/>
		<path class="st0" d="M511.4,470.2c0,0,1.1-8.9-3.3-14.9c-4.3-6-10.1-6.5-10.1-6.5s-2,8.2,2.5,13.9
			C505.1,468.5,511.4,470.2,511.4,470.2z"/>
		<path class="st0" d="M505.3,487.4c0,0,2.3-8.7-1.2-15.2s-9.1-7.8-9.1-7.8s-3.1,7.9,0.6,14.2S505.3,487.4,505.3,487.4z"/>
		<path class="st0" d="M506.6,485.8c0,0,8.7,2.3,15.2-1.2s7.8-9.1,7.8-9.1s-7.9-3.1-14.2,0.6S506.6,485.8,506.6,485.8z"/>
		<path class="st0" d="M496.8,502.2c0,0,8.4,4,15.7,1.7c7.3-2.3,9.7-7.8,9.7-7.8s-7.4-4.7-14.6-2.1
			C500.6,496.5,496.8,502.2,496.8,502.2z"/>
		<path class="st0" d="M484.2,516.9c0,0,7.8,5.7,15.7,4.7c7.9-1,11.4-6.1,11.4-6.1s-6.7-6.2-14.4-4.9
			C489.1,511.9,484.2,516.9,484.2,516.9z"/>
		<path class="st0" d="M470.1,529.4c0,0,6.9,6.8,14.8,7s12.2-4.3,12.2-4.3s-5.7-7.1-13.5-7.1C475.7,525.1,470.1,529.4,470.1,529.4z"
			/>
		<path class="st0" d="M452.5,539.1c0,0,6.1,8.2,14.3,9.7c8.2,1.5,13.4-2.5,13.4-2.5s-4.8-8.3-13-9.5
			C459,535.6,452.5,539.1,452.5,539.1z"/>
		<path class="st0" d="M468,530c0,0,6.8-6.9,7-14.8c0.2-7.9-4.3-12.2-4.3-12.2s-7.1,5.7-7.1,13.5C463.7,524.4,468,530,468,530z"/>
		<path class="st0" d="M450.4,539.2c0,0,8.3-5.4,10.2-13.3c1.9-7.9-1.7-13.1-1.7-13.1s-8.4,4.2-10,12
			C447.4,532.7,450.4,539.2,450.4,539.2z"/>
		<path class="st0" d="M431.5,546c0,0,9.7-4.1,13.3-12c3.5-7.9,0.8-14.1,0.8-14.1s-9.6,2.7-12.8,10.7
			C429.6,538.5,431.5,546,431.5,546z"/>
		<path class="st0" d="M434.1,546c0,0,4.7,9.5,12.8,12.5c8.1,3,14.1-0.1,14.1-0.1s-3.3-9.4-11.5-12.1S434.1,546,434.1,546z"/>
		<path class="st0" d="M495.1,504.5c0,0,4.4-8.5,2.3-16c-2.1-7.6-7.6-10.2-7.6-10.2s-5.1,7.4-2.7,14.8
			C489.4,500.5,495.1,504.5,495.1,504.5z"/>
		<path class="st0" d="M482.6,518.6c0,0,5.7-8.1,4.6-16.1s-6.3-11.5-6.3-11.5s-6.2,6.9-4.8,14.8
			C477.4,513.7,482.6,518.6,482.6,518.6z"/>
		<path class="st0" d="M512.5,467.9c0,0,8.9,1.1,14.9-3.3c6-4.3,6.5-10.1,6.5-10.1s-8.2-2-13.9,2.5
			C514.2,461.6,512.5,467.9,512.5,467.9z"/>
		<path class="st0" d="M515.6,449.2c0,0,8.8-0.6,13.8-6c5-5.3,4.4-11,4.4-11s-8.3-0.4-13,5S515.6,449.2,515.6,449.2z"/>
		<path class="st0" d="M515.8,430c0,0,8.3-2.3,12-8.3s2.1-11.3,2.1-11.3s-8,1.2-11.5,7.3S515.8,430,515.8,430z"/>
		<path class="st0" d="M512,410.6c0,0,7.9-3.5,10.6-10s0.4-11.5,0.4-11.5s-7.7,2.4-10.2,8.9C510.3,404.6,512,410.6,512,410.6z"/>
		<path class="st0" d="M505.1,392.4c0,0,6.9-4.6,8.5-11.2s-1.5-11-1.5-11s-7,3.5-8.3,10.1S505.1,392.4,505.1,392.4z"/>
		<path class="st0" d="M468.2,350c0,0,3.2-7.5,1.1-13.7c-2.1-6.3-6.8-8.2-6.8-8.2s-3.8,6.6-1.5,12.7S468.2,350,468.2,350z"/>
		<path class="st0" d="M482.6,361.5c0,0,4.6-6.7,3.8-13.3c-0.9-6.6-5.1-9.4-5.1-9.4s-5.1,5.7-4,12.2
			C478.5,357.5,482.6,361.5,482.6,361.5z"/>
		<path class="st0" d="M495.2,375.9c0,0,5.7-5.8,6-12.4s-3.4-10.2-3.4-10.2s-6,4.8-6,11.3C491.8,371.2,495.2,375.9,495.2,375.9z"/>
		<path class="st0" d="M439,337.9c0,0,19.5,5,40,24c16.1,14.9,22.9,29.5,26,37.2c2.4,5.9,7.8,21,8.3,40.3
			c0.4,15.9-3.1,26.1-6.2,36.9s-10.1,20.5-16.8,30.2c-6.7,9.6-18.5,18.8-27.2,24.9c-8.6,6.1-22,11-26.2,12.1s-16.2,3-24.9,6.5
			c-6.6,2.7-12.2,7-12.2,14.4c0.1,9.4,5.6,12,5.6,12s0.4-6.1,0.8-7.9s2.3-7.2,5.8-10.7s9.4-6.9,16-8.8c6.5-1.9,13.9-3.4,22.4-6.9
			s15-8.2,23.4-14.9s15.9-14.9,21.3-21.8s11.8-20,15.2-30.2c3.4-10.3,5.1-22.5,5.2-31.1c0.1-8.5-1.4-21.1-2.8-27.2
			s-5.9-18.5-7.3-21.9s-10.9-18.3-10.9-18.3s-5.5-9.2-20.6-21C457.7,343,440,337.1,440,337.1L439,337.9z"/>
	</g>
</g>
</svg>
