<?xml version="1.0" encoding="utf-8"?>
<!-- Generator: Adobe Illustrator 22.0.1, SVG Export Plug-In . SVG Version: 6.00 Build 0)  -->
<svg version="1.1" id="Layer_1" xmlns="http://www.w3.org/2000/svg" xmlns:xlink="http://www.w3.org/1999/xlink" x="0px" y="0px"
	 viewBox="0 0 612 792" style="enable-background:new 0 0 612 792;" xml:space="preserve">
<style type="text/css">
	.st0{fill:none;stroke:#FFFFFF;stroke-width:1.9832;stroke-linecap:round;stroke-linejoin:round;stroke-miterlimit:10;}
	.st1{fill:#FFFFFF;}
	.st2{fill:none;stroke:#FFFFFF;stroke-width:0.7933;stroke-linecap:round;stroke-linejoin:round;stroke-miterlimit:10;}
	.st3{fill:#FFFFFF;stroke:#FFFFFF;stroke-width:0.7933;stroke-linecap:round;stroke-linejoin:round;stroke-miterlimit:10;}
	.st4{fill:none;stroke:#FFFFFF;stroke-width:0.7592;stroke-linecap:round;stroke-linejoin:round;stroke-miterlimit:10;}
	.st5{fill:none;stroke:#FFFFFF;stroke-width:2.3799;stroke-miterlimit:10;}
</style>
<g>
	<polygon class="st0" points="223.8,362.9 252.1,363.1 253.5,363.1 274,363.1 293.4,342.5 312.5,362.9 363.8,362.9 339.1,388.1 
		338.9,442.9 293.2,488.9 249,444.1 249,387.9 	"/>
	<polygon class="st1" points="253.9,390.1 259.5,390.1 259.3,380.4 266.2,390.1 273.7,390.1 263,376 273.1,367.6 265.8,367.6 
		259.6,372.9 259.6,367.3 253.7,367.3 	"/>
	<path class="st1" d="M290.9,370.5l-7.1-0.1l-2.3,2.5v10.7l2.3,1.9h7l2.4-2.1v-10.5L290.9,370.5z M289.1,382.7h-3.6l-1-0.7v-8
		l1.1-1.1h3.6l1,0.9v8.1L289.1,382.7z"/>
	<polygon class="st1" points="307.4,373.3 307.4,370.4 300.4,370.4 297.3,370.4 297.3,373.3 297.3,385.3 300.4,385.3 300.4,380.1 
		304.5,380.1 304.5,376.8 300.4,376.8 300.4,373.3 	"/>
	<path class="st1" d="M316.3,371.6l4.1-4.4h10.8l3.8,3.7l0.1,5.4h-5.3v-1.9c0,0-0.3-1.5-1.7-1.5s-4,0-4,0s-1.4,0-1.5,1.7
		s-0.1,7.7-0.1,7.7s0.2,1.7,1.4,1.7c1.3,0,4.4,0,4.4,0s1.3-0.2,1.3-1.2s0.1-2,0.1-2l5.3,0.1l-0.1,5.6l-3.4,3.6l-11,0.1l-4.3-4.6
		L316.3,371.6z"/>
	<polygon class="st0" points="253.1,393.7 335.5,393.9 335.6,441.8 293.8,483.6 253.4,441.8 	"/>
	<path class="st1" d="M292,404.2c0,0-2.7,0.3-4.3-0.9c-1.7-1.2-4.7-4.8-4.7-4.8s-3.4,3-3.5,8.1c-0.1,6.9,3.4,8.7,3.4,8.7
		s2.2-2.5,4.8-3.4c2.5-0.9,4.4-1,4.4-1v7h3v-7.2c0,0,3.4,0.1,6.1,1.1c1.6,0.6,3.3,1.4,3.7,1.3c0.4-0.1,0.7-0.9,0.3-1.5
		c-0.3-0.5-2.3-3.2-5.5-4.9c-3.2-1.7-4.6-2-4.6-2V398c0,0-0.5-0.9-1.4-0.9c-1.3-0.1-1.6,1-1.6,1L292,404.2z"/>
	<rect x="287.3" y="417.6" class="st2" width="2.4" height="51.1"/>
	<rect x="289.8" y="417.6" class="st2" width="2.4" height="51.1"/>
	<rect x="292.3" y="417.6" class="st2" width="2.4" height="51.1"/>
	<rect x="294.7" y="417.6" class="st2" width="2.4" height="51.1"/>
	<rect x="297.2" y="417.6" class="st2" width="2.4" height="51.1"/>
	<rect x="286.7" y="422.3" class="st3" width="13.9" height="2.6"/>
	<rect x="286.7" y="461.5" class="st3" width="13.9" height="2.6"/>
	<path class="st2" d="M292.3,468.7v4.1c0,0,0.4,1.1,1.5,1.1s1.7-0.9,1.7-0.9v-4.2h-3.2V468.7z"/>
	<path class="st1" d="M272.7,451.9c0-0.1,0.6-1.7,0.1-2.7s-2.5-3.6-2.7-4.9c-0.1-1.3,1-4,0.9-4.9s-1.1-2.6-1.1-2.6s0.9,0.5,2.5-0.3
		s2.5-1.3,2.5-1.3s-0.2,1.9,0.3,2.9c0.5,0.9,1.4,1.8,1.2,2.4s-0.7,1-1.2,0.9c-0.5,0-1.6,0.9-1.6,1.9s1.5,3.3,1.5,3.3s1.2,1,2.6-0.2
		c1.4-1.3,9.4-8.1,9.4-8.1v5.1l-8.3,7c0,0-0.6,0.5,0.4,1.8c1,1.2,2.3,1.9,3.4,1.9s1.8-0.4,1.9-1s0.3-1.5,0.9-1.1
		c0.6,0.3,0.3,1.7,1.2,2c0.8,0.3,1.8-0.2,2.3,0.2c0.5,0.4,0.5,1.7,0.2,1.9c-0.3,0.2-1,0.8-1.2,1.5c-0.2,0.6,0.1,2.3-0.5,2.2
		c-0.6,0-1.5-1.4-2.3-1.5c-0.8,0-2.7,0.5-4.9-1c-2.2-1.5-3.6-4.1-4.7-4.5s-1.8,0.1-2.2,0.1C272.4,452.9,272.7,451.9,272.7,451.9z"/>
	<path class="st1" d="M319.6,414.7c-1-1-4-2.2-7.1,0.1s-1,5.6-1,5.6l-1.8,1.3c0,0-1.2-1.4-2.1-2.2c-0.7-0.6-1.3-0.6-1.8-0.5
		c0.3-0.3,0.4-0.7,0.4-1.2c0-1-0.8-1.9-1.9-1.9s-1.9,0.8-1.9,1.9c0,1,0.8,1.9,1.9,1.9c0.2,0,0.4,0,0.6-0.1c-0.5,0.8,0.4,2,0.4,2
		l1.8,2.3c0,0-7.2,5.8-7.5,6.1l-0.1,3.9l9.5-7.7c0,0,1.7,1.8,2.1,2.3c0.3,0.4,1,0.5,1.6,0.3c-0.2,0.3-0.4,0.7-0.4,1.1
		c0,1,0.8,1.9,1.9,1.9c1,0,1.9-0.8,1.9-1.9c0-1-0.8-1.9-1.9-1.9c-0.2,0-0.4,0-0.7,0.1c0.4-0.7-0.3-1.7-0.3-1.7l-1.8-2.3l1.7-1.3
		c0,0,1.7,1.9,3.5,2.1s2.5-0.2,4.4-2S322.4,416.8,319.6,414.7z"/>
	<circle class="st4" cx="261.1" cy="410.1" r="2"/>
	<path class="st4" d="M265.1,411.4l-2,2.4c-0.3,0.4-0.8,0.4-1.2,0.1l0,0c-0.4-0.3-0.4-0.8-0.1-1.2l2-2.4c0.3-0.4,0.8-0.4,1.2-0.1
		l0,0C265.3,410.5,265.4,411.1,265.1,411.4z"/>
	<path class="st4" d="M272.5,417.8l-2,2.4c-0.3,0.4-0.8,0.4-1.2,0.1l0,0c-0.4-0.3-0.4-0.8-0.1-1.2l2-2.4c0.3-0.4,0.8-0.4,1.2-0.1
		l0,0C272.7,416.9,272.8,417.5,272.5,417.8z"/>
	<path class="st4" d="M266.9,413l-2,2.3c-0.4,0.5-1.1,0.5-1.5,0.1l-0.2-0.2c-0.5-0.4-0.5-1.1-0.1-1.5l2-2.3c0.4-0.5,1.1-0.5,1.5-0.1
		l0.2,0.2C267.3,411.9,267.3,412.6,266.9,413z"/>
	<path class="st4" d="M269,414.9l-2,2.3c-0.4,0.5-1.1,0.5-1.5,0.1l-0.2-0.2c-0.5-0.4-0.5-1.1-0.1-1.5l2-2.3c0.4-0.5,1.1-0.5,1.5-0.1
		l0.2,0.2C269.3,413.7,269.4,414.4,269,414.9z"/>
	<path class="st4" d="M271.1,416.6l-2,2.3c-0.4,0.5-1.1,0.5-1.5,0.1l-0.2-0.2c-0.5-0.4-0.5-1.1-0.1-1.5l2-2.3
		c0.4-0.5,1.1-0.5,1.5-0.1l0.2,0.2C271.4,415.5,271.4,416.2,271.1,416.6z"/>
	<path class="st4" d="M275,420.8l-0.9,1c-0.5,0.5-1.3,0.6-1.8,0.1l-1-0.9c-0.5-0.5-0.6-1.3-0.1-1.8l0.9-1c0.5-0.5,1.3-0.6,1.8-0.1
		l1,0.9C275.4,419.5,275.4,420.3,275,420.8z"/>
	<path class="st4" d="M273.7,417.8c0,0,1.7-1.6,1.8-3.2c0.1-2,0.1-3.4,0.4-3.9s0.9-0.1,1.3,0.1s4.6,4.1,4.6,4.1s1.1,0.8,0.5,1.3
		c-0.3,0.2-2.1,0.5-4.1,0.8c-1.1,0.2-2.7,2.4-2.7,2.4L273.7,417.8z"/>
	<path class="st4" d="M272.8,422.3c0,0-1.7,1.6-1.8,3.2c-0.1,2,0,3.4-0.3,3.9s-0.9,0.1-1.3,0s-4.6-4-4.6-4s-1.1-0.8-0.5-1.2
		c0.3-0.2,2.1-0.5,4.1-0.9c1.1-0.2,2.7-2.5,2.7-2.5L272.8,422.3z"/>
	<path class="st1" d="M275.4,419.5l12,10l-0.2,3.6L274.1,422c0,0,0.4-0.3,0.8-0.8C275.3,420.6,275.4,419.5,275.4,419.5z"/>
	<path class="st1" d="M299.6,438.9L314,451c0,0,0.8,1,0,1.9c-0.7,0.8-1.5,0.7-2.1,0.2c-0.7-0.5-12.2-10.6-12.2-10.6L299.6,438.9z"/>
	<g>
		<polygon class="st0" points="275.2,341.5 274.9,362.8 253.5,362.8 		"/>
		<polyline class="st0" points="285.5,350.5 285.2,318.1 240.6,362.6 		"/>
		<polyline class="st0" points="232.5,371.4 198.1,405.4 249,405.7 		"/>
		<polyline class="st0" points="238.7,377.5 220.2,395.1 248.9,395.2 		"/>
	</g>
	<polygon class="st0" points="311.8,341.5 312.1,362.8 333.5,362.8 	"/>
	<polyline class="st0" points="301.5,350.5 301.8,318.1 346.5,362.6 	"/>
	<polyline class="st0" points="355.7,371.4 390.1,405.4 339.2,405.7 	"/>
	<polyline class="st0" points="349.5,377.5 368,395.1 339.3,395.2 	"/>
	<g>
		<path class="st1" d="M372.8,372.3c0,2.9-2.3,5.2-5.2,5.2c-2.9,0-5.3-2.3-5.3-5.2c0-2.8,2.3-5.1,5.3-5.1
			C370.5,367.2,372.8,369.5,372.8,372.3z M363.6,372.3c0,2.3,1.7,4.1,4,4.1c2.2,0,3.9-1.8,3.9-4.1c0-2.3-1.7-4.1-3.9-4.1
			S363.6,370.1,363.6,372.3z M366.7,375h-1.2v-5.1c0.5-0.1,1.1-0.2,2-0.2c1,0,1.4,0.2,1.8,0.4c0.3,0.2,0.5,0.6,0.5,1.1
			c0,0.6-0.4,1-1.1,1.2v0.1c0.5,0.2,0.8,0.6,0.9,1.2c0.2,0.8,0.2,1.1,0.4,1.3h-1.3c-0.2-0.2-0.2-0.7-0.4-1.2
			c-0.1-0.6-0.4-0.8-1.1-0.8h-0.6v2H366.7z M366.8,372.1h0.6c0.7,0,1.2-0.2,1.2-0.7s-0.3-0.8-1.1-0.8c-0.3,0-0.5,0-0.7,0.1V372.1z"
			/>
	</g>
	<g>
		<polyline class="st0" points="248.5,421.4 198.6,421.3 285.8,508 286.3,481.7 		"/>
		<polyline class="st0" points="248.9,431.4 221.4,431.6 275.9,484.9 276.1,471.4 		"/>
	</g>
	<g>
		<polyline class="st0" points="339.3,421.4 389.2,421.3 302,508 301.5,481.7 		"/>
		<polyline class="st0" points="338.9,431.4 366.4,431.6 311.9,484.9 311.7,471.4 		"/>
	</g>
	<g>
		<path class="st1" d="M190.6,362.4c0.6,0.4,1,0.9,1.4,1.5s0.5,1.3,0.6,2c0,0.8-0.2,1.6-0.6,2.6c-0.6,1.2-1.4,2.1-2.4,2.6
			s-2.1,0.7-3.2,0.4l0.4-3.5c0.4,0.1,0.8,0.1,1.1-0.1c0.3-0.1,0.6-0.4,0.8-0.7c0.3-0.6,0.3-1,0-1.4s-0.8-0.7-1.4-1l-9.3-4.5l1.7-3.4
			l9.3,4.5C189.5,361.6,190.1,361.9,190.6,362.4z"/>
		<path class="st1" d="M199.1,348.6c0.5,0.7,0.8,1.4,0.9,2.2c0.1,0.8,0.1,1.6-0.1,2.5s-0.6,1.7-1.1,2.6c-0.6,0.9-1.2,1.6-1.9,2.1
			s-1.5,0.9-2.2,1.1s-1.6,0.2-2.4,0c-0.8-0.2-1.6-0.5-2.4-1l-8.2-5.3l2-3.2l8,5.1c0.4,0.2,0.7,0.4,1.1,0.5c0.4,0.1,0.8,0.2,1.1,0.1
			s0.7-0.2,1.1-0.4s0.7-0.6,1-1s0.5-0.9,0.5-1.3c0.1-0.4,0-0.8-0.1-1.2c-0.1-0.4-0.3-0.7-0.6-1s-0.6-0.6-0.9-0.8l-8-5.1l2.1-3.2
			l8.2,5.3C198,347.3,198.6,347.9,199.1,348.6z"/>
		<path class="st1" d="M210.4,340.2l-3.1-1.1l-4,4.6l1.6,2.9l-2.7,3.1l-7.7-15.2l2.4-2.8l16.2,5.3L210.4,340.2z M198.9,335.9l2.8,5
			l2.6-3L198.9,335.9z"/>
		<path class="st1" d="M221.3,329.9l-11.5-3.6l0,0l6.8,7.7l-2.8,2.4l-10.4-11.8l3.3-2.9l11.5,3.6h0.1l-6.8-7.7l2.8-2.4l10.4,11.8
			L221.3,329.9z"/>
		<path class="st1" d="M240.8,316.5c-0.6,0.9-1.5,1.7-2.7,2.4c-1,0.6-2.1,1-3.2,1.2c-1.1,0.2-2.1,0.1-3.2-0.1c-1-0.3-2-0.7-2.9-1.4
			c-0.9-0.7-1.6-1.5-2.3-2.6c-0.6-1.1-1-2.2-1.2-3.3c-0.1-1.1-0.1-2.2,0.2-3.2s0.8-1.9,1.5-2.8s1.6-1.6,2.6-2.2s2-0.9,3.1-1.1
			s2.2-0.1,3.1,0.2l-0.9,3.5c-0.6-0.2-1.1-0.3-1.8-0.2c-0.6,0.1-1.2,0.3-1.7,0.6c-0.6,0.3-1,0.8-1.4,1.2c-0.4,0.5-0.6,1-0.7,1.6
			c-0.1,0.6-0.1,1.2,0,1.8c0.1,0.6,0.3,1.2,0.7,1.8c0.4,0.6,0.8,1.1,1.3,1.5s1,0.7,1.6,0.8s1.1,0.2,1.7,0.1c0.6-0.1,1.2-0.3,1.7-0.6
			c0.7-0.4,1.1-0.8,1.5-1.4c0.3-0.5,0.5-1.1,0.6-1.7l3.5,0.8C241.8,314.6,241.4,315.5,240.8,316.5z"/>
		<path class="st1" d="M253.8,311l-2.3-2.4l-5.6,2.3l0.1,3.3l-3.8,1.6v-17.1l3.4-1.4l12.1,12L253.8,311z M245.5,302l0.2,5.8l3.7-1.5
			L245.5,302z"/>
		<path class="st1" d="M266.6,307.1l-4.9-5.1l-1.3,0.3l1.6,6l-3.6,1l-4.1-15.2l5.8-1.5c0.7-0.2,1.5-0.3,2.2-0.3s1.4,0.1,2.1,0.3
			s1.2,0.6,1.7,1.1s0.8,1.2,1.1,2.1c0.3,1,0.2,2-0.1,2.8c-0.4,0.9-1,1.6-1.9,2.1l5.7,5.4L266.6,307.1z M263.7,296.6
			c-0.1-0.4-0.2-0.6-0.5-0.8c-0.2-0.2-0.5-0.3-0.7-0.4s-0.6-0.1-0.9,0c-0.3,0-0.6,0.1-0.9,0.2l-2,0.5l0.9,3.5l1.7-0.5
			c0.3-0.1,0.6-0.2,0.9-0.3c0.3-0.1,0.6-0.3,0.8-0.5c0.2-0.2,0.4-0.4,0.5-0.7C263.8,297.3,263.8,297,263.7,296.6z"/>
		<path class="st1" d="M272.4,305.8l-2.3-15.6l3.8-0.6l1.8,12.3l6-0.9l0.5,3.3L272.4,305.8z"/>
		<path class="st1" d="M299.1,295.9c0,1.2-0.2,2.4-0.6,3.4s-1,1.9-1.7,2.7c-0.7,0.7-1.6,1.3-2.7,1.8c-1,0.4-2.2,0.6-3.4,0.7
			c-1.2,0-2.4-0.1-3.4-0.5c-1.1-0.4-2-0.9-2.7-1.6c-0.8-0.7-1.4-1.6-1.8-2.6s-0.7-2.2-0.7-3.4c0-1.3,0.2-2.4,0.6-3.4s1-1.9,1.7-2.6
			s1.6-1.3,2.7-1.7c1-0.4,2.2-0.6,3.4-0.6c1.2,0,2.4,0.1,3.4,0.5c1.1,0.4,2,0.9,2.8,1.6s1.4,1.5,1.8,2.5
			C298.8,293.5,299,294.7,299.1,295.9z M295,296c0-0.7-0.1-1.3-0.4-1.9c-0.2-0.6-0.6-1.1-1-1.5s-0.9-0.7-1.4-1
			c-0.6-0.2-1.2-0.3-1.8-0.3c-0.7,0-1.3,0.1-1.8,0.4s-1,0.6-1.4,1s-0.7,0.9-0.9,1.5c-0.2,0.6-0.3,1.2-0.3,1.9c0,0.7,0.1,1.4,0.4,2
			c0.2,0.6,0.6,1.1,1,1.5s0.9,0.7,1.4,1c0.6,0.2,1.2,0.3,1.8,0.3c0.7,0,1.3-0.1,1.8-0.4s1-0.6,1.4-1s0.7-1,0.9-1.6
			C294.9,297.4,295,296.7,295,296z"/>
		<path class="st1" d="M310.8,293.6c-0.3-0.4-0.7-0.8-1.2-1.1s-1-0.5-1.5-0.5c-0.2,0-0.5,0-0.8,0s-0.5,0.1-0.7,0.2s-0.4,0.2-0.6,0.4
			c-0.2,0.2-0.3,0.4-0.3,0.7c0,0.3,0,0.5,0.1,0.7s0.2,0.4,0.4,0.5s0.4,0.3,0.7,0.5c0.3,0.1,0.6,0.3,1,0.5c0.5,0.2,1,0.5,1.6,0.8
			c0.5,0.3,1,0.6,1.5,1c0.4,0.4,0.8,0.9,1,1.4c0.2,0.6,0.3,1.2,0.2,2c-0.1,0.9-0.4,1.7-0.8,2.3c-0.4,0.6-0.9,1.1-1.5,1.5
			s-1.3,0.6-2,0.7s-1.5,0.1-2.3,0.1c-1.1-0.1-2.2-0.5-3.2-1s-1.8-1.2-2.4-2l2.8-2.2c0.3,0.5,0.8,1,1.4,1.4s1.2,0.6,1.8,0.7
			c0.3,0,0.6,0,0.8,0c0.3,0,0.5-0.1,0.7-0.2s0.4-0.3,0.5-0.5s0.2-0.5,0.3-0.8c0-0.3,0-0.6-0.1-0.8c-0.1-0.2-0.3-0.4-0.6-0.6
			c-0.3-0.2-0.6-0.4-1-0.6s-0.8-0.4-1.3-0.6s-0.9-0.5-1.4-0.7s-0.8-0.6-1.2-1c-0.3-0.4-0.6-0.8-0.8-1.4c-0.2-0.5-0.2-1.1-0.1-1.8
			c0.1-0.9,0.4-1.6,0.8-2.2s0.9-1,1.6-1.4c0.6-0.3,1.3-0.5,2-0.6s1.5-0.1,2.2,0c0.9,0.1,1.8,0.4,2.6,0.8c0.9,0.4,1.6,1,2.2,1.7
			L310.8,293.6z"/>
		<path class="st1" d="M332.6,311l3.5-10.6H336l-7.3,9.3l-2.5-0.8l-0.4-11.8h-0.1l-3.3,10.6l-3.4-1.1l4.8-15l5.1,1.7l0.3,10.7h0.1
			l6.4-8.5l5.2,1.7l-4.8,15L332.6,311z"/>
		<path class="st1" d="M338.5,313.6l6.6-14.3l3.5,1.6l-6.6,14.3L338.5,313.6z"/>
		<path class="st1" d="M351.9,320.6l0.2-7.1l-1.1-0.7l-3.1,5.4l-3.2-1.9l7.9-13.6l5.2,3c0.7,0.4,1.2,0.8,1.8,1.3
			c0.5,0.5,1,1,1.3,1.7c0.3,0.6,0.5,1.3,0.4,2c0,0.7-0.2,1.4-0.7,2.2c-0.5,0.9-1.2,1.5-2.1,1.9c-0.9,0.3-1.8,0.4-2.9,0.1l0.2,7.9
			L351.9,320.6z M357.3,311.1c0.2-0.3,0.3-0.6,0.3-0.9s-0.1-0.5-0.3-0.8c-0.1-0.2-0.3-0.4-0.6-0.6c-0.2-0.2-0.5-0.4-0.7-0.5l-1.8-1
			l-1.8,3.2l1.6,0.9c0.3,0.2,0.6,0.3,0.9,0.4s0.6,0.2,0.9,0.2s0.6,0,0.9-0.2C356.9,311.7,357.1,311.5,357.3,311.1z"/>
		<path class="st1" d="M365.3,330.2l0.9-3.2l-4.8-3.7l-2.8,1.7l-3.3-2.5l14.9-8.4l2.9,2.3l-4.5,16.4L365.3,330.2z M369,318.6l-4.9,3
			l3.1,2.4L369,318.6z"/>
		<path class="st1" d="M376.1,340.6l3-11.7l0,0l-7.4,7.2l-2.6-2.7l11.4-10.9l3,3.1l-3,11.7l0,0l7.3-7.2l2.6,2.7L379,343.7
			L376.1,340.6z"/>
		<path class="st1" d="M395.7,353.3c-1.1,0.8-2.2,1.3-3.4,1.4c-1.1,0.2-2.2,0.1-3.2-0.2c-1-0.3-1.9-0.8-2.8-1.5s-1.6-1.5-2.2-2.3
			l-3.4-4.8l12.8-9.1l3.3,4.6c0.6,0.9,1.2,1.9,1.6,2.9s0.6,2.1,0.6,3.1s-0.3,2.1-0.8,3.1C397.8,351.5,396.9,352.4,395.7,353.3z
			 M393.4,350c0.7-0.5,1.2-1.1,1.6-1.6c0.3-0.6,0.5-1.2,0.5-1.8c0-0.6-0.1-1.2-0.3-1.8c-0.2-0.6-0.5-1.1-0.9-1.7l-1.1-1.5l-7.5,5.3
			l1,1.5c0.4,0.6,0.8,1,1.3,1.5s1,0.7,1.6,0.9s1.2,0.2,1.8,0.1C392,350.8,392.7,350.5,393.4,350z"/>
		<path class="st1" d="M394.8,368.6l2.2-2.5l-2.8-5.4l-3.3,0.4l-1.9-3.7l17-1.3l1.7,3.3l-11,13L394.8,368.6z M403.1,359.6l-5.7,0.7
			l1.8,3.5L403.1,359.6z"/>
	</g>
	<g>
		<path class="st1" d="M183.2,470l3.5-8.6l0,0l-6.3,3.5l-1.8-3.2l13.7-7.7l1.8,3.2l-5.6,3.1v0.1l8.3,1.8l2.3,4.2l-9.6-2.4l-3.9,10.4
			L183.2,470z"/>
		<path class="st1" d="M193,484.4l4.5-11.2v-0.1l-8.2,6.2l-2.2-3l12.6-9.4l2.6,3.5l-4.5,11.2v0.1l8.2-6.2l2.2,3l-12.6,9.4L193,484.4
			z"/>
		<path class="st1" d="M198.4,491l11.7-10.6l2.6,2.8L201,493.8L198.4,491z"/>
		<path class="st1" d="M212.2,504.6c-0.9-0.5-1.9-1.2-2.8-2c-0.9-0.8-1.7-1.8-2.2-2.8s-0.8-2-0.9-3.1c-0.1-1,0.1-2.1,0.4-3.1
			s1-2,1.8-2.9s1.8-1.6,2.8-2.1s2-0.7,3.1-0.7s2.1,0.2,3.1,0.6s2,1,2.9,1.8s1.7,1.7,2.2,2.7s0.8,2,0.9,2.9l-3.6,0.4
			c0-0.6-0.1-1.2-0.4-1.8c-0.3-0.6-0.7-1.2-1.3-1.7c-0.5-0.4-1-0.8-1.6-1s-1.2-0.3-1.8-0.2s-1.2,0.2-1.8,0.5s-1.1,0.7-1.6,1.2
			s-0.9,1.1-1.1,1.7c-0.3,0.6-0.4,1.2-0.4,1.8c0,0.6,0.2,1.2,0.4,1.8c0.3,0.6,0.7,1.1,1.3,1.6c0.3,0.3,0.7,0.6,1,0.8
			c0.3,0.2,0.7,0.4,1,0.5l1.9-2.1l-2.2-2l2.1-2.3l4.8,4.3l-5.6,6.2C214,505.4,213.1,505.1,212.2,504.6z"/>
		<path class="st1" d="M226.1,514.6l3.6-5.5l-5.1-3.4l-3.6,5.5l-3.2-2.1l8.7-13.1l3.2,2.1l-3.3,5l5.1,3.4l3.3-5l3.2,2.1l-8.7,13.1
			L226.1,514.6z"/>
		<path class="st1" d="M244.8,510.5l-5.4,11.2L236,520l5.4-11.2l-4-1.9l1.4-2.9l11.4,5.5l-1.4,2.9L244.8,510.5z"/>
		<path class="st1" d="M257.7,516.5c-0.2-0.5-0.5-1-0.9-1.4s-0.9-0.7-1.3-0.8c-0.2-0.1-0.5-0.1-0.7-0.2c-0.3,0-0.5,0-0.7,0
			s-0.5,0.1-0.7,0.3c-0.2,0.1-0.3,0.4-0.5,0.7c-0.1,0.3-0.1,0.5-0.1,0.7s0.1,0.4,0.3,0.6c0.2,0.2,0.4,0.4,0.6,0.6
			c0.2,0.2,0.5,0.4,0.8,0.7c0.4,0.3,0.9,0.7,1.4,1.1s0.9,0.8,1.2,1.3c0.3,0.5,0.6,1,0.7,1.6s0.1,1.3-0.2,2c-0.3,0.9-0.7,1.5-1.2,2
			s-1.1,0.9-1.8,1.1c-0.7,0.2-1.4,0.3-2.1,0.3c-0.8,0-1.5-0.2-2.2-0.4c-1.1-0.4-2-0.9-2.9-1.6c-0.9-0.7-1.5-1.5-1.9-2.4l3.2-1.6
			c0.2,0.6,0.6,1.1,1,1.6c0.5,0.5,1,0.9,1.6,1.1c0.3,0.1,0.5,0.2,0.8,0.2s0.5,0,0.8,0c0.2-0.1,0.4-0.2,0.6-0.3
			c0.2-0.2,0.3-0.4,0.4-0.7c0.1-0.3,0.1-0.5,0-0.8c-0.1-0.2-0.2-0.5-0.4-0.7s-0.5-0.5-0.8-0.8s-0.7-0.6-1.2-0.9
			c-0.4-0.3-0.8-0.7-1.2-1c-0.4-0.4-0.7-0.8-0.9-1.2c-0.2-0.5-0.4-1-0.4-1.5c-0.1-0.5,0-1.2,0.3-1.8c0.3-0.8,0.7-1.5,1.2-1.9
			c0.5-0.5,1.1-0.8,1.8-1s1.4-0.2,2.1-0.2s1.5,0.2,2.2,0.5c0.8,0.3,1.6,0.7,2.4,1.4c0.8,0.6,1.4,1.3,1.8,2.2L257.7,516.5z"/>
		<path class="st1" d="M282.9,525.5c-0.2,1.2-0.6,2.3-1.2,3.3c-0.6,0.9-1.3,1.7-2.2,2.3s-1.9,1-3,1.2s-2.3,0.2-3.5,0.1
			c-1.2-0.2-2.3-0.6-3.3-1.1s-1.8-1.3-2.4-2.1s-1.1-1.8-1.3-2.9s-0.3-2.2-0.1-3.5c0.2-1.2,0.6-2.3,1.2-3.3c0.6-0.9,1.3-1.7,2.2-2.3
			c0.9-0.6,1.8-1,2.9-1.2s2.2-0.2,3.5,0c1.2,0.2,2.3,0.6,3.3,1.1s1.8,1.2,2.4,2.1s1.1,1.8,1.4,2.8
			C283.1,523.1,283.1,524.3,282.9,525.5z M278.9,524.9c0.1-0.7,0.1-1.3,0-1.9s-0.3-1.2-0.7-1.6c-0.3-0.5-0.7-0.9-1.2-1.2
			s-1.1-0.5-1.8-0.7c-0.7-0.1-1.3-0.1-1.9,0.1c-0.6,0.2-1.1,0.4-1.6,0.8c-0.5,0.4-0.8,0.8-1.2,1.4c-0.3,0.6-0.5,1.2-0.6,1.8
			c-0.1,0.7-0.1,1.4,0,2s0.3,1.2,0.7,1.7c0.3,0.5,0.7,0.9,1.2,1.2s1.1,0.5,1.7,0.6c0.7,0.1,1.3,0.1,1.9-0.1c0.6-0.2,1.1-0.4,1.6-0.8
			s0.9-0.8,1.2-1.4C278.6,526.2,278.8,525.6,278.9,524.9z"/>
		<path class="st1" d="M289.6,521.2l-0.1,3.2l6.1,0.3l-0.1,3.1l-6.1-0.3l-0.3,6.1l-3.8-0.2l0.7-15.7l10.3,0.5l-0.1,3.2L289.6,521.2z
			"/>
		<path class="st1" d="M316.2,532.2c-1,0.6-2.1,0.9-3.4,1.1c-1.2,0.1-2.3,0.1-3.4-0.2s-2-0.8-2.8-1.4c-0.8-0.6-1.5-1.5-2.1-2.4
			c-0.5-1-0.9-2.1-1-3.3c-0.1-1.3,0-2.4,0.3-3.5s0.8-2,1.5-2.8s1.5-1.4,2.5-1.9s2.1-0.8,3.3-0.9c1.1-0.1,2.2,0,3.3,0.2
			c1.1,0.3,2,0.7,2.8,1.4l-2.3,2.8c-0.4-0.4-0.9-0.8-1.5-0.9c-0.6-0.2-1.2-0.2-1.8-0.2c-0.7,0.1-1.3,0.3-1.8,0.6s-1,0.7-1.3,1.2
			c-0.4,0.5-0.6,1-0.8,1.6c-0.2,0.6-0.2,1.3-0.1,1.9c0.1,0.7,0.3,1.3,0.5,1.9c0.3,0.6,0.6,1,1.1,1.4s0.9,0.7,1.5,0.8
			s1.2,0.2,1.8,0.2c0.8-0.1,1.4-0.3,1.9-0.7s0.9-0.8,1.2-1.3l2.9,2.2C318,530.9,317.2,531.6,316.2,532.2z"/>
		<path class="st1" d="M335.4,519.8c0.3,1.2,0.4,2.4,0.3,3.5s-0.5,2.1-1,3s-1.3,1.7-2.2,2.3c-0.9,0.7-2,1.1-3.2,1.5
			s-2.3,0.4-3.4,0.3c-1.1-0.1-2.1-0.4-3.1-0.9c-0.9-0.5-1.7-1.2-2.4-2.1c-0.7-0.9-1.2-1.9-1.5-3.1c-0.3-1.2-0.4-2.4-0.3-3.5
			c0.2-1.1,0.5-2.1,1.1-3s1.3-1.6,2.2-2.3c0.9-0.6,2-1.1,3.1-1.4c1.2-0.3,2.3-0.4,3.5-0.3c1.1,0.1,2.1,0.4,3.1,0.9
			c0.9,0.5,1.7,1.2,2.4,2C334.6,517.6,335.1,518.6,335.4,519.8z M331.5,520.9c-0.2-0.7-0.4-1.2-0.8-1.8c-0.4-0.5-0.8-0.9-1.3-1.2
			s-1-0.5-1.6-0.6s-1.2-0.1-1.9,0.1c-0.6,0.2-1.2,0.4-1.7,0.8c-0.5,0.4-0.8,0.8-1.1,1.3s-0.4,1.1-0.5,1.7c-0.1,0.6,0,1.3,0.2,1.9
			c0.2,0.7,0.5,1.3,0.8,1.8c0.4,0.5,0.8,0.9,1.3,1.3s1,0.5,1.6,0.6s1.2,0.1,1.9-0.1c0.6-0.2,1.2-0.4,1.7-0.8
			c0.5-0.4,0.8-0.8,1.1-1.3c0.3-0.5,0.4-1.1,0.5-1.7S331.7,521.6,331.5,520.9z"/>
		<path class="st1" d="M341.1,525.9l-6.2-14.4l3.5-1.5l4.9,11.4l5.6-2.4l1.3,3L341.1,525.9z"/>
		<path class="st1" d="M361.8,511.4c0.1,0.8,0.1,1.6-0.2,2.4s-0.6,1.5-1.2,2.2s-1.3,1.3-2.2,1.8c-0.9,0.5-1.8,0.9-2.6,1
			c-0.9,0.2-1.7,0.1-2.5,0s-1.5-0.5-2.2-1s-1.2-1.2-1.7-2l-5-8.4l3.2-1.9l4.9,8.1c0.2,0.4,0.5,0.7,0.8,1s0.6,0.5,1,0.6
			s0.7,0.2,1.2,0.2c0.4,0,0.9-0.2,1.3-0.5c0.5-0.3,0.8-0.6,1-0.9s0.4-0.7,0.4-1.1s0-0.8-0.1-1.1s-0.3-0.8-0.5-1.1l-4.9-8.1l3.3-1.9
			l5,8.4C361.4,509.8,361.7,510.6,361.8,511.4z"/>
		<path class="st1" d="M378.7,502.1l-7.2-8.5h-0.1l4.2,11.1l-2,1.7l-10.3-5.8h-0.1l7.3,8.4l-2.7,2.3l-10.2-11.9l4.1-3.5l9.3,5.3
			l0.1-0.1l-4-9.9l4.2-3.6l10.3,11.9L378.7,502.1z"/>
		<path class="st1" d="M389.2,483.9c0.7,0.6,1.1,1.2,1.3,1.8c0.2,0.6,0.3,1.3,0.2,1.9c-0.1,0.7-0.3,1.3-0.7,2
			c-0.4,0.6-0.8,1.3-1.3,1.8l-4.1,4.7l-11.9-10.3l4.1-4.7c0.4-0.5,0.8-0.9,1.4-1.3c0.5-0.4,1-0.7,1.6-0.9s1.2-0.2,1.8-0.2
			c0.6,0.1,1.2,0.4,1.8,0.9c0.7,0.6,1.1,1.2,1.2,2c0.1,0.7,0,1.5-0.3,2.2l0,0c0.3-0.3,0.7-0.5,1.1-0.7s0.8-0.3,1.2-0.3
			c0.4,0,0.8,0,1.3,0.2C388.4,483.3,388.8,483.6,389.2,483.9z M381.4,482.9c-0.4-0.3-0.8-0.4-1.3-0.3s-0.9,0.5-1.5,1.1l-1.2,1.4
			l2.5,2.1l1.3-1.5c0.5-0.5,0.7-1.1,0.8-1.5C382,483.6,381.8,483.2,381.4,482.9z M386.4,486.5c-0.5-0.4-1-0.5-1.5-0.3
			s-1,0.6-1.6,1.2L382,489l2.7,2.3l1.4-1.6c0.2-0.2,0.4-0.5,0.5-0.7s0.3-0.6,0.4-0.8c0.1-0.3,0.1-0.6,0-0.8
			C386.9,487.1,386.7,486.8,386.4,486.5z"/>
		<path class="st1" d="M399.2,471.4c0.5,0.7,0.8,1.4,0.9,2.2c0.1,0.8,0.1,1.6-0.1,2.5s-0.6,1.7-1.2,2.6s-1.2,1.6-1.9,2.1
			c-0.7,0.5-1.5,0.9-2.3,1c-0.8,0.2-1.6,0.2-2.4,0s-1.6-0.5-2.4-1.1l-8.1-5.4l2.1-3.1l7.9,5.3c0.4,0.2,0.7,0.4,1.1,0.5
			s0.8,0.2,1.1,0.2s0.7-0.1,1.1-0.4c0.4-0.2,0.7-0.5,1-1c0.3-0.4,0.5-0.9,0.5-1.3c0.1-0.4,0-0.8-0.1-1.2c-0.1-0.4-0.3-0.7-0.6-1
			c-0.3-0.3-0.6-0.6-0.9-0.8l-7.9-5.3l2.1-3.2l8.1,5.4C398.1,470.1,398.8,470.7,399.2,471.4z"/>
		<path class="st1" d="M397.7,456.5c-0.5,0.1-1,0.3-1.5,0.7s-0.8,0.8-1,1.2c-0.1,0.2-0.2,0.5-0.3,0.7s-0.1,0.5-0.1,0.7
			s0.1,0.5,0.2,0.7s0.3,0.4,0.6,0.5c0.2,0.1,0.5,0.2,0.7,0.2s0.4-0.1,0.6-0.2s0.4-0.3,0.7-0.5s0.5-0.5,0.8-0.7
			c0.4-0.4,0.8-0.8,1.3-1.2s0.9-0.8,1.5-1c0.5-0.3,1.1-0.4,1.7-0.4s1.3,0.1,2,0.5c0.8,0.4,1.4,0.9,1.9,1.5c0.4,0.6,0.7,1.2,0.8,1.9
			s0.1,1.4,0,2.2c-0.1,0.7-0.4,1.5-0.7,2.1c-0.5,1-1.2,1.9-2,2.6s-1.7,1.3-2.7,1.6l-1.1-3.4c0.6-0.1,1.2-0.4,1.8-0.8
			c0.6-0.4,1-0.9,1.3-1.5c0.1-0.2,0.2-0.5,0.3-0.8c0.1-0.3,0.1-0.5,0.1-0.8c0-0.2-0.1-0.5-0.3-0.7c-0.1-0.2-0.4-0.4-0.6-0.5
			c-0.3-0.1-0.5-0.2-0.8-0.1s-0.5,0.1-0.8,0.3s-0.6,0.4-0.9,0.7s-0.7,0.6-1,1c-0.4,0.4-0.8,0.7-1.2,1.1c-0.4,0.3-0.9,0.6-1.3,0.8
			s-1,0.3-1.5,0.2c-0.5,0-1.1-0.2-1.8-0.5c-0.8-0.4-1.4-0.9-1.8-1.5s-0.6-1.2-0.7-1.9c-0.1-0.7-0.1-1.4,0.1-2.1s0.4-1.4,0.8-2.1
			c0.4-0.8,1-1.5,1.7-2.2s1.5-1.2,2.4-1.5L397.7,456.5z"/>
	</g>
	<g>
		<circle class="st5" cx="293.2" cy="411.1" r="129.6"/>
		<path class="st5" d="M433.3,411.1c0-41.3-17.9-78.4-46.3-104.1v-94.4H206.2v88.6c-32.4,25.7-53.2,65.3-53.2,109.9
			s20.8,84.2,53.2,109.9v91.5H387v-97.3C415.5,489.5,433.3,452.4,433.3,411.1z"/>
	</g>
	<g>
		<path class="st1" d="M246.2,580h-13.3c0.2-1.3,0.6-2.5,1.4-3.7c0.8-1.2,2.2-2.5,4.3-4.1c1.3-1,2.1-1.7,2.5-2.2s0.5-1,0.5-1.4
			c0-0.5-0.2-0.9-0.5-1.2c-0.4-0.3-0.8-0.5-1.4-0.5c-0.6,0-1,0.2-1.4,0.5c-0.4,0.4-0.6,1-0.7,1.9l-4.4-0.4c0.2-1.2,0.5-2.2,1-2.9
			s1.1-1.2,2-1.6c0.8-0.4,2-0.6,3.5-0.6c1.6,0,2.8,0.2,3.6,0.5c0.9,0.4,1.5,0.9,2,1.6c0.5,0.7,0.7,1.6,0.7,2.5c0,1-0.3,1.9-0.9,2.8
			c-0.6,0.9-1.6,1.9-3.1,2.9c-0.9,0.6-1.5,1-1.8,1.3c-0.3,0.2-0.7,0.6-1.1,1h6.9v3.6H246.2z"/>
		<path class="st1" d="M248.1,571.9c0-3,0.5-5.1,1.6-6.3s2.7-1.8,5-1.8c1.1,0,1.9,0.1,2.6,0.4c0.7,0.3,1.2,0.6,1.7,1s0.8,0.9,1,1.3
			c0.2,0.5,0.5,1,0.6,1.6c0.3,1.2,0.4,2.4,0.4,3.7c0,2.9-0.5,5-1.5,6.3s-2.7,2-5,2c-1.3,0-2.4-0.2-3.2-0.6c-0.8-0.4-1.5-1.1-2-1.9
			c-0.4-0.6-0.7-1.4-0.9-2.4C248.2,574.3,248.1,573.2,248.1,571.9z M252.5,571.9c0,2,0.2,3.4,0.5,4.1c0.4,0.7,0.9,1.1,1.6,1.1
			c0.4,0,0.8-0.2,1.2-0.5c0.4-0.3,0.6-0.8,0.7-1.5s0.2-1.7,0.2-3.2c0-2.1-0.2-3.5-0.5-4.3c-0.4-0.7-0.9-1.1-1.6-1.1
			c-0.7,0-1.3,0.4-1.6,1.1C252.6,568.6,252.5,569.9,252.5,571.9z"/>
		<path class="st1" d="M262.9,571.9c0-3,0.5-5.1,1.6-6.3s2.7-1.8,5-1.8c1.1,0,1.9,0.1,2.6,0.4c0.7,0.3,1.2,0.6,1.7,1s0.8,0.9,1,1.3
			c0.2,0.5,0.5,1,0.6,1.6c0.3,1.2,0.4,2.4,0.4,3.7c0,2.9-0.5,5-1.5,6.3s-2.7,2-5,2c-1.3,0-2.4-0.2-3.2-0.6c-0.8-0.4-1.5-1.1-2-1.9
			c-0.4-0.6-0.7-1.4-0.9-2.4C263,574.3,262.9,573.2,262.9,571.9z M267.3,571.9c0,2,0.2,3.4,0.5,4.1c0.4,0.7,0.9,1.1,1.6,1.1
			c0.4,0,0.8-0.2,1.2-0.5s0.6-0.8,0.7-1.5s0.2-1.7,0.2-3.2c0-2.1-0.2-3.5-0.5-4.3c-0.4-0.7-0.9-1.1-1.6-1.1s-1.3,0.4-1.6,1.1
			C267.4,568.6,267.3,569.9,267.3,571.9z"/>
		<path class="st1" d="M280.4,571.4c-0.7-0.4-1.2-0.8-1.5-1.2c-0.4-0.6-0.7-1.3-0.7-2.1c0-1.3,0.6-2.4,1.9-3.3c1-0.7,2.3-1,3.9-1
			c2.1,0,3.7,0.4,4.7,1.2s1.5,1.8,1.5,3.1c0,0.7-0.2,1.4-0.6,2c-0.3,0.5-0.8,0.9-1.4,1.3c0.9,0.4,1.5,1,1.9,1.6
			c0.4,0.7,0.6,1.4,0.6,2.3c0,0.8-0.2,1.5-0.5,2.2s-0.8,1.2-1.3,1.6s-1.2,0.7-2,0.8c-0.8,0.2-1.6,0.3-2.5,0.3c-1.7,0-3-0.2-3.9-0.6
			c-0.9-0.4-1.6-1-2-1.8c-0.5-0.8-0.7-1.6-0.7-2.6c0-0.9,0.2-1.7,0.7-2.4C278.8,572.3,279.5,571.8,280.4,571.4z M282.1,575.1
			c0,0.7,0.2,1.3,0.6,1.7s0.9,0.7,1.5,0.7c0.5,0,1-0.2,1.4-0.7s0.6-1,0.6-1.7s-0.2-1.3-0.6-1.7s-0.9-0.7-1.5-0.7
			c-0.5,0-1,0.2-1.4,0.7C282.3,573.8,282.1,574.4,282.1,575.1z M282.4,568.3c0,0.5,0.2,1,0.5,1.3s0.8,0.5,1.4,0.5
			c0.5,0,0.9-0.2,1.2-0.5c0.3-0.3,0.5-0.8,0.5-1.3s-0.2-1-0.5-1.3s-0.8-0.5-1.3-0.5s-1,0.2-1.3,0.5
			C282.5,567.3,282.4,567.7,282.4,568.3z"/>
		<path class="st1" d="M292.1,572.4h6.4v3.4h-6.4V572.4z"/>
		<path class="st1" d="M312.9,580h-13.3c0.2-1.3,0.6-2.5,1.4-3.7s2.2-2.5,4.3-4.1c1.3-1,2.1-1.7,2.5-2.2s0.5-1,0.5-1.4
			c0-0.5-0.2-0.9-0.5-1.2c-0.4-0.3-0.8-0.5-1.4-0.5s-1,0.2-1.4,0.5c-0.4,0.4-0.6,1-0.7,1.9l-4.4-0.4c0.2-1.2,0.5-2.2,1-2.9
			s1.1-1.2,2-1.6c0.8-0.4,2-0.6,3.5-0.6c1.6,0,2.8,0.2,3.6,0.5c0.9,0.4,1.5,0.9,2,1.6c0.5,0.7,0.7,1.6,0.7,2.5c0,1-0.3,1.9-0.9,2.8
			c-0.6,0.9-1.6,1.9-3.1,2.9c-0.9,0.6-1.5,1-1.8,1.3c-0.3,0.2-0.7,0.6-1.1,1h6.9v3.6H312.9z"/>
		<path class="st1" d="M314.7,571.9c0-3,0.5-5.1,1.6-6.3s2.7-1.8,5-1.8c1.1,0,1.9,0.1,2.6,0.4c0.7,0.3,1.2,0.6,1.7,1s0.8,0.9,1,1.3
			c0.2,0.5,0.5,1,0.6,1.6c0.3,1.2,0.4,2.4,0.4,3.7c0,2.9-0.5,5-1.5,6.3s-2.7,2-5,2c-1.3,0-2.4-0.2-3.2-0.6c-0.8-0.4-1.5-1.1-2-1.9
			c-0.4-0.6-0.7-1.4-0.9-2.4C314.8,574.3,314.7,573.2,314.7,571.9z M319.1,571.9c0,2,0.2,3.4,0.5,4.1c0.4,0.7,0.9,1.1,1.6,1.1
			c0.4,0,0.8-0.2,1.2-0.5s0.6-0.8,0.7-1.5s0.2-1.7,0.2-3.2c0-2.1-0.2-3.5-0.5-4.3c-0.4-0.7-0.9-1.1-1.6-1.1s-1.3,0.4-1.6,1.1
			C319.3,568.6,319.1,569.9,319.1,571.9z"/>
		<path class="st1" d="M329.6,571.9c0-3,0.5-5.1,1.6-6.3s2.7-1.8,5-1.8c1.1,0,1.9,0.1,2.6,0.4c0.7,0.3,1.2,0.6,1.7,1s0.8,0.9,1,1.3
			c0.2,0.5,0.5,1,0.6,1.6c0.3,1.2,0.4,2.4,0.4,3.7c0,2.9-0.5,5-1.5,6.3s-2.7,2-5,2c-1.3,0-2.4-0.2-3.2-0.6c-0.8-0.4-1.5-1.1-2-1.9
			c-0.4-0.6-0.7-1.4-0.9-2.4C329.7,574.3,329.6,573.2,329.6,571.9z M333.9,571.9c0,2,0.2,3.4,0.5,4.1c0.4,0.7,0.9,1.1,1.6,1.1
			c0.4,0,0.8-0.2,1.2-0.5s0.6-0.8,0.7-1.5s0.2-1.7,0.2-3.2c0-2.1-0.2-3.5-0.5-4.3c-0.4-0.7-0.9-1.1-1.6-1.1s-1.3,0.4-1.6,1.1
			C334.1,568.6,333.9,569.9,333.9,571.9z"/>
		<path class="st1" d="M344.6,576.4l4.4-0.6c0.1,0.6,0.3,1,0.6,1.3c0.3,0.3,0.6,0.4,1,0.4c0.7,0,1.3-0.4,1.7-1.1
			c0.3-0.5,0.5-1.6,0.7-3.4c-0.5,0.5-1.1,0.9-1.6,1.2c-0.6,0.3-1.2,0.4-1.9,0.4c-1.4,0-2.6-0.5-3.6-1.5s-1.5-2.3-1.5-3.8
			c0-1.1,0.2-2,0.7-2.9s1.2-1.5,2.1-2c0.9-0.4,2-0.7,3.3-0.7c1.6,0,2.9,0.3,3.8,0.8c1,0.5,1.7,1.4,2.3,2.6c0.6,1.2,0.9,2.8,0.9,4.7
			c0,2.9-0.6,5-1.8,6.3c-1.2,1.3-2.9,2-5,2c-1.3,0-2.3-0.1-3-0.4c-0.7-0.3-1.3-0.7-1.8-1.3C345.2,577.9,344.8,577.2,344.6,576.4z
			 M352.7,569.3c0-0.9-0.2-1.5-0.7-2c-0.4-0.5-1-0.7-1.6-0.7s-1.1,0.2-1.5,0.7c-0.4,0.4-0.6,1.1-0.6,2s0.2,1.6,0.6,2
			c0.4,0.5,0.9,0.7,1.5,0.7s1.1-0.2,1.6-0.7S352.7,570.1,352.7,569.3z"/>
	</g>
	<g>
		<path class="st1" d="M212.9,234.9h3.1v7.9c1-1.6,3.2-5.6,4.7-7.9h3.7l-4.6,6.9l4.7,10.8H221l-3.3-8.1l-1.6,2.2v5.9H213
			L212.9,234.9L212.9,234.9z"/>
		<path class="st1" d="M225.3,243.3c0-2.8,0-3.5,0-4.2h3c0,0.3,0.1,0.9,0.1,1.4c0.4-0.7,1.2-1.7,3-1.7c2.2,0,3.5,1.4,3.5,4.1v9.7
			h-3.1v-9c0-1.3-0.3-2.2-1.5-2.2s-1.8,0.7-1.8,2.7v8.4h-3.1L225.3,243.3L225.3,243.3z"/>
		<path class="st1" d="M237.3,239.1h3.1v13.6h-3.1V239.1z M237.4,234h3.1v3.1h-3.1V234z"/>
		<path class="st1" d="M252.5,251.5c0,3.8-1.1,6.2-5.2,6.2c-3.9,0-4.7-2.3-4.8-3.9h3.1c0.1,0.4,0.2,1.4,1.8,1.4c1.7,0,2-1.3,2-3.7
			v-0.6c-0.5,1.1-1.6,1.6-2.9,1.6c-2.9,0-4.1-2.5-4.1-6.5c0-4.6,1.7-7.2,4.4-7.2c1.8,0,2.4,0.8,2.6,1.4c0-0.4,0.1-0.9,0.1-1.2h3
			c0,0.8,0,2.2,0,4.1L252.5,251.5L252.5,251.5z M245.6,245.9c0,2.8,0.7,4,1.9,4c1.6,0,1.9-1.5,1.9-4.4c0-2.4-0.1-4-1.8-4
			C246.3,241.5,245.6,242.9,245.6,245.9z"/>
		<path class="st1" d="M258.1,234v6.3c0.5-0.9,1.3-1.6,3-1.6c2.2,0,3.4,1.5,3.4,4.2v9.6h-3.1v-9c0-1.3-0.2-2.2-1.6-2.2
			s-1.7,1-1.7,2.8v8.3H255V234H258.1z"/>
		<path class="st1" d="M265.5,239.1h1.8v-3.4h3.1v3.4h2.1v2.6h-2.1v7.4c0,0.8,0.1,1.2,1.1,1.2c0.3,0,0.5,0,0.8-0.1v2.3
			c-0.6,0.2-1.4,0.3-1.9,0.3c-2.2,0-3.1-0.8-3.1-3.2v-7.9h-1.8V239.1z"/>
		<path class="st1" d="M289.6,243.6c0,6.5-1.8,9.3-5.8,9.3c-3.8,0-5.7-2.8-5.7-9.3c0-6.4,2.2-9,5.8-9
			C287.8,234.6,289.6,237.5,289.6,243.6z M281.3,243.6c0,4.2,0.6,6.7,2.5,6.7c2,0,2.5-2.3,2.5-6.7c0-4.1-0.6-6.3-2.5-6.3
			S281.3,239.6,281.3,243.6z"/>
		<path class="st1" d="M292.3,252.6v-11h-1.6V239h1.6v-1.3c0-2.3,1-3.9,3.7-3.9c0.5,0,1,0.1,1.3,0.2v2.6c-0.2-0.1-0.5-0.1-0.7-0.1
			c-0.9,0-1.1,0.5-1.1,1.4v1.1h1.9v2.6h-1.9v11H292.3z"/>
		<path class="st1" d="M305.4,237.7h-3.8v-2.8h10.7v2.8h-3.8v14.9h-3.2L305.4,237.7L305.4,237.7z"/>
		<path class="st1" d="M316.4,234v6.3c0.5-0.9,1.3-1.6,3-1.6c2.2,0,3.4,1.5,3.4,4.2v9.6h-3.1v-9c0-1.3-0.2-2.2-1.6-2.2
			s-1.7,1-1.7,2.8v8.3h-3.1V234H316.4z"/>
		<path class="st1" d="M327.8,246.7c0,1.7,0.2,3.6,1.9,3.6c1.6,0,1.8-1.3,1.8-1.8h3c0,0.4-0.4,4.4-4.9,4.4c-4.4,0-5-3.7-5-7.1
			c0-4.3,1.6-6.9,5.1-6.9c3.9,0,4.9,2.9,4.9,6.5c0,0.5,0,1.1,0,1.3H327.8z M331.6,244.4c0-1.3-0.2-3-1.8-3c-1.8,0-1.9,2-1.9,3H331.6
			z"/>
		<path class="st1" d="M344.1,252.6v-6.3c0-0.2,0-0.4-0.1-0.6l-4.5-10.9h3.5c1,2.8,2.2,6.2,2.7,8.1c0.6-2.2,1.9-5.5,2.8-8.1h3.3
			l-4.5,10.9c-0.1,0.1-0.1,0.3-0.1,0.6v6.2h-3.1V252.6z"/>
		<path class="st1" d="M353.6,246.7c0,1.7,0.2,3.6,1.9,3.6c1.6,0,1.8-1.3,1.8-1.8h3c0,0.4-0.4,4.4-4.9,4.4c-4.4,0-5-3.7-5-7.1
			c0-4.3,1.6-6.9,5.1-6.9c3.9,0,4.9,2.9,4.9,6.5c0,0.5,0,1.1,0,1.3H353.6z M357.4,244.4c0-1.3-0.2-3-1.8-3c-1.8,0-1.9,2-1.9,3H357.4
			z"/>
		<path class="st1" d="M371.2,249.7c0,0.7,0.1,2.3,0.1,3h-2.8c-0.1-0.3-0.1-0.9-0.1-1.3c-0.5,0.9-1.4,1.5-3.1,1.5
			c-2.6,0-3.6-2.1-3.6-4c0-2.8,1.9-4.5,5.3-4.5c0.5,0,0.8,0,1.1,0v-1.5c0-0.8-0.1-1.7-1.5-1.7c-1.3,0-1.5,0.9-1.5,1.7h-3
			c0.1-2,1-4.1,4.6-4.1c2.9,0,4.4,1.3,4.4,3.9v7H371.2z M368.2,246.7c-0.3-0.1-0.6-0.1-1-0.1c-1.8,0-2.4,0.8-2.4,1.9
			c0,0.8,0.4,1.8,1.6,1.8c1.6,0,1.9-1.2,1.9-3.2v-0.4H368.2z"/>
		<path class="st1" d="M373.7,243.7c0-2.2,0-3.6,0-4.6h3c0,0.2,0.1,0.8,0.1,2.2c0.5-1.5,1.7-2.5,3.6-2.5v3.5
			c-2.2-0.1-3.5,0.6-3.5,3.2v7.1h-3.1v-8.9H373.7z"/>
	</g>
</g>
</svg>
