<?xml version="1.0" encoding="utf-8"?>
<!-- Generator: Adobe Illustrator 22.0.1, SVG Export Plug-In . SVG Version: 6.00 Build 0)  -->
<svg version="1.1" id="Layer_1" xmlns="http://www.w3.org/2000/svg" xmlns:xlink="http://www.w3.org/1999/xlink" x="0px" y="0px"
	 viewBox="0 0 519 517.1" style="enable-background:new 0 0 519 517.1;" xml:space="preserve">
<style type="text/css">
	.st0{fill:#6D6E71;}
	.st1{fill:#FAFBFC;}
	.st2{fill:none;stroke:#6D6E71;stroke-width:2;stroke-miterlimit:10;}
	.st3{fill:#FFFFFF;stroke:#58595B;stroke-width:2;stroke-miterlimit:10;}
</style>
<g>
	<polygon class="st0" points="28,233.6 8.5,204.6 37,185.3 24.6,154.1 57.5,140.6 53.5,106.6 86,101.3 88.5,67.6 124,67.6 131,36.1 
		166.3,42.6 181.5,13.1 212.3,26.6 232.9,1.6 259.8,22.6 285.9,1.6 309.7,26.6 339,13.6 354.1,43.9 388,35.1 399,66.6 433,67.1 
		433,101.3 467,106.6 465.3,139.3 495,153.6 482,185.6 510.5,204.6 491.5,233.6 517,257.1 491.5,284.3 511.5,311.1 484,330.3 
		495,361.1 464.3,375.3 468.5,407.6 434.7,414.6 433,446.6 397.5,446.6 390,477.9 355.8,470.6 339,501.1 307.9,484.2 288,513.6 
		259.8,492.3 232.9,511.6 212.5,485.6 181.5,502.1 167.5,470.6 131,480.6 123.3,446.7 89.5,448.1 87,415.3 53.5,408.1 57.3,376 
		26.2,361.7 37.7,330.3 11,311.1 27.3,281 5,257.9 	"/>
	<circle class="st1" cx="260.3" cy="257.9" r="231.2"/>
	<circle class="st2" cx="261" cy="258.6" r="201"/>
	<g>
		<path class="st0" d="M159.4,389.6c0.3-0.5,1-1.4,1.8-2.5l0.3,0.2c0.1,0.1,0.4,0.3,0.8,0.6c0.4,0.3,0.9,0.7,1.5,1.1l12.3,8.5
			c0.3,0.2,0.4,0.4,0.3,0.6c-0.1,0.1-0.4,0-1-0.3c-0.8-0.5-1.3-0.7-1.5-0.7c-0.2,0-0.6,0.4-1,1L161.7,415c-0.5,0.7-0.7,1.2-0.6,1.4
			c0.1,0.2,0.6,0.6,1.5,1.3c0.4,0.3,0.5,0.5,0.3,0.7c-0.1,0.2-0.3,0.2-0.5,0l-0.3-0.2c-0.6-0.5-1.9-1.4-3.8-2.7
			c-0.2-0.1-0.5-0.3-1.1-0.7c-0.5-0.3-1-0.6-1.3-0.8l-0.3-0.2c-0.4-0.2-0.5-0.5-0.3-0.7c0.1-0.1,0.2-0.2,0.3-0.1
			c0.1,0,0.5,0.3,1.1,0.6c0.6,0.4,1,0.5,1.2,0.4c0.2-0.1,0.6-0.6,1.2-1.5l11.9-17.6c-0.5-0.4-1.3-0.9-2.2-1.5c-2.3-1.6-4-2.6-5.2-3
			s-2.1-0.4-2.8,0c-0.8,0.4-1.6,1.2-2.4,2.3c-0.2,0.2-0.4,0.3-0.6,0.2c-0.2-0.2-0.3-0.4,0-0.7l0.5-0.7c0,0,0.1-0.1,0.2-0.3
			c0.1-0.1,0.2-0.3,0.3-0.4L159.4,389.6z"/>
		<path class="st0" d="M132.8,378.7c2.4-2.6,5.3-4.1,8.5-4.5c3.3-0.4,6,0.5,8.3,2.6c2.4,2.2,3.6,5.1,3.6,8.4c0,3.4-1.3,6.4-3.8,9.1
			c-2.5,2.8-5.4,4.3-8.6,4.6c-3.2,0.3-6.1-0.7-8.6-3c-2.3-2.2-3.5-4.9-3.4-8.2C129,384.4,130.3,381.4,132.8,378.7z M135.9,381.3
			c-3,3.2-4.6,6.4-5,9.4c-0.2,1.9,0.4,3.5,1.9,4.9c1.4,1.3,2.9,1.9,4.5,1.7c2.9-0.3,6-2.2,9.3-5.8c2.6-2.8,4.2-5.5,4.6-8
			c0.5-2.5-0.2-4.6-2-6.2c-1.7-1.5-3.6-2-5.8-1.3C140.9,376.8,138.4,378.5,135.9,381.3z"/>
		<path class="st0" d="M104.9,364.1c0.2-0.1,0.4,0,0.7,0.3c0.7,0.8,1.2,1.3,1.7,1.4c0.5,0.1,1.2,0,2.3-0.4l3.4-1.1
			c8.2-2.7,14.4-4.9,18.5-6.7c0.3-0.1,0.5-0.1,0.6,0c0.1,0.2-0.3,1-1.4,2.6c-1.9,2.9-3.3,5.1-4.3,6.6c-1,1.6-2.6,4.1-4.6,7.3
			l-2.7,4.4c-0.4,0.6-0.6,1.1-0.6,1.5s0.2,0.8,0.6,1.4c0.5,0.6,0.7,1,0.8,1.2c0.1,0.1,0.1,0.3-0.1,0.4c-0.2,0.1-0.4,0-0.7-0.4
			l-0.2-0.3c-0.3-0.3-0.7-0.9-1.4-1.8c-0.6-0.9-1.1-1.5-1.4-1.8c-0.1-0.1-0.4-0.4-0.9-1.1s-1.3-1.5-2.2-2.7l-0.3-0.4
			c-0.3-0.3-0.3-0.6-0.1-0.7c0.2-0.1,0.6,0.1,1.1,0.8l1.4,1.7c0.3,0.4,0.6,0.5,0.9,0.3c0,0,0.1-0.1,0.2-0.2l0.6-0.8
			c0.1-0.2,2-3.2,5.8-9.1c0.7-1,1.9-2.9,3.7-5.7c-11.2,3.9-17.1,6-17.6,6.3c-0.4,0.3-0.3,1,0.5,1.9l0.7,0.9c0.2,0.2,0.2,0.4,0,0.5
			c-0.2,0.2-0.5,0-1-0.6c-0.1-0.1-0.3-0.4-0.8-1c-0.4-0.6-0.6-1-0.8-1.2l-0.7-0.9l-1.6-1.8C104.8,364.4,104.8,364.2,104.9,364.1z"/>
		<path class="st0" d="M108.7,333.1c0.1,0,0.6-0.3,1.6-0.8c1-0.5,1.9-1,2.7-1.5l1-0.6c1.1,2.1,3.3,6.2,6.8,12.2
			c0.4,0.7,0.8,1.4,1.2,2.1c0.4,0.7,0.7,1.2,0.8,1.4l0.2,0.3c0.2,0.4,0.3,0.6,0.1,0.7c-0.1,0.1-0.2,0-0.3-0.1c0-0.1-0.3-0.4-0.8-1.1
			c-0.4-0.5-0.7-0.8-0.9-0.8c-0.3,0-0.8,0.2-1.6,0.7L102,355.9c-0.6,0.4-0.9,0.6-0.9,0.9c0,0.2,0.3,0.8,0.8,1.8
			c0.2,0.3,0.2,0.5,0,0.7c-0.2,0.1-0.4-0.1-0.7-0.5l-3.1-5.3c-0.1-0.2-0.8-1.4-2-3.5c-1.3-2.2-2.1-3.6-2.5-4.4
			c-0.4-0.6-0.7-1.2-1.1-1.6c0.9-0.6,2.1-1.4,3.5-2.4l1.3-0.9c0.1-0.1,0.2-0.2,0.4-0.3c0.2-0.1,0.4-0.1,0.5,0.1c0.1,0.2,0,0.5-0.5,1
			c-1.7,1.5-2.5,2.8-2.5,4c0,0.9,0.8,2.7,2.5,5.6l1.5,2.6l9.2-5.3l-0.4-0.7c-1.3-2.3-2.3-3.6-3-3.9c-0.6-0.3-1.9-0.1-3.7,0.7
			c-0.5,0.2-0.7,0.2-0.9,0c-0.1-0.2,0-0.5,0.4-0.7c0.4-0.2,0.9-0.5,1.7-0.9c0.8-0.4,1.3-0.7,1.7-0.9c2.2-1.3,3.7-2.2,4.5-2.8
			c0.2-0.1,0.4-0.2,0.5-0.3c0.3-0.2,0.5-0.1,0.6,0.1c0.1,0.1,0.1,0.3-0.1,0.4c-0.1,0.2-0.7,0.6-1.6,1.3c-1.1,0.9-1.6,1.8-1.4,2.8
			c0.1,0.4,0.6,1.5,1.5,3l0.8,1.4l10.4-6c-2.6-4.6-4.3-7.2-4.9-7.9c-1.1-1.2-2.9-1.2-5.3-0.1c-0.5,0.3-0.9,0.3-1,0
			C108.1,333.6,108.3,333.4,108.7,333.1z"/>
		<path class="st0" d="M96.3,307.8c0.2-0.1,0.3,0,0.4,0.2l0.3,0.8c0.4,1,0.8,1.6,1.2,1.5c0.3,0,1.3-0.4,3-1l1.1-0.4
			c1.4,0.8,2.6,1.6,3.4,2.5c0.8,0.9,1.5,2.1,2.1,3.6c1.4,3.5,1.5,6.7,0.2,9.7c-1.3,2.9-3.7,5.1-7.3,6.5c-3.7,1.5-7,1.6-10.1,0.5
			c-3.1-1.1-5.2-3.4-6.6-6.7c-0.6-1.5-0.8-3.2-0.7-5.2c0-0.6,0-1.1-0.1-1.4c-0.2-0.4-0.5-0.6-1.1-0.5c-0.4,0-0.6-0.1-0.6-0.2
			c-0.1-0.2,0-0.3,0.2-0.4c0.1,0,0.3-0.1,0.7-0.2c1.3-0.4,2.3-0.7,2.8-0.9l2.2-0.9c0.8-0.3,1.1-0.5,1-0.4c0.6-0.2,0.9-0.1,1,0.1
			c0.1,0.2,0,0.4-0.3,0.5c-2.1,1-3.6,2.3-4.4,3.9s-0.8,3.4-0.1,5.2c0.9,2.3,2.7,3.7,5.3,4.3c2.6,0.5,5.7,0.1,9.3-1.3
			c3.4-1.4,5.9-3.1,7.4-5.3s1.8-4.4,0.8-6.8c-0.7-1.8-1.7-2.8-3-3.1c-0.6-0.1-1.6,0.1-3,0.6c-1.1,0.4-1.7,0.8-1.8,1.1
			c-0.1,0.3,0.1,1.1,0.6,2.3c0.1,0.3,0.2,0.5,0.2,0.6s-0.1,0.2-0.2,0.2c-0.2,0.1-0.5-0.1-0.7-0.6l-0.2-0.6c-0.1-0.3-0.6-1.5-1.4-3.5
			l-1.1-2.8c-0.1-0.2-0.1-0.3-0.2-0.5c-0.1-0.2-0.1-0.3-0.1-0.4C96.1,308.2,96.1,307.9,96.3,307.8z"/>
		<path class="st0" d="M92.9,285.6c0.1,0,0.7-0.1,1.7-0.3c1.1-0.2,2.1-0.4,3-0.6l1.2-0.3c0.4,2.3,1.4,6.9,3,13.7
			c0.2,0.8,0.4,1.6,0.6,2.4s0.3,1.3,0.4,1.6l0.1,0.4c0.1,0.4,0.1,0.7-0.1,0.7c-0.1,0-0.2,0-0.3-0.2c0-0.1-0.2-0.5-0.4-1.3
			c-0.2-0.6-0.4-0.9-0.6-1c-0.2-0.1-0.8,0-1.7,0.2L80,305.5c-0.7,0.2-1.1,0.4-1.1,0.6c-0.1,0.2,0,0.9,0.3,2c0.1,0.4,0,0.6-0.2,0.6
			c-0.2,0-0.4-0.2-0.5-0.7l-1.4-6c0-0.2-0.4-1.5-0.9-4c-0.6-2.4-0.9-4.1-1.1-4.9c-0.2-0.7-0.4-1.3-0.6-1.9c1-0.3,2.4-0.7,4.1-1.3
			l1.5-0.5c0.1-0.1,0.3-0.1,0.4-0.1c0.2-0.1,0.4,0,0.4,0.2c0.1,0.3-0.2,0.5-0.8,0.8c-2,0.9-3.2,2-3.5,3.1c-0.2,0.8,0,2.9,0.7,6
			l0.7,2.9l10.3-2.4l-0.2-0.8c-0.6-2.6-1.2-4.2-1.7-4.6c-0.5-0.5-1.8-0.6-3.7-0.4c-0.5,0.1-0.8,0-0.8-0.2c-0.1-0.3,0.1-0.4,0.5-0.5
			c0.4-0.1,1-0.2,1.9-0.4c0.8-0.1,1.5-0.3,1.9-0.4c2.5-0.6,4.2-1,5.1-1.3c0.2-0.1,0.4-0.1,0.6-0.2c0.3-0.1,0.5,0,0.5,0.3
			c0,0.2,0,0.3-0.2,0.4c-0.2,0.1-0.8,0.4-1.9,0.8c-1.3,0.5-2.1,1.3-2.2,2.3c0,0.5,0.1,1.6,0.6,3.3l0.4,1.6l11.7-2.7
			c-1.2-5.1-2-8.1-2.4-9c-0.7-1.5-2.4-2-5-1.6c-0.6,0.1-0.9,0-1-0.3C92.2,285.9,92.5,285.7,92.9,285.6z"/>
		<path class="st0" d="M71.4,260.4c0.2,0,0.3,0.2,0.4,0.7c0.1,1.1,0.3,1.7,0.6,2.1c0.3,0.3,1,0.6,2.1,0.9L78,265
			c8.3,2.3,14.7,3.8,19.1,4.6c0.3,0,0.4,0.2,0.5,0.3c0,0.2-0.8,0.7-2.6,1.4c-3.2,1.4-5.6,2.4-7.2,3.1c-1.8,0.8-4.4,2-7.9,3.5
			l-4.7,2.2c-0.6,0.3-1.1,0.6-1.3,0.9c-0.2,0.3-0.3,0.8-0.3,1.5c0,0.8,0.1,1.3,0,1.4c0,0.2-0.1,0.2-0.3,0.3c-0.2,0-0.3-0.2-0.4-0.7
			l0-0.3c0-0.4-0.1-1.2-0.1-2.2c-0.1-1.1-0.1-1.8-0.1-2.3c0-0.1-0.1-0.6-0.2-1.4s-0.2-1.9-0.3-3.4l0-0.5c0-0.4,0.1-0.7,0.3-0.7
			c0.2,0,0.4,0.4,0.5,1.3l0.3,2.2c0.1,0.5,0.3,0.7,0.6,0.7c0.1,0,0.1,0,0.3-0.1l0.9-0.4c0.2-0.1,3.5-1.5,9.8-4.4
			c1.1-0.5,3.2-1.4,6.3-2.7c-11.5-3-17.6-4.5-18.1-4.4c-0.6,0-0.8,0.7-0.6,1.8l0.1,1.1c0,0.3-0.1,0.4-0.3,0.5c-0.3,0-0.4-0.3-0.5-1
			c0-0.1,0-0.5-0.1-1.2c0-0.7,0-1.2,0-1.5l-0.1-1.1l-0.3-2.4C71.1,260.7,71.2,260.4,71.4,260.4z"/>
		<path class="st0" d="M96.4,246.7c0.2,0,0.3,0.2,0.3,0.4l0,0.4c-0.1,0.1-0.2,1.8-0.2,4.9c0,0.6,0,1.2,0,1.8c0,0.3,0,0.8,0,1.4
			c0,0.3-0.1,0.5-0.3,0.5c-0.2,0-0.3-0.3-0.3-0.9c0-1-0.1-1.5-0.3-1.7s-0.9-0.3-2.1-0.3l-19-0.5c-1.2,0-1.8,0-2,0.1
			c-0.2,0.1-0.4,0.8-0.5,2c0,0.5-0.1,0.7-0.3,0.7c-0.2,0-0.3-0.2-0.3-0.4l0.1-4.9c0-0.4,0-1.1,0.1-2.1l0-1.4c0-0.4,0.1-0.6,0.3-0.6
			c0.2,0,0.3,0.5,0.3,1.6c0,0.6,0.1,1,0.3,1.1c0.2,0.1,0.7,0.2,1.5,0.2l19.2,0.6c1.4,0,2.1,0,2.2-0.1c0.3-0.3,0.4-1,0.5-2.3
			C96.1,246.8,96.2,246.7,96.4,246.7z"/>
		<path class="st0" d="M81.1,220.8c0.3,0,0.4,0.2,0.4,0.5c0,0.3-0.4,0.4-1,0.5c-0.4,0-0.9,0-1.3,0c-0.9,0-1.6,0.2-2.3,0.5
			c-0.9,0.4-1.5,1.1-1.8,2.3c-0.2,0.7-0.4,1.3-0.4,1.8c-0.1,1.1-0.2,1.8-0.2,2l21.5,3c0.9,0.1,1.4,0,1.7-0.5c0.2-0.2,0.3-0.9,0.5-2
			c0.1-0.3,0.2-0.4,0.4-0.4c0.2,0,0.3,0.2,0.2,0.6c0,0.2-0.1,0.4-0.1,0.5c-0.2,1.4-0.4,2.4-0.5,3c-0.1,0.8-0.2,1.5-0.3,2.2
			c-0.1,0.7-0.2,1.6-0.3,2.6c-0.1,0.5-0.2,0.8-0.4,0.8c-0.2,0-0.3-0.6-0.1-1.6c0.1-0.7,0-1.2-0.3-1.5c-0.2-0.1-0.7-0.3-1.4-0.4
			l-21.4-3c-0.3,2.4-0.4,3.8-0.3,4.4c0.3,1.6,1.7,2.7,4,3.3c0.7,0.2,1,0.4,1,0.6c0,0.3-0.3,0.4-0.8,0.3c-0.3,0-0.5-0.1-0.8-0.1
			l-0.8-0.2c-1.1-0.2-2.5-0.5-4.3-0.9l0.2-1.6l1.1-7.3c0.1-0.9,0.3-2.2,0.6-4l0.7-5.9c1.3,0.1,3.3,0.3,6,0.4c0.1,0,0.2,0,0.3,0
			C81,220.8,81.1,220.8,81.1,220.8z"/>
		<path class="st0" d="M82.3,192.7c0.2,0.1,0.2,0.3,0.1,0.7c-0.3,1.3-0.3,2.1,0,2.5c0.2,0.4,1.9,1.9,5.1,4.7
			c1.4,1.2,2.7,2.4,3.7,3.4c0.7,0.7,1.2,1.1,1.5,1.3c0.3,0.2,1,0.4,2,0.7l6.6,1.9c0.8,0.2,1.2,0.3,1.4,0.1c0.2-0.2,0.5-0.8,0.9-2
			c0.2-0.6,0.4-0.9,0.6-0.8c0.2,0.1,0.2,0.2,0.1,0.6l-0.1,0.4l-1.5,4.8c-0.4,1.4-0.7,2.5-0.9,3.4c0,0.1-0.1,0.3-0.1,0.5
			c-0.1,0.3-0.2,0.5-0.5,0.4s-0.3-0.4-0.1-0.9c0.3-1.3,0.4-2.1,0.3-2.3c-0.1-0.3-0.6-0.6-1.6-0.8l-7.3-2.1c-0.6,0.1-2.1,0.4-4.6,0.8
			l-7.8,1.5c-0.8,0.2-1.6,0.4-2.6,0.6c-0.3,0.2-0.6,0.7-0.8,1.5c-0.2,0.8-0.5,1.2-0.7,1.2c-0.2-0.1-0.2-0.3-0.1-0.6
			c0.1-0.5,0.4-1.4,0.9-2.9c0.3-0.8,0.4-1.4,0.6-1.8l1.1-4c0-0.2,0-0.4,0.1-0.6c0.1-0.4,0.3-0.6,0.5-0.5c0.2,0.1,0.2,0.5,0,1.3
			c-0.4,1.4-0.4,2.2,0.1,2.4c0.4,0.1,2.2-0.2,5.4-0.8l6.9-1.4c-0.9-0.9-1.9-1.9-3.2-3.1l-3.5-3.2c-1.3-1.2-2.1-1.9-2.6-2
			c-0.3-0.1-0.5,0.1-0.7,0.4c-0.3,0.8-0.6,1.3-0.6,1.6c-0.1,0.5-0.3,0.7-0.6,0.7c-0.2-0.1-0.2-0.3-0.1-0.7l0.6-2l0.3-1.1
			C81.6,193.8,82,192.7,82.3,192.7z"/>
		<path class="st0" d="M89.4,182.9c1.6,0.7,2.5,1.8,2.7,3.4c0.1,1.1,0.1,1.9-0.1,2.5c-0.1,0.2-0.2,0.3-0.4,0.3
			c-0.2-0.1-0.2-0.2-0.2-0.5c0.1-1.1,0.1-2-0.2-2.6c-0.2-0.6-0.7-1-1.5-1.3c-0.6-0.2-1.2-0.3-1.7-0.2c0.8,0.3,0.9,0.9,0.5,1.9
			c-0.2,0.5-0.5,0.8-1,1c-0.5,0.2-0.9,0.2-1.4,0c-0.6-0.2-0.9-0.6-1.2-1.2c-0.2-0.6-0.2-1.2,0-1.8c0.3-0.8,0.9-1.4,1.7-1.7
			C87.7,182.5,88.5,182.6,89.4,182.9z"/>
		<path class="st0" d="M112.9,169.3c1.8,1,3,2.5,3.6,4.5c0.6,2.1,0.3,4.1-0.7,6c-0.6,1.1-1.7,2.3-3.2,3.6c-0.4,0.3-0.7,0.6-0.8,0.8
			c-0.1,0.3,0.1,0.6,0.6,0.9c0.3,0.2,0.4,0.4,0.2,0.7c-0.1,0.2-0.3,0.3-0.5,0.1c-0.2-0.1-0.3-0.2-0.4-0.2c-1.2-0.9-2.4-1.6-3.5-2.2
			c-0.2-0.1-0.8-0.4-1.8-0.9c-0.1,0-0.3-0.1-0.5-0.2c-0.3-0.2-0.4-0.4-0.3-0.6c0.1-0.2,0.4-0.2,1,0c4.1,1.5,7,0.7,8.6-2.4
			c0.7-1.3,0.8-2.5,0.5-3.6s-1.2-2-2.5-2.7c-1.2-0.6-2.4-0.8-3.6-0.6c-1.2,0.2-2.7,1-4.4,2.2c-2.1,1.5-3.8,2.4-5.1,2.7
			c-1.3,0.3-2.7,0.1-4.1-0.7c-1.8-0.9-2.9-2.3-3.5-4c-0.5-1.7-0.4-3.5,0.6-5.2c0.4-0.7,1.2-1.6,2.3-2.6c0.4-0.4,0.7-0.6,0.8-0.9
			c0.1-0.2,0.2-0.4,0.1-0.5c0-0.1-0.2-0.3-0.6-0.6c-0.2-0.2-0.2-0.3-0.1-0.5c0.1-0.2,0.3-0.3,0.6-0.1c0.2,0.1,0.3,0.2,0.4,0.2
			c0.5,0.3,1.1,0.7,1.8,1.1c1,0.5,1.9,0.9,2.5,1.1l0.5,0.2c0.2,0.1,0.3,0.3,0.2,0.5c-0.1,0.2-0.5,0.3-1,0.1c-1.4-0.4-2.7-0.4-4,0
			c-1.3,0.4-2.2,1.2-2.8,2.3c-0.6,1.1-0.7,2.1-0.3,3.1c0.3,1,1.1,1.8,2.3,2.4c1.4,0.7,2.7,0.8,4,0.4c0.7-0.3,2-1,3.7-2.3
			c2.1-1.5,3.8-2.4,5.3-2.7C110.2,168.4,111.6,168.6,112.9,169.3z"/>
		<path class="st0" d="M128.1,120.4c0.2,0.1,0,0.5-0.5,1.2c-0.6,0.7-0.7,1.4-0.5,2c0.2,0.6,0.9,1.7,1.9,3.4c1.8,3,3.3,5.5,4.5,7.6
			c2.1,3.6,4.1,7.1,6.2,10.4c0.2,0.3,0.2,0.5,0.1,0.6c-0.1,0.1-0.2,0.1-0.5,0c-0.3-0.1-1.1-0.4-2.5-0.9c-1.9-0.7-3.8-1.4-5.7-2
			c-1.5-0.5-3.1-1-4.7-1.6c2,3.9,4.2,7.9,6.5,12c0.2,0.3,0.2,0.4,0.1,0.6c-0.1,0.1-0.3,0.1-0.7-0.1c-1.8-0.6-9.2-3.2-22.2-8
			c-0.9-0.3-1.5-0.5-1.8-0.5c-0.3,0-0.7,0.2-1.1,0.7c-0.8,0.8-1.3,1.2-1.5,1c-0.2-0.1-0.1-0.4,0.1-0.6c0.1-0.1,0.2-0.2,0.3-0.3
			c0.9-0.9,1.8-1.9,2.7-3.1c0.2-0.2,0.5-0.6,0.9-1.2c0.4-0.6,1-1.3,1.7-2.1l0.3-0.3c0.3-0.3,0.5-0.4,0.6-0.3
			c0.2,0.2,0.1,0.6-0.4,1.1c-0.9,1.2-1.2,1.8-1,2.1c0.5,0.4,6.7,2.8,18.6,7.1c-2.1-3.8-3.6-6.7-4.5-8.5l-9.3-3.3
			c-0.5-0.2-0.9-0.2-1.2-0.1c-0.3,0.1-0.6,0.4-1.1,0.9s-0.8,0.7-0.9,0.6c-0.2-0.2-0.1-0.4,0.2-0.8c0.2-0.3,0.6-0.6,1-1
			c0.4-0.4,1-1.1,1.9-2.1l1.8-2.1l2.6-3c0.6-0.7,1.2-1.5,2-2.5c0.1-0.1,0.2-0.3,0.3-0.4c0.4-0.4,0.7-0.6,0.8-0.4
			c0.2,0.1,0.1,0.4-0.1,0.7l-0.4,0.5c-0.7,0.8-1.1,1.5-1.3,2.1c-0.1,0.3,0.3,1.2,1.1,2.7c0.3,0.7,0.9,1.8,1.7,3.3
			c0.2,0.3,0.5,0.9,0.8,1.5c0.5,0.2,1.8,0.6,4.1,1.4c2.9,0.9,5.3,1.8,7.3,2.5c-2.1-3.5-4.6-7.7-7.4-12.6c-1.5-2.6-2.4-4-2.6-4.2
			c-0.3-0.3-0.8-0.1-1.3,0.5c-0.8,0.9-1.2,1.3-1.4,1.1c-0.2-0.2-0.1-0.4,0.2-0.8c0.3-0.3,0.5-0.5,0.7-0.7c0.4-0.4,0.7-0.7,1-1
			l1.9-2.2c0.5-0.5,0.7-0.8,0.8-0.9C128,120.3,128.1,120.3,128.1,120.4z M118.6,132.2l-0.3,0.3l-0.4,0.5c-0.5,0.7-0.7,1.1-0.5,1.3
			c0,0,2.1,0.8,6.1,2.4c-0.6-1.2-1.4-2.7-2.4-4.6c-0.1-0.2-0.3-0.6-0.5-1l-0.2-0.2C120.2,130.7,119.5,131.1,118.6,132.2z"/>
		<path class="st0" d="M159.7,119c0.1,0.1,0.4,0.5,1.1,1.4c0.7,0.9,1.3,1.7,1.9,2.4l0.8,0.9c-1.9,1.4-5.5,4.3-10.9,8.8
			c-0.6,0.5-1.3,1.1-1.9,1.6c-0.6,0.5-1.1,0.9-1.3,1.1l-0.3,0.2c-0.4,0.3-0.6,0.4-0.7,0.2c-0.1-0.1-0.1-0.2,0-0.3
			c0.1,0,0.4-0.4,1-0.9c0.4-0.4,0.7-0.8,0.6-1c0-0.3-0.3-0.7-0.9-1.4l-13-15.6c-0.4-0.5-0.8-0.8-1-0.8c-0.2,0-0.8,0.4-1.6,1.1
			c-0.3,0.2-0.5,0.3-0.6,0.1c-0.1-0.2,0-0.4,0.4-0.7l4.7-3.9c0.2-0.1,1.2-1,3.1-2.6c1.9-1.6,3.2-2.7,3.9-3.2c0.6-0.5,1-0.9,1.4-1.4
			c0.7,0.8,1.7,1.8,3,3.1l1.1,1.1c0.1,0.1,0.2,0.2,0.3,0.3c0.2,0.2,0.1,0.3,0,0.5c-0.2,0.2-0.5,0.1-1-0.3c-1.7-1.4-3.2-2-4.4-1.7
			c-0.9,0.2-2.6,1.3-5.1,3.4l-2.3,1.9l6.8,8.1l0.7-0.6c2.1-1.7,3.2-2.9,3.4-3.6c0.2-0.7-0.3-1.9-1.4-3.5c-0.3-0.4-0.3-0.7-0.2-0.8
			c0.2-0.2,0.4-0.1,0.7,0.2s0.7,0.8,1.2,1.5c0.5,0.7,0.9,1.2,1.2,1.5c1.6,2,2.8,3.3,3.5,4c0.2,0.2,0.3,0.3,0.4,0.5
			c0.2,0.2,0.2,0.4,0,0.6c-0.1,0.1-0.3,0.1-0.5,0c-0.2-0.1-0.7-0.6-1.5-1.3c-1.1-1-2.1-1.3-3-0.9c-0.4,0.2-1.3,0.8-2.7,2l-1.2,1
			l7.7,9.3c4.1-3.4,6.4-5.4,6.9-6.2c1-1.3,0.7-3-0.8-5.2c-0.3-0.5-0.4-0.8-0.2-1C159.1,118.4,159.4,118.6,159.7,119z"/>
		<path class="st0" d="M179.7,98.5c2.2,3.6,2.6,7.2,1.3,10.8c-1,2.6-3,4.8-6.1,6.7c-0.1,0-0.4,0.3-1.1,0.7c-0.6,0.4-1.6,1-2.8,1.7
			l-1.5,0.9l-2.4,1.5c-0.1,0.1-0.3,0.2-0.5,0.3c-0.4,0.2-0.6,0.2-0.8,0c-0.1-0.2,0.2-0.5,0.8-0.9c0.8-0.5,1.3-1,1.3-1.4
			c0-0.2-0.2-0.6-0.6-1.2l-10-16.6c-0.6-1-1-1.5-1.3-1.6c-0.3-0.1-0.8,0.2-1.7,0.7c-0.5,0.3-0.8,0.3-0.9,0.1c-0.1-0.2,0-0.4,0.4-0.6
			c0,0,0.2-0.1,0.7-0.4c0.5-0.3,0.9-0.6,1.4-0.8l3.3-2c3.7-2.2,6.5-3.5,8.3-4c2.2-0.5,4.5-0.2,6.7,0.9
			C176.4,94.4,178.3,96.1,179.7,98.5z M176.2,100.5c-2.1-3.4-4.2-5.5-6.5-6.3c-2.3-0.8-4.9-0.3-7.7,1.4c-1.4,0.8-2.1,1.5-2.2,1.9
			c0,0.2,0.2,0.8,0.7,1.6l9.9,16.5c0.3,0.6,0.6,0.9,0.7,1s0.3,0.2,0.4,0.2c0.6,0,1.8-0.6,3.3-1.5c2.2-1.3,3.5-3.2,4-5.6
			C179.2,107.1,178.3,104,176.2,100.5z"/>
		<path class="st0" d="M207,87.2c1.5,3.9,1.4,7.6-0.5,10.8c-1.4,2.4-3.8,4.3-7.1,5.6c-0.1,0-0.5,0.2-1.2,0.5
			c-0.7,0.3-1.7,0.7-3.1,1.2l-1.7,0.7l-2.6,1c-0.2,0.1-0.3,0.1-0.5,0.2c-0.4,0.2-0.7,0.1-0.8-0.1c-0.1-0.2,0.2-0.4,1-0.7
			c0.9-0.4,1.4-0.8,1.5-1.2c0-0.2-0.1-0.6-0.4-1.3l-7.1-18.1c-0.4-1.1-0.8-1.7-1-1.8c-0.2-0.1-0.8,0-1.8,0.4
			c-0.5,0.2-0.8,0.2-0.9-0.1c-0.1-0.2,0.1-0.3,0.5-0.5c0,0,0.2-0.1,0.7-0.3c0.5-0.2,1-0.4,1.5-0.6l3.6-1.4c4-1.6,7-2.4,8.9-2.5
			c2.3-0.1,4.5,0.6,6.5,2C204.5,82.6,206,84.6,207,87.2z M203.2,88.5c-1.5-3.7-3.3-6.2-5.4-7.3c-2.1-1.2-4.7-1.1-7.8,0.1
			c-1.5,0.6-2.3,1.1-2.5,1.5c-0.1,0.2,0.1,0.8,0.4,1.7l7,17.9c0.2,0.6,0.4,1,0.5,1.1c0.1,0.1,0.2,0.2,0.4,0.2
			c0.6,0.1,1.8-0.3,3.5-0.9c2.4-0.9,4-2.6,4.8-4.8C205,95.5,204.7,92.4,203.2,88.5z"/>
		<path class="st0" d="M224.9,95.2c0.1,0.2-0.1,0.3-0.3,0.4l-0.3,0.1c-0.2,0-1.7,0.3-4.8,1.1c-0.6,0.1-1.2,0.3-1.7,0.5
			c-0.3,0.1-0.8,0.2-1.4,0.4c-0.3,0.1-0.5,0-0.5-0.2c0-0.2,0.2-0.4,0.8-0.5c0.9-0.3,1.4-0.5,1.6-0.7s0-0.9-0.3-2.1l-4.7-18.4
			c-0.3-1.1-0.5-1.8-0.7-1.9c-0.2-0.2-0.9-0.2-2.1,0.1c-0.5,0.1-0.7,0.1-0.7-0.1c0-0.2,0.1-0.3,0.4-0.4l4.7-1.2c0.4-0.1,1-0.3,2-0.5
			l1.3-0.4c0.4-0.1,0.6,0,0.6,0.2c0,0.2-0.4,0.4-1.5,0.7c-0.6,0.2-0.9,0.4-1,0.6c-0.1,0.2,0,0.7,0.2,1.5l4.7,18.6
			c0.3,1.3,0.6,2,0.7,2.1c0.3,0.2,1.1,0.1,2.4-0.1C224.7,95,224.8,95,224.9,95.2z"/>
		<path class="st0" d="M247.5,67.1c0,0.2-0.3,0.4-0.9,0.4l-0.8,0.1l-0.6,0.1c-0.4,0-0.6,0.1-0.7,0.3c-0.1,0.1,0,0.5,0,1.2l2.7,20.5
			c0.2,1.3,0.2,2,0.3,2.2c0,0.2-0.1,0.3-0.2,0.3c-0.1,0-0.3-0.1-0.5-0.3l-5.4-6.1c-3.2-3.5-7-8-11.6-13.3l2.6,20
			c0.1,0.3,0.3,0.5,0.6,0.5c0.3,0,1.2,0,2.4-0.2c0.3,0,0.5,0,0.5,0.2c0,0.2-0.3,0.4-0.9,0.5c-0.2,0-0.9,0.1-2,0.2
			c-0.4,0-0.8,0.1-1.1,0.1c0,0-0.2,0-0.6,0.2c-0.4,0.1-1.1,0.2-2,0.3l-0.4,0c-0.5,0.1-0.8,0-0.9-0.2s0.2-0.4,0.7-0.4
			c1.4-0.2,2.2-0.4,2.4-0.6c0.2-0.2,0.3-0.7,0.1-1.6L229,74c-0.3-2-0.8-3.2-1.7-3.6c-0.4-0.2-1.1-0.2-2.1-0.1c-0.6,0.1-0.9,0-1-0.3
			c0-0.2,0.1-0.4,0.5-0.4c0.5-0.1,1.1-0.1,1.8-0.2c0.7,0,1.1-0.1,1.2-0.1c0.1,0,0.4-0.1,1-0.2c0.8-0.1,1.5-0.2,2.3-0.4l14.7,16.8
			l-2.1-15.9c-0.1-0.7-0.2-1.2-0.2-1.3c0-0.2-0.2-0.3-0.3-0.3c-0.2-0.1-0.8,0-1.7,0.1c-0.9,0.1-1.3,0.1-1.3-0.2
			c0-0.2,0.2-0.4,0.8-0.5l1.2-0.2c0.3,0,0.6-0.1,1-0.1c0.4-0.1,0.6-0.1,0.7-0.1c0,0,0.2,0,0.6-0.1c0.4-0.1,0.7-0.1,1.1-0.1l1.1-0.1
			C247.2,66.8,247.5,66.9,247.5,67.1z"/>
		<path class="st0" d="M277.8,84.4c0,0.2-0.1,0.3-0.3,0.3l-0.8,0c-1.1-0.1-1.7,0.1-1.9,0.5c-0.1,0.3-0.2,1.3-0.2,3.1l0,1.1
			c-1.2,1-2.4,1.7-3.6,2.1c-1.2,0.4-2.5,0.6-4.1,0.6c-3.8-0.1-6.8-1.3-9-3.6c-2.2-2.3-3.2-5.4-3.1-9.3c0.1-3.9,1.3-7.1,3.5-9.5
			c2.2-2.4,5.1-3.5,8.7-3.4c1.6,0,3.3,0.5,5.1,1.4c0.5,0.3,1,0.4,1.4,0.4c0.5,0,0.8-0.3,0.9-0.8c0.1-0.3,0.3-0.5,0.4-0.5
			c0.2,0,0.3,0.1,0.3,0.3c0,0.1,0,0.3-0.1,0.8c-0.2,1.4-0.2,2.3-0.3,2.9l-0.1,2.3c0,0.8,0,1.2,0,1.1c-0.1,0.6-0.2,0.9-0.5,0.9
			c-0.2,0-0.3-0.2-0.3-0.5c-0.1-2.3-0.7-4.2-1.9-5.6c-1.2-1.4-2.8-2.1-4.8-2.1c-2.5-0.1-4.5,1-6,3.2c-1.5,2.2-2.3,5.2-2.4,9.1
			c-0.1,3.7,0.6,6.7,2,8.9c1.4,2.2,3.4,3.3,5.9,3.4c1.9,0,3.3-0.5,4-1.6c0.4-0.5,0.6-1.5,0.6-3c0-1.2-0.1-1.9-0.3-2.1
			c-0.2-0.2-1-0.3-2.4-0.3c-0.3,0-0.6,0-0.6-0.1s-0.1-0.1-0.1-0.2c0-0.3,0.3-0.4,0.8-0.4l0.6,0c0.4,0,1.6,0.1,3.8,0.1l3,0.1
			c0.2,0,0.3,0,0.5,0c0.2,0,0.3,0,0.4,0C277.6,84.1,277.9,84.2,277.8,84.4z"/>
		<path class="st0" d="M309.3,78.8c-0.5,2.3-1.9,3.8-4.1,4.7c-1.4,0.5-3,0.6-4.9,0.2c-0.8-0.2-1.7-0.5-2.7-0.8l-2.2,10
			c-0.1,0.5-0.2,0.9-0.2,1c0,0.4,0.3,0.6,0.6,0.8c0.7,0.2,1.3,0.4,1.9,0.6c0.3,0.1,0.4,0.2,0.3,0.3c-0.1,0.2-0.2,0.3-0.6,0.2
			c-0.1,0-0.3-0.1-0.4-0.1c-1.3-0.3-3.7-0.8-7.3-1.6l-0.5-0.1c-0.7-0.2-1-0.3-1-0.6c0-0.2,0.3-0.2,0.8-0.1c1.1,0.2,1.8,0.3,2,0.1
			c0.2-0.1,0.4-0.3,0.5-0.6l4.6-20.8c0.2-0.7,0.1-1.2-0.3-1.5c-0.2-0.1-0.6-0.3-1.2-0.4l-0.4-0.1c-0.1,0-0.2,0-0.2-0.1
			c-0.4-0.1-0.5-0.2-0.5-0.4c0-0.2,0.4-0.2,1.1-0.1l7.7,1.7c2.7,0.6,4.5,1.5,5.6,2.7C309.4,75.2,309.7,76.9,309.3,78.8z M305.6,78
			c0.8-3.5-0.3-5.6-3.3-6.3c-1-0.2-1.7-0.2-2,0.1c-0.2,0.1-0.3,0.5-0.5,1.1l-2.1,9.4c0.2,0.1,0.4,0.1,0.6,0.2
			c1.5,0.3,2.9,0.3,4.2-0.2C304.1,81.7,305.1,80.3,305.6,78z"/>
		<path class="st0" d="M327.1,101.9c-0.2,0.6-0.6,1.5-1.2,2.9l-0.4-0.1c-0.1,0-0.5-0.2-1-0.4c-0.5-0.2-1.1-0.5-1.7-0.7l-14-5.2
			c-0.4-0.1-0.5-0.3-0.5-0.5c0.1-0.2,0.4-0.1,1,0c0.9,0.3,1.4,0.4,1.6,0.3c0.2-0.1,0.5-0.5,0.7-1.2l6.9-19c0.3-0.8,0.4-1.4,0.3-1.5
			c-0.1-0.2-0.7-0.5-1.7-0.9c-0.4-0.2-0.6-0.4-0.5-0.6c0.1-0.2,0.2-0.3,0.5-0.2l0.3,0.1c0.7,0.3,2.2,0.9,4.4,1.7
			c0.2,0.1,0.6,0.2,1.2,0.4c0.6,0.2,1.1,0.3,1.5,0.5l0.4,0.1c0.4,0.1,0.6,0.3,0.5,0.6c0,0.1-0.1,0.2-0.3,0.2c-0.1,0-0.5-0.1-1.2-0.3
			c-0.7-0.2-1.1-0.2-1.3-0.1c-0.2,0.1-0.5,0.7-0.8,1.7l-7.2,20c0.6,0.2,1.4,0.6,2.5,0.9c2.6,1,4.6,1.5,5.7,1.6
			c1.2,0.1,2.1-0.1,2.8-0.7c0.7-0.6,1.2-1.5,1.8-2.8c0.1-0.3,0.3-0.4,0.5-0.3c0.3,0.1,0.4,0.3,0.2,0.6l-0.3,0.8c0,0-0.1,0.1-0.1,0.3
			c-0.1,0.2-0.1,0.3-0.2,0.5L327.1,101.9z"/>
		<path class="st0" d="M348.9,116.1c-0.1,0.2-0.3,0.2-0.6,0c-0.2-0.1-0.4-0.2-0.6-0.3l-4-2.3l-4.1-2c-0.2-0.1-0.3-0.1-0.5-0.2
			c-0.4-0.2-0.6-0.4-0.5-0.7c0.1-0.2,0.5-0.2,1.1,0.1c1.9,1,2.9,1.3,3.1,0.9c0,0,0-0.1,0.1-0.3l0.2-1l0.1-0.5
			c0.2-0.8,0.5-2.5,0.9-5.1l-6.8-3.6c-3.1,2.7-4.7,4.3-5,4.9c-0.2,0.3-0.1,0.5,0.1,0.7c0.1,0.1,0.6,0.4,1.5,1
			c0.6,0.3,0.9,0.6,0.8,0.8c-0.1,0.2-0.4,0.2-1-0.1c-1-0.5-2.1-1.2-3.3-1.9c-0.3-0.2-0.6-0.4-1-0.6c-0.3-0.2-0.7-0.3-1-0.4
			c-0.2-0.1-0.3-0.1-0.4-0.2c-0.3-0.2-0.4-0.3-0.3-0.5c0.1-0.2,0.5-0.1,1.2,0.2c0.7,0.3,1.2,0.5,1.6,0.5c0.4,0,0.8-0.2,1.2-0.7
			c6.9-6.4,12.4-11.5,16.6-15.4c0.2-0.2,0.4-0.5,0.7-0.7l0.4-0.5c0.2-0.2,0.3-0.3,0.4-0.2c0.1,0,0.1,0.1,0.1,0.3
			c-0.2,1-0.4,3-0.9,6.2c-0.3,2.5-1.1,8.6-2.5,18.5c-0.1,0.6,0,1,0.2,1.3s0.7,0.6,1.5,1.1C348.7,115.7,349,115.9,348.9,116.1z
			 M344.3,103.9c0.2-1.1,0.4-3,0.8-5.7l0.8-5.2c-2.1,1.9-4.8,4.4-8.1,7.5L344.3,103.9z"/>
		<path class="st0" d="M382.1,110.3c-0.1,0.2-0.4,0.1-0.9-0.3l-0.6-0.5l-0.5-0.4c-0.3-0.2-0.5-0.3-0.7-0.2s-0.4,0.4-0.8,0.9
			l-12.2,16.7c-0.8,1-1.2,1.6-1.3,1.8c-0.1,0.2-0.3,0.2-0.4,0.1c-0.1-0.1-0.2-0.3-0.2-0.6l0.3-8.2c0.2-4.7,0.5-10.6,0.9-17.6
			l-11.9,16.3c-0.2,0.3-0.1,0.5,0.1,0.8c0.2,0.3,0.8,0.8,1.9,1.6c0.3,0.2,0.3,0.4,0.2,0.5c-0.1,0.2-0.5,0.1-1-0.3
			c-0.2-0.1-0.7-0.6-1.6-1.3c-0.3-0.2-0.6-0.5-0.9-0.7c0,0-0.2-0.1-0.5-0.3c-0.4-0.2-0.9-0.6-1.7-1.1l-0.3-0.2
			c-0.4-0.3-0.6-0.6-0.5-0.8s0.4-0.1,0.8,0.2c1.2,0.8,1.9,1.2,2.1,1.2c0.3,0,0.7-0.3,1.2-1l10.5-14.3c1.2-1.6,1.6-2.9,1.2-3.7
			c-0.2-0.4-0.6-0.9-1.4-1.5c-0.5-0.4-0.7-0.7-0.5-0.9c0.1-0.2,0.3-0.2,0.6,0c0.4,0.3,0.9,0.7,1.4,1.1c0.6,0.5,0.9,0.7,0.9,0.8
			c0.1,0,0.3,0.2,0.8,0.6c0.6,0.5,1.3,0.9,1.9,1.3l-1,22.3l9.5-12.9c0.4-0.6,0.7-1,0.8-1.1s0.1-0.3,0-0.5c-0.1-0.2-0.5-0.5-1.3-1.1
			c-0.7-0.5-1-0.9-0.9-1c0.1-0.2,0.4-0.1,0.9,0.2l1,0.7c0.3,0.2,0.5,0.4,0.8,0.6c0.3,0.2,0.5,0.4,0.6,0.4c0,0,0.2,0.1,0.5,0.4
			c0.3,0.2,0.6,0.4,0.9,0.6l0.9,0.7C382.1,109.8,382.3,110.1,382.1,110.3z"/>
		<path class="st0" d="M403.1,130.6c-0.2,0.2-0.5,0-0.9-0.4l-0.6-0.6l-0.5-0.5c-0.3-0.3-0.5-0.4-0.6-0.3c-0.1,0-0.5,0.3-0.9,0.8
			L385,144.2c-0.9,0.9-1.4,1.4-1.6,1.5c-0.2,0.1-0.3,0.2-0.4,0.1c-0.1-0.1-0.1-0.3-0.1-0.6l1.5-8c0.9-4.7,2.1-10.4,3.5-17.3
			l-14.3,14.2c-0.2,0.2-0.2,0.5,0,0.8c0.2,0.3,0.7,0.9,1.6,1.8c0.2,0.2,0.3,0.4,0.1,0.5c-0.2,0.2-0.5,0-0.9-0.4
			c-0.2-0.2-0.6-0.7-1.4-1.5c-0.3-0.3-0.5-0.6-0.8-0.8c0,0-0.1-0.1-0.5-0.4s-0.8-0.7-1.5-1.4l-0.3-0.3c-0.4-0.4-0.5-0.7-0.4-0.8
			c0.2-0.2,0.4-0.1,0.7,0.3c1,1,1.7,1.5,1.9,1.6c0.3,0.1,0.7-0.2,1.3-0.8l12.6-12.6c1.4-1.4,2-2.6,1.8-3.5c-0.1-0.4-0.5-1-1.2-1.7
			c-0.4-0.4-0.6-0.8-0.4-0.9c0.2-0.2,0.4-0.1,0.6,0.1c0.3,0.3,0.8,0.8,1.2,1.4c0.5,0.6,0.8,0.9,0.8,0.9c0.1,0.1,0.3,0.3,0.7,0.7
			c0.6,0.6,1.1,1.1,1.7,1.6l-4.3,21.9l11.3-11.3c0.5-0.5,0.8-0.9,0.9-1c0.1-0.1,0.1-0.3,0.1-0.5c-0.1-0.2-0.4-0.6-1.1-1.3
			c-0.6-0.6-0.8-1-0.7-1.1c0.2-0.2,0.5-0.1,0.9,0.4l0.9,0.9c0.2,0.2,0.5,0.5,0.7,0.7c0.3,0.3,0.4,0.4,0.5,0.5c0,0,0.2,0.2,0.5,0.5
			c0.3,0.3,0.5,0.5,0.8,0.8l0.8,0.8C403.2,130.1,403.3,130.4,403.1,130.6z"/>
		<path class="st0" d="M393.7,158c-0.2,0.1-0.3,0.1-0.5-0.2l-0.2-0.3c0-0.2-1-1.5-2.9-3.9c-0.4-0.5-0.8-0.9-1.2-1.4
			c-0.2-0.2-0.5-0.6-0.9-1.1c-0.2-0.2-0.2-0.4,0-0.6c0.2-0.1,0.4,0.1,0.8,0.5c0.6,0.7,1.1,1.1,1.3,1.1c0.3,0,0.9-0.4,1.8-1.1
			l14.9-11.8c0.9-0.7,1.4-1.2,1.4-1.4c0.1-0.3-0.2-0.9-0.9-1.8c-0.3-0.4-0.3-0.6-0.2-0.7c0.1-0.1,0.3-0.1,0.5,0.2l3,3.8
			c0.2,0.3,0.6,0.8,1.3,1.7l0.9,1.1c0.2,0.3,0.3,0.5,0.1,0.6c-0.1,0.1-0.6-0.2-1.3-1c-0.4-0.5-0.7-0.7-0.9-0.7
			c-0.2,0-0.7,0.3-1.3,0.8l-15.1,11.9c-1.1,0.8-1.6,1.4-1.6,1.5c0,0.4,0.3,1.1,1.1,2.1C393.8,157.7,393.8,157.9,393.7,158z"/>
		<path class="st0" d="M428.6,167.2c-0.2,0.1-0.5-0.1-0.7-0.6l-0.4-0.7l-0.3-0.6c-0.2-0.3-0.4-0.5-0.5-0.5c-0.1,0-0.5,0.2-1.1,0.5
			l-17.7,10.8c-1.1,0.7-1.7,1-1.9,1.1c-0.2,0.1-0.3,0.1-0.4,0c-0.1-0.1,0-0.3,0.1-0.6l3.3-7.4c2-4.3,4.4-9.7,7.5-16l-17.2,10.5
			c-0.3,0.2-0.3,0.4-0.2,0.8s0.5,1.1,1.1,2.2c0.2,0.3,0.2,0.5,0,0.6c-0.2,0.1-0.5-0.1-0.8-0.6c-0.1-0.2-0.4-0.8-1-1.8
			c-0.2-0.3-0.4-0.7-0.6-1c0,0-0.1-0.1-0.4-0.5c-0.3-0.4-0.6-0.9-1.1-1.7l-0.2-0.3c-0.3-0.5-0.3-0.8-0.2-0.9c0.2-0.1,0.4,0,0.7,0.4
			c0.8,1.2,1.3,1.8,1.5,2c0.3,0.1,0.7-0.1,1.5-0.5l15.2-9.3c1.7-1,2.6-2,2.6-3c0-0.5-0.3-1.1-0.8-1.9c-0.3-0.5-0.4-0.9-0.2-1
			c0.2-0.1,0.4,0,0.6,0.3c0.3,0.4,0.5,0.9,0.9,1.6c0.3,0.7,0.5,1,0.6,1.1c0,0.1,0.2,0.3,0.6,0.8c0.4,0.7,0.8,1.3,1.3,1.9l-9.3,20.3
			l13.7-8.4c0.6-0.4,1-0.6,1.1-0.7c0.1-0.1,0.2-0.2,0.2-0.4c0-0.2-0.3-0.7-0.8-1.5c-0.5-0.7-0.6-1.2-0.4-1.3
			c0.2-0.1,0.5,0.1,0.8,0.5l0.7,1.1c0.2,0.3,0.3,0.6,0.5,0.9c0.2,0.3,0.3,0.5,0.4,0.6c0,0,0.1,0.2,0.3,0.6c0.2,0.3,0.4,0.6,0.6,0.9
			l0.6,1C428.8,166.8,428.8,167.1,428.6,167.2z"/>
		<path class="st0" d="M425.1,202c-0.2,0.1-0.3,0-0.4-0.2l-0.3-0.8c-0.4-1-0.8-1.5-1.2-1.5c-0.3,0-1.3,0.4-2.9,1.1l-1.1,0.4
			c-1.4-0.7-2.6-1.5-3.4-2.4c-0.8-0.9-1.6-2.1-2.2-3.5c-1.5-3.5-1.6-6.7-0.3-9.6c1.2-2.9,3.7-5.1,7.2-6.6c3.6-1.5,7-1.7,10.1-0.6
			c3.1,1.1,5.3,3.3,6.7,6.6c0.6,1.4,0.9,3.2,0.8,5.2c0,0.6,0,1.1,0.2,1.4c0.2,0.4,0.6,0.6,1.1,0.5c0.4,0,0.6,0.1,0.6,0.2
			c0.1,0.2,0,0.3-0.2,0.4c-0.1,0-0.3,0.1-0.7,0.2c-1.3,0.4-2.2,0.7-2.8,1l-2.2,0.9c-0.8,0.3-1.1,0.5-1,0.5c-0.6,0.2-0.9,0.1-1-0.1
			c-0.1-0.2,0-0.4,0.3-0.5c2.1-1,3.6-2.3,4.3-4c0.8-1.6,0.8-3.4,0-5.2c-1-2.3-2.7-3.7-5.4-4.2c-2.6-0.5-5.7,0-9.3,1.5
			c-3.4,1.4-5.9,3.2-7.3,5.4c-1.4,2.2-1.7,4.5-0.7,6.8c0.7,1.8,1.8,2.8,3,3c0.6,0.1,1.6-0.1,3-0.6c1.1-0.5,1.7-0.8,1.8-1.1
			c0.1-0.3-0.1-1.1-0.6-2.3c-0.1-0.3-0.2-0.5-0.2-0.6c0-0.1,0-0.2,0.2-0.2c0.2-0.1,0.5,0.1,0.7,0.6l0.2,0.6c0.1,0.3,0.6,1.5,1.5,3.5
			l1.2,2.8c0.1,0.2,0.1,0.3,0.2,0.5c0.1,0.2,0.1,0.3,0.2,0.4C425.3,201.7,425.3,201.9,425.1,202z"/>
		<path class="st0" d="M423.2,224.9c-0.2,0-0.3-0.1-0.4-0.4l-0.1-0.4c0-0.2-0.3-1.8-1-4.8c-0.1-0.6-0.3-1.2-0.5-1.7
			c-0.1-0.3-0.2-0.8-0.3-1.4c-0.1-0.3,0-0.5,0.2-0.5c0.2,0,0.4,0.2,0.5,0.8c0.2,0.9,0.5,1.5,0.7,1.6c0.2,0.1,0.9,0.1,2.1-0.2
			l18.5-4.1c1.2-0.3,1.8-0.5,1.9-0.6c0.2-0.2,0.2-0.9,0-2.1c-0.1-0.5,0-0.7,0.1-0.7c0.2,0,0.3,0.1,0.4,0.4l1.1,4.8
			c0.1,0.4,0.2,1,0.4,2.1l0.3,1.3c0.1,0.4,0,0.6-0.2,0.6c-0.2,0-0.4-0.5-0.7-1.5c-0.2-0.6-0.3-0.9-0.6-1c-0.2-0.1-0.7,0-1.5,0.1
			l-18.8,4.2c-1.3,0.3-2,0.5-2.1,0.7c-0.2,0.3-0.2,1.1,0.1,2.4C423.4,224.7,423.4,224.9,423.2,224.9z"/>
		<path class="st0" d="M450.6,248.4c-0.2,0-0.4-0.3-0.4-0.9l-0.1-0.8l-0.1-0.6c0-0.4-0.1-0.6-0.3-0.7c-0.1-0.1-0.5-0.1-1.2,0
			l-20.6,2.1c-1.3,0.1-2,0.2-2.2,0.2c-0.2,0-0.3-0.1-0.3-0.2c0-0.1,0.1-0.3,0.3-0.5l6.2-5.3c3.6-3,8.2-6.8,13.7-11.2l-20.1,2
			c-0.3,0.1-0.5,0.3-0.5,0.6c0,0.3,0,1.2,0.1,2.4c0,0.3,0,0.5-0.2,0.5c-0.2,0-0.4-0.3-0.5-0.9c0-0.2-0.1-0.9-0.1-2.1
			c0-0.4,0-0.8-0.1-1.1c0,0,0-0.2-0.1-0.6c-0.1-0.4-0.2-1.1-0.3-2l0-0.4c-0.1-0.5,0-0.8,0.2-0.9s0.3,0.2,0.4,0.7
			c0.2,1.4,0.3,2.2,0.5,2.4c0.2,0.2,0.7,0.3,1.6,0.2l17.7-1.8c2-0.2,3.2-0.7,3.6-1.6c0.2-0.4,0.3-1.1,0.2-2.1c-0.1-0.6,0-0.9,0.3-1
			c0.2,0,0.4,0.1,0.4,0.5c0,0.5,0.1,1.1,0.1,1.8c0,0.7,0,1.1,0,1.2c0,0.1,0.1,0.4,0.1,1c0.1,0.8,0.2,1.5,0.3,2.3l-17.2,14.2
			l15.9-1.6c0.7-0.1,1.2-0.1,1.3-0.2c0.2,0,0.3-0.1,0.3-0.3c0.1-0.2,0.1-0.8,0-1.7c-0.1-0.9,0-1.3,0.2-1.3c0.2,0,0.4,0.2,0.4,0.8
			l0.1,1.3c0,0.3,0.1,0.6,0.1,1c0,0.4,0.1,0.6,0.1,0.7c0,0,0,0.2,0.1,0.6c0,0.4,0.1,0.7,0.1,1.1l0.1,1.1
			C450.9,248.1,450.8,248.3,450.6,248.4z"/>
		<path class="st0" d="M432.4,270.3c-2.1-0.1-3.8-0.9-5.2-2.5c-1.4-1.6-2.1-3.5-2-5.7c0-1.3,0.5-2.8,1.4-4.6
			c0.2-0.5,0.4-0.8,0.4-1.1c0-0.3-0.3-0.5-1-0.6c-0.3,0-0.5-0.2-0.5-0.5c0-0.2,0.2-0.4,0.4-0.3c0.2,0,0.3,0,0.4,0.1
			c1.5,0.2,2.8,0.4,4.1,0.4c0.2,0,0.9,0,2,0c0.1,0,0.3,0,0.6,0c0.4,0,0.5,0.2,0.5,0.5c0,0.2-0.3,0.4-0.9,0.5
			c-4.3,0.5-6.6,2.4-6.7,5.9c-0.1,1.5,0.3,2.6,1.1,3.4c0.8,0.8,2,1.3,3.5,1.3c1.3,0,2.5-0.3,3.5-1c1-0.7,2-2,3-3.9
			c1.2-2.2,2.4-3.8,3.4-4.6c1.1-0.9,2.4-1.2,4-1.2c2,0.1,3.6,0.8,4.9,2.1c1.2,1.3,1.8,3,1.8,4.9c0,0.8-0.3,1.9-0.9,3.4
			c-0.2,0.5-0.3,0.9-0.3,1.1c0,0.3,0,0.4,0.1,0.5c0.1,0.1,0.3,0.2,0.7,0.3c0.2,0.1,0.4,0.2,0.3,0.4c0,0.2-0.2,0.4-0.4,0.3
			c-0.2,0-0.3,0-0.4-0.1c-0.6-0.1-1.3-0.2-2.1-0.2c-1.2,0-2.1,0-2.7,0.1l-0.6,0c-0.3,0-0.4-0.1-0.4-0.3c0-0.3,0.3-0.4,0.8-0.5
			c1.4-0.2,2.6-0.8,3.6-1.7c1-1,1.5-2,1.5-3.3c0-1.2-0.3-2.2-1.1-2.9c-0.7-0.7-1.8-1.1-3.1-1.2c-1.5-0.1-2.8,0.4-3.8,1.4
			c-0.5,0.6-1.3,1.8-2.4,3.7c-1.2,2.2-2.4,3.8-3.6,4.7C435.2,269.9,433.9,270.4,432.4,270.3z"/>
		<path class="st0" d="M440.2,296.3c-0.3-0.1-0.4-0.2-0.4-0.5c0-0.3,0.4-0.4,1-0.5c0.4,0,0.9,0,1.3,0.1c0.9,0,1.6-0.2,2.3-0.5
			c0.9-0.4,1.5-1.1,1.9-2.2c0.3-0.7,0.4-1.3,0.5-1.7c0.2-1.1,0.2-1.8,0.3-2l-21.4-3.6c-0.9-0.1-1.4,0-1.7,0.4
			c-0.2,0.2-0.3,0.9-0.5,2c-0.1,0.3-0.2,0.4-0.4,0.4c-0.2,0-0.3-0.2-0.2-0.6c0-0.2,0.1-0.4,0.1-0.5c0.3-1.4,0.5-2.4,0.6-3
			c0.1-0.8,0.2-1.5,0.3-2.2c0.1-0.7,0.2-1.6,0.4-2.6c0.1-0.5,0.2-0.8,0.4-0.8c0.2,0,0.2,0.6,0.1,1.6c-0.1,0.7,0,1.2,0.2,1.5
			c0.2,0.2,0.6,0.3,1.4,0.4l21.3,3.5c0.4-2.3,0.5-3.8,0.4-4.4c-0.3-1.6-1.6-2.7-3.9-3.4c-0.7-0.2-1-0.4-1-0.7c0-0.3,0.3-0.4,0.8-0.3
			c0.3,0,0.5,0.1,0.8,0.2l0.8,0.2c1.1,0.3,2.5,0.6,4.2,1l-0.3,1.6l-1.3,7.2c-0.2,0.8-0.4,2.2-0.7,4l-0.9,5.9c-1.3-0.2-3.3-0.3-6-0.5
			c-0.1,0-0.2,0-0.3,0S440.2,296.3,440.2,296.3z"/>
		<path class="st0" d="M418.6,305.8c-0.2-0.1-0.3-0.2-0.2-0.5l0.1-0.3c0.1-0.1,0.6-1.7,1.4-4.7c0.2-0.6,0.3-1.2,0.4-1.8
			c0.1-0.3,0.2-0.8,0.4-1.4c0.1-0.3,0.2-0.4,0.4-0.4c0.2,0.1,0.2,0.4,0.1,1c-0.2,0.9-0.3,1.5-0.1,1.7s0.8,0.5,1.9,0.8l18.3,5.2
			c1.1,0.3,1.8,0.4,2,0.4c0.3-0.1,0.6-0.7,1-1.8c0.1-0.4,0.3-0.6,0.4-0.6c0.2,0.1,0.2,0.2,0.2,0.5l-1.3,4.7c-0.1,0.3-0.3,1-0.6,2
			l-0.3,1.3c-0.1,0.4-0.3,0.5-0.5,0.5c-0.2,0-0.1-0.6,0.1-1.6c0.1-0.6,0.1-1,0-1.2c-0.1-0.2-0.6-0.4-1.4-0.6l-18.5-5.2
			c-1.3-0.4-2-0.5-2.2-0.4c-0.3,0.2-0.7,0.9-1.1,2.1C418.9,305.8,418.8,305.9,418.6,305.8z"/>
		<path class="st0" d="M427,334.7c-0.3-0.1-0.4-0.3-0.3-0.6s0.5-0.3,1.1-0.2c0.4,0.1,0.8,0.2,1.3,0.4c0.9,0.2,1.6,0.2,2.3,0.1
			c0.9-0.2,1.7-0.7,2.3-1.7c0.4-0.6,0.7-1.2,0.8-1.6c0.4-1.1,0.6-1.7,0.7-1.9l-20.1-8.2c-0.8-0.3-1.4-0.3-1.8,0
			c-0.2,0.2-0.5,0.8-1,1.8c-0.1,0.3-0.3,0.4-0.4,0.3c-0.2-0.1-0.2-0.3-0.1-0.6c0.1-0.2,0.1-0.3,0.2-0.5c0.6-1.3,1-2.3,1.2-2.8
			c0.3-0.7,0.6-1.4,0.8-2.1s0.5-1.5,1-2.5c0.2-0.5,0.4-0.7,0.6-0.7c0.2,0.1,0.1,0.6-0.3,1.6c-0.3,0.7-0.3,1.2-0.1,1.5
			c0.1,0.2,0.6,0.4,1.3,0.7l20,8.2c0.9-2.2,1.3-3.6,1.3-4.2c0.1-1.6-1-3-3.1-4.1c-0.6-0.3-0.9-0.6-0.8-0.9c0.1-0.3,0.4-0.3,0.9-0.1
			c0.2,0.1,0.5,0.2,0.7,0.3l0.7,0.4c1,0.5,2.3,1.1,3.9,1.9l-0.6,1.5l-2.9,6.8c-0.3,0.8-0.9,2-1.5,3.7l-2.2,5.6
			c-1.3-0.5-3.2-1.1-5.7-1.8c-0.1,0-0.2,0-0.3-0.1C427.1,334.7,427.1,334.7,427,334.7z"/>
		<path class="st0" d="M418.1,362.8c-0.2-0.1-0.1-0.3,0.1-0.7c0-0.1,0.2-0.3,0.4-0.6c0.1-0.1,0.1-0.2,0.3-0.4
			c0.3-0.5,0.4-0.9,0.1-1.2c-0.1-0.1-0.3-0.3-0.7-0.5l-11.6-6.9c-3-1.8-4.9-3.6-5.6-5.6c-0.7-1.9-0.3-4.2,1.2-6.7
			c1.8-3,3.9-4.6,6.3-4.8c1.6-0.1,3.7,0.6,6.3,2.1l12.4,7.4c0.4,0.2,0.8,0,1.1-0.3c0.1-0.1,0.3-0.5,0.7-1.1c0.3-0.3,0.5-0.4,0.6-0.3
			c0.2,0.1,0.2,0.3,0,0.6l-0.3,0.6c-0.1,0.1-0.2,0.3-0.4,0.7c-0.2,0.3-0.4,0.6-0.5,0.9l-2.6,4.4c-0.1,0.1-0.1,0.2-0.2,0.4
			c-0.2,0.4-0.4,0.5-0.7,0.3c-0.1-0.1-0.2-0.2-0.1-0.3c0.1-0.1,0.3-0.6,0.7-1.3c0.2-0.3,0.3-0.5,0.3-0.6c0-0.3,0-0.5-0.2-0.6
			c-0.1-0.1-0.7-0.4-1.7-1.1l-11.1-6.6c-2.7-1.6-4.8-2.3-6.3-2c-1.5,0.3-2.8,1.3-3.8,3c-1.9,3.1-1.1,6,2.2,8.5
			c0.5,0.4,2.7,1.8,6.7,4.1l1.8,1l2.5,1.5l2.1,1.3c0.2,0.1,0.4,0.3,0.7,0.4c0.3,0.2,0.4,0.2,0.3,0.2c0.5,0.3,0.9,0.2,1.2-0.1
			c0.1-0.1,0.4-0.5,0.8-1.2c0.2-0.4,0.5-0.5,0.7-0.4c0.2,0.1,0.2,0.3,0,0.6c-0.1,0.2-0.2,0.3-0.2,0.4c-0.1,0.2-0.7,1.1-1.6,2.7
			c-0.1,0.2-0.3,0.5-0.5,0.8c-0.2,0.3-0.3,0.5-0.3,0.6l-0.3,0.5C418.5,362.7,418.2,362.9,418.1,362.8z"/>
		<path class="st0" d="M397,379.6c-0.2-0.2-0.3-0.4-0.1-0.6s0.6-0.2,1.1,0.1c0.4,0.2,0.7,0.5,1.1,0.7c0.8,0.4,1.5,0.7,2.2,0.7
			c0.9,0.1,1.8-0.2,2.7-1c0.6-0.5,1-0.9,1.3-1.3c0.7-0.9,1.1-1.4,1.2-1.6l-16.9-13.7c-0.7-0.5-1.2-0.7-1.7-0.5
			c-0.2,0.1-0.7,0.6-1.4,1.4c-0.2,0.2-0.4,0.3-0.5,0.1c-0.2-0.1-0.1-0.3,0.1-0.6c0.1-0.1,0.2-0.3,0.3-0.4c0.9-1.1,1.6-1.9,2-2.3
			c0.5-0.6,1-1.2,1.4-1.8s1-1.3,1.6-2.1c0.3-0.4,0.6-0.6,0.7-0.5c0.2,0.1-0.1,0.6-0.7,1.4c-0.5,0.6-0.7,1-0.5,1.4
			c0.1,0.2,0.4,0.6,1,1.1l16.8,13.6c1.5-1.9,2.3-3.1,2.5-3.7c0.5-1.5-0.1-3.1-1.8-4.9c-0.5-0.5-0.7-0.9-0.5-1.1
			c0.2-0.2,0.5-0.2,0.9,0.1c0.2,0.2,0.4,0.3,0.6,0.5l0.6,0.6c0.8,0.8,1.9,1.8,3.2,3l-1,1.3l-4.7,5.6c-0.6,0.7-1.4,1.7-2.5,3.1
			l-3.7,4.7c-1.1-0.8-2.7-1.9-4.9-3.4c-0.1,0-0.1-0.1-0.2-0.1S397,379.6,397,379.6z"/>
		<path class="st0" d="M370.1,387.7c-0.1-0.1-0.4-0.5-1.1-1.3c-0.7-0.8-1.4-1.6-2.1-2.3l-0.8-0.9c1.8-1.5,5.3-4.6,10.4-9.4
			c0.6-0.6,1.2-1.1,1.8-1.7c0.6-0.6,1-0.9,1.2-1.1l0.3-0.2c0.3-0.3,0.6-0.4,0.7-0.3c0.1,0.1,0.1,0.2,0,0.3c-0.1,0-0.4,0.4-0.9,1
			c-0.4,0.5-0.6,0.8-0.6,1.1c0.1,0.2,0.4,0.7,1,1.4l13.8,14.9c0.5,0.5,0.8,0.7,1.1,0.7c0.2,0,0.8-0.4,1.6-1.2
			c0.3-0.3,0.5-0.3,0.6-0.2c0.1,0.1,0,0.4-0.4,0.8l-4.5,4.2c-0.2,0.1-1.2,1.1-3,2.8c-1.8,1.7-3.1,2.8-3.7,3.4c-0.5,0.5-1,1-1.4,1.5
			c-0.7-0.7-1.8-1.7-3.2-2.9l-1.2-1c-0.1-0.1-0.2-0.2-0.3-0.3c-0.2-0.2-0.2-0.3,0-0.5c0.2-0.2,0.5-0.1,1,0.3
			c1.8,1.3,3.3,1.8,4.4,1.5c0.9-0.2,2.5-1.4,4.9-3.6l2.2-2l-7.2-7.7l-0.6,0.6c-2,1.8-3,3.1-3.2,3.8c-0.2,0.7,0.4,1.8,1.5,3.4
			c0.3,0.4,0.4,0.7,0.2,0.8c-0.2,0.2-0.4,0.1-0.7-0.2c-0.3-0.3-0.7-0.8-1.2-1.4c-0.5-0.6-1-1.1-1.2-1.4c-1.8-1.9-3-3.1-3.7-3.8
			c-0.2-0.2-0.3-0.3-0.4-0.4c-0.2-0.2-0.2-0.4,0-0.6c0.1-0.1,0.3-0.1,0.5,0c0.2,0.1,0.7,0.5,1.6,1.3c1.1,0.9,2.1,1.1,3.1,0.7
			c0.4-0.2,1.3-0.9,2.6-2.1l1.2-1.1l-8.2-8.8c-3.9,3.6-6.1,5.8-6.6,6.6c-0.9,1.3-0.5,3.1,1.1,5.2c0.4,0.5,0.5,0.8,0.3,1
			C370.7,388.1,370.4,388,370.1,387.7z"/>
	</g>
	<g>
		<path class="st0" d="M189.2,246.6c0,1.8-0.1,4.8-0.3,9h-1.2c-0.4,0-1.4-0.1-3-0.2c-1.6-0.1-3.4-0.2-5.4-0.2l-43.6-0.3
			c-1.2,0-1.8-0.3-1.8-0.9c0-0.5,0.9-0.8,2.8-0.9c2.7-0.1,4.3-0.4,4.8-0.9c0.5-0.5,0.8-1.8,0.8-3.9v-59c0-2.6-0.3-4.1-0.8-4.5
			c-0.5-0.4-2.4-0.6-5.6-0.6c-1.3,0-2-0.4-2-1.2c0-0.6,0.4-0.9,1.3-0.9h0.9c2.3,0.2,6.9,0.3,13.8,0.3c0.6,0,1.9-0.1,3.7-0.2
			c1.8-0.1,3.3-0.2,4.5-0.2h1.2c1.3,0,1.9,0.4,1.9,1c0,0.4-0.2,0.7-0.6,0.8c-0.4,0.1-1.6,0.2-3.6,0.3c-2,0.1-3.2,0.4-3.6,1
			c-0.4,0.6-0.6,2.4-0.6,5.5v62c1.9,0.1,4.5,0.1,7.9,0.1c8.2,0,14-0.4,17.3-1.3s5.6-2.4,6.8-4.7c1.2-2.3,1.9-5.4,2.1-9.3
			c0.1-0.9,0.5-1.4,1.2-1.4c0.9,0,1.3,0.5,1.2,1.6v2.6c0,0.1,0,0.5,0,0.9c0,0.5,0,1,0,1.5V246.6z"/>
		<path class="st0" d="M293.4,182.8c0,0.6-1.2,0.9-3.6,1c-2.7,0.1-4.4,0.9-5.3,2.6c-0.9,1.7-2.2,5.2-4,10.7
			c-3.2,9.6-6,17.7-8.4,24.5c-4.2,11.5-8,22.6-11.4,33.3c-0.3,0.9-0.6,1.4-1.1,1.4c-0.4,0-0.7-0.3-1-1c-0.3-0.7-1.3-3.1-2.9-7.3
			c-1.9-5.5-4.1-11-6.4-16.5c-1.8-4.3-3.6-8.8-5.3-13.5c-4.9,11.8-9.7,24.2-14.5,37.1c-0.3,0.8-0.6,1.3-1.1,1.3
			c-0.4,0-0.8-0.6-1.3-1.8c-2.2-5.2-10.2-26.6-24.2-64.4c-1-2.7-1.7-4.3-2.2-5c-0.5-0.7-1.7-1-3.7-1.1c-3.4-0.1-5-0.6-5-1.5
			c0-0.6,0.6-0.9,1.7-0.9c0.5,0,0.9,0,1.3,0.1c3.7,0.2,7.7,0.3,12,0.3c0.8,0,2.3-0.1,4.4-0.2c2.1-0.1,4.7-0.2,8-0.2h1.2
			c1.2,0,1.8,0.3,1.8,1c0,0.8-1.1,1.2-3.2,1.3c-4.3,0.1-6.5,0.7-6.5,1.7c0,2,6.4,20.2,19.3,54.7c4.7-11.8,8.2-20.5,10.5-26.1
			l-10.4-26.9c-0.6-1.5-1.2-2.4-2-2.8c-0.7-0.4-2.1-0.7-4.1-0.7c-2-0.1-3-0.4-3-0.9c0-0.8,0.7-1.2,2.2-1.2c1.1,0,2.5,0.1,4.1,0.2
			c1.6,0.1,4.4,0.2,8.4,0.2h8h11.6c2.6,0,5.7-0.1,9.3-0.3c0.4-0.1,0.9-0.1,1.5-0.1c1.7,0,2.5,0.4,2.5,1.1c0,0.7-0.6,1-1.8,1h-1.8
			c-3.2,0-5.5,0.4-7.1,1.3c-0.7,0.4-2,2.9-3.9,7.6c-0.8,2-2.3,5.3-4.2,10c-0.4,1.1-1,2.6-1.9,4.7c0.5,1.4,2,5.3,4.6,11.7
			c3.3,8.1,6.1,15.1,8.2,20.8c3.9-11.3,8.6-24.7,13.9-40.2c2.8-8.2,4.2-12.8,4.2-13.7c0-1.3-1.2-2-3.7-2c-3.4,0-5.1-0.4-5.1-1.2
			c0-0.7,0.7-1.1,2.1-1.1c1.2,0,2.1,0,2.8,0.1c1.5,0.2,2.9,0.3,4.2,0.3h8.4c2.1,0,3.3,0.1,3.5,0.2
			C293.3,182.4,293.4,182.6,293.4,182.8z M249,184h-1.3H246c-2.5,0.1-3.8,0.6-3.8,1.4c0,0.1,2.1,6.2,6.2,18.3
			c1.6-3.5,3.5-8.1,5.6-13.9c0.3-0.8,0.7-1.8,1.3-3l0.2-0.8C255.5,184.6,253.4,184,249,184z"/>
		<path class="st0" d="M347.1,199.4c0,6.8-2.9,12.1-8.7,15.9c-3.6,2.4-8.3,3.6-13.9,3.6c-2.4,0-5.1-0.2-8.1-0.7v29.8
			c0,1.6,0.1,2.6,0.2,3c0.3,1,1.1,1.6,2.3,1.8c2,0.3,4,0.4,5.9,0.4c0.8,0,1.2,0.2,1.2,0.7c0,0.7-0.5,1.1-1.5,1.1c-0.4,0-0.8,0-1,0
			c-3.9,0-11.1,0-21.7,0h-1.4c-2.1,0-3.2-0.3-3.2-1.1c0-0.5,0.7-0.7,2.2-0.7c3.3,0,5.2-0.3,5.7-0.9c0.6-0.3,0.9-1,0.9-2.1v-62
			c0-2.2-0.6-3.5-1.8-4c-0.7-0.3-1.9-0.4-3.7-0.4h-1.1c-0.2,0-0.5,0-0.7,0c-1,0-1.6-0.3-1.6-0.8c0-0.6,1-0.9,2.9-0.9h23.1
			c8,0,13.8,1.4,17.5,4.2C345,189.2,347.1,193.7,347.1,199.4z M336.1,199.5c0-10.6-4.4-15.9-13.2-15.9c-2.9,0-4.9,0.5-5.8,1.5
			c-0.4,0.4-0.6,1.5-0.6,3.3v28.1c0.6,0.1,1.2,0.1,1.9,0.1c4.6,0,8.5-1,11.8-3.1C334.1,211,336.1,206.4,336.1,199.5z"/>
		<path class="st0" d="M382.4,254c0,0.6-0.4,0.9-1.3,0.9h-1.1c-0.4-0.2-5.2-0.3-14.3-0.3c-1.8,0-3.5,0.1-5.2,0.2
			c-0.9,0.1-2.3,0.1-4.2,0.1c-0.9,0-1.4-0.3-1.4-0.9c0-0.6,0.9-0.9,2.7-0.9c2.8-0.1,4.4-0.4,4.9-1c0.5-0.6,0.7-2.6,0.7-6.1v-55.4
			c0-3.4-0.2-5.4-0.5-5.8c-0.4-0.7-2.4-1.1-5.8-1.3c-1.3-0.1-2-0.3-2-0.7c0-0.6,0.4-0.8,1.3-0.8h14.3c1.1,0,3.1,0,6.1,0.1l4-0.1
			c1.1,0,1.7,0.3,1.7,0.9c0,0.5-1.6,0.9-4.7,1c-1.8,0.1-2.9,0.4-3.2,0.9c-0.4,0.6-0.6,2-0.6,4.4v56.1c0,4,0.2,6.2,0.5,6.5
			c0.8,0.8,3,1.2,6.8,1.4C382,253.1,382.4,253.4,382.4,254z"/>
	</g>
	<g>
		<path class="st0" d="M161,351.9c0,1.3-0.5,2.4-1.5,3.4s-2.2,1.4-3.6,1.4c-0.8,0-1.8-0.3-3-0.8c-0.3-0.1-0.5-0.2-0.7-0.2
			c-0.2,0-0.3,0.2-0.3,0.6c0,0.2-0.1,0.3-0.3,0.3c-0.2,0-0.2-0.1-0.2-0.3c0-0.1,0-0.2,0-0.3c0.1-0.9,0.2-1.8,0.2-2.6
			c0-0.2,0-0.6,0-1.3c0-0.1,0-0.2,0-0.4c0-0.2,0.1-0.3,0.3-0.3c0.2,0,0.3,0.2,0.3,0.6c0.4,2.8,1.7,4.1,3.9,4.1
			c0.9,0,1.7-0.3,2.2-0.8c0.5-0.5,0.8-1.3,0.8-2.2c0-0.9-0.2-1.6-0.7-2.2c-0.5-0.6-1.4-1.2-2.6-1.8c-1.5-0.7-2.5-1.4-3-2.1
			c-0.6-0.7-0.9-1.5-0.9-2.5c0-1.3,0.4-2.3,1.2-3.2c0.8-0.8,1.9-1.2,3.1-1.2c0.5,0,1.2,0.2,2.2,0.5c0.3,0.1,0.6,0.2,0.7,0.2
			c0.2,0,0.3,0,0.3-0.1s0.1-0.2,0.1-0.5c0-0.2,0.1-0.2,0.3-0.2c0.2,0,0.2,0.1,0.2,0.3c0,0.1,0,0.2,0,0.3c0,0.4-0.1,0.8-0.1,1.3
			c0,0.7,0,1.3,0.1,1.7l0,0.4c0,0.2-0.1,0.3-0.2,0.3c-0.2,0-0.3-0.2-0.3-0.5c-0.2-0.9-0.6-1.7-1.2-2.3c-0.6-0.6-1.3-0.9-2.1-0.9
			c-0.8,0-1.4,0.2-1.8,0.7c-0.5,0.5-0.7,1.2-0.7,2c0,1,0.3,1.8,1,2.4c0.4,0.3,1.2,0.8,2.4,1.4c1.4,0.7,2.5,1.5,3.1,2.2
			C160.7,350.1,161,350.9,161,351.9z"/>
		<path class="st0" d="M174.8,353.2c0,0.1,0,0.4,0,1c0,0.6,0,1.2,0,1.7v0.7c-1.3-0.1-3.9-0.1-7.8-0.1c-0.5,0-0.9,0-1.4,0
			c-0.5,0-0.8,0-0.9,0h-0.2c-0.3,0-0.4-0.1-0.4-0.2c0-0.1,0-0.1,0.1-0.1c0,0,0.3,0,0.8-0.1c0.3,0,0.6-0.1,0.6-0.2
			c0.1-0.1,0.1-0.4,0.1-0.9v-11.3c0-0.4-0.1-0.6-0.2-0.7c-0.1-0.1-0.5-0.1-1.1-0.1c-0.2,0-0.3-0.1-0.3-0.2c0-0.1,0.1-0.2,0.4-0.2
			h3.4c0.1,0,0.9,0,2.3,0c1.4,0,2.3,0,2.8,0c0.4,0,0.8,0,1.1-0.1c0,0.6,0.1,1.4,0.2,2.4l0.1,0.9c0,0.1,0,0.2,0,0.3
			c0,0.1-0.1,0.2-0.2,0.2c-0.1,0-0.3-0.2-0.3-0.5c-0.3-1.2-0.7-2-1.2-2.3c-0.4-0.2-1.5-0.4-3.4-0.4h-1.6v5.9h0.5
			c1.5,0,2.4-0.1,2.7-0.3c0.3-0.2,0.5-0.9,0.7-2c0-0.3,0.1-0.4,0.2-0.4c0.1,0,0.2,0.1,0.2,0.4c0,0.2,0,0.6,0,1.1s0,0.8,0,1.1
			c0,1.4,0,2.4,0.1,2.9c0,0.1,0,0.2,0,0.3c0,0.2-0.1,0.3-0.2,0.3c-0.1,0-0.2-0.1-0.2-0.2s-0.1-0.5-0.2-1.1c-0.1-0.8-0.4-1.3-1-1.5
			c-0.2-0.1-0.9-0.1-1.9-0.1h-0.9v6.7c2.9,0,4.7-0.1,5.2-0.2c0.9-0.2,1.4-1,1.5-2.5c0-0.3,0.1-0.5,0.3-0.5
			C174.7,352.7,174.8,352.9,174.8,353.2z"/>
		<path class="st0" d="M188.3,346.1c0,0.2-0.1,0.3-0.2,0.3c-0.2,0-0.3-0.2-0.3-0.5c0-0.2-0.1-0.5-0.1-0.7c-0.1-0.5-0.2-0.9-0.5-1.2
			c-0.3-0.4-0.7-0.7-1.4-0.8c-0.4-0.1-0.7-0.1-1-0.1c-0.6,0-1,0-1.1,0V355c0,0.5,0.1,0.8,0.4,0.9c0.1,0.1,0.5,0.1,1.1,0.1
			c0.2,0,0.2,0.1,0.2,0.2c0,0.1-0.1,0.2-0.3,0.2c-0.1,0-0.2,0-0.3,0c-0.8,0-1.4,0-1.7,0c-0.4,0-0.9,0-1.2,0c-0.4,0-0.9,0-1.5,0
			c-0.3,0-0.5-0.1-0.5-0.2c0-0.1,0.3-0.2,0.9-0.2c0.4,0,0.7-0.1,0.8-0.3c0.1-0.1,0.1-0.4,0.1-0.8v-12c-1.3,0-2.1,0.1-2.5,0.2
			c-0.8,0.3-1.3,1.1-1.5,2.5c0,0.4-0.1,0.6-0.3,0.6c-0.2,0-0.2-0.1-0.2-0.4c0-0.1,0-0.3,0-0.4l0-0.5c0-0.6,0.1-1.4,0.2-2.4h0.9
			l4.1,0.1c0.5,0,1.2,0,2.2,0l3.3-0.1c0,0.7,0.1,1.9,0.3,3.3c0,0,0,0.1,0,0.2C188.2,346,188.3,346.1,188.3,346.1z"/>
		<path class="st0" d="M201.6,346.1c0,0.2-0.1,0.3-0.2,0.3c-0.2,0-0.3-0.2-0.3-0.5c0-0.2-0.1-0.5-0.1-0.7c-0.1-0.5-0.2-0.9-0.5-1.2
			c-0.3-0.4-0.7-0.7-1.4-0.8c-0.4-0.1-0.7-0.1-1-0.1c-0.6,0-1,0-1.1,0V355c0,0.5,0.1,0.8,0.4,0.9c0.1,0.1,0.5,0.1,1.1,0.1
			c0.2,0,0.2,0.1,0.2,0.2c0,0.1-0.1,0.2-0.3,0.2c-0.1,0-0.2,0-0.3,0c-0.8,0-1.4,0-1.7,0c-0.4,0-0.9,0-1.2,0c-0.4,0-0.9,0-1.5,0
			c-0.3,0-0.5-0.1-0.5-0.2c0-0.1,0.3-0.2,0.9-0.2c0.4,0,0.7-0.1,0.8-0.3c0.1-0.1,0.1-0.4,0.1-0.8v-12c-1.3,0-2.1,0.1-2.5,0.2
			c-0.8,0.3-1.3,1.1-1.5,2.5c0,0.4-0.1,0.6-0.3,0.6c-0.2,0-0.2-0.1-0.2-0.4c0-0.1,0-0.3,0-0.4l0-0.5c0-0.6,0.1-1.4,0.2-2.4h0.9
			l4.1,0.1c0.5,0,1.2,0,2.2,0l3.3-0.1c0,0.7,0.1,1.9,0.3,3.3c0,0,0,0.1,0,0.2C201.6,346,201.6,346.1,201.6,346.1z"/>
		<path class="st0" d="M209.3,356.2c0,0.1-0.1,0.2-0.2,0.2h-0.2c-0.1,0-1-0.1-2.7-0.1c-0.3,0-0.7,0-1,0c-0.2,0-0.4,0-0.8,0
			c-0.2,0-0.3-0.1-0.3-0.2c0-0.1,0.2-0.2,0.5-0.2c0.5,0,0.8-0.1,0.9-0.2c0.1-0.1,0.1-0.5,0.1-1.2v-10.6c0-0.7,0-1-0.1-1.1
			c-0.1-0.1-0.5-0.2-1.1-0.2c-0.3,0-0.4-0.1-0.4-0.1c0-0.1,0.1-0.2,0.2-0.2h2.7c0.2,0,0.6,0,1.2,0l0.8,0c0.2,0,0.3,0.1,0.3,0.2
			c0,0.1-0.3,0.2-0.9,0.2c-0.3,0-0.5,0.1-0.6,0.2c-0.1,0.1-0.1,0.4-0.1,0.8v10.7c0,0.8,0,1.2,0.1,1.2c0.1,0.1,0.6,0.2,1.3,0.3
			C209.2,356,209.3,356.1,209.3,356.2z"/>
		<path class="st0" d="M224.3,342.7c0,0.1-0.2,0.2-0.5,0.2h-0.4H223c-0.2,0-0.3,0-0.4,0.1s-0.1,0.3-0.1,0.7v11.5c0,0.7,0,1.1,0,1.2
			c0,0.1-0.1,0.2-0.1,0.2c-0.1,0-0.2-0.1-0.3-0.2l-2.6-3.7c-1.5-2.2-3.3-4.9-5.4-8.2v11.2c0,0.2,0.1,0.3,0.3,0.3
			c0.2,0,0.6,0.1,1.4,0.1c0.2,0,0.3,0.1,0.3,0.2c0,0.1-0.2,0.2-0.5,0.2c-0.1,0-0.5,0-1.1-0.1c-0.2,0-0.4,0-0.6,0c0,0-0.1,0-0.4,0
			c-0.2,0-0.6,0-1.1,0h-0.2c-0.3,0-0.5-0.1-0.5-0.2s0.1-0.2,0.4-0.2c0.8,0,1.2-0.1,1.4-0.1c0.1-0.1,0.2-0.4,0.2-0.9v-9.9
			c0-1.1-0.2-1.8-0.7-2.1c-0.2-0.1-0.6-0.2-1.1-0.2c-0.3,0-0.5-0.1-0.5-0.2c0-0.1,0.1-0.2,0.3-0.2c0.3,0,0.6,0,1,0
			c0.4,0,0.6,0,0.7,0c0,0,0.2,0,0.6,0c0.4,0,0.9,0,1.3-0.1l6.9,10.3v-8.9c0-0.4,0-0.7,0-0.8c0-0.1-0.1-0.2-0.2-0.2
			c-0.1,0-0.4-0.1-1-0.1c-0.5,0-0.7-0.1-0.7-0.2c0-0.1,0.2-0.2,0.5-0.2h0.7c0.2,0,0.4,0,0.6,0c0.2,0,0.3,0,0.4,0c0,0,0.1,0,0.4,0
			c0.2,0,0.4,0,0.6,0h0.6C224.1,342.5,224.3,342.6,224.3,342.7z"/>
		<path class="st0" d="M239.9,352.2c0,0.1-0.1,0.2-0.2,0.2h-0.5c-0.6,0-1,0.1-1,0.3c-0.1,0.2-0.1,0.7-0.1,1.7v0.6
			c-0.7,0.6-1.3,1-2,1.2s-1.4,0.4-2.3,0.4c-2.1,0-3.8-0.6-5-1.9c-1.2-1.3-1.9-3-1.9-5.1c0-2.2,0.6-4,1.8-5.3c1.2-1.3,2.8-2,4.8-2
			c0.9,0,1.8,0.2,2.8,0.7c0.3,0.1,0.6,0.2,0.8,0.2c0.3,0,0.4-0.2,0.5-0.5c0.1-0.2,0.1-0.3,0.2-0.3c0.1,0,0.2,0.1,0.2,0.2
			c0,0,0,0.2,0,0.4c-0.1,0.8-0.1,1.3-0.1,1.6v1.3c0,0.5,0,0.7,0,0.6c0,0.3-0.1,0.5-0.3,0.5c-0.1,0-0.2-0.1-0.2-0.3
			c-0.1-1.3-0.4-2.3-1.1-3.1c-0.7-0.7-1.6-1.1-2.7-1.1c-1.4,0-2.5,0.6-3.3,1.9c-0.8,1.2-1.2,2.9-1.2,5.1c0,2.1,0.4,3.7,1.2,4.9
			c0.8,1.2,1.9,1.8,3.3,1.8c1.1,0,1.8-0.3,2.2-0.9c0.2-0.3,0.3-0.9,0.3-1.7c0-0.7-0.1-1.1-0.2-1.2c-0.1-0.1-0.6-0.2-1.3-0.2
			c-0.2,0-0.3,0-0.4,0c-0.1,0-0.1-0.1-0.1-0.1c0-0.1,0.1-0.2,0.4-0.2h0.4c0.2,0,0.9,0,2.1,0h1.7c0.1,0,0.2,0,0.3,0
			c0.1,0,0.2,0,0.2,0C239.8,352,239.9,352.1,239.9,352.2z"/>
		<path class="st0" d="M257.2,351.9c0,1.3-0.5,2.4-1.5,3.4s-2.2,1.4-3.6,1.4c-0.8,0-1.8-0.3-3-0.8c-0.3-0.1-0.5-0.2-0.7-0.2
			c-0.2,0-0.3,0.2-0.3,0.6c0,0.2-0.1,0.3-0.3,0.3c-0.2,0-0.2-0.1-0.2-0.3c0-0.1,0-0.2,0-0.3c0.1-0.9,0.2-1.8,0.2-2.6
			c0-0.2,0-0.6,0-1.3c0-0.1,0-0.2,0-0.4c0-0.2,0.1-0.3,0.3-0.3c0.2,0,0.3,0.2,0.3,0.6c0.4,2.8,1.7,4.1,3.9,4.1
			c0.9,0,1.7-0.3,2.2-0.8c0.5-0.5,0.8-1.3,0.8-2.2c0-0.9-0.2-1.6-0.7-2.2c-0.5-0.6-1.4-1.2-2.6-1.8c-1.5-0.7-2.5-1.4-3-2.1
			c-0.6-0.7-0.9-1.5-0.9-2.5c0-1.3,0.4-2.3,1.2-3.2c0.8-0.8,1.9-1.2,3.1-1.2c0.5,0,1.2,0.2,2.2,0.5c0.3,0.1,0.6,0.2,0.7,0.2
			c0.2,0,0.3,0,0.3-0.1s0.1-0.2,0.1-0.5c0-0.2,0.1-0.2,0.3-0.2c0.2,0,0.2,0.1,0.2,0.3c0,0.1,0,0.2,0,0.3c0,0.4-0.1,0.8-0.1,1.3
			c0,0.7,0,1.3,0.1,1.7l0,0.4c0,0.2-0.1,0.3-0.2,0.3c-0.2,0-0.3-0.2-0.3-0.5c-0.2-0.9-0.6-1.7-1.2-2.3c-0.6-0.6-1.3-0.9-2.1-0.9
			c-0.8,0-1.4,0.2-1.8,0.7c-0.5,0.5-0.7,1.2-0.7,2c0,1,0.3,1.8,1,2.4c0.4,0.3,1.2,0.8,2.4,1.4c1.4,0.7,2.5,1.5,3.1,2.2
			C256.9,350.1,257.2,350.9,257.2,351.9z"/>
		<path class="st0" d="M271.1,346.1c0,0.2-0.1,0.3-0.2,0.3s-0.3-0.2-0.3-0.5c0-0.2-0.1-0.5-0.1-0.7c-0.1-0.5-0.2-0.9-0.5-1.2
			c-0.3-0.4-0.7-0.7-1.4-0.8c-0.4-0.1-0.7-0.1-1-0.1c-0.6,0-1,0-1.1,0V355c0,0.5,0.1,0.8,0.4,0.9c0.1,0.1,0.5,0.1,1.1,0.1
			c0.2,0,0.2,0.1,0.2,0.2c0,0.1-0.1,0.2-0.3,0.2c-0.1,0-0.2,0-0.3,0c-0.8,0-1.4,0-1.7,0c-0.4,0-0.9,0-1.2,0c-0.4,0-0.9,0-1.5,0
			c-0.3,0-0.5-0.1-0.5-0.2c0-0.1,0.3-0.2,0.9-0.2c0.4,0,0.7-0.1,0.8-0.3c0.1-0.1,0.1-0.4,0.1-0.8v-12c-1.3,0-2.1,0.1-2.5,0.2
			c-0.8,0.3-1.3,1.1-1.5,2.5c0,0.4-0.1,0.6-0.3,0.6c-0.2,0-0.2-0.1-0.2-0.4c0-0.1,0-0.3,0-0.4l0-0.5c0-0.6,0.1-1.4,0.2-2.4h0.9
			l4.1,0.1c0.5,0,1.2,0,2.2,0l3.3-0.1c0,0.7,0.1,1.9,0.3,3.3c0,0,0,0.1,0,0.2C271.1,346,271.1,346.1,271.1,346.1z"/>
		<path class="st0" d="M286,356.3c0,0.1-0.1,0.2-0.3,0.2c-0.1,0-0.3,0-0.4,0l-2.5-0.1l-2.5,0.1c-0.1,0-0.2,0-0.3,0
			c-0.3,0-0.4-0.1-0.4-0.2c0-0.2,0.2-0.2,0.5-0.2c1.2,0,1.8-0.1,1.8-0.4c0,0,0-0.1,0-0.2l-0.2-0.5l-0.1-0.3
			c-0.1-0.4-0.4-1.3-0.9-2.7h-4.3c-0.8,2.1-1.2,3.4-1.2,3.7c0,0.2,0.1,0.3,0.2,0.3c0,0,0.4,0,1,0.1c0.4,0,0.6,0.1,0.6,0.2
			c0,0.1-0.2,0.2-0.5,0.2c-0.6,0-1.3,0-2.1-0.1c-0.2,0-0.4,0-0.6,0c-0.2,0-0.4,0-0.6,0.1c-0.1,0-0.2,0-0.3,0c-0.2,0-0.3-0.1-0.3-0.2
			c0-0.1,0.2-0.2,0.6-0.2c0.4,0,0.7-0.1,0.9-0.2c0.2-0.1,0.3-0.3,0.4-0.7c1.7-4.9,3.1-8.9,4.2-11.9c0-0.2,0.1-0.3,0.2-0.5l0.1-0.4
			c0-0.1,0.1-0.2,0.2-0.2c0,0,0.1,0,0.1,0.1c0.2,0.5,0.6,1.6,1.2,3.3c0.5,1.3,1.7,4.5,3.6,9.7c0.1,0.3,0.2,0.5,0.4,0.6
			s0.5,0.1,1,0.1C285.8,356.1,286,356.1,286,356.3z M280.6,351.5c-0.2-0.6-0.6-1.6-1.1-3l-1-2.8c-0.6,1.5-1.2,3.4-2,5.8H280.6z"/>
		<path class="st0" d="M299.6,342.7c0,0.1-0.2,0.2-0.5,0.2h-0.4h-0.4c-0.2,0-0.3,0-0.4,0.1s-0.1,0.3-0.1,0.7v11.5c0,0.7,0,1.1,0,1.2
			c0,0.1-0.1,0.2-0.1,0.2c-0.1,0-0.2-0.1-0.3-0.2l-2.6-3.7c-1.5-2.2-3.3-4.9-5.4-8.2v11.2c0,0.2,0.1,0.3,0.3,0.3s0.6,0.1,1.4,0.1
			c0.2,0,0.3,0.1,0.3,0.2c0,0.1-0.2,0.2-0.5,0.2c-0.1,0-0.5,0-1.1-0.1c-0.2,0-0.4,0-0.6,0c0,0-0.1,0-0.3,0c-0.2,0-0.6,0-1.1,0h-0.2
			c-0.3,0-0.5-0.1-0.5-0.2s0.1-0.2,0.4-0.2c0.8,0,1.2-0.1,1.4-0.1s0.2-0.4,0.2-0.9v-9.9c0-1.1-0.2-1.8-0.7-2.1
			c-0.2-0.1-0.6-0.2-1.1-0.2c-0.3,0-0.5-0.1-0.5-0.2c0-0.1,0.1-0.2,0.3-0.2c0.3,0,0.6,0,1,0c0.4,0,0.6,0,0.7,0c0,0,0.2,0,0.6,0
			c0.4,0,0.9,0,1.3-0.1l6.9,10.3v-8.9c0-0.4,0-0.7,0-0.8c0-0.1-0.1-0.2-0.2-0.2c-0.1,0-0.4-0.1-1-0.1c-0.5,0-0.7-0.1-0.7-0.2
			c0-0.1,0.2-0.2,0.5-0.2h0.7c0.2,0,0.4,0,0.6,0c0.2,0,0.3,0,0.4,0c0,0,0.1,0,0.4,0c0.2,0,0.4,0,0.6,0h0.6
			C299.4,342.5,299.6,342.6,299.6,342.7z"/>
		<path class="st0" d="M315,349.4c0,2.4-0.8,4.2-2.5,5.5c-1.2,1-2.8,1.4-4.8,1.4c-0.1,0-0.3,0-0.7,0s-1,0-1.8,0h-1h-1.6
			c-0.1,0-0.2,0-0.3,0c-0.3,0-0.4-0.1-0.4-0.2c0-0.1,0.2-0.2,0.6-0.2c0.5,0,0.9-0.1,1-0.3c0.1-0.1,0.1-0.3,0.1-0.8v-10.8
			c0-0.7,0-1-0.2-1.1c-0.1-0.1-0.4-0.2-1-0.2c-0.3,0-0.5-0.1-0.5-0.2c0-0.1,0.1-0.2,0.3-0.2c0,0,0.1,0,0.4,0s0.6,0,0.9,0h2.1
			c2.4,0,4.1,0.2,5.1,0.5c1.2,0.4,2.2,1.2,2.9,2.4S315,347.9,315,349.4z M312.7,349.4c0-2.2-0.4-3.8-1.3-4.9c-0.9-1-2.2-1.6-4.1-1.6
			c-0.9,0-1.4,0.1-1.6,0.3c-0.1,0.1-0.1,0.4-0.1,1v10.7c0,0.4,0,0.6,0,0.7c0,0.1,0.1,0.1,0.2,0.2c0.3,0.2,1,0.2,2,0.2
			c1.4,0,2.6-0.5,3.5-1.5C312.3,353.4,312.7,351.7,312.7,349.4z"/>
		<path class="st0" d="M330.3,356.3c0,0.1-0.1,0.2-0.3,0.2c-0.1,0-0.3,0-0.4,0l-2.5-0.1l-2.5,0.1c-0.1,0-0.2,0-0.3,0
			c-0.3,0-0.4-0.1-0.4-0.2c0-0.2,0.2-0.2,0.5-0.2c1.2,0,1.8-0.1,1.8-0.4c0,0,0-0.1,0-0.2l-0.2-0.5l-0.1-0.3
			c-0.1-0.4-0.4-1.3-0.9-2.7h-4.3c-0.8,2.1-1.2,3.4-1.2,3.7c0,0.2,0.1,0.3,0.2,0.3c0,0,0.4,0,1,0.1c0.4,0,0.6,0.1,0.6,0.2
			c0,0.1-0.2,0.2-0.5,0.2c-0.6,0-1.3,0-2.1-0.1c-0.2,0-0.4,0-0.6,0c-0.2,0-0.4,0-0.6,0.1c-0.1,0-0.2,0-0.3,0c-0.2,0-0.3-0.1-0.3-0.2
			c0-0.1,0.2-0.2,0.6-0.2c0.4,0,0.7-0.1,0.9-0.2c0.2-0.1,0.3-0.3,0.4-0.7c1.7-4.9,3.1-8.9,4.2-11.9c0-0.2,0.1-0.3,0.2-0.5l0.1-0.4
			c0-0.1,0.1-0.2,0.2-0.2c0,0,0.1,0,0.1,0.1c0.2,0.5,0.6,1.6,1.2,3.3c0.5,1.3,1.7,4.5,3.6,9.7c0.1,0.3,0.2,0.5,0.4,0.6
			s0.5,0.1,1,0.1C330.2,356.1,330.3,356.1,330.3,356.3z M324.9,351.5c-0.2-0.6-0.6-1.6-1.1-3l-1-2.8c-0.6,1.5-1.2,3.4-2,5.8H324.9z"
			/>
		<path class="st0" d="M342.9,355.8c0,0.6-0.5,0.8-1.4,0.8c-1,0-1.9-0.4-2.4-1.3c-0.3-0.4-0.4-0.7-0.5-1.1s-0.2-1.2-0.3-2.6
			c-0.1-0.9-0.4-1.5-0.8-1.8c-0.5-0.4-1.2-0.5-2.3-0.6v6.3c0,0.3,0.2,0.4,0.6,0.5c0.1,0,0.4,0,0.9,0c0.2,0,0.3,0.1,0.3,0.2
			c0,0.1-0.1,0.2-0.3,0.2h-0.2c-0.1,0-0.7,0-1.7,0c-0.2,0-0.5,0-1,0c-0.5,0-0.8,0-0.9,0H332c-0.3,0-0.4-0.1-0.4-0.2
			c0-0.1,0.2-0.1,0.6-0.2c0.6,0,1-0.1,1-0.2c0.1-0.1,0.1-0.3,0.1-0.8v-11c0-0.5-0.1-0.9-0.2-1s-0.5-0.2-1-0.2
			c-0.3,0-0.5-0.1-0.5-0.2c0-0.1,0.1-0.2,0.3-0.2c0,0,0.1,0,0.2,0l2.7,0.1c0.3,0,0.6,0,1.1,0c0.5,0,0.9-0.1,1.1-0.1
			c1.2,0,2.2,0.3,3,0.8c0.7,0.6,1.1,1.3,1.1,2.2c0,0.9-0.4,1.7-1.1,2.3s-1.8,1-3,1.1c-0.1,0-0.2,0-0.2,0.1c0,0.1,0.1,0.1,0.2,0.1
			c1.4,0.2,2.4,0.7,2.9,1.5c0.5,0.7,0.9,2.1,1,4c0.1,1.1,0.5,1.6,1.1,1.6c0.2,0,0.3,0,0.3-0.1c0,0,0,0,0,0c-0.1-0.1-0.1-0.3-0.1-0.4
			c0-0.3,0.1-0.4,0.4-0.4C342.8,355.3,342.9,355.5,342.9,355.8z M338.8,345.8c0-1.9-0.8-2.9-2.5-2.9c-0.4,0-0.7,0.1-0.9,0.2
			c-0.2,0.1-0.2,0.3-0.2,0.6v5.1c1.3,0,2.2-0.2,2.8-0.7C338.5,347.6,338.8,346.8,338.8,345.8z"/>
		<path class="st0" d="M357.9,349.4c0,2.4-0.8,4.2-2.5,5.5c-1.2,1-2.8,1.4-4.8,1.4c-0.1,0-0.3,0-0.7,0s-1,0-1.8,0h-1h-1.6
			c-0.1,0-0.2,0-0.3,0c-0.3,0-0.4-0.1-0.4-0.2c0-0.1,0.2-0.2,0.6-0.2c0.5,0,0.9-0.1,1-0.3c0.1-0.1,0.1-0.3,0.1-0.8v-10.8
			c0-0.7,0-1-0.2-1.1c-0.1-0.1-0.4-0.2-1-0.2c-0.3,0-0.5-0.1-0.5-0.2c0-0.1,0.1-0.2,0.3-0.2c0,0,0.1,0,0.4,0s0.6,0,0.9,0h2.1
			c2.4,0,4.1,0.2,5.1,0.5c1.2,0.4,2.2,1.2,2.9,2.4S357.9,347.9,357.9,349.4z M355.7,349.4c0-2.2-0.4-3.8-1.3-4.9
			c-0.9-1-2.2-1.6-4.1-1.6c-0.9,0-1.4,0.1-1.6,0.3c-0.1,0.1-0.1,0.4-0.1,1v10.7c0,0.4,0,0.6,0,0.7c0,0.1,0.1,0.1,0.2,0.2
			c0.3,0.2,1,0.2,2,0.2c1.4,0,2.6-0.5,3.5-1.5C355.2,353.4,355.7,351.7,355.7,349.4z"/>
		<path class="st0" d="M369.8,352.5c0,1.1-0.4,2.1-1.3,2.9c-0.9,0.8-1.9,1.2-3.2,1.2c-0.7,0-1.6-0.2-2.6-0.7
			c-0.3-0.1-0.5-0.2-0.6-0.2c-0.2,0-0.3,0.2-0.3,0.6c0,0.2-0.1,0.3-0.3,0.3c-0.1,0-0.2-0.1-0.2-0.2c0-0.1,0-0.2,0-0.2
			c0.1-0.8,0.2-1.6,0.2-2.3c0-0.1,0-0.5,0-1.1c0-0.1,0-0.2,0-0.3c0-0.2,0.1-0.3,0.2-0.3c0.1,0,0.2,0.2,0.3,0.5
			c0.3,2.4,1.5,3.6,3.4,3.6c0.8,0,1.4-0.2,1.9-0.7c0.4-0.5,0.7-1.1,0.7-2c0-0.7-0.2-1.4-0.6-1.9c-0.4-0.5-1.2-1-2.2-1.6
			c-1.3-0.6-2.1-1.2-2.6-1.8s-0.7-1.3-0.7-2.2c0-1.1,0.4-2,1.1-2.7c0.7-0.7,1.6-1.1,2.7-1.1c0.5,0,1.1,0.2,1.9,0.5
			c0.3,0.1,0.5,0.2,0.6,0.2c0.1,0,0.2,0,0.3-0.1c0-0.1,0.1-0.2,0.1-0.4c0-0.1,0.1-0.2,0.2-0.2c0.1,0,0.2,0.1,0.2,0.2
			c0,0.1,0,0.2,0,0.2c0,0.3-0.1,0.7-0.1,1.2c0,0.6,0,1.1,0.1,1.5l0,0.3c0,0.1,0,0.2-0.2,0.2c-0.1,0-0.2-0.2-0.3-0.5
			c-0.1-0.8-0.5-1.4-1-2c-0.5-0.5-1.2-0.8-1.8-0.8c-0.7,0-1.2,0.2-1.6,0.6s-0.6,1-0.6,1.7c0,0.9,0.3,1.5,0.9,2.1
			c0.3,0.3,1,0.7,2.1,1.2c1.3,0.6,2.2,1.3,2.7,1.9C369.5,350.9,369.8,351.7,369.8,352.5z"/>
	</g>
	<path class="st0" d="M284,330.6v-38.3c1.8,1.3,4.1,1.9,6.6,1.7c4.5-0.5,8.1-4.1,8.6-8.6c0.6-5.8-3.9-10.8-9.6-10.8
		c-0.2,0-0.5,0-0.7,0v-2.1h3.7v-3.9h-3.7h-60h-3.4v3.9h3.4v2.1c-1.1-0.1-2.2,0-3.4,0.2c-3.7,0.9-6.6,4.1-7.2,7.8
		c-1,6.1,3.7,11.3,9.6,11.3c2,0,3.9-0.6,5.5-1.7v38.3H125.1v2.8h269v-2.8H284z M290.2,279.6c2.6,0,4.7,2.1,4.7,4.7s-2.1,4.7-4.7,4.7
		s-4.7-2.1-4.7-4.7S287.6,279.6,290.2,279.6z M228,289c-2.6,0-4.7-2.1-4.7-4.7s2.1-4.7,4.7-4.7s4.7,2.1,4.7,4.7S230.6,289,228,289z
		 M234,275.1c-0.6,0-1.1-0.5-1.1-1.1s0.5-1.1,1.1-1.1h50.8c0.6,0,1.1,0.5,1.1,1.1s-0.5,1.1-1.1,1.1H234z M238.4,330.3V292h3.8v38.3
		H238.4z M246.4,330.3V292h4.4v38.3H246.4z M257.6,330.3V292h4.4v38.3H257.6z M268.8,330.3V292h3.1v38.3H268.8z M276.1,330.3V292
		h4.3v38.3H276.1z"/>
	<circle class="st2" cx="259.4" cy="256.3" r="155"/>
	<rect x="181.5" y="368.6" class="st3" width="157.5" height="104.5"/>
	<g>
		<path class="st0" d="M207.6,382.6c0,0,0,0.1-0.1,0.1c-0.1,0.1-0.2,0.4-0.3,0.7c-0.3,1-0.5,1.9-0.7,2.6c-0.2,0.7-0.3,1.1-0.5,1.1
			c-0.1,0-0.2-0.1-0.2-0.2l0-0.2c0.2-0.6,0.3-1.2,0.3-2c0-0.8-0.3-1.4-0.8-1.6c-0.5-0.2-1.5-0.3-2.8-0.4h-1.7
			c-0.3,0-0.5,0.2-0.6,0.5l-0.9,2.3l-1.9,5c0.6,0.1,1,0.1,1.2,0.1c0.9,0,1.7-0.2,2.3-0.7c0.7-0.5,1.1-1.1,1.4-1.8
			c0.1-0.3,0.2-0.4,0.3-0.4c0.2,0,0.2,0.1,0.2,0.2c0,0,0,0.1-0.1,0.3c-1,2.1-1.8,4.3-2.6,6.5c-0.1,0.2-0.1,0.4-0.3,0.4
			c-0.1,0-0.2-0.1-0.2-0.2c0-0.1,0-0.2,0.1-0.3c0.3-0.9,0.4-1.6,0.4-2c0-0.6-0.2-0.9-0.6-1.2c-0.4-0.2-1.1-0.3-2-0.3
			c-0.3,0-0.5,0.2-0.6,0.5l-2.8,6.9c-0.2,0.5-0.3,0.8-0.3,0.9c0,0.2,0.2,0.2,0.5,0.3l1.4,0.1c0.5,0,0.9,0,1.4,0
			c2.5,0,4.2-0.5,5.2-1.6c0.5-0.6,0.9-1.5,1.4-2.7c0.1-0.3,0.3-0.5,0.4-0.5c0.1,0,0.2,0.1,0.2,0.2c0,0.1-0.1,0.3-0.3,0.8
			c-0.7,1.7-1.1,3.1-1.5,4c-0.1,0.2-0.1,0.3-0.2,0.4c-0.1,0.1-0.3,0.1-0.6,0.1h-8.8c-2.1,0-3.4,0-3.8,0c-0.4,0-0.5-0.1-0.5-0.2
			c0-0.1,0.1-0.2,0.2-0.2c0.2,0,0.7,0,1.5,0c0.3,0,0.6-0.1,0.7-0.2s0.3-0.5,0.5-1.1l5.3-12.7c0.2-0.3,0.4-0.9,0.7-1.6
			c0.3-0.7,0.5-1.2,0.5-1.4c0-0.1-0.1-0.2-0.2-0.2c-0.2,0-0.7,0-1.7-0.1c-0.2,0-0.3-0.1-0.3-0.2c0-0.2,0.2-0.3,0.5-0.3
			c0,0,0.3,0,0.8,0c0.5,0,1,0,1.7,0l7.7,0.1c0.3,0,0.5,0,0.6-0.1h0.2C207.4,382.3,207.6,382.4,207.6,382.6z"/>
		<path class="st0" d="M220,390.6c0,0.6-0.3,0.9-0.9,0.9c-0.5,0-0.8-0.2-0.8-0.6c0-0.1,0.1-0.3,0.4-0.5c0.1-0.1,0.1-0.1,0.1-0.3
			c0-0.3-0.2-0.5-0.6-0.5c-0.6,0-1.3,0.5-2.1,1.5c-0.5,0.6-0.9,1.1-1.1,1.5c-0.2,0.5-0.5,1.2-0.8,2.2l-0.2,0.7
			c-0.4,1.3-0.6,2.5-0.6,3.4c0,1,0.4,1.4,1.1,1.4c0.5,0,1-0.2,1.6-0.7c0.5-0.4,1-1,1.3-1.6c0.2-0.4,0.4-0.6,0.5-0.6
			c0.1,0,0.1,0.1,0.1,0.2c0,0.3-0.3,0.8-0.8,1.5c-0.9,1.1-2,1.7-3.2,1.7c-1.7,0-2.5-0.7-2.5-2.2c0-0.3,0-0.7,0.1-1
			c-0.6,1.2-1.2,2-1.8,2.5c-0.6,0.5-1.3,0.8-2,0.8c-1.2,0-1.8-0.5-1.8-1.6c0-0.3,0.1-0.6,0.3-0.9c0.2-0.2,0.5-0.4,0.8-0.4
			c0.6,0,0.8,0.2,0.8,0.7c0,0.2-0.2,0.5-0.6,0.8c-0.1,0-0.1,0.1-0.1,0.3c0,0.4,0.3,0.6,0.9,0.6c0.8,0,1.6-0.5,2.4-1.6
			c0.8-1.1,1.4-2.4,1.8-3.9l0.3-1.1c0.3-1.1,0.4-1.8,0.4-2.3c0-1-0.4-1.5-1.1-1.5c-1.1,0-2,0.7-2.9,2c-0.2,0.3-0.4,0.5-0.5,0.5
			c-0.1,0-0.2-0.1-0.2-0.2c0-0.3,0.3-0.7,0.9-1.4c1-1.1,2.1-1.6,3.1-1.6c0.9,0,1.6,0.2,2,0.6c0.4,0.4,0.6,1.1,0.7,2.1
			c1.1-1.8,2.3-2.7,3.6-2.7c0.5,0,0.8,0.1,1.1,0.4C219.9,389.8,220,390.2,220,390.6z"/>
		<path class="st0" d="M230.9,391.1c0,0.8-0.4,1.3-1.1,1.3c-0.2,0-0.5-0.1-0.6-0.3c-0.2-0.2-0.3-0.4-0.3-0.6c0-0.4,0.2-0.6,0.7-0.6
			l0.2,0c0.1,0.1,0.2,0.1,0.3,0.1c0.1,0,0.2-0.1,0.2-0.3c0-0.3-0.2-0.5-0.5-0.7c-0.3-0.2-0.7-0.3-1.1-0.3c-1.3,0-2.5,1-3.7,2.9
			c-1.2,2-1.8,3.8-1.8,5.5c0,1.5,0.7,2.2,2,2.2c1,0,2-0.6,3-1.8c0.2-0.2,0.3-0.3,0.4-0.3c0.1,0,0.1,0.1,0.1,0.2c0,0.2-0.2,0.5-0.7,1
			c-1,1-2.1,1.5-3.3,1.5c-1.1,0-2-0.3-2.7-1s-1-1.5-1-2.6c0-1.8,1-3.7,2.9-5.6c1.6-1.6,3.2-2.4,4.9-2.4c0.6,0,1.2,0.2,1.6,0.5
			C230.7,390.1,230.9,390.5,230.9,391.1z"/>
		<path class="st0" d="M242.3,390.9c0,0.9-0.5,1.7-1.5,2.3c-1,0.6-2.3,0.9-3.8,0.9c-0.6,0-1.2,0-1.8-0.1c-0.6,1.3-1,2.6-1,3.7
			c0,1.5,0.7,2.3,2.1,2.3c1.1,0,2.1-0.5,3.1-1.6c0.2-0.2,0.4-0.4,0.4-0.4c0.1,0,0.1,0,0.1,0.1c0,0.4-0.4,0.9-1.2,1.5
			c-0.9,0.7-1.9,1-2.9,1c-1.1,0-2.1-0.3-2.8-1c-0.7-0.7-1.1-1.5-1.1-2.5c0-1.9,1.1-3.8,3.2-5.6c1.9-1.6,3.5-2.4,5-2.4
			C241.5,389.2,242.3,389.8,242.3,390.9z M240.4,390.5c0-0.5-0.3-0.8-0.8-0.8c-0.6,0-1.1,0.2-1.6,0.6c-1,0.8-1.9,1.9-2.7,3.4
			c0.2,0,0.4,0,0.7,0c1,0,1.9-0.3,2.8-0.9C239.9,392.2,240.4,391.4,240.4,390.5z"/>
		<path class="st0" d="M252.5,382.2c0,0,0,0.2-0.1,0.4c-0.1,0.1-0.1,0.3-0.3,0.6l-5.8,14.2c-0.4,1.1-0.6,1.7-0.6,2.1
			c0,0.5,0.3,0.7,0.9,0.7s1.2-0.4,1.9-1.1c0.3-0.3,0.4-0.5,0.5-0.5c0.1,0,0.2,0.1,0.2,0.2c0,0.2-0.3,0.6-0.9,1.1
			c-0.7,0.6-1.5,0.9-2.5,0.9c-1.4,0-2.1-0.5-2.1-1.6c0-0.3,0.2-1.1,0.7-2.1l5.8-14.3c0.1-0.1,0.1-0.2,0.1-0.2c0-0.2-0.2-0.2-0.5-0.2
			c-0.8,0-1.1-0.1-1.1-0.2c0-0.1,0.1-0.1,0.2-0.1c0.2,0,0.4,0,0.7,0c0.3,0,0.6,0,0.7,0c0.7,0,1.3,0,1.7-0.1c0.2,0,0.3,0,0.4,0
			C252.4,382,252.5,382,252.5,382.2z"/>
		<path class="st0" d="M261.9,390.9c0,0.9-0.5,1.7-1.5,2.3c-1,0.6-2.3,0.9-3.8,0.9c-0.6,0-1.2,0-1.8-0.1c-0.6,1.3-1,2.6-1,3.7
			c0,1.5,0.7,2.3,2.1,2.3c1.1,0,2.1-0.5,3.1-1.6c0.2-0.2,0.4-0.4,0.4-0.4c0.1,0,0.1,0,0.1,0.1c0,0.4-0.4,0.9-1.2,1.5
			c-0.9,0.7-1.9,1-2.9,1c-1.1,0-2.1-0.3-2.8-1c-0.7-0.7-1.1-1.5-1.1-2.5c0-1.9,1.1-3.8,3.2-5.6c1.9-1.6,3.5-2.4,5-2.4
			C261.1,389.2,261.9,389.8,261.9,390.9z M260,390.5c0-0.5-0.3-0.8-0.8-0.8c-0.6,0-1.1,0.2-1.6,0.6c-1,0.8-1.9,1.9-2.7,3.4
			c0.2,0,0.4,0,0.7,0c1,0,1.9-0.3,2.8-0.9C259.5,392.2,260,391.4,260,390.5z"/>
		<path class="st0" d="M274.8,391.2c0,0.4-0.2,1.1-0.7,2.2l-2.1,4.8c-0.2,0.6-0.4,0.9-0.4,1.1c0,0.4,0.2,0.5,0.6,0.5
			c0.5,0,1.2-0.4,2.2-1.2c0.1-0.1,0.2-0.1,0.2-0.1c0.1,0,0.2,0,0.2,0.1c0,0.2-0.3,0.5-0.9,0.9c-0.8,0.5-1.6,0.8-2.5,0.8
			c-0.5,0-1-0.1-1.3-0.4c-0.4-0.2-0.5-0.5-0.5-0.9c0-0.3,0.2-0.8,0.5-1.6l2.1-4.7c0.5-1.1,0.8-1.9,0.8-2.3c0-0.6-0.3-0.9-0.9-0.9
			c-0.8,0-1.7,0.6-2.8,1.7c-0.8,0.9-1.6,2.1-2.2,3.6l-2.1,4.9c-0.1,0.3-0.2,0.4-0.3,0.4c0,0-0.2,0-0.6,0c-0.1,0-0.2,0-0.3,0
			c-0.1,0-0.4,0-0.7,0c-0.1,0-0.1,0-0.2,0c-0.1,0-0.2,0-0.2-0.1c0,0,0-0.1,0.1-0.2l0.2-0.4l4-9.5c0.1-0.1,0.1-0.2,0.1-0.2
			c0-0.1-0.2-0.2-0.7-0.2c-0.5,0-0.8-0.1-0.8-0.3c0-0.1,0.1-0.2,0.3-0.2c0.1,0,0.3,0,0.6,0.1c0.3,0,0.5,0.1,0.6,0.1
			c0.9,0,1.6-0.1,1.8-0.2c0.1-0.1,0.2-0.1,0.2-0.1c0.1,0,0.2,0.1,0.2,0.2c0,0.1,0,0.1,0,0.1l-1,2.4c0.1-0.2,0.3-0.4,0.6-0.7
			c1.3-1.4,2.5-2.1,3.7-2.1c0.7,0,1.3,0.2,1.7,0.6S274.8,390.6,274.8,391.2z"/>
		<path class="st0" d="M287.6,391.1c0,0.8-0.4,1.3-1.1,1.3c-0.2,0-0.5-0.1-0.7-0.3s-0.3-0.4-0.3-0.6c0-0.4,0.2-0.6,0.7-0.6l0.2,0
			c0.1,0.1,0.2,0.1,0.3,0.1c0.1,0,0.2-0.1,0.2-0.3c0-0.3-0.2-0.5-0.5-0.7s-0.7-0.3-1.1-0.3c-1.3,0-2.5,1-3.7,2.9
			c-1.2,2-1.8,3.8-1.8,5.5c0,1.5,0.7,2.2,2,2.2c1,0,2-0.6,3-1.8c0.2-0.2,0.3-0.3,0.4-0.3c0.1,0,0.1,0.1,0.1,0.2c0,0.2-0.2,0.5-0.7,1
			c-1,1-2.1,1.5-3.3,1.5c-1.1,0-2-0.3-2.7-1c-0.7-0.6-1-1.5-1-2.6c0-1.8,1-3.7,2.9-5.6c1.6-1.6,3.2-2.4,4.9-2.4
			c0.6,0,1.2,0.2,1.6,0.5C287.4,390.1,287.6,390.5,287.6,391.1z"/>
		<path class="st0" d="M299,390.9c0,0.9-0.5,1.7-1.5,2.3c-1,0.6-2.3,0.9-3.8,0.9c-0.6,0-1.2,0-1.8-0.1c-0.6,1.3-1,2.6-1,3.7
			c0,1.5,0.7,2.3,2.1,2.3c1.1,0,2.1-0.5,3.1-1.6c0.2-0.2,0.4-0.4,0.4-0.4c0.1,0,0.1,0,0.1,0.1c0,0.4-0.4,0.9-1.2,1.5
			c-0.9,0.7-1.9,1-2.9,1c-1.1,0-2.1-0.3-2.8-1c-0.7-0.7-1.1-1.5-1.1-2.5c0-1.9,1.1-3.8,3.2-5.6c1.9-1.6,3.5-2.4,5-2.4
			C298.2,389.2,299,389.8,299,390.9z M297.1,390.5c0-0.5-0.3-0.8-0.8-0.8c-0.6,0-1.1,0.2-1.6,0.6c-1,0.8-1.9,1.9-2.7,3.4
			c0.2,0,0.4,0,0.7,0c1,0,1.9-0.3,2.8-0.9C296.6,392.2,297.1,391.4,297.1,390.5z"/>
		<path class="st0" d="M209.4,417.2c0,2.5-0.7,4.7-2.2,6.8s-3.4,3.5-5.9,4.4c-1.1,0.4-2,0.7-2.7,0.8c-0.7,0.1-2,0.2-3.8,0.2
			c-0.6,0-1.9,0-4,0h-1.5c-0.2,0-0.3,0.1-0.5,0.1c-0.2,0-0.4-0.1-0.4-0.2c0-0.1,0.1-0.2,0.3-0.3c0.2,0,0.4,0,0.8,0
			c0.8,0,1.3-0.1,1.5-0.2c0.2-0.2,0.3-0.5,0.4-0.7c0.1-0.2,0.3-0.6,0.5-1.1l5.3-13c0.4-0.9,0.5-1.4,0.5-1.6c0-0.2-0.3-0.3-0.8-0.4
			l-1.4-0.1c-0.3,0-0.4-0.1-0.4-0.2s0.2-0.2,0.5-0.2c0.3,0,0.8,0,1.6,0.1c0.4,0,0.9,0,1.6,0h1.8c0.4,0,0.8,0,1.3-0.1
			c0.5,0,0.8,0,0.9,0c1.6,0,2.8,0.3,3.8,0.8C208.5,413,209.4,414.7,209.4,417.2z M206.8,416.3c0-1.7-0.5-2.9-1.4-3.6
			c-0.7-0.6-1.8-0.9-3.1-0.9c-0.7,0-1.2,0-1.6,0.1c-0.2,0-0.4,0.3-0.6,0.8c-0.3,0.7-0.6,1.2-0.7,1.6l-4.9,12.4
			c-0.4,1.1-0.6,1.7-0.6,1.7c0,0.3,0.5,0.4,1.4,0.4c3.2,0,5.8-1.1,7.9-3.4c1.1-1.2,2-2.6,2.6-4.3
			C206.5,419.5,206.8,417.9,206.8,416.3z"/>
		<path class="st0" d="M217,418.3c0,0.1,0,0.2-0.1,0.3c-0.1,0.2-0.3,0.6-0.6,1.3l-3,6.8c-0.4,0.9-0.6,1.5-0.6,1.7
			c0,0.5,0.2,0.7,0.7,0.7c0.3,0,0.7-0.1,1.1-0.3c0.4-0.2,0.7-0.5,1-0.8c0.2-0.2,0.3-0.3,0.4-0.3c0.1,0,0.2,0.1,0.2,0.2
			c0,0.2-0.2,0.5-0.7,0.9c-0.7,0.6-1.6,0.9-2.5,0.9c-0.6,0-1.1-0.2-1.5-0.5c-0.4-0.3-0.6-0.7-0.6-1.2c0-0.4,0.2-1.1,0.6-2.1l2.7-6
			c0.1-0.3,0.2-0.5,0.3-0.7c0.1-0.1,0.1-0.1,0.1-0.2c0-0.2-0.4-0.3-1.1-0.3c-0.1,0-0.2-0.1-0.2-0.2c0-0.1,0.1-0.2,0.2-0.2
			c0,0,0.1,0,0.4,0.1c0.2,0,0.6,0.1,1.2,0.1c0.7,0,1.2-0.1,1.5-0.2c0.2-0.1,0.3-0.1,0.4-0.1C216.9,418.1,217,418.2,217,418.3z
			 M218.8,413.5c0,0.7-0.3,1.1-1,1.1c-0.3,0-0.6-0.1-0.9-0.3c-0.2-0.2-0.3-0.5-0.3-0.8c0-0.7,0.4-1.1,1.2-1.1
			C218.4,412.4,218.8,412.7,218.8,413.5z"/>
		<path class="st0" d="M228.1,420.2c0,0.3-0.1,0.5-0.3,0.8c-0.2,0.2-0.4,0.3-0.7,0.3c-0.5,0-0.8-0.3-0.8-0.8c0-0.4,0.2-0.6,0.5-0.6
			c0.1,0,0.1,0,0.2,0.1c0.1,0.1,0.2,0.1,0.3,0.1c0.1,0,0.2-0.1,0.2-0.2c0-0.3-0.2-0.6-0.6-0.9c-0.4-0.3-0.8-0.4-1.2-0.4
			c-0.6,0-1,0.2-1.4,0.5c-0.4,0.4-0.6,0.8-0.6,1.3c0,0.4,0.4,1.6,1.2,3.6c0.2,0.5,0.3,1,0.3,1.6c0,1.2-0.4,2.2-1.2,3
			c-0.8,0.8-1.8,1.2-3,1.2c-1,0-1.9-0.3-2.6-0.9c-0.7-0.6-1.1-1.3-1.1-2.1c0-0.5,0.1-0.9,0.4-1.2c0.3-0.3,0.6-0.5,1.1-0.5
			c0.3,0,0.6,0.1,0.8,0.3c0.2,0.2,0.4,0.5,0.4,0.8c0,0.5-0.3,0.8-0.8,0.8c-0.5,0-0.8-0.2-0.8-0.5c0-0.1,0-0.2,0.1-0.4
			s0.1-0.2,0.1-0.2c0-0.2-0.1-0.3-0.2-0.3c-0.2,0-0.3,0.1-0.4,0.4s-0.2,0.5-0.2,0.8c0,0.7,0.3,1.3,0.8,1.8c0.6,0.5,1.2,0.8,2,0.8
			c0.7,0,1.3-0.2,1.8-0.7c0.5-0.4,0.7-1,0.7-1.6c0-0.5-0.2-1.2-0.6-2.3c-0.4-1-0.5-1.8-0.5-2.5c0-1.1,0.3-2.1,1-2.8
			c0.7-0.8,1.5-1.2,2.5-1.2c0.7,0,1.2,0.2,1.7,0.6C227.9,419.2,228.1,419.6,228.1,420.2z"/>
		<path class="st0" d="M237.8,418.5c0,0.2-0.4,0.4-1.1,0.4h-1h-0.5l-3.5,7.9c-0.4,0.9-0.6,1.4-0.6,1.6c0,0.4,0.3,0.5,0.8,0.5
			c0.8,0,1.5-0.4,2.1-1.2c0.1-0.2,0.2-0.3,0.3-0.3c0.1,0,0.2,0.1,0.2,0.2c0,0.2-0.3,0.6-0.9,1.1c-0.7,0.6-1.4,0.9-2.4,0.9
			c-0.6,0-1.1-0.2-1.5-0.5c-0.4-0.3-0.6-0.7-0.6-1.2c0-0.3,0.2-0.9,0.6-1.7l3.4-7.3h-1.1c-0.3,0-0.4-0.1-0.4-0.2
			c0-0.2,0.1-0.3,0.4-0.3h0.2c0.1,0,0.2,0,0.4,0c0.2,0,0.5,0,0.7,0l0.4-1.1c0.2-0.4,0.3-0.6,0.4-0.6c0.1,0,0.2,0,0.4,0
			c0.2,0,0.3,0,0.4,0c0.2,0,0.5-0.1,0.8-0.2c0.1,0,0.1,0,0.2,0c0.1,0,0.1,0,0.1,0.1l-0.3,0.6l-0.6,1.2h0.6h1c0.1,0,0.2,0,0.3-0.1
			c0.1,0,0.2-0.1,0.2-0.1C237.7,418.3,237.8,418.3,237.8,418.5z"/>
		<path class="st0" d="M244,418.3c0,0.1,0,0.2-0.1,0.3c-0.1,0.2-0.3,0.6-0.6,1.3l-3,6.8c-0.4,0.9-0.6,1.5-0.6,1.7
			c0,0.5,0.2,0.7,0.7,0.7c0.3,0,0.7-0.1,1.1-0.3c0.4-0.2,0.7-0.5,1-0.8c0.2-0.2,0.3-0.3,0.4-0.3c0.1,0,0.2,0.1,0.2,0.2
			c0,0.2-0.2,0.5-0.7,0.9c-0.7,0.6-1.6,0.9-2.5,0.9c-0.6,0-1.1-0.2-1.5-0.5c-0.4-0.3-0.6-0.7-0.6-1.2c0-0.4,0.2-1.1,0.6-2.1l2.7-6
			c0.1-0.3,0.2-0.5,0.3-0.7c0.1-0.1,0.1-0.1,0.1-0.2c0-0.2-0.4-0.3-1.1-0.3c-0.1,0-0.2-0.1-0.2-0.2c0-0.1,0.1-0.2,0.2-0.2
			c0,0,0.1,0,0.4,0.1c0.2,0,0.6,0.1,1.2,0.1c0.7,0,1.2-0.1,1.5-0.2c0.2-0.1,0.3-0.1,0.4-0.1C243.9,418.1,244,418.2,244,418.3z
			 M245.8,413.5c0,0.7-0.3,1.1-1,1.1c-0.3,0-0.6-0.1-0.9-0.3c-0.2-0.2-0.3-0.5-0.3-0.8c0-0.7,0.4-1.1,1.2-1.1
			C245.4,412.4,245.8,412.7,245.8,413.5z"/>
		<path class="st0" d="M257.4,420.2c0,0.4-0.2,1.1-0.7,2.2l-2.1,4.8c-0.2,0.6-0.4,0.9-0.4,1.1c0,0.4,0.2,0.5,0.6,0.5
			c0.5,0,1.2-0.4,2.2-1.2c0.1-0.1,0.2-0.1,0.2-0.1c0.1,0,0.2,0,0.2,0.1c0,0.2-0.3,0.5-0.9,0.9c-0.8,0.5-1.6,0.8-2.5,0.8
			c-0.5,0-1-0.1-1.3-0.4c-0.4-0.2-0.5-0.5-0.5-0.9c0-0.3,0.2-0.8,0.5-1.6l2.1-4.7c0.5-1.1,0.8-1.9,0.8-2.3c0-0.6-0.3-0.9-0.9-0.9
			c-0.8,0-1.7,0.6-2.8,1.7c-0.8,0.9-1.6,2.1-2.2,3.6l-2.1,4.9c-0.1,0.3-0.2,0.4-0.3,0.4c0,0-0.2,0-0.6,0c-0.1,0-0.2,0-0.3,0
			c-0.1,0-0.4,0-0.7,0c-0.1,0-0.1,0-0.2,0c-0.1,0-0.2,0-0.2-0.1c0,0,0-0.1,0.1-0.2l0.2-0.4l4-9.5c0.1-0.1,0.1-0.2,0.1-0.2
			c0-0.1-0.2-0.2-0.7-0.2c-0.5,0-0.8-0.1-0.8-0.3c0-0.1,0.1-0.2,0.3-0.2c0.1,0,0.3,0,0.6,0.1c0.3,0,0.5,0.1,0.6,0.1
			c0.9,0,1.6-0.1,1.8-0.2c0.1-0.1,0.2-0.1,0.2-0.1c0.1,0,0.2,0.1,0.2,0.2c0,0.1,0,0.1,0,0.1l-1,2.4c0.1-0.2,0.3-0.4,0.6-0.7
			c1.3-1.4,2.5-2.1,3.7-2.1c0.7,0,1.3,0.2,1.7,0.6C257.2,419.1,257.4,419.6,257.4,420.2z"/>
		<path class="st0" d="M270.2,420.1c0,0.8-0.4,1.3-1.1,1.3c-0.2,0-0.5-0.1-0.7-0.3c-0.2-0.2-0.3-0.4-0.3-0.6c0-0.4,0.2-0.6,0.7-0.6
			l0.2,0c0.1,0.1,0.2,0.1,0.3,0.1c0.1,0,0.2-0.1,0.2-0.3c0-0.3-0.2-0.5-0.5-0.7s-0.7-0.3-1.1-0.3c-1.3,0-2.5,1-3.7,2.9
			c-1.2,2-1.8,3.8-1.8,5.5c0,1.5,0.7,2.2,2,2.2c1,0,2-0.6,3-1.8c0.2-0.2,0.3-0.3,0.4-0.3c0.1,0,0.1,0.1,0.1,0.2c0,0.2-0.2,0.5-0.7,1
			c-1,1-2.1,1.5-3.3,1.5c-1.1,0-2-0.3-2.7-1c-0.7-0.6-1-1.5-1-2.6c0-1.8,1-3.7,2.9-5.6c1.6-1.6,3.2-2.4,4.9-2.4
			c0.6,0,1.2,0.2,1.6,0.5C270,419.1,270.2,419.5,270.2,420.1z"/>
		<path class="st0" d="M279.5,418.5c0,0.2-0.4,0.4-1.1,0.4h-1H277l-3.5,7.9c-0.4,0.9-0.6,1.4-0.6,1.6c0,0.4,0.3,0.5,0.8,0.5
			c0.8,0,1.5-0.4,2.1-1.2c0.1-0.2,0.2-0.3,0.3-0.3c0.1,0,0.2,0.1,0.2,0.2c0,0.2-0.3,0.6-0.9,1.1c-0.7,0.6-1.4,0.9-2.4,0.9
			c-0.6,0-1.1-0.2-1.5-0.5c-0.4-0.3-0.6-0.7-0.6-1.2c0-0.3,0.2-0.9,0.6-1.7l3.4-7.3h-1.1c-0.3,0-0.4-0.1-0.4-0.2
			c0-0.2,0.1-0.3,0.4-0.3h0.2c0.1,0,0.2,0,0.4,0c0.2,0,0.5,0,0.7,0l0.4-1.1c0.2-0.4,0.3-0.6,0.4-0.6c0.1,0,0.2,0,0.4,0
			c0.2,0,0.3,0,0.4,0c0.2,0,0.5-0.1,0.8-0.2c0.1,0,0.1,0,0.2,0c0.1,0,0.1,0,0.1,0.1l-0.3,0.6l-0.6,1.2h0.6h1c0.1,0,0.2,0,0.3-0.1
			s0.2-0.1,0.2-0.1C279.5,418.3,279.5,418.3,279.5,418.5z"/>
		<path class="st0" d="M285.8,418.3c0,0.1,0,0.2-0.1,0.3c-0.1,0.2-0.3,0.6-0.6,1.3l-3,6.8c-0.4,0.9-0.6,1.5-0.6,1.7
			c0,0.5,0.2,0.7,0.7,0.7c0.3,0,0.7-0.1,1.1-0.3c0.4-0.2,0.7-0.5,1-0.8c0.2-0.2,0.3-0.3,0.4-0.3c0.1,0,0.2,0.1,0.2,0.2
			c0,0.2-0.2,0.5-0.7,0.9c-0.7,0.6-1.6,0.9-2.5,0.9c-0.6,0-1.1-0.2-1.5-0.5c-0.4-0.3-0.6-0.7-0.6-1.2c0-0.4,0.2-1.1,0.7-2.1l2.7-6
			c0.1-0.3,0.2-0.5,0.3-0.7c0.1-0.1,0.1-0.1,0.1-0.2c0-0.2-0.4-0.3-1.1-0.3c-0.1,0-0.2-0.1-0.2-0.2c0-0.1,0.1-0.2,0.2-0.2
			c0,0,0.1,0,0.4,0.1c0.2,0,0.6,0.1,1.2,0.1c0.7,0,1.2-0.1,1.5-0.2c0.2-0.1,0.3-0.1,0.4-0.1C285.7,418.1,285.8,418.2,285.8,418.3z
			 M287.6,413.5c0,0.7-0.3,1.1-1,1.1c-0.3,0-0.6-0.1-0.9-0.3c-0.2-0.2-0.3-0.5-0.3-0.8c0-0.7,0.4-1.1,1.2-1.1
			C287.2,412.4,287.6,412.7,287.6,413.5z"/>
		<path class="st0" d="M298.6,422.4c0,2-0.9,3.9-2.8,5.5c-1.5,1.3-3,1.9-4.6,1.9c-1.1,0-2-0.4-2.7-1.1s-1-1.7-1-2.9
			c0-1,0.3-2,0.9-3.1c0.6-1.1,1.3-2,2.3-2.7c1.5-1.2,2.9-1.7,4.3-1.7c1.1,0,1.9,0.4,2.6,1.1C298.2,420.1,298.6,421.1,298.6,422.4z
			 M296.6,420.7c0-1.3-0.6-2-1.8-2c-1.4,0-2.7,1-3.7,3.1c-1,2-1.5,3.8-1.5,5.6c0,1.3,0.6,2,1.7,2c1.5,0,2.7-0.9,3.6-2.8
			C296,424.4,296.6,422.4,296.6,420.7z"/>
		<path class="st0" d="M312.9,420.2c0,0.4-0.2,1.1-0.7,2.2l-2.1,4.8c-0.2,0.6-0.4,0.9-0.4,1.1c0,0.4,0.2,0.5,0.6,0.5
			c0.5,0,1.2-0.4,2.2-1.2c0.1-0.1,0.2-0.1,0.2-0.1c0.1,0,0.2,0,0.2,0.1c0,0.2-0.3,0.5-0.9,0.9c-0.8,0.5-1.6,0.8-2.5,0.8
			c-0.5,0-1-0.1-1.3-0.4c-0.4-0.2-0.5-0.5-0.5-0.9c0-0.3,0.2-0.8,0.5-1.6l2.1-4.7c0.5-1.1,0.8-1.9,0.8-2.3c0-0.6-0.3-0.9-0.9-0.9
			c-0.8,0-1.7,0.6-2.8,1.7c-0.8,0.9-1.6,2.1-2.2,3.6l-2.1,4.9c-0.1,0.3-0.2,0.4-0.3,0.4c0,0-0.2,0-0.6,0c-0.1,0-0.2,0-0.3,0
			c-0.1,0-0.4,0-0.7,0c-0.1,0-0.1,0-0.2,0c-0.1,0-0.2,0-0.2-0.1c0,0,0-0.1,0.1-0.2l0.2-0.4l4-9.5c0.1-0.1,0.1-0.2,0.1-0.2
			c0-0.1-0.2-0.2-0.7-0.2c-0.5,0-0.8-0.1-0.8-0.3c0-0.1,0.1-0.2,0.3-0.2c0.1,0,0.3,0,0.6,0.1c0.3,0,0.5,0.1,0.6,0.1
			c0.9,0,1.6-0.1,1.8-0.2c0.1-0.1,0.2-0.1,0.2-0.1c0.1,0,0.2,0.1,0.2,0.2c0,0.1,0,0.1,0,0.1l-1,2.4c0.1-0.2,0.3-0.4,0.6-0.7
			c1.3-1.4,2.5-2.1,3.7-2.1c0.7,0,1.3,0.2,1.7,0.6C312.7,419.1,312.9,419.6,312.9,420.2z"/>
		<path class="st0" d="M205.4,458.1c0,0.2-0.3,0.3-0.9,0.3c0.6,0,0.3-0.1-1-0.1h-2h-3.4c-0.1,0.1-0.3,0.1-0.4,0.1
			c-0.3,0-0.4-0.1-0.4-0.3c0-0.2,0.1-0.2,0.3-0.2c0.2,0,0.4,0,0.6,0h0.3c0.5,0,0.9-0.1,1.2-0.2c0.2-0.1,0.4-0.6,0.5-1.5l0.5-3.5
			c0-0.1,0-0.1,0-0.2c0-0.1-0.3-0.2-0.9-0.2c-0.7,0-1.5,0-2.3,0c-0.8,0-1.3,0-1.3,0h-0.4c-0.1,0.1-0.3,0.4-0.7,0.8l-2.4,3.4
			c-0.3,0.5-0.5,0.8-0.5,1c0,0.4,0.5,0.6,1.4,0.6c0.1,0,0.3,0,0.5-0.1c0.2,0,0.4-0.1,0.5-0.1c0.2,0,0.4,0.1,0.4,0.3
			c0,0.2-0.2,0.3-0.7,0.3l-1.4-0.1l-2.4,0.1c-1.1,0-1.8,0-2.1,0s-0.4-0.1-0.4-0.3c0-0.1,0.1-0.2,0.3-0.2c0.1,0,0.3,0,0.5,0.1
			c0.2,0,0.4,0.1,0.5,0.1c0.6,0,1.1-0.1,1.5-0.3c0.3-0.2,0.8-0.8,1.7-1.9l7.5-9.9c0.5-0.6,1.1-1.5,2.1-2.6l2.3-3
			c0.2-0.2,0.3-0.3,0.4-0.3c0.2,0,0.3,0.1,0.3,0.4c0,0.4-0.1,0.9-0.2,1.4c-0.2,1-0.5,2.6-0.7,4.7l-1.1,9.3c-0.1,0.9-0.2,1.3-0.2,1.4
			c0,0.5,0.3,0.8,0.9,0.8h1.5C205.3,457.9,205.4,458,205.4,458.1z M202,444.4c0-0.2,0-0.2-0.1-0.2c-0.1,0-0.2,0.1-0.3,0.3
			c-0.1,0.2-0.2,0.4-0.2,0.4c-0.1,0.1-0.4,0.5-0.8,1.1l-2.8,3.7c-0.3,0.4-0.7,1-1.2,1.6c-0.1,0.1-0.1,0.1-0.2,0.2
			c0,0.1,0.1,0.2,0.4,0.2h0.5h1.3c1.3,0,2.1,0,2.3-0.2l0.8-5.3c0.1-0.3,0.1-0.8,0.2-1.4C202,444.6,202,444.5,202,444.4z"/>
		<path class="st0" d="M218.4,449.1c0,0.8-0.4,1.3-1.1,1.3c-0.2,0-0.5-0.1-0.6-0.3c-0.2-0.2-0.3-0.4-0.3-0.6c0-0.4,0.2-0.6,0.7-0.6
			l0.2,0c0.1,0.1,0.2,0.1,0.3,0.1c0.1,0,0.2-0.1,0.2-0.3c0-0.3-0.2-0.5-0.5-0.7c-0.3-0.2-0.7-0.3-1.1-0.3c-1.3,0-2.5,1-3.7,2.9
			c-1.2,2-1.8,3.8-1.8,5.5c0,1.5,0.7,2.2,2,2.2c1,0,2-0.6,3-1.8c0.2-0.2,0.3-0.3,0.4-0.3c0.1,0,0.1,0.1,0.1,0.2c0,0.2-0.2,0.5-0.7,1
			c-1,1-2.1,1.5-3.3,1.5c-1.1,0-2-0.3-2.7-1s-1-1.5-1-2.6c0-1.8,1-3.7,2.9-5.6c1.6-1.6,3.2-2.4,4.9-2.4c0.6,0,1.2,0.2,1.6,0.5
			C218.2,448.1,218.4,448.5,218.4,449.1z"/>
		<path class="st0" d="M231.4,456.4c0,0.1-0.2,0.3-0.5,0.6c-1.2,1-2.3,1.6-3.4,1.6c-0.5,0-0.9-0.1-1.2-0.4c-0.3-0.3-0.4-0.6-0.4-1.1
			c0-0.4,0.2-1,0.6-2l2.3-5.1c0.4-0.8,0.6-1.4,0.6-1.6c0-0.5-0.3-0.8-0.9-0.8c-0.7,0-1.6,0.5-2.6,1.5c-0.8,0.7-1.4,1.4-1.8,2
			c-0.4,0.6-0.9,1.5-1.4,2.8l-1.7,3.8c-0.1,0.3-0.2,0.5-0.3,0.6c-0.1,0.1-0.2,0.1-0.3,0.1c-0.1,0-0.3,0-0.7,0c-0.5,0-0.8,0-0.9,0
			c-0.1,0-0.1,0-0.2,0s-0.1,0-0.1-0.1c0-0.1,0.1-0.2,0.2-0.5l7.1-16.3c0.3-0.6,0.4-0.9,0.4-1c0-0.1,0-0.2-0.1-0.2
			c-0.1,0-0.4,0-0.8,0c-0.4,0-0.6-0.1-0.6-0.2c0-0.1,0.1-0.1,0.2-0.1c0.1,0,0.2,0,0.3,0h1.9c0.4,0,0.7,0,1.1,0c0.2,0,0.3,0,0.4,0
			c0.2,0,0.2,0.1,0.2,0.2s0,0.2-0.1,0.3c-0.1,0.3-0.2,0.5-0.3,0.7l-4.2,9.3c1.1-1.2,2-2.1,2.7-2.6s1.5-0.7,2.3-0.7
			c0.6,0,1.2,0.2,1.6,0.5c0.4,0.3,0.6,0.7,0.6,1.2c0,0.5-0.2,1.2-0.6,2.2l-2.4,5.4c-0.3,0.7-0.4,1.1-0.4,1.2c0,0.3,0.1,0.4,0.4,0.4
			c0.6,0,1.4-0.4,2.4-1.3c0.3-0.2,0.4-0.3,0.5-0.3C231.4,456.3,231.4,456.3,231.4,456.4z"/>
		<path class="st0" d="M240.4,447.3c0,0.1,0,0.2-0.1,0.3c-0.1,0.2-0.3,0.6-0.6,1.3l-3,6.8c-0.4,0.9-0.6,1.5-0.6,1.7
			c0,0.5,0.2,0.7,0.7,0.7c0.3,0,0.7-0.1,1.1-0.3c0.4-0.2,0.7-0.5,1-0.8c0.2-0.2,0.3-0.3,0.4-0.3c0.1,0,0.2,0.1,0.2,0.2
			c0,0.2-0.2,0.5-0.7,0.9c-0.7,0.6-1.6,0.9-2.5,0.9c-0.6,0-1.1-0.2-1.5-0.5c-0.4-0.3-0.6-0.7-0.6-1.2c0-0.4,0.2-1.1,0.6-2.1l2.7-6
			c0.1-0.3,0.2-0.5,0.3-0.7c0.1-0.1,0.1-0.1,0.1-0.2c0-0.2-0.4-0.3-1.1-0.3c-0.1,0-0.2-0.1-0.2-0.2c0-0.1,0.1-0.2,0.2-0.2
			c0,0,0.1,0,0.4,0.1c0.2,0,0.6,0.1,1.2,0.1c0.7,0,1.2-0.1,1.5-0.2c0.2-0.1,0.3-0.1,0.4-0.1C240.3,447.1,240.4,447.2,240.4,447.3z
			 M242.2,442.5c0,0.7-0.3,1.1-1,1.1c-0.3,0-0.6-0.1-0.9-0.3c-0.2-0.2-0.3-0.5-0.3-0.8c0-0.7,0.4-1.1,1.2-1.1
			C241.8,441.4,242.2,441.7,242.2,442.5z"/>
		<path class="st0" d="M252.5,448.9c0,0.9-0.5,1.7-1.5,2.3c-1,0.6-2.3,0.9-3.8,0.9c-0.6,0-1.2,0-1.8-0.1c-0.6,1.3-1,2.6-1,3.7
			c0,1.5,0.7,2.3,2.1,2.3c1.1,0,2.1-0.5,3.1-1.6c0.2-0.2,0.4-0.4,0.4-0.4c0.1,0,0.1,0,0.1,0.1c0,0.4-0.4,0.9-1.2,1.5
			c-0.9,0.7-1.9,1-2.9,1c-1.1,0-2.1-0.3-2.8-1c-0.7-0.7-1.1-1.5-1.1-2.5c0-1.9,1.1-3.8,3.2-5.6c1.9-1.6,3.5-2.4,5-2.4
			C251.7,447.2,252.5,447.8,252.5,448.9z M250.6,448.5c0-0.5-0.3-0.8-0.8-0.8c-0.6,0-1.1,0.2-1.6,0.6c-1,0.8-1.9,1.9-2.7,3.4
			c0.2,0,0.4,0,0.7,0c1,0,1.9-0.3,2.8-0.9C250.1,450.2,250.6,449.4,250.6,448.5z"/>
		<path class="st0" d="M264.5,448.6c0,1.3-0.2,2.6-0.7,4c-0.5,1.4-1.2,2.6-2,3.6c-1.3,1.6-2.6,2.4-4,2.4c-0.7,0-1.4-0.2-1.8-0.6
			c-0.5-0.4-0.7-0.9-0.7-1.6c0-0.8,0.3-2,1-3.6l1.5-3.6c0.2-0.5,0.3-0.8,0.3-1c0-0.4-0.2-0.5-0.6-0.5c-0.3,0-0.8,0.3-1.4,0.8
			c-0.6,0.5-1,1-1.3,1.5c-0.1,0.3-0.3,0.4-0.4,0.4c-0.2,0-0.2-0.1-0.2-0.2c0-0.4,0.5-1,1.4-1.9c0.9-0.8,1.8-1.3,2.7-1.3
			c0.5,0,1,0.1,1.3,0.4s0.5,0.6,0.5,1.1c0,0.5-0.2,1.1-0.5,1.9l-1.5,3.4c-0.5,1.1-0.7,2.1-0.7,2.9c0,0.9,0.4,1.3,1.1,1.3
			c1.1,0,2.3-1,3.6-3s1.9-3.8,1.9-5.6c0-0.6-0.1-0.9-0.4-0.9c0,0-0.1,0-0.2,0.1c-0.1,0-0.3,0.1-0.4,0.1c-0.5,0-0.7-0.2-0.7-0.7
			c0-0.3,0.1-0.5,0.3-0.7s0.5-0.3,0.8-0.3C264.1,447.2,264.5,447.7,264.5,448.6z"/>
		<path class="st0" d="M277.2,448.9c0,0.9-0.5,1.7-1.5,2.3s-2.3,0.9-3.8,0.9c-0.6,0-1.2,0-1.8-0.1c-0.6,1.3-1,2.6-1,3.7
			c0,1.5,0.7,2.3,2.1,2.3c1.1,0,2.1-0.5,3.1-1.6c0.2-0.2,0.4-0.4,0.4-0.4c0.1,0,0.1,0,0.1,0.1c0,0.4-0.4,0.9-1.2,1.5
			c-0.9,0.7-1.9,1-2.9,1c-1.1,0-2.1-0.3-2.8-1c-0.7-0.7-1.1-1.5-1.1-2.5c0-1.9,1.1-3.8,3.2-5.6c1.9-1.6,3.5-2.4,5-2.4
			C276.4,447.2,277.2,447.8,277.2,448.9z M275.3,448.5c0-0.5-0.3-0.8-0.8-0.8c-0.6,0-1.1,0.2-1.6,0.6c-1,0.8-1.9,1.9-2.7,3.4
			c0.2,0,0.4,0,0.7,0c1,0,1.9-0.3,2.8-0.9C274.8,450.2,275.3,449.4,275.3,448.5z"/>
		<path class="st0" d="M295.2,449.2c0,0.5-0.2,1.2-0.6,2.2l-1.9,4.4c-0.3,0.7-0.5,1.2-0.5,1.5c0,0.3,0.2,0.5,0.6,0.5
			c0.6,0,1.2-0.3,1.8-1c0.2-0.2,0.4-0.3,0.5-0.3c0.1,0,0.2,0,0.2,0.1c0,0.2-0.3,0.5-0.9,0.9c-0.9,0.6-1.7,0.9-2.4,0.9
			c-0.5,0-0.9-0.1-1.2-0.4c-0.3-0.3-0.5-0.6-0.5-1c0-0.4,0.2-1.1,0.6-2l1.9-4.4c0.5-1,0.7-1.7,0.7-2c0-0.6-0.3-0.9-0.8-0.9
			c-0.8,0-1.7,0.6-2.6,1.7c-0.6,0.7-1.4,2.2-2.3,4.4l-1.6,3.7c-0.2,0.6-0.4,0.9-0.5,0.9c-0.1,0-0.2,0-0.2,0c-0.3,0-0.5,0-0.7,0
			c-0.1,0-0.2,0-0.4,0s-0.3,0-0.4,0c-0.1,0-0.2,0-0.2-0.1c0-0.1,0-0.1,0.1-0.3s0.2-0.3,0.3-0.6l2.7-6.4c0.6-1.3,0.9-2.2,0.9-2.6
			c0-0.5-0.3-0.7-0.8-0.7c-0.7,0-1.5,0.6-2.5,1.7c-0.3,0.3-0.8,1-1.4,1.8c-0.2,0.3-0.5,1-1,2l-2,4.6c-0.2,0.5-0.4,0.7-0.5,0.7
			c-0.1,0-0.2,0-0.2,0c-0.3,0-0.4-0.1-0.5-0.1c-0.5,0-0.9,0-1,0.1c0,0-0.1,0-0.2,0c-0.1,0-0.1,0-0.1-0.1c0.1-0.2,0.2-0.4,0.3-0.6
			l4.1-9.5c0.1-0.1,0.1-0.1,0.1-0.2c0-0.2-0.2-0.2-0.5-0.2c-0.5,0-0.7-0.1-0.7-0.3c0-0.1,0.1-0.2,0.3-0.2c0.2,0,0.4,0,0.7,0.1
			c0.3,0,0.6,0.1,0.7,0.1c0.8,0,1.3-0.1,1.5-0.2c0.1,0,0.1,0,0.2-0.1c0.1,0,0.2,0.1,0.2,0.2c0,0-0.1,0.2-0.2,0.6
			c-0.1,0.2-0.3,0.7-0.5,1.3l-0.1,0.4c0.2-0.2,0.5-0.5,1-1.1c0.8-0.9,1.7-1.3,2.9-1.3c0.7,0,1.2,0.2,1.5,0.5c0.3,0.4,0.5,1,0.5,1.9
			c1.1-1.6,2.3-2.4,3.6-2.4c0.7,0,1.2,0.2,1.6,0.5C295,448.1,295.2,448.5,295.2,449.2z"/>
		<path class="st0" d="M308.4,448.9c0,0.9-0.5,1.7-1.5,2.3c-1,0.6-2.3,0.9-3.8,0.9c-0.6,0-1.2,0-1.8-0.1c-0.6,1.3-1,2.6-1,3.7
			c0,1.5,0.7,2.3,2.1,2.3c1.1,0,2.1-0.5,3.1-1.6c0.2-0.2,0.4-0.4,0.4-0.4c0.1,0,0.1,0,0.1,0.1c0,0.4-0.4,0.9-1.2,1.5
			c-0.9,0.7-1.9,1-2.9,1c-1.1,0-2.1-0.3-2.8-1c-0.7-0.7-1.1-1.5-1.1-2.5c0-1.9,1.1-3.8,3.2-5.6c1.9-1.6,3.5-2.4,5-2.4
			C307.7,447.2,308.4,447.8,308.4,448.9z M306.6,448.5c0-0.5-0.3-0.8-0.8-0.8c-0.6,0-1.1,0.2-1.6,0.6c-1,0.8-1.9,1.9-2.7,3.4
			c0.2,0,0.4,0,0.7,0c1,0,1.9-0.3,2.8-0.9C306.1,450.2,306.6,449.4,306.6,448.5z"/>
		<path class="st0" d="M321.3,449.2c0,0.4-0.2,1.1-0.7,2.2l-2.1,4.8c-0.2,0.6-0.4,0.9-0.4,1.1c0,0.4,0.2,0.5,0.6,0.5
			c0.5,0,1.2-0.4,2.2-1.2c0.1-0.1,0.2-0.1,0.2-0.1c0.1,0,0.2,0,0.2,0.1c0,0.2-0.3,0.5-0.9,0.9c-0.8,0.5-1.6,0.8-2.5,0.8
			c-0.5,0-1-0.1-1.3-0.4c-0.4-0.2-0.5-0.5-0.5-0.9c0-0.3,0.2-0.8,0.5-1.6l2.1-4.7c0.5-1.1,0.8-1.9,0.8-2.3c0-0.6-0.3-0.9-0.9-0.9
			c-0.8,0-1.7,0.6-2.8,1.7c-0.8,0.9-1.6,2.1-2.2,3.6l-2.1,4.9c-0.1,0.3-0.2,0.4-0.3,0.4c0,0-0.2,0-0.6,0c-0.1,0-0.2,0-0.3,0
			c-0.1,0-0.4,0-0.7,0c-0.1,0-0.1,0-0.2,0c-0.1,0-0.2,0-0.2-0.1c0,0,0-0.1,0.1-0.2l0.2-0.4l4-9.5c0.1-0.1,0.1-0.2,0.1-0.2
			c0-0.1-0.2-0.2-0.7-0.2c-0.5,0-0.8-0.1-0.8-0.3c0-0.1,0.1-0.2,0.3-0.2c0.1,0,0.3,0,0.6,0.1c0.3,0,0.5,0.1,0.6,0.1
			c0.9,0,1.6-0.1,1.8-0.2c0.1-0.1,0.2-0.1,0.2-0.1c0.1,0,0.2,0.1,0.2,0.2c0,0.1,0,0.1,0,0.1l-1,2.4c0.1-0.2,0.3-0.4,0.6-0.7
			c1.3-1.4,2.5-2.1,3.7-2.1c0.7,0,1.3,0.2,1.7,0.6C321.1,448.1,321.3,448.6,321.3,449.2z"/>
		<path class="st0" d="M332.5,447.5c0,0.2-0.4,0.4-1.1,0.4h-1H330l-3.5,7.9c-0.4,0.9-0.6,1.4-0.6,1.6c0,0.4,0.3,0.5,0.8,0.5
			c0.8,0,1.5-0.4,2.1-1.2c0.1-0.2,0.2-0.3,0.3-0.3c0.1,0,0.2,0.1,0.2,0.2c0,0.2-0.3,0.6-0.9,1.1c-0.7,0.6-1.4,0.9-2.4,0.9
			c-0.6,0-1.1-0.2-1.5-0.5c-0.4-0.3-0.6-0.7-0.6-1.2c0-0.3,0.2-0.9,0.6-1.7l3.4-7.3h-1.1c-0.3,0-0.4-0.1-0.4-0.2
			c0-0.2,0.1-0.3,0.4-0.3h0.2c0.1,0,0.2,0,0.4,0c0.2,0,0.5,0,0.7,0l0.4-1.1c0.2-0.4,0.3-0.6,0.4-0.6s0.2,0,0.4,0c0.2,0,0.3,0,0.4,0
			c0.2,0,0.5-0.1,0.8-0.2c0.1,0,0.1,0,0.2,0c0.1,0,0.1,0,0.1,0.1l-0.3,0.6l-0.6,1.2h0.6h1c0.1,0,0.2,0,0.3-0.1s0.2-0.1,0.2-0.1
			C332.4,447.3,332.5,447.3,332.5,447.5z"/>
	</g>
</g>
</svg>
