<?xml version="1.0" encoding="utf-8"?>
<!-- Generator: Adobe Illustrator 22.0.1, SVG Export Plug-In . SVG Version: 6.00 Build 0)  -->
<svg version="1.1" id="Layer_1" xmlns="http://www.w3.org/2000/svg" xmlns:xlink="http://www.w3.org/1999/xlink" x="0px" y="0px"
	 viewBox="0 0 612 792" style="enable-background:new 0 0 612 792;" xml:space="preserve">
<style type="text/css">
	.st0{fill:#FFFFFF;}
</style>
<g>
	<path class="st0" d="M175.5,237.9c0,2.2-0.7,3.9-2.2,5.1c-1.5,1.2-3.5,1.8-6.2,1.8h-2.2v8h-3.5v-21.3h6.1c2.7,0,4.7,0.5,6,1.6
		C174.9,234.2,175.5,235.8,175.5,237.9z M164.9,241.9h1.8c1.8,0,3.1-0.3,3.9-0.9c0.8-0.6,1.3-1.6,1.3-2.9c0-1.2-0.4-2.1-1.1-2.7
		c-0.7-0.6-1.9-0.9-3.5-0.9h-2.4V241.9z"/>
	<path class="st0" d="M187.4,236.4c0.7,0,1.3,0,1.7,0.1l-0.3,3.2c-0.5-0.1-1-0.2-1.5-0.2c-1.4,0-2.5,0.4-3.3,1.3
		c-0.8,0.9-1.3,2.1-1.3,3.5v8.4h-3.4v-16.1h2.7l0.5,2.8h0.2c0.5-1,1.2-1.7,2.1-2.3C185.5,236.7,186.5,236.4,187.4,236.4z"/>
	<path class="st0" d="M206.3,244.7c0,2.6-0.7,4.7-2,6.2s-3.2,2.2-5.6,2.2c-1.5,0-2.8-0.3-4-1s-2-1.7-2.7-2.9
		c-0.6-1.3-0.9-2.7-0.9-4.4c0-2.6,0.7-4.7,2-6.1c1.3-1.5,3.2-2.2,5.7-2.2c2.3,0,4.2,0.8,5.5,2.3
		C205.6,240.1,206.3,242.2,206.3,244.7z M194.6,244.7c0,3.7,1.4,5.6,4.1,5.6c2.7,0,4.1-1.9,4.1-5.6c0-3.7-1.4-5.5-4.1-5.5
		c-1.4,0-2.5,0.5-3.1,1.4C194.9,241.6,194.6,242.9,194.6,244.7z"/>
	<path class="st0" d="M221.4,252.8l-0.5-2.1h-0.2c-0.5,0.7-1.2,1.3-2,1.8c-0.9,0.4-1.9,0.6-3,0.6c-2,0-3.4-0.5-4.4-1.5
		s-1.4-2.4-1.4-4.4v-10.5h3.5v9.9c0,1.2,0.3,2.2,0.8,2.8s1.3,0.9,2.4,0.9c1.4,0,2.5-0.4,3.2-1.3c0.7-0.9,1-2.3,1-4.3v-8h3.4v16.1
		H221.4z"/>
	<path class="st0" d="M234.3,253.1c-2,0-3.6-0.7-4.7-2.2c-1.1-1.5-1.7-3.5-1.7-6.1s0.6-4.7,1.7-6.2c1.1-1.5,2.7-2.2,4.7-2.2
		c2.1,0,3.7,0.8,4.8,2.3h0.2c-0.2-1.2-0.2-2.1-0.2-2.7v-5.9h3.4v22.7h-2.7l-0.6-2.1H239C238,252.3,236.4,253.1,234.3,253.1z
		 M235.2,250.3c1.4,0,2.4-0.4,3.1-1.2c0.6-0.8,1-2.1,1-3.9v-0.5c0-2-0.3-3.5-1-4.3s-1.7-1.3-3.1-1.3c-1.2,0-2.1,0.5-2.8,1.5
		s-1,2.4-1,4.2s0.3,3.1,0.9,4.1C233,249.8,233.9,250.3,235.2,250.3z"/>
	<path class="st0" d="M250.7,252.8h-3.4v-22.7h3.4V252.8z"/>
	<path class="st0" d="M253,236.7h3.7l3.3,9.1c0.5,1.3,0.8,2.5,1,3.7h0.1c0.1-0.5,0.2-1.2,0.5-1.9c0.2-0.8,1.5-4.4,3.7-10.9h3.7
		l-6.9,18.2c-1.3,3.3-3.3,5-6.3,5c-0.8,0-1.5-0.1-2.2-0.2V257c0.5,0.1,1.1,0.2,1.8,0.2c1.7,0,2.8-1,3.5-2.9l0.6-1.5L253,236.7z"/>
	<path class="st0" d="M282.7,244.3v8.5h-3.5v-21.3h6c2.7,0,4.8,0.5,6.1,1.5c1.3,1,2,2.6,2,4.7c0,2.7-1.4,4.5-4.1,5.7l6,9.4h-4
		l-5.1-8.5L282.7,244.3L282.7,244.3z M282.7,241.4h2.4c1.6,0,2.8-0.3,3.5-0.9c0.7-0.6,1.1-1.5,1.1-2.7s-0.4-2.1-1.2-2.6
		c-0.8-0.5-2-0.8-3.6-0.8h-2.3v7H282.7z"/>
	<path class="st0" d="M304.8,253.1c-2.5,0-4.5-0.7-5.9-2.2s-2.1-3.5-2.1-6c0-2.6,0.7-4.7,2-6.2s3.1-2.3,5.4-2.3c2.1,0,3.8,0.6,5,1.9
		c1.2,1.3,1.8,3.1,1.8,5.3v1.8h-10.7c0,1.6,0.5,2.8,1.3,3.6s1.9,1.3,3.4,1.3c1,0,1.8-0.1,2.7-0.3c0.8-0.2,1.7-0.5,2.6-0.9v2.8
		c-0.8,0.4-1.7,0.7-2.5,0.8C306.9,253,305.9,253.1,304.8,253.1z M304.2,239c-1.1,0-2,0.3-2.6,1c-0.7,0.7-1,1.7-1.2,3h7.3
		c0-1.3-0.3-2.3-1-3C306.1,239.3,305.3,239,304.2,239z"/>
	<path class="st0" d="M321.3,253.1c-2.4,0-4.3-0.7-5.6-2.1c-1.3-1.4-1.9-3.5-1.9-6.1c0-2.7,0.7-4.8,2-6.2c1.3-1.5,3.2-2.2,5.7-2.2
		c1.7,0,3.2,0.3,4.6,0.9l-1,2.8c-1.4-0.6-2.6-0.8-3.6-0.8c-2.8,0-4.2,1.8-4.2,5.5c0,1.8,0.3,3.2,1,4.1c0.7,0.9,1.7,1.4,3.1,1.4
		c1.5,0,3-0.4,4.3-1.1v3c-0.6,0.4-1.3,0.6-2,0.8C323.1,253,322.3,253.1,321.3,253.1z"/>
	<path class="st0" d="M343.7,244.7c0,2.6-0.7,4.7-2,6.2s-3.2,2.2-5.6,2.2c-1.5,0-2.8-0.3-4-1s-2-1.7-2.7-2.9
		c-0.6-1.3-0.9-2.7-0.9-4.4c0-2.6,0.7-4.7,2-6.1c1.3-1.5,3.2-2.2,5.7-2.2c2.3,0,4.2,0.8,5.5,2.3C343,240.1,343.7,242.2,343.7,244.7z
		 M332,244.7c0,3.7,1.4,5.6,4.1,5.6s4.1-1.9,4.1-5.6c0-3.7-1.4-5.5-4.1-5.5c-1.4,0-2.5,0.5-3.1,1.4C332.3,241.6,332,242.9,332,244.7
		z"/>
	<path class="st0" d="M361.1,236.7v1.9l-2.8,0.5c0.3,0.3,0.5,0.8,0.6,1.3c0.2,0.5,0.2,1,0.2,1.6c0,1.7-0.6,3-1.7,3.9
		c-1.1,1-2.7,1.4-4.7,1.4c-0.5,0-1,0-1.4-0.1c-0.7,0.5-1.1,1-1.1,1.6c0,0.4,0.2,0.6,0.5,0.8s1,0.3,1.9,0.3h2.8c1.8,0,3.1,0.4,4,1.1
		c0.9,0.8,1.4,1.8,1.4,3.3c0,1.8-0.8,3.2-2.3,4.2s-3.7,1.5-6.5,1.5c-2.2,0-3.9-0.4-5-1.2c-1.2-0.8-1.7-1.9-1.7-3.3
		c0-1,0.3-1.8,0.9-2.5s1.5-1.1,2.6-1.4c-0.5-0.2-0.8-0.5-1.1-0.9c-0.3-0.4-0.4-0.9-0.4-1.4c0-0.6,0.2-1.1,0.5-1.5s0.8-0.8,1.5-1.2
		c-0.8-0.4-1.5-0.9-2-1.8c-0.5-0.8-0.8-1.8-0.8-2.8c0-1.7,0.6-3.1,1.7-4.1s2.7-1.4,4.7-1.4c0.5,0,0.9,0,1.4,0.1s0.9,0.1,1.1,0.2h5.7
		V236.7z M348.4,255.3c0,0.7,0.3,1.3,1,1.7s1.6,0.6,2.8,0.6c1.9,0,3.3-0.3,4.2-0.8c0.9-0.5,1.4-1.2,1.4-2.1c0-0.7-0.3-1.2-0.8-1.5
		s-1.4-0.4-2.8-0.4h-2.6c-1,0-1.8,0.2-2.3,0.7C348.7,253.9,348.4,254.5,348.4,255.3z M349.9,241.9c0,1,0.3,1.8,0.8,2.3
		s1.3,0.8,2.2,0.8c2,0,3-1.1,3-3.2c0-1-0.2-1.9-0.7-2.4c-0.5-0.6-1.2-0.9-2.2-0.9s-1.7,0.3-2.2,0.8
		C350.2,240,349.9,240.8,349.9,241.9z"/>
	<path class="st0" d="M378.1,252.8h-3.4v-9.9c0-1.2-0.2-2.2-0.7-2.8s-1.3-0.9-2.4-0.9c-1.4,0-2.5,0.4-3.2,1.3c-0.7,0.9-1,2.3-1,4.3
		v8H364v-16.1h2.7l0.5,2.1h0.2c0.5-0.8,1.2-1.4,2.1-1.8c0.9-0.4,1.9-0.6,3-0.6c3.9,0,5.8,2,5.8,5.9v10.5H378.1z"/>
	<path class="st0" d="M382.5,232.4c0-0.6,0.2-1.1,0.5-1.4c0.3-0.3,0.8-0.5,1.4-0.5s1.1,0.2,1.4,0.5s0.5,0.8,0.5,1.4
		c0,0.6-0.2,1-0.5,1.4s-0.8,0.5-1.4,0.5s-1.1-0.2-1.4-0.5C382.7,233.5,382.5,233,382.5,232.4z M386.1,252.8h-3.4v-16.1h3.4V252.8z"
		/>
	<path class="st0" d="M401.6,252.8h-12.2v-2.1l8.1-11.4h-7.6v-2.6h11.5v2.4l-8,11.1h8.2V252.8z"/>
	<path class="st0" d="M412,253.1c-2.5,0-4.5-0.7-5.9-2.2s-2.1-3.5-2.1-6c0-2.6,0.7-4.7,2-6.2s3.1-2.3,5.4-2.3c2.1,0,3.8,0.6,5,1.9
		c1.2,1.3,1.8,3.1,1.8,5.3v1.8h-10.7c0,1.6,0.5,2.8,1.3,3.6s1.9,1.3,3.4,1.3c1,0,1.8-0.1,2.7-0.3c0.8-0.2,1.7-0.5,2.6-0.9v2.8
		c-0.8,0.4-1.7,0.7-2.5,0.8C414.1,253,413.1,253.1,412,253.1z M411.4,239c-1.1,0-2,0.3-2.6,1c-0.7,0.7-1,1.7-1.2,3h7.3
		c0-1.3-0.3-2.3-1-3C413.3,239.3,412.5,239,411.4,239z"/>
	<path class="st0" d="M432.8,248.2c0,1.6-0.6,2.8-1.7,3.6s-2.8,1.3-4.9,1.3s-3.9-0.3-5.2-1v-3c1.9,0.9,3.7,1.3,5.3,1.3
		c2.1,0,3.2-0.6,3.2-1.9c0-0.4-0.1-0.7-0.3-1s-0.6-0.6-1.2-0.8c-0.5-0.3-1.3-0.6-2.2-1c-1.9-0.7-3.1-1.4-3.8-2.2
		c-0.7-0.7-1-1.7-1-2.8c0-1.4,0.6-2.4,1.7-3.2s2.6-1.1,4.5-1.1s3.7,0.4,5.4,1.2l-1.1,2.6c-1.7-0.7-3.2-1.1-4.4-1.1
		c-1.8,0-2.7,0.5-2.7,1.5c0,0.5,0.2,0.9,0.7,1.3c0.5,0.3,1.5,0.8,3.1,1.4c1.3,0.5,2.3,1,2.9,1.4s1,0.9,1.3,1.5
		C432.7,246.8,432.8,247.4,432.8,248.2z"/>
</g>
<g>
	<path class="st0" d="M194.2,290.5h-3.3v-20.6h11.6v2.8h-8.3v6.4h7.8v2.9h-7.8V290.5z"/>
	<path class="st0" d="M217.7,290.5H206v-20.6h11.6v2.8h-8.3v5.6h7.8v2.8h-7.8v6.5h8.3L217.7,290.5L217.7,290.5z"/>
	<path class="st0" d="M229.1,290.5h-3.4v-17.7h-6v-2.9h15.5v2.9h-6v17.7H229.1z"/>
	<path class="st0" d="M249.8,290.5h-11.6v-20.6h11.6v2.8h-8.3v5.6h7.8v2.8h-7.8v6.5h8.3V290.5z"/>
	<path class="st0" d="M265.9,284.9c0,1.8-0.7,3.3-2,4.3s-3.1,1.6-5.5,1.6c-2.3,0-4.2-0.4-5.7-1.1v-3.2c0.9,0.4,1.9,0.8,3,1
		c1.1,0.3,2,0.4,2.9,0.4c1.3,0,2.3-0.3,2.9-0.8s0.9-1.2,0.9-2s-0.3-1.4-0.9-2c-0.6-0.5-1.8-1.2-3.6-1.9c-1.9-0.8-3.2-1.6-4-2.6
		s-1.2-2.1-1.2-3.5c0-1.7,0.6-3.1,1.8-4.1s2.9-1.5,4.9-1.5s3.9,0.4,5.9,1.3l-1.1,2.7c-1.8-0.8-3.5-1.2-4.9-1.2
		c-1.1,0-1.9,0.2-2.5,0.7s-0.8,1.1-0.8,1.9c0,0.5,0.1,1,0.3,1.4s0.6,0.7,1.1,1.1c0.5,0.3,1.4,0.8,2.8,1.3c1.5,0.6,2.6,1.2,3.3,1.8
		c0.7,0.5,1.2,1.2,1.5,1.8C265.8,283.1,265.9,283.9,265.9,284.9z"/>
	<path class="st0" d="M275.7,285c0-1.2,0.3-2.3,0.9-3.2c0.6-0.9,1.7-1.8,3.2-2.7c-0.9-1-1.5-1.9-1.8-2.6s-0.5-1.5-0.5-2.2
		c0-1.4,0.5-2.6,1.5-3.4s2.4-1.2,4.1-1.2s3,0.4,3.9,1.2c0.9,0.8,1.4,1.9,1.4,3.2c0,1.1-0.3,2-0.9,2.9s-1.7,1.7-3.2,2.6l4.9,4.7
		c0.8-1,1.4-2.5,1.9-4.4h3.4c-0.7,2.7-1.7,4.8-3.2,6.5l4.2,4.1h-4.3l-2.1-2c-1,0.8-2,1.3-3.1,1.7c-1.1,0.4-2.3,0.6-3.6,0.6
		c-2.2,0-3.9-0.5-5.1-1.5C276.3,288.2,275.7,286.8,275.7,285z M282.8,287.9c1.7,0,3.2-0.5,4.4-1.5l-5.4-5.3c-1,0.6-1.7,1.2-2.1,1.8
		c-0.4,0.6-0.6,1.2-0.6,1.9c0,0.9,0.3,1.7,1,2.2C280.9,287.6,281.7,287.9,282.8,287.9z M280.7,274.3c0,0.6,0.2,1.1,0.5,1.7
		c0.3,0.5,0.8,1.1,1.3,1.7c1.1-0.6,1.8-1.2,2.2-1.7c0.4-0.5,0.6-1.1,0.6-1.8c0-0.6-0.2-1.1-0.6-1.5s-0.9-0.5-1.6-0.5
		s-1.3,0.2-1.8,0.6S280.7,273.7,280.7,274.3z"/>
	<path class="st0" d="M317.3,290.5h-11.6v-20.6h11.6v2.8H309v5.6h7.8v2.8H309v6.5h8.3V290.5z"/>
	<path class="st0" d="M333.3,269.9h3.5l-7.2,20.6H326l-7.2-20.6h3.5l4.3,12.8c0.2,0.6,0.5,1.4,0.7,2.4c0.3,1,0.4,1.7,0.5,2.1
		c0.1-0.7,0.3-1.5,0.6-2.5c0.3-0.9,0.5-1.6,0.6-2.1L333.3,269.9z"/>
	<path class="st0" d="M351,290.5h-11.6v-20.6H351v2.8h-8.3v5.6h7.8v2.8h-7.8v6.5h8.3V290.5z"/>
	<path class="st0" d="M372.4,290.5h-4.1l-10.1-16.4h-0.1l0.1,0.9c0.1,1.7,0.2,3.3,0.2,4.8v10.7h-3.1v-20.6h4.1l10.1,16.3h0.1
		c0-0.2-0.1-1-0.1-2.4c-0.1-1.4-0.1-2.4-0.1-3.2v-10.8h3.1v20.7H372.4z"/>
	<path class="st0" d="M384.8,290.5h-3.4v-17.7h-6v-2.9h15.5v2.9h-6v17.7H384.8z"/>
	<path class="st0" d="M405.7,284.9c0,1.8-0.7,3.3-2,4.3s-3.1,1.6-5.5,1.6c-2.3,0-4.2-0.4-5.7-1.1v-3.2c0.9,0.4,1.9,0.8,3,1
		s2,0.4,2.9,0.4c1.3,0,2.3-0.3,2.9-0.8s0.9-1.2,0.9-2s-0.3-1.4-0.9-2c-0.6-0.5-1.8-1.2-3.6-1.9c-1.9-0.8-3.2-1.6-4-2.6
		s-1.2-2.1-1.2-3.5c0-1.7,0.6-3.1,1.8-4.1c1.2-1,2.9-1.5,4.9-1.5s3.9,0.4,5.9,1.3l-1.1,2.7c-1.8-0.8-3.5-1.2-4.9-1.2
		c-1.1,0-1.9,0.2-2.5,0.7s-0.8,1.1-0.8,1.9c0,0.5,0.1,1,0.3,1.4c0.2,0.4,0.6,0.7,1.1,1.1c0.5,0.3,1.4,0.8,2.8,1.3
		c1.5,0.6,2.6,1.2,3.3,1.8c0.7,0.5,1.2,1.2,1.5,1.8C405.6,283.1,405.7,283.9,405.7,284.9z"/>
</g>
<g>
	<path class="st0" d="M214.9,329.8c-0.3,0.8-0.9,2.1-1.3,2.7c-0.6,0.1-2.5,0.4-4.2,0.4c-6.2,0-8.7-2.9-8.7-5.6
		c0-3.5,3.6-5.8,9.2-5.8c2,0,3.8,0.4,4.4,0.4c0.1,0.8,0.3,2,0.4,2.8l-0.9,0.1c-0.5-1.3-1.2-1.9-2.4-2.3c-0.6-0.2-1.4-0.2-2-0.2
		c-3.3,0-5,2-5,4.7c0,3.1,2.2,5.2,5.3,5.2c1.9,0,3.2-0.7,4.5-2.6L214.9,329.8z"/>
	<path class="st0" d="M226.7,321.5c4.3,0,7.7,2.3,7.7,5.6c0,3.6-3.5,5.8-7.8,5.8c-4.6,0-7.9-2.5-7.9-5.7
		C218.7,324.4,221.5,321.5,226.7,321.5z M226.4,322.3c-2.3,0-4.1,1.7-4.1,4.7c0,2.8,1.5,5.3,4.6,5.3c2.2,0,3.9-1.5,3.9-4.6
		C230.9,324.2,229.1,322.3,226.4,322.3z"/>
	<path class="st0" d="M252.9,332.8c-0.1,0-0.4,0-0.7,0c-2.9-0.1-3.8-0.6-4.5-1.3c-0.9-0.9-1.6-2-2.4-3c-0.3-0.5-0.7-0.6-1.4-0.6
		h-0.5v2.5c0,1.4,0.2,1.5,2,1.6v0.6h-7V332c1.7-0.1,2-0.3,2-1.6V324c0-1.3-0.2-1.5-2-1.6v-0.6h6.7c2,0,3.2,0.2,4.2,0.6
		c0.9,0.5,1.5,1.2,1.5,2.2c0,1.5-1.4,2.3-2.9,2.7c0.3,0.5,1.2,1.6,1.9,2.4c0.8,0.9,1.3,1.4,1.7,1.7c0.5,0.4,0.8,0.6,1.5,0.7
		L252.9,332.8z M244.1,327.3c1,0,1.7-0.1,2.3-0.4c0.8-0.5,1.1-1.1,1.1-2c0-1.8-1.4-2.4-2.7-2.4c-0.6,0-0.9,0.1-1.1,0.2
		c-0.2,0.1-0.2,0.3-0.2,0.6v4L244.1,327.3L244.1,327.3z"/>
	<path class="st0" d="M264.3,332.7v-0.6c1.5-0.2,1.5-0.3,1.1-1.1c-0.2-0.5-0.6-1.3-0.9-1.9H260c-0.3,0.5-0.6,1.2-0.8,1.7
		c-0.5,1.1,0.1,1.2,1.9,1.3v0.6h-5.7v-0.6c1.5-0.1,1.8-0.3,2.6-1.7l4.8-8.7l1.1-0.2c1.5,2.9,3,5.9,4.5,8.7c0.9,1.6,1.1,1.7,2.6,1.8
		v0.6h-6.7V332.7z M262.3,324.6c-0.7,1.2-1.3,2.3-1.9,3.6h3.7L262.3,324.6z"/>
	<path class="st0" d="M286,329.7c-0.2,0.7-0.8,2.5-1,3h-11.4v-0.6c2-0.1,2.2-0.2,2.2-1.6V324c0-1.4-0.2-1.5-2-1.6v-0.6h7.2v0.6
		c-1.8,0.1-2,0.2-2,1.6v6.5c0,0.9,0,1.3,1.3,1.4c0,0,1.1,0,1.2,0c1.3,0,1.7-0.2,2.2-0.7c0.4-0.3,1-1.1,1.5-1.8L286,329.7z"/>
	<path class="st0" d="M311.5,328.1c-1.3,0.2-1.5,0.2-1.5,1.4v1.3c0,0.6,0,1.2,0.1,1.6c-1.4,0.2-3.4,0.6-5.2,0.6
		c-5.4,0-8.8-2.3-8.8-5.7c0-3.8,4.2-5.7,9.1-5.7c2.4,0,3.7,0.4,4.6,0.4c0,0.7,0.3,2,0.4,2.9l-0.9,0.1c-0.5-1.3-1.4-2.2-2.8-2.5
		c-0.5-0.1-1.3-0.2-1.9-0.2c-2.8,0-5,1.6-5,4.7c0,2.8,1.5,5.3,5.2,5.3c0.5,0,1.1-0.1,1.4-0.2c0.3-0.2,0.5-0.4,0.5-1v-1.5
		c0-1.2-0.3-1.3-2.3-1.5v-0.6h6.9v0.6H311.5z"/>
	<path class="st0" d="M323.3,332.7v-0.6c1.5-0.2,1.5-0.3,1.1-1.1c-0.2-0.5-0.6-1.3-0.9-1.9H319c-0.3,0.5-0.6,1.2-0.8,1.7
		c-0.5,1.1,0.1,1.2,1.9,1.3v0.6h-5.7v-0.6c1.5-0.1,1.8-0.3,2.6-1.7l4.8-8.7l1.1-0.2c1.5,2.9,3,5.9,4.5,8.7c0.9,1.6,1.1,1.7,2.6,1.8
		v0.6h-6.7V332.7z M321.3,324.6c-0.7,1.2-1.3,2.3-1.9,3.6h3.7L321.3,324.6z"/>
	<path class="st0" d="M341.7,326.7c2.4,0.3,4.1,1.2,4.1,2.7c0,1.1-0.9,2.1-2.2,2.6c-1.2,0.5-2.7,0.7-4.6,0.7h-6.2v-0.6
		c1.8-0.1,2-0.2,2-1.6V324c0-1.4-0.3-1.6-1.9-1.6v-0.6h7c1.7,0,2.9,0.2,3.8,0.6s1.4,1,1.4,1.9C345,325.6,343.2,326.4,341.7,326.7z
		 M338.8,326.4c2.2,0,3-0.7,3-1.9c0-1.5-1.3-2-2.6-2c-0.6,0-1,0.1-1.1,0.2c-0.2,0.1-0.2,0.4-0.2,0.7v3L338.8,326.4L338.8,326.4z
		 M337.9,330.4c0,1.2,0.6,1.6,1.8,1.6c1.3,0,2.7-0.8,2.7-2.5c0-1.6-1.1-2.3-3.7-2.3h-0.8V330.4z"/>
	<path class="st0" d="M361.6,329.7c-0.2,0.7-0.8,2.5-1,3h-11.4v-0.6c2-0.1,2.2-0.2,2.2-1.6V324c0-1.4-0.2-1.5-2-1.6v-0.6h7.2v0.6
		c-1.8,0.1-2,0.2-2,1.6v6.5c0,0.9,0,1.3,1.3,1.4c0,0,1.1,0,1.2,0c1.3,0,1.7-0.2,2.2-0.7c0.4-0.3,1-1.1,1.5-1.8L361.6,329.7z"/>
	<path class="st0" d="M377.4,329.8c-0.1,0.5-0.8,2.4-1,2.9h-11.9v-0.6c2.1-0.2,2.2-0.2,2.2-1.6V324c0-1.4-0.3-1.5-1.8-1.6v-0.6h7.5
		c2.4,0,3.2,0,3.5,0c0,0.3,0.1,1.7,0.2,2.7l-0.9,0.1c-0.2-0.6-0.6-1.3-1-1.6c-0.4-0.3-0.7-0.4-1.9-0.4h-1.5c-0.9,0-1,0-1,0.6v3.5
		h2.3c1.3,0,1.5-0.3,1.9-1.4h0.9v3.8H374c-0.4-1.2-0.6-1.4-1.9-1.4h-2.2v2.9c0,1.2,0,1.5,1.5,1.5h1.6c1.3,0,1.6-0.1,2.1-0.6
		c0.6-0.5,1-1.1,1.4-1.7H377.4z"/>
	<path class="st0" d="M389.6,324.5c-0.5-1.1-1.1-2.3-3.2-2.3c-1.3,0-2.2,0.7-2.2,1.6s0.9,1.5,2.9,2.2c2.5,0.9,4,1.8,4,3.4
		c0,2-2.3,3.4-5.5,3.4c-1.5,0-2.8-0.3-3.9-0.5c-0.1-0.4-0.5-2.1-0.7-2.9l0.9-0.2c0.5,1.1,1.7,2.9,4,2.9c1.4,0,2.3-0.6,2.3-1.7
		c0-1-0.8-1.5-2.8-2.3c-2.4-0.9-4-1.8-4-3.5c0-1.8,1.9-3.2,5.3-3.2c1.6,0,2.8,0.3,3.3,0.3c0.1,0.6,0.3,1.5,0.4,2.6L389.6,324.5z"/>
</g>
<polygon class="st0" points="224.1,340.3 367.5,340.3 353.1,353.3 237.1,353.1 "/>
<path class="st0" d="M236.9,355h116.5l-0.1,35.4l-3.4,4.1h-32.8c0,0,1.9-22.5-21.8-22.6c-21.9-0.1-21.8,22.6-21.8,22.6h-34.4
	l-2.3-2.9L236.9,355z"/>
<polygon class="st0" points="239.2,396.4 236.9,399 236.9,433.1 239.1,435.5 271.1,435.5 273.3,433.1 273.5,399.1 271,396.3 "/>
<polygon class="st0" points="239.2,437.7 236.9,440.2 236.9,476.8 273.3,476.8 273.5,440.3 271,437.6 "/>
<polygon class="st0" points="319.1,437.7 316.8,440.2 316.8,476.8 353.3,476.8 353.5,440.3 351,437.6 "/>
<polygon class="st0" points="319.1,396.4 316.8,399 316.8,433.1 319,435.5 351.1,435.5 353.2,433.1 353.4,399.1 349.8,396.3 "/>
<polygon class="st0" points="285.5,389.8 296,379.3 305.8,389.1 295.8,399.1 "/>
<g>
	<path class="st0" d="M209.6,488.5c-0.2,0.6-0.6,1.6-0.8,2c-0.4,0.1-1.6,0.3-2.7,0.3c-4,0-5.6-2.2-5.6-4.2c0-2.6,2.3-4.4,5.9-4.4
		c1.3,0,2.4,0.3,2.8,0.3c0.1,0.6,0.2,1.5,0.3,2.1l-0.6,0.1c-0.3-1-0.8-1.5-1.5-1.7c-0.4-0.1-0.9-0.2-1.3-0.2c-2.1,0-3.2,1.5-3.2,3.5
		c0,2.3,1.4,3.9,3.4,3.9c1.2,0,2.1-0.6,2.9-1.9L209.6,488.5z"/>
	<path class="st0" d="M221.6,482.9c-1.1,0.1-1.3,0.2-1.3,1.2v4.8c0,1,0.1,1.1,1.3,1.2v0.5c-1.3,0-3.2,0-4.5,0v-0.5
		c1.2-0.1,1.3-0.2,1.3-1.2v-2.4h-4v2.4c0,1,0.1,1.1,1.2,1.2v0.5c-1.3,0-3.2,0-4.5,0v-0.5c1.1-0.1,1.3-0.2,1.3-1.2v-4.8
		c0-1-0.1-1.2-1.3-1.2v-0.5h4.5v0.5c-1.1,0.1-1.2,0.2-1.2,1.2v1.8h4v-1.8c0-1-0.1-1.1-1.3-1.2v-0.5c1.3,0,3.2,0,4.5,0V482.9z"/>
	<path class="st0" d="M228.5,490.6v-0.5c0.9-0.1,0.9-0.3,0.7-0.8c-0.1-0.4-0.4-0.9-0.6-1.5h-2.9c-0.2,0.4-0.4,0.9-0.5,1.3
		c-0.3,0.8,0,0.9,1.2,1v0.5h-3.6v-0.5c0.9-0.1,1.2-0.2,1.7-1.3l3.1-6.5l0.7-0.1c0.9,2.2,1.9,4.5,2.9,6.6c0.5,1.2,0.7,1.3,1.6,1.4
		v0.5h-4.3V490.6z M227.2,484.6c-0.4,0.9-0.8,1.8-1.2,2.7h2.3L227.2,484.6z"/>
	<path class="st0" d="M241.3,490.6v-0.5c1.1-0.1,1.2-0.2,1.2-1.3v-4.9c-1.1,2.2-2.2,4.6-3.3,6.7h-0.5c-1-2.1-2-4.4-3.1-6.6
		c-0.2,4-0.2,4.8-0.2,5.2c0,0.7,0.3,0.9,1.4,0.9v0.5h-3.7v-0.5c0.8-0.1,1.2-0.2,1.3-1c0.1-0.4,0.1-1.1,0.5-5.3c0-0.6-0.1-0.9-1.3-1
		v-0.5h3.2l2.8,5.6l2.9-5.6h3.1v0.5c-1.2,0.1-1.3,0.2-1.3,1.2l0.1,4.7c0,1.1,0.1,1.2,1.3,1.3v0.5L241.3,490.6L241.3,490.6z"/>
	<path class="st0" d="M252.7,486.1c1.5,0.2,2.6,0.9,2.6,2c0,0.8-0.6,1.6-1.4,2c-0.8,0.4-1.8,0.5-2.9,0.5h-4v-0.5
		c1.1-0.1,1.3-0.2,1.3-1.2v-4.8c0-1.1-0.2-1.2-1.2-1.2v-0.5h4.5c1.1,0,1.8,0.1,2.4,0.4c0.5,0.3,0.9,0.8,0.9,1.4
		C254.8,485.3,253.6,485.9,252.7,486.1z M250.8,485.9c1.4,0,1.9-0.5,1.9-1.5c0-1.1-0.8-1.5-1.6-1.5c-0.4,0-0.6,0.1-0.7,0.2
		c-0.1,0.1-0.1,0.3-0.1,0.5v2.3H250.8z M250.2,488.9c0,0.9,0.4,1.2,1.1,1.2c0.8,0,1.7-0.6,1.7-1.8c0-1.2-0.7-1.8-2.4-1.8h-0.5
		L250.2,488.9L250.2,488.9z"/>
	<path class="st0" d="M264.6,488.5c-0.1,0.3-0.5,1.8-0.6,2.1h-7.6v-0.5c1.3-0.1,1.4-0.2,1.4-1.2v-4.8c0-1.1-0.2-1.2-1.2-1.2v-0.5
		h4.8c1.5,0,2.1,0,2.3,0c0,0.2,0.1,1.3,0.1,2l-0.6,0.1c-0.1-0.4-0.4-0.9-0.6-1.2c-0.3-0.3-0.5-0.3-1.2-0.3h-1c-0.6,0-0.6,0-0.6,0.5
		v2.6h1.4c0.8,0,1-0.2,1.2-1.1h0.6v2.8h-0.6c-0.2-0.9-0.4-1.1-1.2-1.1h-1.4v2.2c0,0.9,0,1.1,0.9,1.1h1c0.8,0,1-0.1,1.4-0.4
		c0.4-0.4,0.7-0.8,0.9-1.3L264.6,488.5z"/>
	<path class="st0" d="M275,490.7c-0.1,0-0.3,0-0.4,0c-1.9-0.1-2.4-0.4-2.9-0.9c-0.6-0.7-1-1.5-1.5-2.2c-0.2-0.3-0.4-0.4-0.9-0.4H269
		v1.8c0,1,0.1,1.1,1.3,1.2v0.5h-4.5v-0.5c1.1-0.1,1.3-0.2,1.3-1.2v-4.8c0-1-0.1-1.1-1.3-1.2v-0.5h4.3c1.3,0,2.1,0.1,2.7,0.5
		c0.6,0.3,1,0.9,1,1.7c0,1.1-0.9,1.7-1.8,2c0.2,0.4,0.8,1.2,1.2,1.8c0.5,0.7,0.8,1,1.1,1.3c0.3,0.3,0.5,0.4,0.9,0.6L275,490.7z
		 M269.4,486.6c0.6,0,1.1-0.1,1.4-0.3c0.5-0.4,0.7-0.8,0.7-1.5c0-1.3-0.9-1.8-1.7-1.8c-0.4,0-0.6,0.1-0.7,0.1
		c-0.1,0.1-0.1,0.2-0.1,0.5v3L269.4,486.6L269.4,486.6z"/>
	<path class="st0" d="M284.1,482.2c2.7,0,4.9,1.7,4.9,4.2c0,2.7-2.2,4.4-5,4.4c-2.9,0-5.1-1.8-5.1-4.3
		C278.9,484.4,280.7,482.2,284.1,482.2z M283.8,482.8c-1.5,0-2.6,1.3-2.6,3.5c0,2.1,1,4,3,4c1.4,0,2.5-1.2,2.5-3.5
		C286.7,484.3,285.5,482.8,283.8,482.8z"/>
	<path class="st0" d="M297.3,484.5c-0.2-0.5-0.4-0.9-0.6-1.2c-0.3-0.3-0.5-0.3-1.2-0.3h-1.1c-0.5,0-0.6,0-0.6,0.5v2.8h1.6
		c0.9,0,1-0.2,1.2-1.1h0.5v2.8h-0.6c-0.2-0.9-0.4-1.1-1.2-1.1h-1.6v2c0,1.2,0.1,1.3,1.4,1.3v0.5h-4.7v-0.5c1.1-0.1,1.3-0.2,1.3-1.3
		v-4.7c0-1.1-0.1-1.2-1.3-1.3v-0.5h5c1.3,0,2,0,2.2,0c0,0.2,0.1,1.3,0.2,2L297.3,484.5z"/>
	<path class="st0" d="M311.6,488.5c-0.2,0.6-0.6,1.6-0.8,2c-0.4,0.1-1.6,0.3-2.7,0.3c-4,0-5.6-2.2-5.6-4.2c0-2.6,2.3-4.4,5.9-4.4
		c1.3,0,2.4,0.3,2.8,0.3c0.1,0.6,0.2,1.5,0.3,2.1l-0.6,0.1c-0.3-1-0.8-1.5-1.5-1.7c-0.4-0.1-0.9-0.2-1.3-0.2c-2.1,0-3.2,1.5-3.2,3.5
		c0,2.3,1.4,3.9,3.4,3.9c1.2,0,2.1-0.6,2.9-1.9L311.6,488.5z"/>
	<path class="st0" d="M318.1,482.2c2.7,0,4.9,1.7,4.9,4.2c0,2.7-2.2,4.4-5,4.4c-2.9,0-5.1-1.8-5.1-4.3
		C313,484.4,314.8,482.2,318.1,482.2z M317.9,482.8c-1.5,0-2.6,1.3-2.6,3.5c0,2.1,1,4,3,4c1.4,0,2.5-1.2,2.5-3.5
		C320.8,484.3,319.6,482.8,317.9,482.8z"/>
	<path class="st0" d="M332.3,490.6v-0.5c1.1-0.1,1.2-0.2,1.2-1.3v-4.9c-1.1,2.2-2.2,4.6-3.3,6.7h-0.5c-1-2.1-2-4.4-3.1-6.6
		c-0.2,4-0.2,4.8-0.2,5.2c0,0.7,0.3,0.9,1.4,0.9v0.5h-3.7v-0.5c0.8-0.1,1.2-0.2,1.3-1c0.1-0.4,0.1-1.1,0.5-5.3c0-0.6-0.1-0.9-1.3-1
		v-0.5h3.2l2.8,5.6l2.9-5.6h3.1v0.5c-1.2,0.1-1.3,0.2-1.3,1.2l0.1,4.7c0,1.1,0.1,1.2,1.3,1.3v0.5L332.3,490.6L332.3,490.6z"/>
	<path class="st0" d="M345.8,490.6v-0.5c1.1-0.1,1.2-0.2,1.2-1.3v-4.9c-1.1,2.2-2.2,4.6-3.3,6.7h-0.5c-1-2.1-2-4.4-3.1-6.6
		c-0.2,4-0.2,4.8-0.2,5.2c0,0.7,0.3,0.9,1.4,0.9v0.5h-3.7v-0.5c0.8-0.1,1.2-0.2,1.3-1c0.1-0.4,0.1-1.1,0.5-5.3c0-0.6-0.1-0.9-1.3-1
		v-0.5h3.2l2.8,5.6l2.9-5.6h3.1v0.5c-1.2,0.1-1.3,0.2-1.3,1.2l0.1,4.7c0,1.1,0.1,1.2,1.3,1.3v0.5L345.8,490.6L345.8,490.6z"/>
	<path class="st0" d="M359.6,488.5c-0.1,0.3-0.5,1.8-0.6,2.1h-7.6v-0.5c1.3-0.1,1.4-0.2,1.4-1.2v-4.8c0-1.1-0.2-1.2-1.2-1.2v-0.5
		h4.8c1.5,0,2.1,0,2.3,0c0,0.2,0.1,1.3,0.1,2l-0.6,0.1c-0.1-0.4-0.4-0.9-0.6-1.2c-0.3-0.3-0.5-0.3-1.2-0.3h-1c-0.6,0-0.6,0-0.6,0.5
		v2.6h1.4c0.8,0,1-0.2,1.2-1.1h0.6v2.8h-0.6c-0.2-0.9-0.4-1.1-1.2-1.1h-1.4v2.2c0,0.9,0,1.1,0.9,1.1h1c0.8,0,1-0.1,1.4-0.4
		c0.4-0.4,0.7-0.8,0.9-1.3L359.6,488.5z"/>
	<path class="st0" d="M369.9,490.7c-0.1,0-0.3,0-0.4,0c-1.9-0.1-2.4-0.4-2.9-0.9c-0.6-0.7-1-1.5-1.5-2.2c-0.2-0.3-0.4-0.4-0.9-0.4
		h-0.3v1.8c0,1,0.1,1.1,1.3,1.2v0.5h-4.5v-0.5c1.1-0.1,1.3-0.2,1.3-1.2v-4.8c0-1-0.1-1.1-1.3-1.2v-0.5h4.3c1.3,0,2.1,0.1,2.7,0.5
		c0.6,0.3,1,0.9,1,1.7c0,1.1-0.9,1.7-1.8,2c0.2,0.4,0.8,1.2,1.2,1.8c0.5,0.7,0.8,1,1.1,1.3c0.3,0.3,0.5,0.4,0.9,0.6L369.9,490.7z
		 M364.3,486.6c0.6,0,1.1-0.1,1.4-0.3c0.5-0.4,0.7-0.8,0.7-1.5c0-1.3-0.9-1.8-1.7-1.8c-0.4,0-0.6,0.1-0.7,0.1
		c-0.1,0.1-0.1,0.2-0.1,0.5v3L364.3,486.6L364.3,486.6z"/>
	<path class="st0" d="M379.8,488.5c-0.2,0.6-0.6,1.6-0.8,2c-0.4,0.1-1.6,0.3-2.7,0.3c-4,0-5.6-2.2-5.6-4.2c0-2.6,2.3-4.4,5.9-4.4
		c1.3,0,2.4,0.3,2.8,0.3c0.1,0.6,0.2,1.5,0.3,2.1l-0.6,0.1c-0.3-1-0.8-1.5-1.5-1.7c-0.4-0.1-0.9-0.2-1.3-0.2c-2.1,0-3.2,1.5-3.2,3.5
		c0,2.3,1.4,3.9,3.4,3.9c1.2,0,2.1-0.6,2.9-1.9L379.8,488.5z"/>
	<path class="st0" d="M389.4,488.5c-0.1,0.3-0.5,1.8-0.6,2.1h-7.6v-0.5c1.3-0.1,1.4-0.2,1.4-1.2v-4.8c0-1.1-0.2-1.2-1.2-1.2v-0.5
		h4.8c1.5,0,2.1,0,2.3,0c0,0.2,0.1,1.3,0.1,2l-0.6,0.1c-0.1-0.4-0.4-0.9-0.6-1.2c-0.3-0.3-0.5-0.3-1.2-0.3h-1c-0.6,0-0.6,0-0.6,0.5
		v2.6h1.4c0.8,0,1-0.2,1.2-1.1h0.6v2.8h-0.6c-0.2-0.9-0.4-1.1-1.2-1.1h-1.4v2.2c0,0.9,0,1.1,0.9,1.1h1c0.8,0,1-0.1,1.4-0.4
		c0.4-0.4,0.7-0.8,0.9-1.3L389.4,488.5z"/>
</g>
<g>
	<path class="st0" d="M203.9,500.1c2.7,0,4.1,1.2,4.1,3.4c0,1.5-0.7,2.9-2,3.7c-1,0.6-2.2,0.8-3.7,0.8h-3.2l0.1-0.4
		c0.9-0.1,1.1-0.2,1.2-1.1l0.9-4.8c0.2-0.9,0.1-1.1-0.9-1.2l0.1-0.4H203.9z M202.1,506.4c-0.2,1.1,0.4,1.2,1,1.2c1.9,0,3-1.9,3-4.1
		c0-1.6-0.6-2.8-2.2-2.8c-0.7,0-0.8,0.1-0.9,0.8L202.1,506.4z"/>
	<path class="st0" d="M209.4,508.3c-0.7,0-1.5-0.4-1.5-1.9c0-1.2,0.5-2.4,1.4-3.1c0.5-0.4,1.3-0.8,2-0.8c0.9,0,1.3,0.5,1.3,1.1
		c0,1.3-1.9,1.8-3.1,2c0,0.1,0,0.4,0,0.5c0,0.6,0.2,1.2,0.9,1.2c0.6,0,1.2-0.4,1.8-1l0.2,0.4C211.4,507.8,210.4,508.3,209.4,508.3z
		 M209.5,505.1c1.3-0.3,1.7-0.8,1.7-1.5c0-0.4-0.2-0.6-0.5-0.6C210.4,503.1,209.8,503.5,209.5,505.1z"/>
	<path class="st0" d="M212.3,503.8c0.6-0.8,1.3-1.3,1.8-1.3s0.7,0.5,0.7,1.5c0.1,1.5,0.1,2.3,0.1,2.7c0.8-0.9,1.5-1.9,1.5-2.6
		c0-0.3-0.2-0.6-0.3-0.8c0-0.1-0.1-0.2,0-0.3c0.1-0.3,0.6-0.6,0.9-0.6c0.4,0,0.6,0.3,0.6,0.8c0,0.4-0.2,1-0.8,1.8
		c-0.7,1-2.1,2.4-2.7,3.1h-0.5c-0.1-0.7-0.1-2.4-0.3-3.9c-0.1-0.5-0.1-0.7-0.2-0.7c-0.1,0-0.4,0.2-0.7,0.5L212.3,503.8z"/>
	<path class="st0" d="M218.9,508.3c-0.7,0-1.5-0.4-1.5-1.9c0-1.2,0.5-2.4,1.4-3.1c0.5-0.4,1.3-0.8,2-0.8c0.9,0,1.3,0.5,1.3,1.1
		c0,1.3-1.9,1.8-3.1,2c0,0.1,0,0.4,0,0.5c0,0.6,0.2,1.2,0.9,1.2c0.6,0,1.2-0.4,1.8-1l0.2,0.4C220.9,507.8,219.8,508.3,218.9,508.3z
		 M219,505.1c1.3-0.3,1.7-0.8,1.7-1.5c0-0.4-0.2-0.6-0.5-0.6C219.9,503.1,219.2,503.5,219,505.1z"/>
	<path class="st0" d="M224.4,506.9c-0.8,0.9-1.6,1.3-2.1,1.3c-0.4,0-0.7-0.3-0.4-1.4c0.3-1.7,0.8-4,1.2-5.8c0.1-0.5,0-0.6-0.4-0.6
		c-0.1,0-0.3,0-0.4,0l0.1-0.4c0.8-0.1,1.4-0.2,1.8-0.3c0.2-0.1,0.3-0.1,0.4-0.1c0.1,0,0.2,0.1,0.1,0.4c-0.5,2.2-1.1,5.2-1.4,6.7
		c-0.1,0.3-0.1,0.4,0,0.4s0.4-0.2,0.8-0.5L224.4,506.9z"/>
	<path class="st0" d="M229.5,504.5c0,1.3-0.6,2.6-1.8,3.3c-0.5,0.3-1.1,0.5-1.7,0.5c-1.5,0-1.9-1.1-1.9-2c0-1.7,1-3,2.3-3.5
		c0.4-0.2,0.9-0.2,1.2-0.2C228.9,502.5,229.5,503.3,229.5,504.5z M225.8,506.3c0,0.9,0.3,1.4,0.8,1.4c0.8,0,1.4-1.8,1.4-3.3
		c0-1-0.3-1.4-0.7-1.4C226.1,503,225.8,505.4,225.8,506.3z"/>
	<path class="st0" d="M232.1,502.6c0.4-0.1,0.7-0.1,1.1-0.1c1.3,0,1.9,0.7,1.9,1.8c0,0.8-0.3,1.8-1.1,2.6c-0.6,0.7-1.5,1.2-2.4,1.4
		c-0.2,0-0.4,0-0.7-0.1l-0.3,1.5c-0.1,0.6-0.1,0.7,0.6,0.8h0.3l-0.1,0.4L228,511l0.1-0.4c0.8-0.1,0.9-0.2,1.1-1c0.4-2,0.8-4,1.2-5.9
		c-0.4,0.1-0.7,0.3-0.9,0.4l-0.1-0.4c0.4-0.2,0.8-0.4,1.2-0.6l0.1-0.5c0.3-0.3,1-0.7,1.5-0.9l0.1,0.1L232.1,502.6z M231.2,507.3
		c0.1,0.2,0.4,0.4,0.6,0.4c0.7,0,1.7-1.7,1.7-3.2c0-1-0.5-1.2-1-1.2c-0.2,0-0.3,0-0.5,0.1C231.7,504.5,231.4,506.1,231.2,507.3z"/>
	<path class="st0" d="M237.7,506.9c-0.8,0.9-1.6,1.4-2.1,1.4c-0.4,0-0.6-0.4-0.4-1.2c0.2-1,0.5-2,0.7-2.9c0.1-0.4,0.1-0.5,0-0.5
		s-0.4,0.2-0.7,0.4l-0.2-0.4c0.8-0.8,1.7-1.2,2.1-1.2c0.4,0,0.5,0.4,0.2,1.5c-0.2,0.8-0.5,1.8-0.6,2.6c-0.1,0.3-0.1,0.5,0,0.5
		s0.4-0.2,0.8-0.6L237.7,506.9z M237.9,500.8c0,0.5-0.4,1-0.9,1c-0.4,0-0.7-0.3-0.7-0.8c0-0.4,0.3-0.9,1-0.9
		C237.7,500,237.9,500.4,237.9,500.8z"/>
	<path class="st0" d="M243.6,506.9c-0.8,1-1.6,1.4-2.1,1.4c-0.4,0-0.6-0.3-0.4-1.4c0.1-0.8,0.4-1.7,0.6-2.5c0.2-0.6,0-0.8-0.1-0.8
		c-0.3,0-1.1,0.7-1.6,1.6c-0.3,0.4-0.3,0.7-0.4,1.2c-0.1,0.5-0.3,1.1-0.4,1.6c-0.5,0-1,0.2-1.4,0.3l-0.1-0.1c0.3-1.3,0.6-2.6,0.9-4
		c0.1-0.4,0.1-0.5,0-0.5s-0.5,0.2-0.7,0.5l-0.2-0.4c0.8-0.9,1.5-1.2,1.9-1.2c0.5,0,0.7,0.5,0.4,1.7l-0.1,0.4c0.7-1,1.9-2.1,2.8-2.1
		c0.5,0,0.9,0.2,0.5,1.9c-0.2,0.7-0.4,1.6-0.5,2.2c-0.1,0.3-0.1,0.5,0,0.5s0.4-0.1,0.8-0.6L243.6,506.9z"/>
	<path class="st0" d="M245.2,506.6c0,0.1-0.1,0.1-0.1,0.2c0,0.2,0.2,0.3,0.8,0.6c1.4,0.7,1.9,1.1,1.9,1.7c0,1.1-1.9,2-3.2,2
		s-2.3-0.6-2.3-1.4c0-0.6,1-1.2,2-1.6c-0.2-0.2-0.4-0.4-0.4-0.6c0-0.3,0.4-0.7,1-0.9L245.2,506.6z M243.5,505.1
		c0-0.9,0.5-1.7,1.3-2.2c0.4-0.2,1-0.4,1.5-0.4s0.9,0.1,1.2,0.3c0.7,0,1.2-0.2,1.4-0.3l0.1,0.3c-0.4,0.6-0.8,0.7-1.2,0.7
		c0,0.2,0.1,0.3,0.1,0.5c0,0.8-0.5,1.4-0.9,1.8c-0.6,0.5-1.6,0.8-2.2,0.8C244.1,506.6,243.5,506,243.5,505.1z M246.5,509.7
		c0-0.3-0.2-0.5-0.5-0.7c-0.4-0.2-0.9-0.5-1.4-0.7c-0.8,0.5-0.9,0.9-0.9,1.2c0,0.5,0.7,1,1.6,1C246,510.5,246.5,510.1,246.5,509.7z
		 M246.6,503.9c0-0.5-0.1-0.9-0.5-0.9c-0.6,0-1.1,1.3-1.1,2.2c0,0.5,0.2,0.8,0.5,0.8C246.1,506.1,246.6,505,246.6,503.9z"/>
	<path class="st0" d="M254.1,500.1c1.7,0,2.6,0.6,2.6,1.7s-1,1.7-2.1,1.9c1,0.2,1.9,0.8,1.9,1.9c0,1.7-1.6,2.5-3.8,2.5h-3.4l0.1-0.4
		c0.9-0.1,1.1-0.2,1.3-1.2l0.9-4.8c0.2-1,0.1-1.1-0.9-1.2l0.1-0.4H254.1z M252.3,506.5c-0.2,0.9,0.3,1.1,0.8,1.1c1,0,1.7-0.7,1.7-2
		c0-1.1-0.8-1.5-1.7-1.5h-0.4L252.3,506.5z M253.2,503.6c1.4,0,1.9-0.7,1.9-1.7c0-0.9-0.5-1.2-1.1-1.2c-0.4,0-0.5,0-0.6,0.7
		l-0.4,2.2H253.2z"/>
	<path class="st0" d="M262.4,506.9c-0.7,1-1.6,1.4-2.1,1.4c-0.4,0-0.6-0.4-0.4-1.3c0-0.2,0.1-0.4,0.1-0.6c-0.4,0.6-0.8,1-1.3,1.4
		c-0.2,0.2-0.7,0.5-1.2,0.5s-1-0.3-0.6-1.8c0.2-0.7,0.4-1.5,0.6-2.4c0.1-0.3,0.1-0.4,0-0.4s-0.5,0.3-0.8,0.5l-0.2-0.4
		c0.7-0.8,1.7-1.3,2.1-1.3s0.6,0.3,0.3,1.5c-0.2,0.7-0.4,1.5-0.6,2.4c-0.1,0.6,0,0.8,0.1,0.8c0.3,0,0.9-0.5,1.3-1.1
		c0.3-0.4,0.5-0.8,0.7-1.5c0.1-0.4,0.2-1,0.4-1.6c0.4-0.1,0.9-0.2,1.4-0.3h0.2c-0.3,1.2-0.7,3-0.9,4.1c0,0.3,0,0.5,0,0.5
		c0.1,0,0.3-0.1,0.7-0.5L262.4,506.9z"/>
	<path class="st0" d="M266.2,503.3c0,0.3-0.2,0.6-0.5,0.7c-0.2,0.1-0.2,0.1-0.4-0.1c-0.4-0.4-0.7-0.7-1-0.7c-0.4,0-0.5,0.3-0.5,0.5
		c0,0.3,0.4,0.6,0.8,0.9c0.7,0.5,1.2,0.9,1.2,1.5c0,1.1-1.7,2.1-2.5,2.1c-0.7,0-1.4-0.4-1.4-1c0-0.3,0.3-0.7,0.6-0.8
		c0.1,0,0.2,0,0.3,0.1c0.4,0.5,0.9,0.9,1.4,0.9c0.3,0,0.5-0.2,0.5-0.5s-0.1-0.5-0.7-0.9s-1.3-0.8-1.3-1.6c0-0.5,0.2-0.9,0.8-1.4
		c0.5-0.4,1.1-0.6,1.6-0.6C265.7,502.5,266.2,502.9,266.2,503.3z"/>
	<path class="st0" d="M268.6,506.9c-0.8,0.9-1.6,1.4-2.1,1.4c-0.4,0-0.6-0.4-0.4-1.2c0.2-1,0.5-2,0.7-2.9c0.1-0.4,0.1-0.5,0-0.5
		s-0.4,0.2-0.7,0.4l-0.2-0.4c0.8-0.8,1.7-1.2,2.1-1.2s0.5,0.4,0.2,1.5c-0.2,0.8-0.5,1.8-0.6,2.6c-0.1,0.3-0.1,0.5,0,0.5
		s0.4-0.2,0.8-0.6L268.6,506.9z M268.8,500.8c0,0.5-0.4,1-0.9,1c-0.4,0-0.7-0.3-0.7-0.8c0-0.4,0.3-0.9,1-0.9
		C268.6,500,268.8,500.4,268.8,500.8z"/>
	<path class="st0" d="M274.5,506.9c-0.8,1-1.6,1.4-2.1,1.4c-0.4,0-0.6-0.3-0.4-1.4c0.1-0.8,0.4-1.7,0.6-2.5c0.2-0.6,0-0.8-0.1-0.8
		c-0.3,0-1.1,0.7-1.6,1.6c-0.3,0.4-0.3,0.7-0.4,1.2s-0.3,1.1-0.4,1.6c-0.5,0-1,0.2-1.4,0.3l-0.1-0.1c0.3-1.3,0.6-2.6,0.9-4
		c0.1-0.4,0.1-0.5,0-0.5s-0.5,0.2-0.7,0.5l-0.2-0.4c0.8-0.9,1.5-1.2,1.9-1.2c0.5,0,0.7,0.5,0.4,1.7l-0.1,0.4c0.7-1,1.9-2.1,2.8-2.1
		c0.5,0,0.9,0.2,0.5,1.9c-0.2,0.7-0.4,1.6-0.5,2.2c-0.1,0.3-0.1,0.5,0,0.5s0.4-0.1,0.8-0.6L274.5,506.9z"/>
	<path class="st0" d="M275.8,508.3c-0.7,0-1.5-0.4-1.5-1.9c0-1.2,0.5-2.4,1.4-3.1c0.5-0.4,1.3-0.8,2-0.8c0.9,0,1.3,0.5,1.3,1.1
		c0,1.3-1.9,1.8-3.1,2c0,0.1,0,0.4,0,0.5c0,0.6,0.2,1.2,0.9,1.2c0.6,0,1.2-0.4,1.8-1l0.2,0.4C277.8,507.8,276.8,508.3,275.8,508.3z
		 M275.9,505.1c1.3-0.3,1.7-0.8,1.7-1.5c0-0.4-0.2-0.6-0.5-0.6C276.8,503.1,276.2,503.5,275.9,505.1z"/>
	<path class="st0" d="M282.5,503.3c0,0.3-0.2,0.6-0.5,0.7c-0.2,0.1-0.2,0.1-0.4-0.1c-0.4-0.4-0.7-0.7-1-0.7c-0.4,0-0.5,0.3-0.5,0.5
		c0,0.3,0.4,0.6,0.8,0.9c0.7,0.5,1.2,0.9,1.2,1.5c0,1.1-1.7,2.1-2.5,2.1c-0.7,0-1.4-0.4-1.4-1c0-0.3,0.3-0.7,0.6-0.8
		c0.1,0,0.2,0,0.3,0.1c0.4,0.5,0.9,0.9,1.4,0.9c0.3,0,0.5-0.2,0.5-0.5s-0.1-0.5-0.7-0.9s-1.3-0.8-1.3-1.6c0-0.5,0.2-0.9,0.8-1.4
		c0.5-0.4,1.1-0.6,1.6-0.6C282,502.5,282.5,502.9,282.5,503.3z"/>
	<path class="st0" d="M286.1,503.3c0,0.3-0.2,0.6-0.5,0.7c-0.2,0.1-0.2,0.1-0.4-0.1c-0.4-0.4-0.7-0.7-1-0.7c-0.4,0-0.5,0.3-0.5,0.5
		c0,0.3,0.4,0.6,0.8,0.9c0.7,0.5,1.2,0.9,1.2,1.5c0,1.1-1.7,2.1-2.5,2.1c-0.7,0-1.4-0.4-1.4-1c0-0.3,0.3-0.7,0.6-0.8
		c0.1,0,0.2,0,0.3,0.1c0.4,0.5,0.9,0.9,1.4,0.9c0.3,0,0.5-0.2,0.5-0.5s-0.1-0.5-0.7-0.9s-1.3-0.8-1.3-1.6c0-0.5,0.2-0.9,0.8-1.4
		c0.5-0.4,1.1-0.6,1.6-0.6C285.6,502.5,286.1,502.9,286.1,503.3z"/>
	<path class="st0" d="M300.8,500.1c1.7,0,2.6,0.6,2.6,1.7s-1,1.7-2.1,1.9c1,0.2,1.9,0.8,1.9,1.9c0,1.7-1.6,2.5-3.8,2.5H296l0.1-0.4
		c0.9-0.1,1.1-0.2,1.3-1.2l0.9-4.8c0.2-1,0.1-1.1-0.9-1.2l0.1-0.4H300.8z M299,506.5c-0.2,0.9,0.3,1.1,0.8,1.1c1,0,1.7-0.7,1.7-2
		c0-1.1-0.8-1.5-1.7-1.5h-0.4L299,506.5z M299.9,503.6c1.4,0,1.9-0.7,1.9-1.7c0-0.9-0.5-1.2-1.1-1.2c-0.4,0-0.5,0-0.6,0.7l-0.4,2.2
		H299.9z"/>
	<path class="st0" d="M309.1,506.9c-0.7,1-1.6,1.4-2.1,1.4c-0.4,0-0.6-0.4-0.4-1.3c0-0.2,0.1-0.4,0.1-0.6c-0.4,0.6-0.8,1-1.3,1.4
		c-0.2,0.2-0.7,0.5-1.2,0.5s-1-0.3-0.6-1.8c0.2-0.7,0.4-1.5,0.6-2.4c0.1-0.3,0.1-0.4,0-0.4s-0.5,0.3-0.8,0.5l-0.2-0.4
		c0.7-0.8,1.7-1.3,2.1-1.3s0.6,0.3,0.3,1.5c-0.2,0.7-0.4,1.5-0.6,2.4c-0.1,0.6,0,0.8,0.1,0.8c0.3,0,0.9-0.5,1.3-1.1
		c0.3-0.4,0.5-0.8,0.7-1.5c0.1-0.4,0.2-1,0.4-1.6c0.4-0.1,0.9-0.2,1.4-0.3h0.2c-0.3,1.2-0.7,3-0.9,4.1c0,0.3,0,0.5,0,0.5
		c0.1,0,0.3-0.1,0.7-0.5L309.1,506.9z"/>
	<path class="st0" d="M311.7,506.9c-0.8,0.9-1.6,1.4-2.1,1.4c-0.4,0-0.6-0.4-0.4-1.2c0.2-1,0.5-2,0.7-2.9c0.1-0.4,0.1-0.5,0-0.5
		s-0.4,0.2-0.7,0.4l-0.2-0.4c0.8-0.8,1.7-1.2,2.1-1.2s0.5,0.4,0.2,1.5c-0.2,0.8-0.5,1.8-0.6,2.6c-0.1,0.3-0.1,0.5,0,0.5
		s0.4-0.2,0.8-0.6L311.7,506.9z M311.9,500.8c0,0.5-0.4,1-0.9,1c-0.4,0-0.7-0.3-0.7-0.8c0-0.4,0.3-0.9,1-0.9
		C311.7,500,311.9,500.4,311.9,500.8z"/>
	<path class="st0" d="M314.4,506.9c-0.8,0.9-1.6,1.3-2.1,1.3c-0.4,0-0.7-0.3-0.4-1.4c0.3-1.7,0.8-4,1.2-5.8c0.1-0.5,0-0.6-0.4-0.6
		c-0.1,0-0.3,0-0.4,0l0.1-0.4c0.8-0.1,1.4-0.2,1.8-0.3c0.2-0.1,0.3-0.1,0.4-0.1s0.2,0.1,0.1,0.4c-0.5,2.2-1.1,5.2-1.4,6.7
		c-0.1,0.3-0.1,0.4,0,0.4s0.4-0.2,0.8-0.5L314.4,506.9z"/>
	<path class="st0" d="M320.2,506.9c-0.8,1-1.6,1.4-2,1.4c-0.5,0-0.7-0.4-0.4-1.5l0.1-0.4c-0.7,0.9-1.8,2-2.6,2c-0.6,0-1-0.6-1-1.6
		c0-1.3,0.5-2.5,1.4-3.2c0.6-0.5,1.7-1,2.4-1c0.1,0,0.4,0,0.6,0.1l0.3-1.5c0.1-0.6,0-0.6-0.5-0.7c-0.1,0-0.3,0-0.3,0l0.1-0.4
		c0.8-0.1,1.5-0.2,1.9-0.3c0.2,0,0.4-0.1,0.5-0.1c0.2,0,0.2,0.1,0.1,0.4c-0.5,2.2-1.2,5.3-1.4,6.7c-0.1,0.3,0,0.5,0,0.5
		c0.1,0,0.4-0.2,0.8-0.6V506.9z M317.6,505.8c0.2-0.3,0.3-0.6,0.5-1.2l0.2-1.1c-0.2-0.3-0.6-0.4-1-0.4c-1.1,0-1.6,1.8-1.6,3.3
		c0,0.5,0.1,0.7,0.4,0.7C316.6,507.1,317.2,506.5,317.6,505.8z"/>
	<path class="st0" d="M322.7,506.9c-0.8,0.9-1.6,1.4-2.1,1.4c-0.4,0-0.6-0.4-0.4-1.2c0.2-1,0.5-2,0.7-2.9c0.1-0.4,0.1-0.5,0-0.5
		s-0.4,0.2-0.7,0.4l-0.2-0.4c0.8-0.8,1.7-1.2,2.1-1.2s0.5,0.4,0.2,1.5c-0.2,0.8-0.5,1.8-0.6,2.6c-0.1,0.3-0.1,0.5,0,0.5
		s0.4-0.2,0.8-0.6L322.7,506.9z M323,500.8c0,0.5-0.4,1-0.9,1c-0.4,0-0.7-0.3-0.7-0.8c0-0.4,0.3-0.9,1-0.9
		C322.7,500,323,500.4,323,500.8z"/>
	<path class="st0" d="M328.6,506.9c-0.8,1-1.6,1.4-2.1,1.4c-0.4,0-0.6-0.3-0.4-1.4c0.1-0.8,0.4-1.7,0.6-2.5c0.2-0.6,0-0.8-0.1-0.8
		c-0.3,0-1.1,0.7-1.6,1.6c-0.3,0.4-0.3,0.7-0.4,1.2s-0.3,1.1-0.4,1.6c-0.5,0-1,0.2-1.4,0.3l-0.1-0.1c0.3-1.3,0.6-2.6,0.9-4
		c0.1-0.4,0.1-0.5,0-0.5s-0.5,0.2-0.7,0.5l-0.2-0.4c0.8-0.9,1.5-1.2,1.9-1.2c0.5,0,0.7,0.5,0.4,1.7l-0.1,0.4c0.7-1,1.9-2.1,2.8-2.1
		c0.5,0,0.9,0.2,0.5,1.9c-0.2,0.7-0.4,1.6-0.5,2.2c-0.1,0.3-0.1,0.5,0,0.5s0.4-0.1,0.8-0.6L328.6,506.9z"/>
	<path class="st0" d="M330.2,506.6c0,0.1-0.1,0.1-0.1,0.2c0,0.2,0.2,0.3,0.8,0.6c1.4,0.7,1.9,1.1,1.9,1.7c0,1.1-1.9,2-3.2,2
		c-1.3,0-2.3-0.6-2.3-1.4c0-0.6,1-1.2,2-1.6c-0.2-0.2-0.4-0.4-0.4-0.6c0-0.3,0.4-0.7,1-0.9L330.2,506.6z M328.5,505.1
		c0-0.9,0.5-1.7,1.3-2.2c0.4-0.2,1-0.4,1.5-0.4s0.9,0.1,1.2,0.3c0.7,0,1.2-0.2,1.4-0.3l0.1,0.3c-0.4,0.6-0.8,0.7-1.2,0.7
		c0,0.2,0.1,0.3,0.1,0.5c0,0.8-0.5,1.4-0.9,1.8c-0.6,0.5-1.6,0.8-2.2,0.8C329.1,506.6,328.5,506,328.5,505.1z M331.5,509.7
		c0-0.3-0.2-0.5-0.5-0.7c-0.4-0.2-0.9-0.5-1.4-0.7c-0.8,0.5-0.9,0.9-0.9,1.2c0,0.5,0.7,1,1.6,1C331,510.5,331.5,510.1,331.5,509.7z
		 M331.6,503.9c0-0.5-0.1-0.9-0.5-0.9c-0.6,0-1.1,1.3-1.1,2.2c0,0.5,0.2,0.8,0.5,0.8C331.1,506.1,331.6,505,331.6,503.9z"/>
	<path class="st0" d="M342,506.1c-0.2,0.6-0.7,1.7-0.9,2c-0.4,0.1-1.1,0.3-2,0.3c-2.2,0-3.9-1.3-3.9-3.5c0-3,2.4-4.8,5.1-4.8
		c1.1,0,1.8,0.2,2.3,0.3c-0.1,0.5-0.2,1.4-0.3,2.1c-0.1,0-0.3,0-0.4,0c-0.1-1.4-0.6-1.9-1.7-1.9c-1.7,0-3.2,1.8-3.2,4.3
		c0,1.9,0.9,2.9,2.1,2.9c0.9,0,1.6-0.5,2.5-1.8L342,506.1z"/>
	<path class="st0" d="M347.3,504.5c0,1.3-0.6,2.6-1.8,3.3c-0.5,0.3-1.1,0.5-1.7,0.5c-1.5,0-1.9-1.1-1.9-2c0-1.7,1-3,2.3-3.5
		c0.4-0.2,0.9-0.2,1.2-0.2C346.7,502.5,347.3,503.3,347.3,504.5z M343.6,506.3c0,0.9,0.3,1.4,0.8,1.4c0.8,0,1.4-1.8,1.4-3.3
		c0-1-0.3-1.4-0.7-1.4C343.9,503,343.6,505.4,343.6,506.3z"/>
	<path class="st0" d="M355.4,502.5c0.5,0,0.9,0.2,0.5,1.9c-0.1,0.7-0.4,1.6-0.5,2.2c-0.1,0.3-0.1,0.4,0,0.4s0.5-0.2,0.8-0.6l0.2,0.4
		c-0.8,0.9-1.7,1.4-2.1,1.4s-0.7-0.3-0.4-1.6c0.2-0.9,0.4-1.5,0.5-2.3c0.1-0.6,0.1-0.8-0.1-0.8c-0.3,0-1.1,0.7-1.6,1.6
		c-0.3,0.4-0.3,0.7-0.4,1.2s-0.2,1.1-0.3,1.6c-0.5,0-1,0.2-1.4,0.3l-0.1-0.1c0.3-1.2,0.6-2.4,0.9-3.8c0.1-0.4,0.1-0.7-0.1-0.7
		c-0.4,0-1.1,0.7-1.6,1.6c-0.3,0.4-0.3,0.8-0.4,1.2c-0.1,0.5-0.2,1.1-0.3,1.6c-0.5,0-1,0.2-1.4,0.3l-0.1-0.1c0.3-1.3,0.6-2.6,0.9-4
		c0.1-0.4,0.1-0.5,0-0.5s-0.5,0.3-0.7,0.5l-0.2-0.4c0.8-0.8,1.4-1.3,2-1.3c0.4,0,0.7,0.5,0.4,1.7l-0.1,0.4c0.8-1.1,1.8-2.1,2.7-2.1
		c0.4,0,0.8,0.2,0.5,1.8l-0.1,0.3C353.4,503.5,354.6,502.5,355.4,502.5z"/>
	<path class="st0" d="M364.4,502.5c0.5,0,0.9,0.2,0.5,1.9c-0.1,0.7-0.4,1.6-0.5,2.2c-0.1,0.3-0.1,0.4,0,0.4s0.5-0.2,0.8-0.6l0.2,0.4
		c-0.8,0.9-1.7,1.4-2.1,1.4s-0.7-0.3-0.4-1.6c0.2-0.9,0.4-1.5,0.5-2.3c0.1-0.6,0.1-0.8-0.1-0.8c-0.3,0-1.1,0.7-1.6,1.6
		c-0.3,0.4-0.3,0.7-0.4,1.2s-0.2,1.1-0.3,1.6c-0.5,0-1,0.2-1.4,0.3l-0.1-0.1c0.3-1.2,0.6-2.4,0.9-3.8c0.1-0.4,0.1-0.7-0.1-0.7
		c-0.4,0-1.1,0.7-1.6,1.6c-0.3,0.4-0.3,0.8-0.4,1.2c-0.1,0.5-0.2,1.1-0.3,1.6c-0.5,0-1,0.2-1.4,0.3l-0.1-0.1c0.3-1.3,0.6-2.6,0.9-4
		c0.1-0.4,0.1-0.5,0-0.5s-0.5,0.3-0.7,0.5l-0.2-0.4c0.8-0.8,1.4-1.3,2-1.3c0.4,0,0.7,0.5,0.4,1.7l-0.1,0.4c0.8-1.1,1.8-2.1,2.7-2.1
		c0.4,0,0.8,0.2,0.5,1.8l-0.1,0.3C362.5,503.5,363.6,502.5,364.4,502.5z"/>
	<path class="st0" d="M371.2,506.9c-0.7,1-1.6,1.4-2.1,1.4c-0.4,0-0.6-0.4-0.4-1.3c0-0.2,0.1-0.4,0.1-0.6c-0.4,0.6-0.8,1-1.3,1.4
		c-0.2,0.2-0.7,0.5-1.2,0.5s-1-0.3-0.6-1.8c0.2-0.7,0.4-1.5,0.6-2.4c0.1-0.3,0.1-0.4,0-0.4s-0.5,0.3-0.8,0.5l-0.2-0.4
		c0.7-0.8,1.7-1.3,2.1-1.3s0.6,0.3,0.3,1.5c-0.2,0.7-0.4,1.5-0.6,2.4c-0.1,0.6,0,0.8,0.1,0.8c0.3,0,0.9-0.5,1.3-1.1
		c0.3-0.4,0.5-0.8,0.7-1.5c0.1-0.4,0.2-1,0.4-1.6c0.4-0.1,0.9-0.2,1.4-0.3h0.2c-0.3,1.2-0.7,3-0.9,4.1c0,0.3,0,0.5,0,0.5
		c0.1,0,0.3-0.1,0.7-0.5L371.2,506.9z"/>
	<path class="st0" d="M377.1,506.9c-0.8,1-1.6,1.4-2.1,1.4c-0.4,0-0.6-0.3-0.4-1.4c0.1-0.8,0.4-1.7,0.6-2.5c0.2-0.6,0-0.8-0.1-0.8
		c-0.3,0-1.1,0.7-1.6,1.6c-0.3,0.4-0.3,0.7-0.4,1.2s-0.3,1.1-0.4,1.6c-0.5,0-1,0.2-1.4,0.3l-0.1-0.1c0.3-1.3,0.6-2.6,0.9-4
		c0.1-0.4,0.1-0.5,0-0.5s-0.5,0.2-0.7,0.5l-0.2-0.4c0.8-0.9,1.5-1.2,1.9-1.2c0.5,0,0.7,0.5,0.4,1.7l-0.1,0.4c0.7-1,1.9-2.1,2.8-2.1
		c0.5,0,0.9,0.2,0.5,1.9c-0.2,0.7-0.4,1.6-0.5,2.2c-0.1,0.3-0.1,0.5,0,0.5s0.4-0.1,0.8-0.6L377.1,506.9z"/>
	<path class="st0" d="M379.7,506.9c-0.8,0.9-1.6,1.4-2.1,1.4c-0.4,0-0.6-0.4-0.4-1.2c0.2-1,0.5-2,0.7-2.9c0.1-0.4,0.1-0.5,0-0.5
		s-0.4,0.2-0.7,0.4l-0.2-0.4c0.8-0.8,1.7-1.2,2.1-1.2s0.5,0.4,0.2,1.5c-0.2,0.8-0.5,1.8-0.6,2.6c-0.1,0.3-0.1,0.5,0,0.5
		s0.4-0.2,0.8-0.6L379.7,506.9z M379.9,500.8c0,0.5-0.4,1-0.9,1c-0.4,0-0.7-0.3-0.7-0.8c0-0.4,0.3-0.9,1-0.9
		C379.7,500,379.9,500.4,379.9,500.8z"/>
	<path class="st0" d="M383.2,503.2c-0.2,0-0.8,0.1-1.2,0.1c-0.6,2.8-0.6,2.6-0.7,3.3c-0.1,0.5,0,0.6,0.1,0.6c0.2,0,0.6-0.3,1-0.7
		l0.2,0.4c-0.5,0.7-1.4,1.4-2.2,1.4c-0.6,0-0.8-0.4-0.5-1.8l0.7-3.2h-1v-0.1l0.4-0.5h0.7l0.3-1.3c0.4-0.2,1.1-0.6,1.5-0.8l0.2,0.1
		c-0.1,0.4-0.4,1.4-0.5,2h1.3L383.2,503.2z"/>
	<path class="st0" d="M382.6,503.8c0.5-0.7,1.3-1.3,1.9-1.3c0.5,0,0.7,0.7,0.8,1.8c0.1,1,0.1,2.1,0.2,2.8c0.7-1,1.4-2.1,1.4-2.9
		c0-0.3-0.1-0.6-0.2-0.8c-0.1-0.2,0-0.3,0-0.4c0.3-0.3,0.6-0.4,0.8-0.4c0.3,0,0.5,0.2,0.6,0.8c0,0.4-0.1,0.9-0.5,1.5
		c-1,1.8-2.7,4-4.3,5.9l-1.6,0.4l-0.1-0.3c0.7-0.4,1.9-1.3,2.6-2.2c0-0.8-0.2-2.7-0.3-3.9c-0.1-0.8-0.2-1-0.3-1
		c-0.1,0-0.3,0.2-0.7,0.6L382.6,503.8z"/>
</g>
<polygon class="st0" points="287.3,504.4 291.4,500.4 295.5,504.3 291.2,508.3 "/>
<rect x="201.2" y="493.4" class="st0" width="187" height="1.9"/>
<g>
	<path class="st0" d="M374.5,541.9c-19.3-1.9-35.2-0.5-45.8-0.4c-7.8,0.1-23.7-0.3-23.7-0.3s-28.9-1.3-42.6-1.5s-36.2,0.3-52,3.5
		c-10,2-22.6,6.9-22.6,6.9l12.7,28.8c0,0,18.4-7.5,45-7.4c32.7,0.1,38.2,1.2,56.7,1.4c18.4,0.3,47.7-0.8,47.7-0.8s18.5-0.4,27.5,1.8
		s11.1,4.1,11.1,4.1l14.5-27.6C402.8,550.4,393.8,543.9,374.5,541.9z M238.3,560.8c-0.6,0.9-1.4,1.6-2.4,2c-1,0.5-2.4,0.7-4,0.7
		c-2.8,0-4.7-0.5-5.8-1.6s-1.7-2.4-1.8-4.1l4.8-0.3c0.1,0.8,0.3,1.4,0.6,1.8c0.5,0.7,1.3,1,2.2,1c0.7,0,1.3-0.2,1.7-0.5
		s0.6-0.7,0.6-1.2c0-0.4-0.2-0.8-0.6-1.1c-0.4-0.3-1.2-0.7-2.6-1c-2.2-0.5-3.8-1.2-4.8-2s-1.4-1.9-1.4-3.2c0-0.8,0.2-1.6,0.7-2.4
		c0.5-0.8,1.2-1.3,2.2-1.8c1-0.4,2.3-0.6,4-0.6c2.1,0,3.7,0.4,4.8,1.2s1.8,2,2,3.7l-4.8,0.3c-0.1-0.7-0.4-1.3-0.8-1.6
		c-0.4-0.3-1-0.5-1.7-0.5c-0.6,0-1,0.1-1.3,0.4c-0.3,0.3-0.4,0.6-0.4,0.9c0,0.3,0.1,0.5,0.4,0.7c0.2,0.2,0.8,0.4,1.7,0.6
		c2.2,0.5,3.8,1,4.8,1.5s1.7,1.1,2.1,1.8c0.4,0.7,0.7,1.5,0.7,2.4C239.2,558.9,238.9,559.9,238.3,560.8z M245.9,563.2h-5.1v-16.5
		h5.1V563.2z M264.2,563.2h-4.8l-6.2-9v9h-4.8v-16.5h4.7l6.2,9.1v-9.1h4.8v16.5H264.2z M280.4,561c-0.6,0.8-1.4,1.5-2.4,1.9
		s-2.2,0.6-3.6,0.6c-1.8,0-3.3-0.3-4.4-0.8s-2.1-1.4-2.9-2.7s-1.2-3-1.2-5c0-2.7,0.7-4.8,2.2-6.3c1.4-1.5,3.5-2.2,6.1-2.2
		c2.1,0,3.7,0.4,4.9,1.3c1.2,0.8,2.1,2.1,2.6,3.9l-4.5,1c-0.2-0.5-0.3-0.9-0.5-1.1c-0.3-0.4-0.6-0.7-1-0.9s-0.9-0.3-1.4-0.3
		c-1.2,0-2,0.5-2.6,1.4c-0.5,0.7-0.7,1.8-0.7,3.2c0,1.8,0.3,3.1,0.8,3.8c0.6,0.7,1.3,1,2.3,1s1.7-0.3,2.2-0.8s0.9-1.3,1.1-2.4
		l4.5,1.3C281.5,559.1,281,560.1,280.4,561z M297,563.2h-13.9v-16.5h13.6v3.5h-8.5v2.6h7.9v3.4h-7.9v3.2h8.8V563.2z M317.8,563.2
		H304c0.2-1.4,0.6-2.6,1.4-3.8s2.3-2.6,4.5-4.2c1.3-1,2.2-1.8,2.6-2.3s0.6-1,0.6-1.5s-0.2-0.9-0.6-1.3c-0.4-0.4-0.8-0.5-1.4-0.5
		s-1.1,0.2-1.4,0.5c-0.4,0.4-0.6,1-0.7,1.9l-4.6-0.4c0.2-1.3,0.5-2.3,1-3s1.2-1.3,2-1.7c0.9-0.4,2.1-0.6,3.6-0.6
		c1.6,0,2.9,0.2,3.8,0.5c0.9,0.4,1.6,0.9,2.1,1.7s0.8,1.6,0.8,2.6s-0.3,2-0.9,2.9s-1.7,1.9-3.2,3c-0.9,0.6-1.5,1.1-1.8,1.3
		c-0.3,0.3-0.7,0.6-1.1,1h7.1V563.2z M330.5,561.4c-1,1.4-2.8,2.1-5.2,2.1c-1.4,0-2.5-0.2-3.4-0.7c-0.9-0.4-1.6-1.1-2.1-1.9
		c-0.4-0.6-0.7-1.4-0.9-2.5c-0.2-1.1-0.3-2.2-0.3-3.5c0-3.1,0.6-5.3,1.7-6.6s2.8-1.9,5.1-1.9c1.1,0,2,0.1,2.7,0.4
		c0.7,0.3,1.3,0.6,1.7,1.1c0.4,0.4,0.8,0.9,1.1,1.4c0.3,0.5,0.5,1,0.6,1.7c0.3,1.2,0.5,2.5,0.5,3.8C332,557.8,331.5,560,330.5,561.4
		z M343.1,563.2h-4.6v-11c-0.7,0.6-1.5,1-2.2,1.4s-1.6,0.7-2.6,1v-3.8c1.6-0.5,2.8-1.1,3.6-1.8c0.9-0.7,1.5-1.6,2-2.6h3.8
		L343.1,563.2L343.1,563.2z M359.6,560.5c-0.5,1-1.3,1.7-2.2,2.2c-1,0.5-2.2,0.8-3.7,0.8c-1.1,0-2-0.1-2.8-0.3s-1.4-0.5-2-0.9
		c-0.5-0.4-1-0.9-1.3-1.4s-0.6-1.2-0.8-1.9l4.6-0.5c0.1,0.7,0.4,1.3,0.8,1.7s0.9,0.6,1.5,0.6s1.2-0.2,1.6-0.7s0.6-1.2,0.6-2.2
		s-0.2-1.7-0.6-2.2s-1-0.7-1.7-0.7c-0.4,0-0.9,0.1-1.3,0.3c-0.3,0.2-0.6,0.4-1,0.9l-3.9-0.6l1.4-8.8h10.9v3.6h-7.4l-0.4,2.5
		c0.5-0.2,1-0.4,1.5-0.5s1-0.2,1.5-0.2c1.6,0,3,0.5,4,1.5s1.5,2.2,1.5,3.8C360.4,558.5,360.2,559.5,359.6,560.5z"/>
	<path class="st0" d="M325.2,549.5c-0.8,0-1.3,0.4-1.6,1.2c-0.3,0.8-0.5,2.2-0.5,4.3s0.2,3.5,0.6,4.3s0.9,1.2,1.6,1.2
		c0.5,0,0.9-0.2,1.2-0.5c0.3-0.3,0.6-0.8,0.8-1.5c0.2-0.7,0.2-1.8,0.2-3.3c0-2.2-0.2-3.7-0.6-4.4C326.5,549.9,326,549.5,325.2,549.5
		z"/>
</g>
<path class="st0" d="M192.6,561.9c0,0-10.2,5.5-14.7,9.1s-5.4,5.5-5.4,5.5s6.9-0.1,11.9,0.4s9,1.8,9,1.8s-0.6,4.5-0.6,8.3
	s1.7,9.5,1.7,9.5s5.5-5.6,12.3-7.7c6.8-2,17.8-4.1,17.8-4.1s-7.4-3.5-13-4.1s-11-1.7-11-1.7L192.6,561.9z"/>
<path class="st0" d="M397.3,561.2c0,0,9.8,6.2,14.1,10c4.2,3.9,5.9,5.7,5.9,5.7s-7.8-0.4-12.8-0.2s-9.1,1.2-9.1,1.2s1.1,4.8,0.9,8.6
	c-0.3,3.8-1.4,10-1.4,10s-6.8-6.9-13.4-9.4s-15.4-3-15.4-3s7.6-3.5,13-4.9c5-1.3,9.2-1.2,9.2-1.2L397.3,561.2z"/>
<path class="st0" d="M200.4,578.9c0,0,5.3,1,11.6,1.9c6.3,1,12.5,3.8,12.5,3.8l-1.2-11.4c0,0-6.6,0.8-10.9,2
	C208.1,576.4,200.4,578.9,200.4,578.9z"/>
<path class="st0" d="M366.1,584l1.5-11.3c0,0,5.6-0.1,12.7,2.2c7,2.2,7.6,3.1,7.6,3.1s-6.2,0-12.3,2.2
	C369.4,582.4,366.1,584,366.1,584z"/>
<path class="st0" d="M349.8,540.8l22.5-16.3c0,0-5.9,7.5-6.7,10.6c-0.8,3.1-1.3,5.9-1.3,5.9L349.8,540.8z"/>
<path class="st0" d="M368.6,541.5c0,0-0.1-7.5,6.7-14.1c6.8-6.6,16.6-17.6,16.6-17.6s-4.6,9-4.9,12.9s-0.1,5,0,6.3s0.9,5.5,0.9,5.5
	l5.5-4.1c0,0-4-4.3-2-10.2s15.7-27.6,15.7-27.6s-2.8,10.9-2.6,13.6c0.2,2.7,2,6.1,2.4,7.3s0.8,4.4,0.8,4.4l5-4.9
	c0,0-4.5-3.3-3.9-9.4s5.7-19.4,6.5-21.2c0.9-1.8,3.5-8.5,3.5-8.5s-1.9,9.6,0.1,13.9s5.3,10.6,5.3,10.6l3.7-5.2c0,0-5.2-2.8-5.6-8.9
	s4.3-30.6,4.3-30.6s1.2,12.5,3.9,16.1c2.8,3.6,4,4.7,4,4.7l1.7,2.5l3.1-6.2c0,0-6-3.8-6.9-9.2c-0.9-5.4-1.5-11.4-1.3-15.3
	s0.8-11.8,0.8-11.8s1.9,9,4.5,12.1s4.7,4.6,5.4,5.3c0.7,0.7,2.9,3.4,2.9,3.4l2.2-8.2c0,0-6.2-1.3-7.9-6.4
	c-1.6-5.1-3.8-13.7-4.1-17.6c-0.3-3.8-0.8-8.6-0.8-8.6s3.3,8.7,7,11.4s5.9,3.7,5.9,3.7l2.1,1.5l0.8-8.5c0,0-5.8-0.7-8.6-5.4
	c-2.2-3.6-3.9-6.9-5.1-12.2c-1.2-5.3-2.5-10.6-2.5-10.6s5,7,6.8,8.5c0.7,0.6,4,2.8,5.6,3.3c1.5,0.5,4.2,1.9,4.2,1.9l-0.9-9
	c0,0-5.9-0.1-8.8-4.6c-3-4.6-9.8-20.6-9.8-20.6s4.3,6,7.7,7.6c3.4,1.5,2.9,1,5.9,1.8s3.8,1.6,3.8,1.6l-1.8-10c0,0-5.7,1.4-12-5.9
	c-3.3-3.8-8.7-15.6-8.7-15.6s5.2,5.3,7.6,6.4c2.6,1.2,4.4,1.4,5.8,1.4c1.3,0,3.5,0.1,3.5,0.1l-3.5-10.2c0,0-6.8,0.5-9.9-3
	s-11-15.3-11-15.3s4.2,4.4,8.3,5.5c4.1,1.1,7.6,0.3,7.6,0.3l-5.2-10.6c0,0-5.3,1.5-11.4-4.4s-9.6-11.9-9.6-11.9s6.5,5,11,5.2
	s4.4-0.8,4.4-0.8L410,292.8l15.1,22.5c0,0,2.9-2.6,3.5-6.1s-1.7-12.5-1.7-12.5s6.1,8.6,7.9,16.4c1.7,7.8,0.6,9.2,0,10.7
	s-3.2,2.8-3.2,2.8l5.8,10.9c0,0,4.5-2.9,4.6-6s-0.5-11.4-0.5-11.4s4.7,8.7,6.1,18c1.1,7-2.5,10.5-2.5,10.5l-3,1.9l3.5,9.9
	c0,0,4.3-2.1,5.9-5.5s1.6-11.4,1.6-11.4s3.3,7.2,3,16.3c-0.3,9.1-1.6,10.8-3.3,12.4c-1.6,1.5-3.2,1.9-3.2,1.9l1.8,10.1
	c0,0,4.1-1.5,6.7-5.1s3.4-11.5,3.4-11.5s2.2,11.4,1.3,17.1c-0.9,5.7-2.6,10.2-5.2,12.7c-1.8,1.8-4.3,1.7-4.3,1.7l0.2,8.8
	c0,0,3.5-0.3,6.5-2.9c3.1-2.6,5.4-6.8,5.9-8.6c0.6-1.9,1.2-4.4,1.2-4.4s0.2,14.5-2.3,21.5c-4.2,11.6-11.2,10-11.2,10l-1.2,8.6
	c0,0,3.1-0.8,5.8-1.8c2.7-1.1,7-4.3,8.4-7.1c1.4-2.8,2.2-6.2,2.2-6.2s-0.4,14.3-4.9,21.7c-4.5,7.4-6.8,8.5-8.5,9s-5.7,0.4-5.7,0.4
	l-1.8,7.5c0,0,5.2,0.7,9.7-1.7c4.1-2.2,8-7,8.5-8.2c0.6-1.2,1.6-3.5,1.6-3.5s-3.8,17.8-10.4,24.8c-3.8,4.1-6.8,5.7-9,5.9
	c-2.2,0.3-5.8-0.5-5.8-0.5s-3.6,5.9-3.4,5.9c0.3-0.1,3.4,1.2,10.7-0.4c5.3-1,12.9-11,12.9-11s-5.1,16.3-15.9,24.9
	c-2.7,2.2-7.9,4.5-9.4,4.6c-3.9,0.2-6.8-1.2-6.8-1.2l-3.7,4.6c0,0,7,2.4,12.9,0.5s13.1-8.9,13.1-8.9s-10.1,15.4-17.5,20.4
	c-7.4,5-8.1,5.8-13.6,5.9c-5.6,0.2-7.3-2.5-7.3-2.5l-4.5,4.4c0,0,1.6,1.2,5.7,1.7c4,0.6,5.7,0.8,10.6-0.4c5-1.2,12.1-6.5,12.1-6.5
	s-10,12.8-26.5,20.6c-2.4,1.2-8.8,2.1-12.4,1.1c-3.5-1.1-4.1-3.3-4.1-3.3l-5.3,3.6c0,0,4,2.6,7,3.1s7.6,1.2,11.7,0
	s10.3-3.8,10.3-3.8l-20,12.3c0,0-7.2-3.1-13.6-4.4C379.2,542.2,368.6,541.5,368.6,541.5z"/>
<path class="st0" d="M220.8,541.5c0,0,0.1-7.5-6.7-14.1s-16.6-17.6-16.6-17.6s4.6,9,4.9,12.9c0.3,3.9,0.1,5,0,6.3s-0.9,5.5-0.9,5.5
	l-5.5-4.1c0,0,4-4.3,2-10.2s-15.7-27.6-15.7-27.6s2.8,10.9,2.6,13.6s-2,6.1-2.4,7.3s-0.8,4.4-0.8,4.4l-5-4.9c0,0,4.5-3.3,3.9-9.4
	s-5.7-19.4-6.5-21.2s-3.5-8.5-3.5-8.5s1.9,9.6-0.1,13.9s-5.3,10.6-5.3,10.6l-3.7-5.2c0,0,5.2-2.8,5.6-8.9c0.4-6.1-4.3-30.6-4.3-30.6
	s-1.2,12.5-3.9,16.1c-2.8,3.6-4,4.7-4,4.7l-1.7,2.5l-3.1-6.2c0,0,6-3.8,6.9-9.2c0.9-5.4,1.5-11.4,1.3-15.3s-0.8-11.8-0.8-11.8
	s-1.9,9-4.5,12.1s-4.7,4.6-5.4,5.3c-0.7,0.7-2.9,3.4-2.9,3.4l-2.2-8.2c0,0,6.2-1.3,7.9-6.4c1.6-5.1,3.8-13.7,4.1-17.6
	c0.3-3.8,0.8-8.6,0.8-8.6s-3.3,8.7-7,11.4s-5.9,3.7-5.9,3.7l-2.1,1.5l-0.8-8.5c0,0,5.8-0.7,8.6-5.4c2.2-3.6,3.9-6.9,5.1-12.2
	c1.2-5.3,2.5-10.6,2.5-10.6s-5,7-6.8,8.5c-0.7,0.6-4,2.8-5.6,3.3c-1.5,0.5-4.2,1.9-4.2,1.9l0.9-9c0,0,5.9-0.1,8.8-4.6
	c3-4.6,9.8-20.6,9.8-20.6s-4.3,6-7.7,7.6c-3.4,1.5-2.9,1-5.9,1.8s-3.8,1.6-3.8,1.6l1.8-10c0,0,5.7,1.4,12-5.9
	c3.3-3.8,8.7-15.6,8.7-15.6s-5.2,5.3-7.6,6.4c-2.6,1.2-4.4,1.4-5.8,1.4c-1.3,0-3.5,0.1-3.5,0.1l3.5-10.2c0,0,6.8,0.5,9.9-3
	c3.1-3.5,11-15.3,11-15.3s-4.2,4.4-8.3,5.5s-7.6,0.3-7.6,0.3l5.2-10.6c0,0,5.3,1.5,11.4-4.4c6.1-5.9,9.6-11.9,9.6-11.9
	s-6.5,5-11,5.2s-4.4-0.8-4.4-0.8l13.3-23.3l-15.1,22.5c0,0-2.9-2.6-3.5-6.1s1.7-12.5,1.7-12.5s-6.1,8.6-7.9,16.4
	c-1.7,7.8-0.6,9.2,0,10.7s3.2,2.8,3.2,2.8l-5.8,10.9c0,0-4.5-2.9-4.6-6c-0.1-3.2,0.5-11.4,0.5-11.4s-4.7,8.7-6.1,18
	c-1.1,7,2.5,10.5,2.5,10.5l3,1.9l-3.5,9.9c0,0-4.3-2.1-5.9-5.5c-1.6-3.4-1.6-11.4-1.6-11.4s-3.3,7.2-3,16.3
	c0.3,9.1,1.6,10.8,3.3,12.4c1.6,1.5,3.2,1.9,3.2,1.9l-1.8,10.1c0,0-4.1-1.5-6.7-5.1c-2.6-3.6-3.4-11.5-3.4-11.5s-2.2,11.4-1.3,17.1
	c0.9,5.7,2.6,10.2,5.2,12.7c1.8,1.8,4.3,1.7,4.3,1.7l-0.2,8.8c0,0-3.5-0.3-6.5-2.9c-3.1-2.6-5.4-6.8-5.9-8.6
	c-0.6-1.9-1.2-4.4-1.2-4.4s-0.2,14.5,2.3,21.5c4.2,11.6,11.2,10,11.2,10l1.2,8.6c0,0-3.1-0.8-5.8-1.8s-7-4.3-8.4-7.1
	s-2.2-6.2-2.2-6.2s0.4,14.3,4.9,21.7c4.5,7.4,6.8,8.5,8.5,9s5.7,0.4,5.7,0.4l1.8,7.5c0,0-5.2,0.7-9.7-1.7c-4.1-2.2-8-7-8.5-8.2
	c-0.6-1.2-1.6-3.5-1.6-3.5s3.8,17.8,10.4,24.8c3.8,4.1,6.8,5.7,9,5.9c2.2,0.3,5.8-0.5,5.8-0.5s3.6,5.9,3.4,5.9
	c-0.3-0.1-3.4,1.2-10.7-0.4c-5.3-1-12.9-11-12.9-11s5.1,16.3,15.9,24.9c2.7,2.2,7.9,4.5,9.4,4.6c3.9,0.2,6.8-1.2,6.8-1.2l3.7,4.6
	c0,0-7,2.4-12.9,0.5s-13.1-8.9-13.1-8.9s10.1,15.4,17.5,20.4c7.4,5,8.1,5.8,13.6,5.9s7.3-2.5,7.3-2.5l4.5,4.4c0,0-1.6,1.2-5.7,1.7
	c-4,0.6-5.7,0.8-10.6-0.4c-5-1.2-12.1-6.5-12.1-6.5s10,12.8,26.5,20.6c2.4,1.2,8.8,2.1,12.4,1.1c3.5-1.1,4.1-3.3,4.1-3.3l5.3,3.6
	c0,0-4,2.6-7,3.1s-7.6,1.2-11.7,0c-4.1-1.2-10.3-3.8-10.3-3.8l21.4,12.9c0,0,6.8-2.7,13.2-4.2C211.2,542.9,220.8,541.5,220.8,541.5z
	"/>
<path class="st0" d="M216.2,524.3c0,0,12.8,8.6,16,10.9c3.3,2.3,6,4.9,6,4.9l-13.3,0.9c0,0,0.4-4.5-2.6-8.8
	C219.4,527.8,216.2,524.3,216.2,524.3z"/>
</svg>
