<?xml version="1.0" encoding="utf-8"?>
<!-- Generator: Adobe Illustrator 16.0.0, SVG Export Plug-In . SVG Version: 6.00 Build 0)  -->
<!DOCTYPE svg PUBLIC "-//W3C//DTD SVG 1.1//EN" "http://www.w3.org/Graphics/SVG/1.1/DTD/svg11.dtd">
<svg version="1.1" id="Layer_1" xmlns="http://www.w3.org/2000/svg" xmlns:xlink="http://www.w3.org/1999/xlink" x="0px" y="0px"
	 width="1500px" height="1500px" viewBox="0 0 1500 1500" enable-background="new 0 0 1500 1500" xml:space="preserve">
<g>
	<g>
		<path fill="#FFFFFF" d="M275.16,51.284c0,8.763-2.787,15.535-8.765,20.317c-5.975,4.779-13.941,7.17-24.696,7.17h-8.763v31.868
			h-13.942V25.79h24.298c10.755,0,18.723,1.99,23.9,6.372C272.77,36.545,275.16,42.918,275.16,51.284z M232.937,67.217h7.168
			c7.171,0,12.35-1.194,15.536-3.584c3.188-2.392,5.179-6.374,5.179-11.552c0-4.782-1.592-8.366-4.381-10.757
			c-2.79-2.389-7.569-3.585-13.943-3.585h-9.559V67.217z"/>
		<path fill="#FFFFFF" d="M322.564,45.31c2.788,0,5.18,0,6.772,0.398l-1.195,12.748c-1.992-0.399-3.982-0.797-5.975-0.797
			c-5.577,0-9.96,1.593-13.146,5.178c-3.187,3.587-5.178,8.366-5.178,13.942v33.463h-13.545V46.106h10.755l1.993,11.153h0.797
			c1.991-3.982,4.78-6.772,8.364-9.162C314.997,46.502,318.979,45.31,322.564,45.31z"/>
		<path fill="#FFFFFF" d="M397.854,78.373c0,10.356-2.787,18.722-7.966,24.698c-5.181,5.975-12.747,8.764-22.309,8.764
			c-5.976,0-11.153-1.195-15.936-3.984c-4.779-2.787-7.965-6.772-10.754-11.553c-2.391-5.178-3.585-10.755-3.585-17.526
			c0-10.358,2.788-18.725,7.966-24.302c5.181-5.975,12.747-8.762,22.707-8.762c9.163,0,16.729,3.185,21.91,9.161
			C395.066,60.046,397.854,68.413,397.854,78.373z M351.248,78.373c0,14.737,5.577,22.307,16.331,22.307
			c10.755,0,16.334-7.567,16.334-22.307c0-14.74-5.579-21.911-16.334-21.911c-5.577,0-9.958,1.993-12.349,5.577
			C352.44,66.023,351.248,71.202,351.248,78.373z"/>
		<path fill="#FFFFFF" d="M458.006,110.639l-1.99-8.365h-0.797c-1.992,2.789-4.782,5.178-7.968,7.17
			c-3.585,1.595-7.569,2.391-11.95,2.391c-7.968,0-13.544-1.991-17.529-5.975c-3.982-3.985-5.577-9.562-5.577-17.529V46.504h13.942
			v39.438c0,4.78,1.196,8.763,3.188,11.153c1.991,2.39,5.18,3.584,9.561,3.584c5.576,0,9.959-1.591,12.747-5.178
			c2.789-3.584,3.985-9.163,3.985-17.128V46.502h13.544v64.137H458.006z"/>
		<path fill="#FFFFFF" d="M509.395,111.834c-7.967,0-14.341-2.789-18.724-8.764c-4.382-5.976-6.772-13.943-6.772-24.299
			c0-10.358,2.391-18.725,6.772-24.7c4.383-5.975,10.757-8.762,18.724-8.762c8.365,0,14.738,3.185,19.119,9.16h0.797
			c-0.797-4.78-0.797-8.363-0.797-10.754V20.213h13.544v90.426h-10.754l-2.392-8.365h-0.795
			C524.133,108.646,517.76,111.834,509.395,111.834z M512.979,100.679c5.576,0,9.559-1.591,12.349-4.78
			c2.392-3.185,3.982-8.366,3.982-15.536v-1.99c0-7.968-1.193-13.943-3.982-17.131c-2.788-3.185-6.772-5.177-12.349-5.177
			c-4.779,0-8.365,1.992-11.155,5.975c-2.787,3.984-3.983,9.562-3.983,16.732s1.196,12.348,3.587,16.332
			C504.214,98.689,507.801,100.679,512.979,100.679z"/>
		<path fill="#FFFFFF" d="M574.726,110.639h-13.545V20.213h13.545V110.639z"/>
		<path fill="#FFFFFF" d="M583.886,46.502h14.74l13.146,36.252c1.992,5.179,3.185,9.96,3.981,14.74h0.398
			c0.398-1.993,0.798-4.78,1.993-7.569c0.797-3.188,5.975-17.527,14.74-43.421h14.736l-27.484,72.501
			c-5.178,13.146-13.146,19.917-25.099,19.917c-3.185,0-5.975-0.397-8.762-0.795v-10.757c1.992,0.398,4.382,0.797,7.17,0.797
			c6.773,0,11.153-3.982,13.94-11.552l2.392-5.976L583.886,46.502z"/>
		<path fill="#FFFFFF" d="M702.197,76.778v33.86h-13.942V25.79h23.903c10.755,0,19.12,1.99,24.299,5.974
			c5.178,3.983,7.968,10.357,7.968,18.723c0,10.754-5.579,17.926-16.335,22.706l23.902,37.446h-15.934l-20.316-33.86H702.197
			L702.197,76.778z M702.197,65.227h9.562c6.374,0,11.153-1.195,13.94-3.586c2.79-2.389,4.384-5.975,4.384-10.755
			c0-4.779-1.594-8.366-4.781-10.358c-3.188-1.991-7.967-3.186-14.341-3.186h-9.161v27.885H702.197z"/>
		<path fill="#FFFFFF" d="M790.234,111.834c-9.959,0-17.925-2.789-23.503-8.764c-5.576-5.976-8.365-13.943-8.365-23.901
			c0-10.358,2.789-18.725,7.967-24.7c5.181-5.975,12.349-9.16,21.513-9.16c8.365,0,15.137,2.389,19.916,7.568
			c4.779,5.179,7.172,12.349,7.172,21.112v7.17h-42.625c0,6.373,1.992,11.155,5.178,14.341c3.188,3.188,7.569,5.178,13.543,5.178
			c3.984,0,7.172-0.398,10.758-1.195c3.186-0.795,6.771-1.991,10.355-3.585v11.154c-3.186,1.593-6.77,2.79-9.957,3.188
			C798.602,111.436,794.617,111.834,790.234,111.834z M787.846,55.665c-4.383,0-7.969,1.196-10.357,3.983
			c-2.79,2.79-3.985,6.775-4.782,11.953h29.081c0-5.178-1.195-9.163-3.982-11.953C795.414,56.861,792.225,55.665,787.846,55.665z"/>
		<path fill="#FFFFFF" d="M855.965,111.834c-9.562,0-17.133-2.789-22.311-8.365c-5.178-5.577-7.566-13.943-7.566-24.299
			c0-10.756,2.789-19.123,7.965-24.7c5.18-5.975,12.748-8.762,22.707-8.762c6.773,0,12.748,1.194,18.324,3.584L871.1,60.444
			c-5.576-2.388-10.357-3.186-14.34-3.186c-11.154,0-16.73,7.17-16.73,21.911c0,7.168,1.195,12.747,3.982,16.332
			c2.789,3.584,6.773,5.577,12.352,5.577c5.975,0,11.949-1.593,17.129-4.381v11.95c-2.393,1.595-5.18,2.392-7.969,3.188
			C863.135,111.436,859.945,111.834,855.965,111.834z"/>
		<path fill="#FFFFFF" d="M945.195,78.373c0,10.356-2.787,18.722-7.967,24.698c-5.18,5.975-12.748,8.764-22.309,8.764
			c-5.973,0-11.152-1.195-15.934-3.984c-4.779-2.787-7.969-6.772-10.756-11.553c-2.393-5.178-3.586-10.755-3.586-17.526
			c0-10.358,2.789-18.725,7.967-24.302c5.178-5.975,12.748-8.762,22.707-8.762c9.162,0,16.73,3.185,21.91,9.161
			C942.408,60.046,945.195,68.413,945.195,78.373z M898.586,78.373c0,14.737,5.578,22.307,16.334,22.307
			c10.758,0,16.332-7.567,16.332-22.307c0-14.74-5.574-21.911-16.332-21.911c-5.576,0-9.959,1.993-12.348,5.577
			C899.781,66.023,898.586,71.202,898.586,78.373z"/>
		<path fill="#FFFFFF" d="M1014.51,46.502v7.569l-11.154,1.993c1.193,1.195,1.992,3.187,2.391,5.177
			c0.797,1.993,0.797,3.985,0.797,6.374c0,6.772-2.393,11.952-6.773,15.538c-4.381,3.982-10.756,5.576-18.723,5.576
			c-1.992,0-3.984,0-5.578-0.398c-2.787,1.993-4.381,3.985-4.381,6.375c0,1.592,0.797,2.39,1.994,3.187
			c1.193,0.797,3.98,1.193,7.568,1.193h11.152c7.17,0,12.348,1.594,15.934,4.384c3.586,3.186,5.576,7.17,5.576,13.146
			c0,7.17-3.186,12.747-9.162,16.73c-5.975,3.984-14.74,5.975-25.891,5.975c-8.764,0-15.539-1.593-19.918-4.781
			c-4.781-3.185-6.773-7.568-6.773-13.146c0-3.982,1.197-7.17,3.586-9.958c2.387-2.79,5.975-4.383,10.357-5.577
			c-1.992-0.797-3.189-1.993-4.383-3.586c-1.193-1.594-1.592-3.584-1.592-5.577c0-2.391,0.795-4.381,1.992-5.975
			c1.191-1.594,3.186-3.189,5.975-4.78c-3.188-1.594-5.975-3.586-7.967-7.17c-1.996-3.188-3.186-7.17-3.186-11.156
			c0-6.772,2.389-12.349,6.768-16.332c4.385-3.984,10.758-5.576,18.725-5.576c1.992,0,3.586,0,5.576,0.398
			c1.99,0.398,3.586,0.398,4.383,0.795h22.707V46.502z M963.918,120.597c0,2.789,1.195,5.178,3.984,6.772
			c2.787,1.594,6.373,2.391,11.152,2.391c7.568,0,13.146-1.195,16.732-3.188c3.584-1.991,5.576-4.779,5.576-8.364
			c0-2.789-1.193-4.781-3.188-5.976c-1.992-1.194-5.576-1.594-11.152-1.594h-10.359c-3.982,0-7.168,0.797-9.16,2.788
			C965.113,115.02,963.918,117.411,963.918,120.597z M969.893,67.217c0,3.985,1.195,7.17,3.189,9.162
			c1.988,1.993,5.178,3.188,8.762,3.188c7.965,0,11.951-4.382,11.951-12.747c0-3.985-0.797-7.57-2.789-9.562
			c-1.992-2.391-4.779-3.584-8.764-3.584c-3.982,0-6.773,1.194-8.764,3.187C971.088,59.648,969.893,62.836,969.893,67.217z"/>
		<path fill="#FFFFFF" d="M1082.229,110.639h-13.545V71.202c0-4.779-0.795-8.764-2.787-11.156c-1.992-2.388-5.176-3.584-9.561-3.584
			c-5.576,0-9.957,1.594-12.748,5.178c-2.787,3.586-3.982,9.163-3.982,17.131v31.868h-13.543V46.504h10.754l1.992,8.364h0.797
			c1.99-3.186,4.781-5.576,8.367-7.17c3.582-1.592,7.566-2.389,11.949-2.389c15.535,0,23.105,7.967,23.105,23.502v41.827H1082.229z"
			/>
		<path fill="#FFFFFF" d="M1099.76,29.373c0-2.389,0.797-4.38,1.988-5.576c1.195-1.195,3.188-1.993,5.576-1.993
			c2.391,0,4.385,0.797,5.58,1.993c1.193,1.195,1.988,3.187,1.988,5.576c0,2.391-0.795,3.983-1.988,5.577
			c-1.195,1.595-3.189,1.993-5.58,1.993c-2.389,0-4.381-0.796-5.576-1.993C1100.557,33.755,1099.76,31.764,1099.76,29.373z
			 M1114.1,110.639h-13.543V46.502h13.543V110.639z"/>
		<path fill="#FFFFFF" d="M1175.844,110.639h-48.598v-8.365l32.264-45.413h-30.273V46.502h45.809v9.562l-31.865,44.217h32.664
			V110.639z"/>
		<path fill="#FFFFFF" d="M1217.273,111.834c-9.961,0-17.928-2.789-23.506-8.764c-5.576-5.976-8.365-13.943-8.365-23.901
			c0-10.358,2.789-18.725,7.967-24.7c5.18-5.975,12.354-9.16,21.514-9.16c8.367,0,15.137,2.389,19.918,7.568
			c4.777,5.179,7.17,12.349,7.17,21.112v7.17h-42.625c0,6.373,1.99,11.155,5.18,14.341c3.186,3.188,7.566,5.178,13.543,5.178
			c3.984,0,7.17-0.398,10.758-1.195c3.184-0.795,6.771-1.991,10.354-3.585v11.154c-3.184,1.593-6.771,2.79-9.957,3.188
			C1225.637,111.436,1221.654,111.834,1217.273,111.834z M1214.883,55.665c-4.381,0-7.969,1.196-10.357,3.983
			c-2.789,2.79-3.986,6.775-4.781,11.953h29.082c0-5.178-1.197-9.163-3.986-11.953C1222.451,56.861,1219.266,55.665,1214.883,55.665
			z"/>
		<path fill="#FFFFFF" d="M1300.129,92.315c0,6.374-2.387,11.154-6.771,14.339c-4.381,3.188-11.154,5.18-19.52,5.18
			s-15.533-1.195-20.715-3.984V95.899c7.57,3.585,14.74,5.179,21.113,5.179c8.365,0,12.748-2.389,12.748-7.57
			c0-1.591-0.398-2.786-1.195-3.982c-0.795-1.196-2.389-2.391-4.781-3.188c-1.99-1.193-5.176-2.388-8.762-3.982
			c-7.572-2.788-12.352-5.577-15.139-8.765c-2.789-2.787-3.984-6.77-3.984-11.152c0-5.577,2.393-9.561,6.771-12.749
			c4.383-3.186,10.359-4.38,17.926-4.38c7.57,0,14.742,1.592,21.514,4.779l-4.383,10.355c-6.771-2.786-12.748-4.38-17.529-4.38
			c-7.168,0-10.754,1.992-10.754,5.975c0,1.992,0.797,3.586,2.789,5.178c1.994,1.196,5.975,3.187,12.35,5.577
			c5.178,1.993,9.16,3.984,11.551,5.579c2.391,1.592,3.986,3.584,5.18,5.975C1299.732,86.737,1300.129,89.127,1300.129,92.315z"/>
	</g>
	<g>
		<path fill="#FFFFFF" d="M349.654,260.819h-13.146v-82.062h46.21v11.156h-33.063v25.494h31.07v11.552h-31.07V260.819z"/>
		<path fill="#FFFFFF" d="M443.268,260.819H396.66v-82.062h46.209v11.156h-33.063v22.307h31.071v11.154h-31.071v25.893h33.063
			L443.268,260.819L443.268,260.819z"/>
		<path fill="#FFFFFF" d="M488.68,260.819h-13.543v-70.508h-23.903v-11.554h61.746v11.554h-23.903v70.508H488.68z"/>
		<path fill="#FFFFFF" d="M571.14,260.819h-46.21v-82.062h46.21v11.156h-33.064v22.307h31.071v11.154h-31.071v25.893h33.064V260.819
			z"/>
		<path fill="#FFFFFF" d="M635.274,238.511c0,7.17-2.787,13.145-7.966,17.129c-5.181,3.983-12.352,6.374-21.911,6.374
			c-9.161,0-16.731-1.593-22.706-4.383v-12.747c3.586,1.593,7.569,3.188,11.95,3.985c4.383,1.194,7.968,1.592,11.554,1.592
			c5.179,0,9.16-1.195,11.552-3.187c2.391-1.992,3.584-4.779,3.584-7.967c0-3.187-1.193-5.577-3.584-7.969
			c-2.392-1.99-7.171-4.779-14.341-7.567c-7.57-3.187-12.747-6.375-15.935-10.358c-3.188-3.983-4.78-8.367-4.78-13.943
			c0-6.771,2.391-12.348,7.169-16.331c4.781-3.985,11.553-5.975,19.521-5.975s15.536,1.592,23.505,5.178l-4.384,10.755
			c-7.171-3.185-13.942-4.779-19.52-4.779c-4.382,0-7.569,0.796-9.958,2.788c-2.391,1.991-3.188,4.382-3.188,7.567
			c0,1.994,0.4,3.985,1.196,5.577c0.797,1.594,2.39,2.79,4.381,4.383c1.993,1.196,5.576,3.185,11.155,5.179
			c5.976,2.391,10.357,4.78,13.146,7.17c2.788,1.993,4.78,4.78,5.975,7.171C634.876,231.339,635.274,234.527,635.274,238.511z"/>
		<path fill="#FFFFFF" d="M674.312,238.909c0-4.78,1.195-9.162,3.587-12.748c2.391-3.584,6.771-7.17,12.748-10.755
			c-3.587-3.985-5.978-7.569-7.172-10.359c-1.195-2.786-1.992-5.975-1.992-8.761c0-5.579,1.992-10.358,5.976-13.545
			c3.984-3.188,9.562-4.781,16.333-4.781s11.95,1.594,15.536,4.781c3.585,3.187,5.577,7.57,5.577,12.748
			c0,4.381-1.195,7.968-3.587,11.552c-2.388,3.586-6.771,6.772-12.747,10.356l19.519,18.725c3.188-3.985,5.577-9.959,7.57-17.528
			h13.544c-2.788,10.756-6.772,19.12-12.747,25.893l16.729,16.333h-17.128l-8.366-7.967c-3.982,3.187-7.966,5.178-12.349,6.772
			c-4.382,1.594-9.16,2.39-14.342,2.39c-8.763,0-15.533-1.992-20.316-5.975C676.703,251.655,674.312,246.079,674.312,238.909z
			 M702.597,250.462c6.772,0,12.747-1.992,17.526-5.977l-21.51-21.112c-3.984,2.389-6.771,4.78-8.366,7.169
			c-1.593,2.391-2.39,4.782-2.39,7.57c0,3.586,1.194,6.772,3.984,8.763C695.027,249.267,698.215,250.462,702.597,250.462z
			 M694.23,196.286c0,2.388,0.797,4.381,1.993,6.771c1.195,1.99,3.186,4.381,5.178,6.773c4.383-2.392,7.17-4.783,8.765-6.773
			c1.594-1.992,2.389-4.383,2.389-7.17c0-2.391-0.795-4.382-2.389-5.974c-1.595-1.594-3.584-1.994-6.374-1.994
			s-5.179,0.798-7.17,2.392C694.629,191.902,694.23,193.895,694.23,196.286z"/>
		<path fill="#FFFFFF" d="M840.029,260.819H793.82v-82.062h46.209v11.156h-33.064v22.307h31.072v11.154h-31.072v25.893h33.064
			V260.819z"/>
		<path fill="#FFFFFF" d="M903.768,178.757h13.939l-28.68,82.062h-14.342l-28.684-82.062h13.943l17.133,50.99
			c0.795,2.389,1.99,5.577,2.785,9.561c1.197,3.984,1.596,6.771,1.994,8.366c0.398-2.789,1.193-5.975,2.389-9.96
			c1.195-3.584,1.992-6.374,2.391-8.364L903.768,178.757z"/>
		<path fill="#FFFFFF" d="M974.275,260.819h-46.209v-82.062h46.209v11.156h-33.062v22.307h31.07v11.154h-31.07v25.893h33.062
			V260.819z"/>
		<path fill="#FFFFFF" d="M1059.523,260.819h-16.334l-40.232-65.33h-0.4l0.4,3.583c0.398,6.773,0.797,13.147,0.797,19.121v42.625
			h-12.35v-82.062h16.332l40.236,64.932h0.398c0-0.795-0.398-3.983-0.398-9.56c-0.398-5.576-0.398-9.561-0.398-12.746v-43.025
			h12.348v82.461H1059.523z"/>
		<path fill="#FFFFFF" d="M1108.92,260.819h-13.547v-70.508h-23.898v-11.554h61.742v11.554h-23.9v70.508H1108.92z"/>
		<path fill="#FFFFFF" d="M1192.176,238.511c0,7.17-2.789,13.145-7.967,17.129c-5.178,3.983-12.35,6.374-21.912,6.374
			c-9.158,0-16.729-1.593-22.703-4.383v-12.747c3.586,1.593,7.568,3.188,11.951,3.985c4.381,0.796,7.965,1.592,11.551,1.592
			c5.178,0,9.162-1.195,11.551-3.187c2.393-1.992,3.588-4.779,3.588-7.967c0-3.187-1.195-5.577-3.588-7.969
			c-2.389-1.99-7.17-4.779-14.342-7.567c-7.566-3.187-12.746-6.375-15.93-10.358c-3.189-3.983-4.781-8.367-4.781-13.943
			c0-6.771,2.389-12.348,7.17-16.331c4.781-3.985,11.553-5.975,19.518-5.975c7.967,0,15.537,1.592,23.504,5.178l-4.383,10.755
			c-7.168-3.185-13.943-4.779-19.518-4.779c-4.383,0-7.568,0.796-9.959,2.788c-2.393,1.991-3.188,4.382-3.188,7.567
			c0,1.994,0.4,3.985,1.193,5.577c0.797,1.594,2.393,2.79,4.385,4.383c1.988,1.196,5.576,3.185,11.154,5.179
			c5.973,2.391,10.354,4.78,13.145,7.17c2.787,1.993,4.779,4.78,5.975,7.171C1191.779,231.339,1192.176,234.527,1192.176,238.511z"
			/>
	</g>
	<g>
		<path fill="#FFFFFF" d="M432.113,417.373c-1.196,3.187-3.586,8.365-5.179,10.754c-2.392,0.398-9.958,1.596-16.732,1.596
			c-24.697,0-34.655-11.554-34.655-22.308c0-13.943,14.341-23.107,36.647-23.107c7.968,0,15.139,1.595,17.53,1.595
			c0.397,3.186,1.192,7.967,1.591,11.153l-3.584,0.398c-1.992-5.178-4.779-7.569-9.562-9.161c-2.389-0.797-5.577-0.797-7.968-0.797
			c-13.146,0-19.916,7.966-19.916,18.723c0,12.349,8.763,20.715,21.112,20.715c7.568,0,12.747-2.789,17.926-10.359L432.113,417.373z
			"/>
		<path fill="#FFFFFF" d="M479.119,384.308c17.13,0,30.672,9.164,30.672,22.309c0,14.341-13.94,23.105-31.071,23.105
			c-18.323,0-31.469-9.959-31.469-22.706C447.251,395.86,458.403,384.308,479.119,384.308z M477.924,387.497
			c-9.161,0-16.332,6.771-16.332,18.723c0,11.154,5.975,21.113,18.324,21.113c8.762,0,15.536-5.975,15.536-18.326
			C495.851,395.065,488.68,387.497,477.924,387.497z"/>
		<path fill="#FFFFFF" d="M583.487,429.322c-0.398,0-1.593,0-2.787,0c-11.554-0.398-15.138-2.388-17.927-5.177
			c-3.585-3.585-6.374-7.969-9.561-11.951c-1.194-1.992-2.789-2.391-5.575-2.391h-1.993v9.959c0,5.577,0.797,5.975,7.968,6.373
			v2.389h-27.886v-2.389c6.773-0.398,7.968-1.194,7.968-6.373v-25.495c0-5.18-0.797-5.975-7.968-6.373v-2.391h26.69
			c7.967,0,12.747,0.797,16.729,2.391c3.586,1.99,5.978,4.779,5.978,8.762c0,5.975-5.579,9.163-11.555,10.757
			c1.196,1.99,4.78,6.373,7.57,9.559c3.188,3.586,5.178,5.576,6.771,6.772c1.993,1.594,3.187,2.39,5.975,2.789L583.487,429.322z
			 M548.434,407.415c3.983,0,6.771-0.398,9.16-1.595c3.188-1.993,4.384-4.384,4.384-7.967c0-7.172-5.578-9.56-10.757-9.56
			c-2.388,0-3.583,0.397-4.381,0.795c-0.797,0.399-0.797,1.195-0.797,2.391v15.936H548.434L548.434,407.415z"/>
		<path fill="#FFFFFF" d="M628.9,428.924v-2.389c5.976-0.797,5.976-1.195,4.381-4.383c-0.794-1.991-2.389-5.178-3.584-7.567h-17.925
			c-1.196,1.99-2.392,4.78-3.188,6.772c-1.99,4.381,0.398,4.779,7.568,5.178v2.389h-22.705v-2.389
			c5.975-0.399,7.172-1.195,10.356-6.772l19.122-34.657l4.383-0.798c5.973,11.552,11.95,23.506,17.926,34.659
			c3.583,6.373,4.382,6.771,10.356,7.169v2.389H628.9V428.924z M620.933,396.658c-2.787,4.782-5.179,9.163-7.567,14.341h14.738
			L620.933,396.658z"/>
		<path fill="#FFFFFF" d="M715.344,416.974c-0.797,2.789-3.186,9.96-3.983,11.95h-45.412v-2.389
			c7.966-0.399,8.763-0.797,8.763-6.374v-25.893c0-5.578-0.797-5.975-7.966-6.373v-2.391h28.68v2.391
			c-7.17,0.398-7.966,0.795-7.966,6.373v25.893c0,3.585,0,5.179,5.18,5.577c0,0,4.382,0,4.78,0c5.178,0,6.771-0.796,8.765-2.789
			c1.591-1.195,3.982-4.381,5.975-7.171L715.344,416.974z"/>
		<path fill="#FFFFFF" d="M816.926,410.6c-5.18,0.797-5.977,0.797-5.977,5.577v5.181c0,2.389,0,4.779,0.4,6.371
			c-5.578,0.797-13.545,2.392-20.717,2.392c-21.512,0-35.055-9.163-35.055-22.706c0-15.138,16.731-22.708,36.25-22.708
			c9.561,0,14.738,1.595,18.326,1.595c0,2.787,1.195,7.966,1.592,11.552l-3.586,0.398c-1.992-5.178-5.576-8.765-11.152-9.959
			c-1.994-0.399-5.18-0.796-7.57-0.796c-11.152,0-19.918,6.374-19.918,18.723c0,11.154,5.975,21.111,20.715,21.111
			c1.99,0,4.383-0.396,5.576-0.795c1.197-0.797,1.994-1.593,1.994-3.985v-5.975c0-4.779-1.195-5.178-9.162-5.975v-2.39h27.484v2.39
			H816.926L816.926,410.6z"/>
		<path fill="#FFFFFF" d="M863.932,428.924v-2.389c5.975-0.797,5.975-1.195,4.381-4.383c-0.797-1.991-2.391-5.178-3.586-7.567
			h-17.926c-1.195,1.99-2.391,4.78-3.186,6.772c-1.992,4.381,0.396,4.779,7.568,5.178v2.389h-22.707v-2.389
			c5.977-0.399,7.172-1.195,10.355-6.772l19.123-34.657l4.383-0.798c5.975,11.552,11.951,23.506,17.926,34.659
			c3.584,6.373,4.381,6.771,10.357,7.169v2.389h-26.689V428.924z M855.965,396.658c-2.789,4.782-5.18,9.163-7.57,14.341h14.74
			L855.965,396.658z"/>
		<path fill="#FFFFFF" d="M937.229,405.024c9.561,1.195,16.332,4.78,16.332,10.754c0,4.383-3.586,8.367-8.766,10.358
			c-4.779,1.994-10.754,2.788-18.322,2.788h-24.699v-2.389c7.174-0.399,7.967-0.797,7.967-6.374v-25.893
			c0-5.578-1.193-6.373-7.568-6.373v-2.391h27.887c6.771,0,11.553,0.797,15.137,2.391c3.584,1.592,5.576,3.983,5.576,7.567
			C950.373,400.643,943.205,403.828,937.229,405.024z M925.678,403.828c8.762,0,11.949-2.787,11.949-7.569
			c0-5.976-5.18-7.965-10.357-7.965c-2.391,0-3.986,0.397-4.383,0.795c-0.797,0.399-0.797,1.593-0.797,2.79v11.949H925.678
			L925.678,403.828z M922.092,419.763c0,4.78,2.389,6.373,7.17,6.373c5.178,0,10.754-3.187,10.754-9.959
			c0-6.373-4.383-9.16-14.74-9.16h-3.184V419.763z"/>
		<path fill="#FFFFFF" d="M1016.502,416.974c-0.799,2.789-3.189,9.96-3.984,11.95h-45.412v-2.389
			c7.967-0.399,8.764-0.797,8.764-6.374v-25.893c0-5.578-0.797-5.975-7.967-6.373v-2.391h28.68v2.391
			c-7.172,0.398-7.969,0.795-7.969,6.373v25.893c0,3.585,0,5.179,5.182,5.577c0,0,4.381,0,4.779,0c5.18,0,6.773-0.796,8.766-2.789
			c1.592-1.195,3.982-4.381,5.973-7.171L1016.502,416.974z"/>
		<path fill="#FFFFFF" d="M1079.441,417.373c-0.398,1.992-3.188,9.562-3.984,11.551h-47.404v-2.389
			c8.365-0.797,8.764-0.797,8.764-6.374v-25.893c0-5.578-1.193-5.975-7.17-6.373v-2.391h29.877c9.559,0,12.746,0,13.945,0
			c0,1.195,0.396,6.772,0.795,10.754l-3.586,0.399c-0.797-2.39-2.393-5.178-3.982-6.375c-1.596-1.195-2.791-1.593-7.57-1.593h-5.975
			c-3.586,0-3.984,0-3.984,2.39v13.943h9.162c5.178,0,5.977-1.196,7.568-5.577h3.586v15.138h-3.586
			c-1.592-4.781-2.391-5.578-7.568-5.578h-8.764v11.553c0,4.78,0,5.975,5.975,5.975h6.373c5.18,0,6.373-0.399,8.367-2.39
			c2.391-1.994,3.984-4.382,5.576-6.772H1079.441z"/>
		<path fill="#FFFFFF" d="M1128.039,396.259c-1.99-4.38-4.381-9.161-12.746-9.161c-5.18,0-8.766,2.787-8.766,6.374
			c0,3.584,3.586,5.976,11.555,8.763c9.957,3.585,15.934,7.17,15.934,13.543c0,7.968-9.162,13.544-21.908,13.544
			c-5.975,0-11.154-1.192-15.537-1.99c-0.398-1.594-1.992-8.366-2.789-11.554l3.586-0.796c1.992,4.383,6.771,11.553,15.936,11.553
			c5.576,0,9.16-2.39,9.16-6.772c0-3.985-3.188-5.975-11.152-9.163c-9.562-3.583-15.938-7.17-15.938-13.942
			c0-7.17,7.57-12.748,21.115-12.748c6.373,0,11.152,1.196,13.145,1.196c0.398,2.39,1.195,5.974,1.596,10.356L1128.039,396.259z"/>
	</g>
	<polygon fill="#FFFFFF" points="468.763,459.2 1040.004,459.2 982.643,510.987 520.548,510.189 	"/>
	<path fill="#FFFFFF" d="M519.752,517.759h464.084l-0.398,141.017l-13.545,16.333h-130.66c0,0,7.568-89.628-86.843-90.028
		c-87.237-0.398-86.839,90.028-86.839,90.028H528.516l-9.163-11.552L519.752,517.759z"/>
	<polygon fill="#FFFFFF" points="528.912,682.679 519.752,693.034 519.752,828.876 528.514,838.435 655.989,838.435 
		664.754,828.876 665.551,693.434 655.591,682.28 	"/>
	<polygon fill="#FFFFFF" points="528.912,847.199 519.752,857.156 519.752,1002.957 664.754,1002.957 665.551,857.556 
		655.591,846.801 	"/>
	<polygon fill="#FFFFFF" points="847.199,847.199 838.037,857.156 838.037,1002.957 983.438,1002.957 984.234,857.556 
		974.275,846.801 	"/>
	<polygon fill="#FFFFFF" points="847.199,682.679 838.037,693.034 838.037,828.876 846.801,838.435 974.674,838.435 
		983.037,828.876 983.836,693.434 969.496,682.28 	"/>
	<polygon fill="#FFFFFF" points="713.351,656.387 755.18,614.559 794.219,653.597 754.383,693.434 	"/>
	<g>
		<path fill="#FFFFFF" d="M410.999,1049.562c-0.797,2.392-2.389,6.376-3.186,7.969c-1.594,0.397-6.374,1.193-10.757,1.193
			c-15.934,0-22.307-8.764-22.307-16.729c0-10.358,9.161-17.528,23.502-17.528c5.18,0,9.562,1.195,11.155,1.195
			c0.398,2.389,0.795,5.975,1.193,8.363l-2.388,0.399c-1.197-3.982-3.188-5.976-5.976-6.773c-1.595-0.398-3.587-0.796-5.181-0.796
			c-8.363,0-12.748,5.974-12.748,13.943c0,9.161,5.579,15.536,13.545,15.536c4.782,0,8.366-2.391,11.554-7.569L410.999,1049.562z"/>
		<path fill="#FFFFFF" d="M458.803,1027.254c-4.382,0.398-5.179,0.798-5.179,4.781v19.123c0,3.981,0.398,4.38,5.179,4.78v1.99
			c-5.179,0-12.747,0-17.926,0v-1.99c4.779-0.4,5.179-0.799,5.179-4.78v-9.561h-15.934v9.561c0,3.981,0.399,4.38,4.779,4.78v1.99
			c-5.177,0-12.747,0-17.925,0v-1.99c4.382-0.4,5.178-0.799,5.178-4.78v-19.123c0-3.983-0.397-4.781-5.178-4.781v-1.988h17.925
			v1.988c-4.382,0.398-4.779,0.798-4.779,4.781v7.173h15.934v-7.173c0-3.983-0.399-4.383-5.179-4.781v-1.988
			c5.179,0,12.747,0,17.926,0V1027.254z"/>
		<path fill="#FFFFFF" d="M486.289,1057.929v-1.99c3.585-0.4,3.585-1.196,2.787-3.188c-0.398-1.593-1.591-3.586-2.389-5.977h-11.551
			c-0.797,1.594-1.595,3.588-1.993,5.18c-1.195,3.186,0,3.584,4.78,3.984v1.99h-14.342v-1.99c3.586-0.4,4.782-0.799,6.772-5.179
			l12.351-25.894l2.788-0.398c3.583,8.762,7.568,17.926,11.551,26.292c1.993,4.778,2.789,5.179,6.374,5.576v1.991h-17.129V1057.929
			L486.289,1057.929z M481.111,1034.026c-1.594,3.587-3.188,7.171-4.782,10.758h9.164L481.111,1034.026z"/>
		<path fill="#FFFFFF" d="M537.278,1057.929v-1.99c4.381-0.4,4.779-0.799,4.779-5.179v-19.521
			c-4.381,8.763-8.762,18.323-13.146,26.689h-1.989c-3.986-8.366-7.969-17.528-12.35-26.291
			c-0.797,15.935-0.797,19.122-0.797,20.714c0,2.788,1.195,3.587,5.576,3.587v1.99h-14.738v-1.99c3.187-0.4,4.778-0.799,5.177-3.984
			c0.399-1.592,0.399-4.382,1.993-21.112c0-2.392-0.398-3.588-5.178-3.984v-1.991h12.746l11.154,22.308l11.551-22.308h12.35v1.991
			c-4.779,0.396-5.179,0.795-5.179,4.78l0.399,18.725c0,4.38,0.398,4.777,5.178,5.176v1.993L537.278,1057.929L537.278,1057.929z"/>
		<path fill="#FFFFFF" d="M582.691,1040.002c5.975,0.798,10.357,3.586,10.357,7.968c0,3.188-2.39,6.373-5.577,7.969
			c-3.188,1.593-7.17,1.99-11.553,1.99h-15.933v-1.99c4.382-0.4,5.178-0.799,5.178-4.78v-19.123c0-4.383-0.796-4.781-4.78-4.781
			v-1.988h17.926c4.382,0,7.171,0.397,9.562,1.591c1.989,1.195,3.585,3.188,3.585,5.576
			C591.058,1036.816,586.277,1039.208,582.691,1040.002z M575.124,1039.208c5.576,0,7.567-1.993,7.567-5.979
			c0-4.381-3.186-5.976-6.374-5.976c-1.592,0-2.388,0.398-2.787,0.798c-0.399,0.398-0.399,1.196-0.399,1.993v9.163H575.124z
			 M572.732,1051.158c0,3.584,1.595,4.78,4.382,4.78c3.188,0,6.771-2.392,6.771-7.172s-2.788-7.169-9.559-7.169h-1.993
			L572.732,1051.158L572.732,1051.158z"/>
		<path fill="#FFFFFF" d="M630.096,1049.562c-0.398,1.197-1.992,7.172-2.389,8.366h-30.276v-1.99c5.179-0.4,5.577-0.799,5.577-4.78
			v-19.123c0-4.383-0.797-4.781-4.78-4.781v-1.988h19.121c5.976,0,8.365,0,9.164,0c0,0.796,0.397,5.178,0.397,7.964l-2.392,0.399
			c-0.398-1.594-1.593-3.584-2.391-4.78c-1.195-1.196-1.992-1.196-4.779-1.196h-3.983c-2.392,0-2.392,0-2.392,1.994v10.355h5.577
			c3.187,0,3.983-0.794,4.78-4.381h2.392v11.153h-2.392c-0.797-3.585-1.594-4.381-4.78-4.381h-5.577v8.765
			c0,3.584,0,4.38,3.586,4.38h3.984c3.186,0,3.983-0.398,5.576-1.593c1.594-1.594,2.788-3.186,3.584-5.179L630.096,1049.562z"/>
		<path fill="#FFFFFF" d="M671.525,1058.327c-0.397,0-1.195,0-1.595,0c-7.568-0.398-9.56-1.593-11.55-3.585
			c-2.392-2.788-3.986-5.976-5.977-8.767c-0.797-1.191-1.594-1.591-3.587-1.591h-1.195v7.171c0,3.982,0.399,4.383,5.182,4.78v1.991
			h-17.928v-1.991c4.383-0.397,5.179-0.798,5.179-4.78v-19.121c0-3.984-0.397-4.383-5.179-4.782v-1.989h17.13
			c5.178,0,8.365,0.398,10.755,1.989c2.392,1.196,3.984,3.587,3.984,6.773c0,4.384-3.586,6.771-7.173,7.968
			c0.799,1.593,3.188,4.78,4.783,7.169c1.991,2.789,3.186,3.984,4.38,5.18c1.195,1.196,1.993,1.594,3.587,2.39L671.525,1058.327z
			 M649.217,1041.996c2.391,0,4.384-0.398,5.577-1.196c1.991-1.592,2.789-3.187,2.789-5.975c0-5.179-3.585-7.173-6.772-7.173
			c-1.594,0-2.392,0.399-2.789,0.399c-0.399,0.398-0.399,0.797-0.399,1.993v11.951H649.217L649.217,1041.996z"/>
		<path fill="#FFFFFF" d="M707.774,1024.468c10.758,0,19.52,6.771,19.52,16.729c0,10.757-8.762,17.529-19.918,17.529
			c-11.553,0-20.315-7.171-20.315-17.129C687.061,1033.229,694.23,1024.468,707.774,1024.468z M706.582,1026.856
			c-5.979,0-10.358,5.179-10.358,13.943c0,8.365,3.981,15.935,11.95,15.935c5.577,0,9.96-4.78,9.96-13.942
			C718.134,1032.83,713.351,1026.856,706.582,1026.856z"/>
		<path fill="#FFFFFF" d="M760.356,1033.629c-0.796-1.991-1.591-3.584-2.388-4.78c-1.195-1.196-1.992-1.196-4.782-1.196h-4.381
			c-1.992,0-2.39,0-2.39,1.994v11.153h6.373c3.586,0,3.984-0.798,4.781-4.382h1.99v11.154h-2.389
			c-0.797-3.586-1.594-4.383-4.782-4.383h-6.373v7.969c0,4.78,0.399,5.178,5.577,5.178v1.99H732.87v-1.99
			c4.384-0.397,5.179-0.798,5.179-5.178v-18.726c0-4.381-0.398-4.78-5.179-5.179v-1.988h19.919c5.18,0,7.967,0,8.764,0
			c0,0.795,0.398,5.178,0.797,7.964L760.356,1033.629z"/>
		<path fill="#FFFFFF" d="M817.322,1049.562c-0.795,2.392-2.389,6.376-3.186,7.969c-1.596,0.397-6.375,1.193-10.756,1.193
			c-15.934,0-22.309-8.764-22.309-16.729c0-10.358,9.162-17.528,23.502-17.528c5.182,0,9.562,1.195,11.154,1.195
			c0.398,2.389,0.799,5.975,1.195,8.363l-2.389,0.399c-1.197-3.982-3.186-5.976-5.977-6.773c-1.594-0.398-3.586-0.796-5.178-0.796
			c-8.367,0-12.75,5.974-12.75,13.943c0,9.161,5.58,15.536,13.545,15.536c4.781,0,8.365-2.391,11.553-7.569L817.322,1049.562z"/>
		<path fill="#FFFFFF" d="M843.217,1024.468c10.754,0,19.52,6.771,19.52,16.729c0,10.757-8.766,17.529-19.918,17.529
			c-11.553,0-20.316-7.171-20.316-17.129C822.9,1033.229,830.07,1024.468,843.217,1024.468z M842.42,1026.856
			c-5.975,0-10.359,5.179-10.359,13.943c0,8.365,3.986,15.935,11.951,15.935c5.578,0,9.959-4.78,9.959-13.942
			C853.971,1032.83,849.191,1026.856,842.42,1026.856z"/>
		<path fill="#FFFFFF" d="M899.781,1057.929v-1.99c4.383-0.4,4.781-0.799,4.781-5.179v-19.521
			c-4.381,8.763-8.762,18.323-13.146,26.689h-1.99c-3.984-8.366-7.967-17.528-12.348-26.291
			c-0.799,15.935-0.799,19.122-0.799,20.714c0,2.788,1.193,3.587,5.578,3.587v1.99h-14.74v-1.99c3.186-0.4,4.779-0.799,5.178-3.984
			c0.398-1.592,0.398-4.382,1.994-21.112c0-2.392-0.4-3.588-5.18-3.984v-1.991h12.748l11.152,22.308l11.553-22.308h12.35v1.991
			c-4.781,0.396-5.18,0.795-5.18,4.78l0.398,18.725c0,4.38,0.4,4.777,5.18,5.176v1.993L899.781,1057.929L899.781,1057.929z"/>
		<path fill="#FFFFFF" d="M953.561,1057.929v-1.99c4.383-0.4,4.781-0.799,4.781-5.179v-19.521
			c-4.383,8.763-8.766,18.323-13.146,26.689h-1.99c-3.986-8.366-7.969-17.528-12.354-26.291
			c-0.793,15.935-0.793,19.122-0.793,20.714c0,2.788,1.193,3.587,5.574,3.587v1.99h-14.736v-1.99c3.184-0.4,4.781-0.799,5.178-3.984
			c0.398-1.592,0.398-4.382,1.992-21.112c0-2.392-0.398-3.588-5.18-3.984v-1.991h12.746l11.156,22.308l11.553-22.308h12.348v1.991
			c-4.781,0.396-5.178,0.795-5.178,4.78l0.396,18.725c0,4.38,0.398,4.777,5.18,5.176v1.993L953.561,1057.929L953.561,1057.929z"/>
		<path fill="#FFFFFF" d="M1008.535,1049.562c-0.4,1.197-1.992,7.172-2.391,8.366h-30.275v-1.99c5.178-0.4,5.576-0.799,5.576-4.78
			v-19.123c0-4.383-0.795-4.781-4.781-4.781v-1.988h19.121c5.977,0,8.365,0,9.164,0c0,0.796,0.398,5.178,0.398,7.964l-2.391,0.399
			c-0.4-1.594-1.594-3.584-2.391-4.78c-1.195-1.196-1.992-1.196-4.781-1.196h-3.982c-2.393,0-2.393,0-2.393,1.994v10.355h5.578
			c3.188,0,3.984-0.794,4.781-4.381h2.389v11.153h-2.389c-0.797-3.585-1.594-4.381-4.781-4.381h-5.578v8.765
			c0,3.584,0,4.38,3.588,4.38h3.984c3.184,0,3.98-0.398,5.574-1.593c1.594-1.594,2.791-3.186,3.588-5.179L1008.535,1049.562z"/>
		<path fill="#FFFFFF" d="M1049.564,1058.327c-0.398,0-1.193,0-1.592,0c-7.57-0.398-9.562-1.593-11.555-3.585
			c-2.391-2.788-3.982-5.976-5.977-8.767c-0.795-1.191-1.592-1.591-3.582-1.591h-1.197v7.171c0,3.982,0.4,4.383,5.18,4.78v1.991
			h-17.926v-1.991c4.381-0.397,5.178-0.798,5.178-4.78v-19.121c0-3.984-0.398-4.383-5.178-4.782v-1.989h17.127
			c5.182,0,8.367,0.398,10.76,1.989c2.387,1.196,3.982,3.587,3.982,6.773c0,4.384-3.588,6.771-7.172,7.968
			c0.797,1.593,3.189,4.78,4.779,7.169c1.994,2.789,3.188,3.984,4.383,5.18c1.197,1.196,1.994,1.594,3.586,2.39L1049.564,1058.327z
			 M1027.256,1041.996c2.391,0,4.383-0.398,5.578-1.196c1.992-1.592,2.787-3.187,2.787-5.975c0-5.179-3.584-7.173-6.771-7.173
			c-1.594,0-2.391,0.399-2.787,0.399c-0.4,0.398-0.4,0.797-0.4,1.993v11.951H1027.256L1027.256,1041.996z"/>
		<path fill="#FFFFFF" d="M1089,1049.562c-0.795,2.392-2.387,6.376-3.184,7.969c-1.596,0.397-6.375,1.193-10.758,1.193
			c-15.934,0-22.307-8.764-22.307-16.729c0-10.358,9.16-17.528,23.502-17.528c5.178,0,9.562,1.195,11.156,1.195
			c0.396,2.389,0.795,5.975,1.193,8.363l-2.391,0.399c-1.195-3.982-3.186-5.976-5.977-6.773c-1.592-0.398-3.584-0.796-5.178-0.796
			c-8.365,0-12.748,5.974-12.748,13.943c0,9.161,5.578,15.536,13.545,15.536c4.781,0,8.365-2.391,11.553-7.569L1089,1049.562z"/>
		<path fill="#FFFFFF" d="M1127.246,1049.562c-0.4,1.197-1.994,7.172-2.393,8.366h-30.275v-1.99c5.182-0.4,5.58-0.799,5.58-4.78
			v-19.123c0-4.383-0.799-4.781-4.785-4.781v-1.988h19.123c5.975,0,8.365,0,9.162,0c0,0.796,0.398,5.178,0.398,7.964l-2.391,0.399
			c-0.4-1.594-1.594-3.584-2.391-4.78c-1.193-1.196-1.988-1.196-4.779-1.196h-3.984c-2.389,0-2.389,0-2.389,1.994v10.355h5.576
			c3.188,0,3.984-0.794,4.781-4.381h2.389v11.153h-2.389c-0.797-3.585-1.594-4.381-4.781-4.381h-5.576v8.765
			c0,3.584,0,4.38,3.586,4.38h3.98c3.188,0,3.984-0.398,5.576-1.593c1.596-1.594,2.791-3.186,3.588-5.179L1127.246,1049.562z"/>
	</g>
	<g>
		<path fill="#FFFFFF" d="M388.294,1095.772c10.755,0,16.332,4.78,16.332,13.544c0,5.977-2.787,11.553-7.966,14.741
			c-3.984,2.389-8.765,3.186-14.739,3.186h-12.748l0.398-1.595c3.584-0.398,4.381-0.796,4.78-4.381l3.584-19.121
			c0.797-3.586,0.398-4.38-3.584-4.779l0.398-1.595H388.294z M381.123,1120.869c-0.797,4.381,1.595,4.779,3.983,4.779
			c7.569,0,11.95-7.567,11.95-16.332c0-6.372-2.389-11.151-8.763-11.151c-2.789,0-3.188,0.396-3.587,3.185L381.123,1120.869z"/>
		<path fill="#FFFFFF" d="M410.202,1128.438c-2.787,0-5.975-1.595-5.975-7.569c0-4.78,1.992-9.56,5.578-12.35
			c1.99-1.593,5.179-3.188,7.966-3.188c3.587,0,5.181,1.992,5.181,4.384c0,5.179-7.569,7.17-12.352,7.967c0,0.398,0,1.593,0,1.991
			c0,2.391,0.798,4.782,3.587,4.782c2.39,0,4.779-1.596,7.171-3.985l0.796,1.594C418.17,1126.446,414.188,1128.438,410.202,1128.438
			z M410.601,1115.69c5.181-1.193,6.772-3.188,6.772-5.975c0-1.595-0.796-2.392-1.99-2.392
			C414.188,1107.723,411.796,1109.316,410.601,1115.69z"/>
		<path fill="#FFFFFF" d="M421.757,1110.513c2.389-3.188,5.178-5.181,7.17-5.181c1.99,0,2.787,1.992,2.787,5.978
			c0.399,5.975,0.399,9.161,0.399,10.755c3.188-3.583,5.975-7.567,5.975-10.357c0-1.194-0.798-2.391-1.195-3.188
			c0-0.398-0.398-0.797,0-1.195c0.397-1.193,2.391-2.388,3.586-2.388c1.594,0,2.391,1.194,2.391,3.185
			c0,1.595-0.797,3.983-3.188,7.172c-2.789,3.982-8.366,9.56-10.755,12.349h-1.992c-0.398-2.789-0.398-9.561-1.195-15.537
			c-0.399-1.99-0.399-2.788-0.797-2.788c-0.399,0-1.592,0.798-2.788,1.993L421.757,1110.513z"/>
		<path fill="#FFFFFF" d="M448.048,1128.438c-2.79,0-5.976-1.595-5.976-7.569c0-4.78,1.991-9.56,5.577-12.35
			c1.99-1.593,5.178-3.188,7.968-3.188c3.584,0,5.178,1.992,5.178,4.384c0,5.179-7.568,7.17-12.35,7.967c0,0.398,0,1.593,0,1.991
			c0,2.391,0.797,4.782,3.585,4.782c2.391,0,4.779-1.596,7.171-3.985l0.797,1.594
			C456.016,1126.446,451.632,1128.438,448.048,1128.438z M448.445,1115.69c5.179-1.193,6.773-3.188,6.773-5.975
			c0-1.595-0.798-2.392-1.992-2.392C452.03,1107.723,449.243,1109.316,448.445,1115.69z"/>
		<path fill="#FFFFFF" d="M469.956,1122.86c-3.186,3.586-6.374,5.18-8.364,5.18c-1.594,0-2.789-1.196-1.594-5.578
			c1.195-6.771,3.186-15.934,4.779-23.104c0.398-1.991,0-2.392-1.594-2.392c-0.398,0-1.193,0-1.592,0l0.398-1.593
			c3.186-0.397,5.576-0.796,7.171-1.194c0.796-0.397,1.193-0.397,1.592-0.397s0.797,0.397,0.398,1.592
			c-1.99,8.765-4.381,20.715-5.577,26.69c-0.398,1.194-0.398,1.594,0,1.594c0.399,0,1.594-0.798,3.188-1.992L469.956,1122.86z"/>
		<path fill="#FFFFFF" d="M490.271,1113.3c0,5.178-2.388,10.358-7.168,13.146c-1.992,1.195-4.384,1.992-6.774,1.992
			c-5.975,0-7.566-4.381-7.566-7.968c0-6.772,3.982-11.951,9.161-13.942c1.594-0.797,3.586-0.797,4.781-0.797
			C487.884,1105.332,490.271,1108.52,490.271,1113.3z M475.534,1120.471c0,3.587,1.194,5.577,3.186,5.577
			c3.188,0,5.577-7.172,5.577-13.146c0-3.982-1.193-5.577-2.787-5.577C476.729,1107.324,475.534,1116.886,475.534,1120.471z"/>
		<path fill="#FFFFFF" d="M500.631,1105.731c1.592-0.399,2.787-0.399,4.381-0.399c5.179,0,7.568,2.789,7.568,7.171
			c0,3.188-1.194,7.171-4.38,10.357c-2.392,2.788-5.978,4.781-9.562,5.578c-0.798,0-1.595,0-2.788-0.398l-1.194,5.975
			c-0.399,2.391-0.399,2.791,2.388,3.188h1.195l-0.398,1.592l-13.544,0.397l0.398-1.591c3.188-0.398,3.587-0.796,4.381-3.985
			c1.595-7.968,3.188-15.934,4.783-23.502c-1.595,0.398-2.79,1.195-3.588,1.593l-0.397-1.593c1.594-0.798,3.188-1.595,4.782-2.392
			l0.397-1.991c1.195-1.194,3.983-2.787,5.976-3.585l0.398,0.398L500.631,1105.731z M497.044,1124.454
			c0.399,0.796,1.595,1.594,2.392,1.594c2.787,0,6.771-6.772,6.771-12.748c0-3.983-1.993-4.78-3.984-4.78
			c-0.795,0-1.193,0-1.99,0.399C499.037,1113.3,497.841,1119.674,497.044,1124.454z"/>
		<path fill="#FFFFFF" d="M522.937,1122.86c-3.185,3.586-6.373,5.578-8.363,5.578c-1.594,0-2.391-1.595-1.594-4.78
			c0.797-3.984,1.992-7.968,2.788-11.554c0.397-1.592,0.397-1.99,0-1.99c-0.399,0-1.593,0.798-2.788,1.593l-0.797-1.593
			c3.186-3.188,6.771-4.782,8.365-4.782c1.595,0,1.992,1.595,0.798,5.977c-0.798,3.188-1.993,7.169-2.392,10.357
			c-0.398,1.194-0.398,1.992,0,1.992s1.594-0.798,3.188-2.391L522.937,1122.86z M523.734,1098.561c0,1.992-1.592,3.984-3.584,3.984
			c-1.595,0-2.79-1.195-2.79-3.187c0-1.592,1.195-3.586,3.985-3.586C522.937,1095.374,523.734,1096.967,523.734,1098.561z"/>
		<path fill="#FFFFFF" d="M546.441,1122.86c-3.188,3.983-6.374,5.578-8.366,5.578c-1.593,0-2.391-1.195-1.593-5.578
			c0.397-3.187,1.593-6.771,2.39-9.959c0.797-2.389,0-3.186-0.397-3.186c-1.196,0-4.383,2.787-6.375,6.373
			c-1.194,1.594-1.194,2.787-1.593,4.78c-0.398,1.991-1.196,4.381-1.595,6.374c-1.989,0-3.982,0.797-5.576,1.195l-0.399-0.398
			c1.196-5.18,2.392-10.357,3.587-15.936c0.399-1.592,0.399-1.99,0-1.99c-0.398,0-1.992,0.798-2.789,1.99l-0.798-1.592
			c3.188-3.586,5.976-4.781,7.57-4.781c1.993,0,2.789,1.991,1.593,6.771l-0.398,1.593c2.79-3.981,7.57-8.364,11.154-8.364
			c1.991,0,3.586,0.797,1.991,7.568c-0.796,2.789-1.593,6.374-1.991,8.765c-0.398,1.194-0.398,1.993,0,1.993
			s1.594-0.399,3.188-2.392L546.441,1122.86z"/>
		<path fill="#FFFFFF" d="M552.815,1121.666c0,0.398-0.398,0.398-0.398,0.796c0,0.797,0.796,1.196,3.186,2.391
			c5.578,2.789,7.568,4.382,7.568,6.773c0,4.382-7.568,7.965-12.747,7.965c-5.178,0-9.162-2.388-9.162-5.576
			c0-2.389,3.984-4.78,7.967-6.373c-0.795-0.798-1.591-1.594-1.591-2.392c0-1.192,1.591-2.788,3.981-3.584H552.815z
			 M546.043,1115.69c0-3.586,1.992-6.771,5.178-8.764c1.595-0.796,3.983-1.595,5.976-1.595s3.586,0.399,4.781,1.196
			c2.788,0,4.78-0.797,5.575-1.196l0.398,1.196c-1.592,2.391-3.186,2.788-4.78,2.788c0,0.798,0.398,1.196,0.398,1.993
			c0,3.188-1.99,5.576-3.583,7.168c-2.393,1.993-6.374,3.188-8.766,3.188C548.434,1121.666,546.043,1119.275,546.043,1115.69z
			 M557.993,1134.015c0-1.194-0.797-1.991-1.992-2.786c-1.592-0.797-3.584-1.994-5.577-2.79c-3.186,1.993-3.584,3.585-3.584,4.78
			c0,1.991,2.788,3.984,6.373,3.984C556.001,1137.203,557.993,1135.608,557.993,1134.015z M558.393,1110.912
			c0-1.993-0.399-3.588-1.993-3.588c-2.389,0-4.381,5.179-4.381,8.765c0,1.992,0.797,3.187,1.992,3.187
			C556.399,1119.674,558.393,1115.293,558.393,1110.912z"/>
		<path fill="#FFFFFF" d="M588.27,1095.772c6.77,0,10.356,2.393,10.356,6.772c0,4.382-3.984,6.771-8.365,7.569
			c3.982,0.798,7.568,3.186,7.568,7.568c0,6.773-6.373,9.959-15.138,9.959h-13.545l0.398-1.594c3.586-0.399,4.385-0.798,5.181-4.78
			l3.584-19.121c0.797-3.981,0.397-4.38-3.584-4.779l0.398-1.595H588.27z M581.098,1121.268c-0.796,3.585,1.195,4.381,3.187,4.381
			c3.985,0,6.773-2.788,6.773-7.966c0-4.383-3.187-5.976-6.773-5.976h-1.593L581.098,1121.268z M584.684,1109.716
			c5.577,0,7.568-2.789,7.568-6.771c0-3.586-1.991-4.783-4.381-4.783c-1.594,0-1.992,0-2.391,2.79l-1.595,8.765H584.684z"/>
		<path fill="#FFFFFF" d="M621.331,1122.86c-2.787,3.983-6.374,5.578-8.363,5.578c-1.594,0-2.392-1.595-1.594-5.18
			c0-0.797,0.398-1.593,0.398-2.39c-1.595,2.39-3.188,3.983-5.179,5.577c-0.797,0.797-2.79,1.992-4.781,1.992
			s-3.983-1.195-2.391-7.171c0.799-2.79,1.595-5.975,2.391-9.561c0.398-1.194,0.398-1.593,0-1.593c-0.399,0-1.991,1.195-3.187,1.99
			l-0.797-1.592c2.79-3.188,6.771-5.179,8.366-5.179c1.593,0,2.389,1.194,1.192,5.976c-0.794,2.786-1.591,5.975-2.389,9.56
			c-0.398,2.39,0,3.188,0.398,3.188c1.196,0,3.585-1.993,5.179-4.384c1.196-1.593,1.992-3.186,2.789-5.976
			c0.399-1.594,0.797-3.982,1.592-6.374c1.594-0.397,3.587-0.796,5.577-1.193h0.797c-1.193,4.781-2.787,11.95-3.584,16.331
			c0,1.196,0,1.994,0,1.994c0.398,0,1.195-0.398,2.787-1.994L621.331,1122.86z"/>
		<path fill="#FFFFFF" d="M636.469,1108.52c0,1.196-0.796,2.393-1.992,2.79c-0.797,0.397-0.797,0.397-1.591-0.397
			c-1.596-1.596-2.79-2.791-3.985-2.791c-1.592,0-1.99,1.195-1.99,1.993c0,1.194,1.592,2.389,3.186,3.584
			c2.79,1.992,4.78,3.586,4.78,5.976c0,4.384-6.772,8.366-9.959,8.366c-2.789,0-5.576-1.594-5.576-3.982
			c0-1.197,1.193-2.79,2.389-3.188c0.398,0,0.798,0,1.196,0.398c1.593,1.991,3.587,3.585,5.576,3.585
			c1.195,0,1.992-0.795,1.992-1.992c0-1.194-0.398-1.991-2.787-3.585c-2.392-1.593-5.18-3.187-5.18-6.374
			c0-1.989,0.797-3.585,3.187-5.577c1.993-1.593,4.382-2.388,6.373-2.388C634.477,1105.332,636.469,1106.927,636.469,1108.52z"/>
		<path fill="#FFFFFF" d="M646.031,1122.86c-3.189,3.586-6.374,5.578-8.367,5.578c-1.594,0-2.39-1.595-1.594-4.78
			c0.797-3.984,1.994-7.968,2.791-11.554c0.397-1.592,0.397-1.99,0-1.99c-0.399,0-1.596,0.798-2.791,1.593l-0.796-1.593
			c3.188-3.188,6.771-4.782,8.366-4.782c1.594,0,1.991,1.595,0.796,5.977c-0.796,3.188-1.992,7.169-2.391,10.357
			c-0.398,1.194-0.398,1.992,0,1.992s1.595-0.798,3.188-2.391L646.031,1122.86z M646.826,1098.561c0,1.992-1.592,3.984-3.586,3.984
			c-1.593,0-2.786-1.195-2.786-3.187c0-1.592,1.193-3.586,3.982-3.586C646.031,1095.374,646.826,1096.967,646.826,1098.561z"/>
		<path fill="#FFFFFF" d="M669.532,1122.86c-3.186,3.983-6.373,5.578-8.365,5.578c-1.595,0-2.389-1.195-1.595-5.578
			c0.398-3.187,1.595-6.771,2.392-9.959c0.797-2.389,0-3.186-0.398-3.186c-1.194,0-4.382,2.787-6.373,6.373
			c-1.194,1.594-1.194,2.787-1.592,4.78c-0.399,1.991-1.196,4.381-1.595,6.374c-1.992,0-3.984,0.797-5.577,1.195l-0.397-0.398
			c1.192-5.18,2.388-10.357,3.585-15.936c0.397-1.592,0.397-1.99,0-1.99c-0.399,0-1.994,0.798-2.79,1.99l-0.795-1.592
			c3.186-3.586,5.975-4.781,7.569-4.781c1.99,0,2.786,1.991,1.592,6.771l-0.398,1.593c2.789-3.981,7.568-8.364,11.154-8.364
			c1.99,0,3.584,0.797,1.99,7.568c-0.796,2.789-1.592,6.374-1.99,8.765c-0.397,1.194-0.397,1.993,0,1.993
			c0.398,0,1.593-0.399,3.187-2.392L669.532,1122.86z"/>
		<path fill="#FFFFFF" d="M674.711,1128.438c-2.787,0-5.976-1.595-5.976-7.569c0-4.78,1.993-9.56,5.577-12.35
			c1.992-1.593,5.182-3.188,7.968-3.188c3.584,0,5.179,1.992,5.179,4.384c0,5.179-7.566,7.17-12.351,7.967c0,0.398,0,1.593,0,1.991
			c0,2.391,0.799,4.782,3.587,4.782c2.389,0,4.78-1.596,7.169-3.985l0.796,1.594
			C682.679,1126.446,678.695,1128.438,674.711,1128.438z M675.108,1115.69c5.179-1.193,6.773-3.188,6.773-5.975
			c0-1.595-0.798-2.392-1.989-2.392C678.695,1107.723,676.305,1109.316,675.108,1115.69z"/>
		<path fill="#FFFFFF" d="M701.401,1108.52c0,1.196-0.798,2.393-1.992,2.79c-0.796,0.397-0.796,0.397-1.593-0.397
			c-1.593-1.596-2.789-2.791-3.984-2.791c-1.593,0-1.99,1.195-1.99,1.993c0,1.194,1.594,2.389,3.186,3.584
			c2.789,1.992,4.78,3.586,4.78,5.976c0,4.384-6.771,8.366-9.959,8.366c-2.788,0-5.576-1.594-5.576-3.982
			c0-1.197,1.196-2.79,2.388-3.188c0.4,0,0.799,0,1.197,0.398c1.593,1.991,3.586,3.585,5.578,3.585c1.193,0,1.989-0.795,1.989-1.992
			c0-1.194-0.397-1.991-2.786-3.585c-2.392-1.593-5.18-3.187-5.18-6.374c0-1.989,0.796-3.585,3.188-5.577
			c1.991-1.593,4.38-2.388,6.373-2.388C699.409,1105.332,701.401,1106.927,701.401,1108.52z"/>
		<path fill="#FFFFFF" d="M715.742,1108.52c0,1.196-0.797,2.393-1.991,2.79c-0.798,0.397-0.798,0.397-1.593-0.397
			c-1.595-1.596-2.789-2.791-3.984-2.791c-1.592,0-1.99,1.195-1.99,1.993c0,1.194,1.591,2.389,3.186,3.584
			c2.789,1.992,4.779,3.586,4.779,5.976c0,4.384-6.772,8.366-9.958,8.366c-2.789,0-5.577-1.594-5.577-3.982
			c0-1.197,1.194-2.79,2.389-3.188c0.399,0,0.799,0,1.195,0.398c1.595,1.991,3.587,3.585,5.577,3.585
			c1.195,0,1.993-0.795,1.993-1.992c0-1.194-0.398-1.991-2.79-3.585c-2.389-1.593-5.177-3.187-5.177-6.374
			c0-1.989,0.796-3.585,3.187-5.577c1.99-1.593,4.382-2.388,6.373-2.388C713.751,1105.332,715.742,1106.927,715.742,1108.52z"/>
		<path fill="#FFFFFF" d="M774.301,1095.772c6.771,0,10.357,2.393,10.357,6.772c0,4.382-3.984,6.771-8.365,7.569
			c3.982,0.798,7.568,3.186,7.568,7.568c0,6.773-6.373,9.959-15.139,9.959H755.18l0.398-1.594c3.586-0.399,4.381-0.798,5.178-4.78
			l3.587-19.121c0.794-3.981,0.396-4.38-3.587-4.779l0.399-1.595H774.301z M767.131,1121.268c-0.798,3.585,1.193,4.381,3.186,4.381
			c3.984,0,6.773-2.788,6.773-7.966c0-4.383-3.188-5.976-6.773-5.976h-1.594L767.131,1121.268z M770.717,1109.716
			c5.576,0,7.566-2.789,7.566-6.771c0-3.586-1.99-4.783-4.381-4.783c-1.593,0-1.991,0-2.389,2.79l-1.596,8.765H770.717z"/>
		<path fill="#FFFFFF" d="M807.363,1122.86c-2.789,3.983-6.373,5.578-8.365,5.578c-1.592,0-2.389-1.595-1.592-5.18
			c0-0.797,0.398-1.593,0.398-2.39c-1.594,2.39-3.188,3.983-5.182,5.577c-0.795,0.797-2.787,1.992-4.777,1.992
			c-1.994,0-3.984-1.195-2.391-7.171c0.795-2.79,1.592-5.975,2.391-9.561c0.396-1.194,0.396-1.593,0-1.593
			c-0.398,0-1.994,1.195-3.188,1.99l-0.797-1.592c2.787-3.188,6.771-5.179,8.363-5.179c1.596,0,2.393,1.194,1.197,5.976
			c-0.799,2.786-1.594,5.975-2.393,9.56c-0.396,2.39,0,3.188,0.398,3.188c1.195,0,3.586-1.993,5.182-4.384
			c1.195-1.593,1.992-3.186,2.787-5.976c0.398-1.594,0.797-3.982,1.594-6.374c1.594-0.397,3.584-0.796,5.576-1.193h0.797
			c-1.195,4.781-2.789,11.95-3.584,16.331c0,1.196,0,1.994,0,1.994c0.398,0,1.193-0.398,2.787-1.994L807.363,1122.86z"/>
		<path fill="#FFFFFF" d="M817.721,1122.86c-3.186,3.586-6.371,5.578-8.363,5.578c-1.596,0-2.393-1.595-1.596-4.78
			c0.797-3.984,1.994-7.968,2.789-11.554c0.398-1.592,0.398-1.99,0-1.99c-0.396,0-1.594,0.798-2.789,1.593l-0.797-1.593
			c3.189-3.188,6.771-4.782,8.365-4.782c1.596,0,1.992,1.595,0.797,5.977c-0.797,3.188-1.99,7.169-2.391,10.357
			c-0.398,1.194-0.398,1.992,0,1.992c0.4,0,1.594-0.798,3.189-2.391L817.721,1122.86z M818.518,1098.561
			c0,1.992-1.592,3.984-3.584,3.984c-1.596,0-2.791-1.195-2.791-3.187c0-1.592,1.195-3.586,3.984-3.586
			C817.721,1095.374,818.518,1096.967,818.518,1098.561z"/>
		<path fill="#FFFFFF" d="M828.477,1122.86c-3.188,3.586-6.373,5.18-8.365,5.18c-1.594,0-2.789-1.196-1.594-5.578
			c1.195-6.771,3.188-15.934,4.783-23.104c0.396-1.991,0-2.392-1.596-2.392c-0.398,0-1.195,0-1.594,0l0.398-1.593
			c3.188-0.397,5.578-0.796,7.17-1.194c0.797-0.397,1.197-0.397,1.596-0.397s0.795,0.397,0.398,1.592
			c-1.994,8.765-4.385,20.715-5.578,26.69c-0.398,1.194-0.398,1.594,0,1.594s1.592-0.798,3.186-1.992L828.477,1122.86z"/>
		<path fill="#FFFFFF" d="M851.58,1122.86c-3.186,3.983-6.373,5.578-7.965,5.578c-1.992,0-2.789-1.595-1.594-5.977l0.398-1.593
			c-2.789,3.585-7.17,7.967-10.359,7.967c-2.387,0-3.982-2.39-3.982-6.374c0-5.178,1.992-9.959,5.576-12.746
			c2.393-1.993,6.773-3.984,9.562-3.984c0.398,0,1.592,0,2.389,0.399l1.195-5.977c0.398-2.388,0-2.388-1.992-2.787
			c-0.398,0-1.193,0-1.193,0l0.396-1.595c3.188-0.398,5.979-0.796,7.568-1.194c0.797,0,1.596-0.398,1.992-0.398
			c0.797,0,0.797,0.398,0.398,1.593c-1.99,8.765-4.779,21.113-5.576,26.689c-0.398,1.196,0,1.992,0,1.992
			c0.398,0,1.596-0.796,3.186-2.39V1122.86z M841.225,1118.478c0.797-1.193,1.195-2.389,1.992-4.779l0.795-4.382
			c-0.795-1.195-2.389-1.594-3.982-1.594c-4.381,0-6.375,7.172-6.375,13.146c0,1.991,0.398,2.789,1.596,2.789
			C837.242,1123.658,839.631,1121.268,841.225,1118.478z"/>
		<path fill="#FFFFFF" d="M861.543,1122.86c-3.189,3.586-6.377,5.578-8.367,5.578c-1.596,0-2.391-1.595-1.596-4.78
			c0.797-3.984,1.992-7.968,2.789-11.554c0.398-1.592,0.398-1.99,0-1.99s-1.594,0.798-2.789,1.593l-0.795-1.593
			c3.186-3.188,6.771-4.782,8.363-4.782c1.594,0,1.994,1.595,0.797,5.977c-0.797,3.188-1.99,7.169-2.389,10.357
			c-0.4,1.194-0.4,1.992,0,1.992c0.398,0,1.592-0.798,3.186-2.391L861.543,1122.86z M862.736,1098.561
			c0,1.992-1.594,3.984-3.588,3.984c-1.592,0-2.785-1.195-2.785-3.187c0-1.592,1.193-3.586,3.982-3.586
			C861.543,1095.374,862.736,1096.967,862.736,1098.561z"/>
		<path fill="#FFFFFF" d="M885.043,1122.86c-3.186,3.983-6.373,5.578-8.365,5.578c-1.594,0-2.389-1.195-1.594-5.578
			c0.398-3.187,1.594-6.771,2.393-9.959c0.795-2.389,0-3.186-0.398-3.186c-1.197,0-4.385,2.787-6.377,6.373
			c-1.193,1.594-1.193,2.787-1.592,4.78c-0.396,1.991-1.195,4.381-1.594,6.374c-1.992,0-3.982,0.797-5.576,1.195l-0.396-0.398
			c1.193-5.18,2.389-10.357,3.582-15.936c0.398-1.592,0.398-1.99,0-1.99s-1.99,0.798-2.787,1.99l-0.795-1.592
			c3.184-3.586,5.973-4.781,7.566-4.781c1.99,0,2.787,1.991,1.592,6.771l-0.398,1.593c2.791-3.981,7.57-8.364,11.156-8.364
			c1.99,0,3.584,0.797,1.99,7.568c-0.797,2.789-1.592,6.374-1.99,8.765c-0.398,1.194-0.398,1.993,0,1.993s1.592-0.399,3.186-2.392
			L885.043,1122.86z"/>
		<path fill="#FFFFFF" d="M891.416,1121.666c0,0.398-0.398,0.398-0.398,0.796c0,0.797,0.797,1.196,3.189,2.391
			c5.574,2.789,7.566,4.382,7.566,6.773c0,4.382-7.566,7.965-12.746,7.965s-9.164-2.388-9.164-5.576c0-2.389,3.984-4.78,7.969-6.373
			c-0.799-0.798-1.594-1.594-1.594-2.392c0-1.192,1.594-2.788,3.984-3.584H891.416z M884.645,1115.69
			c0-3.586,1.992-6.771,5.18-8.764c1.592-0.796,3.984-1.595,5.977-1.595c1.988,0,3.584,0.399,4.779,1.196
			c2.789,0,4.779-0.797,5.576-1.196l0.398,1.196c-1.594,2.391-3.186,2.788-4.781,2.788c0,0.798,0.398,1.196,0.398,1.993
			c0,3.188-1.99,5.576-3.586,7.168c-2.391,1.993-6.373,3.188-8.762,3.188C887.033,1121.666,884.645,1119.275,884.645,1115.69z
			 M896.596,1134.015c0-1.194-0.795-1.991-1.99-2.786c-1.596-0.797-3.588-1.994-5.578-2.79c-3.189,1.993-3.586,3.585-3.586,4.78
			c0,1.991,2.789,3.984,6.373,3.984C894.605,1137.203,896.596,1135.608,896.596,1134.015z M896.992,1110.912
			c0-1.993-0.396-3.588-1.988-3.588c-2.393,0-4.383,5.179-4.383,8.765c0,1.992,0.795,3.187,1.99,3.187
			C895.004,1119.674,896.992,1115.293,896.992,1110.912z"/>
		<path fill="#FFFFFF" d="M938.424,1119.674c-0.797,2.391-2.791,6.772-3.584,7.968c-1.594,0.398-4.385,1.194-7.969,1.194
			c-8.766,0-15.537-5.178-15.537-13.941c0-11.95,9.562-19.122,20.316-19.122c4.381,0,7.172,0.797,9.162,1.194
			c-0.396,1.991-0.797,5.578-1.193,8.365c-0.4,0-1.195,0-1.594,0c-0.398-5.576-2.391-7.565-6.773-7.565
			c-6.771,0-12.748,7.17-12.748,17.128c0,7.567,3.588,11.552,8.367,11.552c3.584,0,6.375-1.992,9.959-7.171L938.424,1119.674z"/>
		<path fill="#FFFFFF" d="M959.537,1113.3c0,5.178-2.393,10.358-7.172,13.146c-1.992,1.195-4.381,1.992-6.773,1.992
			c-5.973,0-7.566-4.381-7.566-7.968c0-6.772,3.984-11.951,9.162-13.942c1.592-0.797,3.584-0.797,4.779-0.797
			C957.145,1105.332,959.537,1108.52,959.537,1113.3z M944.795,1120.471c0,3.587,1.199,5.577,3.189,5.577
			c3.186,0,5.576-7.172,5.576-13.146c0-3.982-1.195-5.577-2.789-5.577C945.994,1107.324,944.795,1116.886,944.795,1120.471z"/>
		<path fill="#FFFFFF" d="M991.803,1105.332c1.992,0,3.586,0.799,1.992,7.569c-0.398,2.789-1.594,6.374-1.992,8.765
			c-0.398,1.194-0.398,1.593,0,1.593s1.992-0.797,3.188-2.39l0.797,1.593c-3.188,3.586-6.773,5.578-8.367,5.578
			c-1.592,0-2.787-1.196-1.592-6.374c0.795-3.585,1.592-5.976,1.99-9.163c0.396-2.389,0.396-3.187-0.398-3.187
			c-1.193,0-4.383,2.788-6.373,6.374c-1.195,1.594-1.195,2.791-1.594,4.78c-0.398,1.991-0.795,4.382-1.193,6.373
			c-1.994,0-3.984,0.798-5.578,1.196l-0.398-0.398c1.195-4.781,2.391-9.561,3.586-15.139c0.396-1.591,0.396-2.787-0.4-2.787
			c-1.592,0-4.381,2.787-6.371,6.373c-1.195,1.594-1.195,3.187-1.594,4.78c-0.398,1.991-0.799,4.381-1.197,6.374
			c-1.99,0-3.984,0.797-5.576,1.195l-0.398-0.398c1.197-5.18,2.389-10.357,3.586-15.936c0.398-1.592,0.398-1.99,0-1.99
			s-1.994,1.195-2.789,1.99l-0.797-1.592c3.188-3.188,5.576-5.179,7.969-5.179c1.592,0,2.787,1.99,1.592,6.771l-0.398,1.594
			c3.188-4.382,7.17-8.364,10.758-8.364c1.592,0,3.186,0.797,1.99,7.169l-0.398,1.195
			C983.836,1109.316,988.613,1105.332,991.803,1105.332z"/>
		<path fill="#FFFFFF" d="M1027.652,1105.332c1.994,0,3.588,0.799,1.994,7.569c-0.398,2.789-1.594,6.374-1.994,8.765
			c-0.396,1.194-0.396,1.593,0,1.593c0.4,0,1.994-0.797,3.189-2.39l0.797,1.593c-3.188,3.586-6.773,5.578-8.365,5.578
			c-1.594,0-2.789-1.196-1.594-6.374c0.797-3.585,1.594-5.976,1.99-9.163c0.4-2.389,0.4-3.187-0.396-3.187
			c-1.195,0-4.383,2.788-6.373,6.374c-1.197,1.594-1.197,2.791-1.596,4.78c-0.398,1.991-0.797,4.382-1.193,6.373
			c-1.992,0-3.984,0.798-5.576,1.196l-0.4-0.398c1.195-4.781,2.391-9.561,3.586-15.139c0.398-1.591,0.398-2.787-0.398-2.787
			c-1.596,0-4.383,2.787-6.373,6.373c-1.195,1.594-1.195,3.187-1.594,4.78c-0.398,1.991-0.799,4.381-1.197,6.374
			c-1.988,0-3.982,0.797-5.576,1.195l-0.398-0.398c1.197-5.18,2.391-10.357,3.586-15.936c0.4-1.592,0.4-1.99,0-1.99
			c-0.398,0-1.992,1.195-2.787,1.99l-0.799-1.592c3.188-3.188,5.578-5.179,7.967-5.179c1.596,0,2.789,1.99,1.596,6.771l-0.398,1.594
			c3.186-4.382,7.17-8.364,10.754-8.364c1.594,0,3.188,0.797,1.992,7.169l-0.398,1.195
			C1020.086,1109.316,1024.467,1105.332,1027.652,1105.332z"/>
		<path fill="#FFFFFF" d="M1054.742,1122.86c-2.789,3.983-6.371,5.578-8.363,5.578c-1.594,0-2.391-1.595-1.594-5.18
			c0-0.797,0.396-1.593,0.396-2.39c-1.594,2.39-3.188,3.983-5.178,5.577c-0.797,0.797-2.787,1.992-4.779,1.992
			s-3.984-1.195-2.391-7.171c0.797-2.79,1.594-5.975,2.391-9.561c0.398-1.194,0.398-1.593,0-1.593s-1.992,1.195-3.188,1.99
			l-0.797-1.592c2.787-3.188,6.771-5.179,8.365-5.179c1.592,0,2.389,1.194,1.197,5.976c-0.799,2.786-1.596,5.975-2.393,9.56
			c-0.398,2.39,0,3.188,0.398,3.188c1.195,0,3.584-1.993,5.18-4.384c1.193-1.593,1.99-3.186,2.787-5.976
			c0.398-1.594,0.799-3.982,1.596-6.374c1.592-0.397,3.582-0.796,5.576-1.193h0.795c-1.193,4.781-2.789,11.95-3.584,16.331
			c0,1.196,0,1.994,0,1.994c0.396,0,1.193-0.398,2.789-1.994L1054.742,1122.86z"/>
		<path fill="#FFFFFF" d="M1078.246,1122.86c-3.188,3.983-6.373,5.578-8.365,5.578c-1.596,0-2.391-1.195-1.596-5.578
			c0.398-3.187,1.596-6.771,2.393-9.959c0.797-2.389,0-3.186-0.398-3.186c-1.197,0-4.383,2.787-6.375,6.373
			c-1.195,1.594-1.195,2.787-1.594,4.78c-0.398,1.991-1.193,4.381-1.59,6.374c-1.994,0-3.986,0.797-5.58,1.195l-0.398-0.398
			c1.195-5.18,2.391-10.357,3.586-15.936c0.398-1.592,0.398-1.99,0-1.99c-0.4,0-1.992,0.798-2.789,1.99l-0.797-1.592
			c3.186-3.586,5.979-4.781,7.568-4.781c1.994,0,2.789,1.991,1.594,6.771l-0.398,1.593c2.789-3.981,7.568-8.364,11.154-8.364
			c1.992,0,3.586,0.797,1.992,7.568c-0.797,2.789-1.594,6.374-1.992,8.765c-0.4,1.194-0.4,1.993,0,1.993
			c0.398,0,1.594-0.399,3.186-2.392L1078.246,1122.86z"/>
		<path fill="#FFFFFF" d="M1088.604,1122.86c-3.186,3.586-6.375,5.578-8.363,5.578c-1.596,0-2.395-1.595-1.596-4.78
			c0.797-3.984,1.992-7.968,2.787-11.554c0.398-1.592,0.398-1.99,0-1.99c-0.396,0-1.59,0.798-2.787,1.593l-0.799-1.593
			c3.189-3.188,6.773-4.782,8.367-4.782s1.992,1.595,0.799,5.977c-0.799,3.188-1.994,7.169-2.393,10.357
			c-0.398,1.194-0.398,1.992,0,1.992s1.594-0.798,3.188-2.391L1088.604,1122.86z M1089.398,1098.561
			c0,1.992-1.592,3.984-3.582,3.984c-1.596,0-2.789-1.195-2.789-3.187c0-1.592,1.193-3.586,3.984-3.586
			C1088.604,1095.374,1089.398,1096.967,1089.398,1098.561z"/>
		<path fill="#FFFFFF" d="M1102.545,1108.121c-0.797,0-3.186,0.398-4.779,0.398c-2.393,11.154-2.393,10.356-2.789,13.146
			c-0.398,1.992,0,2.392,0.396,2.392c0.799,0,2.393-1.197,3.986-2.79l0.799,1.593c-1.994,2.788-5.58,5.578-8.766,5.578
			c-2.393,0-3.188-1.595-1.994-7.171l2.791-12.748h-3.984v-0.398l1.592-1.99h2.791l1.193-5.18c1.592-0.797,4.383-2.391,5.979-3.185
			l0.797,0.398c-0.398,1.591-1.596,5.575-1.994,7.966h5.178L1102.545,1108.121z"/>
		<path fill="#FFFFFF" d="M1100.158,1110.513c1.988-2.79,5.178-5.181,7.566-5.181c1.99,0,2.787,2.789,3.188,7.171
			c0.398,3.985,0.398,8.366,0.797,11.155c2.787-3.984,5.578-8.365,5.578-11.554c0-1.192-0.4-2.389-0.799-3.186
			c-0.4-0.798,0-1.196,0-1.595c1.195-1.193,2.391-1.593,3.186-1.593c1.195,0,1.992,0.797,2.393,3.188c0,1.594-0.4,3.584-1.994,5.976
			c-3.984,7.17-10.756,15.935-17.129,23.502l-6.373,1.593l-0.398-1.194c2.789-1.592,7.568-5.179,10.355-8.763
			c0-3.188-0.793-10.757-1.191-15.535c-0.4-3.188-0.799-3.984-1.197-3.984s-1.195,0.797-2.789,2.389L1100.158,1110.513z"/>
	</g>
	<polygon fill="#FFFFFF" points="720.522,1112.901 736.854,1096.967 753.187,1112.503 736.059,1128.438 	"/>
	<rect x="377.539" y="1069.083" fill="#FFFFFF" width="744.924" height="7.569"/>
	<g>
		<path fill="#FFFFFF" d="M1067.889,1262.287c-76.883-7.57-140.221-1.992-182.447-1.594c-31.072,0.397-94.412-1.196-94.412-1.196
			s-115.122-5.179-169.698-5.975c-54.573-0.797-144.204,1.194-207.144,13.941c-39.836,7.968-90.028,27.488-90.028,27.488
			l50.591,114.725c0,0,73.298-29.876,179.261-29.476c130.262,0.398,152.173,4.779,225.866,5.575
			c73.299,1.196,190.016-3.188,190.016-3.188s73.695-1.591,109.549,7.171c35.852,8.764,44.217,16.335,44.217,16.335l57.762-109.95
			C1180.621,1296.144,1144.771,1270.252,1067.889,1262.287z M525.328,1337.574c-2.392,3.586-5.576,6.374-9.561,7.968
			c-3.983,1.992-9.561,2.786-15.935,2.786c-11.153,0-18.722-1.99-23.104-6.369c-4.381-4.385-6.771-9.562-7.169-16.335l19.12-1.194
			c0.396,3.187,1.194,5.576,2.39,7.169c1.992,2.789,5.18,3.983,8.764,3.983c2.788,0,5.179-0.795,6.773-1.99
			c1.594-1.195,2.39-2.79,2.39-4.779c0-1.595-0.796-3.188-2.39-4.383c-1.595-1.196-4.78-2.788-10.357-3.984
			c-8.764-1.992-15.138-4.779-19.122-7.966c-3.983-3.189-5.577-7.57-5.577-12.748c0-3.188,0.798-6.375,2.79-9.562
			c1.989-3.186,4.779-5.177,8.764-7.17c3.982-1.592,9.161-2.389,15.934-2.389c8.366,0,14.739,1.593,19.12,4.781
			c4.383,3.186,7.171,7.965,7.968,14.738l-19.12,1.195c-0.398-2.789-1.595-5.179-3.188-6.373c-1.594-1.197-3.983-1.993-6.772-1.993
			c-2.388,0-3.982,0.397-5.178,1.595c-1.195,1.195-1.595,2.39-1.595,3.583c0,1.196,0.399,1.993,1.595,2.79
			c0.796,0.796,3.188,1.594,6.772,2.392c8.765,1.989,15.138,3.981,19.121,5.975c3.984,1.991,6.771,4.381,8.365,7.172
			c1.595,2.786,2.787,5.973,2.787,9.557C528.912,1330.006,527.72,1333.99,525.328,1337.574z M555.603,1347.137h-20.314v-65.729
			h20.314V1347.137z M628.502,1347.137h-19.121l-24.697-35.853v35.853h-19.121v-65.729h18.722l24.698,36.25v-36.25h19.121v65.729
			H628.502z M693.037,1338.372c-2.39,3.189-5.578,5.976-9.562,7.568c-3.981,1.594-8.765,2.388-14.341,2.388
			c-7.171,0-13.146-1.191-17.527-3.184c-4.384-1.993-8.367-5.577-11.553-10.757c-3.188-5.178-4.78-11.952-4.78-19.918
			c0-10.755,2.79-19.122,8.765-25.094c5.577-5.979,13.941-8.766,24.299-8.766c8.365,0,14.739,1.593,19.52,5.18
			c4.781,3.187,8.366,8.365,10.357,15.535l-17.925,3.982c-0.796-1.992-1.197-3.585-1.993-4.381c-1.194-1.594-2.39-2.79-3.984-3.586
			c-1.593-0.798-3.584-1.197-5.577-1.197c-4.779,0-7.967,1.993-10.354,5.579c-1.994,2.788-2.79,7.17-2.79,12.747
			c0,7.172,1.194,12.35,3.188,15.138c2.389,2.789,5.178,3.984,9.16,3.984c3.985,0,6.772-1.195,8.765-3.188
			c1.992-1.99,3.584-5.179,4.381-9.559l17.927,5.176C697.419,1330.802,695.425,1334.785,693.037,1338.372z M759.164,1347.137
			h-55.372v-65.729h54.177v13.94h-33.86v10.359h31.47v13.544h-31.47v12.746h35.056V1347.137z M842.021,1347.137h-54.975
			c0.799-5.575,2.391-10.358,5.576-15.14c3.188-4.779,9.164-10.355,17.928-16.729c5.178-3.984,8.764-7.171,10.357-9.163
			s2.393-3.984,2.393-5.976c0-1.993-0.799-3.587-2.393-5.178c-1.594-1.596-3.188-1.993-5.578-1.993s-4.381,0.796-5.574,1.993
			c-1.596,1.591-2.393,3.982-2.791,7.568l-18.322-1.594c0.795-5.178,1.99-9.163,3.98-11.95c1.994-2.789,4.783-5.181,7.969-6.773
			c3.584-1.593,8.365-2.39,14.342-2.39c6.373,0,11.551,0.797,15.137,1.992c3.584,1.592,6.375,3.586,8.363,6.771
			c1.994,3.187,3.189,6.375,3.189,10.357c0,3.984-1.195,7.968-3.586,11.551c-2.389,3.586-6.771,7.57-12.748,11.95
			c-3.584,2.393-5.975,4.384-7.17,5.181c-1.193,1.196-2.789,2.39-4.383,3.982h28.285V1347.137z M892.611,1339.965
			c-3.982,5.577-11.152,8.363-20.715,8.363c-5.578,0-9.957-0.794-13.543-2.786c-3.586-1.594-6.373-4.382-8.363-7.568
			c-1.596-2.392-2.791-5.577-3.588-9.958c-0.797-4.384-1.195-8.765-1.195-13.944c0-12.349,2.391-21.112,6.773-26.291
			c4.383-5.18,11.154-7.568,20.314-7.568c4.383,0,7.969,0.398,10.758,1.594c2.785,1.193,5.178,2.388,6.771,4.382
			c1.592,1.593,3.186,3.583,4.383,5.576c1.193,1.991,1.99,3.982,2.389,6.772c1.193,4.779,1.99,9.958,1.99,15.138
			C898.586,1325.624,896.596,1334.388,892.611,1339.965z M942.805,1347.137H924.48v-43.821c-2.787,2.392-5.977,3.984-8.764,5.577
			c-2.789,1.593-6.375,2.79-10.357,3.984v-15.138c6.373-1.99,11.156-4.383,14.34-7.17c3.584-2.789,5.979-6.376,7.969-10.357h15.137
			V1347.137L942.805,1347.137z M1008.535,1336.379c-1.992,3.984-5.18,6.772-8.766,8.766c-3.982,1.992-8.764,3.184-14.738,3.184
			c-4.381,0-7.969-0.396-11.154-1.191c-3.188-0.799-5.576-1.992-7.969-3.587c-1.99-1.594-3.984-3.585-5.178-5.576
			c-1.193-1.992-2.389-4.779-3.189-7.569l18.328-1.992c0.396,2.789,1.592,5.18,3.186,6.771c1.596,1.596,3.588,2.392,5.977,2.392
			s4.777-0.796,6.373-2.789c1.594-1.989,2.391-4.779,2.391-8.764s-0.797-6.771-2.391-8.762c-1.596-1.994-3.984-2.791-6.771-2.791
			c-1.596,0-3.586,0.397-5.18,1.195c-1.193,0.798-2.391,1.596-3.984,3.587l-15.533-2.39l5.576-35.057h43.42v14.339h-29.479
			l-1.594,9.962c1.992-0.798,3.984-1.595,5.977-1.992c1.992-0.398,3.982-0.798,5.973-0.798c6.377,0,11.953,1.992,15.938,5.975
			c3.98,3.985,5.975,8.766,5.975,15.14C1011.721,1328.414,1010.924,1332.396,1008.535,1336.379z"/>
		<path fill="#FFFFFF" d="M871.498,1292.561c-3.186,0-5.18,1.595-6.373,4.78c-1.193,3.188-1.99,8.765-1.99,17.129
			c0,8.366,0.797,13.944,2.389,17.129c1.594,3.187,3.586,4.78,6.373,4.78c1.992,0,3.586-0.797,4.781-1.991
			c1.197-1.193,2.391-3.187,3.186-5.974c0.799-2.79,0.799-7.171,0.799-13.146c0-8.765-0.799-14.739-2.391-17.529
			C876.678,1294.155,874.686,1292.561,871.498,1292.561z"/>
	</g>
	<path fill="#FFFFFF" d="M343.28,1341.959c0,0-40.633,21.907-58.559,36.247c-17.927,14.343-21.511,21.911-21.511,21.911
		s27.486-0.398,47.404,1.592c19.918,1.993,35.851,7.171,35.851,7.171s-2.388,17.926-2.388,33.063s6.771,37.844,6.771,37.844
		s21.908-22.307,48.996-30.674c27.089-7.966,70.907-16.329,70.907-16.329s-29.478-13.944-51.786-16.336
		c-22.307-2.388-43.818-6.771-43.818-6.771L343.28,1341.959z"/>
	<path fill="#FFFFFF" d="M1158.715,1339.168c0,0,39.037,24.698,56.168,39.835c16.73,15.538,23.502,22.706,23.502,22.706
		s-31.072-1.592-50.99-0.796s-36.248,4.78-36.248,4.78s4.381,19.121,3.582,34.258c-1.191,15.139-5.576,39.836-5.576,39.836
		s-27.086-27.484-53.379-37.445c-26.291-9.958-61.346-11.951-61.346-11.951s30.273-13.942,51.785-19.519
		c19.92-5.179,36.648-4.778,36.648-4.778L1158.715,1339.168z"/>
	<path fill="#FFFFFF" d="M374.352,1409.677c0,0,21.113,3.985,46.209,7.569c25.096,3.985,49.794,15.138,49.794,15.138l-4.78-45.411
		c0,0-26.291,3.185-43.42,7.965C405.024,1399.719,374.352,1409.677,374.352,1409.677z"/>
	<path fill="#FFFFFF" d="M1034.428,1429.993l5.975-45.013c0,0,22.307-0.4,50.59,8.763c27.887,8.764,30.273,12.351,30.273,12.351
		s-24.695,0-48.996,8.762C1047.574,1423.619,1034.428,1429.993,1034.428,1429.993z"/>
	<path fill="#FFFFFF" d="M969.496,1257.902l89.629-64.932c0,0-23.504,29.878-26.689,42.228c-3.188,12.35-5.18,23.503-5.18,23.503
		L969.496,1257.902z"/>
	<path fill="#FFFFFF" d="M1044.387,1260.693c0,0-0.398-29.879,26.688-56.17c27.09-26.293,66.127-70.111,66.127-70.111
		s-18.322,35.854-19.518,51.389c-1.195,15.537-0.396,19.919,0,25.097c0.398,5.179,3.582,21.909,3.582,21.909l21.914-16.331
		c0,0-15.934-17.132-7.969-40.632c7.969-23.505,62.541-109.949,62.541-109.949s-11.154,43.422-10.357,54.178
		c0.797,10.757,7.969,24.302,9.562,29.08c1.594,4.78,3.186,17.527,3.186,17.527l19.918-19.519c0,0-17.924-13.146-15.535-37.445
		c2.389-24.301,22.705-77.281,25.893-84.45c3.584-7.172,13.943-33.86,13.943-33.86s-7.57,38.241,0.398,55.369
		c7.965,17.13,21.111,42.227,21.111,42.227l14.738-20.715c0,0-20.715-11.154-22.305-35.456
		c-1.596-24.296,17.127-121.895,17.127-121.895s4.781,49.794,15.535,64.135c11.154,14.342,15.936,18.722,15.936,18.722l6.773,9.962
		l12.348-24.699c0,0-23.902-15.138-27.484-36.649c-3.588-21.51-5.977-45.413-5.182-60.947c0.797-15.536,3.188-47.006,3.188-47.006
		s7.566,35.851,17.928,48.2c10.357,12.351,18.721,18.325,21.51,21.112c2.789,2.79,11.553,13.544,11.553,13.544l8.766-32.664
		c0,0-24.701-5.179-31.471-25.495c-6.377-20.316-15.139-54.575-16.334-70.11c-1.197-15.138-3.188-34.258-3.188-34.258
		s13.145,34.657,27.885,45.412c14.74,10.756,23.502,14.74,23.502,14.74l8.367,5.974l3.188-33.859c0,0-23.105-2.789-34.26-21.512
		c-8.764-14.341-15.537-27.488-20.314-48.601c-4.781-21.111-9.961-42.224-9.961-42.224s19.92,27.885,27.09,33.86
		c2.787,2.389,15.934,11.154,22.307,13.146c5.975,1.991,16.73,7.569,16.73,7.569l-3.584-35.853c0,0-23.502-0.399-35.055-18.325
		c-11.951-18.324-39.041-82.062-39.041-82.062s17.131,23.902,30.676,30.276c13.543,5.976,11.549,3.983,23.5,7.17
		c11.953,3.186,15.139,6.374,15.139,6.374l-7.17-39.835c0,0-22.707,5.576-47.803-23.505c-13.146-15.135-34.654-62.142-34.654-62.142
		s20.713,21.112,30.271,25.495c10.357,4.78,17.529,5.576,23.105,5.576c5.18,0,13.941,0.399,13.941,0.399l-13.941-40.633
		c0,0-27.086,1.992-39.438-11.951c-12.35-13.942-43.818-60.949-43.818-60.949s16.732,17.53,33.062,21.911
		c16.332,4.381,30.275,1.195,30.275,1.195l-20.713-42.226c0,0-21.113,5.975-45.416-17.527c-24.297-23.504-38.24-47.405-38.24-47.405
		s25.893,19.917,43.82,20.715c17.926,0.796,17.527-3.188,17.527-3.188l-52.982-92.817l60.152,89.631
		c0,0,11.551-10.358,13.943-24.299c2.389-13.942-6.773-49.796-6.773-49.796s24.299,34.259,31.471,65.331
		c6.771,31.071,2.391,36.649,0,42.625c-2.391,5.976-12.748,11.153-12.748,11.153l23.104,43.42c0,0,17.928-11.551,18.326-23.899
		c0.398-12.35-1.992-45.414-1.992-45.414s18.723,34.658,24.299,71.705c4.383,27.884-9.957,41.828-9.957,41.828l-11.951,7.568
		l13.939,39.438c0,0,17.133-8.366,23.506-21.911c6.373-13.543,6.373-45.411,6.373-45.411s13.146,28.68,11.951,64.931
		c-1.195,36.249-6.375,43.021-13.146,49.395c-6.373,5.976-12.746,7.569-12.746,7.569l7.172,40.234c0,0,16.33-5.975,26.689-20.315
		c10.355-14.342,13.543-45.812,13.543-45.812s8.762,45.412,5.18,68.12c-3.586,22.705-10.359,40.633-20.715,50.591
		c-7.172,7.17-17.129,6.772-17.129,6.772l0.795,35.055c0,0,13.941-1.194,25.893-11.554c12.35-10.356,21.512-27.086,23.502-34.256
		c2.393-7.57,4.781-17.529,4.781-17.529s0.797,57.763-9.162,85.646c-16.73,46.209-44.617,39.837-44.617,39.837l-4.779,34.258
		c0,0,12.35-3.187,23.105-7.171c10.756-4.382,27.883-17.129,33.461-28.281c5.578-11.155,8.764-24.7,8.764-24.7
		s-1.59,56.964-19.52,86.444c-17.926,29.479-27.088,33.859-33.859,35.853c-6.773,1.99-22.705,1.592-22.705,1.592l-7.174,29.879
		c0,0,20.717,2.785,38.645-6.773c16.332-8.765,31.867-27.885,33.859-32.665c2.389-4.781,6.373-13.943,6.373-13.943
		s-15.139,70.907-41.43,98.793c-15.137,16.331-27.088,22.705-35.85,23.501c-8.766,1.196-23.105-1.99-23.105-1.99
		s-14.34,23.504-13.545,23.504c1.195-0.397,13.545,4.778,42.625-1.596c21.113-3.98,51.385-43.818,51.385-43.818
		s-20.312,64.933-63.334,99.191c-10.758,8.762-31.471,17.927-37.449,18.325c-15.533,0.796-27.088-4.78-27.088-4.78l-14.738,18.324
		c0,0,27.885,9.561,51.387,1.991c23.506-7.568,52.186-35.454,52.186-35.454s-40.234,61.347-69.711,81.266
		c-29.48,19.919-32.27,23.104-54.178,23.502c-22.309,0.797-29.08-9.958-29.08-9.958l-17.926,17.527c0,0,6.375,4.778,22.705,6.771
		c15.936,2.39,22.709,3.189,42.227-1.592c19.918-4.781,48.201-25.895,48.201-25.895s-39.836,50.988-105.562,82.062
		c-9.562,4.78-35.057,8.365-49.396,4.382c-13.941-4.382-16.332-13.146-16.332-13.146l-21.115,14.342c0,0,15.936,10.355,27.887,12.35
		c11.951,1.99,30.273,4.778,46.607,0c16.332-4.78,41.031-15.139,41.031-15.139l-79.672,48.999c0,0-28.684-12.349-54.176-17.529
		C1086.613,1263.479,1044.387,1260.693,1044.387,1260.693z"/>
	<path fill="#FFFFFF" d="M455.617,1260.693c0,0,0.398-29.879-26.69-56.17c-27.088-26.293-66.127-70.111-66.127-70.111
		s18.323,35.854,19.519,51.389c1.196,15.537,0.399,19.919,0,25.097c-0.397,5.179-3.586,21.909-3.586,21.909l-21.907-16.331
		c0,0,15.933-17.132,7.965-40.632c-7.965-23.505-62.541-109.949-62.541-109.949s11.153,43.422,10.356,54.178
		c-0.795,10.757-7.966,24.302-9.56,29.08c-1.595,4.78-3.188,17.527-3.188,17.527l-19.918-19.519c0,0,17.928-13.146,15.536-37.445
		c-2.391-24.301-22.707-77.281-25.892-84.45c-3.189-7.172-13.944-33.86-13.944-33.86s7.57,38.241-0.397,55.369
		c-7.968,17.13-21.114,42.227-21.114,42.227l-14.737-20.715c0,0,20.713-11.154,22.308-35.456
		c1.593-24.296-17.129-121.895-17.129-121.895s-4.78,49.794-15.536,64.135c-11.154,14.342-15.934,18.722-15.934,18.722l-6.771,9.962
		l-12.352-24.699c0,0,23.902-15.138,27.487-36.649c3.585-21.51,5.975-45.413,5.18-60.947c-0.797-15.536-3.188-47.006-3.188-47.006
		s-7.569,35.851-17.926,48.2c-10.358,12.351-18.723,18.325-21.512,21.112c-2.789,2.79-11.552,13.544-11.552,13.544l-8.765-32.664
		c0,0,24.697-5.179,31.47-25.495c6.373-20.316,15.139-54.575,16.333-70.11c1.196-15.138,3.187-34.258,3.187-34.258
		s-13.146,34.657-27.884,45.412c-14.74,10.756-23.504,14.74-23.504,14.74l-8.366,5.974l-3.186-33.859
		c0,0,23.104-2.789,34.259-21.512c8.763-14.341,15.534-27.488,20.317-48.601c4.779-21.111,9.957-42.224,9.957-42.224
		s-19.918,27.885-27.089,33.86c-2.787,2.389-15.933,11.154-22.307,13.146c-5.976,1.991-16.731,7.569-16.731,7.569l3.586-35.853
		c0,0,23.502-0.399,35.054-18.325c11.953-18.324,39.039-82.062,39.039-82.062s-17.129,23.902-30.672,30.276
		c-13.545,5.976-11.553,3.983-23.504,7.17c-11.951,3.186-15.138,6.374-15.138,6.374l7.171-39.835c0,0,22.705,5.576,47.803-23.505
		c13.146-15.135,34.656-62.142,34.656-62.142s-20.715,21.112-30.274,25.495c-10.358,4.78-17.526,5.576-23.105,5.576
		c-5.178,0-13.942,0.399-13.942,0.399l13.942-40.633c0,0,27.088,1.992,39.437-11.951c12.349-13.942,43.821-60.949,43.821-60.949
		s-16.731,17.53-33.063,21.911c-16.334,4.381-30.276,1.195-30.276,1.195l20.715-42.226c0,0,21.113,5.975,45.412-17.527
		c24.301-23.504,38.241-47.405,38.241-47.405s-25.892,19.917-43.817,20.715c-17.927,0.796-17.527-3.188-17.527-3.188l52.981-92.817
		l-60.152,89.631c0,0-11.551-10.358-13.942-24.301c-2.392-13.94,6.771-49.794,6.771-49.794s-24.299,34.259-31.469,65.331
		c-6.772,31.071-2.392,36.649,0,42.625c2.389,5.976,12.746,11.153,12.746,11.153l-23.105,43.42c0,0-17.925-11.551-18.324-23.899
		c-0.397-12.749,1.993-45.414,1.993-45.414s-18.723,34.658-24.3,71.705c-4.383,27.884,9.958,41.828,9.958,41.828l11.951,7.567
		l-13.943,39.437c0,0-17.128-8.364-23.502-21.909c-6.373-13.543-6.373-45.411-6.373-45.411s-13.146,28.68-11.95,64.931
		c1.192,36.249,6.374,43.021,13.146,49.395c6.373,5.976,12.747,7.569,12.747,7.569l-7.17,40.234c0,0-16.334-5.975-26.691-20.315
		c-10.357-14.342-13.544-45.812-13.544-45.812s-8.765,45.412-5.177,68.12c3.583,22.705,10.355,40.631,20.714,50.591
		c7.168,7.17,17.129,6.772,17.129,6.772l-0.798,35.055c0,0-13.942-1.194-25.893-11.554c-12.35-10.356-21.512-27.086-23.502-34.256
		c-2.391-7.57-4.782-17.529-4.782-17.529s-0.797,57.763,9.163,85.646c16.73,46.209,44.616,39.837,44.616,39.837l4.778,34.258
		c0,0-12.348-3.188-23.104-7.171c-10.754-3.982-27.884-17.129-33.461-28.285c-5.577-11.151-8.765-24.696-8.765-24.696
		s1.595,56.964,19.519,86.444c17.929,29.479,27.09,33.859,33.861,35.853c6.772,1.99,22.706,1.592,22.706,1.592l7.172,29.879
		c0,0-20.715,2.785-38.641-6.773c-16.334-8.765-31.87-27.885-33.86-32.665c-2.391-4.781-6.374-13.943-6.374-13.943
		s15.136,70.907,41.428,98.793c15.138,16.331,27.089,22.705,35.853,23.501c8.765,1.196,23.104-1.99,23.104-1.99
		s14.341,23.504,13.544,23.504c-1.195-0.397-13.544,4.778-42.623-1.596c-21.113-3.98-51.388-43.818-51.388-43.818
		s20.316,64.933,63.338,99.191c10.755,8.762,31.47,17.927,37.444,18.325c15.537,0.796,27.089-4.78,27.089-4.78l14.739,18.324
		c0,0-27.886,9.559-51.387,1.991c-23.504-7.568-52.185-35.454-52.185-35.454s40.233,61.347,69.711,81.266
		c29.48,19.919,32.267,23.104,54.177,23.502c21.908,0.398,29.079-9.958,29.079-9.958l17.928,17.527c0,0-6.374,4.778-22.707,6.771
		c-15.934,2.39-22.705,3.188-42.226-1.592c-19.917-4.781-48.2-25.895-48.2-25.895s39.835,50.988,105.564,82.062
		c9.559,4.78,35.053,8.365,49.395,4.382c13.942-4.382,16.333-13.146,16.333-13.146l21.114,14.342c0,0-15.936,10.355-27.886,12.35
		c-11.95,1.99-30.274,4.778-46.608,0c-16.333-4.782-41.03-15.139-41.03-15.139l85.247,51.387c0,0,27.089-10.754,52.583-16.729
		C417.373,1266.27,455.617,1260.693,455.617,1260.693z"/>
	<path fill="#FFFFFF" d="M437.29,1192.175c0,0,50.992,34.26,63.739,43.422c13.146,9.161,23.9,19.519,23.9,19.519l-52.981,3.586
		c0,0,1.594-17.927-10.356-35.056C450.038,1206.117,437.29,1192.175,437.29,1192.175z"/>
</g>
</svg>
