<?xml version="1.0" encoding="utf-8"?>
<!-- Generator: Adobe Illustrator 22.0.1, SVG Export Plug-In . SVG Version: 6.00 Build 0)  -->
<svg version="1.1" id="Layer_1" xmlns="http://www.w3.org/2000/svg" xmlns:xlink="http://www.w3.org/1999/xlink" x="0px" y="0px"
	 viewBox="0 0 612 792" style="enable-background:new 0 0 612 792;" xml:space="preserve">
<style type="text/css">
	.st0{fill:#FFFFFF;}
	.st1{fill:#FCFCFC;}
</style>
<g>
	<path class="st0" d="M201.3,283.2l-5.6-22.2h5.1c2.1,10.2,3,14.7,3.3,17.1l0,0c0.8-4.1,3-11.8,4.3-17.1h4.3
		c1.1,4.2,3.4,12.8,4.1,16.9l0,0c0.7-4.9,2.9-13.5,3.7-16.9h4.7l-6,22.2h-5c-1.2-4.9-3.1-12.1-3.9-15.9l0,0
		c-0.8,3.9-2.8,11.4-4,15.9H201.3z"/>
	<path class="st0" d="M245.3,273.7h-10.6v5.6h11.7l-0.6,3.9H230V261h15.7v3.9h-11.1v4.7h10.6v4.1H245.3z"/>
	<path class="st0" d="M251.9,261.1h8.8c6.5,0,10.7,4.2,10.7,10.8c0,6.5-4.1,11.4-10.9,11.4h-8.6V261.1z M256.6,279.3h3.6
		c4.2,0,6.1-3.2,6.1-7.5c0-3.6-1.8-6.9-6.1-6.9h-3.6V279.3z"/>
	<path class="st0" d="M277.5,261.1h8.8c6.5,0,10.7,4.2,10.7,10.8c0,6.5-4.1,11.4-10.9,11.4h-8.6V261.1z M282.3,279.3h3.6
		c4.2,0,6.1-3.2,6.1-7.5c0-3.6-1.8-6.9-6.1-6.9h-3.6V279.3z"/>
	<path class="st0" d="M308,261.1v22.2h-4.8v-22.2H308z"/>
	<path class="st0" d="M315.3,283.2V261h5.9c2.8,5,7.9,13.9,8.9,16.4h0.1c-0.2-2.3-0.2-6.2-0.2-9.8V261h4.3v22.2h-5.6
		c-2.4-4.3-8-14.6-9.1-17.2h-0.1c0.2,1.9,0.2,6.5,0.2,10.5v6.7H315.3z"/>
	<path class="st0" d="M360.9,283.2h-3.5c-0.2-0.7-0.3-1.4-0.4-2.2c-1.2,1.7-3.4,2.6-6.5,2.6c-6.4,0-10-4.9-10-11.2
		c0-6.7,3.9-11.7,10.9-11.7c5.7,0,9.1,3.2,9.6,7h-4.8c-0.5-1.5-1.6-3.2-4.9-3.2c-4.5,0-5.8,3.8-5.8,7.7c0,3.8,1.5,7.6,5.9,7.6
		c4.1,0,4.8-2.8,4.8-4.8v-0.2h-4.9v-3.9h9.6L360.9,283.2L360.9,283.2z"/>
	<path class="st0" d="M372.2,283.2l-6.2-22.5h1.8c1.5,5.4,4.9,17.8,5.4,20.5l0,0c0.4-2.1,4.1-14.5,5.7-20.5h1.9
		c1.5,5.5,5.1,18.7,5.4,20.4l0,0c0.7-3.2,4.5-15.1,6-20.4h1.8l-6.9,22.5h-2c-1.5-5.3-5-18.3-5.4-20.2l0,0c-0.6,2.9-4,14.7-5.7,20.2
		H372.2z"/>
	<path class="st0" d="M401.9,260.7v22.5h-1.7v-22.5H401.9z"/>
	<path class="st0" d="M412.3,272.7v10.5h-1.8v-22.5h8.1c4.4,0,6.8,2.4,6.8,5.9c0,2.9-1.7,4.7-4.2,5.3c2.3,0.5,3.9,2.1,3.9,5.9v0.9
		c0,1.6-0.1,3.7,0.3,4.6h-1.8c-0.4-1-0.3-2.8-0.3-4.7V278c0-3.7-1.1-5.2-5.4-5.2L412.3,272.7L412.3,272.7z M412.3,271.1h5.4
		c4,0,5.8-1.5,5.8-4.4c0-2.8-1.8-4.3-5.3-4.3h-5.9V271.1z"/>
	<path class="st0" d="M446.1,272.2h-11.5v9.4h12.6l-0.3,1.6h-14v-22.5h13.8v1.6h-12v8.2h11.5v1.7H446.1z"/>
</g>
<g>
	<path class="st0" d="M203.6,385.6l-5.3,14.9h-6.6l17.7-49.7h8.1l18.5,49.7h-7l-5.5-14.9H203.6z M221.8,380
		c-4.7-13.1-7.3-20-8.4-23.8h-0.1c-1.2,4.2-4.1,12.6-7.9,23.8H221.8z"/>
	<path class="st0" d="M245.4,364.3c4.5,17,7.1,26.7,7.7,30.4h0.1c0.6-3.4,3.2-12.4,8.3-30.4h6.1c5.7,20.5,7.4,26.4,7.9,29.7h0.1
		c0.9-3.9,2.3-9.3,8-29.7h6.3l-11.2,36.2h-6.8c-3.5-13.2-7-25.4-7.8-29.3H264c-0.7,4-3.9,15-8,29.3h-7l-10.5-36.2H245.4z"/>
	<path class="st0" d="M325.2,392.6c0,3.3,0.3,6.9,0.5,7.9h-6c-0.3-0.8-0.5-2.5-0.6-4.7c-1.3,2.4-4.2,5.6-11.2,5.6
		c-8.5,0-12.2-5.6-12.2-11.1c0-8.1,6.3-11.8,17.1-11.8c2.5,0,4.8,0,6.2,0v-3.1c0-3.2-1-7.1-7.8-7.1c-6,0-7.1,3-7.7,5.8h-6
		c0.5-5,3.6-10.8,14-10.7c8.8,0,13.7,3.6,13.7,11.9V392.6z M319.1,382.9c-1.2,0-3.9,0-5.9,0c-7.2,0-11.1,2-11.1,7.1
		c0,3.8,2.6,6.5,7,6.5c8.7,0,9.9-5.9,9.9-12.4v-1.2H319.1z"/>
	<path class="st0" d="M338.5,374.2c0-5.1,0-7.9-0.1-9.8h6.1c0.1,1,0.2,3.9,0.2,7.4c1.9-4.9,6.2-8.1,12.2-8.2v6.2
		c-7.4,0.2-12.2,4.1-12.2,13.3v17.6h-6.3L338.5,374.2L338.5,374.2z"/>
	<path class="st0" d="M395.7,348.1v42.2c0,3.4,0,6.7,0.1,10.2h-6c-0.2-1-0.3-3.7-0.3-5.1c-1.8,3.8-5.5,6-11.4,6
		c-9.3,0-15-7.5-15-18.6s6.2-19.3,16.2-19.3c6.4,0,9.3,2.6,10.2,4.6v-20L395.7,348.1L395.7,348.1z M369.5,382.6
		c0,8.7,4.2,13.5,9.8,13.5c8.5,0,10.3-6.2,10.3-14.2s-1.7-13.1-9.8-13.1C373.4,368.8,369.5,373.8,369.5,382.6z"/>
	<path class="st0" d="M411.5,390.2c1,4,4,6.3,8.9,6.3c5.3,0,7.4-2.3,7.4-5.6c0-3.4-1.7-5-8.6-6.6c-10.3-2.5-12.5-5.7-12.5-10.6
		c0-5.1,3.8-10.2,13.1-10.2c9.3,0,13.2,5.4,13.6,10.5h-6c-0.5-2.3-2.3-5.6-7.9-5.6c-5.1,0-6.6,2.4-6.6,4.8c0,2.7,1.5,4,8.1,5.6
		c11,2.6,13.2,6.3,13.2,11.7c0,6.3-5,11-14,11c-9.4,0-14-4.7-14.9-11.2L411.5,390.2L411.5,390.2z"/>
	<path class="st0" d="M451.1,357.5c0,4.6-3.6,8.3-8.4,8.3c-4.7,0-8.4-3.6-8.4-8.3c0-4.5,3.7-8.2,8.4-8.2
		C447.5,349.3,451.1,353,451.1,357.5z M436.4,357.5c0,3.6,2.7,6.5,6.4,6.5c3.6,0,6.2-2.9,6.2-6.5s-2.6-6.6-6.3-6.6
		C439.1,351,436.4,353.9,436.4,357.5z M441.4,361.8h-1.9v-8.2c0.7-0.1,1.8-0.2,3.1-0.2c1.5,0,2.2,0.2,2.8,0.6c0.4,0.3,0.8,1,0.8,1.8
		c0,0.9-0.7,1.6-1.7,1.9v0.1c0.8,0.3,1.2,0.9,1.5,2c0.2,1.2,0.4,1.7,0.6,2h-2c-0.2-0.3-0.4-1-0.6-2c-0.1-0.9-0.6-1.3-1.7-1.3h-0.9
		L441.4,361.8L441.4,361.8z M441.5,357.2h0.9c1,0,1.9-0.3,1.9-1.2c0-0.7-0.5-1.2-1.7-1.2c-0.5,0-0.8,0.1-1,0.1L441.5,357.2
		L441.5,357.2z"/>
</g>
<g>
	<path class="st0" d="M211,324.4c-0.7,3.4-3.3,6-8,6c-5.9,0-8.6-4.1-8.6-9.4c0-5.1,2.9-9.6,8.8-9.6c4.9,0,7.3,2.9,7.7,6h-4
		c-0.4-1.4-1.4-2.8-3.9-2.8c-3.3,0-4.6,3-4.6,6.3c0,3.1,1.1,6.4,4.7,6.4c2.6,0,3.4-1.7,3.8-2.8h4.1V324.4z"/>
	<path class="st0" d="M232.4,320.8c0,5.1-3.1,9.6-9.1,9.6c-5.8,0-8.8-4.2-8.8-9.5c0-5.4,3.3-9.5,9.1-9.5
		C229,311.4,232.4,315.2,232.4,320.8z M218.7,320.8c0,3.6,1.6,6.3,4.9,6.3c3.6,0,4.8-3,4.8-6.3c0-3.5-1.4-6.2-4.9-6.2
		C220.1,314.6,218.7,317.2,218.7,320.8z"/>
	<path class="st0" d="M240.8,311.7v11c0,3.5,1.8,4.6,3.8,4.6c2.3,0,3.7-1.2,3.7-4.6v-11h4v10.8c0,6.3-3.7,7.9-7.8,7.9
		c-4.2,0-7.8-1.7-7.8-7.8v-10.9H240.8z"/>
	<path class="st0" d="M257.7,311.7h7.6c3.9,0,6.6,2.2,6.6,5.7c0,4-3,5.9-6.7,5.9h-3.5v6.9h-4V311.7z M261.7,320h3
		c1.8,0,3.2-0.7,3.2-2.6s-1.4-2.6-3.1-2.6h-3.1V320z"/>
	<path class="st0" d="M276.1,311.7h4v15.2h9.2l-0.5,3.3h-12.7V311.7z"/>
	<path class="st0" d="M305.5,322.2h-8.8v4.7h9.7l-0.5,3.3h-13.1v-18.5h13.1v3.3h-9.2v4h8.8V322.2z"/>
	<path class="st0" d="M313.4,324.7c0.4,1.9,1.8,2.7,3.9,2.7s3-0.8,3-2.2c0-1.5-0.9-2.2-4-2.9c-5-1.2-6.3-3-6.3-5.5
		c0-3.2,2.4-5.4,6.8-5.4c4.9,0,6.9,2.6,7.1,5.3h-4c-0.2-1.1-0.8-2.4-3.2-2.4c-1.6,0-2.6,0.7-2.6,2s0.8,1.8,3.8,2.5
		c5.4,1.3,6.5,3.3,6.5,5.9c0,3.4-2.6,5.7-7.4,5.7c-4.7,0-7.2-2.3-7.6-5.7H313.4z"/>
	<path class="st0" d="M327.5,318.3c0.6-2.2,1.8-5.1,2.5-6.4l1.5-0.2c-0.6,1.6-1.3,4.3-1.6,6.3L327.5,318.3z"/>
	<path class="st0" d="M358.7,324.4c-0.7,3.4-3.3,6-8,6c-5.9,0-8.6-4.1-8.6-9.4c0-5.1,2.9-9.6,8.8-9.6c4.9,0,7.3,2.9,7.7,6h-4
		c-0.4-1.4-1.4-2.8-3.9-2.8c-3.3,0-4.6,3-4.6,6.3c0,3.1,1.1,6.4,4.7,6.4c2.6,0,3.4-1.7,3.8-2.8h4.1V324.4z"/>
	<path class="st0" d="M362.9,311.7h4v7.2h7.4v-7.2h4v18.5h-4v-8h-7.4v8h-4V311.7z"/>
	<path class="st0" d="M400.9,320.8c0,5.1-3.1,9.6-9.1,9.6c-5.8,0-8.8-4.2-8.8-9.5c0-5.4,3.3-9.5,9.1-9.5
		C397.4,311.4,400.9,315.2,400.9,320.8z M387.1,320.8c0,3.6,1.6,6.3,4.9,6.3c3.6,0,4.8-3,4.8-6.3c0-3.5-1.4-6.2-4.9-6.2
		C388.5,314.6,387.1,317.2,387.1,320.8z"/>
	<path class="st0" d="M409.5,311.7v18.5h-4v-18.5H409.5z"/>
	<path class="st0" d="M430.7,324.4c-0.7,3.4-3.3,6-8,6c-5.9,0-8.6-4.1-8.6-9.4c0-5.1,2.9-9.6,8.8-9.6c4.9,0,7.3,2.9,7.7,6h-4
		c-0.4-1.4-1.4-2.8-3.9-2.8c-3.3,0-4.6,3-4.6,6.3c0,3.1,1.1,6.4,4.7,6.4c2.6,0,3.4-1.7,3.8-2.8h4.1V324.4z"/>
	<path class="st0" d="M447.6,322.2h-8.8v4.7h9.7l-0.5,3.3h-13.1v-18.5H448v3.3h-9.2v4h8.8L447.6,322.2L447.6,322.2z"/>
</g>
<g>
	<polygon class="st0" points="229.6,428.9 235.5,440.9 248.7,442.8 239.1,452.1 241.4,465.3 229.6,459 217.7,465.3 220,452.1 
		210.4,442.8 223.7,440.9 	"/>
	<polygon class="st0" points="276.4,428.9 282.4,440.9 295.6,442.8 286,452.1 288.3,465.3 276.4,459 264.6,465.3 266.9,452.1 
		257.3,442.8 270.5,440.9 	"/>
	<polygon class="st0" points="322.9,428.9 328.8,440.9 342,442.8 332.4,452.1 334.7,465.3 322.9,459 311,465.3 313.3,452.1 
		303.7,442.8 317,440.9 	"/>
	<polygon class="st0" points="368.1,428.9 374,440.9 387.2,442.8 377.6,452.1 379.9,465.3 368.1,459 356.3,465.3 358.5,452.1 
		349,442.8 362.2,440.9 	"/>
	<polygon class="st0" points="413.3,428.9 419.2,440.9 432.4,442.8 422.9,452.1 425.1,465.3 413.3,459 401.5,465.3 403.8,452.1 
		394.2,442.8 407.4,440.9 	"/>
</g>
<g>
	<path class="st0" d="M272.8,545.9v-0.3c0-4.6,3-9.3,9.6-14.3c5.1-3.9,6.5-5.1,6.5-8.6c0-3.2-1.7-5.6-5.5-5.6s-5.6,2-6.3,5.9H273
		c0.6-5.4,4-9.4,10.5-9.4c7.1,0,9.9,4.6,9.9,9c0,4.8-2,6.7-7.9,11.2c-4.4,3.4-6.7,5.9-7.5,8.3h16.6l-0.6,3.7L272.8,545.9
		L272.8,545.9z"/>
	<path class="st0" d="M322.3,529.8c0,7.9-2.2,16.7-11.1,16.7c-8.7,0-11.1-8.2-11.1-16.4c0-8.1,2.6-16.4,11.2-16.4
		C319.9,513.6,322.3,521.7,322.3,529.8z M304.6,530c0,6,1,12.8,6.6,12.8s6.6-6.5,6.6-13c0-6.1-1-12.6-6.5-12.6
		C305.8,517.2,304.6,523,304.6,530z"/>
	<path class="st0" d="M334.8,545.9v-26.7c-1.6,1.1-4.8,2.5-6.6,2.8v-3.4c2.4-0.7,5.5-2.5,7.7-4.5h3.2V546L334.8,545.9L334.8,545.9z"
		/>
	<path class="st0" d="M364.9,521.1c-0.6-2.3-2.1-4-5.3-4c-5.3,0-7.1,5-7.2,11.7c1.3-2.2,3.7-4.4,8-4.4c6.1,0,9.7,4.5,9.7,10.6
		c0,6.2-3.7,11.5-10.7,11.5c-8.7,0-11.3-7.1-11.3-16c0-8.7,2.8-16.9,11.7-16.9c6.5,0,9,4.2,9.4,7.5L364.9,521.1L364.9,521.1z
		 M365.7,535.2c0-3.5-1.4-7.3-6.2-7.3c-3.9,0-6.7,2.5-6.7,7.3c0,2.6,1.3,7.7,6.6,7.7C363.9,542.9,365.7,539.2,365.7,535.2z"/>
</g>
<path class="st1" d="M159.9,213.7v365.5H483V213.7H159.9z M471.3,224.4v266.7H171.6V224.4H471.3z M171.6,568.4v-72.5h299.7v72.5
	H171.6z"/>
</svg>
