<?xml version="1.0" encoding="utf-8"?>
<!-- Generator: Adobe Illustrator 22.0.1, SVG Export Plug-In . SVG Version: 6.00 Build 0)  -->
<svg version="1.1" id="Layer_1" xmlns="http://www.w3.org/2000/svg" xmlns:xlink="http://www.w3.org/1999/xlink" x="0px" y="0px"
	 viewBox="0 0 612 792" style="enable-background:new 0 0 612 792;" xml:space="preserve">
<style type="text/css">
	.st0{fill:#FFFFFF;}
	.st1{fill:#FDFEFF;}
</style>
<g>
	<g>
		<path class="st0" d="M172.2,552.7l-6-23.5h5.4c2.2,10.8,3.2,15.6,3.5,18.2l0,0c0.9-4.3,3.2-12.5,4.5-18.2h4.6
			c1.2,4.5,3.6,13.6,4.4,17.9l0,0c0.8-5.2,3.1-14.3,3.9-17.9h4.9l-6.4,23.5h-5.3c-1.2-5.2-3.3-12.8-4.1-16.8l0,0
			c-0.9,4.2-3,12.1-4.2,16.8H172.2z"/>
		<path class="st0" d="M217.3,542.6h-11.2v6h12.4l-0.6,4.2h-16.7v-23.5h16.7v4.2h-11.7v5h11.2L217.3,542.6L217.3,542.6z"/>
		<path class="st0" d="M222.8,529.2h9.3c6.9,0,11.3,4.5,11.3,11.5c0,6.9-4.3,12.1-11.5,12.1h-9.1V529.2z M227.9,548.6h3.8
			c4.5,0,6.5-3.4,6.5-7.9c0-3.8-1.9-7.4-6.5-7.4h-3.8V548.6z"/>
		<path class="st0" d="M248.5,529.2h9.3c6.9,0,11.3,4.5,11.3,11.5c0,6.9-4.3,12.1-11.5,12.1h-9.1L248.5,529.2L248.5,529.2z
			 M253.6,548.6h3.8c4.5,0,6.5-3.4,6.5-7.9c0-3.8-1.9-7.4-6.5-7.4h-3.8L253.6,548.6L253.6,548.6z"/>
		<path class="st0" d="M279.4,529.2v23.5h-5.1v-23.5H279.4z"/>
		<path class="st0" d="M285.6,552.7v-23.5h6.3c2.9,5.3,8.4,14.8,9.4,17.4h0.1c-0.3-2.5-0.3-6.5-0.3-10.4v-7h4.6v23.5h-6
			c-2.5-4.6-8.5-15.5-9.7-18.3h-0.1c0.2,2.1,0.2,6.9,0.2,11.1v7.2H285.6z"/>
		<path class="st0" d="M332.5,552.7h-3.7c-0.2-0.7-0.3-1.5-0.4-2.3c-1.3,1.8-3.6,2.7-6.9,2.7c-6.8,0-10.6-5.2-10.6-11.9
			c0-7.1,4.1-12.4,11.5-12.4c6.1,0,9.6,3.4,10.2,7.4h-5.1c-0.5-1.6-1.7-3.4-5.2-3.4c-4.8,0-6.2,4-6.2,8.2c0,4,1.6,8,6.2,8
			c4.3,0,5.1-3,5.1-5.1v-0.2h-5.2v-4.2h10.1v13.2H332.5z"/>
		<path class="st0" d="M343,552.7l-6.6-23.9h1.9c1.6,5.7,5.2,18.9,5.8,21.7l0,0c0.4-2.2,4.4-15.4,6-21.7h2
			c1.6,5.8,5.4,19.9,5.8,21.7l0,0c0.8-3.4,4.7-16,6.4-21.7h1.9l-7.3,23.9h-2.1c-1.6-5.6-5.3-19.4-5.7-21.5l0,0
			c-0.6,3.1-4.3,15.6-6,21.5H343z"/>
		<path class="st0" d="M373,528.8v23.9h-1.8v-23.9H373z"/>
		<path class="st0" d="M382.6,541.6v11.2h-1.9v-23.9h8.6c4.7,0,7.2,2.5,7.2,6.3c0,3-1.8,5-4.5,5.6c2.5,0.6,4.1,2.2,4.1,6.2v0.9
			c0,1.7-0.1,3.9,0.3,4.8h-1.9c-0.4-1-0.3-2.9-0.3-5v-0.6c0-3.9-1.2-5.6-5.7-5.6L382.6,541.6L382.6,541.6z M382.6,539.9h5.8
			c4.2,0,6.1-1.6,6.1-4.7c0-2.9-1.9-4.6-5.6-4.6h-6.3V539.9z"/>
		<path class="st0" d="M417,541h-12.2v10h13.3l-0.3,1.7H403v-23.9h14.6v1.7h-12.8v8.7H417V541z"/>
	</g>
	<g>
		<path class="st0" d="M220.6,467.9c0,6.1-3.5,11-9.9,11c-6.1,0-9.7-4.6-9.7-10.9c0-6.2,3.6-10.9,10-10.9
			C216.7,457,220.6,461.3,220.6,467.9z M205,467.9c0,4.5,2.2,7.6,5.7,7.6c3.6,0,5.7-3,5.7-7.6s-2-7.6-5.7-7.6S205,463.2,205,467.9z"
			/>
		<path class="st0" d="M244.4,472.3c0,2,0,4.7,0,6.1h-3.9c-0.1-0.6-0.1-1.8-0.1-3c-1.1,2.3-3,3.5-6.2,3.5c-3.7,0-6.9-1.9-6.9-7.7
			v-13.7h4v12.8c0,2.7,0.8,5.1,4.1,5.1c3.6,0,5-2,5-7v-10.9h4L244.4,472.3L244.4,472.3z"/>
		<path class="st0" d="M250.5,457.5h3.5v-6.1h4v6.1h4.5v3.2H258v11.8c0,1.9,0.5,2.9,2.3,2.9c0.5,0,1.2,0,1.7-0.2v3
			c-0.9,0.3-2.2,0.4-3.3,0.4c-3.4,0-4.8-1.8-4.8-5.3v-12.6h-3.5L250.5,457.5L250.5,457.5z"/>
		<path class="st0" d="M299.4,467.9c0,6.1-3.5,11-9.9,11c-6.1,0-9.7-4.6-9.7-10.9c0-6.2,3.6-10.9,10-10.9
			C295.5,457,299.4,461.3,299.4,467.9z M283.9,467.9c0,4.5,2.2,7.6,5.7,7.6c3.6,0,5.7-3,5.7-7.6s-2-7.6-5.7-7.6
			S283.9,463.2,283.9,467.9z"/>
		<path class="st0" d="M307,478.3v-17.6h-3.3v-3.2h3.3v-2.4c0-3.9,1.6-7.2,6.2-7.2c0.8,0,1.9,0.1,2.4,0.3v3.3
			c-0.5-0.1-1.2-0.2-1.7-0.2c-2.1,0-2.8,1.2-2.8,4.1v2.1h4.1v3.2H311v17.6L307,478.3L307,478.3z"/>
		<path class="st0" d="M349.4,454.8h-11.2c-0.2,2-0.9,5.8-1.1,7.2c1.1-1.2,2.8-2,5.5-2c5,0,8.2,3.5,8.2,8.9c0,5.2-2.8,9.9-9.4,9.9
			c-4.9,0-8.5-2.7-9.2-7.3h4.1c0.6,2.3,2.3,4,5.2,4c3.5,0,5.2-2.5,5.2-6.3c0-3.4-1.4-5.9-5-5.9c-3.1,0-4.4,1.3-5.3,3.4l-3.7-0.6
			c0.8-3.5,1.8-11.3,2.2-14.7H350L349.4,454.8z"/>
		<path class="st0" d="M357.1,478.3V472h4.2v6.3H357.1z"/>
		<path class="st0" d="M386.1,464.7c0,6.8-2,14.1-9.6,14.1c-7.5,0-9.6-6.9-9.6-14c0-7,2.3-14,9.7-14
			C383.9,450.9,386.1,457.6,386.1,464.7z M371.1,464.8c0,5.1,0.8,10.6,5.4,10.6s5.3-5.2,5.3-10.8c0-5.2-0.8-10.4-5.2-10.4
			C372.2,454.3,371.1,458.9,371.1,464.8z"/>
	</g>
	<g>
		<path class="st0" d="M237.4,435.9v-35.7h-61.7v-9.9l61.4-82.7h10.6v82.9H265l-1.4,9.6h-15.9v35.7h-10.3V435.9z M237.4,352.1
			c0-7.4,0.2-23.2,0.4-31.7c-5.3,9.4-35.6,49.8-50.3,70.2h49.9V352.1z"/>
		<path class="st0" d="M403.1,317.5H348c-1.4,12.5-5.2,36.5-6.8,44.4c5.8-7.3,14.9-12.5,29.3-12.5c22.3,0,38,15.1,38,42.5
			c0,25.1-12.9,46.4-41.7,46.4c-21.3,0-36.6-12.5-40.3-33.6h10.7c3.3,13.5,13.2,24,30.2,24c20.1,0,30.2-14.1,30.2-36.2
			c0-18.6-8.1-33.3-27.9-33.3c-17.8,0-25.2,7.4-30.7,19.3l-10.1-2.7c4.1-17.1,8.6-52.9,10.3-68.1h65.2L403.1,317.5z"/>
	</g>
	<path class="st0" d="M118.7,194.9v400.9h352.9V194.9H118.7z M463.7,588h-337V202.6h337V588z"/>
	<circle class="st0" cx="292.3" cy="430.8" r="8.1"/>
	<g>
		<polygon class="st1" points="201.3,229.6 207,241 219.6,242.9 210.5,251.7 212.6,264.3 201.3,258.4 190.1,264.3 192.2,251.7 
			183.1,242.9 195.7,241 		"/>
		<polygon class="st1" points="246,229.6 251.7,241 264.3,242.9 255.2,251.7 257.3,264.3 246,258.4 234.8,264.3 236.9,251.7 
			227.8,242.9 240.4,241 		"/>
		<polygon class="st1" points="290.3,229.6 295.9,241 308.5,242.9 299.4,251.7 301.5,264.3 290.3,258.4 279,264.3 281.2,251.7 
			272.1,242.9 284.7,241 		"/>
		<polygon class="st1" points="333.4,229.6 339,241 351.6,242.9 342.5,251.7 344.7,264.3 333.4,258.4 322.1,264.3 324.3,251.7 
			315.2,242.9 327.8,241 		"/>
		<path class="st1" d="M394.7,242.9l-12.6-1.8l-5.6-11.4l-5.6,11.4l-12.6,1.8l9.1,8.9l-2.2,12.5l11.3-5.9l11.3,5.9l-2.2-12.5
			L394.7,242.9z M376.8,256.3l0.2-21.8l4.3,8.3c0.5,0.1,9.4,1.2,9.4,1.2l-7.1,6.8l1.7,10.5L376.8,256.3z"/>
	</g>
</g>
</svg>
