<?xml version="1.0" encoding="utf-8"?>
<!-- Generator: Adobe Illustrator 22.0.1, SVG Export Plug-In . SVG Version: 6.00 Build 0)  -->
<svg version="1.1" id="Layer_1" xmlns="http://www.w3.org/2000/svg" xmlns:xlink="http://www.w3.org/1999/xlink" x="0px" y="0px"
	 viewBox="0 0 95.5 108" style="enable-background:new 0 0 95.5 108;" xml:space="preserve">
<style type="text/css">
	.st0{fill:#565656;}
	.st1{fill:none;stroke:#565656;stroke-width:0.7098;stroke-miterlimit:10;}
	.st2{fill:none;stroke:#565656;stroke-width:0.7408;stroke-miterlimit:10;}
</style>
<g>
	<g>
		<path class="st0" d="M16.6,93.5l-1.5-5.9h1.4c0.6,2.7,0.8,3.9,0.9,4.6h0c0.2-1.1,0.8-3.2,1.1-4.6h1.2c0.3,1.1,0.9,3.4,1.1,4.5h0
			c0.2-1.3,0.8-3.6,1-4.5H23l-1.6,5.9h-1.3c-0.3-1.3-0.8-3.2-1-4.3h0c-0.2,1.1-0.8,3.1-1.1,4.3H16.6z"/>
		<path class="st0" d="M28.1,91h-2.8v1.5h3.1l-0.2,1.1H24v-5.9h4.2v1.1h-3v1.3h2.8V91z"/>
		<path class="st0" d="M29.5,87.6h2.4c1.7,0,2.9,1.1,2.9,2.9c0,1.7-1.1,3-2.9,3h-2.3V87.6z M30.8,92.5h1c1.1,0,1.6-0.8,1.6-2
			c0-1-0.5-1.9-1.6-1.9h-1V92.5z"/>
		<path class="st0" d="M36,87.6h2.4c1.7,0,2.9,1.1,2.9,2.9c0,1.7-1.1,3-2.9,3H36V87.6z M37.3,92.5h1c1.1,0,1.6-0.8,1.6-2
			c0-1-0.5-1.9-1.6-1.9h-1V92.5z"/>
		<path class="st0" d="M43.8,87.6v5.9h-1.3v-5.9H43.8z"/>
		<path class="st0" d="M45.4,93.5v-5.9H47c0.7,1.3,2.1,3.7,2.4,4.4h0c-0.1-0.6-0.1-1.7-0.1-2.6v-1.8h1.2v5.9H49
			c-0.6-1.2-2.2-3.9-2.5-4.6h0c0,0.5,0.1,1.7,0.1,2.8v1.8H45.4z"/>
		<path class="st0" d="M57.2,93.5h-0.9c0-0.2-0.1-0.4-0.1-0.6c-0.3,0.4-0.9,0.7-1.7,0.7c-1.7,0-2.7-1.3-2.7-3c0-1.8,1-3.1,2.9-3.1
			c1.5,0,2.4,0.9,2.6,1.9H56c-0.1-0.4-0.4-0.9-1.3-0.9c-1.2,0-1.6,1-1.6,2.1c0,1,0.4,2,1.6,2c1.1,0,1.3-0.8,1.3-1.3v-0.1h-1.3v-1.1
			h2.6V93.5z"/>
		<path class="st0" d="M59.9,93.5l-1.7-6h0.5c0.4,1.4,1.3,4.8,1.5,5.5h0c0.1-0.6,1.1-3.9,1.5-5.5h0.5c0.4,1.5,1.4,5,1.5,5.5h0
			c0.2-0.9,1.2-4,1.6-5.5h0.5l-1.8,6h-0.5c-0.4-1.4-1.3-4.9-1.4-5.4h0c-0.2,0.8-1.1,3.9-1.5,5.4H59.9z"/>
		<path class="st0" d="M67.4,87.5v6H67v-6H67.4z"/>
		<path class="st0" d="M69.8,90.7v2.8h-0.5v-6h2.2c1.2,0,1.8,0.6,1.8,1.6c0,0.8-0.5,1.3-1.1,1.4c0.6,0.1,1,0.6,1,1.6v0.2
			c0,0.4,0,1,0.1,1.2h-0.5c-0.1-0.3-0.1-0.7-0.1-1.3v-0.2c0-1-0.3-1.4-1.4-1.4H69.8z M69.8,90.3h1.5c1.1,0,1.6-0.4,1.6-1.2
			c0-0.7-0.5-1.2-1.4-1.2h-1.6V90.3z"/>
		<path class="st0" d="M78.4,90.6h-3.1v2.5h3.4l-0.1,0.4h-3.8v-6h3.7v0.4h-3.2v2.2h3.1V90.6z"/>
	</g>
</g>
<g>
	<g>
		<path class="st0" d="M28.8,72.6c0,1.5-0.9,2.8-2.5,2.8c-1.5,0-2.5-1.2-2.5-2.7c0-1.6,0.9-2.8,2.5-2.8
			C27.9,69.8,28.8,70.9,28.8,72.6z M24.9,72.6c0,1.1,0.5,1.9,1.4,1.9c0.9,0,1.4-0.8,1.4-1.9c0-1.2-0.5-1.9-1.4-1.9
			C25.4,70.7,24.9,71.4,24.9,72.6z"/>
		<path class="st0" d="M34.9,73.7c0,0.5,0,1.2,0,1.5h-1c0-0.1,0-0.5,0-0.8c-0.3,0.6-0.8,0.9-1.6,0.9c-0.9,0-1.7-0.5-1.7-1.9v-3.5h1
			v3.2c0,0.7,0.2,1.3,1,1.3c0.9,0,1.3-0.5,1.3-1.8v-2.8h1V73.7z"/>
		<path class="st0" d="M36.3,69.9h0.9v-1.5h1v1.5h1.1v0.8h-1.1v3c0,0.5,0.1,0.7,0.6,0.7c0.1,0,0.3,0,0.4,0v0.7
			c-0.2,0.1-0.6,0.1-0.8,0.1c-0.9,0-1.2-0.4-1.2-1.3v-3.2h-0.9V69.9z"/>
		<path class="st0" d="M48.6,72.6c0,1.5-0.9,2.8-2.5,2.8c-1.5,0-2.5-1.2-2.5-2.7c0-1.6,0.9-2.8,2.5-2.8
			C47.7,69.8,48.6,70.9,48.6,72.6z M44.7,72.6c0,1.1,0.5,1.9,1.4,1.9c0.9,0,1.4-0.8,1.4-1.9c0-1.2-0.5-1.9-1.4-1.9
			C45.2,70.7,44.7,71.4,44.7,72.6z"/>
		<path class="st0" d="M50.5,75.2v-4.5h-0.8v-0.8h0.8v-0.6c0-1,0.4-1.8,1.6-1.8c0.2,0,0.5,0,0.6,0.1v0.8c-0.1,0-0.3,0-0.4,0
			c-0.5,0-0.7,0.3-0.7,1v0.5h1v0.8h-1v4.5H50.5z"/>
		<path class="st0" d="M61.2,69.3h-2.8c-0.1,0.5-0.2,1.5-0.3,1.8c0.3-0.3,0.7-0.5,1.4-0.5c1.3,0,2.1,0.9,2.1,2.3
			c0,1.3-0.7,2.5-2.4,2.5c-1.2,0-2.1-0.7-2.3-1.8h1c0.2,0.6,0.6,1,1.3,1c0.9,0,1.3-0.6,1.3-1.6c0-0.8-0.3-1.5-1.3-1.5
			c-0.8,0-1.1,0.3-1.3,0.9L57,72.1c0.2-0.9,0.5-2.8,0.6-3.7h3.8L61.2,69.3z"/>
		<path class="st0" d="M63.2,75.2v-1.6h1.1v1.6H63.2z"/>
		<path class="st0" d="M70.7,71.8c0,1.7-0.5,3.6-2.4,3.6c-1.9,0-2.4-1.7-2.4-3.5c0-1.8,0.6-3.5,2.5-3.5C70.2,68.3,70.7,70,70.7,71.8
			z M66.9,71.8c0,1.3,0.2,2.7,1.4,2.7c1.2,0,1.3-1.3,1.3-2.7c0-1.3-0.2-2.6-1.3-2.6C67.2,69.1,66.9,70.3,66.9,71.8z"/>
	</g>
</g>
<g>
	<g>
		<path class="st0" d="M33.1,64.5v-9H17.5V53L33,32.1h2.7v21h4.4l-0.4,2.4h-4v9H33.1z M33.1,43.3c0-1.9,0-5.9,0.1-8
			c-1.3,2.4-9,12.6-12.7,17.7h12.6V43.3z"/>
		<path class="st0" d="M75,34.6H61c-0.3,3.2-1.3,9.2-1.7,11.2c1.5-1.9,3.8-3.2,7.4-3.2c5.6,0,9.6,3.8,9.6,10.7
			c0,6.4-3.3,11.7-10.5,11.7c-5.4,0-9.3-3.2-10.2-8.5h2.7c0.8,3.4,3.3,6.1,7.6,6.1c5.1,0,7.6-3.6,7.6-9.1c0-4.7-2.1-8.4-7-8.4
			c-4.5,0-6.4,1.9-7.8,4.9l-2.5-0.7c1-4.3,2.2-13.4,2.6-17.2h16.5L75,34.6z"/>
	</g>
</g>
<rect x="5.1" y="5.5" class="st1" width="85.2" height="97.4"/>
<rect x="3.1" y="3.6" class="st2" width="89.2" height="101.3"/>
<circle class="st0" cx="47" cy="63.2" r="2.1"/>
<g>
	<g>
		<polygon class="st0" points="24,12.4 25.4,15.2 28.6,15.7 26.3,17.9 26.8,21.1 24,19.6 21.1,21.1 21.7,17.9 19.4,15.7 22.6,15.2 
					"/>
		<polygon class="st0" points="35.3,12.4 36.7,15.2 39.9,15.7 37.6,17.9 38.1,21.1 35.3,19.6 32.4,21.1 33,17.9 30.7,15.7 
			33.8,15.2 		"/>
		<polygon class="st0" points="46.5,12.4 47.9,15.2 51.1,15.7 48.8,17.9 49.3,21.1 46.5,19.6 43.6,21.1 44.2,17.9 41.8,15.7 
			45,15.2 		"/>
		<polygon class="st0" points="57.4,12.4 58.8,15.2 62,15.7 59.7,17.9 60.2,21.1 57.4,19.6 54.5,21.1 55,17.9 52.7,15.7 55.9,15.2 
					"/>
		<polygon class="st0" points="68.3,12.4 69.7,15.2 72.9,15.7 70.6,17.9 71.1,21.1 68.3,19.6 65.4,21.1 65.9,17.9 63.6,15.7 
			66.8,15.2 		"/>
	</g>
	<path class="st0" d="M69.5,15.7c0.1,0,2.4,0.3,2.4,0.3l-1.8,1.7l0.4,2.6l-2.2-1.3l0.1-5.5L69.5,15.7z"/>
</g>
</svg>
