<?xml version="1.0" encoding="utf-8"?>
<!-- Generator: Adobe Illustrator 22.0.1, SVG Export Plug-In . SVG Version: 6.00 Build 0)  -->
<svg version="1.1" id="Layer_1" xmlns="http://www.w3.org/2000/svg" xmlns:xlink="http://www.w3.org/1999/xlink" x="0px" y="0px"
	 viewBox="0 0 612 792" style="enable-background:new 0 0 612 792;" xml:space="preserve">
<style type="text/css">
	.st0{fill:none;stroke:#FFFFFF;stroke-width:3;stroke-miterlimit:10;}
	.st1{fill:#FFFFFF;}
	.st2{fill:none;stroke:#FFFFFF;stroke-width:2.6025;stroke-linecap:round;stroke-linejoin:round;stroke-miterlimit:10;}
</style>
<circle class="st0" cx="306.6" cy="415.8" r="147"/>
<g>
	<g>
		<g>
			<path class="st1" d="M221.2,374.4l9-22l9,22l6.7-20.8h1.5l-8.1,25l-9.2-22.3l-9.2,22.3l-8.1-25h1.5L221.2,374.4z"/>
			<path class="st1" d="M248.3,370.5c-0.1,3.8,2.5,6.3,5.9,6.3c2.3,0,4.2-1.4,5.2-3.4l1.2,0.7c-1.3,2.6-3.7,4-6.6,4
				c-4.4,0-7.2-3.6-7.2-7.8c0-4.1,2.9-7.7,7.2-7.7c4.5,0,7.1,3.6,7.1,7.9H248.3z M259.7,369.1c-0.4-2.7-2.6-5.2-5.6-5.2
				s-5.5,2.4-5.8,5.2H259.7z"/>
			<path class="st1" d="M276,375.1L276,375.1c-1.2,1.9-3.5,3-5.7,3c-4.5,0-7.3-3.5-7.3-7.8s2.8-7.6,7.2-7.6c2.3,0,4.5,1,5.7,2.9h0.1
				v-14.2h1.4v26.4H276V375.1z M276.1,370.1c0-3.4-2.3-6.1-5.9-6.1c-3.4,0-5.7,3.1-5.7,6.3c0,3.4,2.2,6.5,5.8,6.5
				C274.1,376.7,276.1,373.7,276.1,370.1z"/>
			<path class="st1" d="M293.8,375.1L293.8,375.1c-1.2,1.9-3.5,3-5.7,3c-4.5,0-7.3-3.5-7.3-7.8s2.8-7.6,7.2-7.6c2.3,0,4.5,1,5.7,2.9
				h0.1v-14.2h1.4v26.4h-1.4L293.8,375.1L293.8,375.1z M293.9,370.1c0-3.4-2.3-6.1-5.9-6.1c-3.4,0-5.7,3.1-5.7,6.3
				c0,3.4,2.2,6.5,5.8,6.5C291.9,376.7,293.9,373.7,293.9,370.1z"/>
			<path class="st1" d="M302.6,358c0,0.7-0.6,1.3-1.3,1.3c-0.7,0-1.3-0.6-1.3-1.3c0-0.7,0.6-1.3,1.3-1.3
				C302.1,356.7,302.6,357.3,302.6,358z M302,377.8h-1.4V363h1.4V377.8z"/>
			<path class="st1" d="M308.8,365.3L308.8,365.3c0.9-1.6,2.5-2.6,4.5-2.6c3.8,0,4.9,2.4,4.9,6.2v8.9h-1.4v-8.9
				c0-2.7-0.3-4.8-3.6-4.8c-3.7,0-4.3,3.5-4.3,6.5v7.3h-1.4v-14.8h1.4v2.2H308.8z"/>
			<path class="st1" d="M336.2,377c0,2.3-0.1,4.3-1.5,6.3c-1.4,1.9-3.6,2.9-5.9,2.9c-3.9,0-7.1-2.3-7.3-6.3h1.4c0.2,3.1,2.8,5,5.7,5
				c1.9,0,3.7-0.6,4.7-2.2c1.2-1.7,1.3-3.6,1.3-5.6v-1.8h-0.1c-1.3,1.8-3.5,2.9-5.8,2.9c-4.3,0-7.2-3.6-7.2-7.8c0-4.3,3-7.7,7.4-7.7
				c2.4,0,4.2,1,5.6,2.9h0.1V363h1.4v14H336.2z M323.1,370.3c0,3.4,2.2,6.5,5.8,6.5c3.8,0,5.8-3.1,5.8-6.6c0-3.4-2.3-6.1-5.9-6.1
				C325.5,364,323.1,367,323.1,370.3z"/>
			<path class="st1" d="M347.5,370.9l6.8-17.8l6.8,17.8l6.8-17.3h3.3l-10,25.1l-6.8-17.7l-6.8,17.7l-10-25.1h3.3L347.5,370.9z"/>
			<path class="st1" d="M376.7,355.9c0,1.1-0.9,2-2,2s-2-0.9-2-2s0.9-2,2-2C375.8,353.9,376.7,354.8,376.7,355.9z M376.1,377.8h-2.9
				v-15h2.9V377.8z"/>
			<path class="st1" d="M383.6,365.2L383.6,365.2c0.8-1.8,2.3-2.9,4.2-2.9c0.8,0,1.7,0.3,2.4,0.7l-1.3,2.6c-0.5-0.4-1.1-0.6-1.8-0.6
				c-3.1,0-3.5,2.9-3.5,5.3v7.4h-2.9v-15h2.9L383.6,365.2L383.6,365.2z"/>
			<path class="st1" d="M392.7,370.7c0,2.6,1.8,5,4.5,5c2.2,0,3.4-1.1,4.5-2.9l2.4,1.4c-1.4,2.6-4,4.1-7,4.1c-4.6,0-7.4-3.5-7.4-7.9
				c0-4.6,2.5-8.1,7.3-8.1s7,3.5,7,8v0.4H392.7z M401.3,368.6c-0.4-2.2-1.8-3.8-4.1-3.8c-2.2,0-3.9,1.6-4.3,3.8H401.3z"/>
		</g>
	</g>
	<path class="st1" d="M213.3,439v-50.3h22.3c4.5,0,7.9,0.5,10.2,1.4s4.2,2.5,5.6,4.8c1.4,2.3,2.1,4.8,2.1,7.6c0,3.6-1.2,6.6-3.5,9
		s-5.9,4-10.7,4.7c1.8,0.8,3.1,1.7,4,2.5c1.9,1.8,3.8,4,5.5,6.7l8.8,13.7h-8.4l-6.7-10.5c-1.9-3-3.5-5.3-4.8-6.9s-2.4-2.7-3.4-3.4
		c-1-0.6-2-1.1-3-1.3c-0.8-0.2-2-0.2-3.7-0.2H220V439H213.3z M220,410.9h14.3c3,0,5.4-0.3,7.1-0.9s3-1.6,3.9-3s1.3-2.9,1.3-4.5
		c0-2.4-0.9-4.3-2.6-5.9c-1.7-1.5-4.5-2.3-8.2-2.3H220V410.9z"/>
	<path class="st1" d="M289.5,434.5c-2.3,1.9-4.5,3.3-6.6,4.1c-2.1,0.8-4.4,1.2-6.8,1.2c-4,0-7.1-1-9.2-2.9c-2.2-2-3.2-4.5-3.2-7.5
		c0-1.8,0.4-3.4,1.2-4.9c0.8-1.5,1.9-2.7,3.2-3.6c1.3-0.9,2.8-1.6,4.4-2c1.2-0.3,3-0.6,5.5-0.9c5-0.6,8.7-1.3,11-2.1
		c0-0.8,0-1.4,0-1.6c0-2.5-0.6-4.3-1.8-5.3c-1.6-1.4-3.9-2.1-7-2.1c-2.9,0-5.1,0.5-6.4,1.5c-1.4,1-2.4,2.8-3.1,5.4l-6-0.8
		c0.5-2.6,1.5-4.7,2.7-6.3c1.3-1.6,3.1-2.8,5.5-3.7c2.4-0.9,5.1-1.3,8.3-1.3c3.1,0,5.6,0.4,7.6,1.1c1.9,0.7,3.4,1.7,4.3,2.8
		c0.9,1.1,1.6,2.5,1.9,4.2c0.2,1.1,0.3,3,0.3,5.7v8.2c0,5.7,0.1,9.4,0.4,10.9s0.8,3,1.6,4.4h-6.5
		C290.1,437.7,289.7,436.2,289.5,434.5z M289,420.7c-2.2,0.9-5.6,1.7-10.1,2.3c-2.5,0.4-4.3,0.8-5.4,1.2c-1.1,0.5-1.9,1.1-2.4,2
		c-0.6,0.9-0.9,1.9-0.9,2.9c0,1.6,0.6,3,1.9,4.1c1.2,1.1,3.1,1.6,5.5,1.6s4.5-0.5,6.4-1.6c1.9-1,3.2-2.5,4.1-4.3
		c0.7-1.4,1-3.5,1-6.2v-2H289z"/>
	<path class="st1" d="M320.8,433.5l0.9,5.5c-1.7,0.4-3.3,0.5-4.7,0.5c-2.2,0-4-0.4-5.2-1.1s-2.1-1.6-2.6-2.8
		c-0.5-1.2-0.8-3.6-0.8-7.3v-21h-4.5v-4.8h4.5v-9l6.1-3.7v12.7h6.2v4.8h-6.2v21.3c0,1.8,0.1,2.9,0.3,3.4c0.2,0.5,0.6,0.9,1.1,1.2
		c0.5,0.3,1.2,0.4,2.1,0.4C318.8,433.7,319.7,433.6,320.8,433.5z"/>
	<path class="st1" d="M354.2,427.3l6.4,0.8c-1,3.7-2.9,6.6-5.6,8.7s-6.2,3.1-10.4,3.1c-5.3,0-9.6-1.6-12.7-4.9s-4.7-7.9-4.7-13.8
		c0-6.1,1.6-10.9,4.7-14.3c3.2-3.4,7.3-5.1,12.3-5.1c4.9,0,8.9,1.7,12,5s4.6,8,4.6,14c0,0.4,0,0.9,0,1.6h-27.2
		c0.2,4,1.4,7.1,3.4,9.2s4.6,3.2,7.6,3.2c2.3,0,4.2-0.6,5.8-1.8C352,431.8,353.3,429.9,354.2,427.3z M334,417.3h20.4
		c-0.3-3.1-1.1-5.4-2.3-6.9c-2-2.4-4.5-3.6-7.7-3.6c-2.8,0-5.2,1-7.2,2.9C335.2,411.6,334.2,414.1,334,417.3z"/>
	<path class="st1" d="M394.5,439v-4.6c-2.3,3.6-5.7,5.4-10.2,5.4c-2.9,0-5.6-0.8-8-2.4s-4.3-3.8-5.7-6.7c-1.3-2.9-2-6.2-2-9.9
		c0-3.6,0.6-6.9,1.8-9.9c1.2-3,3-5.2,5.5-6.8c2.4-1.6,5.1-2.4,8.1-2.4c2.2,0,4.2,0.5,5.9,1.4c1.7,0.9,3.1,2.1,4.2,3.6v-18.1h6.1V439
		H394.5z M375,420.8c0,4.7,1,8.2,3,10.5s4.3,3.5,7,3.5s5-1.1,6.9-3.3c1.9-2.2,2.8-5.6,2.8-10.1c0-5-1-8.7-2.9-11s-4.3-3.5-7.1-3.5
		c-2.7,0-5,1.1-6.9,3.4C375.9,412.5,375,416,375,420.8z"/>
	<g>
		<path class="st1" d="M243.4,476.9h-3.2v-12.1c-1.2,1.1-2.6,1.9-4.2,2.4v-2.9c0.8-0.3,1.7-0.8,2.7-1.6c1-0.8,1.7-1.7,2-2.7h2.6
			L243.4,476.9L243.4,476.9z"/>
		<path class="st1" d="M253.6,460.1c1.6,0,2.9,0.6,3.8,1.7c1.1,1.4,1.6,3.6,1.6,6.8c0,3.2-0.5,5.5-1.6,6.8c-0.9,1.1-2.2,1.7-3.8,1.7
			s-2.9-0.6-3.9-1.9s-1.5-3.5-1.5-6.7s0.5-5.4,1.6-6.8C250.7,460.6,252,460.1,253.6,460.1z M253.6,462.7c-0.4,0-0.7,0.1-1,0.4
			c-0.3,0.2-0.5,0.7-0.7,1.3c-0.2,0.8-0.3,2.2-0.3,4.2s0.1,3.3,0.3,4.1c0.2,0.7,0.4,1.2,0.7,1.5c0.3,0.2,0.6,0.4,1,0.4
			s0.7-0.1,1-0.4c0.3-0.2,0.5-0.7,0.7-1.3c0.2-0.8,0.3-2.2,0.3-4.2s-0.1-3.3-0.3-4.1c-0.2-0.7-0.4-1.2-0.7-1.5
			C254.3,462.8,254,462.7,253.6,462.7z"/>
		<path class="st1" d="M266.6,460.1c1.6,0,2.9,0.6,3.8,1.7c1.1,1.4,1.6,3.6,1.6,6.8c0,3.2-0.5,5.5-1.6,6.8c-0.9,1.1-2.2,1.7-3.8,1.7
			c-1.6,0-2.9-0.6-3.9-1.9s-1.5-3.5-1.5-6.7s0.5-5.4,1.6-6.8C263.7,460.6,265,460.1,266.6,460.1z M266.6,462.7c-0.4,0-0.7,0.1-1,0.4
			c-0.3,0.2-0.5,0.7-0.7,1.3c-0.2,0.8-0.3,2.2-0.3,4.2s0.1,3.3,0.3,4.1c0.2,0.7,0.4,1.2,0.7,1.5c0.3,0.2,0.6,0.4,1,0.4
			s0.7-0.1,1-0.4c0.3-0.2,0.5-0.7,0.7-1.3c0.2-0.8,0.3-2.2,0.3-4.2s-0.1-3.3-0.3-4.1c-0.2-0.7-0.4-1.2-0.7-1.5
			C267.3,462.8,267,462.7,266.6,462.7z"/>
		<path class="st1" d="M281.4,476.9v-16.8h7.1c1.8,0,3.1,0.2,3.9,0.5s1.5,0.8,1.9,1.6c0.5,0.8,0.7,1.7,0.7,2.6
			c0,1.3-0.4,2.3-1.1,3.1c-0.7,0.8-1.8,1.3-3.3,1.5c0.7,0.4,1.3,0.9,1.8,1.4s1.1,1.4,1.9,2.7l2,3.3h-4l-2.4-3.6
			c-0.9-1.3-1.5-2.1-1.8-2.5s-0.7-0.6-1-0.7c-0.4-0.1-0.9-0.2-1.7-0.2h-0.7v7h-3.3V476.9z M284.8,467.2h2.5c1.6,0,2.6-0.1,3-0.2
			s0.7-0.4,0.9-0.7c0.2-0.3,0.3-0.8,0.3-1.3c0-0.6-0.2-1-0.5-1.4c-0.3-0.3-0.7-0.6-1.3-0.7c-0.3,0-1.1-0.1-2.5-0.1h-2.6v4.4H284.8z"
			/>
		<path class="st1" d="M305.3,473l3.2,0.5c-0.4,1.2-1.1,2.1-1.9,2.7c-0.9,0.6-2,0.9-3.3,0.9c-2.1,0-3.7-0.7-4.7-2.1
			c-0.8-1.1-1.2-2.5-1.2-4.2c0-2,0.5-3.6,1.6-4.7s2.4-1.7,4-1.7c1.8,0,3.2,0.6,4.3,1.8c1,1.2,1.5,3,1.5,5.5h-8.1
			c0,1,0.3,1.7,0.8,2.2s1.1,0.8,1.9,0.8c0.5,0,0.9-0.1,1.3-0.4C304.9,474.1,305.2,473.6,305.3,473z M305.5,469.8
			c0-0.9-0.3-1.6-0.7-2.1c-0.5-0.5-1-0.7-1.7-0.7s-1.3,0.3-1.7,0.8c-0.5,0.5-0.7,1.2-0.7,2.1L305.5,469.8L305.5,469.8z"/>
		<path class="st1" d="M314.7,476.9l-4.9-12.1h3.4l2.3,6.2l0.7,2.1c0.2-0.5,0.3-0.9,0.3-1c0.1-0.3,0.2-0.7,0.3-1l2.3-6.2h3.3
			l-4.8,12.1h-2.9V476.9z"/>
		<path class="st1" d="M324.4,463.1v-3h3.2v3H324.4z M324.4,476.9v-12.1h3.2v12.1H324.4z"/>
		<path class="st1" d="M337.9,473l3.2,0.5c-0.4,1.2-1.1,2.1-1.9,2.7c-0.9,0.6-2,0.9-3.3,0.9c-2.1,0-3.7-0.7-4.7-2.1
			c-0.8-1.1-1.2-2.5-1.2-4.2c0-2,0.5-3.6,1.6-4.7s2.4-1.7,4-1.7c1.8,0,3.2,0.6,4.3,1.8c1,1.2,1.5,3,1.5,5.5h-8.1
			c0,1,0.3,1.7,0.8,2.2s1.1,0.8,1.9,0.8c0.5,0,0.9-0.1,1.3-0.4C337.5,474.1,337.7,473.6,337.9,473z M338.1,469.8
			c0-0.9-0.3-1.6-0.7-2.1c-0.5-0.5-1-0.7-1.7-0.7s-1.3,0.3-1.7,0.8c-0.5,0.5-0.7,1.2-0.7,2.1L338.1,469.8L338.1,469.8z"/>
		<path class="st1" d="M346.2,476.9l-3.8-12.1h3.1l2.3,8l2.1-8h3.1l2,8l2.3-8h3.2l-3.9,12.1h-3.1l-2.1-7.8l-2.1,7.8H346.2z"/>
		<path class="st1" d="M361,473.4l3.2-0.5c0.1,0.6,0.4,1.1,0.8,1.4s1,0.5,1.8,0.5s1.5-0.2,1.9-0.5c0.3-0.2,0.4-0.5,0.4-0.9
			c0-0.2-0.1-0.4-0.2-0.6c-0.2-0.2-0.5-0.3-1.1-0.4c-2.6-0.6-4.2-1.1-4.9-1.6c-1-0.7-1.4-1.6-1.4-2.7s0.4-1.9,1.2-2.7
			c0.8-0.7,2.1-1.1,3.9-1.1c1.7,0,2.9,0.3,3.7,0.8c0.8,0.5,1.4,1.3,1.7,2.4l-3,0.6c-0.1-0.5-0.4-0.8-0.7-1.1
			c-0.4-0.3-0.9-0.4-1.5-0.4c-0.8,0-1.5,0.1-1.8,0.4c-0.2,0.2-0.4,0.4-0.4,0.7c0,0.2,0.1,0.4,0.3,0.6c0.3,0.2,1.3,0.5,3,0.9
			s2.9,0.9,3.6,1.4c0.7,0.6,1,1.4,1,2.4c0,1.1-0.5,2.1-1.4,2.9s-2.3,1.2-4.1,1.2c-1.7,0-3-0.3-3.9-1
			C361.9,475.5,361.3,474.6,361,473.4z"/>
	</g>
	<path class="st2" d="M226,340.1c0,0,28.9-35.9,79.2-35.9c63.6,0,89.6,44,89.6,44"/>
	<path class="st2" d="M204.9,367.9c0,0-11,24.6-10.1,55.2c0.9,30.9,17.6,51.5,17.6,51.5"/>
	<path class="st2" d="M402.1,472c0,0,10.7-11.1,15.9-41.4c5.5-32.1-6.4-52.3-6.4-52.3"/>
	<g>
		<polygon class="st1" points="220.4,485.1 227.3,491.9 227.3,482 220.9,475.7 		"/>
		<polygon class="st1" points="219.9,485.7 210.2,485.3 217,492.6 225.9,493.1 		"/>
		<polygon class="st1" points="228.6,494.9 218.9,495.4 226.3,502.1 235.2,501.6 		"/>
		<polygon class="st1" points="238.3,503.3 228.7,504.8 236.8,510.7 245.6,509.4 		"/>
		<polygon class="st1" points="248.3,510.6 238.8,512.7 247.2,518.1 255.9,516.3 		"/>
		<polygon class="st1" points="259.1,517 250.1,520.5 259.2,524.5 267.5,521.3 		"/>
		<polygon class="st1" points="270.6,522 262.4,526.1 271.9,529 279.8,524.8 		"/>
		<polygon class="st1" points="283.2,525.1 275.4,529.9 285.1,531.9 292.6,527.1 		"/>
		<polygon class="st1" points="229.1,494.1 236.2,500.9 236.2,490.9 229.7,484.6 		"/>
		<polygon class="st1" points="238.2,502 245.3,508.4 244.6,498.4 238.1,492.5 		"/>
		<polygon class="st1" points="248.3,509.6 256.1,515.5 254.8,505.6 247.6,500.2 		"/>
		<polygon class="st1" points="259.2,516 267.8,520.6 265,511 257.1,506.7 		"/>
		<polygon class="st1" points="271.2,521.1 280.5,524 276,515.1 267.4,512.4 		"/>
		<polygon class="st1" points="283.3,524.2 293.3,526 288.7,518.3 278,516.3 		"/>
	</g>
	<g>
		<polygon class="st1" points="392.1,485.1 385.2,491.9 385.3,482 391.6,475.7 		"/>
		<polygon class="st1" points="392.6,485.7 402.3,485.3 395.5,492.6 386.6,493.1 		"/>
		<polygon class="st1" points="383.9,494.9 393.6,495.4 386.2,502.1 377.3,501.6 		"/>
		<polygon class="st1" points="374.2,503.3 383.8,504.8 375.7,510.7 366.9,509.4 		"/>
		<polygon class="st1" points="364.2,510.6 373.7,512.7 365.3,518.1 356.6,516.3 		"/>
		<polygon class="st1" points="353.4,517 362.4,520.5 353.3,524.5 345,521.3 		"/>
		<polygon class="st1" points="341.9,522 350.1,526.1 340.6,529 332.7,524.8 		"/>
		<polygon class="st1" points="329.3,525.1 337.1,529.9 327.4,531.9 319.9,527.1 		"/>
		<polygon class="st1" points="383.4,494.1 376.4,500.9 376.4,490.9 382.8,484.6 		"/>
		<polygon class="st1" points="374.3,502 367.2,508.4 367.9,498.4 374.4,492.5 		"/>
		<polygon class="st1" points="364.2,509.6 356.4,515.5 357.7,505.6 364.9,500.2 		"/>
		<polygon class="st1" points="353.3,516 344.7,520.6 347.5,511 355.4,506.7 		"/>
		<polygon class="st1" points="341.3,521.1 332,524 336.6,515.1 345.1,512.4 		"/>
		<polygon class="st1" points="329.2,524.2 319.2,526 323.8,518.3 334.5,516.3 		"/>
	</g>
	<path class="st1" d="M304.4,520.4l2.6-6.8l2.3,6.7l7,0.2l-5.5,5.2l2.7,6.7l-6.7-4.1c0,0-5.2,4.2-5.2,3.9s1.4-6.8,1.4-6.8l-4.7-5
		L304.4,520.4L304.4,520.4z"/>
	<circle class="st2" cx="306.6" cy="415.8" r="126.4"/>
</g>
</svg>
