<?xml version="1.0" encoding="utf-8"?>
<!-- Generator: Adobe Illustrator 22.1.0, SVG Export Plug-In . SVG Version: 6.00 Build 0)  -->
<svg version="1.1" id="Layer_1" xmlns="http://www.w3.org/2000/svg" xmlns:xlink="http://www.w3.org/1999/xlink" x="0px" y="0px"
	 viewBox="0 0 296.7 100" style="enable-background:new 0 0 296.7 100;" xml:space="preserve">
<style type="text/css">
	.st0{fill:#4A4B4D;}
	.st1{fill:none;stroke:#4A4B4D;stroke-miterlimit:10;}
</style>
<g>
	<path class="st0" d="M3.6,83.6h3.1l2.1,6h0l2.1-6H14v9.2h-2v-7.1h0l-2.4,7.1H8l-2.3-7.1h0v7.1h-2V83.6z"/>
	<path class="st0" d="M16.1,83.6h2v9.2h-2V83.6z"/>
	<path class="st0" d="M23.2,83.6h1.7l4,9.2h-2.3l-0.8-2h-3.6l-0.8,2h-2.2L23.2,83.6z M24,86.3l-1.1,2.9h2.2L24,86.3z"/>
	<path class="st0" d="M30,83.6h3.1l2.1,6h0l2.1-6h3.1v9.2h-2v-7.1h0l-2.4,7.1h-1.5l-2.3-7.1h0v7.1h-2V83.6z"/>
	<path class="st0" d="M42.5,83.6h2v9.2h-2V83.6z"/>
	<path class="st0" d="M56.6,86c-0.2-0.2-0.4-0.4-0.7-0.6c-0.3-0.1-0.6-0.2-1-0.2s-0.7,0.1-1.1,0.2c-0.3,0.1-0.6,0.4-0.8,0.6
		c-0.2,0.3-0.4,0.6-0.6,0.9s-0.2,0.8-0.2,1.2c0,0.4,0.1,0.8,0.2,1.2c0.1,0.4,0.3,0.7,0.6,0.9c0.2,0.3,0.5,0.5,0.8,0.6
		c0.3,0.1,0.7,0.2,1,0.2c0.4,0,0.8-0.1,1.1-0.3c0.3-0.2,0.6-0.4,0.8-0.7l1.7,1.3c-0.4,0.5-0.9,0.9-1.5,1.2s-1.2,0.4-1.8,0.4
		c-0.7,0-1.4-0.1-2-0.3c-0.6-0.2-1.1-0.5-1.6-1c-0.4-0.4-0.8-0.9-1-1.5c-0.2-0.6-0.4-1.3-0.4-2c0-0.7,0.1-1.4,0.4-2
		c0.2-0.6,0.6-1.1,1-1.5c0.4-0.4,1-0.7,1.6-1c0.6-0.2,1.3-0.3,2-0.3c0.3,0,0.5,0,0.8,0.1c0.3,0,0.6,0.1,0.8,0.2
		c0.3,0.1,0.5,0.2,0.8,0.4c0.3,0.2,0.5,0.4,0.7,0.6L56.6,86z"/>
	<path class="st0" d="M67.5,89.3c0,0.5-0.1,1-0.2,1.5c-0.2,0.5-0.4,0.9-0.7,1.2c-0.3,0.3-0.7,0.6-1.2,0.8s-1,0.3-1.7,0.3
		c-0.6,0-1.2-0.1-1.7-0.3S61,92.3,60.7,92s-0.6-0.7-0.7-1.2c-0.2-0.5-0.2-1-0.2-1.5v-5.7h2v5.6c0,0.3,0,0.6,0.1,0.8
		c0.1,0.2,0.2,0.5,0.4,0.6s0.4,0.3,0.6,0.4c0.2,0.1,0.5,0.1,0.7,0.1c0.3,0,0.5,0,0.7-0.1c0.2-0.1,0.4-0.2,0.6-0.4s0.3-0.4,0.4-0.6
		c0.1-0.2,0.1-0.5,0.1-0.8v-5.6h2V89.3z"/>
	<path class="st0" d="M69.6,83.6h3.6c0.5,0,0.9,0,1.3,0.1s0.8,0.2,1.1,0.5c0.3,0.2,0.6,0.5,0.8,0.9c0.2,0.4,0.3,0.8,0.3,1.3
		c0,0.7-0.2,1.2-0.5,1.7c-0.3,0.5-0.8,0.7-1.5,0.9l2.3,3.9h-2.4l-1.9-3.7h-1v3.7h-2V83.6z M71.6,87.4h1.2c0.2,0,0.4,0,0.6,0
		c0.2,0,0.4-0.1,0.6-0.1c0.2-0.1,0.3-0.2,0.4-0.3c0.1-0.1,0.2-0.3,0.2-0.6c0-0.2,0-0.4-0.1-0.6c-0.1-0.1-0.2-0.2-0.4-0.3
		c-0.1-0.1-0.3-0.1-0.5-0.1c-0.2,0-0.4,0-0.6,0h-1.3V87.4z"/>
	<path class="st0" d="M79.7,85.4h-2.6v-1.8h7.3v1.8h-2.6v7.4h-2V85.4z"/>
	<path class="st0" d="M87.5,83.6h1.7l4,9.2h-2.3l-0.8-2h-3.6l-0.8,2h-2.2L87.5,83.6z M88.2,86.3l-1.1,2.9h2.2L88.2,86.3z"/>
	<path class="st0" d="M94.3,83.6h2v9.2h-2V83.6z"/>
	<path class="st0" d="M98.3,83.6h2.8L105,90h0v-6.4h2v9.2h-2.7l-4-6.6h0v6.6h-2V83.6z"/>
	<path class="st0" d="M112.2,83.6h2.2l1.5,5.9h0l1.9-5.9h1.9l1.9,6.1h0l1.5-6.1h2.1l-2.7,9.2h-1.8l-2-6.4h0l-2,6.4H115L112.2,83.6z"
		/>
	<path class="st0" d="M129.1,83.6h1.7l4,9.2h-2.3l-0.8-2h-3.6l-0.8,2h-2.2L129.1,83.6z M129.9,86.3l-1.1,2.9h2.2L129.9,86.3z"/>
	<path class="st0" d="M136,83.6h2V91h3.8v1.9H136V83.6z"/>
	<path class="st0" d="M143.2,83.6h2V91h3.8v1.9h-5.8V83.6z"/>
	<path class="st0" d="M160.4,86c-0.2-0.2-0.4-0.4-0.7-0.6c-0.3-0.1-0.6-0.2-1-0.2s-0.7,0.1-1.1,0.2s-0.6,0.4-0.8,0.6
		s-0.4,0.6-0.6,0.9c-0.1,0.4-0.2,0.8-0.2,1.2c0,0.4,0.1,0.8,0.2,1.2c0.1,0.4,0.3,0.7,0.6,0.9c0.2,0.3,0.5,0.5,0.8,0.6
		c0.3,0.1,0.7,0.2,1,0.2c0.4,0,0.8-0.1,1.1-0.3c0.3-0.2,0.6-0.4,0.8-0.7l1.7,1.3c-0.4,0.5-0.9,0.9-1.5,1.2s-1.2,0.4-1.8,0.4
		c-0.7,0-1.4-0.1-2-0.3c-0.6-0.2-1.1-0.5-1.6-1c-0.4-0.4-0.8-0.9-1-1.5c-0.2-0.6-0.4-1.3-0.4-2c0-0.7,0.1-1.4,0.4-2
		c0.2-0.6,0.6-1.1,1-1.5c0.4-0.4,1-0.7,1.6-1c0.6-0.2,1.3-0.3,2-0.3c0.3,0,0.5,0,0.8,0.1c0.3,0,0.6,0.1,0.8,0.2
		c0.3,0.1,0.5,0.2,0.8,0.4c0.3,0.2,0.5,0.4,0.7,0.6L160.4,86z"/>
	<path class="st0" d="M163,88.2c0-0.7,0.1-1.4,0.4-2c0.2-0.6,0.6-1.1,1-1.5c0.4-0.4,1-0.7,1.6-1c0.6-0.2,1.3-0.3,2-0.3
		c0.7,0,1.4,0.1,2,0.3c0.6,0.2,1.1,0.5,1.6,1c0.4,0.4,0.8,0.9,1,1.5c0.2,0.6,0.4,1.3,0.4,2c0,0.7-0.1,1.4-0.4,2
		c-0.2,0.6-0.6,1.1-1,1.5c-0.4,0.4-1,0.7-1.6,1c-0.6,0.2-1.3,0.3-2,0.3c-0.7,0-1.4-0.1-2-0.3c-0.6-0.2-1.1-0.5-1.6-1
		c-0.4-0.4-0.8-0.9-1-1.5C163.1,89.6,163,89,163,88.2z M165.1,88.2c0,0.4,0.1,0.8,0.2,1.2c0.1,0.4,0.3,0.7,0.6,0.9
		c0.3,0.3,0.6,0.5,0.9,0.6c0.4,0.1,0.7,0.2,1.2,0.2c0.4,0,0.8-0.1,1.2-0.2c0.4-0.1,0.7-0.4,0.9-0.6c0.3-0.3,0.4-0.6,0.6-0.9
		c0.1-0.4,0.2-0.8,0.2-1.2c0-0.4-0.1-0.8-0.2-1.2s-0.3-0.7-0.6-0.9c-0.3-0.3-0.6-0.5-0.9-0.6c-0.4-0.1-0.7-0.2-1.2-0.2
		c-0.4,0-0.8,0.1-1.2,0.2s-0.7,0.4-0.9,0.6c-0.3,0.3-0.4,0.6-0.6,0.9C165.1,87.4,165.1,87.8,165.1,88.2z"/>
	<path class="st0" d="M174.5,83.6h2.8l3.9,6.4h0v-6.4h2v9.2h-2.7l-4-6.6h0v6.6h-2V83.6z"/>
	<path class="st0" d="M189.8,85.9c-0.2-0.2-0.4-0.4-0.7-0.5s-0.5-0.2-0.8-0.2c-0.1,0-0.3,0-0.5,0.1c-0.2,0-0.3,0.1-0.4,0.2
		c-0.1,0.1-0.3,0.2-0.3,0.3c-0.1,0.1-0.1,0.3-0.1,0.4c0,0.3,0.1,0.5,0.3,0.6c0.2,0.1,0.5,0.3,0.8,0.4c0.3,0.1,0.7,0.2,1,0.3
		c0.4,0.1,0.7,0.3,1,0.4s0.6,0.4,0.8,0.8s0.3,0.8,0.3,1.3c0,0.5-0.1,1-0.3,1.3c-0.2,0.4-0.4,0.7-0.8,0.9c-0.3,0.3-0.7,0.4-1.1,0.6
		c-0.4,0.1-0.9,0.2-1.4,0.2c-0.6,0-1.2-0.1-1.7-0.3c-0.5-0.2-1-0.5-1.4-0.9l1.4-1.6c0.2,0.3,0.5,0.5,0.8,0.6s0.6,0.2,1,0.2
		c0.2,0,0.3,0,0.5-0.1c0.2,0,0.3-0.1,0.5-0.2c0.1-0.1,0.2-0.2,0.3-0.3s0.1-0.3,0.1-0.4c0-0.3-0.1-0.5-0.3-0.7
		c-0.2-0.2-0.5-0.3-0.8-0.4c-0.3-0.1-0.7-0.2-1-0.3c-0.4-0.1-0.7-0.3-1-0.5s-0.6-0.4-0.8-0.8c-0.2-0.3-0.3-0.7-0.3-1.2
		c0-0.5,0.1-0.9,0.3-1.3c0.2-0.4,0.5-0.7,0.8-0.9c0.3-0.3,0.7-0.4,1.1-0.6c0.4-0.1,0.9-0.2,1.3-0.2c0.5,0,1,0.1,1.5,0.2
		c0.5,0.1,0.9,0.4,1.3,0.7L189.8,85.9z"/>
	<path class="st0" d="M200.7,89.3c0,0.5-0.1,1-0.2,1.5c-0.2,0.5-0.4,0.9-0.7,1.2c-0.3,0.3-0.7,0.6-1.2,0.8s-1,0.3-1.7,0.3
		c-0.6,0-1.2-0.1-1.7-0.3s-0.9-0.5-1.2-0.8c-0.3-0.3-0.6-0.7-0.7-1.2c-0.2-0.5-0.2-1-0.2-1.5v-5.7h2v5.6c0,0.3,0,0.6,0.1,0.8
		c0.1,0.2,0.2,0.5,0.4,0.6c0.2,0.2,0.4,0.3,0.6,0.4s0.5,0.1,0.7,0.1s0.5,0,0.7-0.1c0.2-0.1,0.4-0.2,0.6-0.4c0.2-0.2,0.3-0.4,0.4-0.6
		c0.1-0.2,0.1-0.5,0.1-0.8v-5.6h2V89.3z"/>
	<path class="st0" d="M202.9,83.6h2V91h3.8v1.9h-5.8V83.6z"/>
	<path class="st0" d="M210.6,85.4h-2.6v-1.8h7.3v1.8h-2.6v7.4h-2V85.4z"/>
	<path class="st0" d="M218.3,83.6h1.7l4,9.2h-2.3l-0.8-2h-3.6l-0.8,2h-2.2L218.3,83.6z M219.1,86.3l-1.1,2.9h2.2L219.1,86.3z"/>
	<path class="st0" d="M225.1,83.6h2.8l3.9,6.4h0v-6.4h2v9.2h-2.7l-4-6.6h0v6.6h-2V83.6z"/>
	<path class="st0" d="M237.7,85.4h-2.6v-1.8h7.3v1.8h-2.6v7.4h-2V85.4z"/>
	<path class="st0" d="M248.1,85.9c-0.2-0.2-0.4-0.4-0.7-0.5s-0.5-0.2-0.8-0.2c-0.1,0-0.3,0-0.5,0.1c-0.2,0-0.3,0.1-0.4,0.2
		c-0.1,0.1-0.3,0.2-0.3,0.3c-0.1,0.1-0.1,0.3-0.1,0.4c0,0.3,0.1,0.5,0.3,0.6c0.2,0.1,0.5,0.3,0.8,0.4c0.3,0.1,0.7,0.2,1,0.3
		c0.4,0.1,0.7,0.3,1,0.4s0.6,0.4,0.8,0.8s0.3,0.8,0.3,1.3c0,0.5-0.1,1-0.3,1.3c-0.2,0.4-0.4,0.7-0.8,0.9c-0.3,0.3-0.7,0.4-1.1,0.6
		c-0.4,0.1-0.9,0.2-1.4,0.2c-0.6,0-1.2-0.1-1.7-0.3c-0.5-0.2-1-0.5-1.4-0.9l1.4-1.6c0.2,0.3,0.5,0.5,0.8,0.6s0.6,0.2,1,0.2
		c0.2,0,0.3,0,0.5-0.1c0.2,0,0.3-0.1,0.5-0.2c0.1-0.1,0.2-0.2,0.3-0.3s0.1-0.3,0.1-0.4c0-0.3-0.1-0.5-0.3-0.7
		c-0.2-0.2-0.5-0.3-0.8-0.4c-0.3-0.1-0.7-0.2-1-0.3c-0.4-0.1-0.7-0.3-1-0.5s-0.6-0.4-0.8-0.8c-0.2-0.3-0.3-0.7-0.3-1.2
		c0-0.5,0.1-0.9,0.3-1.3c0.2-0.4,0.5-0.7,0.8-0.9c0.3-0.3,0.7-0.4,1.1-0.6c0.4-0.1,0.9-0.2,1.3-0.2c0.5,0,1,0.1,1.5,0.2
		c0.5,0.1,0.9,0.4,1.3,0.7L248.1,85.9z"/>
	<path class="st0" d="M261.3,86c-0.2-0.2-0.4-0.4-0.7-0.6c-0.3-0.1-0.6-0.2-1-0.2s-0.7,0.1-1.1,0.2s-0.6,0.4-0.8,0.6
		s-0.4,0.6-0.6,0.9c-0.1,0.4-0.2,0.8-0.2,1.2c0,0.4,0.1,0.8,0.2,1.2c0.1,0.4,0.3,0.7,0.6,0.9c0.2,0.3,0.5,0.5,0.8,0.6
		c0.3,0.1,0.7,0.2,1,0.2c0.4,0,0.8-0.1,1.1-0.3c0.3-0.2,0.6-0.4,0.8-0.7l1.7,1.3c-0.4,0.5-0.9,0.9-1.5,1.2s-1.2,0.4-1.8,0.4
		c-0.7,0-1.4-0.1-2-0.3c-0.6-0.2-1.1-0.5-1.6-1c-0.4-0.4-0.8-0.9-1-1.5c-0.2-0.6-0.4-1.3-0.4-2c0-0.7,0.1-1.4,0.4-2
		c0.2-0.6,0.6-1.1,1-1.5c0.4-0.4,1-0.7,1.6-1c0.6-0.2,1.3-0.3,2-0.3c0.3,0,0.5,0,0.8,0.1c0.3,0,0.6,0.1,0.8,0.2
		c0.3,0.1,0.5,0.2,0.8,0.4c0.3,0.2,0.5,0.4,0.7,0.6L261.3,86z"/>
	<path class="st0" d="M263.9,88.2c0-0.7,0.1-1.4,0.4-2c0.2-0.6,0.6-1.1,1-1.5c0.4-0.4,1-0.7,1.6-1c0.6-0.2,1.3-0.3,2-0.3
		c0.7,0,1.4,0.1,2,0.3c0.6,0.2,1.1,0.5,1.6,1c0.4,0.4,0.8,0.9,1,1.5c0.2,0.6,0.4,1.3,0.4,2c0,0.7-0.1,1.4-0.4,2
		c-0.2,0.6-0.6,1.1-1,1.5c-0.4,0.4-1,0.7-1.6,1c-0.6,0.2-1.3,0.3-2,0.3c-0.7,0-1.4-0.1-2-0.3c-0.6-0.2-1.1-0.5-1.6-1
		c-0.4-0.4-0.8-0.9-1-1.5C264,89.6,263.9,89,263.9,88.2z M266,88.2c0,0.4,0.1,0.8,0.2,1.2c0.1,0.4,0.3,0.7,0.6,0.9
		c0.3,0.3,0.6,0.5,0.9,0.6c0.4,0.1,0.7,0.2,1.2,0.2c0.4,0,0.8-0.1,1.2-0.2c0.4-0.1,0.7-0.4,0.9-0.6c0.3-0.3,0.4-0.6,0.6-0.9
		c0.1-0.4,0.2-0.8,0.2-1.2c0-0.4-0.1-0.8-0.2-1.2s-0.3-0.7-0.6-0.9c-0.3-0.3-0.6-0.5-0.9-0.6c-0.4-0.1-0.7-0.2-1.2-0.2
		c-0.4,0-0.8,0.1-1.2,0.2s-0.7,0.4-0.9,0.6c-0.3,0.3-0.4,0.6-0.6,0.9C266.1,87.4,266,87.8,266,88.2z"/>
	<path class="st0" d="M275.4,83.6h3.6c0.5,0,0.9,0,1.3,0.1c0.4,0.1,0.8,0.2,1.1,0.5c0.3,0.2,0.6,0.5,0.8,0.9
		c0.2,0.4,0.3,0.8,0.3,1.3c0,0.7-0.2,1.2-0.5,1.7c-0.3,0.5-0.8,0.7-1.5,0.9l2.3,3.9h-2.4l-1.9-3.7h-1v3.7h-2V83.6z M277.5,87.4h1.2
		c0.2,0,0.4,0,0.6,0c0.2,0,0.4-0.1,0.6-0.1c0.2-0.1,0.3-0.2,0.4-0.3s0.2-0.3,0.2-0.6c0-0.2,0-0.4-0.1-0.6c-0.1-0.1-0.2-0.2-0.4-0.3
		c-0.1-0.1-0.3-0.1-0.5-0.1c-0.2,0-0.4,0-0.6,0h-1.3V87.4z"/>
	<path class="st0" d="M284.1,83.6h3.4c0.5,0,0.9,0,1.4,0.1c0.4,0.1,0.8,0.2,1.1,0.4c0.3,0.2,0.6,0.5,0.8,0.9s0.3,0.8,0.3,1.4
		c0,0.5-0.1,1-0.3,1.4c-0.2,0.4-0.4,0.7-0.7,0.9c-0.3,0.2-0.7,0.4-1.1,0.5s-0.9,0.1-1.4,0.1h-1.5v3.6h-2V83.6z M286.1,87.5h1.4
		c0.2,0,0.4,0,0.5-0.1c0.2,0,0.3-0.1,0.5-0.2c0.1-0.1,0.2-0.2,0.3-0.3c0.1-0.1,0.1-0.3,0.1-0.5c0-0.2-0.1-0.4-0.2-0.6
		c-0.1-0.1-0.2-0.3-0.4-0.3c-0.2-0.1-0.4-0.1-0.6-0.1s-0.4,0-0.6,0h-1V87.5z"/>
</g>
<g>
	<rect x="115.6" y="4.7" class="st0" width="29.5" height="29.5"/>
	<rect x="150" y="4.7" class="st1" width="29.5" height="29.5"/>
	<rect x="150" y="37.7" class="st1" width="29.5" height="29.5"/>
	<rect x="115.6" y="37.7" class="st0" width="29.5" height="29.5"/>
</g>
</svg>
