<?xml version="1.0" encoding="utf-8"?>
<!-- Generator: Adobe Illustrator 22.0.1, SVG Export Plug-In . SVG Version: 6.00 Build 0)  -->
<svg version="1.1" id="Layer_1" xmlns="http://www.w3.org/2000/svg" xmlns:xlink="http://www.w3.org/1999/xlink" x="0px" y="0px"
	 viewBox="0 0 612 792" style="enable-background:new 0 0 612 792;" xml:space="preserve">
<style type="text/css">
	.st0{fill-rule:evenodd;clip-rule:evenodd;fill:#58595B;}
	.st1{fill-rule:evenodd;clip-rule:evenodd;fill:#BCBCBC;}
	.st2{fill-rule:evenodd;clip-rule:evenodd;fill:#FFFFFF;}
</style>
<g>
	<path class="st0" d="M498.4,285.4c-24.2-24.2-58.9-38.1-95.1-38.1c-20.1,0-37.7,3.7-52.1,8.5c-0.1-1.6-1.1-3.1-2.6-3.8
		c-0.4-0.2-11.1-5-21.9-0.5c-1.7,0.7-3.3,1.6-4.9,2.7c0.9-1.7,1.6-3.7,1.6-5.7l0,0l0-1l0,0c0-3.3-0.1-5.6-2.5-9.5
		c-2.4-3.9-7-8-7.5-8.5c-3.1-3.1-3.2-2.9-6.1,0c-0.9,0.9-5.6,5.2-7.4,8.9c-1.8,3.7-2.4,6.4-2.4,9.7c0,2.3,0.5,4.3,1.5,6.2
		c-0.3-0.2-0.5-0.4-0.8-0.5c-6.8-4-15-4.6-24.6-1.9c-1.9,0.5-3.2,2.2-3.3,4.1c-13.6-4.4-30.2-7.7-49.3-7.7
		c-37.3,0-72.4,13.8-96.4,37.8c-24.5,24.5-37,58.3-37,100.2c0,39.9,10.7,70.9,31.9,92.1c20.6,20.6,47.7,27.9,66.3,27.9
		c11.8,0,19.4-1.1,24.1-2.5c2.6,14,13.4,35.7,53.9,41.9c40.2,6.1,45.1,14.6,45.1,14.7c0,0-0.1-0.2-0.2-0.7c0.2,1.3,1.1,2.5,2.3,3.2
		c1.2,0.7,2.6,0.8,3.9,0.2c2.4-0.9,3.4-2.6,4-3.5c1-1.6,4-6.4,44.6-14.1c42.8-8.1,51.1-31.5,52.5-43.1c21.7,5.8,52.7,3.6,78.2-14.2
		c19.6-13.7,43-41.8,43-97.7C537.1,346.4,524.1,311.1,498.4,285.4L498.4,285.4L498.4,285.4L498.4,285.4z"/>
	<path class="st1" d="M310.7,282.1c0,0,36.2-30.2,92.6-30.2c56.3,0,129.3,36.5,129.3,138.5s-80.3,120.5-121,105.8
		c0,0,5.1,34.6-48.9,44.8c-54,10.2-44.8,16-49.4,17.9c0,0-1.9-10.6-48.7-17.7c-46.8-7.1-50.5-35.7-50.8-44.3c0,0-3,5-27.9,5
		c-24.9,0-93.7-15.7-93.7-115.5S165,252.8,220.9,252.8C276.8,252.8,310.7,282.1,310.7,282.1L310.7,282.1L310.7,282.1L310.7,282.1z"
		/>
	<path class="st1" d="M310.3,233c0,0-4.9,4.4-6.3,7.5c-1.5,3.1-2,5.2-2,7.7c0,2.5,0.6,4.6,3.9,7.8c3.2,3.2,5,6.9,5,6.9
		s3.2-5.7,3.9-6.2c0.6-0.5,4.2-4.7,4.2-7.9c0-3.2,0.3-4.6-1.8-8.1C314.9,237.1,310.3,233,310.3,233L310.3,233L310.3,233L310.3,233z"
		/>
	<path class="st1" d="M314.6,272.4c0,0,20.9-12.8,32-16.2C346.7,256.2,324.2,245.8,314.6,272.4L314.6,272.4L314.6,272.4L314.6,272.4
		z"/>
	<path class="st1" d="M274.7,256.2c0,0,15.7,6.3,31.6,15.9C306.3,272.1,300.9,248.9,274.7,256.2L274.7,256.2L274.7,256.2
		L274.7,256.2z"/>
	<path class="st0" d="M311.4,309.6c0,0,42-36.9,103.4-36.9c61.4,0,105.3,50.3,105.3,112.2c0,61.9-48.5,108.1-110.8,87.3
		c0,0,7.4,33.4-37.5,42.2c-45,8.8-53.6,11.1-58.1,20.2c0,0-1-11.5-40.8-16.1c-39.7-4.6-56.4-17.5-55.4-45c0,0-8.3,5.3-32.8,5.3
		c-24.5,0-79.7-21.3-79.7-94.6c0-73.3,56-110.9,108.7-110.9S311.4,309.6,311.4,309.6L311.4,309.6L311.4,309.6L311.4,309.6z"/>
	<path class="st2" d="M371,457.4l0.8,1l2.3-1.5l0,0c0,0,3-2.8,2.7,1.5c-0.3,4.3-0.8,14.7-0.8,14.7s-0.5,6.2,2.4,6.2
		c2.9,0,9.2-7.8,10.7-10.6c0,0-4.5,22.9-11.9,22.9c-2.8,0-3.9-3.2-3.2-4.9l0,0l-0.6-0.1l-2.7,1.8l0,0c0,0-0.8,5.4,4.8,5.4
		c5.5,0,11.2-6.1,14.4-15.9c3.2-9.8,8-25.4,8-25.4l0,0l-0.6-0.5l-3.9,0.7l0,0c0,0-2.1,9.1-4.8,13.9c-2.7,4.8-6,8.2-7.3,8.2
		c-1.3,0-1.2-1.2-1.1-3c0.1-1.8,0.8-16.2,0.8-16.2s0.2-6.3-3.8-3.2C373.1,455.7,371,457.4,371,457.4L371,457.4L371,457.4L371,457.4z
		"/>
	<path class="st2" d="M362.1,444.9c0,0,2.8-1.2,4.2-2l0,0l0.6,0.8l-2.2,10.9l5.9-0.3l-0.6,2.8h-5.7l0,0c0,0-2.6,11.4-2.8,16.1
		c-0.1,2.5,0.6,2.8,2.8,1.2l0,0l3.3-2.3l0.6,1.2l0,0c0,0-6.9,6-9.2,6c-2.3,0-2.3-1.5-2-3.6c0.3-2.1,3.3-18.6,3.3-18.6l0,0h-4.4
		l-0.2-0.8l4.9-2.2L362.1,444.9L362.1,444.9L362.1,444.9z"/>
	<path class="st2" d="M341.7,457.1l0.8,1l2.3-1.5l0,0c0,0,3.1-2.4,2.2,1.7c-0.9,4.1-3.8,16.9-3.8,16.9s-1.2,4,2,4
		c1.5,0,6.6-4,7.8-4.9l0,0l-0.5-1.2l-2.5,1.8l0,0c0,0-2.9,2.2-2-2c0.9-4.2,3.9-18,3.9-18s0.7-4.9-3.3-2.2
		C344.3,455.4,341.7,457.1,341.7,457.1L341.7,457.1L341.7,457.1L341.7,457.1z"/>
	<path class="st2" d="M352,439.3c0,0-3.1,0.3-3.1,3.5c0,2.4,2.2,2.5,2.2,2.5s3,0.2,3-3.7C354.1,439.3,352.3,439.3,352,439.3
		L352,439.3L352,439.3L352,439.3z"/>
	<path class="st2" d="M330.9,440.3c0,0,3.9,0,8.6-2.1l0,0l0.8,0.5l-6.5,34.8l0,0c0,0-1.5,4.9,4.8-0.4l0,0l0.6,1.1l0,0
		c0,0-5.8,5.3-8.5,5.3c-2.8,0-1.5-3.5-1.3-5.1c0.2-1.6,5.5-30.3,5.5-30.3s1.5-3.4-3.9-2.5C330.9,441.7,330.3,441.6,330.9,440.3
		L330.9,440.3L330.9,440.3L330.9,440.3z"/>
	<path class="st2" d="M312.8,473.5c-3.3,3.3-4.4,2.7-4.1-1.2c0.3-3.9,1.1-7.1,3.2-13.5c2.1-6.4,9.9-2.8,9.9-2.8
		C320.8,464,316.1,470.1,312.8,473.5L312.8,473.5L312.8,473.5L312.8,473.5z M325.6,452.2l-1.3,1.2l0,0c0,0-2.7-1.4-5-1.2
		c-8.7,1-10.3,5.3-12.9,12.7c-2.5,7.4-2.2,14.6,0.2,14.6c4.9,0,12.6-11.5,12.6-11.5c-0.2,1.2-3.2,11.2-0.2,11.2c3,0,8-5.2,8-5.2l0,0
		l-0.5-0.8l0,0c-5.1,4.4-4.8,1-4.6,0.2c0.2-0.8,4.8-20.5,4.8-20.5l0,0L325.6,452.2L325.6,452.2L325.6,452.2z"/>
	<path class="st2" d="M276.7,457.4l7.5-4.9l0,0c0,0,3.3-1.8,2.5,2.8c-0.8,4.6-3.2,16.7-3.2,16.7s-0.8,3.8,0.8,3.8
		c1.5,0,12.6-9.1,13.6-22.6c0,0,3.3-1.5,4.2-0.4c0,0-4.3,16.7-4.5,19c-0.2,2.3-1.4,6.2,4.8,1.2l0,0l0.6,1.2l0,0c0,0-4.1,3.4-6.1,4.4
		c-2,1-4.8,1.3-3.8-3.2c1-4.5,2.1-9.2,2.1-9.2s-8.4,13.2-14.2,13.2c-2.6,0-2.2-2.6-2-4c0.2-1.4,3.3-17.2,3.3-17.2s1.6-4.6-4.7-0.1
		l0,0L276.7,457.4L276.7,457.4L276.7,457.4z"/>
	<path class="st2" d="M275.9,449.2c0,25.5-21.9,30.3-21.9,30.3s24.3,8.5,32,8.5s7-7.3,7-7.3l0,0h1.8l0,0c0,2.5,0.6,11.5-11,11.5
		c-11.5,0-28.9-9.8-35.1-9.8c-6.1,0-5.9,6-5.9,6l0,0h-2.2l0,0c0-6.8,3.7-8.2,3.7-8.2c-2.2,0-16.8-0.2-16.8-21.2
		c0-30,27.7-29.4,27.7-29.4C261,429.7,275.9,431,275.9,449.2L275.9,449.2L275.9,449.2L275.9,449.2z M253.6,432.4
		c0,0-19.9-1.1-19.9,27.3c0,16.5,9.8,17.8,15.1,17.8c5.3,0,20.6-1.7,20.6-28.5C269.4,433.5,256.6,432.4,253.6,432.4L253.6,432.4
		L253.6,432.4L253.6,432.4z"/>
	<path class="st2" d="M502.4,403.8l-8.7,12.9l0,0c0,0-9.3-2.3-15.6-5.3c-6.2-3-10-5.6-10-16.2c0-10.6,0-24.3,0-24.3s-1-5.2,5.1-8.5
		c6.1-3.4,12.6-6.9,12.6-6.9s7.7-3.8,11.9,2l0,0l5,6.9l0,0c0,0,5.1,7.4-1.9,14.2c-7,6.8-16.2,15.2-16.2,15.2s-2.5,2.2,0.5,4.4
		C488.1,400.4,493.1,402.9,502.4,403.8L502.4,403.8L502.4,403.8L502.4,403.8z M486.7,382.8c0,0,4.2-2.3,4.2-5.9
		c0-3.5-4.2-10.6-6.2-10.6c-2,0-1.7,4-1.7,4l0,0v15.5L486.7,382.8L486.7,382.8L486.7,382.8z"/>
	<path class="st2" d="M437.8,347.7l15.6-7.7v14.6h9.3v11.2h-9v25.3l0,0c0,0-0.8,10.7,10.2,12.5l0,0l-8.5,12.6l0,0
		c0,0-5.7-2.2-10.2-5.2c-4.5-3.1-6.9-4.5-6.9-12.9c0-8.5,0-32,0-32l0,0h-8.9v-11.3h8.5L437.8,347.7L437.8,347.7L437.8,347.7z"/>
	<path class="st2" d="M382.2,362.9l12.9-10.1l0,0c0,0,4.2,2.4,6.5,5.5l0,0l5.4-3.2l0,0c0,0,3.4-2.1,6.5-2.1c3.1,0,6.5,2.3,9.2,5.3
		c2.7,3,3,3.1,3,10.3c0,7.2,0,22.9,0,22.9s-0.6,11.9,7.2,12.9l0,0l-10,11.5l0,0c0,0-4.5-1.1-8.1-5.1c-3.6-4-4.2-5.5-4.2-9.4
		c0-3.8,0-34.3,0-34.3s-0.4-1.4-2.5-1.4c-2.1,0-4.1,3.5-4.1,3.5l0,0v43.6h-15.2v-41.7l0,0c0,0-0.1-3-3.2-5.5l0,0L382.2,362.9
		L382.2,362.9L382.2,362.9z"/>
	<path class="st2" d="M355.9,396.5v-25.3l0,0c0,0,0.2-5.8,3.5-5.8c2.2,0,3.9,3.6,3.9,3.6l0,0v29.6l0,0c0,0,0.5,3.7-1.2,3.7
		C360.4,402.3,357,398.7,355.9,396.5L355.9,396.5L355.9,396.5L355.9,396.5z M346,361c-6.3,3.6-5.1,8.9-5.1,8.9s0,21.3,0,28.3
		c0,7,4.1,9.9,4.1,9.9s1.6,1.4,6.5,5c4.9,3.6,11.5,1,11.5,1s8.7-4.9,12.7-7.5c4-2.6,3.2-7.2,3.2-7.2s0-26.3,0-32.4
		c0-6.2-2.8-7.4-2.8-7.4s-2.6-1.9-7.2-5.2c-4.6-3.3-9.9-0.6-9.9-0.6S352.4,357.3,346,361L346,361L346,361L346,361z"/>
	<path class="st2" d="M258.7,352.8l12.2-11.2l0,0c0,0,3.9,1,9.5,5.8c0,0,5.9-5.9,13.3-5.9c6.1,0,10.9,4.7,10.9,4.7s4.5-4.9,12.6-4.9
		c8,0,13.6,5.9,13.6,10.2s0,41,0,41s-0.8,9.7,8.6,12.3l0,0l-8.5,11.9l0,0c0,0-5.8-1.7-10.1-5.5c-4.3-3.8-5.1-5-5.1-10.7
		c0-5.7,0-40.7,0-40.7s0.3-5.3-3.9-5.3c-4.2,0-4.8,2.5-4.8,2.5l0,0v57.6h-14.7v-55.1l0,0c0,0-0.4-5.1-4.2-5.1
		c-3.8,0-4.5,2.5-4.5,2.5l0,0v57.6h-15.5v-52.4l0,0c0,0,0.6-4.2-3.1-5.9C261.4,354.4,258.7,352.8,258.7,352.8L258.7,352.8
		L258.7,352.8L258.7,352.8z"/>
	<path class="st2" d="M226.3,348.5l14.9-7.6v50.6l0,0c0,0-0.8,11.5,8.9,13.8l0,0l-8.5,12l0,0c0,0-5.9-1.9-10.2-6
		c-4.3-4.1-4.6-4.7-4.6-13.2C226.7,389.5,226.3,348.5,226.3,348.5L226.3,348.5L226.3,348.5L226.3,348.5z"/>
	<path class="st2" d="M199.8,386.9v-15.5l0,0c0,0-0.3-4,1.7-4c2,0,6.2,7.1,6.2,10.6c0,3.5-4.2,5.9-4.2,5.9l0,0L199.8,386.9
		L199.8,386.9L199.8,386.9z M202.1,399.4c-2.9-2.2-0.5-4.4-0.5-4.4s9.2-8.5,16.2-15.2c7-6.8,1.9-14.2,1.9-14.2l0,0l-5-6.9l0,0
		c-4.2-5.9-11.9-2-11.9-2s-6.5,3.5-12.6,6.9c-6.1,3.4-5.1,8.5-5.1,8.5s0,13.6,0,24.3c0,10.6,3.8,13.2,10,16.2
		c6.2,3,15.6,5.3,15.6,5.3l0,0l8.7-12.9l0,0C210.1,404,205,401.5,202.1,399.4L202.1,399.4L202.1,399.4L202.1,399.4z"/>
	<path class="st2" d="M150.9,358.7v43.6h4.4l0,0c0,0,7.7,1,7.7-10.3c0-11.3,0-25.4,0-25.4s0.4-9.5-11.7-9.5
		c-10.9,0-24.2,4.5-24.2,4.5l0,0l5.5-15.7l0,0c0,0,5.9-1.8,10.8-2.3c4.9-0.5,15.9-0.6,21.2,1.1c5.2,1.7,13,7.2,13,21.3
		s0,33.2,0,33.2s0.7,17.2-20.7,17.2c-21.4,0-27.6,0-27.6,0s7.4-5.2,7.4-14.6c0-9.4,0-37,0-37l0,0L150.9,358.7L150.9,358.7
		L150.9,358.7z"/>
</g>
</svg>
