<?xml version="1.0" encoding="utf-8"?>
<!-- Generator: Adobe Illustrator 22.1.0, SVG Export Plug-In . SVG Version: 6.00 Build 0)  -->
<svg version="1.1" id="Layer_1" xmlns="http://www.w3.org/2000/svg" xmlns:xlink="http://www.w3.org/1999/xlink" x="0px" y="0px"
	 viewBox="0 0 449.6 333.4" style="enable-background:new 0 0 449.6 333.4;" xml:space="preserve">
<style type="text/css">
	.st0{fill:#58595B;}
	.st1{fill:#BCBCBC;}
	.st2{fill:#FFFFFF;}
</style>
<g>
	<path class="st0" d="M410.8,55.9c-24.2-24.2-58.9-38.1-95.1-38.1c-20.1,0-37.7,3.7-52.1,8.5c-0.1-1.6-1.1-3.1-2.6-3.8
		c-0.4-0.2-11.1-5-21.9-0.5c-1.7,0.7-3.3,1.6-4.9,2.7c0.9-1.7,1.6-3.7,1.6-5.7l0,0v-1l0,0c0-3.3-0.1-5.6-2.5-9.5s-7-8-7.5-8.5
		c-3.1-3.1-3.2-2.9-6.1,0c-0.9,0.9-5.6,5.2-7.4,8.9s-2.4,6.4-2.4,9.7c0,2.3,0.5,4.3,1.5,6.2c-0.3-0.2-0.5-0.4-0.8-0.5
		c-6.8-4-15-4.6-24.6-1.9c-1.9,0.5-3.2,2.2-3.3,4.1c-13.6-4.4-30.2-7.7-49.3-7.7C96.1,18.8,61,32.6,37,56.6
		C12.5,81.1,0,114.9,0,156.8c0,39.9,10.7,70.9,31.9,92.1c20.6,20.6,47.7,27.9,66.3,27.9c11.8,0,19.4-1.1,24.1-2.5
		c2.6,14,13.4,35.7,53.9,41.9c40.2,6.1,45.1,14.6,45.1,14.7c0,0-0.1-0.2-0.2-0.7c0.2,1.3,1.1,2.5,2.3,3.2c1.2,0.7,2.6,0.8,3.9,0.2
		c2.4-0.9,3.4-2.6,4-3.5c1-1.6,4-6.4,44.6-14.1c42.8-8.1,51.1-31.5,52.5-43.1c21.7,5.8,52.7,3.6,78.2-14.2
		c19.6-13.7,43-41.8,43-97.7C449.5,116.9,436.5,81.6,410.8,55.9L410.8,55.9L410.8,55.9L410.8,55.9z"/>
	<path class="st1" d="M223.1,52.6c0,0,36.2-30.2,92.6-30.2C372,22.4,445,58.9,445,160.9s-80.3,120.5-121,105.8
		c0,0,5.1,34.6-48.9,44.8s-44.8,16-49.4,17.9c0,0-1.9-10.6-48.7-17.7c-46.8-7.1-50.5-35.7-50.8-44.3c0,0-3,5-27.9,5
		S4.6,256.7,4.6,156.9S77.4,23.3,133.3,23.3S223.1,52.6,223.1,52.6L223.1,52.6L223.1,52.6L223.1,52.6z"/>
	<path class="st1" d="M222.7,3.5c0,0-4.9,4.4-6.3,7.5c-1.5,3.1-2,5.2-2,7.7s0.6,4.6,3.9,7.8c3.2,3.2,5,6.9,5,6.9s3.2-5.7,3.9-6.2
		c0.6-0.5,4.2-4.7,4.2-7.9s0.3-4.6-1.8-8.1C227.3,7.6,222.7,3.5,222.7,3.5L222.7,3.5L222.7,3.5L222.7,3.5z"/>
	<path class="st1" d="M227,42.9c0,0,20.9-12.8,32-16.2C259.1,26.7,236.6,16.3,227,42.9L227,42.9L227,42.9L227,42.9z"/>
	<path class="st1" d="M187.1,26.7c0,0,15.7,6.3,31.6,15.9C218.7,42.6,213.3,19.4,187.1,26.7L187.1,26.7L187.1,26.7L187.1,26.7z"/>
	<path class="st0" d="M223.8,80.1c0,0,42-36.9,103.4-36.9s105.3,50.3,105.3,112.2S384,263.5,321.7,242.7c0,0,7.4,33.4-37.5,42.2
		c-45,8.8-53.6,11.1-58.1,20.2c0,0-1-11.5-40.8-16.1c-39.7-4.6-56.4-17.5-55.4-45c0,0-8.3,5.3-32.8,5.3S17.4,228,17.4,154.7
		s56-110.9,108.7-110.9S223.8,80.1,223.8,80.1L223.8,80.1L223.8,80.1L223.8,80.1z"/>
	<path class="st2" d="M283.4,227.9l0.8,1l2.3-1.5l0,0c0,0,3-2.8,2.7,1.5s-0.8,14.7-0.8,14.7s-0.5,6.2,2.4,6.2s9.2-7.8,10.7-10.6
		c0,0-4.5,22.9-11.9,22.9c-2.8,0-3.9-3.2-3.2-4.9l0,0l-0.6-0.1l-2.7,1.8l0,0c0,0-0.8,5.4,4.8,5.4c5.5,0,11.2-6.1,14.4-15.9
		c3.2-9.8,8-25.4,8-25.4l0,0l-0.6-0.5l-3.9,0.7l0,0c0,0-2.1,9.1-4.8,13.9c-2.7,4.8-6,8.2-7.3,8.2s-1.2-1.2-1.1-3s0.8-16.2,0.8-16.2
		s0.2-6.3-3.8-3.2C285.5,226.2,283.4,227.9,283.4,227.9L283.4,227.9L283.4,227.9L283.4,227.9z"/>
	<path class="st2" d="M274.5,215.4c0,0,2.8-1.2,4.2-2l0,0l0.6,0.8l-2.2,10.9l5.9-0.3l-0.6,2.8h-5.7l0,0c0,0-2.6,11.4-2.8,16.1
		c-0.1,2.5,0.6,2.8,2.8,1.2l0,0l3.3-2.3l0.6,1.2l0,0c0,0-6.9,6-9.2,6c-2.3,0-2.3-1.5-2-3.6s3.3-18.6,3.3-18.6l0,0h-4.4l-0.2-0.8
		l4.9-2.2L274.5,215.4L274.5,215.4L274.5,215.4z"/>
	<path class="st2" d="M254.1,227.6l0.8,1l2.3-1.5l0,0c0,0,3.1-2.4,2.2,1.7s-3.8,16.9-3.8,16.9s-1.2,4,2,4c1.5,0,6.6-4,7.8-4.9l0,0
		l-0.5-1.2l-2.5,1.8l0,0c0,0-2.9,2.2-2-2s3.9-18,3.9-18s0.7-4.9-3.3-2.2C256.7,225.9,254.1,227.6,254.1,227.6L254.1,227.6
		L254.1,227.6L254.1,227.6z"/>
	<path class="st2" d="M264.4,209.8c0,0-3.1,0.3-3.1,3.5c0,2.4,2.2,2.5,2.2,2.5s3,0.2,3-3.7C266.5,209.8,264.7,209.8,264.4,209.8
		L264.4,209.8L264.4,209.8L264.4,209.8z"/>
	<path class="st2" d="M243.3,210.8c0,0,3.9,0,8.6-2.1l0,0l0.8,0.5l-6.5,34.8l0,0c0,0-1.5,4.9,4.8-0.4l0,0l0.6,1.1l0,0
		c0,0-5.8,5.3-8.5,5.3c-2.8,0-1.5-3.5-1.3-5.1s5.5-30.3,5.5-30.3s1.5-3.4-3.9-2.5C243.3,212.2,242.7,212.1,243.3,210.8L243.3,210.8
		L243.3,210.8L243.3,210.8z"/>
	<path class="st2" d="M225.2,244c-3.3,3.3-4.4,2.7-4.1-1.2c0.3-3.9,1.1-7.1,3.2-13.5s9.9-2.8,9.9-2.8
		C233.2,234.5,228.5,240.6,225.2,244L225.2,244L225.2,244L225.2,244z M238,222.7l-1.3,1.2l0,0c0,0-2.7-1.4-5-1.2
		c-8.7,1-10.3,5.3-12.9,12.7c-2.5,7.4-2.2,14.6,0.2,14.6c4.9,0,12.6-11.5,12.6-11.5c-0.2,1.2-3.2,11.2-0.2,11.2s8-5.2,8-5.2l0,0
		l-0.5-0.8l0,0c-5.1,4.4-4.8,1-4.6,0.2c0.2-0.8,4.8-20.5,4.8-20.5l0,0L238,222.7L238,222.7L238,222.7z"/>
	<path class="st2" d="M189.1,227.9l7.5-4.9l0,0c0,0,3.3-1.8,2.5,2.8c-0.8,4.6-3.2,16.7-3.2,16.7s-0.8,3.8,0.8,3.8
		c1.5,0,12.6-9.1,13.6-22.6c0,0,3.3-1.5,4.2-0.4c0,0-4.3,16.7-4.5,19s-1.4,6.2,4.8,1.2l0,0l0.6,1.2l0,0c0,0-4.1,3.4-6.1,4.4
		s-4.8,1.3-3.8-3.2s2.1-9.2,2.1-9.2s-8.4,13.2-14.2,13.2c-2.6,0-2.2-2.6-2-4s3.3-17.2,3.3-17.2s1.6-4.6-4.7-0.1l0,0L189.1,227.9
		L189.1,227.9L189.1,227.9z"/>
	<path class="st2" d="M188.3,219.7c0,25.5-21.9,30.3-21.9,30.3s24.3,8.5,32,8.5s7-7.3,7-7.3l0,0h1.8l0,0c0,2.5,0.6,11.5-11,11.5
		c-11.5,0-28.9-9.8-35.1-9.8c-6.1,0-5.9,6-5.9,6l0,0H153l0,0c0-6.8,3.7-8.2,3.7-8.2c-2.2,0-16.8-0.2-16.8-21.2
		c0-30,27.7-29.4,27.7-29.4C173.4,200.2,188.3,201.5,188.3,219.7L188.3,219.7L188.3,219.7L188.3,219.7z M166,202.9
		c0,0-19.9-1.1-19.9,27.3c0,16.5,9.8,17.8,15.1,17.8c5.3,0,20.6-1.7,20.6-28.5C181.8,204,169,202.9,166,202.9L166,202.9L166,202.9
		L166,202.9z"/>
	<path class="st2" d="M414.8,174.3l-8.7,12.9l0,0c0,0-9.3-2.3-15.6-5.3c-6.2-3-10-5.6-10-16.2s0-24.3,0-24.3s-1-5.2,5.1-8.5
		c6.1-3.4,12.6-6.9,12.6-6.9s7.7-3.8,11.9,2l0,0l5,6.9l0,0c0,0,5.1,7.4-1.9,14.2c-7,6.8-16.2,15.2-16.2,15.2s-2.5,2.2,0.5,4.4
		C400.5,170.9,405.5,173.4,414.8,174.3L414.8,174.3L414.8,174.3L414.8,174.3z M399.1,153.3c0,0,4.2-2.3,4.2-5.9
		c0-3.5-4.2-10.6-6.2-10.6s-1.7,4-1.7,4l0,0v15.5L399.1,153.3L399.1,153.3L399.1,153.3z"/>
	<path class="st2" d="M350.2,118.2l15.6-7.7v14.6h9.3v11.2h-9v25.3l0,0c0,0-0.8,10.7,10.2,12.5l0,0l-8.5,12.6l0,0
		c0,0-5.7-2.2-10.2-5.2c-4.5-3.1-6.9-4.5-6.9-12.9c0-8.5,0-32,0-32l0,0h-8.9v-11.3h8.5L350.2,118.2L350.2,118.2L350.2,118.2z"/>
	<path class="st2" d="M294.6,133.4l12.9-10.1l0,0c0,0,4.2,2.4,6.5,5.5l0,0l5.4-3.2l0,0c0,0,3.4-2.1,6.5-2.1s6.5,2.3,9.2,5.3
		s3,3.1,3,10.3c0,7.2,0,22.9,0,22.9s-0.6,11.9,7.2,12.9l0,0l-10,11.5l0,0c0,0-4.5-1.1-8.1-5.1s-4.2-5.5-4.2-9.4c0-3.8,0-34.3,0-34.3
		s-0.4-1.4-2.5-1.4s-4.1,3.5-4.1,3.5l0,0v43.6h-15.2v-41.7l0,0c0,0-0.1-3-3.2-5.5l0,0L294.6,133.4L294.6,133.4L294.6,133.4z"/>
	<path class="st2" d="M268.3,167v-25.3l0,0c0,0,0.2-5.8,3.5-5.8c2.2,0,3.9,3.6,3.9,3.6l0,0v29.6l0,0c0,0,0.5,3.7-1.2,3.7
		C272.8,172.8,269.4,169.2,268.3,167L268.3,167L268.3,167L268.3,167z M258.4,131.5c-6.3,3.6-5.1,8.9-5.1,8.9s0,21.3,0,28.3
		s4.1,9.9,4.1,9.9s1.6,1.4,6.5,5s11.5,1,11.5,1s8.7-4.9,12.7-7.5s3.2-7.2,3.2-7.2s0-26.3,0-32.4c0-6.2-2.8-7.4-2.8-7.4
		s-2.6-1.9-7.2-5.2c-4.6-3.3-9.9-0.6-9.9-0.6S264.8,127.8,258.4,131.5L258.4,131.5L258.4,131.5L258.4,131.5z"/>
	<path class="st2" d="M171.1,123.3l12.2-11.2l0,0c0,0,3.9,1,9.5,5.8c0,0,5.9-5.9,13.3-5.9c6.1,0,10.9,4.7,10.9,4.7s4.5-4.9,12.6-4.9
		c8,0,13.6,5.9,13.6,10.2s0,41,0,41s-0.8,9.7,8.6,12.3l0,0l-8.5,11.9l0,0c0,0-5.8-1.7-10.1-5.5c-4.3-3.8-5.1-5-5.1-10.7
		s0-40.7,0-40.7s0.3-5.3-3.9-5.3c-4.2,0-4.8,2.5-4.8,2.5l0,0v57.6h-14.7V130l0,0c0,0-0.4-5.1-4.2-5.1c-3.8,0-4.5,2.5-4.5,2.5l0,0
		V185h-15.5v-52.4l0,0c0,0,0.6-4.2-3.1-5.9C173.8,124.9,171.1,123.3,171.1,123.3L171.1,123.3L171.1,123.3L171.1,123.3z"/>
	<path class="st2" d="M138.7,119l14.9-7.6V162l0,0c0,0-0.8,11.5,8.9,13.8l0,0l-8.5,12l0,0c0,0-5.9-1.9-10.2-6
		c-4.3-4.1-4.6-4.7-4.6-13.2C139.1,160,138.7,119,138.7,119L138.7,119L138.7,119L138.7,119z"/>
	<path class="st2" d="M112.2,157.4v-15.5l0,0c0,0-0.3-4,1.7-4s6.2,7.1,6.2,10.6s-4.2,5.9-4.2,5.9l0,0L112.2,157.4L112.2,157.4
		L112.2,157.4z M114.5,169.9c-2.9-2.2-0.5-4.4-0.5-4.4s9.2-8.5,16.2-15.2c7-6.8,1.9-14.2,1.9-14.2l0,0l-5-6.9l0,0
		c-4.2-5.9-11.9-2-11.9-2s-6.5,3.5-12.6,6.9s-5.1,8.5-5.1,8.5s0,13.6,0,24.3c0,10.6,3.8,13.2,10,16.2s15.6,5.3,15.6,5.3l0,0
		l8.7-12.9l0,0C122.5,174.5,117.4,172,114.5,169.9L114.5,169.9L114.5,169.9L114.5,169.9z"/>
	<path class="st2" d="M63.3,129.2v43.6h4.4l0,0c0,0,7.7,1,7.7-10.3s0-25.4,0-25.4s0.4-9.5-11.7-9.5c-10.9,0-24.2,4.5-24.2,4.5l0,0
		l5.5-15.7l0,0c0,0,5.9-1.8,10.8-2.3c4.9-0.5,15.9-0.6,21.2,1.1c5.2,1.7,13,7.2,13,21.3s0,33.2,0,33.2s0.7,17.2-20.7,17.2
		s-27.6,0-27.6,0s7.4-5.2,7.4-14.6s0-37,0-37l0,0L63.3,129.2L63.3,129.2L63.3,129.2z"/>
</g>
</svg>
