<?xml version="1.0" encoding="utf-8"?>
<!-- Generator: Adobe Illustrator 22.0.1, SVG Export Plug-In . SVG Version: 6.00 Build 0)  -->
<svg version="1.1" id="Layer_1" xmlns="http://www.w3.org/2000/svg" xmlns:xlink="http://www.w3.org/1999/xlink" x="0px" y="0px"
	 viewBox="0 0 595.3 841.9" style="enable-background:new 0 0 595.3 841.9;" xml:space="preserve">
<style type="text/css">
	.st0{fill-rule:evenodd;clip-rule:evenodd;fill:#58595B;}
	.st1{fill:#58595B;}
</style>
<g>
	<g>
		<path class="st0" d="M209,416.6c0.8,1.6,0.3,3.6-0.5,5l-6.2,14l-0.1,0.1l-2.2-14.2c-0.2-1.4,1.3-1.9,2.1-2.6
			c0-0.2-0.3-0.2-0.4-0.3l-2.1,0l-0.1-0.1c0-1.8,1-3.4,2.6-4.2c1.7-1,4-0.7,5.5,0.5C208.2,415.3,208.7,415.9,209,416.6L209,416.6z"
			/>
		<path class="st0" d="M197.6,416.1c0.5,0.9,0.8,2,0.6,3.2l-2.5,16.2c0,0,0,0,0,0.1l-0.7-1.3l-6.4-14.2c-0.6-1.8,0-3.7,1.3-5
			c1.3-1.4,3.5-1.7,5.3-1C196.1,414.4,197,415.2,197.6,416.1L197.6,416.1z"/>
		<path class="st0" d="M218.2,422.9c0.9,1.5,0.7,3.7-0.3,5c-0.6,0.9-1.6,1.4-2.4,2l-13.2,9h0l0.1-0.4l7-15.7c1-1.9,3-2.8,5.1-2.5
			C216.1,420.6,217.5,421.5,218.2,422.9L218.2,422.9z"/>
		<path class="st0" d="M188.3,422.8l7.3,16.2h-0.1l-14.6-10.1c-1.5-1.3-2.1-3.1-1.6-5c0.4-1.4,1.6-2.8,3-3.3
			C184.5,419.8,187.1,420.7,188.3,422.8L188.3,422.8z"/>
		<path class="st0" d="M222,434.3c0.7,1.5,0.4,3.7-0.6,5c-1,1.3-2.4,1.9-4,1.9l-15.6,0l13.1-9.1c1.3-0.8,3.2-1,4.6-0.3
			C220.5,432.2,221.5,433.3,222,434.3L222,434.3z"/>
		<path class="st0" d="M175.8,434.3c-0.7,1.5-0.4,3.7,0.6,5c1,1.3,2.4,1.9,4,1.9l15.6,0l-13.1-9.1c-1.3-0.8-3.2-1-4.6-0.3
			C177.3,432.2,176.3,433.3,175.8,434.3L175.8,434.3z"/>
	</g>
	<g>
		<path class="st1" d="M61.1,417.5c0-0.5-0.2-0.8-1.4-0.9V416h12.4v0.6c-1.2,0.1-1.4,0.4-1.4,0.7c0,0.6,8.9,10.1,12.5,14v-13.8
			c0-0.6-0.4-0.9-1.1-0.9V416h9.4v0.6c-1.3,0.1-1.4,0.5-1.4,0.9v24c0,0.5,0.2,0.8,1.4,0.9v0.6h-9.8v-0.6c0.9,0,1.2-0.2,1.2-0.6
			c0-0.7-1.3-1.3-14.9-16.6v16.2c0,0.5,0.2,0.8,1.4,0.9v0.6h-9.8v-0.6c1.3-0.1,1.4-0.5,1.4-0.9V417.5z"/>
		<path class="st1" d="M98.4,417.5c0-0.5-0.2-0.8-1.4-0.9V416h19.6c5.6,0,9.6,2.1,9.6,7.2c0,3.1-2.1,5-4.9,5.6v0.1
			c3.5,0.9,6,2.8,6,6.6c0,4.1-3.1,7.6-10.4,7.6H97v-0.6c1.3-0.1,1.4-0.5,1.4-0.9V417.5z M106.1,426.2h7c4.4,0,5.6-0.3,5.6-2.4
			c0-2.1-1.1-2.4-5.6-2.4h-7V426.2z M106.1,437.7h8.8c3.6,0,5.1-0.8,5.1-3.1c0-2.3-1.4-3.1-5.1-3.1h-8.8V437.7z"/>
		<path class="st1" d="M157,426l-0.5-0.4c0.1-0.2,0.1-0.4,0.1-0.8c0-1-4-2.4-8.4-2.4c-4.2,0-9.6,1.8-9.6,7.1c0,5.3,5.4,7.1,9.6,7.1
			c1.8,0,8.7-1.4,8.7-2.9c0-0.3-0.2-0.5-0.3-0.8l0.6-0.4l5.3,8.1l-0.6,0.4c-0.2-0.4-0.4-0.4-0.7-0.4c-1,0-5.8,2.8-13.5,2.8
			c-8.2,0-17-4.6-17-13.9c0-9.2,8.8-13.9,17-13.9c4.1,0,7.1,0.5,9.1,1.1c2,0.6,3,1,3.6,1c0.3,0,0.6-0.2,0.8-0.4l0.6,0.2L157,426z"/>
		<path class="st1" d="M251.7,417.5c0-0.5-0.2-0.8-1.4-0.9V416h10.6v0.6c-1.3,0.1-1.4,0.5-1.4,0.9v13.8c0,9.1-6.3,12.1-14.2,12.1
			c-7.9,0-14.2-3-14.2-12.1v-13.8c0-0.5-0.2-0.8-1.4-0.9V416h10.6v0.6c-1.3,0.1-1.4,0.5-1.4,0.9v13.8c0,4,2.4,5.6,6.5,5.6
			c4.1,0,6.5-1.6,6.5-5.6V417.5z"/>
		<path class="st1" d="M270.9,417.5c0-0.5-0.2-0.8-1.4-0.9V416h12.4v0.6c-1.2,0.1-1.4,0.4-1.4,0.7c0,0.6,8.9,10.1,12.5,14v-13.8
			c0-0.6-0.4-0.9-1.1-0.9V416h9.4v0.6c-1.3,0.1-1.4,0.5-1.4,0.9v24c0,0.5,0.2,0.8,1.4,0.9v0.6h-9.8v-0.6c0.9,0,1.2-0.2,1.2-0.6
			c0-0.7-1.3-1.3-14.9-16.6v16.2c0,0.5,0.2,0.8,1.4,0.9v0.6h-9.8v-0.6c1.3-0.1,1.4-0.5,1.4-0.9V417.5z"/>
		<path class="st1" d="M310.1,443.1v-0.6c1.3-0.1,1.4-0.5,1.4-0.9v-24c0-0.5-0.2-0.8-1.4-0.9V416h10.6v0.6c-1.3,0.1-1.4,0.5-1.4,0.9
			v24c0,0.5,0.2,0.8,1.4,0.9v0.6H310.1z"/>
		<path class="st1" d="M338.5,443.1v-0.6c0.6-0.1,0.8-0.3,0.8-0.5c0-0.5-9.2-21.3-10.4-24c-0.5-1.1-0.7-1.4-1.2-1.4V416h10.6v0.6
			c-0.8,0.1-1,0.3-1,0.6c0,0.4,0.8,1.6,7.2,15.7c6.1-13.6,7-15.1,7-15.7c0-0.4-0.2-0.5-0.8-0.6V416h8.9v0.6
			c-0.4,0.1-0.6,0.2-0.8,0.7c-0.5,1.6-10.4,24-10.4,24.7c0,0.3,0.3,0.5,0.7,0.5v0.7H338.5z"/>
		<path class="st1" d="M385.9,433.2h-0.6c-0.2-0.7-0.5-1.2-1.5-1.2h-9.6v4.8h16.5c0.6,0,0.8-0.3,0.9-1.5h0.6v9h-0.6
			c-0.2-0.9-0.4-1.1-0.9-1.1H365v-0.6c1.3-0.1,1.4-0.5,1.4-0.9v-24c0-0.5-0.2-0.8-1.4-0.9V416h25.7c0.6,0,0.8-0.3,0.9-1.4h0.6v9
			h-0.6c-0.2-1.2-0.4-1.4-0.9-1.4h-16.5v4.3h9.6c1,0,1.4-0.5,1.5-1.2h0.6V433.2z"/>
		<path class="st1" d="M409.6,441.6c0,0.5,0.2,0.8,1.4,0.9v0.6h-10.6v-0.6c1.3-0.1,1.4-0.5,1.4-0.9v-24c0-0.5-0.2-0.8-1.4-0.9V416
			h18.9c7.6,0,10.9,2.7,10.9,8.6c0,4.7-3.1,7.3-7.4,8.5l6.1,8.6c0.5,0.7,0.9,0.9,1.5,0.9v0.6h-10.7v-0.6c0.7-0.1,1.1-0.3,1.1-0.9
			c0-0.5-5.5-7.6-6.1-8.7h-5.1V441.6z M409.6,427.4h8.7c3,0,4-1.3,4-2.8c0-1.5-0.9-2.8-4-2.8h-8.7V427.4z"/>
		<path class="st1" d="M439.4,432.4l0.5,0.3c-0.1,0.3-0.1,0.6-0.1,1.1c0,1.4,5.5,3.7,10.9,3.7c5.2,0,7.5-1.2,7.5-3.5
			c0-3.8-21.2,0.4-21.2-9.5c0-5.2,4.9-8.7,12.5-8.7c7.1,0,12.2,2.2,13.6,2.2c0.7,0,1-0.4,1.4-0.8l0.6,0.2l-3.6,7.2l-0.6-0.3v-0.6
			c0-1.3-5.9-2.7-10.7-2.7c-4.5,0-6,1.2-6,2.4c0,4.6,21.3-1,21.3,10.8c0,4.4-3.4,9.3-14.5,9.3c-8.6,0-12.4-2.4-13.6-2.4
			c-0.4,0-0.7,0.4-1,0.7l-0.6-0.2L439.4,432.4z"/>
		<path class="st1" d="M477.7,437.2c-1.3,3.8-1.6,4.4-1.6,4.7c0,0.3,0.2,0.5,0.9,0.5v0.6h-9.1v-0.6c0.7-0.2,1-0.4,1.3-1.2
			c0.5-1.2,9.2-23.9,9.2-24.2c0-0.4-0.6-0.5-1-0.5V416h13.5v0.6c-0.6,0.1-0.9,0.2-0.9,0.7c0,0.4,6.3,15.8,9.5,23.7
			c0.5,1.2,0.8,1.5,1.4,1.5v0.6h-10.2v-0.6c0.7-0.1,1-0.3,1-0.6c0-0.2-1.5-4-1.8-4.6H477.7z M479,433.1h9.6l-5-12.3L479,433.1z"/>
		<path class="st1" d="M516.4,436.8h17.7c0.6,0,0.8-0.3,0.9-1.4h0.6v9.1H535c-0.2-1.1-0.4-1.3-0.9-1.3h-26.9v-0.6
			c1.3-0.1,1.4-0.5,1.4-0.9v-24c0-0.5-0.2-0.8-1.4-0.9V416h10.6v0.6c-1.3,0.1-1.4,0.5-1.4,0.9V436.8z"/>
	</g>
	<path class="st0" d="M210.3,403.6c12.5-34.3,46.4-59,86.2-59c39.8,0,73.7,24.6,86.2,58.9c0.7,2,1.4,2.5,0.7,0
		C373.2,366,337.8,337,296.4,337c-41.9,0-77.2,28.3-87,66.4C208.7,406.4,209.2,406.4,210.3,403.6z"/>
	<path class="st0" d="M210.3,455.5c12.5,34.3,46.4,59,86.2,59c39.8,0,73.7-24.6,86.2-58.9c0.7-2,1.4-2.5,0.7,0
		c-10.3,37.5-45.6,66.5-87.1,66.5c-41.9,0-77.2-28.3-87-66.4C208.7,452.7,209.2,452.6,210.3,455.5z"/>
</g>
</svg>
