<?xml version="1.0" encoding="utf-8"?>
<!-- Generator: Adobe Illustrator 22.0.1, SVG Export Plug-In . SVG Version: 6.00 Build 0)  -->
<svg version="1.1" id="Layer_1" xmlns="http://www.w3.org/2000/svg" xmlns:xlink="http://www.w3.org/1999/xlink" x="0px" y="0px"
	 viewBox="0 0 141.1 81.6" style="enable-background:new 0 0 141.1 81.6;" xml:space="preserve">
<style type="text/css">
	.st0{fill:#BCBEC0;}
	.st1{opacity:0.7;}
</style>
<g>
	<g>
		<path class="st0" d="M73.1,25.4h1.2v5.8h-1.2V25.4z M73.1,37.1h1.2v30.4h-1.2V37.1z"/>
		<path class="st0" d="M80.5,37.1h1.2v6.5h0.2c1.2-4.6,4.1-7.2,8-7.2c6,0,9.4,4.7,9.4,16.2c0,8.9-2.2,15.6-9.4,15.6
			c-4.6,0-6.8-3.3-8-6.8h-0.2v20.2h-1.2V37.1z M89.9,67.1c6.5,0,8.2-6.4,8.2-14.3c0-8-1.5-15.4-8.2-15.4c-5,0-8.2,4.8-8.2,14.8
			C81.7,62.5,85,67.1,89.9,67.1z"/>
		<path class="st0" d="M104.7,25.4h1.2v42h-1.2V25.4z"/>
		<path class="st0" d="M112.4,25.4h1.2v5.8h-1.2V25.4z M112.4,37.1h1.2v30.4h-1.2V37.1z"/>
		<path class="st0" d="M119.8,25.4h1.2v28.7l14.4-17h1.5l-9.5,11.2l13.8,19.4h-1.2l-13.4-18.5l-5.5,6.5v11.7h-1.2L119.8,25.4
			L119.8,25.4z"/>
	</g>
	<g class="st1">
		<path class="st0" d="M66,7.2C66,7.2,66,7.2,66,7.2C66,7.2,66,7.2,66,7.2z"/>
		<path class="st0" d="M65,6.5c0,0,0.1,0,0.1,0.1C65.1,6.5,65,6.5,65,6.5z"/>
		<path class="st0" d="M69.5,5.3c-4-4-8.6-5.7-13.9-5.2c-5.3,0.5-9.9,2.7-13.9,6.7c-2.6,2.6-4.6,5.7-5.9,9.2
			c-1.3,3.5-2.1,9.2-2.3,16.9l-0.1,3.4c-0.1,10.2-0.9,17.8-2.5,22.7c-1.6,4.9-6.5,11-11.6,11.2c-7.1,0.3-13-3.2-16.1-8.1
			c-1.4-2.2-2.4-4.5-2.9-6.7c-0.1-0.1-0.1-0.3-0.2-0.4c-0.4,5.4,1.4,10.1,5.4,14.1c4.2,4.2,9.9,6.1,15.5,5.6c5.6-0.5,9.8-3,14.1-7.3
			c3.4-3.4,5.8-7.6,7.1-12.4c1-3.7,1.5-9.7,1.6-18l0.1-3.4l0.4-11.9c0.3-2.6,0.9-5,1.8-7.2c1-2.2,2.2-4.1,3.8-5.7
			c2.1-2.1,4.5-3.3,7.2-3.8c5.3-1.4,11.5,1.3,15.1,6.9c1.5,2.3,2.3,4.8,2.5,7.2c0-0.2,0-0.4,0-0.5C75.1,13.6,73.3,9.2,69.5,5.3z"/>
	</g>
</g>
</svg>
