<?xml version="1.0" encoding="utf-8"?>
<!-- Generator: Adobe Illustrator 22.0.1, SVG Export Plug-In . SVG Version: 6.00 Build 0)  -->
<svg version="1.1" id="Layer_1" xmlns="http://www.w3.org/2000/svg" xmlns:xlink="http://www.w3.org/1999/xlink" x="0px" y="0px"
	 viewBox="0 0 161.1 60.3" style="enable-background:new 0 0 161.1 60.3;" xml:space="preserve">
<style type="text/css">
	.st0{opacity:0.7;}
	.st1{fill:#28292A;}
	.st2{fill:#666666;}
	.st3{fill:#666667;}
</style>
<g>
	<g class="st0">
		<path class="st1" d="M104,22c0.5,0,0.9,0.4,0.9,0.9v35.4c0,0.5-0.4,0.9-0.9,0.9h-4.1c-0.5,0-0.9-0.4-0.9-0.9V22.9
			c0-0.5,0.4-0.9,0.9-0.9H104L104,22z"/>
		<path class="st1" d="M71.5,22H55.2c-0.5,0-0.9,0.4-0.9,0.9v3.6c0,0.5,0.4,0.9,0.9,0.9h5.2v31c0,0.5,0.4,0.9,0.9,0.9h4.1
			c0.5,0,0.9-0.4,0.9-0.9v-31h5.2c0.5,0,0.9-0.4,0.9-0.9v-3.6C72.4,22.4,72,22,71.5,22z"/>
		<path class="st1" d="M135.9,58.1V22.8c0-0.1,0-0.1,0-0.1c-0.1-0.4-0.4-0.7-0.8-0.7l0,0l0,0h-6.5c-0.5,0-0.9,0.4-0.9,0.9l-3.9,25.5
			l0,0l-4.2-25.5c0-0.5-0.4-0.9-0.9-0.9h-6.6c-0.5,0-0.9,0.4-0.9,0.9c0,0,0,0.1,0,35.2c-0.1,0.5,0.1,1,0.6,1.1h3.6
			c0.6,0,0.9-0.2,1-0.6V34.5l4.2,23.8c0,0.5,0.4,0.9,0.9,0.9h0.6h2.8h0.6c0.5,0,0.9-0.4,0.9-0.9l3.9-23.8v24.1
			c0.1,0.5,0.4,0.7,1,0.6h3.9C135.7,59.1,136,58.6,135.9,58.1z M123.8,48.4L123.8,48.4L123.8,48.4L123.8,48.4z"/>
		<path class="st1" d="M93.9,58.2L88,23c0-0.5-0.4-0.9-0.9-0.9h-6.9c-0.5,0-0.9,0.4-0.9,0.9l-5.6,35.2c-0.1,0.5,0.1,1,0.6,1.1h4.1
			c0.6,0,0.9-0.2,1-0.6l0.9-6.1h6.8l0.9,6.1c0.1,0.5,0.4,0.7,1,0.6h4.2C93.8,59.2,94.1,58.7,93.9,58.2z M80.7,47.5l3-18.8l2.9,18.8
			H80.7z"/>
		<path class="st1" d="M161.1,58.2l-6-35.2c0-0.5-0.4-0.9-0.9-0.9h-6.9c-0.5,0-0.9,0.4-0.9,0.9l-5.6,35.2c-0.1,0.5,0.1,1,0.6,1.1
			h4.1c0.6,0,0.9-0.2,1-0.6l0.9-6.1h6.8l0.9,6.1c0.1,0.5,0.4,0.7,1,0.6h4.2C161,59.2,161.2,58.7,161.1,58.2z M147.8,47.5l3-18.8
			l2.9,18.8H147.8z"/>
	</g>
	<path class="st2" d="M54.9,6.7c-2.6,0.2-5.2,0.5-7.8,0.7c-0.2,0-0.3-0.1-0.5-0.2C45.7,6.8,44.8,6.4,44,6c-1.8-0.8-3.5-1.6-5.3-2.4
		c-1.4-0.6-2.9-1.3-4.3-1.8c-1.4-0.5-2.9-1-4.3-1.5c-0.9-0.3-1.8-0.4-2.8-0.1C26.2,0.6,25.1,1,24,1.5c-4.1,1.8-8.1,4-12,6.2
		c-3,1.6-6,3.4-9,5.2c-1,0.6-2,1.2-3,1.8c0.7,1,1.5,1.9,2.7,2.4c0.4,0.2,0.8,0.3,1.2,0.3c0.7,0,1.4-0.1,2.1-0.3
		c5.5-1.1,10.9-2.6,16.3-4.1c0.1,0,0.2-0.2,0.3-0.3c0.2-0.4,0.3-0.8,0.5-1.1c0.4-0.9,0.9-1.8,1.7-2.5c0.5-0.5,1.1-0.7,1.8-0.6
		c0.4,0.1,0.8,0.1,1.3,0.2c3,0.4,5.9,1,8.7,2.1c0.5,0.2,0.7,0.6,0.6,1.1c-0.2,0.4-0.6,0.6-1.1,0.5c-3-1.1-6.2-1.7-9.4-2.1
		c-0.5-0.1-0.9,0.1-1.1,0.5c-0.4,0.8-0.6,1.5-0.9,2.2c-0.1,0.3-0.1,0.4,0.1,0.5c2.9,2.2,5.6,4.2,8.8,5.7c1.9,0.9,4,2.2,6.1,2.6
		c2.4,0.4,4.8,0.4,7.2-0.5s4.6-1.8,7.9-3.5c0.4-0.2,2.8-1.4,4-2.2c0.7-0.5,1.3-1.1,1.8-1.9c1.3-2.3,1.6-4.8,1.6-7.4
		C59.7,6.3,57.3,6.5,54.9,6.7z"/>
	<g class="st0">
		<path class="st3" d="M26.2,8.2c0,0.1,0,0.1,0,0.2c0.3,0,0.6,0.1,0.9,0.1C26.7,8.3,26.4,8.2,26.2,8.2z"/>
		<path class="st1" d="M36.2,33.8c-0.1-0.3-0.2-0.3-0.5-0.3c-0.8,0.2-1.7,0.3-2.5,0.5c-0.5,0.1-0.7,0.4-0.8,0.9
			c-0.5,3.2-0.7,6.4-0.4,9.6c0,0.5-0.3,0.9-0.7,1c-0.5,0-0.8-0.3-0.9-0.8c-0.2-3-0.2-6,0.2-9c0-0.1,0-0.2,0-0.3
			c0.2-1.1,0.4-2.2,1-2.7c0.4-0.3,0.4-0.1,0.2-5c-0.2-3.6-0.4-4.9-0.5-7.6c-2.1-1.1-4.4-2.7-6.3-4c-0.5,3-0.5,2.8-1,5.8
			c-0.4,2.5-0.8,4.9-1.1,7.4l0,0C22.6,29.9,22,36,22,36.5c0.1,1.5,0,2,0.1,3.5c0.2,1.6,0.5,3.4,0.8,4.9c0.3,1.9,0.6,3.8,0.9,5.7
			c0.1,0.9,0.3,1.9,0.5,2.8c0.3,1.5,0.1,6.9,0.1,6.8h10.9c0.5-0.6,1.3-2.2,1.7-2.8c1.6-2,2.4-4.4,2.6-6.9c0.2-2.2,0-4.3-0.4-6.4
			C38.6,40.5,37.5,37.1,36.2,33.8z"/>
	</g>
</g>
</svg>
