<?xml version="1.0" encoding="utf-8"?>
<!-- Generator: Adobe Illustrator 22.0.1, SVG Export Plug-In . SVG Version: 6.00 Build 0)  -->
<svg version="1.1" id="Layer_1" xmlns="http://www.w3.org/2000/svg" xmlns:xlink="http://www.w3.org/1999/xlink" x="0px" y="0px"
	 viewBox="0 0 540.3 476.9" style="enable-background:new 0 0 540.3 476.9;" xml:space="preserve">
<style type="text/css">
	.st0{fill:#AF9EAC;}
	.st1{fill-rule:evenodd;clip-rule:evenodd;fill:#AF9EAC;}
</style>
<g>
	<g>
		<path class="st0" d="M155.3,128.5l5.1-9c0.2-0.4,0.3-0.7,0.4-1c0-0.3,0.1-0.6,0.1-0.8c0-0.7-0.2-1.3-0.5-1.8
			c-0.3-0.5-0.8-0.8-1.3-0.8c-0.5,0-0.9,0.2-1.3,0.7c-0.4,0.5-0.6,1.1-0.6,2h-1.9c0-1.5,0.4-2.8,1.1-3.8c0.7-1,1.5-1.5,2.5-1.5
			c1.1,0,2,0.5,2.7,1.5c0.7,1,1.1,2.2,1.1,3.7c0,1.2-0.3,2.3-0.8,3.2l-4.2,7.4h5v2.6h-7.4V128.5z"/>
		<path class="st0" d="M164.8,117.7c0-1.7,0.4-3,1.1-3.9c0.7-0.9,1.6-1.4,2.5-1.4c1,0,1.9,0.5,2.6,1.4c0.7,0.9,1.1,2.2,1.1,3.9v8.1
			c0,1.7-0.4,3-1.1,3.9c-0.7,0.9-1.6,1.4-2.6,1.4c-1,0-1.8-0.5-2.5-1.4c-0.8-0.9-1.1-2.2-1.1-3.9V117.7z M170.3,117.9
			c0-1.8-0.6-2.8-1.8-2.8c-1.2,0-1.8,1-1.8,2.8v7.8c0,1.9,0.6,2.8,1.8,2.8c1.2,0,1.8-1,1.8-2.8V117.9z"/>
		<path class="st0" d="M174.2,117.7c0-1.7,0.4-3,1.1-3.9c0.7-0.9,1.6-1.4,2.5-1.4c1,0,1.9,0.5,2.6,1.4c0.7,0.9,1.1,2.2,1.1,3.9v8.1
			c0,1.7-0.4,3-1.1,3.9c-0.7,0.9-1.6,1.4-2.6,1.4c-1,0-1.8-0.5-2.5-1.4c-0.8-0.9-1.1-2.2-1.1-3.9V117.7z M179.7,117.9
			c0-1.8-0.6-2.8-1.8-2.8c-1.2,0-1.8,1-1.8,2.8v7.8c0,1.9,0.6,2.8,1.8,2.8c1.2,0,1.8-1,1.8-2.8V117.9z"/>
		<path class="st0" d="M183.6,117.7c0-1.7,0.4-3,1.1-3.9c0.7-0.9,1.6-1.4,2.5-1.4c1,0,1.9,0.5,2.6,1.4c0.7,0.9,1.1,2.2,1.1,3.9v8.1
			c0,1.7-0.4,3-1.1,3.9c-0.7,0.9-1.6,1.4-2.6,1.4c-0.9,0-1.6-0.4-2.3-1.1c-0.7-0.7-1.1-1.7-1.3-3.1h1.9c0.3,1,0.9,1.5,1.7,1.5
			c1.2,0,1.8-1,1.8-2.8v-1.7c-0.9,0.4-1.7,0.6-2.5,0.6c-0.8,0-1.6-0.4-2.2-1.2c-0.6-0.8-0.9-2.1-0.9-3.9V117.7z M185.5,119.4
			c0,1.9,0.6,2.8,1.8,2.8c1.2,0,1.8-1,1.8-2.8v-1.5c0-1.8-0.6-2.8-1.8-2.8c-1.2,0-1.8,1-1.8,2.8V119.4z"/>
	</g>
	<g>
		<path class="st0" d="M326.5,128.5l5.1-9c0.2-0.4,0.3-0.7,0.4-1c0-0.3,0.1-0.6,0.1-0.8c0-0.7-0.2-1.3-0.5-1.8
			c-0.3-0.5-0.8-0.8-1.3-0.8c-0.5,0-0.9,0.2-1.3,0.7c-0.4,0.5-0.6,1.1-0.6,2h-1.9c0-1.5,0.4-2.8,1.1-3.8c0.7-1,1.5-1.5,2.5-1.5
			c1.1,0,2,0.5,2.7,1.5c0.7,1,1.1,2.2,1.1,3.7c0,1.2-0.3,2.3-0.8,3.2l-4.2,7.4h5v2.6h-7.4V128.5z"/>
		<path class="st0" d="M336,117.7c0-1.7,0.4-3,1.1-3.9c0.7-0.9,1.6-1.4,2.5-1.4c1,0,1.9,0.5,2.6,1.4c0.7,0.9,1.1,2.2,1.1,3.9v8.1
			c0,1.7-0.4,3-1.1,3.9c-0.7,0.9-1.6,1.4-2.6,1.4c-1,0-1.8-0.5-2.5-1.4c-0.8-0.9-1.1-2.2-1.1-3.9V117.7z M341.5,117.9
			c0-1.8-0.6-2.8-1.8-2.8c-1.2,0-1.8,1-1.8,2.8v7.8c0,1.9,0.6,2.8,1.8,2.8c1.2,0,1.8-1,1.8-2.8V117.9z"/>
		<path class="st0" d="M348.3,115.4l-1.8,1.9v-2.8l1.8-1.9h1.9V131h-1.9V115.4z"/>
		<path class="st0" d="M354.8,117.7c0-1.7,0.4-3,1.1-3.9c0.7-0.9,1.6-1.4,2.5-1.4c1,0,1.9,0.5,2.6,1.4c0.7,0.9,1.1,2.2,1.1,3.9v8.1
			c0,1.7-0.4,3-1.1,3.9c-0.7,0.9-1.6,1.4-2.6,1.4c-1,0-1.8-0.5-2.5-1.4c-0.8-0.9-1.1-2.2-1.1-3.9V117.7z M360.4,117.9
			c0-1.8-0.6-2.8-1.8-2.8c-1.2,0-1.8,1-1.8,2.8v7.8c0,1.9,0.6,2.8,1.8,2.8c1.2,0,1.8-1,1.8-2.8V117.9z"/>
	</g>
	<g>
		<g>
			<path class="st0" d="M205.5,254.4h-13.4l-2.7,8.2h-5.7l12.8-36.5h4.5l12.8,36.5h-5.6L205.5,254.4z M203.9,249.5l-5.1-16h-0.1
				l-5.1,16H203.9z"/>
			<path class="st0" d="M213.8,226.1h5.6L225,252h0.1l6.9-25.9h3.9l6.8,25.9h0.1l5.6-25.9h5.6l-8.8,36.5h-4.5l-6.7-26.3h-0.1
				l-6.8,26.3h-4.5L213.8,226.1z"/>
			<path class="st0" d="M276,254.4h-13.4l-2.7,8.2h-5.7l12.8-36.5h4.5l12.8,36.5h-5.6L276,254.4z M274.5,249.5l-5.1-16h-0.1l-5.1,16
				H274.5z"/>
			<path class="st0" d="M289.4,226.1h13.8c2.9,0,5.3,0.8,7.2,2.4c2.2,1.8,3.4,4.4,3.5,7.8c-0.1,5-2.3,8.3-6.8,10.1l8.2,16.2h-6.4
				l-7.3-15.6h-6.8v15.6h-5.3V226.1z M294.8,242.1h8.1c2,0,3.5-0.6,4.5-1.8c1-1.1,1.5-2.4,1.5-4c0-1.9-0.6-3.3-1.8-4.1
				c-0.9-0.8-2.2-1.1-3.9-1.1h-8.4V242.1z"/>
			<path class="st0" d="M320.9,226.1h12.4c4.8,0,8.4,2.1,10.8,6.2c0.9,1.4,1.4,2.8,1.6,4.3c0.2,1.5,0.3,4.1,0.3,7.8
				c0,3.9-0.1,6.7-0.4,8.2c-0.1,0.8-0.3,1.5-0.6,2.1c-0.3,0.6-0.6,1.2-1,1.9c-1,1.7-2.5,3.1-4.3,4.3c-1.8,1.2-4.1,1.8-6.7,1.8h-12
				V226.1z M326.3,257.4h6.4c3,0,5.2-1.1,6.5-3.2c0.6-0.8,1-1.8,1.1-3c0.1-1.2,0.2-3.4,0.2-6.7c0-3.2-0.1-5.4-0.2-6.8
				c-0.2-1.4-0.7-2.5-1.4-3.3c-1.5-2.1-3.6-3.2-6.3-3.1h-6.4V257.4z"/>
		</g>
	</g>
	<g>
		<path class="st0" d="M106,324.1l5.2-25.4l5.3,1.7l-3.6,15.9l6.6-14.9l5,1.7l-3.7,15.9l6.5-14.9l5.3,1.8l-11,23.5l-6.4-2.1
			l2.5-12.2l-5.2,11.4L106,324.1z"/>
		<path class="st0" d="M133.4,332.4l6.2-25l5.3,1.3l-6.2,25L133.4,332.4z"/>
		<path class="st0" d="M148.1,335.9l4.9-25.3l5.7,1.1l0.2,12.6l2.3-12.1l5.4,1l-4.9,25.3l-5.4-1.1l-0.3-13.2l-2.5,12.7L148.1,335.9z
			"/>
		<path class="st0" d="M171.5,340.1l3.5-25.5l5.8,0.8l0.9,12.6l1.7-12.2l5.4,0.7l-3.5,25.5l-5.5-0.8l-1-13.2l-1.8,12.8L171.5,340.1z
			"/>
		<path class="st0" d="M194.6,343.1l2.5-25.6l5.4,0.5l-2.5,25.6L194.6,343.1z"/>
		<path class="st0" d="M209,344.4l1.7-25.7l5.8,0.4l1.8,12.5l0.8-12.3l5.5,0.4l-1.7,25.7l-5.5-0.4l-2-13l-0.8,12.9L209,344.4z"/>
		<path class="st0" d="M233.1,344c-1-1.3-1.4-3.3-1.3-6l0.3-11.1c0.1-2.4,0.7-4.2,1.9-5.3c1.2-1.2,3-1.7,5.3-1.7
			c1.9,0.1,3.3,0.4,4.3,1.1s1.7,1.7,2.1,3c0.4,1.3,0.5,3,0.5,5l-5.5-0.2l0.1-2.3c0-0.6-0.1-1.1-0.2-1.4c-0.2-0.3-0.5-0.5-1-0.5
			c-1.1,0-1.6,0.6-1.7,1.9l-0.3,12.5c0,0.8,0.1,1.4,0.3,1.8c0.2,0.4,0.6,0.6,1.1,0.6c0.5,0,0.9-0.2,1.2-0.6c0.2-0.4,0.4-1,0.4-1.8
			l0.1-3.7l-1.5,0l0.1-4.4l6.9,0.2l-0.4,15l-2.3-0.1l-0.9-2.2c-1.1,1.6-2.6,2.3-4.7,2.3C235.6,346,234,345.3,233.1,344z"/>
		<path class="st0" d="M268.6,346.1l-0.4-25.7l5.7-0.1l0.4,21.4l5.8-0.1l0.1,4.4L268.6,346.1z"/>
		<path class="st0" d="M289.6,344c-1.2-1.2-1.9-3-2-5.3l-0.5-12.2c-0.1-2.2,0.4-3.9,1.6-5.1c1.1-1.2,2.8-1.8,5.1-1.9
			c2.3-0.1,4,0.4,5.3,1.5c1.2,1.1,1.9,2.7,2,4.9l0.5,12.2c0.1,2.3-0.4,4.1-1.5,5.4c-1.1,1.3-2.8,2-5.1,2.1
			C292.7,345.7,290.9,345.2,289.6,344z M295.7,340.3c0.2-0.4,0.2-1,0.2-1.7l-0.5-12.6c0-0.6-0.1-1-0.3-1.4c-0.2-0.3-0.5-0.5-1-0.5
			c-0.9,0-1.4,0.7-1.3,2l0.5,12.5c0,0.7,0.2,1.3,0.4,1.7c0.2,0.4,0.6,0.5,1.1,0.5C295.2,340.9,295.6,340.7,295.7,340.3z"/>
		<path class="st0" d="M312.1,342.9c-1.3-1.1-2.1-2.6-2.2-4.7l-0.9-11.8c-0.2-2.5,0.2-4.5,1.2-5.9c1-1.4,2.7-2.2,5.1-2.3
			c2.1-0.2,3.8,0.2,5.1,1.2c1.4,0.9,2.1,2.4,2.3,4.3l0.3,4.4l-5.6,0.4l-0.3-3.8c-0.1-0.7-0.2-1.2-0.4-1.5c-0.2-0.3-0.6-0.4-1.1-0.3
			c-0.5,0-0.8,0.2-1,0.6c-0.2,0.3-0.2,0.8-0.2,1.4l1,12.9c0.1,0.7,0.2,1.2,0.4,1.5c0.2,0.3,0.6,0.4,1,0.4c0.9-0.1,1.3-0.7,1.2-2
			l-0.4-4.6l5.7-0.4l0.4,4.8c0.3,4.3-1.9,6.6-6.6,7C315.1,344.5,313.4,344,312.1,342.9z"/>
		<path class="st0" d="M332.1,342.8l-0.3-25.9l9.5-1.1l5.7,25.3l-5.3,0.6l-0.9-4.1l-3.4,0.4l0.2,4.2L332.1,342.8z M337.4,333.9
			l2.6-0.3l-2.8-12.9l-0.3,0L337.4,333.9z"/>
		<path class="st0" d="M358.3,339.4l-3.4-20.5l-3.3,0.6l-0.8-4.9l12.2-2l0.8,4.9l-3.3,0.6l3.4,20.5L358.3,339.4z"/>
		<path class="st0" d="M375.7,336.2l-5.4-25.2l5.4-1.2L381,335L375.7,336.2z"/>
		<path class="st0" d="M391.6,330.8c-1.5-0.9-2.6-2.4-3.2-4.6l-3.4-11.8c-0.6-2.1-0.5-3.9,0.3-5.3c0.8-1.4,2.3-2.4,4.5-3.1
			c2.2-0.6,4-0.6,5.5,0.2c1.5,0.8,2.5,2.2,3.1,4.3l3.4,11.8c0.6,2.2,0.6,4.1-0.2,5.6c-0.8,1.5-2.3,2.6-4.5,3.3
			C394.9,331.8,393.1,331.7,391.6,330.8z M396.6,325.8c0.1-0.4,0-1-0.2-1.7l-3.5-12.1c-0.2-0.5-0.4-1-0.6-1.2
			c-0.3-0.3-0.6-0.4-1.1-0.2c-0.9,0.3-1.2,1-0.8,2.3l3.5,12.1c0.2,0.7,0.5,1.2,0.8,1.5c0.3,0.3,0.7,0.4,1.2,0.2
			C396.3,326.5,396.6,326.2,396.6,325.8z"/>
		<path class="st0" d="M413.9,325.5l-10.3-23.6l5.4-2.3l7.3,10.2l-4.9-11.3l5-2.2l10.3,23.6l-5.1,2.2l-7.8-10.7l5.2,11.8
			L413.9,325.5z"/>
	</g>
	<path class="st1" d="M206.5,190.3h-94.2l26.4,38.6l-26.4,38.6h64.2v-8.8H129l20.4-29.8L129,199.1h77.5V190.3L206.5,190.3z
		 M248.6,101.6l8,8l-2.6,5.6c-4.9,10.4-2.8,15-0.8,22.6h20.9c2-7.7,4.1-12.2-0.8-22.6l-2.6-5.6l8-8l-9.7-14.2l7.4-4.9
		c7.4-4.9,13.2-10.5,16.3-18.9c1.8-4.9,2.6-10.3,3.3-15.5c0.5-3.7,0.9-7.3,1.4-11h-67.5c0.5,3.7,0.9,7.3,1.4,11
		c0.7,5.2,1.5,10.6,3.3,15.5c3.1,8.4,8.9,14,16.3,18.9l7.4,4.9L248.6,101.6L248.6,101.6z M246.1,163.4l-8.8-4.4v17.3l8.8,4.4V163.4
		L246.1,163.4z M243.8,152.5l5.8,2.9h28.1l5.8-2.9l-5.9-5.9h-27.9L243.8,152.5L243.8,152.5z M281.2,163.4v17.3l8.8-4.4V159
		L281.2,163.4L281.2,163.4z M272.4,181.8v-17.6h-17.6v17.6H272.4L272.4,181.8z M334,45.8c0,25.7-18.2,47.8-44,56.9l-8.8,8.8
		c6.2,13.1,3.7,19.7,1.5,27.9l16,16v26.4l-17.6,8.8h-35.2l-17.6-8.8v-26.4l16-16c-2.2-8.2-4.6-14.9,1.5-27.9l-8.8-8.8
		c-25.8-9.1-44-31.1-44-56.9V37H221c-0.4-2.8-0.8-5.7-1.4-8.8h87.9c-0.5,3.1-1,6-1.4,8.8H334V45.8L334,45.8z M284.8,95.1
		c16-5,30.1-15.8,36.8-31.6c2.4-5.6,3.6-11.6,3.6-17.7h-20.1c-2.2,17.8-4.4,31-23.9,44L284.8,95.1L284.8,95.1z M222.2,45.8h-20.1
		c0,6.1,1.2,12,3.6,17.7c6.6,15.8,20.8,26.6,36.8,31.6l3.6-5.3C226.6,76.8,224.4,63.6,222.2,45.8L222.2,45.8z M263.6,69.8l3-2
		c4-2.7,7.8-5.7,9.6-10.4c1.4-3.7,1.6-7.8,2.1-11.6h9.1c-0.6,4.9-1.3,10-3,14.7c-2.4,6.6-7.2,10.8-12.9,14.6l-7.8,5.2V69.8
		L263.6,69.8z M219.7,19.4h87.9v-8.8h-87.9V19.4L219.7,19.4z M320.8,190.6H415l-26.4,38.6l26.4,38.6h-64.2V259h47.5l-20.4-29.8
		l20.4-29.8h-77.5V190.6L320.8,190.6z M176.5,285.2h174.3v-8.8H176.5V285.2L176.5,285.2z M176.5,208.1h174.3v8.8H176.5V208.1
		L176.5,208.1z"/>
	<g>
		<polygon class="st1" points="265.2,365.4 269.8,379.6 284.8,379.5 272.7,388.3 277.3,402.5 265.2,393.7 253.2,402.5 257.8,388.3 
			245.7,379.5 260.7,379.6 		"/>
		<polygon class="st1" points="321.2,367.2 324.4,377.3 335,377.3 326.4,383.5 329.7,393.5 321.2,387.3 312.6,393.5 315.9,383.5 
			307.3,377.3 317.9,377.3 		"/>
		<polygon class="st1" points="211.6,367.2 214.9,377.3 225.4,377.3 216.9,383.5 220.2,393.5 211.6,387.3 203.1,393.5 206.4,383.5 
			197.8,377.3 208.4,377.3 		"/>
		<polygon class="st1" points="162.7,360.5 165.3,368.5 173.7,368.5 166.9,373.4 169.5,381.4 162.7,376.5 155.9,381.4 158.5,373.4 
			151.7,368.5 160.1,368.5 		"/>
		<polygon class="st1" points="371.6,360.5 374.2,368.5 382.7,368.5 375.8,373.4 378.4,381.4 371.6,376.5 364.8,381.4 367.4,373.4 
			360.6,368.5 369,368.5 		"/>
	</g>
	<path class="st0" d="M529.8,274c1.3-11.7,7.7-28.2,7.6-28.3c0.2,0.6-30.8,25.6-38.8,42.7c2-6.3,3.6-12.6,5-19
		c9.3-6.3,34.6-31.6,31.9-49.6c-1.4-11.7,1.3-28.9,1.2-29c0.3,0.6-24.5,30-28.6,48c0.5-6.5,0.7-12.9,0.7-19.4
		c7.8-7.6,26.9-36.5,20.3-53.7c-3.9-11.3-5.2-28.6-5.3-28.7c0.5,0.5-17.3,33.3-17.3,51.6c-0.9-6.4-2.2-12.8-3.7-19.1
		c5.9-8.7,18.3-40.2,7.7-55.9c-6.5-10.5-11.8-27.3-12-27.3c0.6,0.4-9.1,35.5-5,53.5c-2.4-6.2-5.1-12.2-8-18.2
		c3.8-9.5,8.6-42.3-5.8-56.1c-9-9.2-18.6-24.8-18.7-24.8c0.8,0.3,0,36.2,8.4,53.2c-5.2-7.7-11-15.2-17.2-22.4c-2-4-4.1-8-6.3-11.9
		c-2.7-5.9-5.9-12.6-9.1-19.9C422.2,7,371,1,371.8,1.8c-0.2,0,13.2,9.4,24.1,27.4c15.1,23.8,48.3,43.9,57,50.4
		c3.8,4.6,7.3,9.4,10.7,14.2c-10.7-11.8-40.3-16-40.1-15.7c0-0.1,10.9,6.8,15,13.8c5.9,9.4,29.3,18.5,38,22.6
		c4.3,7.9,8.1,16,11.5,24.3c-7.6-13.2-35.3-22-35.2-21.7c0-0.1,8.9,8.4,11.2,15.9c3.5,10.1,24.2,22.7,31.7,28.2
		c2.4,8.5,4.3,17,5.6,25.6c-4.5-14.2-29.5-27.1-29.5-26.8c0-0.1,6.7,9.7,7.3,17.3c1,10.5,18.5,26.2,24.7,32.7
		c0.4,8.7,0.4,17.4-0.2,26.1c-1.2-14.6-22.9-31.4-23-31c0,0,4.4,10.5,3.2,18.2c-1.3,10.5,12.4,28.6,17,36c-1.5,8.6-3.5,17.2-6,25.6
		c2.1-14.6-15.5-34.5-15.6-34.2c0.1,0,2,11.1-0.9,18.4c-3.6,10.1,5.8,30.1,8.6,38.1c-3.4,8.2-7.4,16.3-11.8,24.2
		c5.4-14-7.3-36.3-7.5-36c0.1,0-0.5,11.2-5.1,17.9c-5.9,9.3-1.4,30.4-0.6,38.7c-5.4,7.5-11.2,14.7-17.6,21.7
		c8.8-12.8,1.7-36.6,1.4-36.4c0.1,0-3.2,10.9-9.4,16.8c-8.1,8.2-9.1,29.6-10.4,37.8c-7.3,6.5-15.1,12.7-23.4,18.5
		c12.5-11.1,11.5-35.6,11.2-35.4c0.1,0-6,10.1-13.8,14.9c-10.2,6.7-17.2,27.5-21,35.3c-31,17.3-67.7,30.3-110.1,37.2
		c-42.4-7-79.1-19.9-110.1-37.2c-3.8-7.8-10.8-28.6-21-35.3c-7.7-4.8-13.8-14.9-13.8-14.9c-0.4-0.2-1.3,24.3,11.2,35.4
		c-8.3-5.8-16.1-12-23.4-18.5c-1.4-8.2-2.4-29.6-10.4-37.8c-6.1-5.9-9.5-16.8-9.4-16.8c-0.3-0.2-7.5,23.6,1.4,36.4
		c-6.4-7-12.2-14.3-17.6-21.7c0.8-8.3,5.3-29.4-0.6-38.7c-4.5-6.7-5.1-17.9-5.1-17.9c-0.2-0.3-12.9,22-7.5,36
		c-4.5-7.9-8.4-15.9-11.8-24.2c2.8-8,12.2-28,8.6-38.1c-2.9-7.3-0.9-18.4-0.9-18.4c-0.1-0.3-17.7,19.6-15.6,34.2
		c-2.5-8.4-4.5-17-6-25.6c4.6-7.4,18.3-25.5,17-36c-1.2-7.6,3.2-18.2,3.2-18.2c-0.1-0.3-21.7,16.4-23,31c-0.6-8.7-0.6-17.4-0.2-26.1
		c6.2-6.5,23.7-22.2,24.7-32.7c0.6-7.7,7.2-17.4,7.3-17.3c0-0.3-25,12.6-29.5,26.8c1.4-8.6,3.3-17.2,5.6-25.6
		c7.5-5.4,28.2-18,31.7-28.2c2.3-7.5,11.1-15.9,11.2-15.9c0.1-0.3-27.6,8.4-35.2,21.7c3.3-8.3,7.1-16.3,11.5-24.3
		c8.6-4.1,32-13.2,38-22.6c4.1-7,15-13.9,15-13.8c0.1-0.3-29.4,3.9-40.1,15.7c3.4-4.8,6.9-9.6,10.7-14.2c8.6-6.6,41.9-26.6,57-50.4
		c10.9-18,24.2-27.4,24.1-27.4c0.8-0.8-50.4,5.2-64.9,37.8C96.9,47,93.8,53.7,91,59.6c-2.3,4-4.4,7.9-6.3,11.9
		c-6.3,7.2-12,14.7-17.2,22.4c8.4-17,7.6-52.9,8.4-53.2c-0.2,0-9.8,15.6-18.7,24.8c-14.3,13.8-9.6,46.6-5.8,56.1
		c-2.9,6-5.6,12.1-8,18.2c4.1-18-5.6-53-5-53.5c-0.1,0-5.5,16.8-12,27.3c-10.5,15.8,1.8,47.2,7.7,55.9c-1.5,6.3-2.7,12.7-3.7,19.1
		c0-18.4-17.8-51.1-17.3-51.6c-0.1,0-1.4,17.4-5.3,28.7c-6.7,17.2,12.5,46.1,20.3,53.7c-0.1,6.5,0.2,12.9,0.7,19.4
		c-4-18-28.9-47.4-28.6-48c-0.1,0.1,2.6,17.3,1.2,29c-2.7,17.9,22.5,43.3,31.9,49.6c1.4,6.4,3.1,12.7,5,19c-8-17.1-39-42-38.8-42.7
		c-0.1,0.1,6.3,16.5,7.6,28.3c1.3,18,31.9,38.9,42.5,43.6c2.8,6.1,6,12,9.4,17.9C47,320,11,300.4,11,299.7c-0.1,0.1,10,15.2,14,26.6
		c5.4,17.5,40.5,33.1,52.2,36c4.3,5.5,8.9,10.8,13.7,16c-15.7-13.3-56-26.8-56-27.4c-0.1,0.1,13.4,13.4,20.2,23.8
		c9.6,16.3,48.5,26,60.9,27c5.7,4.7,11.8,9.2,18.1,13.5c-19.5-10.5-62.9-17.3-63.1-17.9c0,0.1,16.7,11,26.3,20.2
		c13.8,14.4,55.7,17.7,68.7,16.6c26.2,13.3,56.3,23.7,90,30.2c-17.6,2.3-36.2,3.7-55.7,3.9c-3.3,0-6,0.9-6,2c0,1.1,2.7,2,6.1,2
		c24.2-0.3,46.9-2.3,68.2-5.7c21.3,3.4,44,5.4,68.2,5.7c3.4,0,6.1-0.9,6.1-2c0-1.1-2.7-2-6-2c-19.5-0.2-38.1-1.6-55.7-3.9
		c33.7-6.5,63.8-16.9,90-30.2c13,1,54.9-2.2,68.7-16.6c9.6-9.2,26.3-20,26.3-20.2c-0.2,0.6-43.6,7.5-63.1,17.9
		c6.3-4.3,12.3-8.8,18.1-13.5c12.5-1,51.3-10.7,60.9-27c6.7-10.5,20.2-23.7,20.2-23.8c-0.1,0.7-40.3,14.2-56,27.4
		c4.8-5.2,9.4-10.5,13.7-16c11.7-2.9,46.8-18.5,52.2-36c4-11.3,14-26.5,14-26.6c0.1,0.7-36,20.3-47.9,35.7
		c3.4-5.9,6.5-11.8,9.4-17.9C497.9,312.9,528.5,292.1,529.8,274z M437.2,56.1c-2.9-4.5-6.1-9.5-9.5-15.1
		c-12.9-22.3-46.2-35.8-49.1-36.6c3,0.6,36.5,8.9,56.8,39.6c2,3.1,3.9,6,5.6,8.6c1.3,3.2,3.3,7.4,3.2,9.4
		C444,64.9,439.5,58.3,437.2,56.1z M470.9,105.2c-1.4-2-2.9-4.2-4.1-6.5C468.2,100.9,469.6,103.1,470.9,105.2z M458,96.5
		c-8-10.3-30-17.2-30-17c-0.2-0.1,22.9,4.3,36.2,19.2c2.5,2.8,4.9,5.2,7.1,7.2c1.4,2.3,2.8,4.7,4.1,7.1
		C471,109.5,463.7,103.6,458,96.5z M471.8,97.7c0,0,0.1,0.1,0.1,0.1c3.1,3.7,5.6,7.8,7.4,11.7c-0.8-3.7-2.2-7.9-4.3-12.5
		c-10.2-23-12.4-50.1-12.6-50.3c0.5,0.1,5.3,27.7,13.7,42.7c7,11.4,8.4,23.9,8.4,30.5C480.8,112.3,476.5,104.9,471.8,97.7z
		 M492.3,151.3c-0.9-2.2-1.8-4.6-2.5-7.1C490.7,146.5,491.6,148.9,492.3,151.3z M481.7,140.6c-5.3-11.4-25-21.6-25-21.4
		c-0.1-0.1,21.1,7.8,30.6,24.5c1.8,3.2,3.6,5.9,5.3,8.2c0.8,2.5,1.6,5,2.4,7.6C491.3,155.4,485.6,148.5,481.7,140.6z M495,143.9
		c0,0.1,0,0.1,0.1,0.2c2.1,4.1,3.6,8.6,4.5,12.7c0.1-3.8-0.2-8.1-1.2-12.9c-4.5-24.2,0.2-51,0.1-51.3c0.4,0.2-1.9,28,2.8,44
		c4.1,12.3,2.6,24.8,1.1,31.2C500.3,159.7,497.9,151.8,495,143.9z M502.7,199.7c-0.4-2.3-0.7-4.8-0.8-7.2
		C502.2,194.9,502.5,197.3,502.7,199.7z M494.7,187.7c-2.6-12-19.6-25.2-19.6-25c-0.1-0.2,18.8,11,24.3,28.9
		c1.1,3.4,2.2,6.3,3.3,8.9c0.3,2.6,0.5,5.2,0.6,7.8C500.8,203.7,496.7,196,494.7,187.7z M507,193.2c1.2,4.4,1.6,9,1.5,13.1
		c0.9-3.7,1.6-7.9,1.7-12.9c1-24.4,12-50.1,11.9-50.3c0.3,0.3-8.4,27.2-7.4,43.6c1.2,12.7-3.1,24.7-6,30.8
		C508.6,209.4,508,201.2,507,193.2C507,193.1,507,193.2,507,193.2z M507.7,243.1c0,0.1,0,0.1,0,0.2c0.2,4.5-0.5,9.1-1.4,13.1
		c1.7-3.5,3.3-7.6,4.5-12.4c6.4-23.8,22.9-47.3,22.9-47.5c0.2,0.3-14.4,25.3-17,41.6c-1.7,12.7-8.5,23.8-12.8,29.3
		C505.7,259.4,507,251.3,507.7,243.1z M502.9,241.8c-0.2,2.5-0.5,5-0.8,7.4C502.2,246.8,502.4,244.3,502.9,241.8z M496.9,235.9
		c0-12.2-13.6-27.8-13.7-27.6c-0.1-0.2,16,13.8,17.4,32.2c0.3,3.5,0.7,6.6,1.3,9.3c-0.3,2.6-0.7,5.2-1.1,7.7
		C499.3,252.6,497,244.4,496.9,235.9z M95.8,52.6c1.7-2.6,3.6-5.4,5.6-8.6C121.7,13.3,155.2,5,158.2,4.4
		C155.3,5.2,122,18.7,109.1,41c-3.4,5.6-6.5,10.6-9.5,15.1c-2.3,2.2-6.8,8.8-7,5.9C92.5,60,94.5,55.8,95.8,52.6z M108.8,79.5
		c0-0.2-22,6.7-30,17c-5.7,7.1-13,13-17.4,16.4c1.3-2.4,2.7-4.7,4.1-7.1c2.2-2,4.6-4.4,7.1-7.2C86,83.8,109,79.4,108.8,79.5z
		 M70,98.7c-1.2,2.3-2.7,4.5-4.1,6.5C67.2,103.1,68.6,100.9,70,98.7z M60.7,89.4c8.4-15,13.3-42.5,13.7-42.7C74.2,47,72,74,61.8,97
		c-2.1,4.6-3.4,8.8-4.3,12.5c1.8-3.9,4.3-8,7.4-11.7c0,0,0.1-0.1,0.1-0.1c-4.7,7.2-9,14.7-12.8,22.2
		C52.3,113.3,53.7,100.8,60.7,89.4z M47,144.2c-0.7,2.5-1.6,4.8-2.5,7.1C45.3,148.9,46.1,146.5,47,144.2z M44.3,151.9
		c1.7-2.3,3.4-5,5.3-8.2c9.5-16.7,30.7-24.7,30.6-24.5c0-0.2-19.7,10-25,21.4c-3.9,7.9-9.6,14.8-13.2,18.9
		C42.7,157,43.5,154.4,44.3,151.9z M35.7,136.5c4.7-16,2.5-43.8,2.8-44c-0.1,0.2,4.6,27.1,0.1,51.3c-1,4.9-1.3,9.2-1.2,12.9
		c0.9-4.1,2.3-8.5,4.5-12.7c0,0,0-0.1,0.1-0.2c-2.9,7.8-5.3,15.8-7.3,23.8C33.1,161.3,31.6,148.8,35.7,136.5z M35,192.5
		c-0.1,2.5-0.4,4.9-0.8,7.2C34.4,197.3,34.7,194.9,35,192.5z M34.1,200.5c1.1-2.6,2.2-5.5,3.3-8.9c5.5-17.9,24.4-29.1,24.3-28.9
		c0-0.2-16.9,13-19.6,25c-2,8.3-6.1,16-8.7,20.6C33.6,205.7,33.8,203.1,34.1,200.5z M28.1,217.6c-2.9-6.1-7.2-18.1-6-30.8
		c1-16.4-7.7-43.3-7.4-43.6c-0.1,0.3,10.9,25.9,11.9,50.3c0.1,4.9,0.8,9.2,1.7,12.9c-0.1-4.2,0.3-8.7,1.5-13.1c0,0,0-0.1,0-0.1
		C28.8,201.2,28.3,209.4,28.1,217.6z M20.1,238.2c-2.7-16.3-17.3-41.3-17-41.6c0,0.3,16.6,23.7,22.9,47.5c1.2,4.8,2.8,8.9,4.5,12.4
		c-1-4.1-1.6-8.6-1.4-13.1c0-0.1,0-0.1,0-0.2c0.8,8.2,2,16.3,3.7,24.4C28.6,262,21.7,250.9,20.1,238.2z M34,241.8
		c0.4,2.5,0.7,5,0.8,7.4C34.5,246.7,34.2,244.2,34,241.8z M34.9,249.8c0.5-2.7,1-5.8,1.3-9.3c1.4-18.4,17.5-32.4,17.4-32.2
		c-0.1-0.2-13.7,15.4-13.7,27.6c-0.1,8.5-2.4,16.7-3.9,21.6C35.6,255,35.2,252.4,34.9,249.8z M29.5,289c-6.3-15.6-26.2-37.9-26-38.2
		c0.1,0.2,21.5,20.6,33.2,43c2.3,4.5,4.8,8.3,7.2,11.4c-1.9-3.8-3.5-8.2-4.4-12.7c0-0.1-0.1-0.2-0.1-0.3c2.6,7.9,5.7,15.8,9.2,23.5
		C43.3,311,34,301.2,29.5,289z M44,290.2c1,2.4,1.8,4.9,2.5,7.3C45.6,295.1,44.8,292.7,44,290.2z M49.6,305.5c-1-2.5-2-4.9-2.9-7.4
		c-0.1-2.7-0.3-5.8-0.8-9.3c-2.7-18.3,10-34.6,9.9-34.4c-0.1-0.2-10.1,17.3-7.2,29.3C50.4,292,50,300.5,49.6,305.5z M68.3,299.2
		c-0.2-0.1-5.9,18.6-0.3,29.9c3.7,7.9,5.4,16.2,6.2,21.3c-1.6-2.2-3.1-4.5-4.6-6.8c-0.7-2.7-1.7-5.6-3-9
		C59.5,317.1,68.3,299.1,68.3,299.2z M69.2,343c-1.4-2.2-2.7-4.3-4-6.5C66.6,338.6,68,340.8,69.2,343z M50.6,337.5
		c-9.9-14.3-34.5-33-34.4-33.4c0.1,0.2,25.8,16.9,42.5,37c3.3,4.1,6.7,7.4,9.9,10.1c-2.8-3.5-5.4-7.5-7.3-11.7
		c0-0.1-0.1-0.1-0.1-0.2c4.5,7.4,9.4,14.5,14.7,21.5C69.3,356.9,57.8,348.7,50.6,337.5z M91.1,341.3c-0.2-0.1-1.3,19.2,7.1,29.4
		c5.7,7.2,9.5,15,11.7,19.8c-2.2-2-4.3-4-6.4-6c-1.4-2.5-3.1-5.2-5.3-8.3C86.7,360.2,91.1,341.1,91.1,341.3z M102.8,383.9
		c-1.9-1.8-3.7-3.7-5.5-5.5C99.2,380.2,101.1,382.1,102.8,383.9z M83,381.6c-13.4-12.4-42.1-26.9-42.1-27.3
		c0.2,0.2,29.3,12.5,51.1,29.5c4.3,3.5,8.5,6.2,12.4,8.3c-3.7-3-7.3-6.5-10.3-10.3c0-0.1-0.1-0.1-0.2-0.2
		c6.3,6.5,13.1,12.8,20.2,18.7C106.6,397.6,93,391.5,83,381.6z M124.2,378.9c-0.2-0.1,3.7,19,14.9,27.7c7.7,6.1,13.8,13.2,17.3,17.5
		c-2.8-1.6-5.5-3.2-8.1-4.8c-2.1-2.2-4.7-4.6-7.7-7.3C124.8,398.1,124.2,378.8,124.2,378.9z M147.6,418.8c-2.4-1.5-4.9-3.1-7.2-4.7
		C142.9,415.7,145.3,417.3,147.6,418.8z M127,419.7c-16.9-10-49.2-19.6-49.2-20c0.2,0.2,32.2,7.5,58.8,20.7
		c5.3,2.7,10.3,4.7,14.8,6.1c-4.6-2.3-9.2-5.2-13.3-8.5c-0.1-0.1-0.2-0.1-0.3-0.2c8.2,5.4,16.8,10.4,25.8,15.1
		C155.3,431.6,139.7,427.7,127,419.7z M397.7,406.6c11.3-8.7,15.2-27.8,14.9-27.7c0.1-0.2-0.5,19.2-16.4,33.1
		c-3,2.6-5.5,5.1-7.6,7.3c-2.7,1.6-5.4,3.2-8.1,4.8C383.9,419.8,390,412.7,397.7,406.6z M396.5,414.2c-2.4,1.6-4.8,3.1-7.3,4.7
		C391.5,417.3,394,415.7,396.5,414.2z M459.1,399.7c-0.1,0.4-32.3,10-49.2,20c-12.8,8-28.3,11.9-36.7,13.3
		c9.1-4.7,17.6-9.7,25.8-15.1c-0.1,0.1-0.2,0.1-0.3,0.2c-4.1,3.3-8.7,6.2-13.3,8.5c4.5-1.4,9.5-3.4,14.8-6.1
		C426.9,407.2,458.8,399.8,459.1,399.7z M438.7,370.7c8.4-10.2,7.3-29.5,7.1-29.4c0.1-0.2,4.4,18.9-7,35c-2.1,3-3.9,5.8-5.3,8.3
		c-2.1,2-4.2,4-6.4,6C429.2,385.8,433,377.9,438.7,370.7z M439.6,378.4c-1.8,1.9-3.6,3.7-5.5,5.5
		C435.8,382.1,437.6,380.2,439.6,378.4z M496,354.3c0,0.4-28.7,14.8-42.1,27.3c-10,9.9-23.6,16-31.2,18.7c7.2-6,14-12.2,20.2-18.7
		c0,0.1-0.1,0.1-0.2,0.2c-3,3.9-6.7,7.4-10.3,10.3c3.9-2.1,8-4.8,12.4-8.3C466.6,366.8,495.8,354.5,496,354.3z M468.9,329.2
		c5.6-11.3-0.2-30.1-0.3-29.9c0-0.2,8.8,17.8,1.8,35.4c-1.3,3.3-2.3,6.3-3,9c-1.5,2.3-3,4.6-4.6,6.8
		C463.5,345.4,465.2,337.1,468.9,329.2z M471.7,336.5c-1.3,2.2-2.7,4.3-4,6.5C468.9,340.8,470.2,338.6,471.7,336.5z M478.2,341.1
		c16.8-20.1,42.4-36.8,42.5-37c0.1,0.4-24.5,19.1-34.4,33.4c-7.3,11.3-18.8,19.4-25.3,23.2c5.4-7,10.3-14.2,14.7-21.5
		c0,0.1-0.1,0.1-0.1,0.2c-1.9,4.2-4.6,8.3-7.3,11.7C471.5,348.4,474.8,345.1,478.2,341.1z M497.4,292.3c0,0.1-0.1,0.2-0.1,0.3
		c-0.9,4.5-2.5,8.8-4.4,12.7c2.5-3.1,5-6.9,7.3-11.4c11.7-22.4,33.1-42.8,33.1-43c0.2,0.3-19.7,22.6-26,38.2
		c-4.5,12.2-13.8,22-19.2,26.8C491.7,308.1,494.7,300.3,497.4,292.3z M490.3,297.5c0.7-2.4,1.5-4.8,2.5-7.3
		C492.1,292.7,491.2,295.1,490.3,297.5z M488.3,283.6c2.8-12-7.1-29.5-7.2-29.3c0-0.2,12.7,16.1,9.9,34.4c-0.5,3.5-0.8,6.6-0.8,9.3
		c-0.9,2.5-1.9,5-2.9,7.4C486.9,300.5,486.5,292,488.3,283.6z"/>
</g>
</svg>
