<?xml version="1.0" encoding="utf-8"?>
<!-- Generator: Adobe Illustrator 22.1.0, SVG Export Plug-In . SVG Version: 6.00 Build 0)  -->
<svg version="1.1" id="Layer_1" xmlns="http://www.w3.org/2000/svg" xmlns:xlink="http://www.w3.org/1999/xlink" x="0px" y="0px"
	 viewBox="0 0 576 161" style="enable-background:new 0 0 576 161;" xml:space="preserve">
<style type="text/css">
	.st0{fill:#4A4B4D;}
</style>
<g>
	<g>
		<g>
			<path class="st0" d="M151.7,71.9c7.9,1.3,14.3,5.1,14.3,13c0,5.6-3.1,10-7.9,12.6c-4.3,2.4-8.4,3.2-14.2,3.2h-20.2v-2.3
				c7-0.7,7.4-1.4,7.4-7.9V57.8c0-6.8-0.7-7.4-7.4-7.9v-2.3h21.5c6.1,0,10,1.1,12.6,2.9c2.9,2,4.8,5,4.8,9.2
				C162.6,67.3,156.3,70.8,151.7,71.9z M142.3,71c9,0,12.7-3.6,12.7-10.3c0-5.7-3.5-10.2-11.4-10.2c-2.3,0-3.8,0.2-4.6,0.8
				c-0.7,0.5-0.9,1.4-0.9,4V71H142.3z M138.1,90.5c0,5.9,1.4,7.4,7.2,7.4c6.4,0,12.6-3.4,12.6-12c0-8.4-5.9-12-15.9-12h-3.9V90.5z"
				/>
			<path class="st0" d="M203.2,93.8c-5.2,6.6-11,7.9-13.6,7.9c-10,0-16.1-8.2-16.1-17.6c0-5.6,2-10.7,5.3-14.3c3.4-3.9,7.9-6,12.2-6
				c7.1,0,12.5,6.1,12.5,12.7c-0.1,1.6-0.3,2.4-1.6,2.7c-1.6,0.3-12.1,1.1-21.9,1.4c-0.2,11,6.5,15.5,12.3,15.5
				c3.4,0,6.5-1.4,9.5-4.2L203.2,93.8z M189.1,66.9c-3.8,0-7.5,3.5-8.6,10.2c4.6,0,9.2,0,14-0.2c1.5,0,2-0.4,2-1.6
				C196.5,70.9,193.7,66.9,189.1,66.9z"/>
			<path class="st0" d="M230.6,74.6c-1.5-4.8-3.8-8-8.8-8c-2.9,0-5.2,2-5.2,5.3c0,3.6,2.7,5.3,7.1,7.3c6.7,2.9,10.6,5.6,10.6,11.2
				c0,7.5-6.9,11.4-13.4,11.4c-4.3,0-8-1.4-9.7-2.4c-0.4-2.4-1.1-7-1.5-9.7l2.4-0.4c1.5,5.2,4.3,9.7,10.1,9.7c3.1,0,5.9-2.1,5.9-5.6
				c0-3.7-2.2-5.7-6.7-7.6c-5.3-2.5-10.6-5.2-10.6-11.4c0-6,5.2-10.6,12.9-10.6c3.4,0,6.4,0.8,8,1.1c0.2,2,0.8,7.1,1.2,9.1
				L230.6,74.6z"/>
			<path class="st0" d="M255.1,100.7c-1.4,0.7-2.7,1.1-3.5,1.1c-5.2,0-8-3.2-8-9.7V68.2h-5.7l-0.3-1l2.2-2.4h3.8v-6.9
				c1.6-1.6,3.9-3.8,5.5-5.4l1.2,0.2c-0.2,3.4-0.2,8.2-0.2,12.1h9.3c0.7,0.8,0.5,2.6-0.5,3.4H250v21c0,6.6,2.6,7.9,4.8,7.9
				c2,0,3.9-0.7,5-1.3l0.7,2.1L255.1,100.7z"/>
			<path class="st0" d="M306.8,47.5c11.6,0,18.8,2.3,23.9,7.1c4,3.9,7,9.7,7,17.5c0,9.6-3.9,17.4-10.2,22.1
				c-6.2,4.7-14.2,6.5-24.2,6.5H284v-2.3c7-0.7,7.4-1.2,7.4-7.9V57.9c0-7-1-7.4-7.4-8v-2.3H306.8z M298.5,89.9
				c0,6.1,2.6,7.9,8.8,7.9c14.7,0,22.3-10.1,22.3-24.4c0-8.9-3-15.7-9.5-19.7c-3.8-2.4-8.5-3.3-14-3.3c-3.7,0-5.7,0.5-6.5,1.1
				c-0.7,0.5-1.1,1.4-1.1,4.6V89.9z"/>
			<path class="st0" d="M363.6,63.8c10.2,0,17.9,7.8,17.9,18.4c0,13.3-9.8,19.6-17.9,19.6c-11.3,0-18.2-9.1-18.2-18.3
				C345.5,70.1,355.9,63.8,363.6,63.8z M362.7,66.6c-5,0-9.5,4.8-9.5,14.3c0,10.4,4.6,17.9,11.3,17.9c5.1,0,9.3-3.7,9.3-14.9
				C373.8,74.4,369.9,66.6,362.7,66.6z"/>
			<path class="st0" d="M419.1,93.4c-3.6,4.8-9.1,8.4-14,8.4c-10.4,0-16.5-8.4-16.5-17.2c0-6.5,2.8-11.9,8.3-16.1
				c4.3-3.4,9.3-4.7,12.5-4.7c3.7,0,6.4,1.1,7.6,2.2c1.1,0.9,1.3,1.5,1.3,2.4c0,2-2,3.7-2.9,3.7c-0.4,0-0.7-0.2-1.6-0.8
				c-2.5-2.3-5.3-3.4-8.3-3.4c-5.4,0-10.2,4.6-10.2,13.1c-0.1,11.4,7.7,15.2,12.5,15.2c3.4,0,6.2-0.9,10-4.5L419.1,93.4z"/>
			<path class="st0" d="M440.5,100.7c-1.4,0.7-2.7,1.1-3.5,1.1c-5.2,0-8-3.2-8-9.7V68.2h-5.7l-0.3-1l2.2-2.4h3.8v-6.9
				c1.6-1.6,3.9-3.8,5.5-5.4l1.2,0.2c-0.2,3.4-0.2,8.2-0.2,12.1h9.3c0.7,0.8,0.5,2.6-0.5,3.4h-8.8v21c0,6.6,2.6,7.9,4.8,7.9
				c2,0,3.9-0.7,5-1.3l0.7,2.1L440.5,100.7z"/>
			<path class="st0" d="M466.9,63.8c10.2,0,17.9,7.8,17.9,18.4c0,13.3-9.8,19.6-17.9,19.6c-11.3,0-18.2-9.1-18.2-18.3
				C448.7,70.1,459.1,63.8,466.9,63.8z M465.9,66.6c-5,0-9.5,4.8-9.5,14.3c0,10.4,4.6,17.9,11.3,17.9c5.1,0,9.3-3.7,9.3-14.9
				C477,74.4,473.1,66.6,465.9,66.6z"/>
			<path class="st0" d="M509.1,100.8h-18.8v-2.3c5.2-0.5,5.7-0.9,5.7-6.2v-17c0-5.4-0.3-5.7-5.1-6.2v-2c4-0.7,7.7-1.6,11.6-3.4
				c0,2.7,0,6.3,0,9c2.9-4.3,6.3-8.8,10.4-8.8c3,0,4.8,1.9,4.8,3.9c0,1.9-1.3,3.7-2.8,4.5c-0.8,0.5-1.5,0.4-2.1-0.2
				c-1.2-1.2-2.2-2-3.7-2c-1.7,0-4.8,2.5-6.6,6.7v15.4c0,5.4,0.4,5.8,6.7,6.3V100.8z"/>
			<path class="st0" d="M542.3,74.6c-1.5-4.8-3.8-8-8.8-8c-2.9,0-5.2,2-5.2,5.3c0,3.6,2.7,5.3,7.1,7.3c6.7,2.9,10.6,5.6,10.6,11.2
				c0,7.5-6.9,11.4-13.4,11.4c-4.3,0-8-1.4-9.7-2.4c-0.4-2.4-1.1-7-1.5-9.7l2.4-0.4c1.5,5.2,4.3,9.7,10.1,9.7c3.1,0,5.9-2.1,5.9-5.6
				c0-3.7-2.2-5.7-6.7-7.6c-5.3-2.5-10.6-5.2-10.6-11.4c0-6,5.2-10.6,12.9-10.6c3.4,0,6.4,0.8,8,1.1c0.2,2,0.8,7.1,1.2,9.1
				L542.3,74.6z"/>
			<path class="st0" d="M565.6,71.3c0,4.2-3.3,7.5-7.6,7.5c-4.2,0-7.6-3.3-7.6-7.5c0-4.1,3.4-7.4,7.6-7.4
				C562.4,64,565.6,67.2,565.6,71.3z M552.4,71.3c0,3.3,2.4,5.9,5.8,5.9c3.2,0,5.6-2.6,5.6-5.8c0-3.3-2.4-5.9-5.7-5.9
				C554.8,65.4,552.4,68.1,552.4,71.3z M556.9,75.2h-1.7v-7.4c0.7-0.1,1.6-0.2,2.8-0.2c1.4,0,2,0.2,2.6,0.5c0.4,0.3,0.7,0.9,0.7,1.6
				c0,0.8-0.6,1.4-1.5,1.7v0.1c0.7,0.3,1.1,0.8,1.4,1.8c0.2,1.1,0.4,1.6,0.5,1.8h-1.8c-0.2-0.3-0.4-0.9-0.6-1.8
				c-0.1-0.8-0.6-1.2-1.5-1.2h-0.8V75.2z M557,71h0.8c0.9,0,1.7-0.3,1.7-1.1c0-0.7-0.5-1.1-1.6-1.1c-0.5,0-0.8,0-0.9,0.1V71z"/>
		</g>
	</g>
	<g>
		<g>
			<path class="st0" d="M14.5,123.5v28.1h-3v-28.1H14.5z"/>
			<path class="st0" d="M65.4,123.5l14.3,24.3v-24.3h3v28.1h-4l-14.3-24.3v24.3h-3v-28.1H65.4z"/>
			<path class="st0" d="M131.1,142.8c0.1,1,0.3,1.9,0.7,2.8c0.4,0.9,0.9,1.6,1.5,2.2c0.6,0.6,1.4,1.1,2.3,1.4
				c0.9,0.3,1.8,0.5,2.9,0.5c0.9,0,1.8-0.1,2.7-0.3c0.9-0.2,1.6-0.5,2.3-1c0.6-0.4,1.2-1,1.6-1.7c0.4-0.7,0.6-1.6,0.6-2.6
				c0-0.8-0.2-1.5-0.6-2.1c-0.4-0.6-1-1.1-1.7-1.5c-0.7-0.4-1.5-0.8-2.4-1.1c-0.9-0.3-1.8-0.6-2.7-0.9c-1.1-0.3-2.3-0.7-3.4-1.1
				c-1.1-0.4-2.1-0.9-3-1.6c-0.9-0.6-1.6-1.4-2.2-2.4c-0.6-0.9-0.9-2.1-0.9-3.5c0-1.2,0.2-2.2,0.7-3.1c0.5-0.9,1.1-1.6,1.9-2.3
				c0.8-0.6,1.8-1.1,2.9-1.4c1.1-0.3,2.4-0.5,3.8-0.5c1.8,0,3.3,0.3,4.5,0.8c1.2,0.5,2.2,1.2,2.9,2c0.7,0.8,1.3,1.7,1.6,2.7
				c0.3,1,0.5,1.9,0.6,2.9h-3.1c-0.1-0.9-0.3-1.7-0.7-2.5c-0.4-0.7-0.8-1.3-1.4-1.8c-0.6-0.5-1.3-0.9-2-1.1
				c-0.8-0.2-1.6-0.4-2.4-0.4c-0.8,0-1.6,0.1-2.3,0.2c-0.8,0.2-1.4,0.4-2,0.8c-0.6,0.4-1.1,0.8-1.4,1.4c-0.4,0.6-0.5,1.3-0.5,2.1
				c0,0.9,0.2,1.6,0.6,2.2c0.4,0.6,1,1.1,1.7,1.5c0.7,0.4,1.5,0.8,2.4,1.1c0.9,0.3,1.8,0.6,2.8,0.9c1.1,0.4,2.3,0.7,3.4,1.1
				c1.1,0.4,2.1,0.9,3,1.5c0.9,0.6,1.6,1.4,2.2,2.3c0.6,0.9,0.8,2.1,0.8,3.4c0,1.4-0.3,2.6-0.8,3.6c-0.5,1-1.2,1.9-2.1,2.6
				c-0.9,0.7-2,1.2-3.2,1.6s-2.6,0.5-4,0.5c-1.3,0-2.6-0.2-3.9-0.7c-1.2-0.4-2.4-1.1-3.3-1.9c-1-0.8-1.8-1.8-2.4-3s-0.9-2.5-1-4
				H131.1z"/>
			<path class="st0" d="M196.9,123.5v18.9c0,1.1,0.2,2.2,0.6,3.1c0.4,0.9,1,1.7,1.6,2.3c0.7,0.6,1.4,1.1,2.3,1.4
				c0.9,0.3,1.7,0.5,2.6,0.5c0.9,0,1.8-0.2,2.8-0.5s1.7-0.8,2.5-1.4s1.3-1.4,1.8-2.3c0.4-0.9,0.7-2,0.7-3.1v-19h3v18.8
				c0,1.6-0.3,3.1-1,4.3c-0.6,1.3-1.5,2.3-2.5,3.2s-2.2,1.5-3.4,1.9c-1.3,0.4-2.5,0.7-3.8,0.7c-1.2,0-2.4-0.2-3.6-0.7
				c-1.2-0.4-2.3-1.1-3.3-1.9c-1-0.9-1.8-1.9-2.4-3.2c-0.6-1.3-0.9-2.7-0.9-4.4v-18.7H196.9z"/>
			<path class="st0" d="M280,131.5c0,1.4-0.3,2.7-1,3.9c-0.7,1.2-1.6,2.2-2.9,3c0.7,0.2,1.3,0.5,1.8,0.9c0.5,0.4,0.8,0.8,1.1,1.3
				c0.3,0.5,0.5,1,0.5,1.6c0.1,0.6,0.1,1.2,0.1,1.8v4.3c0,0.6,0.1,1.2,0.2,1.8c0.2,0.6,0.4,1.1,0.6,1.5h-3.2c-0.3-0.4-0.4-1-0.5-1.6
				c-0.1-0.6-0.1-1.1-0.1-1.6V144c0-0.5-0.1-1.1-0.3-1.6c-0.2-0.5-0.5-1-0.9-1.4c-0.4-0.4-0.9-0.8-1.6-1c-0.6-0.3-1.4-0.4-2.4-0.4
				h-8.5v12.1h-3v-28.1h11.5c1.4,0,2.6,0.2,3.7,0.7c1.1,0.5,1.9,1.1,2.7,1.8c0.7,0.8,1.3,1.6,1.6,2.6
				C279.9,129.6,280,130.6,280,131.5z M263.1,136.9h8.5c0.7,0,1.4-0.1,2.1-0.4c0.7-0.3,1.2-0.7,1.7-1.2c0.5-0.5,0.9-1.1,1.2-1.7
				c0.3-0.7,0.4-1.4,0.4-2.1c0-0.8-0.1-1.5-0.4-2.1c-0.3-0.6-0.6-1.2-1.1-1.6c-0.5-0.5-1.1-0.8-1.7-1.1c-0.7-0.3-1.4-0.4-2.2-0.4
				h-8.5V136.9z"/>
			<path class="st0" d="M337.7,123.5l10.2,28.1h-3.2l-3.1-8.6h-12.1l-3.1,8.6h-3.2l10.4-28.1H337.7z M335.6,126.3l-5,14.1h10.1
				L335.6,126.3z"/>
			<path class="st0" d="M395.7,123.5l14.3,24.3v-24.3h3v28.1h-4l-14.3-24.3v24.3h-3v-28.1H395.7z"/>
			<path class="st0" d="M461.3,137.2c0,2.1,0.3,4,0.8,5.6c0.6,1.6,1.3,2.9,2.2,3.9c0.9,1,1.9,1.8,3.1,2.3c1.1,0.5,2.3,0.8,3.5,0.8
				c1.2,0,2.3-0.2,3.3-0.7c1-0.4,1.9-1,2.6-1.8c0.7-0.7,1.3-1.6,1.8-2.5c0.5-0.9,0.8-1.9,1-2.9h3c-0.3,1.5-0.7,2.8-1.4,4.1
				c-0.6,1.3-1.5,2.4-2.5,3.3c-1,0.9-2.2,1.7-3.5,2.2s-2.8,0.8-4.5,0.8c-1.9,0-3.7-0.3-5.2-1c-1.5-0.7-2.9-1.7-4-3
				c-1.1-1.3-1.9-2.9-2.5-4.8c-0.6-1.9-0.9-4-0.9-6.4c0-1.8,0.3-3.6,0.9-5.4s1.4-3.3,2.5-4.6c1.1-1.3,2.4-2.4,3.9-3.2
				c1.6-0.8,3.3-1.2,5.3-1.2c1.7,0,3.2,0.2,4.5,0.7c1.3,0.4,2.5,1.1,3.4,1.8s1.8,1.7,2.4,2.8c0.6,1.1,1.2,2.3,1.5,3.6h-3.2
				c-0.7-2.1-1.8-3.7-3.2-4.7c-1.4-1-3.3-1.5-5.5-1.5c-1.4,0-2.7,0.3-3.9,1c-1.2,0.6-2.2,1.5-3,2.6s-1.5,2.4-2,3.8
				S461.3,135.6,461.3,137.2z"/>
			<path class="st0" d="M546.8,123.5v2.7h-15.8v9.5h14.8v2.7h-14.8v10.4h16.4v2.7h-19.5v-28.1H546.8z"/>
		</g>
	</g>
	<g>
		<g>
			<path class="st0" d="M68,51.7c-2.1,0-3.8,1.7-3.8,3.8s1.7,3.8,3.8,3.8s3.8-1.7,3.8-3.8S70.1,51.7,68,51.7z M67,58
				c-1.3,0-2.4-1.1-2.4-2.4c0-1.3,1.1-2.4,2.4-2.4s2.4,1.1,2.4,2.4C69.4,57,68.3,58,67,58z"/>
			<path class="st0" d="M12,11v90.4h90.4V11H12z M68.5,18.1c2.2,0,4,1.8,4,4c0,2.2-1.8,4-4,4s-4-1.8-4-4
				C64.4,19.9,66.2,18.1,68.5,18.1z M68.5,29.2c2.2,0,4,1.8,4,4s-1.8,4-4,4s-4-1.8-4-4S66.2,29.2,68.5,29.2z M57.1,18.1
				c2.2,0,4,1.8,4,4c0,2.2-1.8,4-4,4c-2.2,0-4-1.8-4-4C53.1,19.9,54.9,18.1,57.1,18.1z M57.1,29.2c2.2,0,4,1.8,4,4s-1.8,4-4,4
				c-2.2,0-4-1.8-4-4S54.9,29.2,57.1,29.2z M57.1,40.7c2.2,0,4,1.8,4,4c0,2.2-1.8,4-4,4c-2.2,0-4-1.8-4-4
				C53.1,42.6,54.9,40.7,57.1,40.7z M23.1,71.2c-2.2,0-4-1.8-4-4c0-2.2,1.8-4,4-4c2.2,0,4,1.8,4,4C27.2,69.4,25.4,71.2,23.1,71.2z
				 M23.1,60c-2.2,0-4-1.8-4-4s1.8-4,4-4c2.2,0,4,1.8,4,4S25.4,60,23.1,60z M23.1,48.8c-2.2,0-4-1.8-4-4c0-2.2,1.8-4,4-4
				c2.2,0,4,1.8,4,4C27.2,47,25.4,48.8,23.1,48.8z M34.8,71.2c-2.2,0-4-1.8-4-4c0-2.2,1.8-4,4-4c2.2,0,4,1.8,4,4
				C38.8,69.4,37,71.2,34.8,71.2z M34.8,60c-2.2,0-4-1.8-4-4s1.8-4,4-4c2.2,0,4,1.8,4,4S37,60,34.8,60z M34.8,48.8c-2.2,0-4-1.8-4-4
				c0-2.2,1.8-4,4-4c2.2,0,4,1.8,4,4C38.8,47,37,48.8,34.8,48.8z M46,93.5c-2.2,0-4-1.8-4-4s1.8-4,4-4s4,1.8,4,4S48.2,93.5,46,93.5z
				 M46,82.4c-2.2,0-4-1.8-4-4c0-2.2,1.8-4,4-4s4,1.8,4,4C50,80.6,48.2,82.4,46,82.4z M46,71.2c-2.2,0-4-1.8-4-4c0-2.2,1.8-4,4-4
				s4,1.8,4,4C50,69.4,48.2,71.2,46,71.2z M46,60c-2.2,0-4-1.8-4-4s1.8-4,4-4s4,1.8,4,4S48.2,60,46,60z M46,48.8c-2.2,0-4-1.8-4-4
				c0-2.2,1.8-4,4-4s4,1.8,4,4C50,47,48.2,48.8,46,48.8z M46,37.3c-2.2,0-4-1.8-4-4s1.8-4,4-4s4,1.8,4,4S48.2,37.3,46,37.3z
				 M46,26.5c-2.2,0-4-1.8-4-4s1.8-4,4-4s4,1.8,4,4S48.2,26.5,46,26.5z M57.1,93.5c-2.2,0-4-1.8-4-4s1.8-4,4-4c2.2,0,4,1.8,4,4
				S59.4,93.5,57.1,93.5z M57.1,82.4c-2.2,0-4-1.8-4-4c0-2.2,1.8-4,4-4c2.2,0,4,1.8,4,4C61.2,80.6,59.4,82.4,57.1,82.4z M57.1,71.2
				c-2.2,0-4-1.8-4-4c0-2.2,1.8-4,4-4c2.2,0,4,1.8,4,4C61.2,69.4,59.4,71.2,57.1,71.2z M68.5,93.5c-2.2,0-4-1.8-4-4s1.8-4,4-4
				s4,1.8,4,4S70.7,93.5,68.5,93.5z M68.5,82.4c-2.2,0-4-1.8-4-4c0-2.2,1.8-4,4-4s4,1.8,4,4C72.5,80.6,70.7,82.4,68.5,82.4z
				 M79.8,71.2c-2.2,0-4-1.8-4-4c0-2.2,1.8-4,4-4c2.2,0,4,1.8,4,4C83.8,69.4,82,71.2,79.8,71.2z M72.7,57.4l2,6l-4.5-3l-2.4,11.2
				l-2.3-11.2l-5,3l4-5.5l-10.3-2.3l9.9-2.3l-4-4.9l5.5,2.2l2.3-11l1.9,11l5.4-2.2L71.8,53l12,2.5L72.7,57.4z M79.8,48.5
				c-2.2,0-4-1.8-4-4c0-2.2,1.8-4,4-4c2.2,0,4,1.8,4,4C83.8,46.7,82,48.5,79.8,48.5z M91.1,71.2c-2.2,0-4-1.8-4-4c0-2.2,1.8-4,4-4
				c2.2,0,4,1.8,4,4C95.2,69.4,93.4,71.2,91.1,71.2z M91.1,60c-2.2,0-4-1.8-4-4s1.8-4,4-4c2.2,0,4,1.8,4,4S93.4,60,91.1,60z
				 M91.1,48.8c-2.2,0-4-1.8-4-4c0-2.2,1.8-4,4-4c2.2,0,4,1.8,4,4C95.2,47,93.4,48.8,91.1,48.8z"/>
		</g>
	</g>
</g>
</svg>
