<?xml version="1.0" encoding="utf-8"?>
<!-- Generator: Adobe Illustrator 17.0.0, SVG Export Plug-In . SVG Version: 6.00 Build 0)  -->
<!DOCTYPE svg PUBLIC "-//W3C//DTD SVG 1.1//EN" "http://www.w3.org/Graphics/SVG/1.1/DTD/svg11.dtd">
<svg version="1.1" id="Layer_1" xmlns="http://www.w3.org/2000/svg" xmlns:xlink="http://www.w3.org/1999/xlink" x="0px" y="0px"
	 width="202.809px" height="63.077px" viewBox="0 0 202.809 63.077" enable-background="new 0 0 202.809 63.077"
	 xml:space="preserve">
<g>
	<g>
		<path opacity="0.7" fill="#F8F8F9" d="M35.681,38.181c4.324-3.846,9.437-5.092,15.088-4.608c0.525,0.045,0.483,0.334,0.482,0.685
			c-0.003,4.087-0.002,8.175-0.002,12.262c0,3.747-0.024,7.494,0.02,11.24c0.009,0.769-0.231,0.834-0.905,0.777
			c-4.871-0.414-9.37,0.629-13.366,3.542c-0.235,0.172-0.442,0.385-0.683,0.546c-0.22,0.146-0.312,0.482-0.653,0.45
			c0-1.971,0-3.942,0.001-5.913C35.669,50.835,35.675,44.508,35.681,38.181z"/>
		<path fill="#F8F8F9" d="M35.681,38.181c-0.006,6.327-0.012,12.653-0.017,18.98c-0.002,1.971-0.001,3.942-0.001,5.913
			c-2.347-2.058-5.042-3.431-8.09-4.109c-2.176-0.483-4.373-0.679-6.591-0.406c-0.607,0.075-0.778-0.073-0.776-0.702
			c0.021-7.74,0.023-15.481,0-23.221c-0.002-0.75,0.134-1.081,0.989-1.128c5.138-0.284,9.854,0.792,13.914,4.116
			C35.312,37.793,35.49,37.995,35.681,38.181z"/>
		<path opacity="0.7" fill="#F8F8F9" d="M35.762,0.033c1.729-0.106,3.448,0.111,5.17,0.188c4.325,0.194,8.648,0.442,12.972,0.673
			c5.076,0.27,10.153,0.545,15.229,0.817c0.267,0.014,0.534,0.032,0.802,0.042c1.496,0.055,1.496,0.054,1.496,1.586
			c0,0.779-0.055,1.563,0.016,2.335c0.065,0.704-0.212,0.789-0.824,0.746c-3.008-0.21-6.018-0.423-9.031-0.552
			c-3.572-0.152-7.147-0.357-10.723-0.161c-5.519,0.303-9.872,3.875-11.149,9.105c-1.586,6.499,2.603,13.008,9.182,14.256
			c0.597,0.113,1.199,0.228,1.803,0.256c0.461,0.021,0.553,0.196,0.553,0.618c-0.001,1.257,0.017,1.259-1.237,1.19
			c-4.576-0.253-8.911,0.502-12.847,3.004c-0.514,0.327-0.89,0.867-1.532,0.992c0.007-0.219,0.02-0.438,0.02-0.656
			c0.001-11.144,0.001-22.289,0.003-33.433C35.665,0.703,35.613,0.358,35.762,0.033z"/>
		<path fill="#F8F8F9" d="M35.762,0.033c-0.149,0.324-0.097,0.67-0.097,1.008c-0.002,11.144-0.002,22.289-0.003,33.433
			c0,0.219-0.013,0.437-0.02,0.656c-4.419-3.42-9.479-4.408-14.923-3.913c-0.414,0.038-0.493-0.095-0.509-0.465
			c-0.06-1.347-0.071-1.347,1.267-1.511c5.53-0.678,9.611-4.581,10.464-10.01C32.952,12.798,28.151,6.53,21.67,5.825
			c-3.353-0.365-6.708-0.122-10.061-0.018C7.962,5.919,4.32,6.15,0.682,6.426C0.196,6.462-0.02,6.386,0.001,5.829
			C0.043,4.711,0.033,3.589,0.005,2.47c-0.012-0.482,0.108-0.678,0.639-0.703C7.543,1.43,14.441,1.071,21.339,0.714
			c4.566-0.236,9.132-0.477,13.698-0.712C35.278-0.01,35.52,0.022,35.762,0.033z"/>
		<path fill="#F8F8F9" d="M20.175,17.54c-0.001-1.652,0.022-3.305-0.013-4.956c-0.011-0.541,0.178-0.645,0.669-0.603
			c2.596,0.221,4.746,2.459,4.956,5.189c0.203,2.631-1.642,5.19-4.158,5.77c-1.453,0.335-1.453,0.335-1.453-1.171
			C20.175,20.359,20.175,18.949,20.175,17.54z"/>
		<path opacity="0.7" fill="#F8F8F9" d="M51.248,17.544c-0.001,1.604-0.053,3.211,0.02,4.812c0.038,0.823-0.358,0.788-0.917,0.707
			c-2.313-0.333-4.325-2.34-4.629-4.627c-0.345-2.598,0.927-4.989,3.186-5.982c0.536-0.236,1.097-0.378,1.677-0.465
			c0.486-0.073,0.687,0.051,0.676,0.598C51.227,14.238,51.249,15.891,51.248,17.544z"/>
	</g>
	<g>
		<g>
			<path fill="#F8F8F9" d="M181.939,28.644c0-2.154,0.017-4.308-0.011-6.462c-0.008-0.62,0.164-0.905,0.828-0.865
				c0.715,0.043,1.435,0.006,2.153,0.014c0.256,0.003,0.632-0.067,0.689,0.24c0.197,1.044,0.697,0.516,1.168,0.274
				c1.991-1.022,4.285-0.819,5.91,0.648c0.547,0.494,0.786,0.244,1.198-0.077c2.344-1.832,5.902-1.594,7.703,0.493
				c0.768,0.89,1.199,1.923,1.206,3.1c0.017,3.099-0.007,6.197,0.026,9.296c0.007,0.691-0.211,0.897-0.901,0.913
				c-2.791,0.063-2.791,0.086-2.791-2.643c0-2.154,0.029-4.309-0.014-6.462c-0.021-1.029-0.363-1.995-1.458-2.333
				c-1.014-0.313-2.02-0.261-2.795,0.656c-0.478,0.566-0.525,1.235-0.527,1.919c-0.006,2.57-0.04,5.14,0.014,7.709
				c0.019,0.898-0.255,1.168-1.156,1.159c-2.652-0.028-2.652,0.01-2.652-2.662c0-2.078,0.008-4.157-0.003-6.235
				c-0.01-1.769-0.807-2.668-2.351-2.686c-1.551-0.018-2.405,0.871-2.423,2.619c-0.027,2.607-0.032,5.215,0.005,7.822
				c0.011,0.792-0.153,1.143-1.052,1.144c-2.766,0.002-2.766,0.041-2.766-2.705C181.939,31.894,181.939,30.269,181.939,28.644z"/>
			<path fill="#F8F8F9" d="M117.716,22.484c1.318-0.887,2.501-1.385,3.893-1.235c2.76,0.299,4.421,1.953,4.494,4.733
				c0.082,3.134,0.012,6.271,0.046,9.407c0.007,0.673-0.261,0.805-0.867,0.825c-2.938,0.096-2.937,0.112-2.937-2.865
				c0-2.04,0.009-4.08-0.001-6.121c-0.009-1.711-0.803-2.593-2.301-2.592c-1.529,0.001-2.307,0.841-2.318,2.565
				c-0.017,2.607-0.033,5.214,0.008,7.82c0.013,0.841-0.164,1.209-1.114,1.203c-2.704-0.017-2.705,0.026-2.705-2.726
				c0-5.478,0.019-10.957-0.019-16.435c-0.006-0.9,0.259-1.165,1.153-1.159c2.668,0.019,2.669-0.017,2.669,2.651
				C117.716,19.796,117.716,21.037,117.716,22.484z"/>
			<path fill="#F8F8F9" d="M94.019,34.978c-1.651,1.449-3.351,1.479-5.047,1.198c-2.294-0.381-3.737-2.32-3.605-4.641
				c0.13-2.296,1.692-3.908,4.048-4.095c1.013-0.081,2.041,0.019,3.053-0.068c0.477-0.041,1.269,0.434,1.397-0.427
				c0.13-0.873-0.014-1.821-0.976-2.206c-1.313-0.525-2.701-0.608-3.872,0.303c-0.634,0.493-0.958,0.35-1.379-0.146
				c-0.195-0.229-0.425-0.429-0.643-0.637c-1.09-1.038-1.116-1.324,0.181-2.039c2.703-1.491,5.509-1.389,8.235-0.106
				c1.434,0.675,2.137,2.021,2.16,3.601c0.048,3.207,0.001,6.415,0.038,9.623c0.008,0.73-0.285,0.919-0.939,0.871
				c-0.525-0.038-1.056-0.013-1.584-0.004C94.408,36.216,93.7,36.285,94.019,34.978z M92.107,29.918
				c-0.711,0.023-1.429-0.064-2.119,0.209c-0.633,0.25-0.959,0.73-0.997,1.376c-0.038,0.647,0.234,1.157,0.839,1.474
				c0.947,0.496,2.528,0.375,3.322-0.278c0.804-0.66,0.941-1.598,0.681-2.464c-0.196-0.656-0.99-0.188-1.501-0.311
				C92.261,29.906,92.183,29.921,92.107,29.918z"/>
			<path fill="#F8F8F9" d="M79.057,29.921c-1.209,0-2.422,0.06-3.626-0.019c-1.015-0.067-1.042,0.35-0.787,1.128
				c0.689,2.104,3.535,2.922,5.455,1.422c0.791-0.618,1.158-0.561,1.805,0.123c1.477,1.563,1.477,1.8-0.416,2.856
				c-2.941,1.641-7.406,1.025-9.189-1.268c-2.024-2.601-2.045-7.974-0.038-10.597c1.698-2.219,4.019-2.689,6.583-2.179
				c2.63,0.523,4.045,2.333,4.634,4.855c0.215,0.921,0.227,1.866,0.246,2.813c0.014,0.717-0.251,0.904-0.926,0.88
				C81.552,29.888,80.304,29.921,79.057,29.921z M77.207,27.394c0.678,0,1.358-0.027,2.034,0.008
				c0.59,0.031,0.795-0.114,0.669-0.763c-0.258-1.331-1.327-2.335-2.639-2.355c-1.335-0.021-2.49,1.01-2.746,2.391
				c-0.109,0.586,0.112,0.742,0.647,0.723C75.85,27.374,76.529,27.392,77.207,27.394z"/>
			<path fill="#F8F8F9" d="M179.212,28.811c-0.105,0.975-0.129,1.967-0.331,2.921c-0.648,3.06-3.065,4.699-6.608,4.555
				c-2.916-0.118-5.118-2.12-5.536-5.025c-0.249-1.732-0.237-3.463,0.029-5.188c0.471-3.05,3.128-5.053,6.382-4.837
				c3.78,0.251,5.701,2.281,5.974,6.323c0.028,0.414,0.004,0.831,0.004,1.246C179.154,28.807,179.183,28.809,179.212,28.811z
				 M175.325,28.877c0-0.566,0.018-1.132-0.008-1.697c-0.012-0.259-0.103-0.516-0.172-0.77c-0.324-1.2-1.078-1.813-2.254-1.839
				c-1.116-0.025-2.003,0.603-2.304,1.784c-0.407,1.593-0.383,3.219,0.003,4.812c0.253,1.042,0.915,1.697,2.071,1.753
				c1.153,0.055,1.953-0.39,2.403-1.477C175.41,30.61,175.32,29.739,175.325,28.877z"/>
			<path fill="#F8F8F9" d="M154.04,28.744c0.011-2.627,0.505-5.054,2.942-6.591c2.277-1.436,5.856-1.209,7.889,0.428
				c0.542,0.437,0.634,0.778,0.075,1.244c-0.318,0.265-0.623,0.558-0.88,0.881c-0.613,0.771-1.125,0.998-2.08,0.29
				c-1.295-0.962-3.223-0.309-3.798,1.176c-0.63,1.628-0.666,3.339-0.065,4.98c0.651,1.776,2.559,2.389,4.063,1.255
				c0.761-0.574,1.159-0.412,1.65,0.193c0.118,0.146,0.263,0.271,0.396,0.405c1.478,1.491,1.46,1.595-0.441,2.616
				c-4.384,2.354-9.387-0.534-9.748-5.631C154.015,29.576,154.04,29.159,154.04,28.744z"/>
			<path fill="#F8F8F9" d="M100.287,28.753c0-0.453-0.042-0.911,0.008-1.358c0.27-2.415,1.133-4.526,3.512-5.542
				c2.427-1.037,4.841-0.926,7.111,0.587c0.73,0.487,0.943,0.933,0.137,1.532c-0.24,0.178-0.444,0.411-0.642,0.638
				c-0.65,0.748-1.125,1.219-2.252,0.37c-1.503-1.133-3.554-0.052-4,1.871c-0.304,1.308-0.292,2.628,0.02,3.928
				c0.483,2.008,2.758,2.858,4.368,1.58c0.607-0.482,0.931-0.421,1.376,0.105c0.315,0.373,0.67,0.725,1.055,1.025
				c0.766,0.597,0.758,1.034-0.084,1.602c-2.322,1.566-4.769,1.636-7.217,0.533c-2.305-1.038-3.133-3.14-3.386-5.511
				C100.245,29.664,100.286,29.206,100.287,28.753z"/>
			<path fill="#F8F8F9" d="M62.61,28.956c0-1.132-0.02-2.265,0.008-3.396c0.014-0.577-0.079-0.983-0.784-0.883
				c-0.677,0.096-0.858-0.25-0.807-0.858c0.035-0.412,0.033-0.832,0.002-1.244c-0.043-0.573,0.165-0.874,0.766-0.793
				c0.786,0.107,0.842-0.361,0.824-0.962c-0.027-0.905-0.189-1.86,0.036-2.706c0.37-1.387,1.608-0.455,2.437-0.634
				c0.423-0.091,1.226-0.385,1.213,0.627c-0.012,0.906,0.034,1.813-0.014,2.716c-0.039,0.721,0.176,1.018,0.948,0.981
				c0.528-0.025,1.288-0.322,1.566,0.246c0.324,0.662,0.196,1.493,0.061,2.227c-0.118,0.64-0.75,0.426-1.14,0.379
				c-1.111-0.133-1.531,0.199-1.453,1.399c0.116,1.766,0.019,3.545,0.033,5.319c0.011,1.278,0.256,1.585,1.517,1.535
				c0.957-0.038,1.128,0.352,1.118,1.194c-0.028,2.291-0.054,2.342-2.339,2.06c-2.789-0.345-3.979-1.684-3.989-4.491
				c-0.003-0.906,0-1.811,0-2.717C62.613,28.956,62.611,28.956,62.61,28.956z"/>
			<path fill="#F8F8F9" d="M129.306,24.488c0-2.527,0.021-5.053-0.013-7.579c-0.009-0.698,0.135-0.989,0.919-1
				c2.883-0.041,2.882-0.072,2.882,2.802c0,4.148-0.003,8.296,0.004,12.444c0.003,1.609,0.127,1.775,1.733,1.759
				c0.84-0.008,0.996,0.337,1,1.078c0.013,2.393-0.037,2.46-2.451,2.192c-2.763-0.306-4.065-1.761-4.073-4.568
				C129.301,29.24,129.306,26.864,129.306,24.488z"/>
			<path fill="#F8F8F9" d="M141.796,22.522c2.141-1.461,4.146-1.75,6.264-0.595c0.724,0.395,0.945,0.808,0.193,1.412
				c-0.381,0.306-0.729,0.662-1.047,1.033c-0.591,0.689-1.034,1.065-2.093,0.459c-1.565-0.896-3.272,0.433-3.315,2.453
				c-0.054,2.529-0.076,5.062,0.01,7.589c0.038,1.116-0.304,1.396-1.384,1.356c-2.3-0.085-2.302-0.025-2.302-2.343
				c0-3.852,0.021-7.703-0.018-11.554c-0.008-0.801,0.241-1.096,1.027-1.012c0.448,0.048,0.909,0.045,1.358,0.001
				C141.286,21.242,141.931,21.317,141.796,22.522z"/>
		</g>
		<path fill="#F8F8F9" d="M151.557,33.866c-0.036,1.393-1.196,2.452-2.606,2.381c-1.321-0.066-2.415-1.238-2.38-2.549
			c0.037-1.39,1.188-2.461,2.6-2.419C150.615,31.322,151.596,32.386,151.557,33.866z"/>
	</g>
	<g opacity="0.7">
		<path fill="#F8F8F9" d="M122.055,43.767c0.401-0.174,0.63-0.29,0.87-0.375c1.692-0.605,3.303,0.378,3.406,2.173
			c0.09,1.579,0,3.167,0.041,4.749c0.02,0.772-0.496,0.62-0.907,0.592c-0.415-0.028-1.06,0.292-1.052-0.575
			c0.012-1.244-0.006-2.489-0.003-3.733c0.002-0.821-0.136-1.576-1.164-1.579c-1.009-0.003-1.2,0.713-1.193,1.555
			c0.011,1.207-0.044,2.416,0.018,3.619c0.039,0.765-0.378,0.767-0.905,0.725c-0.479-0.038-1.08,0.219-1.069-0.694
			c0.035-2.978,0.033-5.958-0.002-8.936c-0.01-0.826,0.458-0.762,1.019-0.777c0.611-0.016,1.019,0.046,0.955,0.827
			C122.007,42.085,122.055,42.841,122.055,43.767z"/>
		<path fill="#F8F8F9" d="M111.17,47.907c0,0.641-0.06,1.29,0.015,1.922c0.107,0.899-0.25,1.322-1.101,1.068
			c-0.991-0.295-1.929,0.093-2.894,0.047c-1.401-0.067-2.27-0.904-2.303-2.264c-0.03-1.268,0.807-2.164,2.164-2.283
			c0.45-0.039,0.906,0.008,1.357-0.026c0.296-0.022,0.741,0.176,0.788-0.364c0.04-0.453-0.124-0.822-0.589-0.979
			c-0.599-0.202-1.223-0.221-1.745,0.141c-0.921,0.64-1.13-0.334-1.431-0.702c-0.358-0.438,0.259-0.693,0.584-0.845
			c1.386-0.648,2.8-0.589,4.136,0.114c0.711,0.374,1.003,1.1,1.015,1.906C111.179,46.397,111.17,47.152,111.17,47.907z
			 M108.279,47.725c-0.588,0.085-1.401-0.17-1.448,0.815c-0.034,0.713,0.508,0.832,1.09,0.824c0.721-0.009,1.242-0.226,1.3-1.069
			C109.28,47.44,108.639,47.856,108.279,47.725z"/>
		<path fill="#F8F8F9" d="M92.292,46.697c0-0.904,0-1.809,0-2.713c0-1.547,0-1.547-1.492-1.549c-0.151,0-0.303-0.012-0.452,0.005
			c-0.948,0.107-0.727-0.578-0.787-1.113c-0.075-0.66,0.196-0.83,0.825-0.82c1.959,0.034,3.92,0.045,5.878-0.006
			c0.789-0.02,0.819,0.376,0.828,0.973c0.01,0.621-0.082,0.96-0.839,0.979c-1.899,0.048-1.898,0.086-1.898,2.006
			c0,1.884-0.054,3.771,0.022,5.652c0.039,0.952-0.516,0.795-1.075,0.809c-0.59,0.015-1.106,0.082-1.033-0.833
			C92.361,48.964,92.292,47.828,92.292,46.697z"/>
		<path fill="#F8F8F9" d="M101.326,47.744c-0.528,0-1.057,0.019-1.584-0.005c-0.75-0.034-0.722,0.345-0.465,0.841
			c0.401,0.775,1.584,1.1,2.485,0.463c0.875-0.618,1.195,0.046,1.495,0.494c0.433,0.645-0.302,0.807-0.668,1.011
			c-1.318,0.738-3.507,0.509-4.47-0.418c-1.052-1.012-1.331-3.471-0.582-5.125c0.555-1.225,1.788-1.917,3.243-1.778
			c2.218,0.211,3.155,2.01,2.947,4.172c-0.037,0.387-0.335,0.345-0.592,0.348c-0.603,0.007-1.207,0.002-1.81,0.002
			C101.326,47.748,101.326,47.746,101.326,47.744z M100.527,46.48c0.325-0.427,1.164,0.381,1.223-0.466
			c0.048-0.682-0.567-1.165-1.294-1.149c-0.691,0.015-1.366,0.375-1.283,1.132C99.259,46.778,100.048,46.158,100.527,46.48z"/>
		<path fill="#F8F8F9" d="M116.533,50.941c-1.95,0.001-3-0.665-3.488-2.017c-0.627-1.736-0.214-3.997,0.905-4.961
			c0.982-0.845,2.738-1.011,3.937-0.336c0.318,0.179,0.966,0.403,0.595,0.828c-0.342,0.392-0.527,1.368-1.53,0.81
			c-1.109-0.617-2.006-0.099-2.153,1.174c-0.06,0.518-0.064,1.063,0.031,1.574c0.182,0.986,1.142,1.564,1.943,1.036
			c1.082-0.714,1.48,0.276,1.694,0.736c0.292,0.625-0.557,0.811-1.021,1.012C117.083,50.952,116.64,50.926,116.533,50.941z"/>
		<path fill="#F8F8F9" d="M129.387,48.384c0.796,0.046,1.291,0.425,1.317,1.243c0.025,0.811-0.405,1.268-1.222,1.292
			c-0.814,0.024-1.28-0.394-1.302-1.213C128.157,48.9,128.593,48.466,129.387,48.384z"/>
	</g>
	<g opacity="0.5">
		<path fill="#F8F8F9" d="M166.494,46.99c0-0.83-0.001-1.661,0-2.491c0.001-1.221,0.588-1.688,1.721-1.156
			c0.461,0.217,0.731,0.133,1.098,0.012c1.894-0.623,3.461,0.434,3.522,2.421c0.044,1.433-0.043,2.871,0.03,4.301
			c0.042,0.821-0.378,0.801-0.957,0.802c-0.621,0-1.083,0.01-1.029-0.867c0.076-1.24,0.035-2.49-0.002-3.734
			c-0.023-0.757-0.345-1.329-1.221-1.315c-0.794,0.012-1.151,0.495-1.17,1.235c-0.032,1.282-0.098,2.568-0.024,3.845
			c0.054,0.931-0.486,0.801-1.061,0.834c-0.63,0.037-0.979-0.06-0.924-0.832C166.549,49.032,166.494,48.009,166.494,46.99z"/>
		<path fill="#F8F8F9" d="M148.072,47.694c-0.528,0.001-1.058,0.025-1.585-0.004c-0.758-0.042-0.726,0.313-0.446,0.817
			c0.448,0.808,1.565,1.133,2.473,0.492c0.862-0.609,1.2,0.037,1.501,0.484c0.434,0.647-0.321,0.812-0.674,1.014
			c-2.37,1.358-5.064,0.008-5.411-2.683c-0.304-2.355,0.682-4.147,2.516-4.574c2.41-0.561,4.625,1.643,4.083,4.031
			c-0.098,0.431-0.336,0.423-0.646,0.422C149.279,47.691,148.675,47.693,148.072,47.694z M147.148,46.394
			c0.442-0.304,1.282,0.385,1.357-0.457c0.061-0.678-0.561-1.143-1.287-1.133c-0.706,0.009-1.338,0.414-1.3,1.128
			C145.962,46.747,146.765,46.084,147.148,46.394z"/>
		<path fill="#F8F8F9" d="M157.915,47.87c0,0.603,0.001,1.205,0,1.808c-0.002,1.146-0.603,1.629-1.644,1.123
			c-0.428-0.208-0.635-0.151-0.998-0.029c-1.926,0.648-3.558-0.353-3.573-2.163c-0.011-1.312,0.753-2.131,2.149-2.264
			c0.448-0.043,0.906,0.018,1.354-0.025c0.287-0.027,0.744,0.209,0.804-0.315c0.051-0.435-0.115-0.839-0.557-1.011
			c-0.623-0.242-1.275-0.247-1.844,0.122c-0.916,0.595-1.093-0.373-1.422-0.735c-0.381-0.42,0.255-0.628,0.521-0.758
			c1.408-0.694,2.843-0.664,4.22,0.082c0.723,0.392,0.992,1.096,0.989,1.905C157.913,46.363,157.915,47.116,157.915,47.87z
			 M155.002,47.686c-0.657,0.037-1.424-0.103-1.417,0.863c0.005,0.723,0.593,0.753,1.138,0.763c0.741,0.014,1.249-0.285,1.293-1.076
			C156.066,47.334,155.333,47.849,155.002,47.686z"/>
		<path fill="#F8F8F9" d="M136.106,45.623c-0.001-1.434,0.053-2.87-0.021-4.3c-0.045-0.87,0.405-0.878,1.03-0.864
			c0.586,0.014,1.088-0.08,1.062,0.832c-0.065,2.262,0.007,4.527-0.041,6.789c-0.016,0.737,0.18,0.996,0.935,0.949
			c1.015-0.063,2.039,0.031,3.054-0.029c0.861-0.051,0.73,0.485,0.762,1.016c0.036,0.599-0.103,0.883-0.791,0.866
			c-1.734-0.045-3.471-0.045-5.205,0c-0.675,0.018-0.812-0.237-0.796-0.846C136.133,48.566,136.107,47.094,136.106,45.623z"/>
		<path fill="#F8F8F9" d="M159.918,47.125c0-0.866-0.001-1.731,0-2.597c0.001-1.238,0.599-1.742,1.682-1.189
			c0.51,0.26,0.801,0.161,1.19-0.001c0.358-0.149,0.726-0.203,1.104-0.173c0.534,0.043,1.064,0.157,1.416,0.595
			c0.232,0.289-0.068,0.493-0.261,0.64c-0.448,0.342-0.632,1.105-1.545,0.658c-0.831-0.407-1.527,0.133-1.59,1.146
			c-0.079,1.275-0.106,2.56-0.031,3.834c0.054,0.915-0.465,0.816-1.049,0.84c-0.61,0.025-0.993-0.032-0.933-0.819
			C159.974,49.086,159.918,48.103,159.918,47.125z"/>
		<path fill="#F8F8F9" d="M177.201,49.592c-0.102,0.873-0.548,1.308-1.35,1.278c-0.806-0.03-1.242-0.498-1.213-1.307
			c0.029-0.817,0.519-1.231,1.316-1.21C176.772,48.375,177.135,48.888,177.201,49.592z"/>
	</g>
</g>
</svg>
