<?xml version="1.0" encoding="utf-8"?>
<!-- Generator: Adobe Illustrator 16.0.0, SVG Export Plug-In . SVG Version: 6.00 Build 0)  -->
<!DOCTYPE svg PUBLIC "-//W3C//DTD SVG 1.1//EN" "http://www.w3.org/Graphics/SVG/1.1/DTD/svg11.dtd">
<svg version="1.1" id="Layer_1" xmlns="http://www.w3.org/2000/svg" xmlns:xlink="http://www.w3.org/1999/xlink" x="0px" y="0px"
	 width="1500px" height="1500px" viewBox="0 0 1500 1500" enable-background="new 0 0 1500 1500" xml:space="preserve">
<path fill="none" stroke="#FFFFFF" stroke-width="7.8163" stroke-miterlimit="10" d="M750.002,24.62
	c400.614,0,725.376,324.764,725.376,725.379c0,400.615-324.762,725.38-725.376,725.38c-400.618,0-725.38-324.765-725.38-725.38
	C24.622,349.384,349.384,24.62,750.002,24.62z"/>
<g>
	<g>
		<g>
			<path fill="#FFFFFF" d="M328.588,545.709l44.413-108.561l44.409,108.561l33.062-102.638h7.404l-39.973,123.365l-45.396-110.042
				L327.11,566.436l-39.973-123.365h7.404L328.588,545.709z"/>
			<path fill="#FFFFFF" d="M462.316,526.463c-0.494,18.752,12.337,31.089,29.112,31.089c11.351,0,20.727-6.91,25.66-16.777
				l5.924,3.452c-6.417,12.832-18.26,19.74-32.569,19.74c-21.713,0-35.529-17.765-35.529-38.488
				c0-20.234,14.31-37.998,35.529-37.998c22.205,0,35.034,17.764,35.034,38.982H462.316z M518.569,519.555
				c-1.974-13.323-12.829-25.66-27.632-25.66c-14.806,0-27.141,11.844-28.621,25.66H518.569z"/>
			<path fill="#FFFFFF" d="M599.003,549.164L599.003,549.164c-5.922,9.376-17.271,14.803-28.126,14.803
				c-22.208,0-36.023-17.271-36.023-38.488c0-21.221,13.815-37.505,35.529-37.505c11.349,0,22.205,4.937,28.126,14.31h0.494v-70.069
				h6.908v130.272h-6.908V549.164z M599.496,524.491c0-16.777-11.348-30.103-29.113-30.103c-16.777,0-28.128,15.299-28.128,31.09
				c0,16.777,10.857,32.074,28.622,32.074C589.626,557.059,599.496,542.256,599.496,524.491z"/>
			<path fill="#FFFFFF" d="M686.837,549.164L686.837,549.164c-5.921,9.376-17.27,14.803-28.125,14.803
				c-22.205,0-36.024-17.271-36.024-38.488c0-21.221,13.819-37.505,35.53-37.505c11.35,0,22.205,4.937,28.128,14.31h0.494v-70.069
				h6.905v130.272h-6.905L686.837,549.164L686.837,549.164z M687.33,524.491c0-16.777-11.348-30.103-29.112-30.103
				c-16.777,0-28.128,15.299-28.128,31.09c0,16.777,10.856,32.074,28.622,32.074C677.461,557.059,687.33,542.256,687.33,524.491z"/>
			<path fill="#FFFFFF" d="M730.262,464.783c0,3.455-2.962,6.415-6.414,6.415c-3.456,0-6.414-2.96-6.414-6.415
				c0-3.456,2.958-6.415,6.414-6.415C727.793,458.368,730.262,461.327,730.262,464.783z M727.3,562.487h-6.908v-73.032h6.908
				V562.487z"/>
			<path fill="#FFFFFF" d="M760.855,500.806L760.855,500.806c4.443-7.895,12.338-12.832,22.207-12.832
				c18.75,0,24.177,11.844,24.177,30.594v43.919h-6.905v-43.919c0-13.323-1.48-23.686-17.765-23.686
				c-18.259,0-21.221,17.271-21.221,32.074v36.023h-6.907v-73.031h6.907v10.857H760.855L760.855,500.806z"/>
			<path fill="#FFFFFF" d="M896.063,558.54c0,11.348-0.493,21.218-7.401,31.087c-6.907,9.374-17.765,14.311-29.115,14.311
				c-19.246,0-35.036-11.351-36.021-31.088h6.908c0.987,15.297,13.815,24.673,28.125,24.673c9.376,0,18.259-2.962,23.195-10.856
				c5.92-8.389,6.414-17.765,6.414-27.635v-8.883h-0.494c-6.414,8.883-17.271,14.312-28.622,14.312
				c-21.217,0-35.526-17.765-35.526-38.489c0-21.22,14.804-37.998,36.515-37.998c11.843,0,20.726,4.937,27.634,14.31h0.494v-12.829
				h6.907v69.085H896.063z M831.422,525.479c0,16.777,10.854,32.074,28.619,32.074c18.751,0,28.619-15.297,28.619-32.568
				c0-16.777-11.349-30.103-29.113-30.103C843.263,494.389,831.422,509.194,831.422,525.479z"/>
			<path fill="#FFFFFF" d="M951.824,528.438l33.555-87.834l33.553,87.834l33.556-85.367h16.284l-49.346,123.856l-33.556-87.341
				l-33.553,87.341l-49.346-123.856h16.284L951.824,528.438z"/>
			<path fill="#FFFFFF" d="M1095.911,454.419c0,5.43-4.439,9.87-9.869,9.87c-5.428,0-9.866-4.44-9.866-9.87
				c0-5.427,4.438-9.867,9.866-9.867C1091.472,444.552,1095.911,448.992,1095.911,454.419z M1092.953,562.487h-14.312v-74.019
				h14.312V562.487z"/>
			<path fill="#FFFFFF" d="M1129.961,500.312L1129.961,500.312c3.946-8.883,11.35-14.312,20.724-14.312
				c3.948,0,8.392,1.481,11.845,3.455l-6.414,12.829c-2.469-1.971-5.431-2.958-8.883-2.958c-15.297,0-17.271,14.309-17.271,26.154
				v36.514h-14.311v-74.019h14.311V500.312L1129.961,500.312z"/>
			<path fill="#FFFFFF" d="M1174.866,527.45c0,12.832,8.88,24.673,22.205,24.673c10.857,0,16.777-5.427,22.205-14.31l11.841,6.908
				c-6.908,12.831-19.736,20.232-34.539,20.232c-22.699,0-36.518-17.271-36.518-38.982c0-22.701,12.338-39.972,36.023-39.972
				s34.539,17.271,34.539,39.479v1.971H1174.866z M1217.303,517.089c-1.975-10.857-8.883-18.752-20.231-18.752
				c-10.856,0-19.245,7.896-21.22,18.752H1217.303z"/>
		</g>
	</g>
	<path fill="#FFFFFF" d="M289.605,864.481V616.272h110.042c22.205,0,38.982,2.468,50.331,6.911
		c11.35,4.44,20.727,12.335,27.634,23.686c6.908,11.348,10.363,23.686,10.363,37.502c0,17.765-5.923,32.568-17.271,44.411
		c-11.352,11.843-29.113,19.737-52.802,23.192c8.883,3.947,15.297,8.39,19.739,12.336c9.377,8.882,18.753,19.739,27.142,33.062
		l43.422,67.604h-41.45l-33.062-51.814c-9.374-14.803-17.269-26.151-23.686-34.049c-6.414-7.896-11.842-13.322-16.775-16.775
		c-4.936-2.962-9.869-5.43-14.806-6.416c-3.946-0.985-9.869-0.985-18.256-0.985h-37.504v109.546H289.605z M322.668,725.821h70.565
		c14.803,0,26.645-1.481,35.034-4.441c8.388-2.961,14.803-7.897,19.245-14.806c4.439-6.907,6.414-14.31,6.414-22.204
		c0-11.842-4.442-21.218-12.828-29.113c-8.39-7.401-22.207-11.35-40.467-11.35h-77.964V725.821z"/>
	<path fill="#FFFFFF" d="M665.619,842.276c-11.351,9.377-22.204,16.284-32.568,20.23c-10.363,3.949-21.711,5.923-33.555,5.923
		c-19.739,0-35.036-4.936-45.396-14.312c-10.857-9.869-15.79-22.205-15.79-37.009c0-8.882,1.972-16.776,5.92-24.179
		c3.946-7.401,9.376-13.325,15.791-17.765c6.414-4.44,13.815-7.896,21.711-9.87c5.923-1.48,14.803-2.961,27.141-4.439
		c24.673-2.962,42.932-6.414,54.279-10.363c0-3.949,0-6.908,0-7.896c0-12.337-2.959-21.218-8.883-26.153
		c-7.896-6.908-19.243-10.363-34.54-10.363c-14.309,0-25.166,2.468-31.58,7.401c-6.911,4.936-11.845,13.819-15.3,26.647
		l-29.606-3.946c2.468-12.831,7.401-23.192,13.322-31.087c6.417-7.895,15.299-13.819,27.142-18.258
		c11.844-4.442,25.166-6.415,40.956-6.415c15.297,0,27.635,1.972,37.502,5.427c9.376,3.456,16.777,8.389,21.22,13.816
		c4.44,5.429,7.896,12.337,9.376,20.726c0.985,5.428,1.479,14.803,1.479,28.125v40.464c0,28.127,0.494,46.386,1.975,53.788
		c1.48,7.401,3.948,14.803,7.896,21.711h-32.075C668.581,858.067,666.606,850.665,665.619,842.276z M663.151,774.179
		c-10.854,4.439-27.632,8.389-49.839,11.351c-12.336,1.972-21.218,3.946-26.646,5.921c-5.43,2.468-9.376,5.427-11.844,9.869
		c-2.96,4.44-4.44,9.376-4.44,14.311c0,7.895,2.96,14.803,9.374,20.232c5.923,5.427,15.299,7.893,27.141,7.893
		c11.845,0,22.205-2.466,31.581-7.893c9.376-4.937,15.79-12.338,20.233-21.22c3.452-6.908,4.933-17.271,4.933-30.594v-9.87H663.151z
		"/>
	<path fill="#FFFFFF" d="M820.07,837.341l4.44,27.141c-8.386,1.975-16.283,2.469-23.191,2.469c-10.857,0-19.737-1.975-25.66-5.431
		c-5.921-3.452-10.36-7.896-12.829-13.816c-2.468-5.92-3.949-17.765-3.949-36.023V708.056h-22.205V684.37h22.205v-44.41
		l30.103-18.258v62.668h30.594v23.686h-30.594v105.105c0,8.883,0.493,14.31,1.479,16.777c0.987,2.468,2.962,4.443,5.43,5.924
		c2.468,1.479,5.921,1.972,10.363,1.972C810.201,838.327,814.644,837.834,820.07,837.341z"/>
	<path fill="#FFFFFF" d="M984.886,806.747l31.581,3.946c-4.935,18.259-14.31,32.568-27.635,42.931
		c-13.322,10.363-30.594,15.297-51.318,15.297c-26.153,0-47.373-7.895-62.67-24.179s-23.191-38.982-23.191-68.096
		c0-30.103,7.895-53.788,23.191-70.565c15.791-16.775,36.023-25.167,60.696-25.167c24.179,0,43.916,8.392,59.216,24.675
		c15.297,16.281,22.698,39.477,22.698,69.082c0,1.975,0,4.44,0,7.896H883.232c0.987,19.739,6.908,35.036,16.777,45.397
		c9.87,10.362,22.698,15.793,37.502,15.793c11.351,0,20.727-2.962,28.622-8.883C974.028,828.952,980.443,819.575,984.886,806.747z
		 M885.207,757.401h100.666c-1.481-15.297-5.43-26.647-11.352-34.049c-9.868-11.842-22.204-17.765-37.994-17.765
		c-13.819,0-25.66,4.937-35.53,14.312C891.128,729.275,886.194,741.61,885.207,757.401z"/>
	<path fill="#FFFFFF" d="M1183.746,864.481v-22.698c-11.348,17.765-28.125,26.644-50.333,26.644
		c-14.309,0-27.631-3.945-39.476-11.841c-11.841-7.896-21.218-18.752-28.126-33.062c-6.414-14.311-9.869-30.594-9.869-48.853
		c0-17.765,2.961-34.048,8.882-48.851c5.921-14.804,14.804-25.661,27.142-33.556c11.842-7.895,25.164-11.841,39.97-11.841
		c10.854,0,20.724,2.466,29.111,6.908c8.389,4.44,15.297,10.361,20.725,17.765v-89.317h30.104v248.703H1183.746z M1087.522,774.672
		c0,23.192,4.937,40.464,14.805,51.814c9.869,11.348,21.22,17.269,34.542,17.269s24.672-5.428,34.049-16.284
		c9.376-10.854,13.816-27.632,13.816-49.837c0-24.673-4.934-42.932-14.311-54.281c-9.377-11.348-21.22-17.271-35.036-17.271
		c-13.322,0-24.672,5.429-34.049,16.777C1091.966,733.716,1087.522,750.986,1087.522,774.672z"/>
	<g>
		<path fill="#FFFFFF" d="M438.137,1051.501h-15.791v-59.709c-5.92,5.43-12.831,9.376-20.727,11.844v-14.31
			c3.95-1.481,8.39-3.948,13.325-7.896c4.934-3.948,8.389-8.389,9.87-13.324h12.828L438.137,1051.501L438.137,1051.501z"/>
		<path fill="#FFFFFF" d="M488.47,968.6c7.895,0,14.31,2.962,18.749,8.389c5.43,6.908,7.896,17.765,7.896,33.556
			c0,15.79-2.466,27.141-7.896,33.555c-4.439,5.428-10.854,8.39-18.749,8.39c-7.896,0-14.311-2.962-19.246-9.376
			c-4.933-6.414-7.401-17.271-7.401-33.062c0-15.79,2.469-26.646,7.895-33.555C474.159,971.067,480.574,968.6,488.47,968.6z
			 M488.47,981.431c-1.975,0-3.456,0.494-4.937,1.973c-1.48,0.987-2.466,3.455-3.452,6.414c-0.987,3.949-1.481,10.857-1.481,20.727
			s0.494,16.283,1.481,20.232c0.986,3.453,1.972,5.922,3.452,7.402c1.48,0.984,2.962,1.971,4.937,1.971
			c1.974,0,3.452-0.492,4.934-1.971c1.48-0.988,2.468-3.455,3.455-6.418c0.986-3.945,1.478-10.854,1.478-20.724
			c0-9.869-0.491-16.284-1.478-20.232c-0.987-3.453-1.975-5.921-3.455-7.401C491.922,981.925,490.443,981.431,488.47,981.431z"/>
		<path fill="#FFFFFF" d="M552.618,968.6c7.896,0,14.31,2.962,18.752,8.389c5.428,6.908,7.893,17.765,7.893,33.556
			c0,15.79-2.465,27.141-7.893,33.555c-4.442,5.428-10.856,8.39-18.752,8.39c-7.895,0-14.309-2.962-19.245-9.376
			c-4.935-6.414-7.402-17.271-7.402-33.062c0-15.79,2.468-26.646,7.896-33.555C538.31,971.067,544.724,968.6,552.618,968.6z
			 M552.618,981.431c-1.975,0-3.455,0.494-4.936,1.973c-1.479,0.987-2.466,3.455-3.453,6.414c-0.987,3.949-1.48,10.857-1.48,20.727
			s0.493,16.283,1.48,20.232c0.987,3.453,1.975,5.922,3.453,7.402c1.48,0.984,2.961,1.971,4.936,1.971s3.455-0.492,4.934-1.971
			c1.48-0.988,2.469-3.455,3.455-6.418c0.988-3.945,1.481-10.854,1.481-20.724c0-9.869-0.493-16.284-1.481-20.232
			c-0.986-3.453-1.975-5.921-3.455-7.401C556.071,981.925,554.593,981.431,552.618,981.431z"/>
		<path fill="#FFFFFF" d="M625.649,1051.501V968.6h35.033c8.885,0,15.3,0.987,19.246,2.468c3.949,1.48,7.401,3.946,9.376,7.896
			c2.468,3.946,3.455,8.389,3.455,12.829c0,6.417-1.975,11.35-5.43,15.297c-3.452,3.948-8.882,6.417-16.283,7.404
			c3.455,1.972,6.414,4.439,8.882,6.908c2.468,2.465,5.43,6.908,9.376,13.322l9.87,16.283h-19.739l-11.842-17.766
			c-4.442-6.414-7.401-10.362-8.882-12.334c-1.481-1.975-3.456-2.962-4.935-3.455c-1.974-0.494-4.441-0.987-8.391-0.987h-3.453
			v34.542h-16.284V1051.501z M642.428,1003.636h12.334c7.896,0,12.832-0.494,14.806-0.987c1.973-0.493,3.454-1.974,4.44-3.455
			c0.987-1.479,1.48-3.946,1.48-6.414c0-2.962-0.986-4.935-2.467-6.908c-1.481-1.48-3.454-2.962-6.415-3.455
			c-1.48,0-5.43-0.491-12.338-0.491H641.44v21.711H642.428L642.428,1003.636z"/>
		<path fill="#FFFFFF" d="M743.584,1032.255l15.791,2.469c-1.973,5.92-5.428,10.363-9.373,13.322
			c-4.443,2.961-9.87,4.442-16.285,4.442c-10.363,0-18.259-3.456-23.194-10.364c-3.946-5.426-5.921-12.334-5.921-20.723
			c0-9.871,2.468-17.766,7.896-23.195c5.43-5.427,11.844-8.389,19.739-8.389c8.883,0,15.79,2.962,21.218,8.882
			c4.933,5.924,7.401,14.807,7.401,27.142h-39.97c0,4.934,1.48,8.389,3.949,10.857c2.465,2.465,5.427,3.945,9.376,3.945
			c2.465,0,4.439-0.494,6.414-1.975C741.612,1037.685,743.09,1035.216,743.584,1032.255z M744.572,1016.465
			c0-4.44-1.482-7.896-3.453-10.363c-2.469-2.466-4.936-3.453-8.39-3.453c-3.455,0-6.416,1.481-8.389,3.946
			c-2.468,2.469-3.455,5.924-3.455,10.363L744.572,1016.465L744.572,1016.465z"/>
		<path fill="#FFFFFF" d="M789.971,1051.501l-24.18-59.709h16.778l11.348,30.596l3.455,10.361c0.987-2.466,1.481-4.439,1.481-4.934
			c0.493-1.481,0.987-3.455,1.48-4.937l11.348-30.594h16.284l-23.686,59.71h-14.31V1051.501z"/>
		<path fill="#FFFFFF" d="M837.836,983.403V968.6h15.791v14.804H837.836z M837.836,1051.501v-59.709h15.791v59.709H837.836z"/>
		<path fill="#FFFFFF" d="M904.453,1032.255l15.79,2.469c-1.975,5.92-5.43,10.363-9.376,13.322
			c-4.442,2.961-9.87,4.442-16.284,4.442c-10.363,0-18.259-3.456-23.192-10.364c-3.948-5.426-5.921-12.334-5.921-20.723
			c0-9.871,2.466-17.766,7.894-23.195c5.429-5.427,11.844-8.389,19.738-8.389c8.883,0,15.791,2.962,21.221,8.882
			c4.934,5.924,7.399,14.807,7.399,27.142h-39.967c0,4.934,1.478,8.389,3.945,10.857c2.469,2.465,5.428,3.945,9.376,3.945
			c2.469,0,4.44-0.494,6.415-1.975C902.478,1037.685,903.466,1035.216,904.453,1032.255z M905.438,1016.465
			c0-4.44-1.479-7.896-3.453-10.363c-2.468-2.466-4.933-3.453-8.389-3.453c-3.455,0-6.415,1.481-8.389,3.946
			c-2.468,2.469-3.455,5.924-3.455,10.363L905.438,1016.465L905.438,1016.465z"/>
		<path fill="#FFFFFF" d="M945.409,1051.501l-18.752-59.709h15.297l11.351,39.476l10.363-39.476h15.297l9.867,39.476l11.351-39.476
			h15.79l-19.246,59.709H981.43l-10.362-38.489l-10.361,38.489H945.409z"/>
		<path fill="#FFFFFF" d="M1018.44,1034.229l15.79-2.469c0.494,2.963,1.973,5.43,3.947,6.908c1.975,1.48,4.936,2.469,8.883,2.469
			c3.948,0,7.401-0.988,9.375-2.469c1.481-0.984,1.975-2.465,1.975-4.439c0-0.988-0.493-1.975-0.987-2.962
			c-0.987-0.984-2.468-1.478-5.43-1.972c-12.828-2.962-20.724-5.43-24.177-7.895c-4.936-3.456-6.91-7.896-6.91-13.325
			c0-5.428,1.975-9.377,5.923-13.323c3.947-3.454,10.361-5.43,19.243-5.43c8.39,0,14.312,1.481,18.259,3.949
			s6.908,6.415,8.389,11.844l-14.803,2.96c-0.494-2.469-1.975-3.946-3.455-5.428c-1.975-1.48-4.44-1.974-7.401-1.974
			c-3.947,0-7.402,0.493-8.883,1.974c-0.987,0.987-1.975,1.975-1.975,3.453c0,0.987,0.493,1.975,1.48,2.962
			c1.481,0.986,6.417,2.467,14.804,4.442c8.392,1.972,14.312,4.439,17.765,6.907c3.455,2.96,4.937,6.908,4.937,11.842
			c0,5.43-2.469,10.363-6.911,14.31c-4.44,3.948-11.349,5.924-20.23,5.924c-8.389,0-14.803-1.481-19.246-4.937
			C1022.881,1044.593,1019.919,1040.149,1018.44,1034.229z"/>
	</g>
	
		<path fill="none" stroke="#FFFFFF" stroke-width="6.7807" stroke-linecap="round" stroke-linejoin="round" stroke-miterlimit="10" d="
		M352.274,376.455c0,0,142.609-177.15,390.815-177.15c313.839,0,442.137,217.119,442.137,217.119"/>
	
		<path fill="none" stroke="#FFFFFF" stroke-width="6.7807" stroke-linecap="round" stroke-linejoin="round" stroke-miterlimit="10" d="
		M248.155,513.634c0,0-54.279,121.391-49.839,272.389c4.442,152.478,86.85,254.127,86.85,254.127"/>
	
		<path fill="none" stroke="#FFFFFF" stroke-width="6.7807" stroke-linecap="round" stroke-linejoin="round" stroke-miterlimit="10" d="
		M1221.251,1027.321c0,0,52.797-54.773,78.458-204.291c27.141-158.399-31.581-258.076-31.581-258.076"/>
	<g>
		<polygon fill="#FFFFFF" points="324.642,1091.964 358.69,1125.52 358.69,1076.667 327.11,1045.58 		"/>
		<polygon fill="#FFFFFF" points="322.174,1094.926 274.309,1092.951 307.865,1128.972 351.78,1131.439 		"/>
		<polygon fill="#FFFFFF" points="365.105,1140.322 317.24,1142.79 353.755,1175.853 397.674,1173.384 		"/>
		<polygon fill="#FFFFFF" points="412.971,1181.772 365.599,1189.175 405.569,1218.287 448.994,1211.872 		"/>
		<polygon fill="#FFFFFF" points="462.316,1217.796 415.438,1228.157 456.889,1254.804 499.817,1245.922 		"/>
		<polygon fill="#FFFFFF" points="515.607,1249.377 471.198,1266.648 516.102,1286.385 557.058,1270.595 		"/>
		<polygon fill="#FFFFFF" points="572.357,1274.051 531.893,1294.279 578.771,1308.59 617.754,1287.865 		"/>
		<polygon fill="#FFFFFF" points="634.532,1289.348 596.04,1313.032 643.908,1322.901 680.916,1299.214 		"/>
		<polygon fill="#FFFFFF" points="367.573,1136.376 402.606,1169.93 402.606,1120.583 370.532,1089.495 		"/>
		<polygon fill="#FFFFFF" points="412.477,1175.358 447.513,1206.938 444.058,1157.594 411.983,1128.48 		"/>
		<polygon fill="#FFFFFF" points="462.316,1212.86 500.805,1241.975 494.391,1193.124 458.86,1166.476 		"/>
		<polygon fill="#FFFFFF" points="516.102,1244.44 558.539,1267.14 544.724,1219.769 505.74,1198.55 		"/>
		<polygon fill="#FFFFFF" points="575.317,1269.607 621.21,1283.917 599.003,1240.001 556.564,1226.678 		"/>
		<polygon fill="#FFFFFF" points="635.025,1284.904 684.371,1293.787 661.67,1255.791 608.872,1245.922 		"/>
	</g>
	<g>
		<polygon fill="#FFFFFF" points="1171.904,1091.964 1137.855,1125.52 1138.35,1076.667 1169.436,1045.58 		"/>
		<polygon fill="#FFFFFF" points="1174.373,1094.926 1222.237,1092.951 1188.683,1128.972 1144.764,1131.439 		"/>
		<polygon fill="#FFFFFF" points="1131.441,1140.322 1179.307,1142.79 1142.79,1175.853 1098.874,1173.384 		"/>
		<polygon fill="#FFFFFF" points="1083.577,1181.772 1130.947,1189.175 1090.979,1218.287 1047.554,1211.872 		"/>
		<polygon fill="#FFFFFF" points="1034.23,1217.796 1081.108,1228.157 1039.658,1254.804 996.727,1245.922 		"/>
		<polygon fill="#FFFFFF" points="980.937,1249.377 1025.349,1266.648 980.443,1286.385 939.486,1270.595 		"/>
		<polygon fill="#FFFFFF" points="924.189,1274.051 964.653,1294.279 917.774,1308.59 878.792,1287.865 		"/>
		<polygon fill="#FFFFFF" points="862.015,1289.348 900.504,1313.032 852.639,1322.901 815.631,1299.214 		"/>
		<polygon fill="#FFFFFF" points="1128.974,1136.376 1094.431,1169.93 1094.431,1120.583 1126.014,1089.495 		"/>
		<polygon fill="#FFFFFF" points="1084.068,1175.358 1049.034,1206.938 1052.487,1157.594 1084.562,1128.48 		"/>
		<polygon fill="#FFFFFF" points="1034.23,1212.86 995.742,1241.975 1002.157,1193.124 1037.684,1166.476 		"/>
		<polygon fill="#FFFFFF" points="980.443,1244.44 938.005,1267.14 951.824,1219.769 990.806,1198.55 		"/>
		<polygon fill="#FFFFFF" points="921.229,1269.607 875.338,1283.917 898.038,1240.001 939.979,1226.678 		"/>
		<polygon fill="#FFFFFF" points="861.521,1284.904 812.176,1293.787 834.874,1255.791 887.675,1245.922 		"/>
	</g>
	<path fill="#FFFFFF" d="M739.145,1266.154l12.828-33.555l11.351,33.061l34.543,0.988l-27.141,25.659l13.324,33.062l-33.062-20.233
		c0,0-25.66,20.728-25.66,19.245c0-1.48,6.908-33.555,6.908-33.555l-23.194-24.673H739.145L739.145,1266.154z"/>
	
		<path fill="none" stroke="#FFFFFF" stroke-width="6.7807" stroke-linecap="round" stroke-linejoin="round" stroke-miterlimit="10" d="
		M750.002,126.273c344.472,0,623.727,279.25,623.727,623.726c0,344.476-279.255,623.727-623.727,623.727
		c-344.477,0-623.73-279.251-623.73-623.727C126.271,405.524,405.525,126.273,750.002,126.273z"/>
</g>
</svg>
