<?xml version="1.0" encoding="utf-8"?>
<!-- Generator: Adobe Illustrator 22.1.0, SVG Export Plug-In . SVG Version: 6.00 Build 0)  -->
<svg version="1.1" id="Layer_1" xmlns="http://www.w3.org/2000/svg" xmlns:xlink="http://www.w3.org/1999/xlink" x="0px" y="0px"
	 viewBox="0 0 395.3 97.7" style="enable-background:new 0 0 395.3 97.7;" xml:space="preserve">
<style type="text/css">
	.st0{fill-rule:evenodd;clip-rule:evenodd;}
	.st1{fill-rule:evenodd;clip-rule:evenodd;fill:#4A4B4D;}
</style>
<path class="st0" d="M25.9,3.2h24.7v94.5H19.2V41.5H3.4V23C19.2,18.9,25.9,11.3,25.9,3.2L25.9,3.2z"/>
<path class="st1" d="M379.9,50l15-16h-16.6l-13.1,14.4V19.2h-13.9v56.7h13.9V64.6l5.2-5.3l9.2,16.5h15.7L379.9,50z M252.2,45.8
	c2.9-1.1,5.1-2.6,6.5-4.6c1.4-2,2.2-4.5,2.2-7.6c0-4.9-1.6-8.6-4.8-11c-3.2-2.4-8.2-3.6-14.9-3.6H213v56.7h22.7
	c5.3,0,9.3-0.2,11.9-0.6c2.6-0.4,4.8-1.1,6.6-2.1c2.7-1.4,4.8-3.4,6.3-6c1.5-2.6,2.2-5.4,2.2-8.6c0-3.3-0.9-6-2.7-8.2
	C258.1,48.2,255.6,46.7,252.2,45.8z M227.2,30.6h12.6c2.3,0,4,0.4,5.1,1.3c1.2,0.9,1.7,2.2,1.7,3.9c0,1.8-0.6,3.2-1.9,4.1
	c-1.2,0.9-3.1,1.4-5.6,1.4h-11.9V30.6z M245.9,63.1c-1.4,1-3.9,1.4-7.4,1.4h-11.2V52.1h12.7c2.7,0,4.7,0.5,6,1.6c1.4,1,2,2.6,2,4.6
	C248,60.5,247.3,62.2,245.9,63.1z M305.1,72.1c-0.4-1.1-0.5-2.6-0.5-4.5V51.8c0-4-0.2-6.9-0.6-8.7c-0.4-1.8-1.2-3.4-2.2-4.7
	c-1.5-1.8-3.6-3.2-6.2-4.1c-2.6-0.9-5.9-1.4-9.8-1.4c-6.2,0-11,1.2-14.4,3.5c-3.4,2.3-5.4,5.8-6.1,10.5h13.1c0.3-1.5,1-2.7,2.2-3.5
	c1.2-0.8,2.8-1.2,4.8-1.2c1.9,0,3.3,0.3,4.2,0.9c0.9,0.6,1.4,1.5,1.4,2.7v1c0,1.5-2.5,2.6-7.4,3.4c-3.3,0.5-6,1-8.1,1.5
	c-3.9,0.9-6.7,2.4-8.7,4.6c-1.9,2.2-2.9,5-2.9,8.4c0,3.8,1.2,6.8,3.7,9c2.4,2.2,5.8,3.3,9.9,3.3c2.7,0,5.2-0.5,7.4-1.4
	c2.3-0.9,4.4-2.3,6.4-4.3c0.1,0.8,0.2,1.5,0.3,2.2c0.1,0.7,0.3,1.4,0.4,2.1h14.5v-1.6C306,73.9,305.4,73.2,305.1,72.1z M291,60.9
	c0,2.2-0.8,4-2.3,5.3c-1.5,1.4-3.5,2-5.9,2c-1.6,0-2.8-0.5-3.8-1.4c-1-0.9-1.4-2.1-1.4-3.6c0-1.2,0.4-2.2,1.1-2.9
	c0.7-0.7,1.9-1.3,3.6-1.8c0.7-0.2,1.7-0.4,3-0.7c2.7-0.6,4.7-1.2,5.8-1.8V60.9z M334.6,33c-2.9,0-5.4,0.6-7.6,1.7
	c-2.1,1.1-3.9,2.8-5.4,5.1V34H308v41.8h13.9V53.4c0-3.5,0.6-6.1,1.7-7.7c1.1-1.6,2.9-2.4,5.4-2.4c2.2,0,3.8,0.7,4.6,2
	c0.8,1.3,1.3,4.5,1.3,9.4v21.1h14V48.6c0-5.5-1.1-9.5-3.4-12C343.2,34.2,339.6,33,334.6,33z M203.7,22.4h-14.8v12.8h-6.1v8.7h6.1
	v19.9c0,7.5,4.3,11.9,11.8,11.9c1.4,0,10.4,0.1,10.4,0.1v-9.3c-0.2,0-0.5,0.1-0.8,0.1c-0.3,0-0.6,0-1.1,0c-2.1,0-3.6-0.1-4.4-1
	c-0.8-0.9-1.2-2.7-1.2-5.4V43.9h7.5v-8.7h-7.5V22.4z M54.7,75.4h14.8V54.3h23.4V42.7H69.5V31.6h26.9V19.5H54.7V75.4z M98.1,30.4
	h13.4V19.5H98.1V30.4z M98.1,75.4h13.4V34.1H98.1V75.4z M128.6,41.3v-7.2h-14.1v41.3h14.6V61.6c0-3.6,0.1-6.2,0.4-7.8
	c0.2-1.6,0.6-2.9,1.2-3.7c0.9-1.3,2.1-2.2,3.5-2.9c1.5-0.6,3.3-0.9,5.6-0.9c0.5,0,1.1,0,1.8,0.1c0.6,0,1.2,0.1,1.9,0.2V33.1
	c-3.6,0.1-6.6,0.7-8.9,2C132.1,36.4,130.1,38.5,128.6,41.3z M179.3,54.3c-0.7-0.5-1.9-1.1-3.5-1.6c-1.6-0.6-4.4-1.4-8.5-2.6
	c-0.6-0.2-1.4-0.4-2.5-0.7c-4.4-1.1-6.6-2.5-6.6-4.1c0-1.1,0.4-1.9,1.3-2.5c0.9-0.6,2.1-0.9,3.7-0.9c1.8,0,3.1,0.3,4.1,1
	c1,0.6,1.6,2.1,1.9,3.5h13c-0.4-3.9-2.2-7.4-5.5-9.3c-3.2-2-7.8-3-13.8-3c-5.6,0-10,1.2-13.2,3.5c-3.2,2.3-4.8,5.5-4.8,9.5
	c0,2.9,0.9,5.2,2.9,7c1.9,1.8,5.4,3.5,10.6,5.1c1.4,0.5,3.2,1,5.5,1.5c4.3,1.1,6.4,2.3,6.4,3.9c0,1.2-0.5,2.2-1.6,2.9
	c-1.1,0.7-2.6,1.1-4.5,1.1c-2.3,0-4-0.4-5.2-1.3c-1.2-0.9-1.9-2.2-2-4h-13.5c0.3,4.3,2.3,7.6,5.8,10c3.5,2.3,8.4,3.5,14.5,3.5
	c6.2,0,11.1-1.2,14.6-3.7c3.5-2.4,5.2-5.8,5.2-10.2c0-1.9-0.4-3.5-1.1-4.9C181.9,56.6,180.8,55.4,179.3,54.3z"/>
<path class="st1" d="M22.4,0h24.7v94.5H15.8V38.2H0V19.8C15.8,15.6,22.4,8,22.4,0L22.4,0z"/>
</svg>
