<?xml version="1.0" encoding="utf-8"?>
<!-- Generator: Adobe Illustrator 16.0.0, SVG Export Plug-In . SVG Version: 6.00 Build 0)  -->
<!DOCTYPE svg PUBLIC "-//W3C//DTD SVG 1.1//EN" "http://www.w3.org/Graphics/SVG/1.1/DTD/svg11.dtd">
<svg version="1.1" id="Layer_1" xmlns="http://www.w3.org/2000/svg" xmlns:xlink="http://www.w3.org/1999/xlink" x="0px" y="0px"
	 width="1072px" height="1500px" viewBox="198.5 0 1072 1500" enable-background="new 198.5 0 1072 1500" xml:space="preserve">
<g>
	
		<polygon fill="none" stroke="#FFFFFF" stroke-width="3.7847" stroke-linecap="round" stroke-linejoin="round" stroke-miterlimit="10" points="
		483.843,570.546 586.13,571.27 591.19,571.27 665.283,571.27 735.403,496.812 804.437,570.546 989.855,570.546 900.58,661.629 
		899.856,859.696 734.681,1025.958 574.924,864.033 574.924,660.906 	"/>
	<polygon fill="#FFFFFF" points="592.636,668.858 612.876,668.858 612.152,633.797 637.091,668.858 664.201,668.858 
		625.526,617.895 662.032,587.533 635.645,587.533 613.237,606.69 613.237,586.449 591.913,586.449 	"/>
	<path fill="#FFFFFF" d="M726.367,598.015l-25.661-0.359l-8.314,9.035v38.675l8.314,6.865h25.299l8.676-7.589V606.69
		L726.367,598.015z M719.861,642.111h-13.013l-3.614-2.531v-28.915l3.976-3.975h13.012l3.615,3.252v29.276L719.861,642.111z"/>
	<polygon fill="#FFFFFF" points="786.004,608.136 786.004,597.655 760.703,597.655 749.499,597.655 749.499,608.136 
		749.499,651.508 760.703,651.508 760.703,632.714 775.522,632.714 775.522,620.787 760.703,620.787 760.703,608.136 	"/>
	<path fill="#FFFFFF" d="M818.172,601.992l14.819-15.902h39.035l13.733,13.371l0.361,19.519h-19.154v-6.868
		c0,0-1.084-5.421-6.146-5.421c-5.06,0-14.457,0-14.457,0s-5.059,0-5.421,6.145c-0.361,6.145-0.361,27.83-0.361,27.83
		s0.724,6.145,5.06,6.145c4.699,0,15.903,0,15.903,0s4.7-0.721,4.7-4.336c0-3.614,0.361-7.229,0.361-7.229l19.154,0.362
		l-0.361,20.241l-12.288,13.012l-39.758,0.362l-15.542-16.627L818.172,601.992z"/>
	
		<polygon fill="none" stroke="#FFFFFF" stroke-width="3.7847" stroke-linecap="round" stroke-linejoin="round" stroke-miterlimit="10" points="
		589.744,681.868 887.567,682.592 887.929,855.72 736.848,1006.802 590.829,855.72 	"/>
	<path fill="#FFFFFF" d="M730.343,719.82c0,0-9.759,1.085-15.542-3.252c-6.145-4.338-16.987-17.349-16.987-17.349
		s-12.289,10.843-12.65,29.276c-0.361,24.938,12.289,31.443,12.289,31.443s7.953-9.035,17.349-12.288
		c9.036-3.252,15.903-3.614,15.903-3.614v25.302h10.842v-26.024c0,0,12.289,0.361,22.05,3.976c5.782,2.169,11.927,5.061,13.373,4.7
		c1.444-0.362,2.529-3.254,1.083-5.422c-1.083-1.809-8.312-11.567-19.878-17.711c-11.566-6.144-16.628-7.229-16.628-7.229v-24.217
		c0,0-1.806-3.253-5.06-3.253c-4.698-0.362-5.782,3.616-5.782,3.616L730.343,719.82z"/>
	
		<rect x="713.354" y="768.253" fill="none" stroke="#FFFFFF" stroke-width="1.5139" stroke-linecap="round" stroke-linejoin="round" stroke-miterlimit="10" width="8.676" height="184.694"/>
	
		<rect x="722.392" y="768.253" fill="none" stroke="#FFFFFF" stroke-width="1.5139" stroke-linecap="round" stroke-linejoin="round" stroke-miterlimit="10" width="8.674" height="184.694"/>
	
		<rect x="731.427" y="768.253" fill="none" stroke="#FFFFFF" stroke-width="1.5139" stroke-linecap="round" stroke-linejoin="round" stroke-miterlimit="10" width="8.676" height="184.694"/>
	
		<rect x="740.103" y="768.253" fill="none" stroke="#FFFFFF" stroke-width="1.5139" stroke-linecap="round" stroke-linejoin="round" stroke-miterlimit="10" width="8.673" height="184.694"/>
	
		<rect x="749.138" y="768.253" fill="none" stroke="#FFFFFF" stroke-width="1.5139" stroke-linecap="round" stroke-linejoin="round" stroke-miterlimit="10" width="8.675" height="184.694"/>
	
		<rect x="711.188" y="785.24" fill="#FFFFFF" stroke="#FFFFFF" stroke-width="1.5139" stroke-linecap="round" stroke-linejoin="round" stroke-miterlimit="10" width="50.239" height="9.396"/>
	
		<rect x="711.188" y="926.923" fill="#FFFFFF" stroke="#FFFFFF" stroke-width="1.5139" stroke-linecap="round" stroke-linejoin="round" stroke-miterlimit="10" width="50.239" height="9.398"/>
	
		<path fill="none" stroke="#FFFFFF" stroke-width="1.5139" stroke-linecap="round" stroke-linejoin="round" stroke-miterlimit="10" d="
		M731.427,952.947v14.82c0,0,1.445,3.975,5.421,3.975c3.978,0,6.146-3.254,6.146-3.254v-15.18h-11.566V952.947z"/>
	<path fill="#FFFFFF" d="M660.585,892.226c0-0.361,2.169-6.145,0.361-9.759c-1.808-3.615-9.035-13.012-9.758-17.71
		c-0.362-4.698,3.614-14.458,3.251-17.711c-0.361-3.254-3.975-9.398-3.975-9.398s3.252,1.809,9.035-1.084
		c5.783-2.891,9.038-4.698,9.038-4.698s-0.724,6.867,1.084,10.48c1.806,3.255,5.06,6.507,4.337,8.676
		c-0.724,2.17-2.531,3.613-4.337,3.252c-1.808,0-5.783,3.254-5.783,6.868c0,3.615,5.421,11.927,5.421,11.927
		s4.336,3.615,9.396-0.723c5.06-4.698,33.976-29.276,33.976-29.276v18.433l-30,25.302c0,0-2.167,1.808,1.446,6.507
		c3.616,4.336,8.314,6.867,12.289,6.867c3.978,0,6.506-1.446,6.867-3.615c0.363-2.168,1.085-5.423,3.253-3.976
		c2.169,1.085,1.085,6.145,4.339,7.229c2.89,1.084,6.504-0.723,8.311,0.724c1.809,1.444,1.809,6.145,0.724,6.865
		c-1.085,0.724-3.614,2.893-4.338,5.424c-0.723,2.167,0.362,8.312-1.808,7.95c-2.167,0-5.421-5.06-8.311-5.422
		c-2.893,0-9.76,1.809-17.71-3.613c-7.952-5.422-13.013-14.82-16.989-16.265c-3.976-1.446-6.505,0.36-7.951,0.36
		C659.5,895.841,660.585,892.226,660.585,892.226z"/>
	<path fill="#FFFFFF" d="M830.1,757.771c-3.615-3.615-14.458-7.952-25.663,0.361c-11.203,8.312-3.612,20.24-3.612,20.24
		l-6.506,4.697c0,0-4.339-5.06-7.592-7.95c-2.528-2.169-4.697-2.169-6.506-1.808c1.085-1.085,1.446-2.531,1.446-4.337
		c0-3.615-2.892-6.867-6.868-6.867c-3.975,0-6.867,2.891-6.867,6.867c0,3.614,2.893,6.868,6.867,6.868c0.724,0,1.446,0,2.17-0.362
		c-1.807,2.892,1.444,7.228,1.444,7.228l6.506,8.313c0,0-26.022,20.965-27.106,22.048l-0.361,14.097l34.336-27.83
		c0,0,6.145,6.504,7.591,8.312c1.084,1.446,3.612,1.808,5.782,1.085c-0.724,1.085-1.445,2.531-1.445,3.975
		c0,3.615,2.893,6.867,6.867,6.867c3.613,0,6.867-2.89,6.867-6.867c0-3.613-2.893-6.867-6.867-6.867c-0.724,0-1.446,0-2.529,0.361
		c1.444-2.529-1.085-6.145-1.085-6.145l-6.506-8.312l6.146-4.698c0,0,6.144,6.865,12.649,7.589
		c6.504,0.724,9.035-0.724,15.903-7.228C842.027,780.903,840.22,765.36,830.1,757.771z"/>
	
		<circle fill="none" stroke="#FFFFFF" stroke-width="1.4488" stroke-linecap="round" stroke-linejoin="round" stroke-miterlimit="10" cx="618.659" cy="741.145" r="7.228"/>
	
		<path fill="none" stroke="#FFFFFF" stroke-width="1.4488" stroke-linecap="round" stroke-linejoin="round" stroke-miterlimit="10" d="
		M633.116,745.844l-7.229,8.674c-1.085,1.446-2.893,1.446-4.336,0.361l0,0c-1.446-1.085-1.446-2.89-0.362-4.337l7.23-8.675
		c1.083-1.444,2.89-1.444,4.336-0.361l0,0C633.84,742.59,634.199,744.759,633.116,745.844z"/>
	
		<path fill="none" stroke="#FFFFFF" stroke-width="1.4488" stroke-linecap="round" stroke-linejoin="round" stroke-miterlimit="10" d="
		M659.862,768.976l-7.227,8.674c-1.085,1.446-2.893,1.446-4.338,0.361l0,0c-1.446-1.084-1.446-2.891-0.361-4.337l7.229-8.675
		c1.085-1.444,2.89-1.444,4.336-0.362l0,0C660.585,765.722,660.947,767.892,659.862,768.976z"/>
	
		<path fill="none" stroke="#FFFFFF" stroke-width="1.4488" stroke-linecap="round" stroke-linejoin="round" stroke-miterlimit="10" d="
		M639.623,751.627l-7.229,8.312c-1.446,1.808-3.975,1.808-5.421,0.362l-0.724-0.724c-1.808-1.444-1.808-3.975-0.361-5.421
		l7.229-8.312c1.445-1.808,3.975-1.808,5.421-0.361l0.724,0.724C641.066,747.65,641.066,750.181,639.623,751.627z"/>
	
		<path fill="none" stroke="#FFFFFF" stroke-width="1.4488" stroke-linecap="round" stroke-linejoin="round" stroke-miterlimit="10" d="
		M647.211,758.492l-7.228,8.314c-1.446,1.808-3.976,1.808-5.422,0.361l-0.721-0.723c-1.808-1.446-1.808-3.976-0.361-5.422
		l7.229-8.312c1.443-1.808,3.975-1.808,5.418-0.361l0.724,0.722C648.297,754.156,648.658,756.687,647.211,758.492z"/>
	
		<path fill="none" stroke="#FFFFFF" stroke-width="1.4488" stroke-linecap="round" stroke-linejoin="round" stroke-miterlimit="10" d="
		M654.803,764.639l-7.23,8.312c-1.444,1.808-3.975,1.808-5.421,0.361l-0.722-0.723c-1.806-1.446-1.806-3.976-0.363-5.422l7.23-8.313
		c1.446-1.807,3.976-1.807,5.421-0.362l0.723,0.724C655.887,760.662,655.887,763.192,654.803,764.639z"/>
	
		<path fill="none" stroke="#FFFFFF" stroke-width="1.4488" stroke-linecap="round" stroke-linejoin="round" stroke-miterlimit="10" d="
		M668.899,779.818l-3.254,3.614c-1.806,1.808-4.699,2.169-6.506,0.361l-3.614-3.252c-1.808-1.808-2.169-4.698-0.361-6.506
		l3.251-3.614c1.809-1.808,4.701-2.169,6.509-0.361l3.614,3.252C670.343,775.12,670.343,778.011,668.899,779.818z"/>
	
		<path fill="none" stroke="#FFFFFF" stroke-width="1.4488" stroke-linecap="round" stroke-linejoin="round" stroke-miterlimit="10" d="
		M664.201,768.976c0,0,6.142-5.783,6.505-11.565c0.361-7.229,0.361-12.289,1.445-14.097c1.085-1.808,3.255-0.361,4.699,0.361
		c1.446,0.724,16.627,14.817,16.627,14.817s3.975,2.893,1.806,4.7c-1.085,0.724-7.589,1.807-14.819,2.891
		c-3.975,0.724-9.759,8.676-9.759,8.676L664.201,768.976z"/>
	
		<path fill="none" stroke="#FFFFFF" stroke-width="1.4488" stroke-linecap="round" stroke-linejoin="round" stroke-miterlimit="10" d="
		M660.947,785.24c0,0-6.144,5.782-6.506,11.565c-0.361,7.229,0,12.289-1.084,14.097c-1.083,1.806-3.252,0.362-4.699,0
		c-1.446-0.361-16.625-14.458-16.625-14.458s-3.976-2.891-1.809-4.336c1.085-0.725,7.591-1.809,14.82-3.255
		c3.975-0.722,9.759-9.035,9.759-9.035L660.947,785.24z"/>
	<path fill="#FFFFFF" d="M670.343,775.12l43.373,36.145l-0.722,13.012l-47.348-40.121c0,0,1.446-1.085,2.893-2.891
		C669.982,779.096,670.343,775.12,670.343,775.12z"/>
	<path fill="#FFFFFF" d="M757.812,845.238l52.046,43.735c0,0,2.893,3.613,0,6.867c-2.529,2.891-5.422,2.528-7.591,0.722
		c-2.528-1.807-44.094-38.312-44.094-38.312L757.812,845.238z"/>
	<g>
		
			<polygon fill="none" stroke="#FFFFFF" stroke-width="3.7847" stroke-linecap="round" stroke-linejoin="round" stroke-miterlimit="10" points="
			669.622,493.199 668.538,570.185 591.19,570.185 		"/>
		
			<polyline fill="none" stroke="#FFFFFF" stroke-width="3.7847" stroke-linecap="round" stroke-linejoin="round" stroke-miterlimit="10" points="
			706.849,525.729 705.766,408.622 544.565,569.462 		"/>
		
			<polyline fill="none" stroke="#FFFFFF" stroke-width="3.7847" stroke-linecap="round" stroke-linejoin="round" stroke-miterlimit="10" points="
			515.287,601.269 390.953,724.157 574.924,725.241 		"/>
		
			<polyline fill="none" stroke="#FFFFFF" stroke-width="3.7847" stroke-linecap="round" stroke-linejoin="round" stroke-miterlimit="10" points="
			537.697,623.316 470.831,686.93 574.562,687.29 		"/>
	</g>
	
		<polygon fill="none" stroke="#FFFFFF" stroke-width="3.7847" stroke-linecap="round" stroke-linejoin="round" stroke-miterlimit="10" points="
		801.907,493.199 802.99,570.185 880.339,570.185 	"/>
	
		<polyline fill="none" stroke="#FFFFFF" stroke-width="3.7847" stroke-linecap="round" stroke-linejoin="round" stroke-miterlimit="10" points="
		764.681,525.729 765.763,408.622 927.327,569.462 	"/>
	
		<polyline fill="none" stroke="#FFFFFF" stroke-width="3.7847" stroke-linecap="round" stroke-linejoin="round" stroke-miterlimit="10" points="
		960.578,601.269 1084.912,724.157 900.941,725.241 	"/>
	
		<polyline fill="none" stroke="#FFFFFF" stroke-width="3.7847" stroke-linecap="round" stroke-linejoin="round" stroke-miterlimit="10" points="
		938.17,623.316 1005.034,686.93 901.303,687.29 	"/>
	<g>
		<path fill="#FFFFFF" d="M1022.386,604.521c0,10.483-8.314,18.795-18.796,18.795c-10.482,0-19.156-8.312-19.156-18.795
			c0-10.12,8.312-18.433,19.156-18.433C1014.071,586.09,1022.386,594.401,1022.386,604.521z M989.131,604.521
			c0,8.314,6.146,14.82,14.459,14.82c7.95,0,14.096-6.506,14.096-14.82c0-8.312-6.146-14.818-14.096-14.818
			C995.638,589.703,989.131,596.571,989.131,604.521z M1000.336,614.281h-4.337v-18.434c1.809-0.361,3.976-0.722,7.229-0.722
			c3.615,0,5.061,0.722,6.507,1.446c1.083,0.722,1.806,2.167,1.806,3.975c0,2.169-1.444,3.614-3.975,4.336v0.362
			c1.808,0.723,2.893,2.169,3.252,4.338c0.723,2.891,0.723,3.976,1.445,4.699h-4.697c-0.723-0.723-0.723-2.531-1.446-4.339
			c-0.361-2.167-1.446-2.891-3.976-2.891h-2.169v7.229H1000.336z M1000.697,603.798h2.169c2.529,0,4.338-0.721,4.338-2.529
			c0-1.808-1.085-2.892-3.977-2.892c-1.084,0-1.808,0-2.53,0.361V603.798z"/>
	</g>
	<g>
		
			<polyline fill="none" stroke="#FFFFFF" stroke-width="3.7847" stroke-linecap="round" stroke-linejoin="round" stroke-miterlimit="10" points="
			573.118,781.987 392.761,781.627 707.934,1094.991 709.741,999.934 		"/>
		
			<polyline fill="none" stroke="#FFFFFF" stroke-width="3.7847" stroke-linecap="round" stroke-linejoin="round" stroke-miterlimit="10" points="
			574.562,818.13 475.168,818.854 672.15,1011.499 672.875,962.704 		"/>
	</g>
	<g>
		
			<polyline fill="none" stroke="#FFFFFF" stroke-width="3.7847" stroke-linecap="round" stroke-linejoin="round" stroke-miterlimit="10" points="
			901.303,781.987 1081.661,781.627 766.485,1094.991 764.681,999.934 		"/>
		
			<polyline fill="none" stroke="#FFFFFF" stroke-width="3.7847" stroke-linecap="round" stroke-linejoin="round" stroke-miterlimit="10" points="
			899.856,818.13 999.251,818.854 802.268,1011.499 801.546,962.704 		"/>
	</g>
	<g>
		<path fill="#FFFFFF" d="M363.846,568.739c2.169,1.446,3.613,3.254,5.06,5.421c1.446,2.169,1.808,4.7,2.169,7.229
			c0,2.892-0.723,5.782-2.169,9.398c-2.169,4.337-5.06,7.588-8.675,9.396c-3.614,1.808-7.589,2.531-11.565,1.446l1.446-12.651
			c1.446,0.362,2.892,0.362,3.977-0.361c1.083-0.361,2.168-1.446,2.891-2.53c1.084-2.167,1.084-3.614,0-5.06
			c-1.085-1.446-2.891-2.529-5.06-3.614l-33.613-16.264l6.145-12.289l33.613,16.264
			C359.871,565.848,362.038,566.933,363.846,568.739z"/>
		<path fill="#FFFFFF" d="M394.568,518.861c1.806,2.529,2.891,5.06,3.252,7.951c0.362,2.892,0.362,5.783-0.361,9.037
			c-0.723,3.252-2.167,6.145-3.975,9.396c-2.169,3.253-4.337,5.783-6.867,7.59c-2.531,1.808-5.421,3.252-7.953,3.975
			c-2.529,0.723-5.783,0.723-8.673,0c-2.893-0.723-5.783-1.805-8.676-3.613l-29.638-19.157l7.229-11.566l28.915,18.434
			c1.446,0.723,2.531,1.446,3.977,1.808c1.444,0.361,2.891,0.723,3.975,0.361c1.085-0.361,2.531-0.723,3.976-1.446
			c1.446-0.723,2.531-2.169,3.615-3.614c1.083-1.446,1.806-3.254,1.806-4.7c0.361-1.444,0-2.89-0.362-4.336
			c-0.361-1.446-1.083-2.529-2.168-3.614c-1.084-1.085-2.169-2.169-3.253-2.893l-28.915-18.433l7.59-11.566l29.638,19.157
			C390.592,514.163,392.761,516.331,394.568,518.861z"/>
		<path fill="#FFFFFF" d="M435.411,488.5l-11.205-3.977l-14.458,16.628l5.783,10.481l-9.758,11.204l-27.83-54.938l8.674-10.12
			l58.552,19.156L435.411,488.5z M393.845,472.958l10.12,18.072l9.399-10.842L393.845,472.958z"/>
		<path fill="#FFFFFF" d="M474.806,451.272l-41.565-13.012l0,0l24.578,27.833l-10.12,8.673l-37.59-42.65l11.928-10.481
			l41.565,13.013h0.361l-24.578-27.831l10.122-8.675l37.588,42.649L474.806,451.272z"/>
		<path fill="#FFFFFF" d="M545.288,402.84c-2.169,3.254-5.423,6.145-9.76,8.675c-3.614,2.167-7.59,3.614-11.565,4.337
			s-7.591,0.361-11.566-0.362c-3.614-1.084-7.229-2.531-10.481-5.059c-3.254-2.531-5.782-5.421-8.313-9.399
			c-2.169-3.975-3.614-7.95-4.336-11.927c-0.362-3.976-0.362-7.951,0.722-11.565c1.085-3.614,2.891-6.867,5.422-10.12
			c2.53-3.252,5.782-5.783,9.396-7.952c3.616-2.167,7.229-3.252,11.205-3.976c3.977-0.723,7.952-0.361,11.206,0.724l-3.253,12.65
			c-2.167-0.724-3.975-1.084-6.506-0.724c-2.167,0.362-4.337,1.084-6.145,2.17c-2.167,1.082-3.613,2.891-5.06,4.337
			c-1.446,1.807-2.169,3.613-2.53,5.782c-0.36,2.169-0.36,4.337,0,6.506c0.361,2.167,1.084,4.337,2.53,6.506
			c1.446,2.167,2.893,3.975,4.698,5.421c1.808,1.446,3.616,2.529,5.783,2.891c2.169,0.362,3.977,0.723,6.145,0.362
			c2.169-0.362,4.338-1.085,6.145-2.167c2.53-1.446,3.977-2.893,5.421-5.06c1.084-1.808,1.808-3.977,2.17-6.146l12.65,2.893
			C548.902,395.972,547.456,399.226,545.288,402.84z"/>
		<path fill="#FFFFFF" d="M592.275,382.961l-8.314-8.675L563.72,382.6l0.362,11.928l-13.733,5.783v-61.807l12.287-5.06
			l43.735,43.371L592.275,382.961z M562.276,350.432l0.721,20.962l13.373-5.421L562.276,350.432z"/>
		<path fill="#FFFFFF" d="M638.538,368.865l-17.71-18.434l-4.698,1.084l5.783,21.686l-13.013,3.613l-14.819-54.937l20.964-5.421
			c2.529-0.723,5.421-1.084,7.95-1.084c2.531,0,5.062,0.361,7.591,1.084c2.53,0.721,4.336,2.167,6.144,3.975
			c1.807,1.808,2.893,4.337,3.978,7.591c1.082,3.613,0.722,7.229-0.361,10.119c-1.446,3.252-3.616,5.783-6.868,7.591l20.6,19.516
			L638.538,368.865z M628.057,330.913c-0.361-1.446-0.723-2.167-1.808-2.89c-0.723-0.724-1.808-1.085-2.53-1.446
			c-0.724-0.362-2.167-0.362-3.252,0c-1.085,0-2.169,0.361-3.252,0.723l-7.229,1.808l3.252,12.648l6.144-1.806
			c1.085-0.362,2.17-0.723,3.252-1.084c1.085-0.362,2.169-1.085,2.893-1.809c0.723-0.723,1.446-1.444,1.808-2.528
			C628.419,333.444,628.419,332.359,628.057,330.913z"/>
		<path fill="#FFFFFF" d="M659.5,364.167l-8.312-56.385l13.735-2.169l6.504,44.458l21.688-3.252l1.805,11.928L659.5,364.167z"/>
		<path fill="#FFFFFF" d="M756.005,328.385c0,4.336-0.724,8.673-2.17,12.289c-1.443,3.614-3.613,6.866-6.143,9.758
			c-2.531,2.531-5.785,4.698-9.76,6.506c-3.613,1.446-7.953,2.169-12.289,2.529c-4.336,0-8.674-0.36-12.289-1.806
			c-3.975-1.446-7.229-3.254-9.757-5.783c-2.891-2.531-5.06-5.783-6.506-9.398c-1.446-3.613-2.531-7.95-2.531-12.289
			c0-4.698,0.724-8.673,2.17-12.289c1.446-3.614,3.615-6.866,6.144-9.396c2.531-2.53,5.783-4.698,9.76-6.145
			c3.613-1.446,7.95-2.169,12.287-2.169c4.338,0,8.676,0.361,12.289,1.807c3.977,1.446,7.229,3.252,10.121,5.783
			c2.891,2.531,5.061,5.421,6.504,9.037C754.92,319.709,755.643,324.046,756.005,328.385z M741.187,328.746
			c0-2.531-0.361-4.7-1.446-6.868c-0.723-2.169-2.169-3.977-3.614-5.421c-1.445-1.446-3.254-2.531-5.061-3.615
			c-2.168-0.724-4.337-1.083-6.504-1.083c-2.531,0-4.7,0.359-6.507,1.444c-1.808,1.084-3.615,2.169-5.06,3.616
			c-1.446,1.444-2.53,3.252-3.253,5.421c-0.723,2.167-1.085,4.337-1.085,6.867c0,2.529,0.362,5.06,1.446,7.228
			c0.724,2.169,2.17,3.978,3.614,5.421c1.446,1.446,3.254,2.531,5.06,3.616c2.17,0.723,4.338,1.084,6.506,1.084
			c2.531,0,4.697-0.361,6.506-1.446c1.809-1.085,3.615-2.169,5.062-3.616c1.443-1.444,2.528-3.614,3.252-5.782
			C740.825,333.806,741.187,331.275,741.187,328.746z"/>
		<path fill="#FFFFFF" d="M798.293,320.071c-1.085-1.446-2.528-2.891-4.336-3.975c-1.809-1.085-3.616-1.808-5.423-1.808
			c-0.723,0-1.808,0-2.892,0c-1.085,0-1.806,0.362-2.529,0.723c-0.723,0.362-1.446,0.723-2.169,1.446
			c-0.724,0.723-1.085,1.444-1.085,2.529c0,1.085,0,1.808,0.361,2.531c0.362,0.723,0.724,1.446,1.446,1.808
			c0.724,0.362,1.446,1.083,2.531,1.806c1.082,0.361,2.167,1.084,3.613,1.808c1.807,0.723,3.614,1.808,5.782,2.891
			c1.809,1.084,3.614,2.169,5.422,3.615c1.446,1.446,2.892,3.252,3.613,5.06c0.725,2.169,1.086,4.337,0.725,7.229
			c-0.363,3.252-1.446,6.145-2.892,8.312c-1.446,2.17-3.254,3.978-5.421,5.422c-2.169,1.446-4.7,2.169-7.229,2.531
			c-2.531,0.361-5.421,0.361-8.313,0.361c-3.976-0.361-7.95-1.807-11.566-3.613c-3.612-1.808-6.505-4.339-8.673-7.229l10.119-7.952
			c1.085,1.808,2.893,3.616,5.06,5.06c2.17,1.446,4.338,2.169,6.507,2.531c1.085,0,2.169,0,2.893,0c1.082,0,1.806-0.362,2.528-0.723
			c0.723-0.362,1.446-1.084,1.808-1.808c0.361-0.723,0.724-1.806,1.083-2.89c0-1.085,0-2.169-0.359-2.893
			c-0.362-0.723-1.085-1.444-2.17-2.167c-1.084-0.723-2.169-1.446-3.613-2.169c-1.446-0.723-2.893-1.446-4.7-2.169
			c-1.806-0.723-3.251-1.806-5.061-2.529c-1.805-0.723-2.89-2.169-4.336-3.615c-1.085-1.444-2.169-2.891-2.893-5.06
			c-0.723-1.806-0.723-3.976-0.361-6.506c0.361-3.252,1.446-5.783,2.893-7.95c1.446-2.169,3.254-3.616,5.782-5.062
			c2.17-1.083,4.699-1.806,7.229-2.167c2.531-0.362,5.421-0.362,7.951,0c3.254,0.362,6.505,1.446,9.397,2.891
			c3.252,1.446,5.784,3.616,7.952,6.145L798.293,320.071z"/>
		<path fill="#FFFFFF" d="M877.086,382.961l12.65-38.313h-0.361l-26.385,33.613l-9.035-2.89l-1.446-42.65h-0.361l-11.928,38.313
			l-12.289-3.977l17.349-54.216l18.434,6.144l1.085,38.675h0.36l23.133-30.722l18.795,6.145l-17.35,54.215L877.086,382.961z"/>
		<path fill="#FFFFFF" d="M898.41,392.358l23.855-51.685l12.65,5.783l-23.855,51.686L898.41,392.358z"/>
		<path fill="#FFFFFF" d="M946.844,417.659l0.722-25.663l-3.975-2.531l-11.206,19.519l-11.565-6.868l28.556-49.156l18.792,10.844
			c2.531,1.444,4.339,2.891,6.508,4.699c1.807,1.808,3.614,3.613,4.699,6.145c1.082,2.167,1.806,4.698,1.443,7.229
			c0,2.529-0.723,5.06-2.528,7.951c-1.808,3.254-4.337,5.421-7.591,6.868c-3.252,1.084-6.506,1.446-10.481,0.361l0.723,28.553
			L946.844,417.659z M966.361,383.321c0.724-1.083,1.085-2.167,1.085-3.252c0-1.084-0.361-1.808-1.085-2.893
			c-0.361-0.721-1.084-1.444-2.169-2.167c-0.723-0.723-1.807-1.446-2.529-1.807l-6.506-3.614l-6.507,11.566l5.783,3.252
			c1.085,0.723,2.169,1.084,3.252,1.446c1.085,0.361,2.169,0.723,3.254,0.723s2.17,0,3.253-0.723
			C964.915,385.491,965.639,384.768,966.361,383.321z"/>
		<path fill="#FFFFFF" d="M995.276,452.357l3.254-11.566l-17.351-13.373l-10.12,6.145l-11.928-9.035l53.854-30.361l10.481,8.312
			l-16.264,59.276L995.276,452.357z M1008.65,410.431l-17.71,10.842l11.203,8.675L1008.65,410.431z"/>
		<path fill="#FFFFFF" d="M1034.312,489.947l10.843-42.288l0,0l-26.747,26.022l-9.396-9.758l41.204-39.396l10.843,11.205
			l-10.843,42.288l0,0l26.383-26.024l9.398,9.758l-41.204,39.398L1034.312,489.947z"/>
		<path fill="#FFFFFF" d="M1105.153,535.849c-3.978,2.89-7.952,4.698-12.288,5.06c-3.979,0.723-7.953,0.362-11.566-0.723
			c-3.615-1.084-6.868-2.89-10.122-5.421c-3.251-2.531-5.782-5.421-7.95-8.314l-12.288-17.349l46.263-32.89l11.928,16.625
			c2.167,3.252,4.337,6.868,5.782,10.481c1.447,3.615,2.17,7.591,2.17,11.204c0,3.616-1.085,7.592-2.893,11.207
			C1112.742,529.343,1109.491,532.595,1105.153,535.849z M1096.84,523.921c2.528-1.807,4.336-3.977,5.784-5.783
			c1.083-2.169,1.808-4.337,1.808-6.505c0-2.169-0.363-4.337-1.086-6.506c-0.722-2.169-1.807-3.975-3.254-6.145l-3.976-5.421
			l-27.106,19.156l3.613,5.421c1.446,2.167,2.891,3.614,4.699,5.422c1.808,1.807,3.615,2.53,5.782,3.251
			c2.169,0.723,4.339,0.723,6.507,0.361C1091.779,526.812,1094.311,525.729,1096.84,523.921z"/>
		<path fill="#FFFFFF" d="M1101.899,591.149l7.952-9.037l-10.12-19.518l-11.928,1.446l-6.866-13.374l61.444-4.698l6.143,11.927
			l-39.757,46.987L1101.899,591.149z M1131.898,558.619l-20.603,2.531l6.508,12.651L1131.898,558.619z"/>
	</g>
	<g>
		<path fill="#FFFFFF" d="M337.099,957.645l12.65-31.083l0,0l-22.77,12.65l-6.505-11.566l49.517-27.83l6.506,11.566l-20.241,11.204
			v0.361l29.999,6.507l8.313,15.179l-34.698-8.674l-14.096,37.588L337.099,957.645z"/>
		<path fill="#FFFFFF" d="M372.52,1009.691l16.266-40.48v-0.361l-29.638,22.41l-7.952-10.845l45.541-33.975l9.398,12.65
			l-16.264,40.481v0.361l29.638-22.409l7.95,10.843l-45.54,33.976L372.52,1009.691z"/>
		<path fill="#FFFFFF" d="M392.038,1033.547l42.288-38.312l9.397,10.12l-42.287,38.312L392.038,1033.547z"/>
		<path fill="#FFFFFF" d="M441.917,1082.702c-3.254-1.808-6.868-4.336-10.122-7.229c-3.252-2.891-6.143-6.507-7.951-10.12
			c-1.807-3.614-2.892-7.229-3.253-11.204c-0.361-3.614,0.362-7.592,1.446-11.204c1.085-3.616,3.615-7.229,6.506-10.481
			c2.893-3.254,6.506-5.783,10.12-7.591c3.616-1.808,7.229-2.53,11.207-2.53c3.975,0,7.589,0.723,11.204,2.169
			c3.614,1.446,7.228,3.613,10.481,6.506c3.252,2.891,6.145,6.144,7.951,9.758c1.808,3.615,2.893,7.229,3.254,10.481l-13.012,1.446
			c0-2.168-0.362-4.337-1.446-6.507c-1.083-2.167-2.529-4.336-4.698-6.144c-1.807-1.445-3.614-2.892-5.783-3.613
			c-2.169-0.724-4.337-1.085-6.506-0.724c-2.167,0.362-4.337,0.724-6.506,1.807c-2.167,1.085-3.975,2.53-5.783,4.338
			c-1.806,1.808-3.252,3.975-3.976,6.144c-1.084,2.17-1.446,4.338-1.446,6.507c0,2.167,0.723,4.337,1.446,6.506
			c1.085,2.168,2.531,3.976,4.698,5.783c1.085,1.085,2.531,2.167,3.614,2.891c1.085,0.723,2.531,1.446,3.616,1.808l6.868-7.591
			l-7.952-7.229l7.59-8.312l17.349,15.541l-20.241,22.411C448.423,1085.595,445.168,1084.51,441.917,1082.702z"/>
		<path fill="#FFFFFF" d="M492.155,1118.846l13.012-19.88l-18.433-12.286l-13.01,19.878l-11.566-7.592l31.444-47.348l11.565,7.591
			l-11.927,18.071l18.433,12.289l11.928-18.071l11.566,7.59l-31.445,47.349L492.155,1118.846z"/>
		<path fill="#FFFFFF" d="M559.745,1104.028l-19.518,40.48l-12.289-6.145l19.518-40.48l-14.457-6.868l5.06-10.481l41.204,19.878
			l-5.06,10.484L559.745,1104.028z"/>
		<path fill="#FFFFFF" d="M606.37,1125.714c-0.724-1.808-1.807-3.614-3.253-5.061s-3.253-2.529-4.698-2.893
			c-0.723-0.361-1.808-0.361-2.531-0.722c-1.085,0-1.808,0-2.529,0c-0.723,0-1.808,0.36-2.531,1.085
			c-0.723,0.361-1.084,1.444-1.808,2.529c-0.362,1.085-0.362,1.807-0.362,2.529c0,0.724,0.362,1.446,1.085,2.17
			c0.723,0.723,1.446,1.446,2.169,2.169c0.723,0.721,1.808,1.444,2.891,2.528c1.446,1.085,3.254,2.531,5.06,3.976
			c1.807,1.446,3.253,2.893,4.339,4.701c1.083,1.805,2.167,3.612,2.529,5.782c0.361,2.168,0.361,4.697-0.723,7.228
			c-1.084,3.254-2.53,5.423-4.338,7.229c-1.807,1.808-3.975,3.254-6.505,3.976c-2.529,0.723-5.06,1.085-7.591,1.085
			c-2.891,0-5.421-0.724-7.951-1.446c-3.977-1.445-7.229-3.253-10.48-5.784c-3.255-2.528-5.424-5.421-6.868-8.672l11.565-5.784
			c0.723,2.17,2.167,3.975,3.613,5.784c1.808,1.808,3.616,3.251,5.783,3.975c1.084,0.361,1.808,0.723,2.893,0.723
			c1.083,0,1.806,0,2.891,0c0.723-0.361,1.446-0.723,2.169-1.084c0.723-0.724,1.085-1.446,1.446-2.53
			c0.362-1.083,0.362-1.807,0-2.893c-0.361-0.722-0.723-1.805-1.446-2.528c-0.723-0.723-1.808-1.808-2.892-2.893
			c-1.085-1.084-2.529-2.169-4.337-3.251c-1.446-1.085-2.891-2.531-4.337-3.616c-1.446-1.446-2.531-2.891-3.254-4.337
			c-0.723-1.808-1.444-3.615-1.444-5.421c-0.361-1.808,0-4.337,1.083-6.507c1.085-2.893,2.531-5.421,4.339-6.867
			c1.808-1.808,3.975-2.89,6.506-3.613c2.529-0.723,5.06-0.723,7.589-0.723c2.531,0,5.421,0.723,7.953,1.806
			c2.891,1.084,5.783,2.53,8.675,5.062c2.89,2.168,5.06,4.699,6.506,7.95L606.37,1125.714z"/>
		<path fill="#FFFFFF" d="M697.452,1158.244c-0.723,4.336-2.169,8.312-4.336,11.928c-2.17,3.251-4.699,6.143-7.953,8.312
			c-3.254,2.168-6.867,3.613-10.842,4.336c-3.978,0.724-8.314,0.724-12.65,0.362c-4.337-0.724-8.314-2.167-11.928-3.975
			c-3.616-1.81-6.506-4.699-8.676-7.592c-2.166-2.89-3.975-6.506-4.697-10.481c-0.724-3.975-1.085-7.952-0.361-12.649
			c0.723-4.338,2.169-8.313,4.339-11.928c2.167-3.253,4.697-6.146,7.95-8.312c3.253-2.17,6.506-3.616,10.481-4.339
			c3.977-0.724,7.952-0.724,12.65,0c4.338,0.723,8.314,2.169,11.927,3.977c3.615,1.806,6.507,4.337,8.675,7.589
			c2.167,3.255,3.975,6.506,5.06,10.122C698.176,1149.569,698.176,1153.905,697.452,1158.244z M682.995,1156.074
			c0.361-2.53,0.361-4.698,0-6.868c-0.363-2.168-1.084-4.336-2.53-5.782c-1.083-1.808-2.53-3.253-4.336-4.336
			c-1.807-1.085-3.978-1.81-6.506-2.531c-2.53-0.361-4.698-0.361-6.868,0.361c-2.169,0.724-3.977,1.446-5.783,2.891
			c-1.808,1.446-2.893,2.893-4.336,5.062c-1.085,2.168-1.809,4.336-2.17,6.506c-0.361,2.529-0.361,5.061,0,7.229
			s1.085,4.337,2.529,6.144c1.085,1.808,2.531,3.254,4.339,4.339c1.806,1.085,3.975,1.806,6.145,2.167
			c2.529,0.361,4.698,0.361,6.865-0.361c2.17-0.721,3.978-1.444,5.785-2.891c1.807-1.446,3.253-2.893,4.336-5.061
			C681.911,1160.772,682.632,1158.604,682.995,1156.074z"/>
		<path fill="#FFFFFF" d="M721.669,1142.701l-0.361,11.565l22.046,1.085l-0.36,11.204l-22.047-1.084l-1.085,22.048l-13.735-0.723
			l2.53-56.747l37.229,1.809l-0.361,11.565L721.669,1142.701z"/>
		<path fill="#FFFFFF" d="M817.811,1182.458c-3.615,2.17-7.59,3.254-12.289,3.978c-4.336,0.361-8.313,0.361-12.288-0.724
			c-3.976-1.084-7.229-2.893-10.12-5.061c-2.893-2.168-5.422-5.42-7.591-8.675c-1.808-3.612-3.252-7.59-3.613-11.928
			c-0.361-4.697,0-8.675,1.082-12.649c1.085-3.976,2.893-7.229,5.422-10.121c2.531-2.891,5.424-5.059,9.037-6.867
			c3.614-1.808,7.591-2.89,11.928-3.254c3.976-0.358,7.951,0,11.927,0.724c3.977,1.085,7.229,2.53,10.12,5.062l-8.314,10.12
			c-1.443-1.446-3.252-2.893-5.419-3.254c-2.17-0.724-4.338-0.724-6.506-0.724c-2.531,0.361-4.699,1.085-6.506,2.17
			c-1.808,1.084-3.615,2.53-4.7,4.337c-1.445,1.808-2.168,3.614-2.892,5.782c-0.723,2.17-0.723,4.7-0.361,6.867
			c0.361,2.531,1.085,4.699,1.808,6.868c1.084,2.17,2.168,3.616,3.977,5.06c1.808,1.446,3.254,2.531,5.421,2.893
			c2.169,0.361,4.336,0.723,6.505,0.723c2.893-0.361,5.061-1.084,6.868-2.53c1.809-1.446,3.252-2.89,4.337-4.698l10.481,7.952
			C824.317,1177.761,821.425,1180.29,817.811,1182.458z"/>
		<path fill="#FFFFFF" d="M887.206,1137.642c1.085,4.336,1.446,8.675,1.085,12.649c-0.362,3.976-1.809,7.592-3.616,10.843
			c-1.806,3.253-4.697,6.146-7.95,8.314c-3.253,2.528-7.229,3.975-11.566,5.421c-4.338,1.445-8.313,1.445-12.288,1.083
			c-3.977-0.359-7.591-1.444-11.204-3.252c-3.254-1.808-6.145-4.336-8.675-7.591c-2.53-3.252-4.338-6.868-5.422-11.204
			c-1.085-4.336-1.446-8.674-1.085-12.65c0.723-3.977,1.808-7.589,3.977-10.844c2.168-3.251,4.699-5.782,7.951-8.312
			c3.254-2.169,7.229-3.976,11.204-5.061c4.339-1.083,8.313-1.445,12.65-1.083c3.978,0.358,7.591,1.443,11.205,3.251
			c3.253,1.808,6.146,4.337,8.675,7.229C884.315,1129.688,886.121,1133.304,887.206,1137.642z M873.11,1141.616
			c-0.722-2.528-1.445-4.338-2.892-6.506c-1.446-1.807-2.89-3.252-4.697-4.337c-1.809-1.085-3.616-1.808-5.784-2.167
			c-2.169-0.361-4.336-0.361-6.867,0.359c-2.169,0.723-4.337,1.445-6.144,2.893c-1.808,1.445-2.892,2.891-3.976,4.698
			c-1.085,1.808-1.446,3.975-1.809,6.145c-0.361,2.169,0,4.698,0.724,6.868c0.723,2.529,1.808,4.697,2.89,6.505
			c1.446,1.809,2.893,3.252,4.699,4.698c1.808,1.446,3.615,1.808,5.785,2.169c2.167,0.362,4.336,0.362,6.865-0.361
			c2.17-0.723,4.339-1.446,6.145-2.893c1.808-1.443,2.893-2.89,3.977-4.697c1.084-1.809,1.445-3.975,1.807-6.146
			C874.193,1146.677,873.833,1144.146,873.11,1141.616z"/>
		<path fill="#FFFFFF" d="M907.81,1159.688l-22.411-52.045l12.65-5.422l17.711,41.203l20.241-8.675l4.697,10.845L907.81,1159.688z"
			/>
		<path fill="#FFFFFF" d="M982.625,1107.28c0.362,2.892,0.362,5.783-0.723,8.676c-1.085,2.89-2.17,5.422-4.336,7.95
			c-2.17,2.53-4.699,4.697-7.953,6.505c-3.252,1.809-6.506,3.255-9.396,3.616c-3.254,0.722-6.145,0.36-9.037,0
			c-2.891-0.361-5.422-1.808-7.95-3.616c-2.531-1.808-4.339-4.336-6.144-7.229l-18.073-30.36l11.566-6.866l17.71,29.276
			c0.723,1.443,1.808,2.528,2.891,3.613c1.085,1.085,2.17,1.808,3.616,2.169c1.443,0.363,2.528,0.724,4.336,0.724
			c1.446,0,3.253-0.724,4.699-1.808c1.808-1.085,2.892-2.17,3.613-3.255c0.723-1.083,1.445-2.528,1.445-3.975
			c0-1.445,0-2.89-0.361-3.976c-0.361-1.083-1.084-2.893-1.806-3.976l-17.711-29.276l11.928-6.868l18.07,30.36
			C981.18,1101.497,982.264,1104.39,982.625,1107.28z"/>
		<path fill="#FFFFFF" d="M1043.709,1073.667l-26.023-30.722h-0.363l15.182,40.118l-7.229,6.145l-37.228-20.962h-0.363
			l26.387,30.361l-9.76,8.312l-36.865-43.012l14.817-12.649l33.613,19.155l0.361-0.361l-14.456-35.783l15.18-13.011l37.229,43.012
			L1043.709,1073.667z"/>
		<path fill="#FFFFFF" d="M1081.661,1007.885c2.528,2.168,3.975,4.338,4.697,6.507c0.724,2.167,1.083,4.698,0.724,6.866
			c-0.361,2.53-1.085,4.7-2.531,7.229c-1.446,2.169-2.89,4.699-4.697,6.507l-14.82,16.987l-43.011-37.228l14.819-16.989
			c1.446-1.805,2.892-3.251,5.059-4.697c1.809-1.446,3.616-2.529,5.784-3.253c2.169-0.723,4.336-0.723,6.506-0.723
			c2.169,0.361,4.338,1.446,6.505,3.252c2.531,2.17,3.976,4.339,4.338,7.229c0.361,2.53,0,5.422-1.085,7.951l0,0
			c1.085-1.083,2.53-1.808,3.978-2.529c1.445-0.724,2.89-1.085,4.336-1.085s2.893,0,4.699,0.722
			C1078.769,1005.716,1080.215,1006.802,1081.661,1007.885z M1053.467,1004.271c-1.446-1.083-2.89-1.444-4.699-1.083
			c-1.807,0.361-3.251,1.807-5.42,3.975l-4.337,5.061l9.035,7.59l4.697-5.421c1.809-1.808,2.531-3.977,2.893-5.422
			C1055.636,1006.802,1054.913,1005.355,1053.467,1004.271z M1071.538,1017.282c-1.805-1.446-3.612-1.807-5.42-1.085
			c-1.809,0.723-3.615,2.169-5.784,4.339l-4.698,5.783l9.759,8.312l5.062-5.784c0.721-0.723,1.444-1.805,1.806-2.528
			c0.361-0.723,1.085-2.169,1.446-2.893c0.361-1.084,0.361-2.169,0-2.891C1073.347,1019.451,1072.623,1018.366,1071.538,1017.282z"
			/>
		<path fill="#FFFFFF" d="M1117.804,962.704c1.807,2.532,2.892,5.061,3.253,7.953c0.361,2.89,0.361,5.782-0.361,9.035
			c-0.724,3.254-2.17,6.145-4.337,9.398c-2.17,3.252-4.34,5.783-6.867,7.591c-2.531,1.806-5.423,3.252-8.315,3.613
			c-2.89,0.723-5.782,0.723-8.672,0c-2.893-0.723-5.783-1.808-8.676-3.975l-29.276-19.519l7.59-11.205l28.555,19.157
			c1.444,0.721,2.529,1.444,3.975,1.806s2.893,0.723,3.977,0.723c1.085,0,2.528-0.361,3.977-1.445
			c1.444-0.722,2.529-1.806,3.614-3.613c1.083-1.446,1.806-3.253,1.806-4.699c0.362-1.446,0-2.893-0.361-4.336
			c-0.361-1.446-1.083-2.531-2.168-3.616c-1.083-1.084-2.169-2.168-3.254-2.89l-28.553-19.157l7.591-11.566l29.276,19.519
			C1113.827,958.007,1116.358,960.176,1117.804,962.704z"/>
		<path fill="#FFFFFF" d="M1112.381,908.851c-1.806,0.361-3.613,1.085-5.421,2.531c-1.807,1.446-2.892,2.891-3.614,4.337
			c-0.362,0.723-0.722,1.808-1.085,2.53c-0.361,0.724-0.361,1.808-0.361,2.529c0,0.724,0.361,1.808,0.725,2.531
			c0.359,0.723,1.083,1.446,2.168,1.808c0.723,0.361,1.808,0.723,2.529,0.723c0.723,0,1.446-0.361,2.17-0.723
			c0.723-0.361,1.445-1.085,2.527-1.808c1.085-0.724,1.809-1.808,2.893-2.531c1.447-1.444,2.893-2.891,4.699-4.337
			c1.808-1.446,3.253-2.891,5.421-3.613c1.808-1.085,3.978-1.446,6.146-1.446s4.697,0.361,7.229,1.808
			c2.893,1.444,5.06,3.252,6.867,5.422c1.446,2.167,2.529,4.336,2.891,6.867c0.361,2.529,0.361,5.06,0,7.95
			c-0.361,2.53-1.444,5.421-2.529,7.591c-1.808,3.613-4.336,6.867-7.229,9.396c-2.893,2.531-6.146,4.7-9.759,5.785l-3.977-12.289
			c2.169-0.361,4.339-1.446,6.507-2.893s3.614-3.252,4.697-5.422c0.362-0.723,0.724-1.807,1.085-2.891s0.361-1.808,0.361-2.893
			c0-0.723-0.361-1.807-1.084-2.53c-0.362-0.723-1.445-1.444-2.167-1.806c-1.085-0.361-1.81-0.723-2.893-0.361
			s-1.807,0.361-2.892,1.085c-1.084,0.721-2.169,1.443-3.254,2.528c-1.085,1.084-2.528,2.169-3.613,3.616
			c-1.446,1.444-2.891,2.528-4.337,3.975c-1.446,1.084-3.254,2.169-4.7,2.891c-1.444,0.723-3.613,1.084-5.421,0.723
			c-1.807,0-3.977-0.723-6.507-1.806c-2.89-1.446-5.06-3.254-6.503-5.422c-1.446-2.169-2.171-4.338-2.532-6.867
			c-0.36-2.53-0.36-5.06,0.361-7.591c0.725-2.53,1.446-5.06,2.892-7.591c1.445-2.891,3.615-5.421,6.144-7.952
			c2.531-2.528,5.424-4.337,8.677-5.421L1112.381,908.851z"/>
	</g>
	<g>
		<circle fill="none" stroke="#FFFFFF" stroke-width="4.5418" stroke-miterlimit="10" cx="734.681" cy="744.759" r="468.422"/>
		<path fill="none" stroke="#FFFFFF" stroke-width="4.5418" stroke-miterlimit="10" d="M1241.054,744.759
			c0-149.273-64.697-283.367-167.346-376.255V27.307H420.229v320.234C303.125,440.43,227.946,583.559,227.946,744.759
			c0,161.201,75.178,304.33,192.283,397.219v330.716h653.479v-351.679C1176.718,1028.125,1241.054,894.032,1241.054,744.759z"/>
	</g>
	<g>
		<path fill="#FFFFFF" d="M564.805,1355.225h-48.071c0.723-4.697,2.169-9.035,5.06-13.371c2.893-4.339,7.953-9.036,15.543-14.82
			c4.698-3.614,7.591-6.144,9.035-7.951c1.446-1.807,1.808-3.614,1.808-5.061c0-1.806-0.723-3.252-1.808-4.337
			c-1.444-1.084-2.891-1.808-5.06-1.808s-3.614,0.724-5.06,1.808c-1.446,1.446-2.169,3.613-2.529,6.867l-15.904-1.446
			c0.723-4.336,1.808-7.951,3.616-10.479c1.806-2.532,3.975-4.338,7.227-5.784c2.893-1.446,7.229-2.169,12.651-2.169
			c5.783,0,10.12,0.723,13.012,1.808c3.254,1.446,5.421,3.254,7.229,5.782c1.807,2.529,2.53,5.784,2.53,9.035
			c0,3.616-1.084,6.868-3.252,10.121c-2.169,3.253-5.783,6.868-11.205,10.481c-3.254,2.171-5.421,3.614-6.506,4.699
			c-1.084,0.723-2.531,2.169-3.977,3.615h24.94v13.01H564.805L564.805,1355.225z"/>
		<path fill="#FFFFFF" d="M571.672,1325.949c0-10.844,1.808-18.433,5.783-22.771c3.978-4.337,9.758-6.506,18.072-6.506
			c3.975,0,6.868,0.361,9.398,1.446c2.529,1.084,4.338,2.169,6.143,3.615c1.809,1.444,2.893,3.252,3.616,4.698
			c0.723,1.806,1.808,3.614,2.169,5.783c1.083,4.336,1.445,8.674,1.445,13.374c0,10.481-1.806,18.069-5.421,22.77
			c-3.614,4.698-9.759,7.228-18.073,7.228c-4.698,0-8.673-0.721-11.566-2.167c-2.891-1.446-5.421-3.977-7.229-6.868
			c-1.444-2.17-2.529-5.06-3.252-8.676C572.033,1334.624,571.672,1330.649,571.672,1325.949z M587.575,1325.949
			c0,7.229,0.723,12.289,1.808,14.819c1.446,2.528,3.254,3.975,5.783,3.975c1.446,0,2.892-0.723,4.336-1.808
			c1.446-1.082,2.169-2.89,2.531-5.421c0.362-2.529,0.723-6.144,0.723-11.565c0-7.589-0.723-12.651-1.808-15.541
			c-1.446-2.531-3.252-3.976-5.783-3.976c-2.529,0-4.698,1.444-5.783,3.976C587.936,1314.021,587.575,1318.722,587.575,1325.949z"/>
		<path fill="#FFFFFF" d="M625.165,1325.949c0-10.844,1.808-18.433,5.783-22.771c3.975-4.337,9.76-6.506,18.071-6.506
			c3.978,0,6.868,0.361,9.396,1.446c2.531,1.084,4.339,2.169,6.146,3.615c1.807,1.444,2.892,3.252,3.614,4.698
			c0.724,1.806,1.809,3.614,2.167,5.783c1.085,4.336,1.446,8.674,1.446,13.374c0,10.481-1.805,18.069-5.421,22.77
			c-3.614,4.698-9.758,7.228-18.071,7.228c-4.699,0-8.674-0.721-11.566-2.167c-2.89-1.446-5.421-3.977-7.229-6.868
			c-1.445-2.17-2.529-5.06-3.252-8.676C625.526,1334.624,625.165,1330.649,625.165,1325.949z M641.066,1325.949
			c0,7.229,0.724,12.289,1.809,14.819c1.446,2.528,3.251,3.975,5.782,3.975c1.446,0,2.893-0.723,4.339-1.808
			c1.444-1.082,2.167-2.89,2.529-5.421c0.361-2.529,0.724-6.144,0.724-11.565c0-7.589-0.724-12.651-1.809-15.541
			c-1.444-2.531-3.251-3.976-5.783-3.976c-2.529,0-4.699,1.444-5.782,3.976C641.429,1314.021,641.066,1318.722,641.066,1325.949z"/>
		<path fill="#FFFFFF" d="M688.417,1324.144c-2.531-1.446-4.339-2.893-5.422-4.339c-1.445-2.168-2.53-4.699-2.53-7.589
			c0-4.699,2.167-8.676,6.868-11.928c3.614-2.53,8.312-3.615,14.095-3.615c7.591,0,13.374,1.446,16.988,4.339
			c3.615,2.89,5.422,6.505,5.422,11.204c0,2.528-0.723,5.06-2.168,7.228c-1.085,1.808-2.893,3.254-5.061,4.7
			c3.253,1.446,5.422,3.613,6.867,5.782c1.445,2.528,2.168,5.06,2.168,8.312c0,2.893-0.723,5.421-1.807,7.951
			c-1.083,2.531-2.891,4.338-4.7,5.784c-1.805,1.446-4.336,2.53-7.226,2.89c-2.893,0.724-5.785,1.085-9.038,1.085
			c-6.144,0-10.843-0.724-14.095-2.167c-3.254-1.446-5.784-3.616-7.229-6.507c-1.807-2.893-2.531-5.782-2.531-9.398
			c0-3.252,0.724-6.144,2.531-8.673C682.632,1327.396,685.163,1325.587,688.417,1324.144z M694.56,1337.515
			c0,2.531,0.724,4.7,2.17,6.145c1.446,1.446,3.254,2.53,5.421,2.53c1.808,0,3.615-0.723,5.059-2.53
			c1.446-1.806,2.17-3.613,2.17-6.145c0-2.529-0.724-4.697-2.17-6.144c-1.444-1.445-3.251-2.53-5.422-2.53
			c-1.805,0-3.612,0.724-5.059,2.53C695.283,1332.817,694.56,1334.985,694.56,1337.515z M695.645,1312.938
			c0,1.806,0.723,3.613,1.808,4.698c1.085,1.083,2.893,1.807,5.06,1.807c1.808,0,3.252-0.724,4.336-1.807
			c1.085-1.085,1.808-2.893,1.808-4.698c0-1.808-0.723-3.615-1.808-4.7c-1.083-1.084-2.89-1.806-4.698-1.806
			c-1.806,0-3.614,0.722-4.699,1.806C696.006,1309.323,695.645,1310.77,695.645,1312.938z"/>
		<path fill="#FFFFFF" d="M730.704,1327.757h23.131v12.289h-23.131V1327.757z"/>
		<path fill="#FFFFFF" d="M805.883,1355.225h-48.07c0.723-4.697,2.169-9.035,5.061-13.371c2.89-4.339,7.951-9.036,15.54-14.82
			c4.7-3.614,7.591-6.144,9.037-7.951c1.446-1.807,1.806-3.614,1.806-5.061c0-1.806-0.722-3.252-1.806-4.337
			c-1.446-1.084-2.893-1.808-5.06-1.808c-2.17,0-3.615,0.724-5.062,1.808c-1.445,1.446-2.167,3.613-2.53,6.867l-15.902-1.446
			c0.724-4.336,1.807-7.951,3.613-10.479c1.81-2.532,3.976-4.338,7.23-5.784c2.891-1.446,7.229-2.169,12.65-2.169
			c5.782,0,10.12,0.723,13.012,1.808c3.252,1.446,5.422,3.254,7.227,5.782c1.808,2.529,2.531,5.784,2.531,9.035
			c0,3.616-1.084,6.868-3.253,10.121c-2.168,3.253-5.781,6.868-11.205,10.481c-3.252,2.171-5.422,3.614-6.504,4.699
			c-1.085,0.723-2.531,2.169-3.978,3.615h24.939v13.01H805.883L805.883,1355.225z"/>
		<path fill="#FFFFFF" d="M812.39,1325.949c0-10.844,1.806-18.433,5.782-22.771c3.977-4.337,9.759-6.506,18.073-6.506
			c3.975,0,6.867,0.361,9.396,1.446c2.531,1.084,4.337,2.169,6.146,3.615c1.808,1.444,2.892,3.252,3.615,4.698
			c0.723,1.806,1.806,3.614,2.167,5.783c1.085,4.336,1.446,8.674,1.446,13.374c0,10.481-1.808,18.069-5.421,22.77
			c-3.616,4.698-9.759,7.228-18.072,7.228c-4.698,0-8.676-0.721-11.565-2.167c-2.893-1.446-5.422-3.977-7.23-6.868
			c-1.444-2.17-2.53-5.06-3.254-8.676C812.751,1334.624,812.39,1330.649,812.39,1325.949z M828.292,1325.949
			c0,7.229,0.724,12.289,1.808,14.819c1.446,2.528,3.253,3.975,5.784,3.975c1.443,0,2.89-0.723,4.336-1.808
			c1.446-1.082,2.169-2.89,2.531-5.421c0.361-2.529,0.723-6.144,0.723-11.565c0-7.589-0.723-12.651-1.808-15.541
			c-1.446-2.531-3.254-3.976-5.782-3.976c-2.531,0-4.699,1.444-5.784,3.976C829.016,1314.021,828.292,1318.722,828.292,1325.949z"/>
		<path fill="#FFFFFF" d="M866.244,1325.949c0-10.844,1.806-18.433,5.782-22.771c3.975-4.337,9.759-6.506,18.072-6.506
			c3.976,0,6.865,0.361,9.396,1.446c2.531,1.084,4.339,2.169,6.144,3.615c1.81,1.444,2.893,3.252,3.614,4.698
			c0.724,1.806,1.808,3.614,2.17,5.783c1.084,4.336,1.446,8.674,1.446,13.374c0,10.481-1.809,18.069-5.421,22.77
			c-3.614,4.698-9.761,7.228-18.073,7.228c-4.697,0-8.675-0.721-11.564-2.167c-2.893-1.446-5.422-3.977-7.23-6.868
			c-1.446-2.17-2.53-5.06-3.251-8.676C866.605,1334.624,866.244,1330.649,866.244,1325.949z M881.785,1325.949
			c0,7.229,0.723,12.289,1.808,14.819c1.443,2.528,3.253,3.975,5.782,3.975c1.446,0,2.892-0.723,4.338-1.808
			c1.446-1.082,2.169-2.89,2.53-5.421c0.36-2.529,0.721-6.144,0.721-11.565c0-7.589-0.721-12.651-1.805-15.541
			c-1.446-2.531-3.253-3.976-5.784-3.976c-2.529,0-4.697,1.444-5.782,3.976C882.508,1314.021,881.785,1318.722,881.785,1325.949z"/>
		<path fill="#FFFFFF" d="M920.459,1342.215l15.903-2.169c0.361,2.169,1.085,3.613,2.17,4.697c1.082,1.085,2.166,1.446,3.612,1.446
			c2.53,0,4.699-1.446,6.145-3.975c1.086-1.808,1.808-5.783,2.531-12.289c-1.809,1.807-3.977,3.253-5.784,4.338
			c-2.168,1.083-4.338,1.444-6.866,1.444c-5.062,0-9.398-1.808-13.012-5.421c-3.616-3.612-5.422-8.313-5.422-13.735
			c0-3.975,0.723-7.229,2.529-10.481c1.808-3.254,4.339-5.421,7.59-7.229c3.253-1.446,7.23-2.53,11.928-2.53
			c5.782,0,10.481,1.084,13.735,2.892c3.613,1.809,6.145,5.06,8.312,9.397c2.169,4.338,3.254,10.121,3.254,16.989
			c0,10.481-2.17,18.069-6.507,22.77c-4.339,4.698-10.481,7.228-18.071,7.228c-4.698,0-8.313-0.359-10.843-1.444
			c-2.531-1.085-4.698-2.531-6.506-4.699C922.627,1347.636,921.181,1345.105,920.459,1342.215z M949.736,1316.552
			c0-3.254-0.725-5.421-2.531-7.229c-1.447-1.808-3.614-2.531-5.783-2.531c-2.167,0-3.975,0.724-5.421,2.531
			c-1.446,1.446-2.17,3.975-2.17,7.229c0,3.253,0.724,5.784,2.17,7.23c1.446,1.805,3.254,2.528,5.421,2.528
			c2.169,0,3.976-0.724,5.783-2.528C949.012,1321.974,949.736,1319.443,949.736,1316.552z"/>
	</g>
	<g>
		<path fill="#FFFFFF" d="M444.446,107.908h11.204v28.553c3.616-5.783,11.567-20.242,16.989-28.553h13.372l-16.626,24.938
			l16.988,39.036h-12.649l-11.928-29.276l-5.784,7.95v21.326h-11.205L444.446,107.908L444.446,107.908z"/>
		<path fill="#FFFFFF" d="M489.265,138.267c0-10.12,0-12.649,0-15.18h10.842c0,1.085,0.361,3.252,0.361,5.06
			c1.446-2.529,4.337-6.145,10.843-6.145c7.953,0,12.651,5.06,12.651,14.82v35.059h-11.205v-32.53c0-4.698-1.084-7.95-5.421-7.95
			c-4.336,0-6.505,2.529-6.505,9.758v30.361h-11.205L489.265,138.267L489.265,138.267z"/>
		<path fill="#FFFFFF" d="M532.638,123.087h11.204v49.156h-11.204V123.087z M532.999,104.654h11.205v11.205h-11.205V104.654z"/>
		<path fill="#FFFFFF" d="M587.575,167.907c0,13.733-3.975,22.408-18.793,22.408c-14.097,0-16.989-8.313-17.351-14.096h11.207
			c0.36,1.446,0.721,5.06,6.506,5.06c6.143,0,7.227-4.698,7.227-13.372v-2.169c-1.806,3.975-5.783,5.783-10.481,5.783
			c-10.481,0-14.819-9.037-14.819-23.493c0-16.626,6.146-26.025,15.905-26.025c6.505,0,8.673,2.893,9.396,5.06
			c0-1.444,0.362-3.252,0.362-4.336h10.842c0,2.892,0,7.952,0,14.819V167.907L587.575,167.907z M562.637,147.665
			c0,10.12,2.529,14.457,6.867,14.457c5.782,0,6.866-5.421,6.866-15.903c0-8.673-0.362-14.456-6.505-14.456
			C565.166,131.763,562.637,136.823,562.637,147.665z"/>
		<path fill="#FFFFFF" d="M607.816,104.654v22.77c1.807-3.251,4.697-5.783,10.842-5.783c7.953,0,12.289,5.421,12.289,15.182v34.698
			h-11.204v-32.53c0-4.698-0.724-7.95-5.784-7.95s-6.144,3.613-6.144,10.12v29.999h-11.205v-66.504H607.816z"/>
		<path fill="#FFFFFF" d="M634.562,123.087h6.505v-12.289h11.207v12.289h7.589v9.398h-7.589v26.746c0,2.892,0.362,4.336,3.976,4.336
			c1.084,0,1.805,0,2.89-0.361v8.314c-2.167,0.723-5.06,1.084-6.866,1.084c-7.951,0-11.207-2.893-11.207-11.566v-28.553h-6.505
			V123.087z"/>
		<path fill="#FFFFFF" d="M721.669,139.352c0,23.493-6.507,33.615-20.963,33.615c-13.735,0-20.603-10.122-20.603-33.615
			c0-23.132,7.953-32.528,20.963-32.528C715.162,106.824,721.669,117.305,721.669,139.352z M691.669,139.352
			c0,15.181,2.167,24.216,9.037,24.216c7.228,0,9.035-8.312,9.035-24.216c0-14.818-2.169-22.771-9.035-22.771
			C693.837,116.581,691.669,124.895,691.669,139.352z"/>
		<path fill="#FFFFFF" d="M731.427,171.882v-39.757h-5.783v-9.398h5.783v-4.699c0-8.313,3.615-14.096,13.373-14.096
			c1.808,0,3.616,0.361,4.699,0.723v9.398c-0.724-0.361-1.807-0.361-2.529-0.361c-3.255,0-3.977,1.806-3.977,5.059v3.976h6.867
			v9.398h-6.867v39.757H731.427z"/>
		<path fill="#FFFFFF" d="M778.775,118.027h-13.734v-10.119h38.674v10.119h-13.735v53.854h-11.566L778.775,118.027L778.775,118.027z
			"/>
		<path fill="#FFFFFF" d="M818.534,104.654v22.77c1.806-3.251,4.698-5.783,10.843-5.783c7.95,0,12.289,5.421,12.289,15.182v34.698
			h-11.205v-32.53c0-4.698-0.723-7.95-5.782-7.95c-5.061,0-6.145,3.613-6.145,10.12v29.999h-11.205v-66.504H818.534z"/>
		<path fill="#FFFFFF" d="M859.737,150.556c0,6.145,0.724,13.012,6.868,13.012c5.783,0,6.505-4.698,6.505-6.505h10.844
			c0,1.445-1.446,15.904-17.71,15.904c-15.904,0-18.072-13.374-18.072-25.663c0-15.542,5.783-24.94,18.434-24.94
			c14.095,0,17.71,10.481,17.71,23.494c0,1.807,0,3.977,0,4.698H859.737z M873.472,142.244c0-4.698-0.724-10.843-6.505-10.843
			c-6.506,0-6.868,7.228-6.868,10.843H873.472z"/>
		<path fill="#FFFFFF" d="M918.651,171.882v-22.771c0-0.723,0-1.446-0.36-2.169l-16.265-39.396h12.65
			c3.614,10.12,7.95,22.409,9.758,29.277c2.17-7.953,6.867-19.879,10.12-29.277h11.928l-16.265,39.396
			c-0.362,0.362-0.362,1.085-0.362,2.169v22.409h-11.204V171.882L918.651,171.882z"/>
		<path fill="#FFFFFF" d="M952.988,150.556c0,6.145,0.723,13.012,6.866,13.012c5.784,0,6.507-4.698,6.507-6.505h10.844
			c0,1.445-1.447,15.904-17.712,15.904c-15.902,0-18.071-13.374-18.071-25.663c0-15.542,5.783-24.94,18.433-24.94
			c14.098,0,17.712,10.481,17.712,23.494c0,1.807,0,3.977,0,4.698H952.988z M966.723,142.244c0-4.698-0.723-10.843-6.506-10.843
			c-6.506,0-6.867,7.228-6.867,10.843H966.723z"/>
		<path fill="#FFFFFF" d="M1016.601,161.4c0,2.529,0.361,8.312,0.361,10.843h-10.119c-0.362-1.084-0.362-3.254-0.362-4.698
			c-1.808,3.252-5.061,5.421-11.204,5.421c-9.396,0-13.013-7.591-13.013-14.459c0-10.119,6.867-16.264,19.156-16.264
			c1.808,0,2.892,0,3.976,0v-5.421c0-2.893-0.361-6.145-5.421-6.145c-4.698,0-5.422,3.252-5.422,6.145H983.71
			c0.362-7.229,3.614-14.82,16.626-14.82c10.483,0,15.902,4.699,15.902,14.097V161.4H1016.601z M1005.758,150.556
			c-1.085-0.361-2.168-0.361-3.614-0.361c-6.506,0-8.675,2.892-8.675,6.868c0,2.892,1.446,6.505,5.784,6.505
			c5.781,0,6.866-4.336,6.866-11.566v-1.446H1005.758z"/>
		<path fill="#FFFFFF" d="M1025.637,139.713c0-7.951,0-13.012,0-16.626h10.844c0,0.723,0.361,2.893,0.361,7.953
			c1.808-5.422,6.144-9.038,13.012-9.038v12.651c-7.953-0.361-12.65,2.169-12.65,11.565v25.663h-11.205v-32.168H1025.637z"/>
	</g>
</g>
</svg>
