<?xml version="1.0" encoding="utf-8"?>
<!-- Generator: Adobe Illustrator 22.0.1, SVG Export Plug-In . SVG Version: 6.00 Build 0)  -->
<svg version="1.1" id="Layer_1" xmlns="http://www.w3.org/2000/svg" xmlns:xlink="http://www.w3.org/1999/xlink" x="0px" y="0px"
	 viewBox="0 0 642.1 396.8" style="enable-background:new 0 0 642.1 396.8;" xml:space="preserve">
<style type="text/css">
	.st0{fill:#AF9DAC;}
	.st1{fill:#FFFFFF;stroke:#AF9DAC;stroke-width:0.7422;stroke-miterlimit:10;}
	.st2{fill-rule:evenodd;clip-rule:evenodd;fill:#AF9DAC;}
	.st3{fill:none;stroke:#FFFFFF;stroke-width:3.3579;stroke-miterlimit:10;}
</style>
<g>
	<g>
		<path class="st0" d="M219.5,351.9c-71.9,7.4-143.7,16.4-215.2,27c19.2-25.7,38.4-51.2,57.6-76.6C42.7,282,23.4,261.9,4.2,241.9
			c71.6-10.5,143.3-19.5,215.2-27C219.5,260.6,219.5,306.3,219.5,351.9z"/>
		<path class="st0" d="M432.9,351.9c68.9,7.4,137.6,16.4,206.2,27c-18.4-25.7-36.8-51.2-55.2-76.6c18.4-20.2,36.8-40.4,55.2-60.4
			c-68.6-10.5-137.3-19.5-206.2-27C432.9,260.6,432.9,306.3,432.9,351.9z"/>
		<path class="st0" d="M540.4,315.3c-144-49.3-290.6-49.3-434.6,0c0-44,0-88.1,0-132.1c144-49.3,290.6-49.3,434.6,0
			C540.4,227.2,540.4,271.2,540.4,315.3z"/>
	</g>
	<path class="st1" d="M512.7,196.3c0,102.8-83.4,186.2-186.2,186.2c-102.8,0-186.2-83.4-186.2-186.2S223.6,10.1,326.5,10.1
		C429.3,10.1,512.7,93.5,512.7,196.3z"/>
	<path class="st0" d="M515,151.9c-1.3-5.3-2.8-10.6-4.6-15.9C477.9,39.1,376.8-15.4,279.3,8.4c-5.3,1.3-10.6,2.8-15.9,4.6
		C166.5,45.5,112,146.6,135.8,244.1c1.3,5.3,2.8,10.6,4.6,15.9c32.5,96.9,133.6,151.4,231.1,127.6c5.3-1.3,10.6-2.8,15.9-4.6
		C484.3,350.5,538.8,249.4,515,151.9z M384.1,373c-5,1.7-10,3.1-15.1,4.3c-92.2,22.6-187.9-29-218.7-120.7c-1.7-5-3.1-10-4.4-15.1
		c-22.5-92.2,29-187.9,120.7-218.7c5-1.7,10-3.1,15.1-4.4C374-4,469.7,47.6,500.5,139.3c1.7,5,3.1,10,4.4,15.1
		C527.4,246.6,475.8,342.3,384.1,373z"/>
	<path class="st0" d="M157.6,252.4c-1.6-4.8-3-9.5-4.1-14.3l0,0c-21.4-87.7,27.6-178.7,114.8-208l0,0c4.8-1.6,9.5-3,14.3-4.1l0,0
		c87.7-21.4,178.7,27.6,208,114.8l0,0l0,0c1.6,4.7,3,9.5,4.1,14.3l0,0c21.5,87.7-27.6,178.7-114.8,208l0,0c-4.8,1.6-9.5,3-14.3,4.1
		l0,0C277.8,388.7,186.8,339.6,157.6,252.4L157.6,252.4z M270.2,36C186.1,64.2,138.7,152,159.4,236.7l0,0c1.1,4.6,2.5,9.2,4,13.8
		l0,0c28.2,84.2,116.1,131.5,200.7,110.8l0,0c4.6-1.1,9.2-2.5,13.8-4l0,0c84.2-28.2,131.5-116.1,110.8-200.7l0,0
		c-1.1-4.6-2.5-9.2-4-13.8l0,0l0,0C456.5,58.6,368.7,11.3,284,32l0,0C279.4,33.1,274.8,34.4,270.2,36L270.2,36z"/>
	<path class="st0" d="M168.7,248.7c-1.5-4.4-2.8-8.9-3.9-13.4l0,0c-20-81.9,25.8-166.8,107.2-194.1l0,0c4.4-1.5,8.9-2.8,13.4-3.9
		l0,0c81.9-20,166.8,25.8,194.1,107.1l0,0l-2.1,0.7l-2.1,0.7C448.8,66.7,366.1,22.2,286.4,41.6l0,0c-4.4,1.1-8.7,2.3-13,3.8l0,0
		C194.2,72,149.6,154.6,169.1,234.3l0,0c1.1,4.3,2.3,8.7,3.8,13l0,0c26.5,79.2,109.2,123.8,188.9,104.3l0,0c4.3-1.1,8.7-2.3,13-3.8
		l0,0c79.2-26.6,123.8-109.2,104.3-188.9l0,0c-1.1-4.4-2.3-8.7-3.8-13l0,0l2.1-0.7l2.1-0.7c1.5,4.4,2.8,8.9,3.9,13.4l0,0
		c20,81.9-25.8,166.8-107.2,194.1l0,0c-4.4,1.5-8.9,2.8-13.4,3.9l0,0C280.9,375.9,196,330.1,168.7,248.7L168.7,248.7z"/>
	<g>
		<path class="st0" d="M248,146.2l3.4-6c0.1-0.2,0.2-0.5,0.3-0.7c0-0.2,0-0.4,0-0.6c0-0.5-0.1-0.9-0.3-1.2c-0.2-0.3-0.5-0.5-0.9-0.5
			c-0.3,0-0.6,0.2-0.8,0.5c-0.2,0.3-0.4,0.7-0.4,1.3H248c0-1,0.3-1.8,0.7-2.5c0.5-0.6,1-1,1.7-1c0.7,0,1.3,0.3,1.8,1
			c0.5,0.7,0.7,1.5,0.7,2.5c0,0.8-0.2,1.5-0.5,2.1l-2.8,4.9h3.3v1.7H248V146.2z"/>
		<path class="st0" d="M254.3,139.1c0-1.1,0.3-2,0.8-2.6c0.5-0.6,1-0.9,1.7-0.9c0.7,0,1.2,0.3,1.7,0.9c0.5,0.6,0.7,1.5,0.7,2.6v5.4
			c0,1.1-0.3,2-0.7,2.6c-0.5,0.6-1,0.9-1.7,0.9c-0.7,0-1.2-0.3-1.7-0.9c-0.5-0.6-0.8-1.5-0.8-2.6V139.1z M257.9,139.2
			c0-1.2-0.4-1.8-1.2-1.9c-0.8,0-1.2,0.6-1.2,1.9v5.2c0,1.2,0.4,1.9,1.2,1.9c0.8,0,1.2-0.6,1.2-1.9V139.2z"/>
		<path class="st0" d="M262.4,137.5l-1.2,1.3v-1.9l1.2-1.3h1.2v12.2h-1.2V137.5z"/>
		<path class="st0" d="M266.8,139.1c0-1.1,0.3-2,0.8-2.6c0.5-0.6,1-0.9,1.7-0.9c0.6,0,1.1,0.2,1.6,0.7c0.4,0.5,0.7,1.2,0.8,2.1h-1.3
			c-0.2-0.7-0.6-1-1.1-1c-0.8,0-1.2,0.6-1.2,1.9v1.1c0.6-0.3,1.1-0.4,1.6-0.4c0.6,0,1,0.3,1.4,0.8c0.4,0.5,0.6,1.4,0.6,2.6v1.1
			c0,1.1-0.3,2-0.7,2.6c-0.5,0.6-1,0.9-1.7,0.9c-0.7,0-1.2-0.3-1.7-0.9c-0.5-0.6-0.8-1.5-0.8-2.6V139.1z M268,144.4
			c0,1.2,0.4,1.9,1.2,1.9c0.8,0,1.2-0.6,1.2-1.9v-1c0-1.2-0.4-1.8-1.2-1.9c-0.8,0-1.2,0.6-1.2,1.9V144.4z"/>
	</g>
	<g>
		<path class="st0" d="M383.7,146.1l3.2-5.7c0.1-0.2,0.2-0.4,0.3-0.6c0-0.2,0-0.4,0-0.5c0-0.4-0.1-0.8-0.3-1.1
			c-0.2-0.3-0.5-0.5-0.9-0.5c-0.3,0-0.6,0.1-0.8,0.4c-0.2,0.3-0.4,0.7-0.4,1.2h-1.2c0-1,0.3-1.8,0.7-2.4c0.4-0.6,1-0.9,1.6-0.9
			c0.7,0,1.3,0.3,1.7,1c0.4,0.6,0.7,1.4,0.7,2.4c0,0.8-0.2,1.5-0.5,2l-2.7,4.7h3.2v1.7h-4.7V146.1z"/>
		<path class="st0" d="M389.7,139.2c0-1.1,0.3-1.9,0.7-2.5c0.4-0.6,1-0.9,1.6-0.9c0.6,0,1.2,0.3,1.6,0.9c0.5,0.6,0.7,1.4,0.7,2.5
			v5.1c0,1.1-0.3,1.9-0.7,2.5c-0.4,0.6-1,0.9-1.6,0.9c-0.6,0-1.2-0.3-1.6-0.9c-0.5-0.6-0.7-1.4-0.7-2.5V139.2z M393.2,139.3
			c0-1.2-0.4-1.8-1.2-1.8c-0.8,0-1.1,0.6-1.2,1.8v5c0,1.2,0.4,1.8,1.2,1.8c0.8,0,1.1-0.6,1.2-1.8V139.3z"/>
		<path class="st0" d="M397.5,137.8l-1.2,1.2v-1.8l1.2-1.2h1.2v11.7h-1.2V137.8z"/>
		<path class="st0" d="M401.8,136h4.7v1.7l-2.8,10h-1.3l2.8-10H403v1.7h-1.2V136z"/>
	</g>
	<path class="st0" d="M311.4,114.5c1.3,0,2.9,0.6,2.9,0.6h4.7c1.3,7,3.2,13.9,3.2,13.9c-0.7,3,0.4,17.7,0.9,23.2
		c-0.1,0.3-0.2,0.4-0.2,0.4c0.7,2.9,1.3,9.7,1.3,9.7c-0.4,3.4,0.7,6.2,0.7,6.2c0.3,0.5,0.6,2.3,0.6,2.3l0.1,0l2.3,12.4
		c0.4,0.6,0.6,0.8,0.6,0.8c0,0.3,0.1,1.1,0.2,2.1h27.5c0-1,0.1-1.8,0.1-2l0.3-0.2c0.8-0.3,1.5-0.7,2-1.2l1.8-1.1l1.6-0.7l0.9-0.2
		l-2.9-12.1c-0.4-2.5-0.5-8.4-0.5-8.4c0.9,0,2.5-1.3,2.5-1.3c0.5,0,1.4-1.2,1.4-1.2c1,0.3,1.6-0.9,1.6-0.9c0-0.4,1.3-1.7,1.3-1.7
		c0.4-0.5,0.2-1.2,0.2-1.2c-0.1-0.7,0.3-7.3,0.3-7.3c1-1.1,2.4-3.8,2.4-3.8c0.1-1,1.5-3.6,1.5-3.6c3-3.6,0.8-8.7,0.8-8.7
		c-1.9-3.1-3.7-11.1-5.5-18.4c0.2-3.7,1.1-5.8-1.4-11.3c-3.4-7.4-12.9-8.6-12.9-8.6c-1.2-0.1-2.1-0.5-2.8-0.8
		c-0.4-0.2-0.6-0.4-0.6-0.4c0,0,0,0-0.1,0c-0.2-0.2-0.4-0.3-0.4-0.3c-0.7-1.1-2.7-3.1-2.7-3.1c-0.5-0.5,0.2-2.5,0.2-2.5
		c0.4-0.9,0.6-3.5,0.6-3.5c1.3,0.5,1.2-1.4,1.2-1.4c-0.1-1.2,0.1-4.1,0.1-4.1c0.1-1.7-0.7-1.3-0.7-1.3c-1-10.3-9.3-9.6-9.3-9.6
		c-8.1,0.6-6.8,11.2-6.8,11.2c-1.8-0.5-0.3,4.7-0.3,4.7c0.4,0.7,0.5,1.1,0.5,1.1c0.2,1.4,1.4,1,1.4,1c0.1,2.1,1.5,3.9,1.5,3.9
		c0.7,1-0.3,2-0.3,2c-2.1,1.3-3.1,4.1-3.1,4.1c-3,0.7-5.2,1.6-6.7,2.5c-0.3-0.2-0.6-0.3-0.6-0.3c-1.3-0.3-5.8,2.3-5.8,2.3
		c-0.8,0.1-1.4,0.5-1.4,0.5c-1.7,0.3-2.5,1.7-2.5,1.7c-0.4,0.6-2.7,0.9-2.7,0.9c-1.6-0.8-4.8,0.5-4.8,0.5c-1-0.6-2.8-1.2-2.8-1.2
		c-2-0.5-2.7,1.7-2.7,1.7c-0.3-2.1-2.9-4.1-2.9-4.1c-0.3-0.4-1.5-1.5-1.5-1.5c-2.5-1-2.3-1.5-2.3-1.5c0-0.5-1-1.8-1-1.8
		c-0.5-0.5-0.4-0.7-0.4-0.7c-1.5-4.1-2.5-5.9-2.5-5.9h-0.5c-1-1.6-1-3.2-1-3.2c0.7-0.7,0.3-3.2,0.3-3.2c-0.1-0.5,0.1-2.1,0.1-2.1
		c0.2-0.5,0.3-1.3,0.4-1.5c8.6-1.3,14.5-3.9,14.4-6.7c-0.1-3.7-10.8-6.3-23.8-5.8c-13,0.5-23.4,3.9-23.3,7.5
		c0.1,3.3,8.5,5.7,19.5,5.8c0.7,0.6,1.9,1.2,1.9,1.2c0.5,0.2,1,0.6,1,0.6c0.4,0.9,1.5,1.7,1.5,1.7c1.2,1,3.1,3.7,3.1,3.7
		c1.1,1.6,1.5,4.1,1.5,4.1c-1.7,0.9-1.3,1.6-1.3,1.6l1,1.5c0.9,1.2,1.3,4,1.3,4c0,1.1,0.4,1.7,0.4,1.7c0.7,0.6,0.8,1.3,0.8,1.3
		c0,3.1,1.7,5.2,1.7,5.2c0.7,2.1,4.3,7.9,4.3,7.9c0.7,2.1,1.7,1.8,1.7,1.8c1.4,0.2,3.7,0.8,3.7,0.8
		C299.9,115.2,311.4,114.5,311.4,114.5z M360,157.8c0,0-0.4,0.6-0.6,0.5l0-1.8c0,0,0.5,0.7,0.8,1C360.2,157.5,360.3,157.6,360,157.8
		z M357.6,137.7c0,0,1.3,0.3,1.6-1.2c0,0,0.7-2.8,0.8,0.3c0,0-0.1,1.7,0.4,2.5c0,0,0.7,1.4,0.1,2.1c0,0-0.9,1.7,0,3.2
		c0,0,0.2,0.3,0,0.6c0,0-1.4,3.9-1.8,4c0,0-0.8-3.1-0.9-4.2c0,0-0.4-1.7,0-3.2c0,0,0.7-1,0.2-2.2
		C358.1,139.6,357.5,138.2,357.6,137.7z M335,93c1.6,0.6,3.1,1.3,3.1,1.3h1.1c1.6-0.7,3.6-1.4,3.6-1.4l0.1,4.9
		c-2.2-1.2-1.7-1.8-1.7-1.8l-3,0c-1.1,0.5-1.8,0.7-3.4,1.6L335,93z M286.7,76.6c0,0-0.2,1.1-1.2,1.1c0,0-1.3,0-1.7-0.2
		c0,0-0.7-0.4-1-0.3c0,0-0.3-0.2-0.2-0.5c1.4-0.1,2.8-0.2,4.2-0.4L286.7,76.6z"/>
	<path class="st2" d="M241.5,236.6v1.6h-24.7v-5.9h1.6v4.2H241.5z M191.9,238.3v-5.9h1.6h0v4.2h18v1.6H191.9z M254,238.3l-8.8-31.7
		c-0.9-3.2-1.7-5.1-2.5-6c-0.8-0.8-1.9-1.3-3.4-1.5v-5.7h1.6v4c1.5,0.2,2.6,0.7,3.4,1.5c0.8,0.8,1.6,2.8,2.5,6l8.8,31.7h11.3
		l-0.5,1.6H254z M350.7,236.6v1.6h-24.7v-5.9h1.6v4.2H350.7z M301.1,238.3v-5.9h1.6h0v4.2h18v1.6H301.1z M404.8,238.3v-5.9h1.6v4.2
		h23.7c8.9,0,15.6-1.8,19.9-5.5l0.1-0.1c-0.5,0.6-1.1,1.2-1.8,1.8c-4.3,3.7-11,5.5-19.9,5.5H404.8z M224.3,229
		c0.4-0.1,0.6-0.1,0.9-0.2c0.6-0.2,0.8-0.6,0.8-1.3c0-0.2-0.1-0.5-0.2-0.9c-0.1-0.2-0.1-0.4-0.1-0.5l-1.7-5.5H211l-0.5,1.6h11.8
		l1.7,5.5c0,0.1,0.1,0.3,0.1,0.5C224.2,228.5,224.3,228.8,224.3,229z M195.2,235v-5.9h1.6c0.6,0,1.1,0,1.6-0.1
		c0.1-0.3,0.2-0.6,0.3-0.9l11.5-34.6h1.1l-11,33c-0.3,0.9-0.6,1.7-0.9,2.3c0.2-0.1,0.4-0.2,0.6-0.3c0.7-0.5,1.3-1.7,2-3.6l11.5-34.6
		h13.4l11,34.8c0.6,1.7,1.2,2.8,1.8,3.3c0.6,0.5,1.6,0.8,2.8,0.8h2.3v5.9H220v-5.9h1.9l0.3,0l-1.6-5.3H210l-0.6,1.9
		c-0.1,0.3-0.2,0.6-0.2,0.9c-0.1,0.3-0.1,0.6-0.1,0.8c0,0.6,0.2,1,0.7,1.3c0.5,0.2,1.4,0.3,2.9,0.3h2.2v5.9H195.2z M262.5,195.8
		L262.5,195.8c-1.2,0-2.1,0.2-2.7,0.5c-0.6,0.3-0.9,0.7-0.9,1.3l0,0c0.2,0,0.4-0.1,0.6-0.1v1.6h-0.3h0c0.1,0.5,0.3,1.1,0.5,1.8
		l5.1,18.9l3.9-12.6c-0.6-3.2-1.3-5.3-2.2-6.4c-0.9-1.1-2.2-1.6-4-1.6V195.8z M257.2,235l-8.8-31.7c-0.9-3.2-1.7-5.1-2.5-6
		c-0.8-0.8-1.9-1.3-3.4-1.5v-5.7h20.2v3.3h1.3v4c1.8,0,3.1,0.5,4,1.6c0.9,1.1,1.6,3.2,2.2,6.4l-5,16.2l0.5,2l6.1-19.8
		c-0.6-3.2-1.3-5.3-2.2-6.4c-0.9-1.1-2.2-1.6-4-1.6v-5.7h21v5.6c-0.2,0-0.4,0-0.6,0c-0.2,0-0.5,0-0.9,0c-1.1,0-1.9,0.2-2.4,0.5
		c-0.3,0.3-0.5,0.7-0.6,1.3c0.3-0.1,0.7-0.1,1.2-0.1v1.7c-0.2,0-0.4,0-0.6,0c-0.1,0-0.3,0-0.5,0c0,0.2,0.1,0.5,0.2,0.8l4.8,19.1
		l4.1-15.6c0.1-0.5,0.2-0.9,0.3-1.2c0.1-0.3,0.1-0.6,0.1-0.8c0-0.8-0.3-1.4-1-1.7c-0.7-0.3-1.9-0.5-3.7-0.5v-5.7h1.6v4
		c1.8,0,3,0.2,3.7,0.5c0.7,0.3,1,0.9,1,1.7c0,0.2,0,0.5-0.1,0.8c-0.1,0.3-0.2,0.7-0.3,1.2l-5.2,19.7l0.6,2.4l6.2-23.7
		c0.1-0.5,0.2-0.9,0.3-1.2c0.1-0.3,0.1-0.6,0.1-0.8c0-0.8-0.3-1.4-1-1.7c-0.7-0.3-1.9-0.5-3.7-0.5v-5.7h16.4v5.7
		c-1.5,0.1-2.6,0.5-3.4,1.2c-0.3,0.3-0.6,0.6-0.8,1.1c0.3-0.2,0.6-0.3,1-0.4v1.4c-0.6,0-1.1,0.1-1.6,0.2c-0.2,0.5-0.4,1.1-0.5,1.7
		l-9,34h-11.9l-5.4-19.1l-1.1,3.7l4.8,17h10.7l-0.4,1.6h-11.9l-4.2-14.9l-3.3,11.6H257.2z M333.5,229c0.4-0.1,0.6-0.1,0.9-0.2
		c0.6-0.2,0.8-0.6,0.8-1.3c0-0.2-0.1-0.5-0.2-0.9c-0.1-0.2-0.1-0.4-0.1-0.5l-1.7-5.5h-12.9l-0.5,1.6h11.8l1.7,5.5
		c0,0.1,0.1,0.3,0.1,0.5C333.4,228.5,333.5,228.8,333.5,229z M304.4,235v-5.9h1.6c0.6,0,1.1,0,1.6-0.1c0.1-0.3,0.2-0.6,0.3-0.9
		l11.5-34.6h1.1l-11,33c-0.3,0.9-0.6,1.7-0.9,2.3c0.2-0.1,0.4-0.2,0.6-0.3c0.7-0.5,1.3-1.7,2-3.6l11.5-34.6h13.4l11,34.8
		c0.6,1.7,1.2,2.8,1.8,3.3c0.6,0.5,1.6,0.8,2.8,0.8h2.3v5.9h-1.3v1.6h24v1.6h-25.7v-1.6h1.3V235h-23.1v-5.9h1.9l0.3,0l-1.6-5.3
		h-10.7l-0.6,1.9c-0.1,0.3-0.2,0.6-0.2,0.9c-0.1,0.3-0.1,0.6-0.1,0.8c0,0.6,0.2,1,0.7,1.3c0.5,0.2,1.4,0.3,2.9,0.3h2.2v5.9H304.4z
		 M324.6,207.3l-2.4,7.4h4.8L324.6,207.3z M331.3,214.7l-4.5-14.2l-1.1,3.4l3.4,10.8H331.3z M373.5,225.2c0,1.7,0.2,2.8,0.7,3.2
		c0.5,0.4,1.6,0.7,3.4,0.7h2.4v5.9h-25.7v-5.9h2.5c0.3,0,0.5,0,0.8,0c0-0.2,0-0.4,0-0.6v-25.3c0-1.7-0.2-2.8-0.7-3.3
		c-0.5-0.4-1.6-0.6-3.3-0.6h-2.5v-5.9h1.6v4.2h2.5c1.7,0,2.9,0.2,3.3,0.6c0.5,0.4,0.7,1.5,0.7,3.3v25.3c0,0.8-0.1,1.5-0.2,2
		c0.5-0.1,0.9-0.3,1.1-0.5c0.5-0.4,0.7-1.5,0.7-3.2v-25.3c0-1.7-0.2-2.8-0.7-3.3c-0.5-0.4-1.6-0.6-3.3-0.6h-2.5v-5.9h29.5
		c5.5,0,9.5,0.9,12.2,2.8c2.7,1.8,4,4.6,4,8.4c0,2.6-0.9,4.8-2.6,6.5c-1.8,1.7-4.3,2.9-7.7,3.5c0.8,0.1,1.6,0.3,2.3,0.5
		c1.1-0.5,2.1-1,2.9-1.7c-0.2,0.3-0.5,0.6-0.8,0.9c-0.4,0.4-0.8,0.7-1.3,1.1c1.3,0.5,2.3,1.2,3,2c1.2,1.4,1.8,3.5,1.8,6.2v4.3
		c0,1.9,0.1,3.1,0.4,3.8c0.1,0.2,0.2,0.4,0.4,0.6c0.1-0.9,0.1-2,0.1-3.3h1.6c-0.1,1.7-0.2,2.9-0.4,3.7c0.8-0.1,1.3-0.6,1.6-1.5
		c0.3-1,0.5-2.8,0.5-5.5h4.5c0,0.2,0,0.5,0,0.9c0,0.4,0,0.7,0,0.8c0,4.1-0.8,7.2-2.5,9.1c-1.7,2-4.3,2.9-7.9,2.9
		c-3.8,0-6.5-0.9-8.3-2.8c-1.7-1.8-2.6-4.8-2.6-8.7v-4.3c0-2.5-0.4-4.1-1.2-4.9c-0.8-0.8-2.4-1.1-4.9-1.1h-5.5v1.6h3.9
		c2.5,0,4.1,0.4,4.9,1.1c0.8,0.8,1.2,2.4,1.2,4.9v4.3c0,4,0.9,6.9,2.6,8.7c1.7,1.8,4.5,2.8,8.3,2.8c2.8,0,5-0.6,6.6-1.8
		c-0.1,0.2-0.3,0.3-0.4,0.5c-1.7,2-4.3,2.9-7.9,2.9c-3.8,0-6.5-0.9-8.3-2.8c-1.7-1.8-2.6-4.8-2.6-8.7v-4.3c0-2.5-0.4-4.1-1.2-4.9
		c-0.8-0.8-2.4-1.1-4.9-1.1h-2.2V225.2z M384.7,207.6c0.2-0.1,0.4-0.2,0.5-0.3c1.2-0.9,1.8-2.5,1.8-4.7c0-2.4-0.6-4.1-1.8-5.1
		c-1.2-1-3.4-1.5-6.4-1.5h-5.3v1.6h3.6c3.1,0,5.2,0.5,6.4,1.5c1.2,1,1.8,2.7,1.8,5.1C385.4,205.6,385.1,206.8,384.7,207.6z
		 M373.5,208.6h4.7c2.2,0,3.9-0.2,5.2-0.6c0.2-0.6,0.2-1.4,0.2-2.2c0-2.4-0.6-4.1-1.8-5.1c-1.2-1-3.4-1.5-6.4-1.5h-2V208.6z
		 M408.1,235v-5.9h2.5c0.3,0,0.5,0,0.8,0c0-0.2,0-0.4,0-0.6v-25.3c0-1.7-0.2-2.8-0.7-3.3c-0.5-0.4-1.6-0.6-3.3-0.6h-2.5v-5.9h1.6
		v4.2h2.5c1.7,0,2.9,0.2,3.3,0.6c0.5,0.4,0.7,1.5,0.7,3.3v25.3c0,0.8-0.1,1.5-0.2,2.1c0.5-0.1,0.9-0.3,1.1-0.5
		c0.5-0.4,0.7-1.5,0.7-3.2v-25.3c0-1.7-0.2-2.8-0.7-3.3c-0.5-0.4-1.6-0.6-3.3-0.6h-2.5v-5.9h23.7c8.9,0,15.6,1.8,19.9,5.5
		c4.3,3.7,6.5,9.3,6.5,16.9c0,7.6-2.2,13.2-6.5,16.9c-4.3,3.7-11,5.5-19.9,5.5H408.1z M439.1,227.1c0.7-0.5,1.3-1.1,1.8-1.8
		c1.8-2.6,2.8-6.8,2.8-12.7c0-6.1-0.9-10.3-2.8-12.8c-1.8-2.5-5-3.7-9.4-3.7h-4.3v1.6h2.6c4.4,0,7.6,1.2,9.4,3.7
		c1.8,2.5,2.8,6.7,2.8,12.8c0,5.9-0.9,10.2-2.8,12.7L439.1,227.1z M427.2,229.1h4.6c2.5,0,4.7-0.5,6.3-1.4c1.5-2.6,2.2-6.6,2.2-11.9
		c0-6.1-0.9-10.3-2.8-12.8c-1.8-2.5-5-3.7-9.4-3.7h-1V229.1z M216.5,203.9l3.4,10.8h2.2l-4.5-14.2L216.5,203.9z M217.7,214.7
		l-2.4-7.4l-2.4,7.4H217.7z"/>
	<g>
		<g>
			<path class="st0" d="M239.8,259.8l5.5,1.1c1.5,0.3,2.5,0.8,3.1,1.6c0.5,0.8,0.7,1.9,0.4,3.4l-0.2,0.8c-0.3,1.8-1.2,2.7-2.7,2.8
				c0.8,0.4,1.3,1,1.5,1.8c0.2,0.8,0.2,1.8,0,3c-0.4,2-1,3.4-1.8,4.3c-0.8,0.9-2.1,1.2-3.8,0.8l-5.5-1.1L239.8,259.8z M243.1,274.9
				l0.4-2.3c0.1-0.6,0.1-1,0-1.3c-0.1-0.3-0.4-0.5-0.9-0.6l-0.8-0.1l-1,5.4l0.4,0.1C242.3,276.2,242.9,275.9,243.1,274.9z
				 M243.3,267.8c0.3,0.1,0.6,0,0.8-0.2c0.2-0.2,0.3-0.5,0.4-1l0.4-1.9c0.1-0.6-0.1-1-0.7-1.1l-0.9-0.2l-0.8,4.1L243.3,267.8z"/>
			<path class="st0" d="M252.9,281.4l2.7-18.7l8.3,1.2l-0.5,3.6l-4.1-0.6l-0.5,3.6l3.9,0.6l-0.5,3.5l-3.9-0.6l-0.6,4.3l4.3,0.6
				l-0.5,3.6L252.9,281.4z"/>
			<path class="st0" d="M269,282.4c-0.8-0.9-1-2.3-0.9-4.2l0.2-1.8l4.1,0.4l-0.2,2.3c-0.1,0.9,0.2,1.4,0.9,1.5c0.4,0,0.6,0,0.8-0.2
				c0.2-0.2,0.3-0.5,0.3-1c0.1-0.6,0-1.1-0.1-1.5c-0.1-0.4-0.3-0.8-0.5-1.1c-0.2-0.3-0.6-0.8-1.2-1.4l-1.6-1.8
				c-1.3-1.4-1.8-2.8-1.7-4.3c0.2-1.6,0.7-2.8,1.6-3.6c0.9-0.8,2.1-1.1,3.7-0.9c1.9,0.2,3.2,0.8,3.9,1.7c0.7,1,1,2.4,0.8,4.3
				l-4.2-0.4l0.1-1.3c0-0.2,0-0.5-0.2-0.6c-0.1-0.2-0.3-0.3-0.6-0.3c-0.3,0-0.6,0-0.7,0.2c-0.2,0.1-0.3,0.4-0.3,0.6
				c-0.1,0.6,0.3,1.3,1,2l2.2,2.3c0.5,0.6,0.9,1.1,1.3,1.5c0.3,0.5,0.6,1,0.7,1.7c0.2,0.6,0.2,1.4,0.1,2.2c-0.2,1.9-0.7,3.2-1.5,4.1
				c-0.8,0.9-2.1,1.2-3.8,1.1C271.1,283.9,269.8,283.4,269,282.4z"/>
			<path class="st0" d="M286.1,285l0.9-15.3l-2.5-0.1l0.2-3.6l9.1,0.5l-0.2,3.6l-2.5-0.1l-0.9,15.3L286.1,285z"/>
			<path class="st0" d="M310,284.8c-0.8-0.9-1.3-2.2-1.2-4.1l0-1.9l4.1,0l0,2.4c0,0.9,0.3,1.4,1,1.4c0.4,0,0.6-0.1,0.8-0.3
				c0.1-0.2,0.2-0.5,0.2-1c0-0.6-0.1-1.1-0.2-1.5s-0.4-0.7-0.6-1c-0.2-0.3-0.7-0.7-1.3-1.3l-1.8-1.6c-1.4-1.2-2.1-2.6-2.1-4.1
				c0-1.6,0.4-2.8,1.2-3.7c0.8-0.8,2-1.3,3.6-1.3c1.9,0,3.2,0.5,4,1.4s1.2,2.3,1.2,4.2l-4.2,0l0-1.3c0-0.2-0.1-0.4-0.2-0.6
				c-0.2-0.1-0.4-0.2-0.6-0.2c-0.3,0-0.6,0.1-0.7,0.2c-0.2,0.2-0.2,0.4-0.2,0.7c0,0.6,0.4,1.3,1.2,1.9l2.4,2.1c0.6,0.5,1,1,1.4,1.4
				c0.4,0.4,0.7,1,0.9,1.6c0.2,0.6,0.3,1.3,0.3,2.2c0,1.9-0.4,3.3-1.1,4.2c-0.8,1-2,1.4-3.7,1.4C312.2,286.1,310.8,285.6,310,284.8z
				"/>
			<path class="st0" d="M325,285.9l-0.3-18.9l8.3-0.1l0.1,3.7l-4.1,0.1l0.1,3.7l3.9-0.1l0.1,3.6l-3.9,0.1l0.1,4.3l4.4-0.1l0.1,3.7
				L325,285.9z"/>
			<path class="st0" d="M338.9,266.6l6.4-0.3c1,0,1.8,0.1,2.4,0.5c0.6,0.4,1,1,1.2,1.7c0.2,0.7,0.4,1.7,0.4,2.9
				c0,1.1-0.1,1.9-0.3,2.5c-0.3,0.6-0.8,1.1-1.5,1.3c0.6,0.1,1.1,0.4,1.4,0.8c0.3,0.4,0.5,1.1,0.5,1.8l0.3,7.2l-4.1,0.2l-0.3-7.4
				c0-0.5-0.2-0.9-0.4-1c-0.2-0.1-0.6-0.2-1.2-0.2l0.4,8.6l-4.2,0.2L338.9,266.6z M344.5,273.4c0.6,0,0.8-0.6,0.8-1.8
				c0-0.5-0.1-0.9-0.1-1.1c-0.1-0.2-0.2-0.4-0.3-0.5c-0.1-0.1-0.3-0.1-0.6-0.1l-1,0l0.2,3.5L344.5,273.4z"/>
			<path class="st0" d="M357.9,284.6l-4-18.7l4-0.3l2.5,12.7l0.4-12.9l4-0.3l-1.1,19.1L357.9,284.6z"/>
			<path class="st0" d="M372.1,283.3l-2.1-18.8l4-0.4l2.1,18.8L372.1,283.3z"/>
			<path class="st0" d="M384,280.8c-1-0.7-1.7-1.8-1.9-3.3l-1.3-8.6c-0.3-1.9-0.1-3.3,0.6-4.4c0.7-1.1,1.9-1.7,3.6-2
				c1.5-0.2,2.8,0,3.8,0.6c1,0.6,1.7,1.6,1.9,3.1l0.5,3.2l-4.1,0.6l-0.4-2.8c-0.1-0.5-0.2-0.9-0.4-1.1c-0.2-0.2-0.4-0.2-0.8-0.2
				c-0.4,0.1-0.6,0.2-0.7,0.5c-0.1,0.3-0.1,0.6,0,1.1l1.4,9.4c0.1,0.5,0.2,0.8,0.4,1c0.2,0.2,0.4,0.3,0.8,0.2
				c0.6-0.1,0.9-0.6,0.7-1.6l-0.5-3.4l4.1-0.6l0.5,3.5c0.5,3.1-1,5-4.5,5.5C386.3,281.7,385,281.5,384,280.8z"/>
			<path class="st0" d="M399.7,279.3l-3.9-18.5l8.2-1.7l0.7,3.6l-4,0.8l0.8,3.6l3.8-0.8l0.7,3.5l-3.8,0.8l0.9,4.2l4.3-0.9l0.8,3.6
				L399.7,279.3z"/>
		</g>
		<circle class="st0" cx="220.9" cy="265.1" r="3"/>
		<circle class="st0" cx="423.2" cy="265.1" r="3"/>
	</g>
	<g>
		<polygon class="st2" points="320.5,305.8 324.1,317.4 336.2,317.4 326.4,324.5 330.1,336 320.3,328.8 310.5,335.9 314.3,324.4 
			304.6,317.2 316.7,317.3 		"/>
		<polygon class="st2" points="365.8,307.7 368.4,315.8 377,315.9 370,320.9 372.6,329 365.7,323.9 358.7,328.9 361.5,320.8 
			354.6,315.7 363.1,315.8 		"/>
		<polygon class="st2" points="277,307 279.6,315.2 288.2,315.3 281.2,320.2 283.8,328.4 276.9,323.3 269.9,328.3 272.6,320.2 
			265.7,315.1 274.3,315.2 		"/>
		<polygon class="st2" points="237.4,301.3 239.4,307.8 246.3,307.8 240.7,311.8 242.8,318.3 237.3,314.2 231.7,318.2 233.9,311.7 
			228.4,307.7 235.2,307.7 		"/>
		<polygon class="st2" points="406.8,302.5 408.9,309 415.7,309 410.1,313 412.2,319.5 406.7,315.4 401.2,319.4 403.3,312.9 
			397.8,308.9 404.7,309 		"/>
	</g>
	<path class="st3" d="M117.3,190l-0.9,45.1l-94.9,12.8l51.3,51.7L25.3,367l170.4-23.3c0,0-20.1-16.8-33.1-36.7
		c-19.5-30-24.5-44.3-29.3-68.7c-3.8-19.3-5.1-34.3-3.8-51.7L117.3,190z"/>
	<path class="st3" d="M529.3,190l0.9,45.1l94.9,12.8l-51.3,51.7l47.5,67.4l-170.4-23.3c0,0,20.1-16.8,33.1-36.7
		c19.5-30,24.5-44.3,29.3-68.7c3.8-19.3,5.1-34.3,3.8-51.7L529.3,190z"/>
</g>
</svg>
