<?xml version="1.0" encoding="utf-8"?>
<!-- Generator: Adobe Illustrator 16.0.0, SVG Export Plug-In . SVG Version: 6.00 Build 0)  -->
<!DOCTYPE svg PUBLIC "-//W3C//DTD SVG 1.1//EN" "http://www.w3.org/Graphics/SVG/1.1/DTD/svg11.dtd">
<svg version="1.1" id="Layer_1" xmlns="http://www.w3.org/2000/svg" xmlns:xlink="http://www.w3.org/1999/xlink" x="0px" y="0px"
	 width="1374.138px" height="1500px" viewBox="62.25 0 1374.138 1500" enable-background="new 62.25 0 1374.138 1500"
	 xml:space="preserve">
<g>
	<g>
		<path fill="#FFFFFF" d="M264.317,292.851l-22.604-89.611h20.588c8.475,41.174,12.108,59.339,13.32,69.024l0,0
			c3.229-16.549,12.109-47.631,17.356-69.024h17.358c4.44,16.953,13.724,51.668,16.55,68.219l0,0
			c2.827-19.779,11.706-54.494,14.937-68.219h18.972l-24.22,89.611h-20.183c-4.846-19.779-12.514-48.842-15.744-64.182l0,0
			c-3.23,15.744-11.302,46.018-16.147,64.182H264.317z"/>
		<path fill="#FFFFFF" d="M441.93,254.504h-42.789v22.605h47.229l-2.423,15.741h-63.778v-89.611h63.375v15.741h-44.807v18.974
			h42.789v16.55H441.93z"/>
		<path fill="#FFFFFF" d="M468.572,203.643h35.521c26.24,0,43.193,16.953,43.193,43.595c0,26.238-16.552,46.018-43.998,46.018
			h-34.716V203.643z M487.544,277.109h14.532c16.953,0,24.623-12.917,24.623-30.275c0-14.532-7.267-27.854-24.623-27.854h-14.532
			V277.109z"/>
		<path fill="#FFFFFF" d="M571.908,203.643h35.524c26.238,0,43.192,16.953,43.192,43.595c0,26.238-16.551,46.018-44,46.018h-34.717
			V203.643z M591.285,277.109h14.531c16.955,0,24.624-12.917,24.624-30.275c0-14.532-7.265-27.854-24.624-27.854h-14.531V277.109z"
			/>
		<path fill="#FFFFFF" d="M695.027,203.643v89.612h-19.376v-89.612H695.027z"/>
		<path fill="#FFFFFF" d="M724.493,292.851v-89.611h23.818c11.301,20.184,31.889,56.108,35.924,66.2h0.404
			c-0.807-9.284-0.807-25.026-0.807-39.559v-26.642h17.357v89.611h-22.605c-9.688-17.356-32.293-58.934-36.732-69.428h-0.404
			c0.809,7.669,0.809,26.237,0.809,42.382v27.046H724.493z"/>
		<path fill="#FFFFFF" d="M908.565,292.851h-14.129c-0.807-2.824-1.211-5.65-1.615-8.879c-4.842,6.862-13.725,10.494-26.238,10.494
			c-25.832,0-40.365-19.779-40.365-45.21c0-27.045,15.742-47.229,43.998-47.229c23.01,0,36.734,12.917,38.754,28.257h-19.375
			c-2.02-6.055-6.461-12.917-19.783-12.917c-18.164,0-23.41,15.338-23.41,31.081c0,15.34,6.055,30.678,23.814,30.678
			c16.551,0,19.379-11.301,19.379-19.375v-0.808h-19.783v-15.742h38.754V292.851L908.565,292.851z"/>
		<path fill="#FFFFFF" d="M954.181,292.851l-25.027-90.823h7.264c6.057,21.799,19.781,71.852,21.797,82.752l0,0
			c1.615-8.478,16.553-58.532,23.01-82.752h7.67c6.057,22.202,20.588,75.486,21.797,82.348l0,0
			c2.826-12.917,18.166-60.952,24.221-82.348h7.266l-27.852,90.823h-8.074c-6.055-21.393-20.184-73.868-21.799-81.538l0,0
			c-2.42,11.706-16.146,59.338-23.006,81.538H954.181z"/>
		<path fill="#FFFFFF" d="M1074.067,202.027v90.823h-6.863v-90.823H1074.067z"/>
		<path fill="#FFFFFF" d="M1116.05,250.468v42.383h-7.268v-90.823h32.697c17.76,0,27.449,9.689,27.449,23.815
			c0,11.707-6.861,18.974-16.953,21.395c9.283,2.019,15.742,8.478,15.742,23.817v3.632c0,6.458-0.404,14.937,1.211,18.568h-7.268
			c-1.615-4.036-1.209-11.303-1.209-18.972v-2.421c0-14.936-4.439-20.991-21.799-20.991L1116.05,250.468L1116.05,250.468z
			 M1116.05,244.009h21.795c16.148,0,23.414-6.055,23.414-17.762c0-11.303-7.266-17.357-21.395-17.357h-23.814V244.009z"/>
		<path fill="#FFFFFF" d="M1252.485,248.448h-46.422v37.944h50.861l-1.207,6.458h-56.516v-90.823h55.707v6.459h-48.439v33.101h46.42
			v6.861H1252.485L1252.485,248.448z"/>
	</g>
	<g>
		<path fill="#FFFFFF" d="M273.602,706.203l-21.394,60.146h-26.642l71.447-200.622h32.699l74.676,200.622h-28.255l-22.203-60.146
			H273.602z M347.069,683.599c-18.973-52.88-29.469-80.732-33.908-96.072h-0.404c-4.843,16.955-16.549,50.86-31.889,96.072H347.069z
			"/>
		<path fill="#FFFFFF" d="M442.334,620.223c18.164,68.623,28.658,107.778,31.081,122.715h0.404
			c2.423-13.725,12.917-50.056,33.504-122.715h24.623c23.01,82.752,29.872,106.567,31.889,119.888h0.404
			c3.634-15.741,9.285-37.54,32.295-119.888h25.43L576.753,766.35h-27.447c-14.129-53.285-28.258-102.53-31.488-118.273h-0.401
			c-2.826,16.147-15.743,60.55-32.295,118.273h-28.257L414.48,620.223H442.334z"/>
		<path fill="#FFFFFF" d="M764.456,734.46c0,13.32,1.211,27.853,2.018,31.89h-24.217c-1.212-3.229-2.02-10.092-2.423-18.973
			c-5.247,9.688-16.956,22.605-45.211,22.605c-34.312,0-49.247-22.605-49.247-44.808c0-32.697,25.431-47.631,69.027-47.631
			c10.09,0,19.375,0,25.026,0v-12.516c0-12.916-4.036-28.658-31.485-28.658c-24.221,0-28.66,12.109-31.081,23.411h-24.222
			c2.02-20.184,14.533-43.595,56.515-43.191c35.521,0,55.3,14.533,55.3,48.035V734.46z M739.834,695.305c-4.844,0-15.744,0-23.815,0
			c-29.064,0-44.809,8.073-44.809,28.66c0,15.338,10.496,26.238,28.257,26.238c35.12,0,39.963-23.817,39.963-50.056v-4.843H739.834z
			"/>
		<path fill="#FFFFFF" d="M818.144,660.185c0-20.587,0-31.888-0.402-39.559h24.623c0.404,4.038,0.807,15.744,0.807,29.872
			c7.67-19.779,25.027-32.696,49.246-33.101v25.027c-29.869,0.808-49.246,16.549-49.246,53.688v71.044h-25.43L818.144,660.185
			L818.144,660.185z"/>
		<path fill="#FFFFFF" d="M1049.04,554.829v170.348c0,13.723,0,27.043,0.404,41.173h-24.223c-0.805-4.037-1.207-14.936-1.207-20.589
			c-7.27,15.341-22.203,24.222-46.02,24.222c-37.541,0-60.549-30.275-60.549-75.082c0-44.806,25.027-77.906,65.395-77.906
			c25.834,0,37.539,10.494,41.174,18.568v-80.733H1049.04L1049.04,554.829z M943.28,694.093c0,35.12,16.955,54.495,39.561,54.495
			c34.309,0,41.576-25.026,41.576-57.321c0-32.293-6.863-52.88-39.561-52.88C959.022,638.387,943.28,658.57,943.28,694.093z"/>
		<path fill="#FFFFFF" d="M1112.819,724.772c4.037,16.146,16.145,25.431,35.928,25.431c21.391,0,29.867-9.285,29.867-22.605
			c0-13.725-6.859-20.184-34.715-26.643c-41.574-10.09-50.457-23.009-50.457-42.786c0-20.588,15.338-41.175,52.881-41.175
			c37.539,0,53.283,21.797,54.898,42.384h-24.221c-2.018-9.283-9.283-22.604-31.891-22.604c-20.586,0-26.641,9.687-26.641,19.375
			c0,10.898,6.055,16.146,32.697,22.604c44.402,10.497,53.281,25.431,53.281,47.229c0,25.43-20.182,44.404-56.51,44.404
			c-37.945,0-56.514-18.975-60.146-45.212L1112.819,724.772L1112.819,724.772z"/>
		<path fill="#FFFFFF" d="M1272.669,592.773c0,18.569-14.531,33.503-33.908,33.503c-18.971,0-33.906-14.531-33.906-33.503
			c0-18.165,14.936-33.101,33.906-33.101C1258.138,559.673,1272.669,574.608,1272.669,592.773z M1213.331,592.773
			c0,14.532,10.898,26.237,25.834,26.237c14.533,0,25.025-11.705,25.025-26.237c0-14.53-10.492-26.642-25.43-26.642
			C1224.229,566.534,1213.331,578.243,1213.331,592.773z M1233.515,610.132h-7.67v-33.101c2.826-0.403,7.266-0.808,12.512-0.808
			c6.057,0,8.883,0.808,11.305,2.421c1.613,1.211,3.229,4.038,3.229,7.267c0,3.634-2.826,6.459-6.861,7.669v0.404
			c3.229,1.211,4.844,3.632,6.055,8.074c0.807,4.844,1.615,6.861,2.422,8.073h-8.074c-0.807-1.212-1.615-4.038-2.422-8.073
			c-0.404-3.635-2.42-5.248-6.863-5.248h-3.631V610.132L1233.515,610.132z M1233.919,591.563h3.633c4.037,0,7.668-1.211,7.668-4.845
			c0-2.824-2.02-4.844-6.863-4.844c-2.016,0-3.229,0.404-4.033,0.404L1233.919,591.563L1233.919,591.563z"/>
	</g>
	<g>
		<path fill="#FFFFFF" d="M303.475,459.16c-2.827,13.726-13.321,24.222-32.296,24.222c-23.815,0-34.713-16.552-34.713-37.946
			c0-20.587,11.706-38.752,35.521-38.752c19.778,0,29.468,11.709,31.083,24.222h-16.147c-1.614-5.652-5.651-11.304-15.744-11.304
			c-13.32,0-18.567,12.112-18.567,25.433c0,12.513,4.439,25.835,18.972,25.835c10.497,0,13.726-6.863,15.34-11.305h16.552V459.16z"
			/>
		<path fill="#FFFFFF" d="M389.855,444.631c0,20.585-12.513,38.751-36.731,38.751c-23.411,0-35.523-16.955-35.523-38.348
			c0-21.798,13.32-38.351,36.734-38.351C376.134,406.684,389.855,422.024,389.855,444.631z M334.556,444.631
			c0,14.529,6.458,25.43,19.779,25.43c14.533,0,19.376-12.109,19.376-25.43c0-14.129-5.651-25.029-19.78-25.029
			C340.207,419.602,334.556,430.098,334.556,444.631z"/>
		<path fill="#FFFFFF" d="M423.767,407.896v44.402c0,14.129,7.264,18.571,15.337,18.571c9.285,0,14.937-4.847,14.937-18.571v-44.402
			h16.145v43.597c0,25.431-14.934,31.89-31.484,31.89c-16.953,0-31.485-6.862-31.485-31.487v-43.999H423.767z"/>
		<path fill="#FFFFFF" d="M491.983,407.896h30.68c15.741,0,26.643,8.882,26.643,23.01c0,16.146-12.112,23.815-27.047,23.815h-14.127
			v27.854h-16.148V407.896z M508.132,441.4h12.108c7.266,0,12.917-2.827,12.917-10.495c0-7.669-5.651-10.496-12.513-10.496h-12.513
			V441.4z"/>
		<path fill="#FFFFFF" d="M566.258,407.896h16.148v61.357h37.135l-2.019,13.321h-51.265V407.896z"/>
		<path fill="#FFFFFF" d="M684.935,450.281h-35.521v18.972h39.155l-2.02,13.321h-52.879v-74.679h52.879v13.32h-37.136v16.148h35.521
			V450.281z"/>
		<path fill="#FFFFFF" d="M716.826,460.371c1.613,7.671,7.264,10.9,15.741,10.9s12.109-3.229,12.109-8.881
			c0-6.055-3.632-8.882-16.146-11.706c-20.183-4.846-25.431-12.111-25.431-22.201c0-12.918,9.688-21.8,27.45-21.8
			c19.778,0,27.851,10.497,28.657,21.396h-16.144c-0.808-4.439-3.23-9.687-12.918-9.687c-6.46,0-10.495,2.823-10.495,8.07
			c0,5.251,3.227,7.268,15.339,10.094c21.798,5.247,26.237,13.32,26.237,23.814c0,13.726-10.496,23.011-29.871,23.011
			c-18.973,0-29.063-9.285-30.678-23.011H716.826z"/>
		<path fill="#FFFFFF" d="M773.741,434.537c2.422-8.881,7.266-20.587,10.094-25.834l6.053-0.808
			c-2.422,6.459-5.248,17.357-6.457,25.431L773.741,434.537z"/>
		<path fill="#FFFFFF" d="M899.685,459.16c-2.826,13.726-13.32,24.222-32.293,24.222c-23.818,0-34.715-16.552-34.715-37.946
			c0-20.587,11.705-38.752,35.521-38.752c19.781,0,29.467,11.709,31.082,24.222h-16.146c-1.613-5.652-5.652-11.304-15.742-11.304
			c-13.32,0-18.568,12.112-18.568,25.433c0,12.513,4.439,25.835,18.973,25.835c10.494,0,13.725-6.863,15.338-11.305h16.551V459.16z"
			/>
		<path fill="#FFFFFF" d="M916.64,407.896h16.145v29.064h29.869v-29.064h16.148v74.679h-16.148v-32.293h-29.869v32.293H916.64
			V407.896z"/>
		<path fill="#FFFFFF" d="M1070.028,444.631c0,20.585-12.512,38.751-36.732,38.751c-23.41,0-35.521-16.955-35.521-38.348
			c0-21.798,13.32-38.351,36.734-38.351C1055.901,406.684,1070.028,422.024,1070.028,444.631z M1014.325,444.631
			c0,14.529,6.457,25.43,19.779,25.43c14.533,0,19.375-12.109,19.375-25.43c0-14.129-5.65-25.029-19.779-25.029
			C1019.976,419.602,1014.325,430.098,1014.325,444.631z"/>
		<path fill="#FFFFFF" d="M1104.745,407.896v74.679h-16.146v-74.679H1104.745z"/>
		<path fill="#FFFFFF" d="M1190.321,459.16c-2.824,13.726-13.32,24.222-32.293,24.222c-23.814,0-34.717-16.552-34.717-37.946
			c0-20.587,11.709-38.752,35.525-38.752c19.777,0,29.467,11.709,31.08,24.222h-16.145c-1.615-5.652-5.65-11.304-15.744-11.304
			c-13.322,0-18.568,12.112-18.568,25.433c0,12.513,4.439,25.835,18.973,25.835c10.496,0,13.725-6.863,15.34-11.305h16.549V459.16z"
			/>
		<path fill="#FFFFFF" d="M1258.542,450.281h-35.521v18.972h39.154l-2.018,13.321h-52.883v-74.679h52.883v13.32h-37.137v16.148
			h35.521V450.281L1258.542,450.281z"/>
	</g>
	<g>
		<polygon fill="#FFFFFF" points="378.554,880.99 402.371,929.43 455.654,937.1 416.901,974.639 426.187,1027.922 378.554,1002.492 
			330.52,1027.922 339.803,974.639 301.052,937.1 354.738,929.43 		"/>
		<polygon fill="#FFFFFF" points="567.47,880.99 591.688,929.43 644.972,937.1 606.221,974.639 615.506,1027.922 567.47,1002.492 
			519.837,1027.922 529.122,974.639 490.371,937.1 543.654,929.43 		"/>
		<polygon fill="#FFFFFF" points="755.175,880.99 778.989,929.43 832.271,937.1 793.521,974.639 802.806,1027.922 755.175,1002.492 
			707.137,1027.922 716.423,974.639 677.669,937.1 731.356,929.43 		"/>
		<polygon fill="#FFFFFF" points="937.628,880.99 961.446,929.43 1014.729,937.1 975.978,974.639 985.261,1027.922 
			937.628,1002.492 889.997,1027.922 898.876,974.639 860.528,937.1 913.812,929.43 		"/>
		<polygon fill="#FFFFFF" points="1120.085,880.99 1143.899,929.43 1197.183,937.1 1158.837,974.639 1167.718,1027.922 
			1120.085,1002.492 1072.452,1027.922 1081.737,974.639 1042.985,937.1 1096.267,929.43 		"/>
	</g>
	<g>
		<path fill="#FFFFFF" d="M552.938,1353.275v-1.211c0-18.568,12.109-37.541,38.751-57.725
			c20.587-15.742,26.238-20.586,26.238-34.715c0-12.916-6.863-22.604-22.2-22.604c-15.34,0-22.606,8.074-25.431,23.816h-16.551
			c2.422-21.801,16.146-37.943,42.385-37.943c28.659,0,39.964,18.566,39.964,36.328c0,19.375-8.074,27.045-31.892,45.211
			c-17.761,13.725-27.046,23.814-30.273,33.504h67.008l-2.423,14.934L552.938,1353.275L552.938,1353.275z"/>
		<path fill="#FFFFFF" d="M752.751,1288.285c0,31.891-8.881,67.414-44.807,67.414c-35.119,0-44.806-33.102-44.806-66.201
			c0-32.697,10.494-66.201,45.21-66.201C743.064,1222.895,752.751,1255.59,752.751,1288.285z M681.303,1289.094
			c0,24.221,4.036,51.668,26.642,51.668c22.606,0,26.643-26.238,26.643-52.477c0-24.621-4.036-50.861-26.238-50.861
			S681.303,1260.838,681.303,1289.094z"/>
		<path fill="#FFFFFF" d="M803.208,1353.275v-107.777c-6.457,4.439-19.373,10.092-26.641,11.303v-13.725
			c9.688-2.826,22.201-10.094,31.082-18.166h12.916v128.77L803.208,1353.275L803.208,1353.275z"/>
		<path fill="#FFFFFF" d="M924.712,1253.166c-2.422-9.281-8.477-16.145-21.393-16.145c-21.396,0-28.662,20.182-29.066,47.229
			c5.248-8.881,14.936-17.762,32.293-17.762c24.623,0,39.156,18.164,39.156,42.789c0,25.027-14.936,46.422-43.191,46.422
			c-35.119,0-45.615-28.662-45.615-64.588c0-35.117,11.303-68.217,47.229-68.217c26.24,0,36.33,16.951,37.945,30.271H924.712
			L924.712,1253.166z M927.94,1310.086c0-14.129-5.65-29.469-25.025-29.469c-15.744,0-27.045,10.092-27.045,29.469
			c0,10.494,5.246,31.08,26.641,31.08C920.675,1341.166,927.94,1326.23,927.94,1310.086z"/>
	</g>
	<path fill="#FCFCFC" d="M97.2,12.305v1475.391h1304.238V12.305H97.2z M1354.21,55.497v1076.569H144.429V55.497H1354.21z
		 M144.429,1444.102v-292.656H1354.21v292.656H144.429z"/>
</g>
</svg>
