<?xml version="1.0" encoding="utf-8"?>
<!-- Generator: Adobe Illustrator 22.1.0, SVG Export Plug-In . SVG Version: 6.00 Build 0)  -->
<svg version="1.1" id="Layer_1" xmlns="http://www.w3.org/2000/svg" xmlns:xlink="http://www.w3.org/1999/xlink" x="0px" y="0px"
	 viewBox="0 0 469 285" style="enable-background:new 0 0 469 285;" xml:space="preserve">
<style type="text/css">
	.st0{fill:#58595B;}
	.st1{fill:#CCCCCB;}
</style>
<g>
	<path class="st0" d="M285.9,31.8c-8-7.8-17.2-14-27.3-18.4C248,8.8,236.8,6.6,225,6.6c-11.8,0-22.9,2.2-33.5,6.8
		c-10.2,4.4-19.4,10.6-27.4,18.4c-8,8-14.1,17.2-18.6,27.4c-4.3,10.7-6.5,21.9-6.5,33.5c0,11.8,2.2,23,6.5,33.5
		c4.5,10.4,10.6,19.7,18.6,27.4c8,8,17.2,14.2,27.4,18.6c10.6,4.6,21.7,6.8,33.5,6.8s23-2.2,33.6-6.8c10.1-4.4,19.3-10.6,27.3-18.6
		c8-7.7,14.2-17,18.4-27.4c4.6-10.5,6.8-21.7,6.8-33.5c0-11.6-2.2-22.8-6.8-33.5C300.1,49,293.9,39.8,285.9,31.8L285.9,31.8z"/>
	<path d="M293.5,63.9c-3.8-8.9-9-16.7-16-23.7c-6.8-6.8-14.5-12-23.5-15.8c-9.2-4-18.8-6-29-6s-19.7,2-28.9,6
		c-9,3.8-16.8,9-23.6,15.8c-7,7-12.2,14.8-16,23.7c-3.7,9.2-5.7,18.8-5.7,28.8c0,10.2,2,19.8,5.7,29c3.8,8.9,9,16.7,16,23.7
		c6.8,6.8,14.6,12,23.6,15.8c9.2,4,18.7,6,28.9,6c10.2,0,19.8-2,29-6c9-3.8,16.7-9,23.5-15.8c7-7,12.2-14.8,16-23.7
		c3.8-9.2,5.8-18.8,5.8-29C299.3,82.7,297.3,73.1,293.5,63.9L293.5,63.9z"/>
	<path class="st0" d="M272.9,47.8l-3.4-4.4l-0.8-2l-0.4-1.2l-3.6-0.6c-2.1,0.6-5.1,3.4-8.7,8.6c-5,7.2-9.2,12.4-13,15.7
		c-2.6,2.2-5.6,3.6-8.6,4c-0.8,0-1.4-0.2-2-0.6c-1-0.6-1.6-2.4-1.6-5.2l5.4-6.1l1.4-5c0-1-1-1.4-2.8-1.2l-4.4,0.8l-3,1l-1-1.2
		l-2.4-2.2c-1.8-1.4-3.2-1.2-3.8,0.8l-0.4,4c-5.8,2.8-8.6,5-8.6,6.6c0,1.2,0.6,2.2,1.6,2.7l6,2l-0.4,3.2l-2.4,0.2
		c-3.4-0.4-6.4-1.6-8.7-3.8c-3.4-2.9-7.8-8.1-13-15.7c-2.6-3.8-5.6-6.8-8.8-8.6l-1.4-0.6l-1.8,0.2l-1,1.2V42l-1.2,1.8l-3,4l-6.6,8.8
		l-5.6,10.7c-2.6,5.6-4.2,12.2-4.8,19.6c-0.6,7.2-0.2,14,1.2,20.6c2.4,10.4,6.8,19.4,13.2,27.1l3,3.4l1,1l1.2-0.1
		c0.4-0.7,0-1.3-1-2.3l-2-2.6c-2.4-3.4-4.4-7.1-6-11c-3.8-9.7-4.2-15.1-1.6-16.1c1.8-0.8,4,1,6.6,5.2l1.8,3.2c0.6,1.8,1.4,2.4,2,2
		c0.6-0.2,0.6-0.8,0.4-1.4l-1.2-1.8l-1.6-4l-2.2-7.6c-1.2-6.4-0.6-10.2,1.6-11.6s5-0.2,8.2,3.8l2.6,4l2,5.2c0.2,1.4,0.6,2,1.2,2
		c1-0.2,1-1,0.4-2.4l-0.4-4l0.4-3.8c0.6-1.4,1.4-2.4,2.4-2.8c2.2-0.6,4.2,0.4,6,3c2.2,3,3.2,7,3,12l-1.4,2c-2.8,1.2-4.2,2.6-4,4.2
		c0.2,2,0.8,3.6,2,4.6c5.8-2.8,10.1-3.2,13.1-1.4c2.4,1.4,4.8,5.9,7.2,13.3c2.4,7.4,4,15,4.6,23l0.2,2.6l0.2,2.6
		c-0.2,1,0.2,1.4,0.8,1.4c0.8,0,1.2-0.4,1-1.4l0.4-5.2c0.6-8.2,2.2-15.7,4.4-22.7c2.2-7.3,4.6-11.6,7-13.4c2.8-2,7.2-1.6,13,1
		c1.6-0.8,2.4-2.2,2.6-4.4c0-1.8-1.4-3.2-4.2-4.2c-0.8-0.4-1.2-1.2-1.4-2.2c0-5,1-8.8,3-11.8c1.8-2.8,3.8-3.8,6-3.2
		c1,0.4,1.8,1.4,2.3,2.8l0.7,4l-0.7,4c-0.5,1.4-0.3,2,0.5,2.2c0.5,0.2,1-0.4,1.2-1.8l2.2-5.4l2.5-3.8c3.2-4,5.8-5.4,8-4
		s2.8,5.4,1.8,11.8l-2.2,7.6l-1.8,3.8l-1,1.8c-0.2,0.8-0.2,1.2,0.2,1.4c0.6,0.4,1.4-0.2,2-1.8l2-3.2c2.6-4.4,4.8-6.2,6.6-5.4
		c2.6,1.2,2,6.6-1.8,16.1c-1.4,4.1-3.4,7.8-5.8,11.2l-2.2,2.6c-1,0.8-1.2,1.4-0.8,2l1,0.3l1-1l3-3.5c6.6-7.8,11-16.7,13.2-26.9
		c1.4-6.6,2-13.4,1.4-20.6c-0.6-7.4-2.4-14-5-19.6l-5.6-10.7L272.9,47.8L272.9,47.8z"/>
	<path class="st1" d="M271.1,49.8l-4-5.2l-0.6-1.4l-0.2-0.8c-0.2-0.6-0.8-0.6-1.4,0l-2.5,2.4c-3,3.2-5.8,8.2-8,14.8l-2.8,8.1l-2.4,4
		c-0.8,1-1.8,1.6-3.2,1.8l-5.8-1.2l-6.4-2.2c-2-0.4-2.6-0.4-1.6,0.2c5.6,3.4,7,10,4.2,19.8l-3.2,9.8l-3.8,9
		c-2.8,7.2-4.2,14.5-4.4,22.3v0.4v-0.4c0-3.8-0.6-8.2-1.6-13.1c-1.4-6.4-3.2-10.4-5.2-12.2c-1.8-1.4-4-1.8-6.2-1.2
		c-2.2,0.6-3.9,2-4.9,4.4c0.6-5,1.3-8,2.7-8.8h3.2l5.4,2.4l-2.4-6.2l-2.4-7c-1-5.2-1-9.6,0.4-13.2c0.8-1.8,2.2-3.4,4-4.4l3.2-1.2
		l1-0.8l-0.4-2.8l-0.6-1l-0.2,2.8l-1,0.6l-1.6,0.2c-3,0.2-5.8,1.2-8.4,2.6c-1.9,1.2-3.9,1.6-5.7,1.4c-1.4-0.2-2.6-1-3.4-2l-2.2-3.8
		l-2.4-7.7c-2.2-6.6-5.2-11.8-8.6-15.4l-2.4-2.4h-1.6v0.8l-0.8,1.4l-3.6,4.6l-5.8,8.8c-4.2,8.1-6.2,16.1-6.4,23.9
		c-0.2,9,1,15.8,3.8,20.8l0.2-0.2c-1.8-6-2.4-12.6-1.8-20c0.4-5.2,1.6-10.6,3.8-16.4l6-12.3c-1,4.8-1,10.5-0.4,17.5
		c1,8.6,3,15.6,6.4,21h0.2c-2.2-6.4-3.6-13.8-4-22c-0.2-7,0.2-12.9,1.4-17.9l1.6-4.8l1.6-1.4l2,2l2,4c1.8,4.2,2.8,8.8,3.4,13.3
		l2.4,11.8c1,3.6,2.6,5.8,4.4,6.6c1.8,0.8,3.6,0.4,5.8-1c2-1.4,3.3-3.2,4.1-5.4c-0.6,3-1,5.4-0.8,7.6s1,4.8,2.2,7.6l3.6,6.6
		l-3.6-1.8l-1.8-0.4c-1.5-0.2-2.7,0.8-3.3,3c-1,2.6-1.4,6-1.4,10.2c-0.2,0.8-0.6,1.4-1.2,1.6c-3.2,0.6-4.6,1.8-4,3.6l7.4-1.8
		c-0.2-1.6,0.6-3.2,1.9-4.8c1.6-1.8,3.4-2.2,5.6-1.4c2.8,1.2,5.2,5,7,11.6c1.6,5.3,2.6,11.5,3,18.5l0.4,10.6l0.6-10.6
		c0.2-7,1.2-13.2,2.8-18.5c1.8-6.6,4.2-10.4,7-11.6c2.2-0.8,4-0.4,5.8,1.4c1.4,1.6,2,3.2,1.8,4.8l7.4,1.6c0.8-1.4-0.4-2.6-3.8-3.4
		c-0.8-0.2-1.2-0.8-1.2-1.6l-1.4-10.2c-0.8-2.2-2-3.2-3.4-3l-2.2,0.8l-2.6,1.2l2.4-4.8c1.8-3.8,2.8-7.8,2.8-11.6l-0.8-5.4
		c1.2,2.8,2.4,4.6,3.4,5.6s2,1.4,3.2,1.6s2.4-0.2,3.4-1.2c1.6-1.4,3-3.8,4.2-7.2l2.4-10.6c1-5.3,2-9.9,3.3-13.3l2.3-4l1.7-2l1.6,1.4
		l1.8,4.8c1,5,1.4,10.9,1.2,17.9c-0.2,8.2-1.6,15.6-4,22h0.2c3.4-5.4,5.4-12.4,6.4-21c0.6-7,0.6-12.7-0.4-17.5l6,12.3
		c2.2,5.8,3.4,11.2,4,16.4c0.6,7.4-0.2,14-2,20l0.2,0.2c2.8-4.8,4.2-11.8,4-20.8c-0.2-7.4-2.4-15.2-6.4-23.3L271.1,49.8L271.1,49.8z
		"/>
	<path d="M223.4,56l-1.2,1.8c-0.2,0.4,0.2,0.6,0.8,0.8l2.4,0.2c1,0,1.4-0.2,1.6-0.6l-0.6-1.6L223.4,56L223.4,56z"/>
	<polygon points="229.8,55.4 230.2,57.4 231.4,56 231.8,54.6 230.6,54.8 	"/>
	<path class="st0" d="M467.4,270c-1-1-2.4-1.6-3.8-1.6c-1.6,0-3,0.6-4,1.6c-1,1.1-1.6,2.4-1.6,4c0,1.4,0.6,2.8,1.6,3.8
		c1.2,1,2.6,1.6,4,1.6s2.8-0.6,3.8-1.6s1.6-2.4,1.6-3.8C469,272.4,468.4,271.1,467.4,270L467.4,270z M463.6,269.2
		c1.2,0,2.2,0.4,3.2,1.4s1.4,2,1.4,3.4s-0.4,2.4-1.4,3.2c-1,1-2,1.4-3.2,1.4c-1.4,0-2.4-0.4-3.4-1.4s-1.4-2-1.4-3.2
		c0-1.4,0.4-2.4,1.4-3.4C461.2,269.6,462.2,269.2,463.6,269.2L463.6,269.2z"/>
	<path class="st0" d="M466,272.6l-1-1.4l-1.6-0.4h-2.2v6.2h1.2v-2.4h0.8l1.2,0.2l0.6,1.4v0.6v0.2h1v-0.2v-0.2v-1l-0.4-1l-1-0.4
		l0.8-0.4L466,272.6L466,272.6z M463.2,271.6l1.4,0.2l0.4,1l-0.6,0.8l-1,0.2h-1v-2.2H463.2L463.2,271.6z"/>
	<path class="st0" d="M195.5,227.9c-0.2-11.4-0.2-18.5,0.2-22l-0.6-0.2l-2.6,1.7l-4.4-0.5c-7.2-2.8-14.6-3.8-22-3.2
		c-4.6,0.2-9,1.2-13.1,3.2c-4.2,1.8-8,4.5-11.5,7.8c-7.1,7.4-10.5,17-10.3,28.7c0.2,11.4,3.8,20.4,11.2,26.8c7,6.2,15.7,9,26.3,8.6
		c7.4-0.2,13.8-2.2,19.2-5.8c4.2-2.6,7.2-6,9.2-9.8l1.6-3.2l-1-0.6c-3.4,5-7.6,9-12.6,11.7c-4.6,2.3-9.8,3.3-15.4,2.9
		c-6.6-0.2-12.2-3.2-16.6-8.6c-4.6-5.8-7.1-13.4-7.3-22.5c-0.3-10,1.6-18.2,5.7-24.8c4.4-7,10.6-10.6,18.4-10.7
		c6.2-0.3,11.4,1.5,16,5.3c4.6,4,7.4,9,8.4,15.2L195.5,227.9L195.5,227.9z"/>
	<path class="st0" d="M53.9,220.7c-0.8-4.8-3.2-8.6-7.4-11.3c-4.3-3.3-10.4-4.7-17.7-4.5l-28.6,0.2v1.3l1.8,0.3l2.4,0.8l3.2,2
		c1,1,1.4,2,1.4,3.4v55.9c0,2-1.6,3.8-4.6,5.6L0,275.6v1.2l17.9-0.2l18.7,0.4c7.3-0.2,13.1-2,17.5-4.9c4.6-3.5,7.2-7.9,7.4-13.5
		c0.2-5.8-1.8-10.8-6.4-14.6c-4.2-3.5-9-5.3-14.5-5.5c3.9-0.6,7.1-2.2,9.7-4.8C53.5,230.3,54.7,226.1,53.9,220.7L53.9,220.7z
		 M36,212.1c3,2.6,4.6,6.2,4.6,10.6c0,5-1.2,8.8-3.6,11c-3,2.6-7.8,3.4-14.8,2.8v-27c1.2-0.6,2.6-0.8,4.2-1
		C30.2,208.5,33.4,209.7,36,212.1L36,212.1z M47.1,257.2c0.2,3-0.2,5.4-1.2,7.6c-2.4,5.4-7.3,8.4-15.1,8.6c-5.8,0-8.6-2.2-8.6-6.8
		v-25.5l6.2-0.6c7.4,0.6,12.8,3.3,16.1,8.5C45.9,251.2,46.9,254,47.1,257.2L47.1,257.2z"/>
	<path class="st0" d="M449.6,206.1v-1h-30.3v1l4.4,1.4c2.8,1.4,4.2,3.4,4.2,6v55.3c0,2.3-1.4,4-4.2,5.6l-4.4,1.4v1h30.3v-1l-4.2-1.4
		l-2.8-2c-1-1-1.6-2.2-1.6-3.6v-55.5c0-2.2,1.4-4.2,4.4-5.8C447,206.9,448.4,206.4,449.6,206.1L449.6,206.1z"/>
	<path class="st0" d="M304.6,205.4l-9.4-0.3l-24,0.3v0.7l4.2,1.4l2.8,2c1,1,1.6,2,1.6,3.4V269c0,1.4-0.6,2.4-1.6,3.4l-2.8,1.8
		l-4.2,1.6v1h29.2v-1l-3.8-1.4l-2.6-1.8c-0.8-1-1.3-2-1.3-3.4v-27.5c0-0.6,0.5-1,1-1c1.9,0,4.3,1.8,7.3,5.1l6,8.8l5.6,10l6,8.4
		c2.3,2.4,4.7,3.6,7.1,3.8c5.2,0.6,10.6,0.6,16,0.2v-1.2c-2.8-0.4-5.2-1.4-7-2.8l-4-4.8l-5.4-8.6l-6-9.6c-3.9-6.2-8.1-9.7-12.5-10.7
		c5.4-0.2,9.8-1.8,13.1-4.8c3.8-3.2,5.6-7.2,5-12c-0.6-5-3-9-7.1-12.1C314,207.4,309.6,205.7,304.6,205.4L304.6,205.4z M297.3,208.5
		c3.8,0.2,7,1.4,9.6,3.9s4,5.9,4.2,10.3c0.2,4-0.2,7-1.4,9.2c-1.2,2-3.4,3.4-6.6,4.4l-5.6,0.6l-4.6-0.4v-27.1L297.3,208.5
		L297.3,208.5z"/>
	<path class="st0" d="M405.8,215.7c-7.2-6.6-16.8-10-28.6-10.6l-19.1,0.3l-15.4-0.3v1l4.2,1.4l2.8,1.9c1,1,1.4,2.1,1.4,3.5V269
		l-1.4,3.6l-2.8,1.8l-4.2,1.2v1.2l34.1,0.4c12.8,0.2,23-3.4,30.4-11.2c3-3.4,5.4-7.2,7.2-11.6c1.4-4,2.2-8.1,2.2-12.5
		C416.6,231.1,413,222.3,405.8,215.7L405.8,215.7z M378.2,209.4c7,1.3,12.4,4.9,16.6,10.3c4.2,5.6,6.2,12.4,6.4,20.6
		c0.2,8.3-1.2,15.3-4.2,20.7c-3.2,6.2-8.2,10.2-15.2,11.8l-5.4,0.6l-5.3-0.2c-2.2-0.6-3.8-1.1-4.4-1.8c-1.4-1.2-2.2-3.2-2.4-6.2
		v-55.7C368.1,208.4,372.9,208.4,378.2,209.4L378.2,209.4z"/>
	<path class="st0" d="M102.9,204.1L92,204.4l-22.2,63.3c-1,3-2.8,5-5.2,6.4l-5.6,1.8v1h24v-1l-4.8-1.8c-1.4-1-2.2-2.2-2.2-4l1.4-6
		l6.2-18.2h20.1l6.2,17.4l1.6,6c0.2,2-0.4,3.6-2,4.6l-4.6,1.8v1.2h31.2v-1.2l-4.8-1.4c-2.2-1-3.9-2.8-5-5.6L102.9,204.1L102.9,204.1
		z M102.3,240.7H85.2l8.6-24.6L102.3,240.7L102.3,240.7z"/>
	<path class="st0" d="M236.4,204.4h-10.8l-22.3,63.3c-1,3-2.6,5-5.2,6.4l-5.4,1.6v1.2h23.7v-1l-4.6-1.8c-1.6-1-2.4-2.2-2.2-4l1.2-6
		l6.2-18.2h20.4l7.8,23.4c0.2,2-0.6,3.6-2,4.6c-1,0.8-2.6,1.4-4.6,1.8v1.2h30.9v-1.2l-4.6-1.4c-2.1-1-3.8-2.8-4.9-5.6L236.4,204.4
		L236.4,204.4z M236,240.7h-17.2l8.6-24.6L236,240.7L236,240.7z"/>
</g>
</svg>
