<?xml version="1.0" encoding="utf-8"?>
<!-- Generator: Adobe Illustrator 22.1.0, SVG Export Plug-In . SVG Version: 6.00 Build 0)  -->
<svg version="1.1" id="Layer_1" xmlns="http://www.w3.org/2000/svg" xmlns:xlink="http://www.w3.org/1999/xlink" x="0px" y="0px"
	 viewBox="0 0 481 571" style="enable-background:new 0 0 481 571;" xml:space="preserve">
<style type="text/css">
	.st0{fill:#FFFFFF;}
	.st1{fill:none;stroke:#FFFFFF;stroke-width:3.8274;stroke-miterlimit:10;}
</style>
<g>
	<g>
		<path class="st0" d="M97.3,206.7c5.7,0,9.9,0.4,12.5,1.1c2.6,0.7,4.4,1.5,5.6,2.5c2.5,2.1,3.7,5.4,3.7,9.8c0,3.3-1.8,6.4-5.3,9.4
			c4.5,2.3,6.8,6.5,6.8,12.7c0,4.8-1.6,8.4-4.8,10.8c-3.2,2.4-7.9,3.6-14.2,3.9H80.9l-0.7-6c0.6-0.8,2-1.6,4-2.4v-33.2
			c-2-0.7-3.3-1.5-4-2.5l0.7-6L97.3,206.7L97.3,206.7z M98.3,214.6h-3.8v12.6h6c2.5,0,4.4-0.6,5.7-1.9c1.3-1.3,2-2.8,2-4.6
			s-0.5-3.2-1.4-4.1c-0.9-0.9-2-1.5-3.2-1.7C102.3,214.7,100.6,214.6,98.3,214.6z M101,235.2h-6.5V249h5c3.3,0,5.8-0.5,7.5-1.5
			s2.5-2.7,2.5-5.2s-0.7-4.3-2-5.5C106.3,235.7,104.1,235.2,101,235.2z"/>
		<path class="st0" d="M164.7,252.9c-2.9,3.1-7.6,4.6-14,4.6s-11-1.5-13.6-4.5s-3.9-7.8-3.9-14.2v-23.5c-1.8-0.7-3.2-1.5-4-2.5
			l0.7-6h17l0.7,6c-0.8,0.9-2.1,1.7-4,2.5v23.8c0,3.5,0.6,6.1,1.7,7.7c1.1,1.7,3.2,2.5,6.1,2.5c3,0,5-0.9,6.3-2.6
			c1.2-1.7,1.8-4.3,1.8-7.7v-23.8c-2-0.7-3.3-1.5-4-2.5l0.7-6h15.9l0.7,6c-0.8,0.9-2.1,1.7-4,2.5v23.5
			C169,245.1,167.6,249.8,164.7,252.9z"/>
		<path class="st0" d="M221.3,221.4c0,3.3-1,6.1-3.1,8.3s-4.6,3.9-7.7,5.1c2.4,1,4,2.3,4.8,3.7l5.3,10.1c2.3,0.8,3.8,1.7,4.7,2.7
			l-0.7,5.6h-12.3l-8.4-17.8c-0.8-1.8-1.7-2.7-2.7-2.7h-4.7V248c3.5,0.8,5.7,1.7,6.6,2.8l-0.7,6h-19.7l-0.7-6c0.6-0.8,2-1.6,4-2.4
			v-33.2c-2-0.7-3.3-1.5-4-2.5l0.7-6h18.5c6.8,0.1,11.8,1.2,15.1,3.3C219.6,212.1,221.3,215.9,221.3,221.4z M200.7,214.6h-4.3v13.8
			h4.1c3.3,0,5.8-0.5,7.4-1.5s2.4-2.8,2.4-5.3c0-2.6-0.8-4.4-2.5-5.4C206.3,215.2,203.9,214.6,200.7,214.6z"/>
		<path class="st0" d="M254.2,214.4c-3.3,0-5.9,1.3-7.7,3.8c-1.8,2.5-2.7,6.9-2.7,13.2c0,12,3.3,18,9.9,18c2.6,0,4.9-0.4,7-1.2V240
			c-2.2-0.7-3.8-1.6-4.6-2.7l0.7-5.7h17l0.7,5.7c-0.6,0.8-1.8,1.5-3.4,2.3v13.5c-2.3,1.7-4.9,2.9-7.7,3.6c-2.8,0.7-6.3,1.1-10.4,1.1
			c-6.9,0-12-2-15.3-5.9c-3.2-4-4.9-10.4-4.9-19.3c0-8.9,1.9-15.5,5.8-19.7c3.9-4.3,9.1-6.4,15.9-6.4c6.7,0,12.2,1.5,16.5,4.6
			c0,0.3,0,0.8,0,1.7s-0.2,2.2-0.5,4.2s-0.8,3.6-1.5,4.9h-6.7c-0.7-1.4-1.2-3.4-1.5-6C258.8,214.7,256.6,214.4,254.2,214.4z"/>
		<path class="st0" d="M318.1,256.9h-33.7l-0.7-6c0.6-0.8,2-1.6,4-2.4v-33.2c-2-0.7-3.3-1.5-4-2.5l0.7-6h33.2v12.7l-5.4,0.7
			c-1.1-1-2-2.8-2.7-5.4h-11.3v12.5h10.1c0.6-1.5,1.2-2.5,1.8-3.1l4.6,0.5v12.9l-4.6,0.6c-0.6-0.5-1.2-1.5-1.8-3.1h-10.1V249h11.9
			c0.6-2.5,1.5-4.3,2.7-5.4l5.4,0.7v12.6H318.1z"/>
		<path class="st0" d="M367.6,221.4c0,3.3-1,6.1-3.1,8.3s-4.6,3.9-7.7,5.1c2.4,1,4,2.3,4.8,3.7l5.3,10.1c2.3,0.8,3.8,1.7,4.7,2.7
			l-0.7,5.6h-12.3l-8.4-17.8c-0.8-1.8-1.7-2.7-2.7-2.7h-4.8V248c3.5,0.8,5.7,1.7,6.6,2.8l-0.7,6H329l-0.7-6c0.6-0.8,2-1.6,4-2.4
			v-33.2c-2-0.7-3.3-1.5-4-2.5l0.7-6h18.5c6.8,0.1,11.8,1.2,15.1,3.3C366,212.1,367.6,215.9,367.6,221.4z M347,214.6h-4.3v13.8h4.1
			c3.3,0,5.8-0.5,7.4-1.5s2.4-2.8,2.4-5.3c0-2.6-0.8-4.4-2.5-5.4C352.6,215.2,350.2,214.6,347,214.6z"/>
		<path class="st0" d="M396,240.9h-16.7l-0.7-4.7c1.5-1.7,3.7-2.5,6.5-2.5h16.7l0.7,4.7C401.1,240.1,398.9,240.9,396,240.9z"/>
		<path class="st0" d="M114.1,318.1H80.8l-0.7-6c0.6-0.8,2-1.6,4-2.4v-33.2c-2-0.7-3.3-1.5-4-2.5l0.7-6h17l0.7,6
			c-0.8,0.9-2.1,1.7-4,2.5v33.7H106c0.6-2.5,1.5-4.3,2.7-5.4l5.4,0.7L114.1,318.1L114.1,318.1z"/>
		<path class="st0" d="M149.1,268l0.7,6c-0.8,0.9-2.1,1.7-4,2.5v33.2c1.9,0.8,3.3,1.6,4,2.4l-0.7,6h-17l-0.7-6c0.6-0.8,2-1.6,4-2.4
			v-33.2c-2-0.7-3.3-1.5-4-2.5l0.7-6H149.1z"/>
		<path class="st0" d="M191.6,275.9c-1.6-0.4-3.4-0.7-5.2-0.7s-3.2,0.4-4.3,1.3c-1.1,0.9-1.6,2.2-1.6,3.8s0.4,2.9,1.2,3.8
			c0.8,0.9,2.4,1.7,4.9,2.4l6.5,1.9c3.5,1,6.3,2.6,8.3,4.8c2.1,2.2,3.1,5.3,3.1,9.5c0,4.9-1.8,8.8-5.3,11.7c-3.6,2.9-8,4.3-13.3,4.3
			c-2.9,0-5.9-0.4-9-1.1s-5.6-1.8-7.7-3.2c0-0.3,0-0.8,0-1.7c0-0.8,0.2-2.2,0.5-4.2s0.8-3.6,1.5-4.9h6.9c0.8,1.5,1.2,3.5,1.4,6
			c1.7,0.7,3.7,1.1,5.9,1.1c2.3,0,4.1-0.5,5.6-1.6s2.2-2.6,2.2-4.6c0-0.9-0.1-1.7-0.2-2.3s-0.6-1.3-1.3-2c-0.8-0.7-1.8-1.3-3.2-1.7
			l-7.5-2.2c-7.6-2.2-11.4-7-11.4-14.5c0-4.4,1.6-7.9,4.8-10.6c3.2-2.6,7.4-4,12.5-4c5.2,0,10.2,1.2,15.2,3.5c0,0.3,0,0.8,0,1.7
			c0,0.8-0.2,2.2-0.5,4.2s-0.8,3.6-1.5,4.9h-6.9C192.3,280.5,191.8,278.6,191.6,275.9z"/>
		<path class="st0" d="M250.2,276.5c-1.5-0.6-3.6-0.9-6.5-0.9s-5.3,1.3-7.1,3.8c-1.8,2.5-2.7,6.9-2.7,13.2s0.9,10.8,2.6,13.4
			c1.7,2.6,4.3,4,7.7,4c5.2,0,9.8-0.8,14-2.3l2.6,6.5c-5.1,3.1-11.2,4.6-18.1,4.6s-11.9-2-15-5.9s-4.6-10.3-4.6-19.3
			s1.9-15.5,5.7-19.8c3.8-4.3,9.1-6.4,16-6.4c5.5,0,10.8,1.5,15.8,4.6c0,0.3,0,0.8,0,1.7s-0.2,2.2-0.5,4.2s-0.8,3.6-1.5,4.9h-6.9
			C250.9,281.4,250.5,279.4,250.2,276.5z"/>
		<path class="st0" d="M297.1,268l0.7,6c-0.8,0.9-2.1,1.7-4,2.5v33.2c1.9,0.8,3.3,1.6,4,2.4l-0.7,6h-17l-0.7-6c0.6-0.8,2-1.6,4-2.4
			v-33.2c-2-0.7-3.3-1.5-4-2.5l0.7-6H297.1z"/>
		<path class="st0" d="M337.2,318.7c-6.9,0-12-2-15.5-6c-3.4-4-5.1-10.4-5.1-19.3c0-8.9,1.9-15.5,5.6-19.7c3.8-4.2,9.1-6.4,16.1-6.4
			s12.1,1.9,15.6,5.7c3.4,3.8,5.1,10.1,5.1,19s-1.9,15.5-5.7,20S344.1,318.7,337.2,318.7z M330.2,279.4c-1.7,2.5-2.6,6.9-2.6,13.2
			s0.9,10.8,2.8,13.7c1.8,2.9,4.4,4.3,7.6,4.3s5.7-1.3,7.5-4s2.7-7.2,2.7-13.4c0-11.6-3.5-17.5-10.5-17.5
			C334.4,275.6,331.9,276.9,330.2,279.4z"/>
		<path class="st0" d="M400.7,275.9c-1.6-0.4-3.4-0.7-5.2-0.7c-1.8,0-3.2,0.4-4.3,1.3s-1.6,2.2-1.6,3.8s0.4,2.9,1.2,3.8
			c0.8,0.9,2.4,1.7,4.9,2.4l6.5,1.9c3.5,1,6.3,2.6,8.3,4.8c2.1,2.2,3.1,5.3,3.1,9.5c0,4.9-1.8,8.8-5.3,11.7c-3.6,2.9-8,4.3-13.3,4.3
			c-2.9,0-5.9-0.4-9-1.1s-5.6-1.8-7.7-3.2c0-0.3,0-0.8,0-1.7c0-0.8,0.2-2.2,0.5-4.2s0.8-3.6,1.5-4.9h6.9c0.8,1.5,1.2,3.5,1.4,6
			c1.7,0.7,3.7,1.1,5.9,1.1c2.3,0,4.1-0.5,5.6-1.6s2.2-2.6,2.2-4.6c0-0.9-0.1-1.7-0.2-2.3s-0.6-1.3-1.3-2s-1.8-1.3-3.2-1.7l-7.5-2.2
			c-7.6-2.2-11.4-7-11.4-14.5c0-4.4,1.6-7.9,4.8-10.6c3.2-2.6,7.4-4,12.5-4c5.2,0,10.2,1.2,15.2,3.5c0,0.3,0,0.8,0,1.7
			c0,0.8-0.2,2.2-0.5,4.2s-0.8,3.6-1.5,4.9h-6.9C401.3,280.5,400.8,278.6,400.7,275.9z"/>
	</g>
	<path class="st0" d="M413,338.9H60.2c-2.3,0-4.1-1.9-4.1-4.1l0,0c0-2.3,1.9-4.1,4.1-4.1H413c2.3,0,4.1,1.9,4.1,4.1l0,0
		C417.1,337.1,415.2,338.9,413,338.9z"/>
	<path class="st0" d="M83.6,434c0,0,55.7,42.7,173.4,42.7s153.5-23.6,153.5-23.6v44.7c0,0-50.9,52.7-155.5,44.3
		c-153.7-12.4-166.4-65.3-171.5-73C78.5,461.4,83.6,434,83.6,434z"/>
	<path class="st0" d="M409.5,94.6c0,0,10.2-23-31.9-52.3s-154.4-37-209.2-20.4c-54.9,16.6-82.9,52.3-84.2,60s0,51,0,51
		c5.1,3.8,72.7,52.3,152.5,57.4c79.7,5.1,174-32.5,174-32.5L409.5,94.6z M178.4,41l-11.5-4.5l11.5-3.2V41z M187.7,56.1l8.9-13.6
		l6.9,7.9L187.7,56.1z M229.9,31l-15.6-6.1l15.6-4.3V31z M239.1,57.1l-3.5-11.8l9.6,7.1L239.1,57.1z M271.7,81l-5.2-17.6L280.7,74
		L271.7,81z M285.8,47l11.3-9.8l4.1,8.7L285.8,47z M344.6,49.3l-10.8-12.8l15.8,3.7L344.6,49.3z"/>
	<g>
		<path class="st0" d="M306.4,388c9.3,0,16.5,2.5,21.7,7.4s7.9,12.3,7.9,22.2c0,11.6-3.4,20.2-10.3,25.8c-6.8,5.6-16.4,8.4-28.7,8.4
			c-4,0-8.3-0.6-13-1.7c-4.7-1.1-8.4-2.5-10.9-4l4.5-12.3c5.4,2.1,11.2,3.1,17.4,3.1c6.2,0,10.9-1.3,14-3.8s4.7-6.7,4.7-12.3
			c0-7.6-1.8-12.7-5.4-15.2c-2.8-2-6.2-3-10.2-3s-9.1,0.5-15.4,1.4l-5.7-10.5h-0.1v-40.6h52.3V369h-34.6v19.8
			C297.6,388.2,301.5,388,306.4,388z"/>
	</g>
	<path class="st1" d="M67.5,440.3c0,0-77.2,2.6-45.9,35.7s95.1,68.9,214,79.7s201.2-17.2,220.4-34.4c19.1-17.2,18.5-36.4,0-47.2
		S417.1,462,417.1,462"/>
	<g>
		<path class="st0" d="M132.2,395.7v19c1.8,0.7,3.1,1.6,4,2.7l-0.7,5.6h-14.2l-0.7-5.6c0.9-1.1,2.2-2,4-2.7v-33.4
			c-2-0.7-3.3-1.6-4.1-2.7l0.7-5.6h14.9l14.4,28c1.1,2,2.1,4.7,3.1,8.1l0.5,1.7l0.8-0.3c-0.7-4.2-1-7.7-1-10.6v-18.7
			c-1.7-0.7-3.1-1.6-4-2.7l0.7-5.6h14.1l0.7,5.6c-0.9,1.2-2.2,2.1-4,2.7v41.6h-11.3l-14.5-28.3c-1.1-2-2.1-4.7-3.1-8.2l-0.5-1.7
			l-0.8,0.3C131.8,389.4,132.2,392.9,132.2,395.7z"/>
		<path class="st0" d="M188,423.5c-5.7,0-9.9-1.5-12.7-4.6c-2.7-3-4.1-7.6-4.1-13.8s1.5-10.8,4.6-14.1s7.5-4.9,13.2-4.9
			s10,1.4,12.8,4.3c2.8,2.9,4.2,7.4,4.2,13.6s-1.6,10.9-4.7,14.3C198.1,421.8,193.7,423.5,188,423.5z M181.6,404.6
			c0,7.7,2.3,11.6,6.9,11.6c2.4,0,4.1-0.9,5.2-2.6c1.1-1.8,1.7-4.6,1.7-8.6c0-7.5-2.4-11.3-7.1-11.3c-2.3,0-4,0.8-5.1,2.5
			C182.1,397.8,181.6,400.6,181.6,404.6z"/>
		<path class="st0" d="M234.8,423.4h-8l-11.9-28.2c-2.4-0.8-4-1.7-4.8-2.8l0.7-5.6h16.6l0.7,5.6c-0.6,0.8-1.7,1.5-3.1,2.1l3.9,10.9
			c0.9,2.3,1.5,4.5,1.9,6.7l0.1,1h1c0.4-2.4,1.1-4.9,2-7.6l3.8-10.7c-1.8-0.7-3-1.5-3.8-2.5l0.7-5.6h16.1l0.7,5.6
			c-0.9,1.1-2.5,2-4.8,2.8L234.8,423.4z"/>
		<path class="st0" d="M260.5,423.7c-4,0-6-1.8-6-5.5c0-3.6,2-5.5,6-5.5s6,1.8,6,5.5C266.6,421.9,264.6,423.7,260.5,423.7z"/>
	</g>
	<g>
		<path class="st0" d="M350.6,356.6v5.3h6v3.5h-6v10.7c0,0.9,0.1,1.6,0.4,2s0.9,0.6,1.8,0.6c1,0,2-0.2,3.1-0.6l1.3,3.3
			c-2.2,1.1-4.4,1.6-6.6,1.6c-2.3,0-3.8-0.5-4.6-1.5c-0.8-1-1.2-2.4-1.2-4.2v-11.8h-1.9l-0.5-2.6c0.4-0.5,1.4-1.1,2.8-1.6
			c0.3-2.3,1.1-3.9,2.4-4.7H350.6z"/>
		<path class="st0" d="M360.3,353c1.6-0.4,3-0.5,4.4-0.5c1.3,0,2.5,0,3.4,0.1v10.5c0.7-0.4,1.6-0.8,2.7-1.1s2.1-0.5,3-0.5
			c2.8,0,4.7,0.7,5.8,2c1.1,1.3,1.6,3.4,1.6,6.1v8.5c1.1,0.4,1.9,0.9,2.3,1.4l-0.4,3.2h-9.7l-0.4-3.2c0.4-0.5,1.2-1,2.3-1.4v-8.3
			c0-1.5-0.2-2.5-0.7-3s-1.4-0.8-2.7-0.8c-1.3,0-2.5,0.5-3.7,1.3v11c1.1,0.4,1.9,0.9,2.3,1.4l-0.4,3.2h-9.7l-0.4-3.2
			c0.4-0.5,1.2-1,2.3-1.4v-20.5c-1-0.3-1.8-0.8-2.3-1.4L360.3,353z"/>
	</g>
</g>
</svg>
