<?xml version="1.0" encoding="utf-8"?>
<!-- Generator: Adobe Illustrator 22.1.0, SVG Export Plug-In . SVG Version: 6.00 Build 0)  -->
<svg version="1.1" id="Capa_1" xmlns="http://www.w3.org/2000/svg" xmlns:xlink="http://www.w3.org/1999/xlink" x="0px" y="0px"
	 viewBox="0 0 54 54" style="enable-background:new 0 0 54 54;" xml:space="preserve">
<style type="text/css">
	.st0{fill:#999999;}
	.st1{fill:#FFFFFF;}
</style>
<g>
	<g>
		<path class="st0" d="M1,27L1,27C1,12.7,12.6,1,27,1l0,0c14.4,0,26,11.6,26,26l0,0c0,14.3-11.6,26-26,26l0,0C12.6,53,1,41.4,1,27z"
			/>
		<path class="st0" d="M27,54C12.1,54,0,41.9,0,27S12.1,0,27,0s27,12.1,27,27S41.9,54,27,54z M27,2.1C13.2,2.1,2,13.3,2,27
			s11.2,25,25,25s25-11.2,25-25S40.8,2.1,27,2.1z"/>
	</g>
	<g>
		<path class="st1" d="M26,36.2l-8.7-15.1c-0.3-0.5,0.1-1,0.6-1h17.4c0.5,0,0.9,0.6,0.6,1l-8.7,15.1C26.9,36.6,26.2,36.6,26,36.2z"
			/>
		<path class="st1" d="M26.6,37.5c-0.6,0-1.2-0.3-1.5-0.8l-8.7-15.1c-0.3-0.5-0.3-1.2,0-1.7s0.9-0.8,1.5-0.8h17.4
			c0.6,0,1.2,0.3,1.5,0.8s0.3,1.2,0,1.7l-8.7,15.1C27.7,37.2,27.2,37.5,26.6,37.5z M18.4,21.1l8.2,14.2l8.2-14.2
			C34.8,21.1,18.4,21.1,18.4,21.1z"/>
	</g>
</g>
</svg>
