<?xml version="1.0" encoding="utf-8"?>
<!-- Generator: Adobe Illustrator 17.0.0, SVG Export Plug-In . SVG Version: 6.00 Build 0)  -->
<!DOCTYPE svg PUBLIC "-//W3C//DTD SVG 1.1//EN" "http://www.w3.org/Graphics/SVG/1.1/DTD/svg11.dtd">
<svg version="1.1" id="Layer_1" xmlns="http://www.w3.org/2000/svg" xmlns:xlink="http://www.w3.org/1999/xlink" x="0px" y="0px"
	 width="194.981px" height="60.812px" viewBox="0 0 194.981 60.812" enable-background="new 0 0 194.981 60.812"
	 xml:space="preserve">
<g>
	<path fill="#F8F8F9" d="M33.564,0c1.088,0.407,2.253,0.433,3.375,0.678c12.3,2.686,21.76,12.868,23.541,25.376
		c2.337,16.417-8.857,31.703-25.161,34.359C18.817,63.101,3.186,51.942,0.383,35.477C0.284,34.893,0.353,34.268,0,33.74
		c0-2.226,0-4.452,0-6.678c0.343-0.341,0.254-0.808,0.314-1.214C2.115,13.494,11.682,3.276,23.864,0.671
		C24.987,0.431,26.153,0.42,27.238,0C29.346,0,31.455,0,33.564,0z M2.11,30.374c0.013,15.457,12.376,27.981,27.693,28.281
		c15.867,0.311,28.578-12.331,28.854-27.729C58.944,14.985,46.121,2.144,30.442,2.115C14.805,2.087,2.11,14.772,2.11,30.374z"/>
	<path fill="#F8F8F9" d="M150.453,44.115c0,2.431-0.033,4.862,0.019,7.291c0.017,0.764-0.231,0.942-0.94,0.897
		c-0.963-0.061-1.938-0.082-2.896,0.005c-0.862,0.078-0.981-0.275-0.976-1.028c0.031-4.802-0.006-9.605,0.037-14.407
		c0.007-0.795-0.218-0.964-0.969-0.945c-2.011,0.05-2.012,0.014-2.012-1.97c0-1.947,0.001-1.979,1.962-1.932
		c0.732,0.018,1.052-0.116,1.109-0.945c0.124-1.816,0.749-3.482,1.942-4.891c2.109-2.492,4.841-2.839,7.83-2.214
		c1.85,0.387,1.848,0.407,1.174,2.118c-0.246,0.624-0.347,1.445-0.806,1.805c-0.45,0.353-1.187-0.206-1.814-0.294
		c-2.518-0.356-3.864,2.105-3.738,4.037c0.025,0.387,0.283,0.369,0.554,0.368c2.196-0.009,4.392-0.033,6.588-0.012
		c0.566,0.005,0.588-0.296,0.616-0.711c0.118-1.698,0.616-3.276,1.628-4.657c2.072-2.826,4.925-3.323,8.14-2.662
		c1.852,0.381,1.849,0.396,1.174,2.163c-0.021,0.054-0.028,0.114-0.05,0.168c-0.234,0.566-0.326,1.328-0.749,1.637
		c-0.389,0.284-1.073-0.205-1.639-0.305c-2.169-0.384-4.304,1.824-3.924,4.033c0.072,0.418,0.322,0.339,0.564,0.341
		c1.025,0.007,2.05,0.025,3.075-0.006c0.461-0.014,0.614,0.13,0.599,0.593c-0.031,0.936-0.029,1.874-0.001,2.811
		c0.013,0.429-0.14,0.559-0.555,0.549c-0.937-0.023-1.876,0.03-2.81-0.02c-0.63-0.034-0.78,0.193-0.778,0.796
		c0.022,4.861-0.01,9.722,0.034,14.583c0.008,0.843-0.26,1.04-1.035,0.992c-0.992-0.062-1.992-0.052-2.985-0.002
		c-0.635,0.032-0.779-0.201-0.776-0.8c0.022-4.802-0.018-9.605,0.038-14.407c0.011-0.955-0.286-1.142-1.164-1.118
		c-1.871,0.052-3.747,0.019-5.619-0.048c-0.722-0.026-0.872,0.227-0.862,0.895C150.475,39.253,150.453,41.684,150.453,44.115z"/>
	<path fill="#F8F8F9" d="M137.206,50.457c-2.431,2.627-6.788,2.682-9.378,1.461c-2.379-1.122-3.589-3.631-3.171-6.539
		c0.466-3.24,2.727-5.444,6.401-6.166c1.667-0.328,3.355-0.545,5.05-0.196c0.544,0.112,0.648-0.058,0.563-0.566
		c-0.258-1.548-1.424-2.583-3.292-2.755c-1.73-0.16-3.454-0.079-5.089,0.601c-0.409,0.17-0.614,0.165-0.728-0.332
		c-0.194-0.853-0.403-1.711-0.709-2.528c-0.226-0.603,0.061-0.76,0.515-0.932c2.264-0.863,4.607-1.016,6.992-0.791
		c0.816,0.077,1.619,0.239,2.399,0.491c2.995,0.967,4.138,3.295,4.524,6.178c0.351,2.623,0.158,5.259,0.204,7.889
		c0.016,0.939,0.111,1.867,0.332,2.78c0.146,0.602,0.339,1.22,0.817,1.62c0.549,0.459,0.38,0.792-0.008,1.207
		c-1.259,1.345-3.709,1.05-4.909-0.609C137.533,51.012,137.378,50.732,137.206,50.457z M136.741,44.321
		c0-0.381,0.002-0.761-0.001-1.142c-0.002-0.206,0.003-0.423-0.275-0.468c-2.13-0.343-4.223-0.341-6.042,1.02
		c-0.987,0.739-1.315,2.316-0.882,3.533c0.351,0.988,1.316,1.557,2.69,1.586c0.616,0.013,1.224-0.007,1.828-0.164
		c1.27-0.331,2.086-1.115,2.469-2.367C136.729,45.665,136.738,44.994,136.741,44.321z"/>
	<path opacity="0.7" fill="#F8F8F9" d="M78.224,42.03c0-3.073,0.035-6.147-0.023-9.218c-0.016-0.822,0.25-1.035,0.988-0.933
		c0.287,0.04,0.59,0.044,0.876,0c1.14-0.174,1.988,0.076,2.265,1.36c0.107,0.497,0.354,0.348,0.659,0.085
		c3.087-2.665,8.317-2.43,11.087,0.507c1.469,1.558,1.944,3.504,1.96,5.571c0.03,4.009-0.004,8.019,0.022,12.028
		c0.004,0.611-0.156,0.807-0.776,0.778c-1.08-0.051-2.167-0.053-3.247,0c-0.633,0.031-0.772-0.187-0.767-0.786
		c0.027-3.57,0.017-7.141,0.01-10.711c-0.002-0.877-0.035-1.755-0.285-2.607c-0.557-1.899-2.377-2.943-4.497-2.544
		c-0.511,0.096-1.019,0.27-1.495,0.483c-1.31,0.586-2.074,1.38-2.011,3.062c0.153,4.092,0.033,8.193,0.066,12.29
		c0.005,0.668-0.176,0.849-0.831,0.815c-1.109-0.057-2.225-0.046-3.335-0.003c-0.553,0.021-0.683-0.159-0.679-0.693
		C78.237,48.352,78.224,45.191,78.224,42.03z"/>
	<path fill="#F8F8F9" d="M101.393,40.571c0-3.6-0.018-7.201,0.017-10.801c0.006-0.657-0.158-0.83-0.817-0.819
		c-2.429,0.043-4.859,0-7.288,0.029c-0.569,0.007-0.768-0.143-0.74-0.731c0.048-0.993,0.064-1.993-0.004-2.984
		c-0.049-0.728,0.332-0.702,0.845-0.701c6.411,0.01,12.821,0.007,19.232,0.007c0.761,0,1.524,0.029,2.283-0.01
		c0.513-0.026,0.654,0.165,0.639,0.654c-0.031,1.024-0.034,2.05,0.001,3.073c0.018,0.538-0.161,0.698-0.699,0.692
		c-2.488-0.026-4.978,0.041-7.463-0.038c-0.941-0.03-1.074,0.285-1.07,1.123c0.033,7.084,0.003,14.168,0.04,21.251
		c0.004,0.838-0.252,1.035-1.027,0.987c-1.021-0.063-2.052-0.068-3.071,0.002c-0.762,0.052-0.9-0.229-0.893-0.933
		C101.412,47.772,101.393,44.172,101.393,40.571z"/>
	<path fill="#F8F8F9" d="M177.651,42.312c-0.061-6.725,4.86-11.417,12.551-10.598c1.505,0.16,2.889,0.688,4.167,1.51
		c0.409,0.263,0.578,0.465,0.262,0.949c-0.526,0.806-1.001,1.649-1.439,2.506c-0.249,0.488-0.426,0.437-0.82,0.144
		c-1.606-1.197-3.448-1.411-5.347-1.044c-2.13,0.411-3.416,1.815-4.037,3.838c-0.49,1.597-0.52,3.236-0.156,4.86
		c0.58,2.593,2.258,3.954,5.045,4.177c1.786,0.143,3.443-0.228,4.876-1.329c0.473-0.363,0.647-0.274,0.86,0.225
		c0.39,0.913,0.828,1.805,1.251,2.703c0.114,0.242,0.228,0.425-0.096,0.65c-3.517,2.436-10.644,2.511-13.951-0.528
		C178.433,48.184,177.668,45.406,177.651,42.312z"/>
	<path opacity="0.7" fill="#F8F8F9" d="M69.789,38.26c0-4.331,0.014-8.662-0.015-12.992c-0.004-0.652,0.156-0.865,0.824-0.832
		c1.138,0.057,2.283,0.052,3.422,0.001c0.634-0.028,0.776,0.194,0.773,0.793c-0.022,4.887-0.012,9.774-0.012,14.66
		c0,3.833-0.017,7.667,0.016,11.5c0.006,0.663-0.169,0.851-0.828,0.818c-1.138-0.058-2.283-0.052-3.422-0.002
		c-0.623,0.028-0.776-0.168-0.772-0.779C69.802,47.039,69.789,42.65,69.789,38.26z"/>
	<path fill="#F8F8F9" d="M117.344,33.693c2.419-2.226,5.119-2.434,7.987-1.72c1.033,0.257,1.02,0.294,0.538,1.271
		c-0.44,0.891-0.881,1.781-1.302,2.681c-0.174,0.371-0.306,0.511-0.775,0.296c-3.144-1.444-6.219,0.29-6.39,3.77
		c-0.183,3.71-0.074,7.434-0.097,11.152c-0.008,1.271,0.15,1.137-1.107,1.144c-0.996,0.005-1.992-0.017-2.987,0.009
		c-0.468,0.012-0.679-0.097-0.678-0.626c0.015-6.355,0.013-12.709,0.003-19.064c-0.001-0.45,0.132-0.619,0.599-0.606
		c1.083,0.029,2.169,0.053,3.249-0.006c0.71-0.039,1.047,0.143,0.927,0.9C117.282,33.089,117.326,33.298,117.344,33.693z"/>
	<path fill="#F8F8F9" d="M175.472,42.267c0,3.042-0.026,6.085,0.018,9.127c0.011,0.75-0.221,0.949-0.937,0.909
		c-1.05-0.059-2.107-0.05-3.158-0.002c-0.61,0.028-0.784-0.153-0.781-0.773c0.026-4.885-0.007-9.771,0.035-14.656
		c0.007-0.792-0.214-0.97-0.967-0.945c-1.661,0.055-1.682,0.014-1.653-1.613c0.013-0.747-0.342-1.74,0.175-2.171
		c0.439-0.366,1.394-0.126,2.121-0.131c1.463-0.009,2.926,0.029,4.388-0.018c0.634-0.02,0.777,0.197,0.772,0.795
		C175.458,35.948,175.472,39.108,175.472,42.267z"/>
	<path fill="#F8F8F9" d="M173.042,29.698c-1.492-0.02-2.729-1.268-2.735-2.758c-0.007-1.534,1.252-2.79,2.792-2.785
		c1.539,0.005,2.793,1.268,2.777,2.798C175.86,28.486,174.587,29.719,173.042,29.698z"/>
	<path opacity="0.5" fill="#F8F8F9" d="M52.295,42.841c-1.301-2.349-2.707-4.427-4.309-6.373c-3.86-4.691-8.442-8.589-13.341-12.134
		c-6.395-4.628-13.228-8.518-20.301-11.999c-1.041-0.512-1.054-0.538-0.17-1.269c5.121-4.235,11.009-6.171,17.642-5.826
		c6.02,0.313,11.263,2.528,15.661,6.627c6.043,5.634,8.628,12.663,8.019,20.853C55.231,36.253,54.173,39.585,52.295,42.841z"/>
	<path opacity="0.7" fill="#F8F8F9" d="M26.105,33.835c-0.039,3.943-1.835,7.382-4.451,10.474c-1.826,2.158-3.974,3.96-6.25,5.623
		c-0.426,0.312-0.674,0.26-1.038-0.054C7.927,44.32,4.798,37.327,5.245,28.8c0.288-5.5,2.305-10.326,5.762-14.59
		c0.462-0.57,0.76-0.565,1.319-0.159c3.972,2.886,7.717,6.004,10.535,10.088C24.826,26.988,26.109,30.08,26.105,33.835z"/>
</g>
</svg>
