<?xml version="1.0" encoding="utf-8"?>
<!-- Generator: Adobe Illustrator 22.1.0, SVG Export Plug-In . SVG Version: 6.00 Build 0)  -->
<svg version="1.1" id="Layer_1" xmlns="http://www.w3.org/2000/svg" xmlns:xlink="http://www.w3.org/1999/xlink" x="0px" y="0px"
	 viewBox="0 0 130.9 174" style="enable-background:new 0 0 130.9 174;" xml:space="preserve">
<style type="text/css">
	.st0{fill:#FFFFFF;}
</style>
<g>
	<g>
		<path class="st0" d="M50.1,82.8c-3.1-0.7-6.4-3.1-13.1-0.3c-4.1,1.7-7.9,6.5-10.6,10.9v60.7l-15.2,2.3v5.5c0,0,55.4,0,55.5,0
			L65,86.4C64.8,86.4,61.9,86.3,50.1,82.8z"/>
		<path class="st0" d="M108.5,28c-0.3,3.7-3.8,8-3.8,8s-0.7-6.6-2.5-9.3c-1.2-1.8-2.7-2.2-2.7-2.2s-7.7-2.7-9.8-3.4
			c-2.1-0.8-7.6-4-9,2c-2.4,10.2,7.5,12.1,15.8,15.6c10,4.2,13.6,10.6,16,16.7c1.4,3.7,0.8,8.9-1.3,13.6c5.5-6.4,8.2-14.4,8.2-24
			c0-13.2-5-22.7-15-28.6c0.5,1.5,0.8,4,0.8,4S108.9,23.3,108.5,28z"/>
		<path class="st0" d="M40.3,60c7.8-7.4,22.7-14.1,39.8-11.2c6.9,1.2,14,3.4,19.5,14c1.4,2.7,6.7,3.6,5.8-4.4
			c-0.9-7.5-5.9-12.5-10.9-14.7c-3.3-1.5-11.9-4.5-15.1-7.4c-6-5.4-8-18.6,0.5-23.9c1.9-1.2,3.8-1.9,5.7-2.3C80.8,9.4,75.5,9,69.6,9
			h-61v5.3l17.8,2.3v65.1C29.1,74.5,33.4,66.5,40.3,60z"/>
		<path class="st0" d="M116.8,94.6c-6.3-6-28.2-13-30-13.4c-1.8-0.3-2.5-0.1-2.5-0.1l-2.8,2c-4.9,2.9-10.2,3.1-10.2,3.1l-2.8,75.6
			c17.2-0.1,30.9-3.5,41.7-10.2c10.9-6.8,16.3-17.2,16.3-31.3C126.4,109.4,123.2,100.7,116.8,94.6z"/>
	</g>
</g>
</svg>
