<?xml version="1.0" encoding="utf-8"?>
<!-- Generator: Adobe Illustrator 22.0.1, SVG Export Plug-In . SVG Version: 6.00 Build 0)  -->
<svg version="1.1" id="Layer_1" xmlns="http://www.w3.org/2000/svg" xmlns:xlink="http://www.w3.org/1999/xlink" x="0px" y="0px"
	 viewBox="0 0 639.4 364.6" style="enable-background:new 0 0 639.4 364.6;" xml:space="preserve">
<style type="text/css">
	.st0{fill-rule:evenodd;clip-rule:evenodd;fill:#AF9EAC;}
	.st1{fill:#AF9EAC;}
	.st2{fill:none;stroke:#AF9EAC;stroke-width:6.3333;stroke-miterlimit:10;}
</style>
<g>
	<g>
		<polygon class="st0" points="319.7,304.9 324.8,320.6 341.3,320.6 327.9,330.2 333,345.9 319.7,336.2 306.4,345.9 311.5,330.2 
			298.1,320.6 314.6,320.6 		"/>
		<polygon class="st0" points="381.5,316.9 385.1,328 396.8,328 387.3,334.8 390.9,345.9 381.5,339 372.1,345.9 375.7,334.8 
			366.2,328 377.9,328 		"/>
		<polygon class="st0" points="260.4,316.9 264,328 275.7,328 266.2,334.8 269.9,345.9 260.4,339 251,345.9 254.6,334.8 245.1,328 
			256.8,328 		"/>
		<polygon class="st0" points="206.4,322.8 209.2,331.6 218.6,331.6 211,337.1 213.9,345.9 206.4,340.4 198.8,345.9 201.7,337.1 
			194.2,331.6 203.5,331.6 		"/>
		<polygon class="st0" points="437.3,322.8 440.2,331.6 449.5,331.6 441.9,337.1 444.8,345.9 437.3,340.4 429.8,345.9 432.7,337.1 
			425.1,331.6 434.4,331.6 		"/>
	</g>
	<g>
		<path class="st1" d="M91,228.6l4.6-8.2c0.2-0.3,0.3-0.6,0.4-0.9c0-0.3,0.1-0.5,0.1-0.8c0-0.6-0.1-1.2-0.4-1.6
			c-0.3-0.5-0.7-0.7-1.2-0.7c-0.5,0-0.9,0.2-1.2,0.6c-0.3,0.4-0.5,1-0.6,1.8H91c0-1.4,0.4-2.5,1-3.4c0.6-0.9,1.4-1.3,2.3-1.4
			c1,0,1.8,0.5,2.5,1.4c0.6,0.9,1,2,1,3.4c0,1.1-0.2,2.1-0.7,2.9l-3.8,6.8h4.5v2.4H91V228.6z"/>
		<path class="st1" d="M99.7,218.7c0-1.5,0.4-2.7,1-3.6c0.6-0.8,1.4-1.2,2.3-1.2c0.9,0,1.7,0.4,2.3,1.2c0.7,0.8,1,2,1,3.6v7.4
			c0,1.5-0.4,2.7-1,3.6c-0.6,0.8-1.4,1.2-2.3,1.3c-0.9,0-1.7-0.4-2.3-1.3c-0.7-0.8-1-2-1-3.6V218.7z M104.7,218.9
			c0-1.7-0.6-2.5-1.7-2.6c-1.1,0-1.6,0.9-1.7,2.6v7.1c0,1.7,0.6,2.5,1.7,2.6c1.1,0,1.6-0.9,1.7-2.6V218.9z"/>
		<path class="st1" d="M110.9,216.6l-1.7,1.7v-2.6l1.7-1.7h1.7v16.7h-1.7V216.6z"/>
		<path class="st1" d="M116.9,218.7c0-1.5,0.4-2.7,1-3.6c0.6-0.8,1.4-1.2,2.3-1.2c0.8,0,1.5,0.3,2.1,1c0.6,0.7,1,1.6,1.2,2.8h-1.7
			c-0.3-0.9-0.8-1.4-1.6-1.4c-1.1,0-1.6,0.9-1.7,2.6v1.6c0.8-0.4,1.6-0.5,2.3-0.5c0.8,0,1.4,0.4,2,1.1c0.5,0.7,0.8,1.9,0.8,3.5v1.5
			c0,1.5-0.4,2.7-1,3.6c-0.6,0.8-1.4,1.2-2.3,1.3c-0.9,0-1.7-0.4-2.3-1.3c-0.7-0.8-1-2-1-3.6V218.7z M118.6,226
			c0,1.7,0.6,2.5,1.7,2.6c1.1,0,1.6-0.9,1.7-2.6v-1.4c0-1.7-0.6-2.5-1.7-2.6c-1.1,0-1.6,0.9-1.7,2.6V226z"/>
	</g>
	<g>
		<path class="st1" d="M529.2,228.4l4.5-7.9c0.2-0.3,0.3-0.6,0.4-0.9c0-0.3,0.1-0.5,0.1-0.7c0-0.6-0.1-1.1-0.4-1.6
			c-0.3-0.5-0.7-0.7-1.2-0.7c-0.5,0-0.8,0.2-1.1,0.6c-0.3,0.4-0.5,1-0.6,1.7h-1.6c0-1.3,0.4-2.5,1-3.3c0.6-0.9,1.3-1.3,2.2-1.3
			c1,0,1.8,0.5,2.4,1.3c0.6,0.9,0.9,2,1,3.3c0,1.1-0.2,2-0.7,2.8l-3.7,6.5h4.4v2.3h-6.5V228.4z"/>
		<path class="st1" d="M537.6,218.9c0-1.5,0.3-2.6,1-3.4c0.6-0.8,1.4-1.2,2.2-1.2c0.9,0,1.6,0.4,2.3,1.2c0.6,0.8,1,2,1,3.5v7.1
			c0,1.5-0.3,2.6-1,3.4c-0.6,0.8-1.4,1.2-2.3,1.2c-0.9,0-1.6-0.4-2.2-1.2c-0.7-0.8-1-2-1-3.4V218.9z M542.4,219
			c0-1.6-0.6-2.5-1.6-2.5c-1.1,0-1.6,0.9-1.6,2.5v6.9c0,1.6,0.6,2.5,1.6,2.5c1,0,1.6-0.8,1.6-2.5V219z"/>
		<path class="st1" d="M548.4,216.8l-1.6,1.7V216l1.6-1.7h1.6v16.2h-1.6V216.8z"/>
		<path class="st1" d="M554.4,214.4h6.5v2.3l-3.9,13.9h-1.8l3.9-13.9h-3v2.3h-1.6V214.4z"/>
	</g>
	<g>
		<path class="st1" d="M84.7,164.2l0-1.2c2,0,3-0.8,3-2.4v-12.9c0-0.6-0.4-0.9-1.2-0.9c-0.6,0-1.1,0.1-1.5,0.3
			c-0.4,0.2-0.8,0.5-1.1,0.9c-0.3,0.4-0.6,0.9-0.8,1.5c-0.2,0.6-0.4,1.3-0.6,2.1l-1.8-0.3l0.8-6.4c0.5,0.1,1,0.1,1.6,0.2
			c0.6,0,1.1,0.1,1.4,0.1h11.3c0.4,0,0.9,0,1.5-0.1c0.6,0,1.2-0.1,1.7-0.2v6.3l-1.7,0.1c-0.1-1.5-0.4-2.6-1-3.4
			c-0.5-0.7-1.5-1.1-2.8-1.1c-0.8,0-1.2,0.2-1.2,0.7l0,12.9c0,1.6,1,2.4,3,2.4l0,1.2H84.7z"/>
		<path class="st1" d="M122.7,164.2l0-1.2c0.3,0,0.5-0.1,0.8-0.1c0.3,0,0.6-0.1,0.8-0.1c0.2,0,0.4-0.1,0.6-0.2
			c0.2-0.1,0.2-0.1,0.2-0.2c0-0.1,0-0.2-0.1-0.3c0-0.1-0.1-0.3-0.2-0.4l-1.3-3.5c-0.1-0.2-0.3-0.4-0.6-0.4c-0.3-0.1-0.6-0.1-0.9-0.1
			H118c-0.6,0-1,0.2-1.1,0.6l-0.9,2.9c0,0.1-0.1,0.2-0.1,0.3c0,0.1,0,0.2,0,0.4c0,0.7,0.8,1.1,2.4,1.1v1.3l-6.7,0l0-1.3
			c1.1-0.1,1.9-0.7,2.4-1.9l6.8-16.2l2.7,0.4l6.7,16.8c0.1,0.2,0.2,0.4,0.4,0.5c0.2,0.1,0.4,0.2,0.6,0.3c0.2,0.1,0.4,0.1,0.7,0.2
			c0.2,0,0.4,0.1,0.7,0.1l0,1.2H122.7z M120.4,149.4l-2.3,5.5c-0.2,0.5-0.3,0.7-0.3,0.9c0,0.2,0.3,0.2,0.9,0.2h3.5
			c0.5,0,0.7,0,0.7-0.1c0-0.1-0.2-0.6-0.5-1.5L120.4,149.4z"/>
		<path class="st1" d="M148,164.2V163c1.6,0,2.5-0.4,2.5-1.3v-13.2c0-1.3-0.9-1.9-2.8-1.9l0-1.3h10l0,1.3c-1.7,0-2.6,0.6-2.6,1.9
			v13.2c0,0.6,0.6,0.9,1.7,0.9h0.5c0.8,0,1.6,0,2.1-0.1c0.6,0,1.1-0.2,1.5-0.5c0.4-0.3,0.8-0.8,1.2-1.4s0.7-1.5,1.1-2.7l1.7,0.2
			l-0.9,6.1H148z"/>
		<path class="st1" d="M180.2,164.2l0-1.2c1.7,0,2.6-0.6,2.6-1.7l0-12.7c0-1.4-0.9-2.1-2.8-2.1v-1.3l16.4,0l0.2,5.6l-1.7,0.1
			c-0.2-1-0.4-1.9-0.7-2.4c-0.3-0.6-0.7-1-1.2-1.2c-0.5-0.3-1-0.4-1.6-0.5c-0.6,0-1.3-0.1-2-0.1c-0.6,0-1.1,0.1-1.5,0.3
			c-0.3,0.2-0.5,0.4-0.5,0.8l0,5c0,0.5,0.2,0.7,0.7,0.7c0.5,0,0.9,0,1.3-0.1c0.4-0.1,0.7-0.2,1-0.4c0.3-0.2,0.5-0.5,0.7-0.9
			c0.2-0.4,0.3-0.9,0.4-1.6h1.7l0,7.6l-1.7,0c-0.1-0.6-0.2-1.2-0.3-1.6c-0.1-0.4-0.3-0.7-0.6-0.9c-0.2-0.2-0.5-0.4-0.9-0.4
			c-0.4-0.1-0.8-0.1-1.3-0.1c-0.6,0.1-1,0.3-1,0.8l0,5.4c0,0.9,0.7,1.4,2.1,1.4c1.2,0,2.1-0.1,2.8-0.3c0.7-0.2,1.3-0.5,1.7-0.8
			c0.4-0.4,0.8-0.8,1.1-1.4c0.3-0.6,0.5-1.3,0.8-2.1l1.6,0.2l-0.8,5.9H180.2z"/>
		<path class="st1" d="M229.9,164.5l-12.2-12.8l0,8.1c0,2.1,1,3.1,2.9,3.1v1.2h-7.1l0-1.2c1.6,0,2.4-1,2.4-3.1l0-12.4
			c0-0.6-0.9-0.9-2.8-0.9l0-1.3h5.4l10.7,11.5l0-7.4c0-1.9-1-2.9-2.9-2.9l0-1.3h7.1l0,1.3c-1.7,0-2.6,1-2.6,2.9v14.9L229.9,164.5z"
			/>
		<path class="st1" d="M251.6,164.2l0-1.2c2,0,3-0.8,3-2.4v-12.9c0-0.6-0.4-0.9-1.2-0.9c-0.6,0-1.1,0.1-1.5,0.3
			c-0.4,0.2-0.8,0.5-1.1,0.9c-0.3,0.4-0.6,0.9-0.8,1.5c-0.2,0.6-0.4,1.3-0.6,2.1l-1.8-0.3l0.8-6.4c0.5,0.1,1,0.1,1.6,0.2
			c0.6,0,1.1,0.1,1.4,0.1h11.3c0.4,0,0.9,0,1.5-0.1c0.6,0,1.2-0.1,1.7-0.2l0,6.3l-1.7,0.1c-0.1-1.5-0.4-2.6-1-3.4
			c-0.5-0.7-1.5-1.1-2.8-1.1c-0.8,0-1.2,0.2-1.2,0.7l0,12.9c0,1.6,1,2.4,3,2.4l0,1.2H251.6z"/>
		<path class="st1" d="M381.8,151.3c-0.2-0.8-0.3-1.5-0.6-2.1c-0.2-0.6-0.5-1.2-0.8-1.6c-0.3-0.5-0.7-0.8-1.1-1.1
			c-0.4-0.2-0.9-0.4-1.4-0.4c-1.1,0-2,0.2-2.6,0.7c-0.6,0.4-0.9,1-0.9,1.8c0,0.5,0.1,0.9,0.3,1.3c0.2,0.3,0.5,0.6,0.9,0.9
			c0.4,0.3,0.9,0.5,1.5,0.7c0.6,0.2,1.2,0.5,2,0.8c0.8,0.3,1.6,0.7,2.3,1c0.7,0.3,1.3,0.7,1.8,1.2c0.5,0.5,0.9,1,1.1,1.7
			c0.3,0.6,0.4,1.5,0.4,2.5c0,1-0.2,1.8-0.5,2.6c-0.3,0.7-0.8,1.4-1.3,1.9c-0.6,0.5-1.3,0.9-2.1,1.2c-0.8,0.3-1.7,0.4-2.7,0.4
			c-0.7,0-1.4-0.1-2-0.3c-0.7-0.2-1.2-0.5-1.7-0.9c-0.4,0.3-0.8,0.5-1.2,0.7c-0.4,0.2-0.8,0.4-1.3,0.5c-0.2-0.7-0.4-1.3-0.5-2
			c-0.1-0.7-0.1-1.4-0.1-2.1c0-0.5,0-1,0-1.5c0-0.5,0.1-1,0.2-1.5h1.9c0,0.6,0.1,1.3,0.2,1.9c0.2,0.6,0.4,1.2,0.8,1.8
			c0.4,0.5,0.8,1,1.4,1.3c0.6,0.3,1.3,0.5,2.1,0.5c0.7,0,1.4-0.1,1.9-0.2c0.5-0.2,0.9-0.4,1.2-0.7c0.3-0.3,0.5-0.6,0.7-1
			c0.1-0.4,0.2-0.8,0.2-1.2c0-0.7-0.2-1.2-0.5-1.7c-0.3-0.4-0.9-0.8-1.7-1.1c-1.2-0.4-2.2-0.8-3.2-1.2c-1-0.4-1.8-0.9-2.5-1.4
			c-0.7-0.5-1.3-1.2-1.7-1.9c-0.4-0.7-0.6-1.7-0.6-2.7c0-0.8,0.2-1.6,0.5-2.2c0.3-0.7,0.7-1.2,1.3-1.7c0.5-0.5,1.2-0.8,1.9-1
			c0.7-0.2,1.5-0.4,2.3-0.4c0.7,0,1.4,0.1,2,0.4c0.6,0.3,1.2,0.7,1.6,1.3c0.2-0.4,0.5-0.7,0.9-0.9c0.4-0.2,0.8-0.4,1.2-0.5
			c0.3,0.9,0.5,2,0.5,3.1c0.1,1.2,0.1,2.2,0.1,3.3H381.8z"/>
		<path class="st1" d="M401.4,164.2V163c1.7,0,2.6-0.6,2.6-1.7l0-12.7c0-1.4-0.9-2.1-2.8-2.1v-1.3l16.4,0l0.2,5.6l-1.7,0.1
			c-0.2-1-0.4-1.9-0.7-2.4c-0.3-0.6-0.7-1-1.2-1.2c-0.5-0.3-1-0.4-1.6-0.5c-0.6,0-1.3-0.1-2-0.1c-0.6,0-1.1,0.1-1.5,0.3
			c-0.3,0.2-0.5,0.4-0.5,0.8v5c0,0.5,0.2,0.7,0.7,0.7c0.5,0,0.9,0,1.3-0.1c0.4-0.1,0.7-0.2,1-0.4c0.3-0.2,0.5-0.5,0.7-0.9
			c0.2-0.4,0.3-0.9,0.4-1.6l1.7,0l0,7.6h-1.7c-0.1-0.6-0.2-1.2-0.3-1.6c-0.1-0.4-0.3-0.7-0.6-0.9c-0.2-0.2-0.5-0.4-0.9-0.4
			c-0.4-0.1-0.8-0.1-1.3-0.1c-0.6,0.1-1,0.3-1,0.8l0,5.4c0,0.9,0.7,1.4,2.1,1.4c1.2,0,2.1-0.1,2.8-0.3c0.7-0.2,1.3-0.5,1.7-0.8
			c0.4-0.4,0.8-0.8,1.1-1.4c0.3-0.6,0.5-1.3,0.8-2.1l1.6,0.2l-0.8,5.9H401.4z"/>
		<path class="st1" d="M444.8,164.2V163c0.3,0,0.5-0.1,0.8-0.1c0.3,0,0.6-0.1,0.8-0.1c0.2,0,0.4-0.1,0.6-0.2
			c0.2-0.1,0.2-0.1,0.2-0.2c0-0.1,0-0.2-0.1-0.3c0-0.1-0.1-0.3-0.2-0.4l-1.3-3.5c-0.1-0.2-0.3-0.4-0.6-0.4c-0.3-0.1-0.6-0.1-0.9-0.1
			l-4.2,0c-0.6,0-1,0.2-1.1,0.6L438,161c0,0.1-0.1,0.2-0.1,0.3c0,0.1,0,0.2,0,0.4c0,0.7,0.8,1.1,2.4,1.1v1.3h-6.7v-1.3
			c1.1-0.1,1.9-0.7,2.4-1.9l6.8-16.2l2.7,0.4l6.7,16.8c0.1,0.2,0.2,0.4,0.4,0.5c0.2,0.1,0.4,0.2,0.6,0.3c0.2,0.1,0.4,0.1,0.7,0.2
			c0.2,0,0.4,0.1,0.7,0.1v1.2H444.8z M442.5,149.4l-2.3,5.5c-0.2,0.5-0.3,0.7-0.3,0.9c0,0.2,0.3,0.2,0.9,0.2l3.5,0
			c0.5,0,0.7,0,0.7-0.1c0-0.1-0.2-0.6-0.5-1.5L442.5,149.4z"/>
		<path class="st1" d="M490.2,161.4c0,0.3-0.1,0.6-0.3,0.9c-0.2,0.4-0.4,0.7-0.8,1c-0.3,0.3-0.7,0.6-1.2,0.8c-0.5,0.2-1,0.3-1.6,0.3
			c-1.2,0-2.1-0.2-2.6-0.5c-0.6-0.4-0.9-0.8-1.1-1.4c-0.4-1.1-0.8-2.1-1.1-3.1c-0.3-0.9-0.6-1.7-1-2.4c-0.3-0.7-0.7-1.2-1.1-1.5
			c-0.4-0.4-1-0.5-1.6-0.5c-0.4,0-0.6,0.1-0.7,0.2v6c0,1.1,0.8,1.7,2.5,1.7v1.2h-9.8V163c1.6,0,2.5-0.6,2.5-1.7v-13.2
			c0-1.1-0.9-1.6-2.7-1.6v-1.3h4.5c0.6,0,1.2,0,1.6,0c0.4,0,0.9,0,1.4,0c0.5,0,1,0,1.6,0c0.6,0,1.4,0,2.4,0c1,0,1.8,0.1,2.5,0.4
			c0.7,0.2,1.3,0.6,1.7,1c0.4,0.4,0.8,0.9,1,1.5c0.2,0.6,0.3,1.2,0.3,1.9c0,1.3-0.5,2.4-1.5,3.2c-1,0.8-2.3,1.3-4,1.5
			c0.7,0.1,1.3,0.2,1.8,0.3c0.5,0.1,0.9,0.3,1.3,0.5c0.3,0.2,0.6,0.5,0.9,0.8c0.2,0.3,0.5,0.7,0.6,1.1c0.3,0.6,0.5,1.2,0.6,1.8
			c0.2,0.6,0.3,1.1,0.5,1.6c0.2,0.5,0.3,0.9,0.5,1.2c0.2,0.3,0.5,0.4,0.9,0.4c0.4,0,0.7-0.4,1-1.3L490.2,161.4z M478.4,153.7
			c0.5,0,1,0,1.4-0.1c0.4-0.1,0.8-0.2,1.1-0.5c0.3-0.2,0.5-0.6,0.7-1.1c0.2-0.5,0.2-1.1,0.2-2c0-0.7-0.1-1.2-0.2-1.7
			c-0.2-0.4-0.4-0.8-0.7-1s-0.6-0.4-1-0.5c-0.4-0.1-0.8-0.2-1.2-0.2h-0.6c-0.6,0-0.9,0.5-0.9,1.4v5.3c0.1,0.2,0.2,0.3,0.5,0.3
			L478.4,153.7z"/>
		<path class="st1" d="M522.4,158.5c-0.3,0.9-0.6,1.7-1.1,2.5c-0.5,0.7-1.1,1.4-1.7,1.9c-0.7,0.5-1.4,0.9-2.2,1.2
			c-0.8,0.3-1.7,0.4-2.6,0.4c-1.7,0-3.2-0.2-4.4-0.7c-1.2-0.5-2.2-1.2-2.9-2c-0.8-0.9-1.3-1.9-1.6-3c-0.3-1.2-0.5-2.4-0.5-3.8
			c0-1.5,0.2-2.8,0.5-4.1c0.3-1.2,0.8-2.3,1.5-3.2c0.7-0.9,1.5-1.6,2.6-2.1c1.1-0.5,2.3-0.8,3.8-0.8c0.4,0,0.9,0,1.4,0.1
			c0.5,0.1,1,0.1,1.5,0.3c0.5,0.1,0.9,0.3,1.4,0.5c0.4,0.2,0.8,0.4,1.1,0.7c0.5-0.7,1.2-1.2,2-1.5c0.7,1.6,1,3.9,1,6.8h-2
			c-0.5-1.9-1.1-3.3-2-4.2c-0.8-0.8-1.9-1.3-3.3-1.3c-1,0-1.8,0.2-2.4,0.6c-0.6,0.4-1.1,1-1.4,1.7c-0.4,0.7-0.6,1.5-0.7,2.4
			c-0.1,0.9-0.2,1.8-0.2,2.8c0,1.3,0.1,2.5,0.2,3.6c0.2,1.1,0.4,2.1,0.8,2.9c0.4,0.8,0.9,1.5,1.6,1.9c0.7,0.5,1.6,0.7,2.6,0.7
			c1.4,0,2.5-0.4,3.5-1.1c0.9-0.8,1.7-2,2.4-3.7L522.4,158.5z"/>
		<path class="st1" d="M550.7,164.2l0-1.2c1.9,0,2.8-0.6,2.8-1.7v-5.8c-0.2-0.1-0.5-0.2-0.8-0.2c-0.3-0.1-0.7-0.1-1.2-0.1h-3.4
			c-0.7,0-1.3,0.1-1.9,0.3v5.8c0,1.2,0.9,1.7,2.6,1.7v1.2h-10.2l0-1.2c1.9,0,2.9-0.6,2.9-1.7v-12.5c0-1.5-1-2.3-2.9-2.3l0-1.3
			l10.2,0l0,1.3c-1.7,0-2.6,0.8-2.6,2.3l0,4.7c0.3,0.1,0.6,0.2,0.9,0.2c0.3,0,0.6,0.1,1,0.1h3.4c1,0,1.7-0.1,2-0.2v-4.7
			c0-1.5-0.9-2.3-2.8-2.3l0-1.3l10.1,0l0,1.3c-1.7,0-2.6,0.8-2.6,2.3l0,12.5c0,1.2,0.9,1.7,2.6,1.7l0,1.2H550.7z"/>
	</g>
	<path class="st1" d="M250.3,182.5c0,0,17.9-8.1,21.7-10.9c1.9-1.4,3.7-3,5.7-4.1c1.7-0.9,3.6-1.4,5.4-2.2c3.8-1.5,7.3-3.9,10.8-6.3
		c5.3-3.6,13.4-12,19.7-12.3c1-0.1,1.6-0.6,2.3-1.1c1.6-1.2,3.1-2.6,5.2-2.2c1.7,0.3,2.8-0.4,3.9-1.4c0.2-0.2,0.7,0.1,1.1,0.1
		c0.3,0,0.6,0.1,0.9,0.1c-0.1-0.3-0.1-0.5-0.2-0.8c-0.3-1.1-0.9-2.3-0.8-3.4c0-0.6,0.9-1.4,1.6-1.7c2.4-1.1,3.7-3.2,4.6-5.6
		c0.3-0.9,0.1-2.1-0.2-3.1c-0.5-1.8-1.2-3.5-1.8-5.2c-0.1-0.3-0.1-0.6-0.1-0.9c-0.2-3.3,0.7-6.4,1.2-9.6c0.4-2.4,0.8-4.8,1.3-7.2
		c0.2-1,0.9-1.9,1.2-2.9c0.4-0.9,0.8-1.9,0.9-2.9c0.6-3.4,0.1-6.6-0.8-9.9c0-0.1-0.1-0.3-0.1-0.5c0.7-3.9-1.8-6.3-3.7-9
		c-1-1.4-2.1-2.6-3.2-3.9c-0.3-0.3-0.7-0.6-1.1-0.6c-3.5,0-7.1,0-10.6,0c-2.2,0-4.5-0.1-6.7-0.2c-2.4-0.1-4.9-0.1-7.3-0.5
		c-1.2-0.2-2.3-1-3.3-1.8c-1.1-0.8-2.1-1.9-3-3c-0.7-0.8-1.5-1-2.4-0.9c-0.5,0.1-1,0-1.6,0c-1.7,0-1.7,0-2.2-1.8
		c-0.4-1.2,0.6-1.6,1.1-2.3c1.2-1.4,2.8-1,4.2-1.1c2.2-0.1,4.4,0.1,6.6,0.2c0.5,0,1-0.2,1.7-0.3c-0.7-1.2-1.4-2.3-2.1-3.5
		c-0.4-0.7-0.8-1.5-0.9-2.3c-0.2-1.4,0.6-1.8,1.9-1.6c1.4,0.2,2.8,0.3,4.1,0.4c0.3,0,0.7-0.3,0.8-0.5c0.8-1.9,1.4-3.9,2.4-5.8
		c1.1-2,2.3-3.9,3.7-5.6c1.6-2,3.2-3.9,5-5.7c1.4-1.4,3.1-2.5,4.6-3.8c0.8-0.7,1.5-1.5,2.3-2.1c2.3-1.8,4.6-3.4,6.9-5.1
		c4.3-3.2,9.1-5.5,13.9-7.7c2.1-0.9,4.3-1.6,6.4-2.4c2-0.7,4-1.5,6-2c2.6-0.6,5.3-0.9,8-1.4c0.4-0.1,0.8-0.4,1-0.7
		c0.3-0.4,0.3-0.8,0.5-1.3c-1-0.9-2.1-1.8-3.1-2.9c-1.5-1.7-0.7-5.1,1.4-6.2c3.1-1.6,6.5-2.1,10-1.9c0.6,0,1.3,0.3,1.9,0.6
		c1.5,0.7,3.1,1.3,4.6,2.1c2.1,1.1,2.3,4.6,0.4,6c-0.9,0.6-1.9,1.2-3,1.8c0.3,0.6,0.6,1.3,0.8,1.8c3.6,0.7,7.1,1.3,10.6,1.9
		c2.1,0.4,4.1,0.9,6.2,1.5c1.4,0.4,2.7,1.2,4.1,1.8c2.4,1.1,4.9,2.1,7.3,3.4c2.8,1.5,5.6,3.2,8.3,4.9c4.2,2.8,7.6,6.4,11,10.2
		c1.4,1.6,2.7,3.4,3.9,5.1c2.1,3.1,4.2,6.2,6.3,9.4c0.8,1.2,1.6,2.4,2.5,3.5c0.5,0.5,1.3,0.7,2,0.9c1,0.3,2,0.5,2.9,0.8
		c0.2,0.1,0.4,0.7,0.3,0.9c-1,1.7-2,3.3-3.1,4.9c-0.2,0.3-0.4,0.6-0.9,1.2c3.7,0,7,0,10.4,0c1,0,2.2-0.1,3.1,0.3
		c1.4,0.7,2.6,1.8,3.2,3.4c0.1,0.3,0.1,0.6,0.3,1.2c-0.6,0.1-1.1,0.1-1.7,0.1c-1.6,0.1-3.3,0.1-4.8,0.5c-0.7,0.2-1.2,1.4-1.8,2.2
		c-0.6,0.9-1.1,1.8-1.8,2.7c-0.2,0.2-0.6,0.4-0.9,0.4c-3.8,0-7.7,0-11.5,0c-1.9,0-3.7,0.1-5.6,0.2c-0.5,0-1-0.2-1.5-0.2
		c-4.5,0-9,0-13.6,0c0,1.6-1,2.4-2.2,3.2c-2.3,1.4-4.5,2.9-6.6,4.7c-3.7,3.1-7.1,6.5-10.8,9.6c-2.4,2-4.1,4.6-5.8,7.2
		c-2.1,3.4-4.3,6.7-6,10.3c-1.4,2.8-2.8,5.4-5.1,7.5c-1.3,1.2-2.8,2.3-4.2,3.3c-0.9,0.7-1.9,1.2-2.8,1.8c-1.5,1.1-3.1,2.2-4.6,3.3
		c-0.5,0.4-0.9,0.9-1.3,1.4c-2,2.5-4.1,5-6.1,7.5c-1.7,2.1-2.5,4.8-3.3,7.4c-0.7,2.1-1,4.3-1.3,6.5c-0.1,0.8,0.3,1.6,0.3,2.4
		c0,0.4-0.2,1.1-0.5,1.2c-1.5,0.5-3,0.8-4.6,1.2c-0.5,0.1-1.1,0.1-1.7,0.1c0.8,1.2,1.7,2.3,2.4,3.5c1.3,2.3,1.4,4.6,0.3,7.1
		c-0.8,1.8-1.6,3.7-2.1,5.6c-0.6,2.3-1,4.6-1.4,6.9c-0.2,1.3-1.2,1.9-2.2,2.4c0.3,1.7,0.2,3.5-1.6,3.5
		C336.6,182.5,258,182.5,250.3,182.5z M374.1,93.2c1.2-1.7,2.3-3.4,3.6-5.1c1.4-1.8,3-3.6,4.5-5.3c2.4-2.6,5.1-4.8,8.1-6.4
		c0.4-0.2,0.9-0.4,1.4-0.6c0-0.1,0-0.1-0.1-0.2h-9.5c0,2-5.8,8.9-6.6,11.8c-0.5,1.8-1.5,3.4-2.2,5.1c-0.2,0.5-0.2,1-0.3,1.6
		C373.6,93.9,373.9,93.6,374.1,93.2z M343.7,79.5c1.3,1.9,1.6,4.2,1.4,6.5c-0.1,1.3-0.1,2.7,0.3,3.9c0.6,1.9,1.6,3.6,2.2,5.4
		c0.4,1.2,1.3,1.4,2.3,1.7c0.2,0.1,10.4,0,14.6-8.2c1.8-3.5,3.9-6.8,5.9-10.1c0.5-0.9,1.2-1.7,1.9-2.7c-10.8-0.1-21.6-0.3-32.6-0.4
		C341.2,77,342.7,78.1,343.7,79.5z"/>
	<line class="st2" x1="81.6" y1="184.2" x2="561.6" y2="184.2"/>
	<path class="st0" d="M201.7,259c4.1,0.5,7.9,1.5,11.5,3c3.6,1.5,6.8,3.5,9.6,6c-0.7-3.9-0.9-8-0.6-12.5c0.3-4.5,1.2-9,2.5-13.6
		c1.4-4.6,3.2-9.3,5.7-13.9c2.4-4.6,5.4-9.1,8.9-13.4c-3.5,1.8-6.8,4.3-10,7.4c-3.2,3.1-6.4,6.6-9.5,10.6c-3.1,4-6.1,8.2-9.1,12.7
		C207.7,249.8,204.7,254.4,201.7,259L201.7,259z M464.5,222.8c-0.1,0-0.2-0.1-0.4-0.2c-0.3-0.2-0.7-0.4-1.2-0.7
		c-0.5-0.3-1.2-0.5-2-0.6c-0.8-0.1-1.8,0-2.9,0.2c-1.1,0.2-2.5,0.8-4.2,1.6c-3,1.6-6,3.9-8.9,6.9c-2.9,3-5.5,6.2-7.8,9.7
		c-2.3,3.5-4.1,6.9-5.5,10.2c-1.4,3.4-2.2,6.3-2.3,8.7c-0.1,1.6,0,2.5,0.4,2.9c0.4,0.4,0.6,0.7,0.8,0.8c1.1,0.6,2.7,0.2,4.8-1.1
		c2.1-1.3,4.6-3.4,7.3-6.4c2.7-2.9,5.7-6.6,8.8-10.9c3.1-4.4,6.2-9.4,9.2-15l0.7-1L464.5,222.8z M431.9,272.9
		c-2.2,0.1-4.2-0.3-6.1-1.1c-4.2-2.1-6.3-5.8-6.5-11.1c-0.2,0.3-0.5,0.7-0.7,1c-2.4,3.4-4.8,6.4-7.3,8.9c-2.5,2.5-4.9,3.8-7.2,4
		c-2.7,0.2-5-0.5-6.7-2.1c-2-1.6-3.2-3.5-3.7-5.7c-0.5-2.2-0.3-4.8,0.5-7.8c0.8-3,2.2-6.4,4.1-10.3c1.9-3.8,4.2-8.2,7-13
		c1.9-3.3,3-5.6,3.1-7c0.2-1.4,0.3-2.1,0.3-2.2c-0.2-0.2-0.8-0.3-1.8-0.5c-1-0.2-3,0.1-5.9,0.7c-0.9,1.8-1.9,3.6-2.9,5.5
		c-1,1.9-2,3.6-2.9,5.3c-0.9,1.6-1.7,3.1-2.5,4.4c-0.5,0.9-0.9,1.6-1.3,2.1c-0.1,0.2-0.2,0.5-0.4,0.7c-0.7,1-1.6,2.4-2.6,4.3
		c-1,1.9-2.2,4.1-3.5,6.4c-1.4,2.4-2.9,4.8-4.5,7.3c-1.6,2.5-3.4,4.8-5.2,6.8c-1.8,2.1-3.7,3.8-5.8,5.1c-2,1.3-4.2,2.1-6.3,2.2
		c-1.8,0.1-3.8-0.4-5.9-1.4c-0.5-0.2-1.1-0.8-1.7-1.7c-0.6-0.9-1.1-2-1.6-3.4c-0.5-1.3-0.7-2.9-0.9-4.7c-0.1-1.8,0-3.7,0.5-5.8
		c-1.1,2-2.4,4-4,6.2c-1.5,2.1-3.3,4.1-5.2,6c-1.9,1.8-3.9,3.4-6,4.6c-2.1,1.3-4.2,2-6.4,2.1c-2.3,0.1-4.3-0.2-6-1.1
		c-2.4-1.1-4.2-2.8-5.4-5.1c-1.2-2.2-1.8-4.9-1.7-7.9c0.1-3.6,1-7.5,2.9-11.8c1.8-4.3,4.2-8.5,7.1-12.6c0.6-0.9,1.3-1.8,2-2.6
		c-0.4,0.1-0.9,0.2-1.3,0.3c-2.2,0.4-4.2,0.6-6.1,0.6c-1.9-0.1-3.4-0.3-4.6-0.8c-0.5,1.7-1.3,3.7-2.2,6.1c-1,2.4-2,4.6-3.2,6.5
		c-2.5,4.1-5.3,8.2-8.6,12c-3.3,3.9-6.6,7.3-10,10.2c-3.5,3-6.7,5.1-9.5,6.4c-2.8,1.2-5.2,1.9-7.2,2c-1.3,0.1-2.4,0-3.3-0.1
		c-0.9-0.2-1.7-0.5-2.5-0.9c-2.8-1.4-4.6-3.5-5.5-6.4c-0.3-0.8-0.4-1.7-0.4-2.8c-4.5,5.1-8.7,8.6-12.5,10.5c-3.8,1.9-6.9,2.2-9.5,1
		c-2.9-1.4-4.7-3.5-5.3-6.2c-0.5-1.9-0.6-3.9-0.1-6.2c0.5-2.3,1.2-4.6,2.4-7.1c1.1-2.5,2.5-5.1,4.1-7.8c1.6-2.7,3.3-5.6,5.1-8.6
		c2.3-3.6,4.4-7.1,6.3-10.7c2-3.5,3.2-6.5,3.9-8.9c0.4-1.4,1.1-2.5,2.3-3.3c1.2-0.8,2.5-1.1,3.8-0.8c1.5,0.3,2.5,1,3.3,2.1
		c0.7,1.1,0.9,2.4,0.5,3.8c-0.8,3.2-2.3,6.8-4.4,10.6c-2.1,3.9-4.5,7.9-7,12c-1.5,2.5-3.1,5.1-4.6,7.6c-1.5,2.5-2.7,4.9-3.7,7
		c-1.3,2.5-1.9,4.3-2,5.2c0,1-0.1,1.5-0.1,1.7c0.1,0,0.2,0,0.3,0.1c0.2,0,0.6-0.1,1.2-0.3c0.6-0.2,1.5-0.6,2.6-1.2
		c1.1-0.6,2.4-1.5,4-2.8c1.5-1.2,3.3-2.9,5.3-4.9c2.8-2.8,5.6-6.1,8.5-9.8c2.8-3.8,5.4-7.7,7.8-11.8c1.5-2.6,2.8-4.9,3.7-6.8
		c1-1.9,1.7-3.4,2.3-4.7c0.6-1.3,1-2.3,1.3-3.1c0.3-0.8,0.5-1.6,0.7-2.4c0.4-1.4,1.2-2.5,2.4-3.3c1.2-0.8,2.5-1.1,3.9-0.8
		c1.4,0.3,2.4,1,3.1,2.1c0.7,1.1,0.9,2.4,0.5,3.8c-0.7,3.2-2,6.6-4,10.3c-1.9,3.6-4,7.4-6.4,11.4c-1.4,2.4-2.7,4.9-4,7.3
		c-1.3,2.4-2.5,4.7-3.5,6.8c-1.2,2.6-1.8,4.5-1.9,5.6c-0.1,1.1-0.1,1.7-0.1,1.9c0.1,0.1,0.1,0.2,0.1,0.2c0,0,0.1,0.1,0.3,0.2
		c0.6,0.2,1.9,0,3.8-0.8c1.9-0.7,4.4-2.4,7.4-4.9c2.9-2.5,5.8-5.5,8.7-8.9c2.9-3.4,5.4-6.9,7.5-10.5c1.7-2.8,3-5.3,3.7-7.4
		c0.8-2.1,1.2-3.9,1.4-5.3c-1.4-1.9-2.3-4.1-2.9-6.6c-0.3-2.3,0.5-4,2.3-5.3c0.9-0.6,1.9-0.9,2.9-1c1-0.1,2,0.2,2.8,0.8
		c2.7,1.7,4.4,4.3,4.9,7.6c0.9,0.8,2,1.3,3.3,1.7c2.6,1,5.6,1.3,8.9,0.7c3.3-0.6,6.1-1.8,8.6-3.8c0.3-0.2,0.6-0.4,0.8-0.5
		c2.9-2.5,5.9-4.5,9-6.2c4.5-2.4,8.9-3.7,13-3.8c4.1-0.1,7.8,1,11,3.3c1.2,0.8,1.9,1.8,2,2.9c0.2,1.1,0,2-0.4,2.8
		c-0.5,0.8-1.2,1.3-2.2,1.6c-1,0.3-2.1,0-3.3-0.8c-3.5-2.4-7.9-2.1-13.4,0.9c-3.4,1.8-6.7,4.3-10,7.5c-3.3,3.2-6.3,6.6-9,10.2
		c-2.7,3.6-4.9,7.2-6.5,10.7c-1.7,3.5-2.6,6.4-2.7,8.8c-0.1,1.6,0.1,2.6,0.5,3.1c0.5,0.5,0.9,0.9,1.2,1c1.1,0.6,2.7,0.2,4.8-1.1
		c2.1-1.3,4.5-3.4,7.2-6.2c2.7-2.8,5.5-6.3,8.6-10.4c3-4.1,6-8.8,8.9-14.1c0.2-0.4,0.3-0.7,0.5-0.9c0.1-0.2,0.3-0.5,0.5-0.8
		c0.7-1.3,1.7-2.2,3.1-2.6c1.3-0.4,2.6-0.3,3.9,0.3c1.3,0.7,2.1,1.6,2.5,2.9c0.4,1.3,0.2,2.6-0.5,3.9c-0.4,0.6-0.6,1.1-0.8,1.5
		c-2.4,4.2-4.1,7.9-5.2,11c-1.1,3.1-1.9,5.7-2.2,7.8c-0.4,2.1-0.5,3.7-0.3,4.8c0.2,1.1,0.5,1.8,0.8,1.9c0.5,0.2,1.5,0,3.1-0.8
		c1.6-0.8,3.7-2.6,6.3-5.3c2.6-2.6,5.2-5.6,7.6-8.8c2.5-3.3,4.6-6.3,6.5-9c1.3-2.1,2.5-4.3,3.8-6.8c1.3-2.4,2.5-4.9,3.5-7.4
		c1.1-2.5,2-5,2.8-7.4c0.8-2.4,1.3-4.5,1.6-6.4c0.3-1.8,1-3.3,2-4.3c1.1-1,2.2-1.5,3.3-1.5c1.1,0,2,0.6,2.6,1.8
		c0.6,1.1,0.6,2.9,0,5.3c2.1,0,4.2,0.2,6.3,0.8c2.1,0.6,3.8,1.8,5.2,3.6c1.5,2.3,2.1,5.1,1.6,8.4c-0.5,3.3-2,7.3-4.6,11.9
		c-2.7,4.7-4.8,8.4-6.3,11.2c-1.5,2.8-2.6,5.3-3.2,7.6c-0.5,1.6-0.7,2.7-0.7,3.5c0,0.8,0,1.2,0.2,1.4c0.3,0,0.9-0.3,1.9-0.7
		c1-0.5,2.4-1.5,4.2-3.2c1.8-1.6,3.9-4.1,6.5-7.3c2.5-3.2,5.4-7.4,8.6-12.8c1-2,2.2-3.9,3.5-5.9c3.1-4.5,6.4-8.6,10-12
		c3.5-3.5,7.1-6.1,10.6-8c7.5-4.1,14.3-4.3,20.2-0.8c1.3-2.4,2.5-4.9,3.8-7.3c1.3-2.4,2.4-4.8,3.5-7c1-2.2,1.9-4.2,2.7-6
		c0.7-1.8,1.2-3.3,1.5-4.5c0.3-1.4,1-2.5,2.2-3.3c1.2-0.8,2.5-1.2,3.8-1c1.4,0.2,2.4,0.9,3.2,2c0.8,1.1,1,2.4,0.8,3.9
		c-0.7,3.8-2.9,9.2-6.5,16.3c-3.6,7.1-8.4,15.8-14.3,26.3c-0.2,0.4-0.3,0.6-0.3,0.6c-0.4,0.6-0.7,1.2-1.1,2
		c-0.4,0.7-0.8,1.5-1.2,2.3c-3.2,6-5.1,11.3-5.9,15.9c-0.5,2.2-0.6,3.9-0.3,5c0.2,1.1,0.5,1.8,0.7,1.9c0.5,0.2,1.5,0,3.1-0.8
		c1.6-0.8,3.7-2.6,6.3-5.3c2.6-2.6,5.2-5.6,7.6-8.8c2.4-3.3,4.6-6.3,6.6-9c0.7-1.1,1.5-1.8,2.4-2.1c0.9-0.3,1.6-0.3,2.2,0
		c0.6,0.3,1,0.8,1.2,1.6c0.2,0.8-0.1,1.7-0.8,2.8c-0.7,1-1.7,2.4-2.8,4.3c-1.1,1.9-2.4,4.1-3.9,6.4c-1.5,2.4-3,4.8-4.8,7.3
		c-1.7,2.5-3.5,4.8-5.3,6.9c-1.8,2.1-3.7,3.8-5.6,5.1c-1.9,1.3-3.8,2.1-5.6,2.2c-2,0.1-4-0.4-5.9-1.4c-1.3-0.7-2.4-1.7-3.5-3.1
		c-1-1.4-1.7-3.4-2.1-5.9c-3,3.3-6.2,6.1-9.5,8.4C438.4,271.4,435.1,272.7,431.9,272.9z M148.9,295.5c-0.7,0-1.4-0.1-2-0.3
		c-1.3-0.5-2.2-1.3-2.7-2.6c-0.5-1.3-0.5-2.6,0-3.9c1.4-3.4,3.4-6.6,6.1-9.7c2.7-3.1,5.8-6,9.5-8.5c3.6-2.6,7.6-4.8,12-6.8
		c4.4-1.9,8.9-3.4,13.5-4.3c0.8-0.1,1.6-0.3,2.5-0.4c0.8-0.1,1.7-0.2,2.6-0.3l2-3.4c2.7-4.3,5.8-9,9.2-13.8c3.4-4.9,7-9.5,10.8-13.9
		c3.8-4.4,7.7-8.3,11.7-11.7c4-3.4,8-5.9,11.9-7.4c-3.7-0.6-7.6-0.5-11.6,0.3c-4,0.8-7.9,2.1-11.7,4c-3.8,1.9-7.3,4.1-10.6,6.7
		c-3.3,2.6-6.2,5.4-8.7,8.4c-2.5,3-4.4,6-5.8,9.1c-1.4,3.1-2,6.1-1.8,8.9c0.2,2.8-0.4,5-1.8,6.7c-1.4,1.7-3,2.7-4.8,3
		c-1.8,0.3-3.6-0.1-5.3-1.2c-1.7-1.1-2.8-3-3.3-5.7c-0.6-3.3-0.2-7.2,1.4-11.6c1.5-4.4,4.3-8.9,8.2-13.4c4-4.5,9.2-8.8,15.7-12.8
		c6.5-4,14.5-7.3,24-9.7c10.2-2.5,19.7-2.2,28.6,0.8c1.5,0.5,2.5,1.5,3,3.2c0.5,1.8,0.1,3.5-1.2,5.1c-4.4,6.3-8,12.5-10.9,18.8
		c-2.9,6.3-5,12.4-6.3,18.4c-1.3,5.8-1.7,11.2-1.3,16.2c0.4,5,1.7,9.5,3.7,13.3c0.6,1.1,0.8,2.4,0.5,3.7c-0.3,1.3-1.1,2.3-2.2,3.1
		c-1.1,0.8-2.3,1.1-3.5,1c-1.3-0.2-2.3-0.7-3.1-1.7c-2.5-2.9-5-5.4-7.7-7.3c-2.7-1.9-5.4-3.4-8.1-4.4c-2.7-1.1-5.4-1.8-8-2.2
		c-2.6-0.4-5.1-0.6-7.5-0.6c-2.7,4.3-5.5,8.6-8.5,12.7c-2.9,4.1-5.9,8-8.9,11.6c-3,3.6-6.2,6.8-9.5,9.8c-3.3,2.9-6.7,5.3-10.2,7.1
		c-2.7,1.4-5.3,2.5-7.6,3.1c-2.4,0.6-4.6,1-6.7,1.1c-3.5,0.2-6.4-0.1-8.8-1c-2.4-0.9-4.3-1.7-5.7-2.7c-3.7-2.4-6.5-5.8-8.2-10
		c-1.7-4.3-2.3-8.8-1.6-13.7c0.7-5.8,2.9-11,6.6-15.6c3.7-4.6,8.6-8.3,14.8-11.2c1.3-0.6,2.6-0.7,3.9-0.2c1.3,0.5,2.2,1.4,2.7,2.6
		c0.5,1.2,0.5,2.5,0,3.9c-0.5,1.3-1.5,2.3-2.7,2.8c-4.4,2.1-7.9,4.7-10.5,7.8c-2.6,3.2-4.2,6.7-4.6,10.5c-0.4,2.9,0,5.7,1,8.3
		c1,2.6,2.6,4.6,4.7,6c2.4,1.6,5.1,2.3,8.2,2.1c3.1-0.2,6.6-1.2,10.3-3.1c5-2.7,9.8-6.7,14.5-12.1c4.6-5.4,9.2-11.4,13.6-18
		c-3.7,1-7.2,2.4-10.4,4c-3.2,1.6-6,3.4-8.5,5.4c-2.5,2-4.6,4-6.3,6.1c-1.7,2.1-2.9,4.1-3.7,6.1c-0.5,1-1.1,1.8-1.9,2.4
		C150.8,295.1,149.9,295.4,148.9,295.5z"/>
	<path class="st1" d="M89.6,79.3c1.4-0.8,3.2-1.3,4.8-1.9c1.5-0.5,3-1,4.5-1.5c0.7-0.2,2.8-1.2,3.4-1.3c-2.7,0.3-5.9,0.9-8.5,1.9
		c-2.7,1-5,2.4-7.3,3.8c-1.2,0.8-2.8,2-4.3,3.2c1.5-0.8,3.2-1.4,4.7-2.3C87.8,80.6,88.6,79.9,89.6,79.3z"/>
	<path class="st1" d="M76,86.2c0.5,0.2,1.1,0.1,1.7-0.1c-1.8,1.4-3.7,2.8-5.4,4.2c1.8-1.4,3.6-2.9,5.4-4.2c0.7-0.2,1.5-0.6,2.3-1.1
		c-0.2,0.2-0.4,0.4-0.6,0.6c-2,2.7,1.3,2.6,3.6,1.7c2.7-1.1,7-3.2,9.8-5.1c0.2-0.1,0.4-0.3,0.6-0.4c2.8-2.1,5.8-4.1,9.4-5.8
		c2.7-1.3,7.6-3.3,10.9-3.1c-1.4-0.1-2.7-0.7-4.1-0.8c-1.8-0.1-3.9-0.1-5.9,0.1c-8.6,0.6-20.7,4.1-26.8,10
		C75.3,83.8,74.5,85.7,76,86.2z M86.4,80.3c2.3-1.4,4.6-2.8,7.3-3.8c2.7-0.9,5.8-1.6,8.5-1.9c-0.6,0.1-2.7,1-3.4,1.3
		c-1.5,0.5-3,1-4.5,1.5c-1.5,0.6-3.3,1.1-4.8,1.9c-1.1,0.6-1.8,1.3-2.9,1.9c-1.5,0.9-3.2,1.5-4.7,2.3C83.7,82.3,85.2,81.1,86.4,80.3
		z"/>
	<path class="st1" d="M82.5,95.2c-0.2,0.8-4.3,2.2-4.9,2.5c-1.7,0.6-3.1,0.6-4.4,0.5c-1.4-0.2-2.8-0.6-4.4-0.4
		c-1.2,0.1-2.6,0.6-4.1,1.8c-0.9,0.8-2.9,2.8-3,3.9c-0.2,1.4,1.6,1.1,2.6,0.8c1.5-0.4,3.2-1.4,4.8-2.1c0.8-0.4,1.7-0.7,2.5-1
		c0.4-0.1,1.5-0.1,1.8-0.3c-1.6,1-3.3,2-4.8,2.8c-1.5,0.7-2.8,1-4.2,1.4c-1.7,0.5-5.2,0.5-6.4,4.2c-0.6,1.8,0.3,2.6,1.4,2.3
		c3.9-1,9.7-5.9,14.4-8.7c2.2-1.4,4.2-2.9,6.2-4.8C80.7,97.3,82.4,95.8,82.5,95.2z"/>
	<path class="st1" d="M72.2,90.3c-1.5,1.2-2.9,2.4-4.3,3.7C69.4,92.7,70.8,91.5,72.2,90.3z"/>
	<path class="st1" d="M51.9,120.3c-1.8,0.4-5.6,0.2-7,4c-0.7,1.9,0.2,2.7,1.4,2.5c4.2-0.8,10.6-5.7,15.7-8.4
		c2.4-1.3,4.7-2.9,6.9-4.7c0.7-0.6,2.7-2.1,2.8-2.8c-0.2,0.8-4.6,2.1-5.3,2.3c-1.9,0.6-3.3,0.5-4.7,0.3c-1.5-0.2-2.9-0.8-4.7-0.7
		c-1.3,0.1-2.8,0.5-4.4,1.7c-1,0.7-3.2,2.8-3.4,3.9c-0.3,1.4,1.6,1.2,2.7,1c1.6-0.4,3.5-1.3,5.2-1.9c0.9-0.3,1.8-0.7,2.7-0.9
		c0.4-0.1,1.6-0.1,1.9-0.2c-1.7,1-3.6,2-5.2,2.6C54.8,119.8,53.4,120,51.9,120.3z"/>
	<path class="st1" d="M60.2,122.3c0.1,0.9-4.1,3.5-4.8,3.9c-1.8,1.1-3.4,1.4-4.9,1.6c-1.7,0.1-3.4,0-5.2,0.5
		c-1.4,0.4-2.8,1.3-4.1,3.1c-0.9,1.1-2.5,4.1-2.4,5.4c0.1,1.7,2.2,0.9,3.2,0.3c1.6-0.9,3.3-2.4,5-3.7c0.9-0.6,1.7-1.3,2.6-1.8
		c0.4-0.2,1.7-0.5,2-0.8c-1.5,1.5-3.2,3.2-4.7,4.4c-1.5,1.2-3,1.9-4.5,2.7c-1.8,1-6,1.9-6.3,6.7c-0.1,2.3,1.2,3,2.4,2.4
		c4.3-2.3,9.6-9.5,14.1-13.9c2.1-2.1,3.9-4.4,5.6-7C58.8,125.2,60.3,123.1,60.2,122.3z"/>
	<path class="st1" d="M16.3,214.4c1.5,1.1,3.1,0.4,3.3-2.6c0.5-6.1-3.9-8.9-5.7-11.6c-1.4-2-2.8-3.9-3.7-6.8
		c-0.9-2.9-1.4-6.7-1.5-10.2c0,0.7,1,2.4,1.2,3.1c0.5,1.5,0.9,3.1,1.4,4.7c0.9,3.1,1.9,6.3,3.4,8.5c1,1.4,3.1,3.5,4,1.5
		c0.6-1.5,0.4-5.9,0.2-7.7c-0.3-3-1-5.1-2.1-6.8c-1.3-2.3-3.1-3.8-4.4-5.8c-1.2-1.8-2.3-4-2.3-7.5c-0.2-1.3,0.4-9,1.7-10.1
		c-1,0.7-2.7,4.5-3.3,6.2c-2,5-2.7,10.3-2.5,15.5C6.1,195.8,10.6,210.5,16.3,214.4z"/>
	<path class="st1" d="M20,179.7c1.8-5.4-1.6-9-2.7-11.7c-0.8-2.1-1.7-4.2-1.9-7c-0.2-2.8,0.1-6.4,0.8-9.6c-0.1,0.7,0.4,2.4,0.4,3
		c0.1,1.5,0.1,3,0.2,4.6c0.2,3,0.4,6.2,1.3,8.5c0.6,1.5,2.1,3.9,3.3,2.2c0.9-1.2,1.6-5.3,1.9-7c0.4-2.8,0.1-4.8-0.4-6.6
		c-0.7-2.3-2-4.2-2.8-6.2c-0.7-1.9-1.2-4.2-0.6-7.3c0.1-1.2,2.3-8.1,3.7-8.8c-1.1,0.5-3.4,3.6-4.3,4.9c-2.9,4.2-4.7,8.8-5.6,13.6
		c-2.2,10.1-1.3,24.4,3.1,29.2C17.6,182.7,19.2,182.4,20,179.7z"/>
	<path class="st1" d="M38.7,156.8c-1.4,1.3-2.9,2-4.3,2.9c-1.8,1.1-5.9,2.3-5.8,7c0,2.3,1.3,2.9,2.5,2.2c4.2-2.6,9-10.1,13.2-14.7
		c1.9-2.2,3.7-4.6,5.2-7.3c0.5-0.9,1.9-3.1,1.8-3.9c0.1,0.9-3.9,3.7-4.5,4.2c-1.7,1.2-3.3,1.6-4.8,1.8c-1.6,0.2-3.4,0.2-5.2,0.8
		c-1.3,0.5-2.7,1.5-4,3.4c-0.8,1.2-2.2,4.2-2,5.5c0.2,1.7,2.2,0.7,3.3,0.1c1.6-1,3.1-2.6,4.7-4c0.8-0.7,1.7-1.4,2.5-1.9
		c0.4-0.2,1.6-0.6,1.9-0.9C41.7,153.8,40.1,155.5,38.7,156.8z"/>
	<path class="st1" d="M50,105.5c0.2,1.3,1.4,1.8,3,0.4c3.3-2.8,2.5-6.5,2.8-8.7c0.3-1.7,0.5-3.3,1.4-5.3c0.9-1.9,2.6-4.1,4.3-6
		c-0.3,0.4-0.7,1.7-0.9,2.2c-0.5,1-1.1,2.1-1.6,3.1c-1,2-2.1,4.2-2.4,6c-0.2,1.2-0.1,3.3,1.3,2.7c1.1-0.5,3.2-2.9,4.1-4
		c1.4-1.7,2-3.2,2.3-4.6c0.4-1.8,0.2-3.5,0.5-5.1c0.2-1.5,0.8-3.2,2.4-5.1c0.6-0.8,5-5,6.2-4.8c-0.8-0.2-3.9,1.3-5.2,1.9
		c-3.7,1.9-6.7,4.3-9.1,7.1C53.8,91.3,49.1,100.7,50,105.5z"/>
	<path class="st1" d="M36,284.1c2.1,0.5,3.4-1.1,2.2-4.5c-2.2-6.7-8-7.6-11.1-9.6c-2.3-1.5-4.6-2.9-6.8-5.7
		c-2.2-2.7-4.4-6.6-5.9-10.5c0.3,0.8,2,2.2,2.5,2.8c1.1,1.4,2.3,3,3.4,4.5c2.2,2.9,4.8,6,7.3,7.6c1.6,1.1,4.8,2.3,4.8-0.2
		c0-1.9-2.2-6.5-3.1-8.4c-1.6-3-3.3-5-5-6.3c-2.3-1.8-4.9-2.8-7.1-4.3c-2.1-1.4-4.1-3.4-5.6-7.1c-0.4-0.8-1.7-4.8-2.3-8
		c3.8,7.2,8.5,13.2,12.9,14.8c2,0.8,3.5-0.5,2.9-4c-1-7-6.6-8.9-9.2-11.4c-2-1.9-4-3.7-5.7-6.8c-1.7-3-3.1-7.3-4-11.3
		c0.2,0.8,1.6,2.5,2,3.2c0.9,1.6,1.7,3.4,2.6,5c1.7,3.3,3.6,6.7,5.8,8.8c1.4,1.4,4.3,3.1,4.8,0.6c0.3-1.9-1-6.7-1.6-8.8
		c-1-3.3-2.3-5.4-3.8-7.1c-2-2.2-4.3-3.6-6.2-5.4c-1.8-1.8-3.4-4.1-4.3-8C5.1,202.6,4,193.6,5.2,192c-1,1.1-2.1,5.8-2.4,7.9
		c-1.1,6.3-0.8,12.6,0.6,18.5c1,4.8,2.8,9.9,5.1,14.7c-0.3,1.9-0.4,4.5-0.3,5.8c0,6.4,1.4,12.5,3.9,18.1C17,269,28.3,282.8,36,284.1
		z"/>
	<path class="st1" d="M24.1,151.3c0.7,1.4,2.2,1.5,3.4-0.7c2.6-4.3,0.3-8-0.2-10.6c-0.3-2-0.7-3.9-0.4-6.3c0.3-2.4,1.2-5.4,2.3-8.1
		c-0.2,0.5-0.1,2.1-0.1,2.7c-0.1,1.3-0.4,2.6-0.6,3.9c-0.4,2.6-0.7,5.3-0.4,7.5c0.2,1.4,1.1,3.7,2.5,2.5c1-0.9,2.4-4.3,2.9-5.7
		c0.8-2.3,1-4.2,0.8-5.8c-0.2-2.1-1-3.9-1.4-5.8c-0.3-1.8-0.4-3.8,0.7-6.4c0.3-0.9,3.1-6.3,4.5-7c-1.6,5-2.2,10-1,12.9
		c0.5,1.4,1.8,1.7,3.3-0.2c2.9-3.6,1.3-7.5,1.2-9.9c-0.1-1.9-0.2-3.7,0.5-5.9c0.6-2.2,1.8-4.9,3.3-7.2c-0.3,0.5-0.3,2-0.5,2.5
		c-0.3,1.2-0.7,2.4-1.1,3.6c-0.7,2.3-1.4,4.9-1.3,6.9c0,1.3,0.5,3.6,2,2.7c1.1-0.7,2.8-3.7,3.5-4.9c1.1-2.1,1.4-3.8,1.5-5.3
		c0.1-2-0.5-3.8-0.5-5.6c-0.1-1.7,0.2-3.6,1.5-5.8c0.4-0.9,4.2-6.1,5.4-6c-0.9-0.1-3.8,1.9-4.9,2.8c-3.4,2.5-6.1,5.6-8,9.1
		c-1.9,3-3.5,6.7-4.6,10.4c-1.1,0.4-3.5,2.6-4.5,3.6c-3.2,3.1-5.5,6.8-7.1,10.7C23,134.1,21.3,146.3,24.1,151.3z"/>
	<path class="st1" d="M35.6,306c0-0.2,0-0.3,0-0.4C35.5,305.7,35.6,305.8,35.6,306z"/>
	<path class="st1" d="M29.7,184.9c-1.8,1.8-6.3,4.4-4.9,10c0.7,2.8,2.4,3,3.6,1.8c4.1-4.3,7.7-14.4,11.4-20.7c1.7-3,3-6.1,4.1-9.6
		c0.3-1.2,1.3-4,1-4.8c0.4,1-3.6,5-4.2,5.8c-1.7,1.8-3.4,2.6-5.1,3.2c-1.9,0.7-3.9,1-5.9,2.2c-1.4,1-2.8,2.5-3.7,5
		c-0.6,1.6-1.5,5.6-0.9,7.1c0.7,1.9,2.8,0.2,3.8-0.8c1.6-1.6,3-4,4.5-5.9c0.8-1,1.6-2,2.4-2.9c0.4-0.4,1.7-1.1,2-1.5
		c-1.2,2.2-2.6,4.6-3.9,6.5C32.6,182.2,31.2,183.4,29.7,184.9z"/>
	<path class="st1" d="M129.2,351.5c-8.4-2.7-13.8,1.4-18.1,2.4c-3.2,0.8-6.3,1.5-10.4,1.2c-4.1-0.4-9-1.7-13.3-3.7
		c0.9,0.4,3.4,0.2,4.3,0.3c2.1,0.2,4.3,0.6,6.4,0.9c4.2,0.5,8.9,0.8,12.4,0c2.3-0.5,5.9-2.2,3.7-4.1c-1.7-1.4-7.4-3.1-9.7-3.9
		c-3.8-1.1-6.7-1.3-9.2-1c-3.3,0.4-6.1,1.6-9,2.1c-2.8,0.4-5.9,0.4-9.9-1.6c-1.4-0.5-8.1-4.7-10.1-7.2c9.5,3.6,19.8,4.9,25.4,2.5
		c2.4-0.9,2.4-3-1.2-5.1c-7.1-4.3-13-1.8-17.1-1.8c-3.1,0-6.1,0-9.8-1.2c-3.6-1.2-7.9-3.6-11.4-6.3c0.7,0.6,3,0.9,3.9,1.2
		c1.8,0.7,3.8,1.5,5.7,2.2c3.8,1.4,8,2.7,11.3,2.8c2.2,0.1,5.9-0.7,4.3-3c-1.3-1.7-6.1-4.5-8.1-5.7c-3.2-1.9-5.8-2.7-8.2-3
		c-3.1-0.4-5.9,0.1-8.7-0.1c-2.6-0.2-5.5-1-8.8-3.6c-1.3-0.8-7.5-7.3-7.9-9.6c0,1.7,2,6.2,3.1,8c3.1,6,7.7,11.1,13,14.9
		c3.9,3.1,9,5.8,14.3,7.8c0.9,2,3.6,5.4,4.9,6.9c4.7,5.4,10.7,9.5,17.1,12.1c13.3,6.2,35.5,6.9,43.7,0.8
		C134,354.8,133.5,352.7,129.2,351.5z"/>
	<path class="st1" d="M59.9,314.7c2.4-0.3,3.1-2.4,0.6-5.3c-4.8-5.9-11-4.9-14.8-5.8c-2.9-0.7-5.7-1.4-8.8-3.5
		c-3.1-2.1-6.6-5.4-9.3-8.9c0.6,0.7,2.7,1.6,3.5,2.1c1.6,1.1,3.2,2.4,4.9,3.5c3.2,2.3,6.8,4.6,9.9,5.4c2,0.6,5.7,0.7,4.8-2
		c-0.7-2-4.4-5.9-5.9-7.6c-2.6-2.6-4.9-4-7.1-4.9c-2.9-1.1-5.8-1.3-8.5-2.1c-2.5-0.8-5.2-2.2-7.8-5.6c-1.1-1.1-6.3-9.5-5.8-11.6
		c-0.4,1.5,0.7,6.8,1.4,8.9c1.8,6.7,5.2,12.8,9.4,17.8C34.7,306.2,51.2,316.4,59.9,314.7z"/>
	<path class="st1" d="M34.7,239.5c-1,2.7-4.3,7.8,0,12.8c2.1,2.4,3.9,1.7,4.5-0.2c1.9-6.7,0.7-18.7,1.6-26.8
		c0.3-3.9,0.3-7.6-0.3-11.6c-0.2-1.3-0.5-4.6-1.2-5.3c0.9,0.9-1.3,6.7-1.6,7.8c-0.9,2.6-2.3,4.2-3.8,5.7c-1.6,1.6-3.6,2.9-5,5.2
		c-1,1.7-1.7,3.9-1.4,7.1c0.1,2,1.2,6.6,2.5,7.8c1.7,1.6,3-1.3,3.5-2.9c0.8-2.5,1.1-5.6,1.7-8.3c0.3-1.4,0.6-2.8,1.1-4.1
		c0.2-0.6,1.3-2,1.3-2.5c-0.2,2.8-0.5,5.9-0.9,8.5C36.3,235.3,35.4,237.3,34.7,239.5z"/>
	<path class="st1" d="M46.2,268.7c-0.6,3-3.3,9.1,2.2,13.5c2.8,2.1,4.5,1,4.8-1.1c0.7-7.4-2.5-19.8-2.5-28.5
		c-0.2-4.1-0.6-8-1.6-12.1c-0.4-1.3-1-4.8-1.8-5.4c1,0.8-0.7,7.2-0.9,8.4c-0.7,2.8-1.9,4.8-3.4,6.6c-1.5,1.9-3.5,3.7-4.7,6.3
		c-0.9,2-1.3,4.5-0.6,7.8c0.4,2.1,2.3,6.8,3.9,7.8c2,1.4,3-1.9,3.3-3.7c0.5-2.8,0.4-6.1,0.7-9.1c0.1-1.6,0.3-3.1,0.7-4.5
		c0.2-0.6,1.1-2.3,1.1-2.9c0.1,3,0.2,6.3,0.1,9.1C47.4,263.9,46.7,266.2,46.2,268.7z"/>
	<path class="st1" d="M29.6,211.7c-1.6,2.1-5.9,5.5-3.6,11c1.1,2.7,2.9,2.6,3.9,1.2c3.6-5.2,5.9-15.9,9-22.6c1.3-3.2,2.4-6.5,3-10
		c0.2-1.2,0.9-4.1,0.5-4.9c0.5,1-3,5.4-3.6,6.2c-1.5,2-3.1,3-4.9,3.8c-1.8,0.9-3.9,1.5-5.7,3.1c-1.4,1.2-2.6,2.9-3.2,5.7
		c-0.4,1.7-0.8,6,0,7.4c1,1.8,2.9-0.3,3.8-1.5c1.4-1.9,2.6-4.5,3.9-6.7c0.7-1.1,1.4-2.3,2.1-3.2c0.3-0.4,1.6-1.3,1.8-1.8
		c-1,2.4-2.1,5-3.2,7.1C32.2,208.5,30.9,210,29.6,211.7z"/>
	<path class="st1" d="M64.4,293.5c0.2,3.1-0.8,9.6,5.7,12.5c3.2,1.3,4.6-0.2,4.4-2.3c-1.3-7.3-7.6-18.5-9.9-26.8
		c-1.2-3.9-2.7-7.6-4.7-11.2c-0.7-1.2-2.2-4.3-3.2-4.8c1.2,0.5,1.2,7.2,1.4,8.3c0.1,2.9-0.6,5.2-1.5,7.3c-1,2.3-2.4,4.5-2.8,7.3
		c-0.3,2.2-0.1,4.7,1.5,7.7c0.9,1.9,4,5.9,5.8,6.5c2.3,0.8,2.3-2.6,2.2-4.4c-0.3-2.8-1.2-6-1.8-9c-0.3-1.5-0.5-3.1-0.6-4.6
		c0-0.7,0.5-2.5,0.3-3.1c0.9,2.9,1.9,6.1,2.5,8.8C64.2,288.6,64.2,291,64.4,293.5z"/>
	<path class="st1" d="M112.3,316.5c-2.9-3-5.9-5.8-9.3-8.3c-1.2-0.8-3.9-3.1-4.9-3c1.3-0.1,4.1,6.2,4.7,7.2c1.3,2.7,1.7,5.1,1.7,7.4
		c0.1,2.5-0.3,5.2,0.6,8.1c0.7,2.1,2,4.4,5,6.4c1.8,1.3,6.7,3.6,8.8,3.2c2.7-0.4,1-3.5-0.1-5.1c-1.6-2.4-4.1-4.9-6-7.4
		c-1-1.3-1.9-2.6-2.6-3.9c-0.3-0.6-0.7-2.5-1.1-3c2.1,2.2,4.5,4.7,6.4,6.9c1.9,2.2,3,4.4,4.5,6.6c1.8,2.7,4,9.1,12.1,8.5
		c4-0.4,4.6-2.5,3.2-4.2C130,330.2,118.1,323.2,112.3,316.5z"/>
	<path class="st1" d="M89.9,316c0.6,3.1,0.4,9.9,8.1,12.3c3.9,1.1,5.2-0.6,4.5-2.7c-2.9-7.4-11.3-18.3-14.2-26.7
		c-1.6-3.9-3.3-7.5-5.6-11.1c-0.8-1.2-2.5-4.3-3.5-4.6c1.2,0.4,1.5,7.2,1.7,8.4c0.2,3-0.3,5.3-1.1,7.6c-0.9,2.4-2.2,4.8-2.4,7.7
		c-0.2,2.2,0.3,4.8,2.3,7.8c1.2,1.9,4.9,5.8,7,6.3c2.6,0.6,2.2-2.9,1.8-4.7c-0.6-2.8-2-6-2.9-9.1c-0.4-1.6-0.8-3.1-1-4.6
		c-0.1-0.7,0.3-2.6,0.1-3.2c1.1,2.9,2.5,6.1,3.4,8.8C89.1,311,89.4,313.4,89.9,316z"/>
	<path class="st1" d="M149.9,352c0,0,19.9,0.8,24.4,1.7v-4.3c-2.9-0.4-5.8-0.6-8.6-0.6c-13,0.3-26.1-1.1-38.7-4.3
		c-22.9-5.9-43.8-18-60.5-34.7C34,277.1,18.5,229,23.3,183.3c3.5-33.8,18.7-65.6,43.6-88.4C35.7,123.1,19.7,163.7,21,206.3
		c1.4,46.2,22.6,92.4,60.1,120.2c15.6,11.6,33.8,19.5,52.8,23.4C139.3,351,144.6,351.6,149.9,352C149.9,352,149.9,352,149.9,352z"/>
	<path class="st1" d="M549.7,79.3c-1.4-0.8-3.2-1.3-4.8-1.9c-1.5-0.5-3-1-4.5-1.5c-0.7-0.2-2.8-1.2-3.4-1.3c2.7,0.3,5.9,0.9,8.5,1.9
		c2.7,1,5,2.4,7.3,3.8c1.2,0.8,2.8,2,4.3,3.2c-1.5-0.8-3.2-1.4-4.7-2.3C551.5,80.6,550.8,79.9,549.7,79.3z"/>
	<path class="st1" d="M562.3,82.2c-6.1-5.9-18.1-9.4-26.8-10c-2-0.2-4.1-0.2-5.9-0.1c-1.4,0.1-2.7,0.8-4.1,0.8
		c3.3-0.2,8.2,1.8,10.9,3.1c3.6,1.7,6.6,3.7,9.4,5.8c0.2,0.1,0.4,0.3,0.6,0.4c2.8,1.9,7.1,4,9.8,5.1c2.3,0.9,5.6,1,3.6-1.7
		c-0.2-0.2-0.4-0.4-0.6-0.6c0.8,0.5,1.6,0.9,2.3,1.1c1.9,1.4,3.7,2.8,5.4,4.2c-1.8-1.5-3.6-2.9-5.4-4.2c0.6,0.2,1.2,0.2,1.7,0.1
		C564.8,85.7,564,83.8,562.3,82.2z M557.2,83.5c-1.5-0.8-3.2-1.4-4.7-2.3c-1-0.6-1.8-1.3-2.9-1.9c-1.4-0.8-3.2-1.3-4.8-1.9
		c-1.5-0.5-3-1-4.5-1.5c-0.7-0.2-2.8-1.2-3.4-1.3c2.7,0.3,5.9,0.9,8.5,1.9c2.7,1,5,2.4,7.3,3.8C554.1,81.1,555.7,82.3,557.2,83.5z"
		/>
	<path class="st1" d="M556.8,95.2c0.2,0.8,4.3,2.2,4.9,2.5c1.7,0.6,3.1,0.6,4.4,0.5c1.4-0.2,2.8-0.6,4.4-0.4
		c1.2,0.1,2.6,0.6,4.1,1.8c0.9,0.8,2.9,2.8,3,3.9c0.2,1.4-1.6,1.1-2.6,0.8c-1.5-0.4-3.2-1.4-4.8-2.1c-0.8-0.4-1.7-0.7-2.5-1
		c-0.4-0.1-1.5-0.1-1.8-0.3c1.6,1,3.3,2,4.8,2.8c1.5,0.7,2.8,1,4.2,1.4c1.7,0.5,5.2,0.5,6.4,4.2c0.6,1.8-0.3,2.6-1.4,2.3
		c-3.9-1-9.7-5.9-14.4-8.7c-2.2-1.4-4.2-2.9-6.2-4.8C558.7,97.3,556.9,95.8,556.8,95.2z"/>
	<path class="st1" d="M567.1,90.3c1.5,1.2,2.9,2.4,4.3,3.7C569.9,92.7,568.5,91.5,567.1,90.3z"/>
	<path class="st1" d="M587.4,120.3c1.8,0.4,5.6,0.2,7,4c0.7,1.9-0.2,2.7-1.4,2.5c-4.2-0.8-10.6-5.7-15.7-8.4
		c-2.4-1.3-4.7-2.9-6.9-4.7c-0.7-0.6-2.7-2.1-2.8-2.8c0.2,0.8,4.6,2.1,5.3,2.3c1.9,0.6,3.3,0.5,4.7,0.3c1.5-0.2,2.9-0.8,4.7-0.7
		c1.3,0.1,2.8,0.5,4.4,1.7c1,0.7,3.2,2.8,3.4,3.9c0.3,1.4-1.6,1.2-2.7,1c-1.6-0.4-3.5-1.3-5.2-1.9c-0.9-0.3-1.8-0.7-2.7-0.9
		c-0.4-0.1-1.6-0.1-1.9-0.2c1.7,1,3.6,2,5.2,2.6C584.5,119.8,585.9,120,587.4,120.3z"/>
	<path class="st1" d="M579.1,122.3c-0.1,0.9,4.1,3.5,4.8,3.9c1.8,1.1,3.4,1.4,4.9,1.6c1.7,0.1,3.4,0,5.2,0.5
		c1.4,0.4,2.8,1.3,4.1,3.1c0.9,1.1,2.5,4.1,2.4,5.4c-0.1,1.7-2.2,0.9-3.2,0.3c-1.6-0.9-3.3-2.4-5-3.7c-0.9-0.6-1.7-1.3-2.6-1.8
		c-0.4-0.2-1.7-0.5-2-0.8c1.5,1.5,3.2,3.2,4.7,4.4c1.5,1.2,3,1.9,4.5,2.7c1.8,1,6,1.9,6.3,6.7c0.1,2.3-1.2,3-2.4,2.4
		c-4.3-2.3-9.6-9.5-14.1-13.9c-2.1-2.1-3.9-4.4-5.6-7C580.5,125.2,579,123.1,579.1,122.3z"/>
	<path class="st1" d="M623.1,214.4c-1.5,1.1-3.1,0.4-3.3-2.6c-0.5-6.1,3.9-8.9,5.7-11.6c1.4-2,2.8-3.9,3.7-6.8
		c0.9-2.9,1.4-6.7,1.5-10.2c0,0.7-1,2.4-1.2,3.1c-0.5,1.5-0.9,3.1-1.4,4.7c-0.9,3.1-1.9,6.3-3.4,8.5c-1,1.4-3.1,3.5-4,1.5
		c-0.6-1.5-0.4-5.9-0.2-7.7c0.3-3,1-5.1,2.1-6.8c1.3-2.3,3.1-3.8,4.4-5.8c1.2-1.8,2.3-4,2.3-7.5c0.2-1.3-0.4-9-1.7-10.1
		c1,0.7,2.7,4.5,3.3,6.2c2,5,2.7,10.3,2.5,15.5C633.2,195.8,628.8,210.5,623.1,214.4z"/>
	<path class="st1" d="M619.3,179.7c-1.8-5.4,1.6-9,2.7-11.7c0.8-2.1,1.7-4.2,1.9-7c0.2-2.8-0.1-6.4-0.8-9.6c0.1,0.7-0.4,2.4-0.4,3
		c-0.1,1.5-0.1,3-0.2,4.6c-0.2,3-0.4,6.2-1.3,8.5c-0.6,1.5-2.1,3.9-3.3,2.2c-0.9-1.2-1.6-5.3-1.9-7c-0.4-2.8-0.1-4.8,0.4-6.6
		c0.7-2.3,2-4.2,2.8-6.2c0.7-1.9,1.2-4.2,0.6-7.3c-0.1-1.2-2.3-8.1-3.7-8.8c1.1,0.5,3.4,3.6,4.3,4.9c2.9,4.2,4.7,8.8,5.6,13.6
		c2.2,10.1,1.3,24.4-3.1,29.2C621.7,182.7,620.1,182.4,619.3,179.7z"/>
	<path class="st1" d="M600.6,156.8c1.4,1.3,2.9,2,4.3,2.9c1.8,1.1,5.9,2.3,5.8,7c0,2.3-1.3,2.9-2.5,2.2c-4.2-2.6-9-10.1-13.2-14.7
		c-1.9-2.2-3.7-4.6-5.2-7.3c-0.5-0.9-1.9-3.1-1.8-3.9c-0.1,0.9,3.9,3.7,4.5,4.2c1.7,1.2,3.3,1.6,4.8,1.8c1.6,0.2,3.4,0.2,5.2,0.8
		c1.3,0.5,2.7,1.5,4,3.4c0.8,1.2,2.2,4.2,2,5.5c-0.2,1.7-2.2,0.7-3.3,0.1c-1.6-1-3.1-2.6-4.7-4c-0.8-0.7-1.7-1.4-2.5-1.9
		c-0.4-0.2-1.6-0.6-1.9-0.9C597.7,153.8,599.2,155.5,600.6,156.8z"/>
	<path class="st1" d="M589.3,105.5c-0.2,1.3-1.4,1.8-3,0.4c-3.3-2.8-2.5-6.5-2.8-8.7c-0.3-1.7-0.5-3.3-1.4-5.3
		c-0.9-1.9-2.6-4.1-4.3-6c0.3,0.4,0.7,1.7,0.9,2.2c0.5,1,1.1,2.1,1.6,3.1c1,2,2.1,4.2,2.4,6c0.2,1.2,0.1,3.3-1.3,2.7
		c-1.1-0.5-3.2-2.9-4.1-4c-1.4-1.7-2-3.2-2.3-4.6c-0.4-1.8-0.2-3.5-0.5-5.1c-0.2-1.5-0.8-3.2-2.4-5.1c-0.6-0.8-5-5-6.2-4.8
		c0.8-0.2,3.9,1.3,5.2,1.9c3.7,1.9,6.7,4.3,9.1,7.1C585.5,91.3,590.3,100.7,589.3,105.5z"/>
	<path class="st1" d="M603.3,284.1c-2.1,0.5-3.4-1.1-2.2-4.5c2.2-6.7,8-7.6,11.1-9.6c2.3-1.5,4.6-2.9,6.8-5.7
		c2.2-2.7,4.4-6.6,5.9-10.5c-0.3,0.8-2,2.2-2.5,2.8c-1.1,1.4-2.3,3-3.4,4.5c-2.2,2.9-4.8,6-7.3,7.6c-1.6,1.1-4.8,2.3-4.8-0.2
		c0-1.9,2.2-6.5,3.1-8.4c1.6-3,3.3-5,5-6.3c2.3-1.8,4.9-2.8,7.1-4.3c2.1-1.4,4.1-3.4,5.6-7.1c0.4-0.8,1.7-4.8,2.3-8
		c-3.8,7.2-8.5,13.2-12.9,14.8c-2,0.8-3.5-0.5-2.9-4c1-7,6.6-8.9,9.2-11.4c2-1.9,4-3.7,5.7-6.8c1.7-3,3.1-7.3,4-11.3
		c-0.2,0.8-1.6,2.5-2,3.2c-0.9,1.6-1.7,3.4-2.6,5c-1.7,3.3-3.6,6.7-5.8,8.8c-1.4,1.4-4.3,3.1-4.8,0.6c-0.3-1.9,1-6.7,1.6-8.8
		c1-3.3,2.3-5.4,3.8-7.1c2-2.2,4.3-3.6,6.2-5.4c1.8-1.8,3.4-4.1,4.3-8c0.4-1.4,1.5-10.4,0.3-11.9c1,1.1,2.1,5.8,2.4,7.9
		c1.1,6.3,0.8,12.6-0.6,18.5c-1,4.8-2.8,9.9-5.1,14.7c0.3,1.9,0.4,4.5,0.3,5.8c0,6.4-1.4,12.5-3.9,18.1
		C622.3,269,611,282.8,603.3,284.1z"/>
	<path class="st1" d="M615.2,151.3c-0.7,1.4-2.2,1.5-3.4-0.7c-2.6-4.3-0.3-8,0.2-10.6c0.3-2,0.7-3.9,0.4-6.3
		c-0.3-2.4-1.2-5.4-2.3-8.1c0.2,0.5,0.1,2.1,0.1,2.7c0.1,1.3,0.4,2.6,0.6,3.9c0.4,2.6,0.7,5.3,0.4,7.5c-0.2,1.4-1.1,3.7-2.5,2.5
		c-1-0.9-2.4-4.3-2.9-5.7c-0.8-2.3-1-4.2-0.8-5.8c0.2-2.1,1-3.9,1.4-5.8c0.3-1.8,0.4-3.8-0.7-6.4c-0.3-0.9-3.1-6.3-4.5-7
		c1.6,5,2.2,10,1,12.9c-0.5,1.4-1.8,1.7-3.3-0.2c-2.9-3.6-1.3-7.5-1.2-9.9c0.1-1.9,0.2-3.7-0.5-5.9c-0.6-2.2-1.8-4.9-3.3-7.2
		c0.3,0.5,0.3,2,0.5,2.5c0.3,1.2,0.7,2.4,1.1,3.6c0.7,2.3,1.4,4.9,1.3,6.9c0,1.3-0.5,3.6-2,2.7c-1.1-0.7-2.8-3.7-3.5-4.9
		c-1.1-2.1-1.4-3.8-1.5-5.3c-0.1-2,0.5-3.8,0.5-5.6c0.1-1.7-0.2-3.6-1.5-5.8c-0.4-0.9-4.2-6.1-5.4-6c0.9-0.1,3.8,1.9,4.9,2.8
		c3.4,2.5,6.1,5.6,8,9.1c1.9,3,3.5,6.7,4.6,10.4c1.1,0.4,3.5,2.6,4.5,3.6c3.2,3.1,5.5,6.8,7.1,10.7
		C616.3,134.1,618,146.3,615.2,151.3z"/>
	<path class="st1" d="M603.7,305.6c0,0.1,0,0.3,0,0.4C603.8,305.8,603.8,305.7,603.7,305.6z"/>
	<path class="st1" d="M609.6,184.9c1.8,1.8,6.3,4.4,4.9,10c-0.7,2.8-2.4,3-3.6,1.8c-4.1-4.3-7.7-14.4-11.4-20.7
		c-1.7-3-3-6.1-4.1-9.6c-0.3-1.2-1.3-4-1-4.8c-0.4,1,3.6,5,4.2,5.8c1.7,1.8,3.4,2.6,5.1,3.2c1.9,0.7,3.9,1,5.9,2.2
		c1.4,1,2.8,2.5,3.7,5c0.6,1.6,1.5,5.6,0.9,7.1c-0.7,1.9-2.8,0.2-3.8-0.8c-1.6-1.6-3-4-4.5-5.9c-0.8-1-1.6-2-2.4-2.9
		c-0.4-0.4-1.7-1.1-2-1.5c1.2,2.2,2.6,4.6,3.9,6.5C606.7,182.2,608.1,183.4,609.6,184.9z"/>
	<path class="st1" d="M510.1,351.5c8.4-2.7,13.8,1.4,18.1,2.4c3.2,0.8,6.3,1.5,10.4,1.2c4.1-0.4,9-1.7,13.3-3.7
		c-0.9,0.4-3.4,0.2-4.3,0.3c-2.1,0.2-4.3,0.6-6.4,0.9c-4.2,0.5-8.9,0.8-12.4,0c-2.3-0.5-5.9-2.2-3.7-4.1c1.7-1.4,7.4-3.1,9.7-3.9
		c3.8-1.1,6.7-1.3,9.2-1c3.3,0.4,6.1,1.6,9,2.1c2.8,0.4,5.9,0.4,9.9-1.6c1.4-0.5,8.1-4.7,10.1-7.2c-9.5,3.6-19.8,4.9-25.4,2.5
		c-2.4-0.9-2.4-3,1.2-5.1c7.1-4.3,13-1.8,17.1-1.8c3.1,0,6.1,0,9.8-1.2c3.6-1.2,7.9-3.6,11.4-6.3c-0.7,0.6-3,0.9-3.9,1.2
		c-1.8,0.7-3.8,1.5-5.7,2.2c-3.8,1.4-8,2.7-11.3,2.8c-2.2,0.1-5.9-0.7-4.3-3c1.3-1.7,6.1-4.5,8.1-5.7c3.2-1.9,5.8-2.7,8.2-3
		c3.1-0.4,5.9,0.1,8.7-0.1c2.6-0.2,5.5-1,8.8-3.6c1.3-0.8,7.5-7.3,7.9-9.6c0,1.7-2,6.2-3.1,8c-3.1,6-7.7,11.1-13,14.9
		c-3.9,3.1-9,5.8-14.3,7.8c-0.9,2-3.6,5.4-4.9,6.9c-4.7,5.4-10.7,9.5-17.1,12.1c-13.3,6.2-35.5,6.9-43.7,0.8
		C505.3,354.8,505.8,352.7,510.1,351.5z"/>
	<path class="st1" d="M465,353.7v-4.3c2.9-0.4,5.8-0.6,8.6-0.6c13,0.3,26.1-1.1,38.7-4.3c22.9-5.9,43.8-18,60.5-34.7
		c32.6-32.7,48.1-80.9,43.3-126.5c-3.5-33.8-18.7-65.6-43.6-88.4c31.2,28.2,47.2,68.7,45.9,111.3c-1.4,46.2-22.6,92.4-60.1,120.2
		c-15.6,11.6-33.8,19.5-52.8,23.4c-5.4,1.1-10.7,1.7-16,2.1c0,0,0,0,0,0S469.5,352.8,465,353.7z"/>
	<path class="st1" d="M579.4,314.7c-2.4-0.3-3.1-2.4-0.6-5.3c4.8-5.9,11-4.9,14.8-5.8c2.9-0.7,5.7-1.4,8.8-3.5
		c3.1-2.1,6.6-5.4,9.3-8.9c-0.6,0.7-2.7,1.6-3.5,2.1c-1.6,1.1-3.2,2.4-4.9,3.5c-3.2,2.3-6.8,4.6-9.9,5.4c-2,0.6-5.7,0.7-4.8-2
		c0.7-2,4.4-5.9,5.9-7.6c2.6-2.6,4.9-4,7.1-4.9c2.9-1.1,5.8-1.3,8.5-2.1c2.5-0.8,5.2-2.2,7.8-5.6c1.1-1.1,6.3-9.5,5.8-11.6
		c0.4,1.5-0.7,6.8-1.4,8.9c-1.8,6.7-5.2,12.8-9.4,17.8C604.6,306.2,588.1,316.4,579.4,314.7z"/>
	<path class="st1" d="M604.7,239.5c1,2.7,4.3,7.8,0,12.8c-2.1,2.4-3.9,1.7-4.5-0.2c-1.9-6.7-0.7-18.7-1.6-26.8
		c-0.3-3.9-0.3-7.6,0.3-11.6c0.2-1.3,0.5-4.6,1.2-5.3c-0.9,0.9,1.3,6.7,1.6,7.8c0.9,2.6,2.3,4.2,3.8,5.7c1.6,1.6,3.6,2.9,5,5.2
		c1,1.7,1.7,3.9,1.4,7.1c-0.1,2-1.2,6.6-2.5,7.8c-1.7,1.6-3-1.3-3.5-2.9c-0.8-2.5-1.1-5.6-1.7-8.3c-0.3-1.4-0.6-2.8-1.1-4.1
		c-0.2-0.6-1.3-2-1.3-2.5c0.2,2.8,0.5,5.9,0.9,8.5C603,235.3,603.9,237.3,604.7,239.5z"/>
	<path class="st1" d="M593.1,268.7c0.6,3,3.3,9.1-2.2,13.5c-2.8,2.1-4.5,1-4.8-1.1c-0.7-7.4,2.5-19.8,2.5-28.5
		c0.2-4.1,0.6-8,1.6-12.1c0.4-1.3,1-4.8,1.8-5.4c-1,0.8,0.7,7.2,0.9,8.4c0.7,2.8,1.9,4.8,3.4,6.6c1.5,1.9,3.5,3.7,4.7,6.3
		c0.9,2,1.3,4.5,0.6,7.8c-0.4,2.1-2.3,6.8-3.9,7.8c-2,1.4-3-1.9-3.3-3.7c-0.5-2.8-0.4-6.1-0.7-9.1c-0.1-1.6-0.3-3.1-0.7-4.5
		c-0.2-0.6-1.1-2.3-1.1-2.9c-0.1,3-0.2,6.3-0.1,9.1C591.9,263.9,592.6,266.2,593.1,268.7z"/>
	<path class="st1" d="M609.7,211.7c1.6,2.1,5.9,5.5,3.6,11c-1.1,2.7-2.9,2.6-3.9,1.2c-3.6-5.2-5.9-15.9-9-22.6
		c-1.3-3.2-2.4-6.5-3-10c-0.2-1.2-0.9-4.1-0.5-4.9c-0.5,1,3,5.4,3.6,6.2c1.5,2,3.1,3,4.9,3.8c1.8,0.9,3.9,1.5,5.7,3.1
		c1.4,1.2,2.6,2.9,3.2,5.7c0.4,1.7,0.8,6,0,7.4c-1,1.8-2.9-0.3-3.8-1.5c-1.4-1.9-2.6-4.5-3.9-6.7c-0.7-1.1-1.4-2.3-2.1-3.2
		c-0.3-0.4-1.6-1.3-1.8-1.8c1,2.4,2.1,5,3.2,7.1C607.1,208.5,608.4,210,609.7,211.7z"/>
	<path class="st1" d="M574.9,293.5c-0.2,3.1,0.8,9.6-5.7,12.5c-3.2,1.3-4.6-0.2-4.4-2.3c1.3-7.3,7.6-18.5,9.9-26.8
		c1.2-3.9,2.7-7.6,4.7-11.2c0.7-1.2,2.2-4.3,3.2-4.8c-1.2,0.5-1.2,7.2-1.4,8.3c-0.1,2.9,0.6,5.2,1.5,7.3c1,2.3,2.4,4.5,2.8,7.3
		c0.3,2.2,0.1,4.7-1.5,7.7c-0.9,1.9-4,5.9-5.8,6.5c-2.3,0.8-2.3-2.6-2.2-4.4c0.3-2.8,1.2-6,1.8-9c0.3-1.5,0.5-3.1,0.6-4.6
		c0-0.7-0.5-2.5-0.3-3.1c-0.9,2.9-1.9,6.1-2.5,8.8C575.1,288.6,575.2,291,574.9,293.5z"/>
	<path class="st1" d="M549.4,316c-0.6,3.1-0.4,9.9-8.1,12.3c-3.9,1.1-5.2-0.6-4.5-2.7c2.9-7.4,11.3-18.3,14.2-26.7
		c1.6-3.9,3.3-7.5,5.6-11.1c0.8-1.2,2.5-4.3,3.5-4.6c-1.2,0.4-1.5,7.2-1.7,8.4c-0.2,3,0.3,5.3,1.1,7.6c0.9,2.4,2.2,4.8,2.4,7.7
		c0.2,2.2-0.3,4.8-2.3,7.8c-1.2,1.9-4.9,5.8-7,6.3c-2.6,0.6-2.2-2.9-1.8-4.7c0.6-2.8,2-6,2.9-9.1c0.4-1.6,0.8-3.1,1-4.6
		c0.1-0.7-0.3-2.6-0.1-3.2c-1.1,2.9-2.5,6.1-3.4,8.8C550.2,311,549.9,313.4,549.4,316z"/>
	<path class="st1" d="M536.3,308.2c-3.4,2.5-6.4,5.2-9.3,8.3c-5.8,6.7-17.6,13.7-23.1,19.5c-1.4,1.7-0.8,3.8,3.2,4.2
		c8.1,0.6,10.4-5.8,12.1-8.5c1.5-2.2,2.6-4.4,4.5-6.6c1.9-2.2,4.3-4.7,6.4-6.9c-0.4,0.4-0.8,2.4-1.1,3c-0.7,1.3-1.6,2.6-2.6,3.9
		c-1.9,2.5-4.4,4.9-6,7.4c-1,1.6-2.7,4.7-0.1,5.1c2.1,0.3,7-1.9,8.8-3.2c3-2,4.3-4.2,5-6.4c0.9-2.8,0.5-5.5,0.6-8.1
		c0.1-2.4,0.4-4.8,1.7-7.4c0.6-1,3.4-7.3,4.7-7.2C540.2,305.1,537.5,307.4,536.3,308.2z"/>
</g>
</svg>
