<?xml version="1.0" encoding="utf-8"?>
<!-- Generator: Adobe Illustrator 22.0.1, SVG Export Plug-In . SVG Version: 6.00 Build 0)  -->
<svg version="1.1" id="Layer_1" xmlns="http://www.w3.org/2000/svg" xmlns:xlink="http://www.w3.org/1999/xlink" x="0px" y="0px"
	 viewBox="0 0 185.8 82.1" style="enable-background:new 0 0 185.8 82.1;" xml:space="preserve">
<style type="text/css">
	.st0{opacity:0.5;fill:#BCBEC0;enable-background:new    ;}
	.st1{fill:#BCBEC0;}
	.st2{opacity:0.5;}
	.st3{opacity:0.7;}
</style>
<g>
	<path class="st0" d="M40.4,52.1c0-6.4,5.2-11.6,11.6-11.6h4.3C56,32.5,49.4,26,41.2,26c-8.1,0-14.7,6.4-15.1,14.3h0v1.4h0
		c0.3,7.7,6.5,13.9,14.2,14.3C40.4,56,40.4,52.1,40.4,52.1z"/>
	<g>
		<path class="st1" d="M41.7,18.4v4.9c4.5,0.1,8.6,1.9,11.6,4.7l3.5-3.5C52.9,20.8,47.6,18.5,41.7,18.4z"/>
		<path class="st1" d="M57.8,25.5L54.3,29c2.8,3,4.6,7,4.7,11.4H64C63.8,34.6,61.5,29.4,57.8,25.5z"/>
	</g>
	<g class="st2">
		<path class="st1" d="M40.4,23.3v-4.9c-5.7,0.2-10.9,2.5-14.8,6.2l3.5,3.5C32.1,25.2,36,23.5,40.4,23.3z"/>
		<path class="st1" d="M28.1,29l-3.5-3.5c-3.7,3.9-6,9-6.2,14.7h4.9C23.6,35.9,25.3,32,28.1,29z"/>
		<path class="st1" d="M23.3,41.6h-4.9c0.1,5.8,2.5,11.1,6.2,15l3.5-3.5C25.3,50.1,23.5,46,23.3,41.6z"/>
		<path class="st1" d="M29.1,54.1l-3.5,3.5c3.9,3.7,9.1,6,14.9,6.2v-4.9C36.1,58.6,32.1,56.9,29.1,54.1z"/>
	</g>
	<g>
		<path class="st1" d="M40.5,16.8v-4.1c-7.3,0.2-14,3.1-18.9,7.8l2.9,2.9C28.7,19.4,34.3,17,40.5,16.8z"/>
		<path class="st1" d="M23.5,24.4l-2.9-2.9c-4.7,4.9-7.7,11.6-7.9,18.9h4.1C17,34.2,19.5,28.6,23.5,24.4z"/>
		<path class="st1" d="M24.6,58.8l-2.9,2.9c5,4.7,11.6,7.6,18.9,7.7v-4.1C34.4,65.2,28.8,62.7,24.6,58.8z"/>
		<path class="st1" d="M16.8,41.7h-4.1c0.2,7.4,3.2,14.1,8,19l2.9-2.9C19.5,53.6,17,48,16.8,41.7z"/>
	</g>
	<g class="st2">
		<path class="st1" d="M41.8,12.7v4.1c6.3,0.2,12,2.7,16.2,6.7l2.9-2.9C56,15.8,49.2,12.8,41.8,12.7z"/>
		<path class="st1" d="M61.9,21.6L59,24.5c4,4.2,6.4,9.8,6.6,16h4.1C69.5,33.2,66.6,26.5,61.9,21.6z"/>
	</g>
	<g>
		<path class="st1" d="M41.7,6.6v4.1c8,0.1,15.2,3.3,20.6,8.4l2.9-2.9C58.8,10.1,50.5,6.7,41.7,6.6z"/>
		<path class="st1" d="M6.7,41.6c0.1,8.8,3.5,17,9.6,23.3l2.9-2.9c-5.1-5.3-8.3-12.5-8.4-20.4H6.7z"/>
	</g>
	<g class="st2">
		<path class="st1" d="M40.3,10.7V6.6c-8.7,0.2-16.8,3.6-23.1,9.6l2.9,2.9C25.4,14.1,32.5,11,40.3,10.7z"/>
		<path class="st1" d="M16.3,17.2c-6,6.2-9.4,14.4-9.6,23h4.1c0.2-7.8,3.4-14.8,8.4-20.1L16.3,17.2z"/>
		<path class="st1" d="M66.1,17.1L63.2,20c5.1,5.3,8.3,12.4,8.5,20.3h4.1C75.6,31.6,72.2,23.4,66.1,17.1z"/>
		<path class="st1" d="M17.2,65.8c6.3,6,14.5,9.4,23.2,9.6v-4.1c-7.9-0.2-15-3.4-20.3-8.4L17.2,65.8z"/>
	</g>
	<g class="st2">
		<path class="st1" d="M41.8,0v4.9C51.3,5,60,8.9,66.4,15l3.5-3.5C62.3,4.2,52.3,0.1,41.8,0z"/>
		<path class="st1" d="M0,41.6c0.1,10.6,4.2,20.5,11.6,28l3.5-3.5C8.9,59.8,5,51.1,4.9,41.6H0z"/>
	</g>
	<g>
		<path class="st1" d="M11.6,12.5C4.3,20,0.2,29.8,0,40.2h4.9c0.2-9.4,4.1-18,10.2-24.3L11.6,12.5z"/>
		<path class="st1" d="M40.4,4.9V0C29.9,0.2,20.1,4.3,12.6,11.5l3.5,3.5C22.4,8.9,31,5.1,40.4,4.9z"/>
		<path class="st1" d="M70.8,12.5L67.4,16c6.2,6.4,10,14.9,10.2,24.4h4.9C82.3,29.9,78.2,20,70.8,12.5z"/>
		<path class="st1" d="M12.6,70.6c7.6,7.3,17.4,11.3,27.9,11.5v-4.9c-9.5-0.2-18.1-4-24.5-10.1L12.6,70.6z"/>
	</g>
	<g>
		<path class="st1" d="M62.2,49.5L60,51.6c-1.5-1.6-3.2-2.4-5-2.4c-1.6,0-2.9,0.5-4,1.6c-1.1,1.1-1.6,2.4-1.6,4
			c0,1.1,0.2,2.1,0.7,2.9s1.2,1.5,2,2c0.9,0.5,1.8,0.7,2.9,0.7c0.9,0,1.7-0.2,2.5-0.5c0.8-0.3,1.6-1,2.5-1.9l2.1,2.2
			c-1.2,1.2-2.4,2-3.5,2.5c-1.1,0.5-2.3,0.7-3.7,0.7c-2.6,0-4.7-0.8-6.3-2.4c-1.6-1.6-2.5-3.7-2.5-6.3c0-1.6,0.4-3.1,1.1-4.4
			c0.7-1.3,1.8-2.3,3.2-3.1s2.9-1.2,4.5-1.2c1.4,0,2.7,0.3,3.9,0.9C60.2,47.6,61.3,48.5,62.2,49.5z"/>
		<path class="st1" d="M64.7,46.6h3.1v16.5h-3.1V46.6z"/>
		<path class="st1" d="M69.6,46.6h9.1v3.1h-3v13.4h-3.2V49.7h-2.9C69.6,49.7,69.6,46.6,69.6,46.6z"/>
		<path class="st1" d="M79.7,46.6H83l3.1,5.9l3.1-5.9h3.3L87.7,56v7.2h-3.2V56L79.7,46.6z"/>
		<path class="st1" d="M103,46.6h3.1l3.8,11.5l3.9-11.5h3.1l2.8,16.5h-3l-1.8-10.4l-3.5,10.4h-2.8L105,52.7l-1.8,10.4h-3.1L103,46.6
			z"/>
		<path class="st1" d="M127.1,46.6h3.2l6.4,16.5h-3.3l-1.3-3.4h-6.7l-1.3,3.4h-3.3L127.1,46.6z M128.7,51l-2.2,5.7h4.4L128.7,51z"/>
		<path class="st1" d="M139.2,46.6h3.3c1.8,0,3.1,0.2,3.9,0.5c0.8,0.3,1.4,0.9,1.9,1.6c0.5,0.8,0.7,1.7,0.7,2.7c0,1.1-0.3,2-0.8,2.7
			c-0.5,0.7-1.3,1.3-2.4,1.7l3.9,7.3h-3.4l-3.7-7h-0.3v7h-3.1L139.2,46.6L139.2,46.6z M142.3,53.1h1c1,0,1.7-0.1,2.1-0.4
			s0.6-0.7,0.6-1.3c0-0.4-0.1-0.7-0.3-0.9c-0.2-0.3-0.4-0.5-0.8-0.6s-0.9-0.2-1.7-0.2h-0.9V53.1z"/>
		<path class="st1" d="M152.2,46.6h3.2v5.7l4.5-5.7h3.8l-5.8,7.4l6.3,9.1h-3.7l-5.1-7.3v7.3h-3.2L152.2,46.6L152.2,46.6z"/>
		<path class="st1" d="M166.4,46.6h9v3.1h-5.9v3h5.9v3h-5.9V60h5.9v3.1h-9V46.6z"/>
		<path class="st1" d="M176.7,46.6h9.1v3.1h-3v13.4h-3.2V49.7h-2.9V46.6z"/>
	</g>
	<g class="st3">
		<polygon class="st1" points="170.2,74.4 165.6,67 164.1,67 164.1,76.4 165.4,76.4 165.4,68.7 170.1,76.4 171.3,76.4 171.3,67 
			170.2,67 		"/>
		<polygon class="st1" points="138.4,74.4 133.9,67 132.4,67 132.4,76.4 133.7,76.4 133.7,68.7 138.3,76.4 139.6,76.4 139.6,67 
			138.4,67 		"/>
		<polygon class="st1" points="147.1,67 145.8,67 145.8,76.4 151.2,76.4 151.2,75.2 147.1,75.2 		"/>
		<rect x="156.4" y="67" class="st1" width="1.7" height="9.4"/>
		<polygon class="st1" points="178.8,75.3 178.8,71.9 182.7,71.9 182.7,70.8 178.8,70.8 178.8,67.9 182.7,67.9 182.7,67 177.7,67 
			177.7,76.4 182.8,76.4 182.8,75.3 		"/>
		<path class="st1" d="M126.6,71.2c0-0.1,0-0.1,0-0.2c0-0.1,0-0.2,0-0.2c0-0.1,0-0.2,0-0.3c-0.1-0.4-0.2-0.9-0.4-1.4
			c-0.2-0.5-0.6-1.1-1.1-1.6c-0.3-0.2-0.6-0.4-1-0.6c-0.1,0-0.2-0.1-0.3-0.1c-0.1,0-0.2-0.1-0.3-0.1c0,0-0.1,0-0.1,0l-0.2,0
			c-0.1,0-0.2,0-0.3-0.1c-0.1,0-0.2,0-0.3,0l-0.1,0l-0.1,0l0,0h0l0,0l0,0c-0.1,0-0.2,0-0.3,0c-0.1,0-0.1,0-0.2,0l-0.2,0
			c-0.1,0-0.2,0-0.3,0.1c-0.1,0-0.2,0.1-0.3,0.1c-0.1,0-0.1,0-0.2,0l-0.2,0.1c-0.1,0-0.2,0.1-0.3,0.1c-0.4,0.2-0.8,0.5-1.1,0.8
			c-0.3,0.3-0.6,0.7-0.8,1.2c-0.2,0.4-0.3,0.9-0.4,1.3l-0.1,0.3c0,0.1,0,0.2,0,0.3l0,0.2l0,0.2l0,0.3c0,0.9,0.1,1.8,0.5,2.6
			c0.2,0.4,0.4,0.8,0.8,1.2c0.3,0.3,0.7,0.6,1.1,0.8c0.1,0.1,0.2,0.1,0.3,0.1l0.2,0.1c0.1,0,0.1,0,0.2,0c0.1,0,0.2,0.1,0.3,0.1
			c0.1,0,0.2,0,0.3,0.1l0.2,0c0.1,0,0.1,0,0.1,0c0.1,0,0.2,0,0.3,0l0,0l0.1,0l0.1,0l0.2,0c0.1,0,0.2,0,0.3,0
			c0.8-0.1,1.6-0.4,2.1-0.9c0.5-0.5,0.9-1,1.1-1.6c0.2-0.5,0.3-1,0.4-1.4c0-0.1,0-0.2,0-0.3c0-0.1,0-0.2,0-0.2c0-0.1,0-0.1,0-0.2
			c0-0.1,0-0.1,0-0.2c0-0.2,0-0.3,0-0.3v0c0,0,0-0.1,0-0.3C126.6,71.3,126.6,71.3,126.6,71.2z M125.4,72.1c0,0.1,0,0.1,0,0.2
			s0,0.1,0,0.2c0,0.1,0,0.1,0,0.2c-0.1,0.3-0.1,0.7-0.3,1.1c-0.2,0.4-0.4,0.8-0.8,1.1c-0.4,0.3-0.9,0.5-1.5,0.6c-0.1,0-0.1,0-0.2,0
			l-0.1,0l-0.1,0h0l0,0c-0.1,0-0.2,0-0.3,0c0,0-0.1,0-0.1,0l-0.1,0c-0.1,0-0.1,0-0.2,0c-0.1,0-0.1,0-0.2-0.1c0,0-0.1,0-0.1,0l-0.1,0
			c-0.1,0-0.1-0.1-0.2-0.1c-0.5-0.3-1-0.8-1.2-1.4c-0.3-0.6-0.4-1.4-0.4-2.1l0-0.3l0-0.2l0-0.1l0-0.3l0-0.3c0.1-0.4,0.2-0.7,0.3-1
			c0.3-0.6,0.7-1.1,1.2-1.4c0.1,0,0.1-0.1,0.2-0.1l0.1,0c0,0,0.1,0,0.1,0c0.1,0,0.1,0,0.2-0.1c0.1,0,0.2,0,0.2,0l0.1,0
			c0,0,0.1,0,0.1,0c0.1,0,0.2,0,0.2,0l0,0l0,0h0l0,0l0.1,0c0.1,0,0.2,0,0.3,0c0.1,0,0.1,0,0.2,0l0.1,0c0,0,0.1,0,0.1,0
			c0.1,0,0.1,0,0.2,0.1c0.1,0,0.1,0.1,0.2,0.1c0.3,0.1,0.5,0.2,0.7,0.4c0.4,0.3,0.6,0.7,0.8,1.1c0.2,0.4,0.3,0.8,0.3,1.1
			c0,0.1,0,0.2,0,0.2c0,0.1,0,0.1,0,0.2s0,0.1,0,0.2c0,0.1,0,0.1,0,0.1c0,0.2,0,0.2,0,0.3c0,0,0,0.1,0,0.3
			C125.4,72,125.4,72.1,125.4,72.1z"/>
	</g>
</g>
</svg>
