<?xml version="1.0" encoding="utf-8"?>
<!-- Generator: Adobe Illustrator 16.0.0, SVG Export Plug-In . SVG Version: 6.00 Build 0)  -->
<!DOCTYPE svg PUBLIC "-//W3C//DTD SVG 1.1//EN" "http://www.w3.org/Graphics/SVG/1.1/DTD/svg11.dtd">
<svg version="1.1" id="Layer_1" xmlns="http://www.w3.org/2000/svg" xmlns:xlink="http://www.w3.org/1999/xlink" x="0px" y="0px"
	 width="1500px" height="864px" viewBox="0 282.5 1500 864" enable-background="new 0 282.5 1500 864" xml:space="preserve">
<g>
	<g>
		<path fill="#FFFFFF" d="M382.061,415.512h13.729v18.61c-2.137,0.61-4.577,1.221-6.407,1.526c-2.135,0.304-4.271,0.304-6.713,0.304
			c-5.796,0-10.068-1.524-13.118-4.881c-3.051-3.355-4.577-7.932-4.577-14.034c0-5.797,1.832-10.678,5.187-14.034
			c3.356-3.355,8.238-4.881,14.34-4.881c3.966,0,7.628,0.61,11.289,2.135l-2.137,4.883c-3.051-1.526-6.101-2.137-9.152-2.137
			c-3.966,0-7.321,1.221-9.458,3.661c-2.441,2.441-3.355,5.797-3.355,10.068c0,4.577,0.914,7.933,3.051,10.374
			c2.136,2.441,5.187,3.66,9.152,3.66c2.136,0,3.966-0.305,6.407-0.608v-9.459h-7.934L382.061,415.512L382.061,415.512z"/>
		<path fill="#FFFFFF" d="M413.789,435.951c-4.271,0-7.932-1.219-10.373-3.66c-2.439-2.44-3.66-6.103-3.66-10.374
			c0-4.576,1.221-8.237,3.354-10.678c2.442-2.746,5.492-3.966,9.46-3.966c3.66,0,6.711,1.221,8.847,3.356
			c2.136,2.136,3.355,5.186,3.355,9.153v3.051h-18.915c0,2.745,0.916,4.881,2.137,6.102c1.523,1.524,3.355,2.135,5.795,2.135
			c1.831,0,3.357-0.305,4.576-0.61c1.526-0.303,3.052-0.914,4.577-1.524v4.881c-1.525,0.61-3.051,1.221-4.577,1.526
			C417.451,435.951,415.926,435.951,413.789,435.951z M412.874,411.544c-1.83,0-3.356,0.61-4.576,1.831
			c-1.22,1.221-1.83,3.051-2.135,5.187h12.812c0-2.442-0.61-3.966-1.829-5.187C416.23,412.155,414.705,411.544,412.874,411.544z"/>
		<path fill="#FFFFFF" d="M454.366,435.646h-6.103v-17.084c0-2.136-0.303-3.661-1.219-4.882c-0.915-0.915-2.136-1.525-4.271-1.525
			c-2.441,0-4.273,0.61-5.492,2.136c-1.221,1.524-1.831,3.966-1.831,7.321v14.034h-6.102v-27.763h4.881l0.916,3.661h0.305
			c0.915-1.221,2.137-2.44,3.661-3.051c1.525-0.61,3.356-1.221,5.187-1.221c6.712,0,10.372,3.356,10.372,10.068v18.305H454.366z"/>
		<path fill="#FFFFFF" d="M472.367,435.951c-4.271,0-7.933-1.219-10.373-3.66c-2.441-2.44-3.662-6.103-3.662-10.374
			c0-4.576,1.221-8.237,3.357-10.678c2.439-2.746,5.491-3.966,9.458-3.966c3.66,0,6.712,1.221,8.847,3.356
			c2.137,2.136,3.355,5.186,3.355,9.153v3.051h-18.915c0,2.745,0.916,4.881,2.136,6.102c1.526,1.524,3.355,2.135,5.797,2.135
			c1.83,0,3.355-0.305,4.577-0.61c1.524-0.303,3.05-0.914,4.576-1.524v4.881c-1.526,0.61-3.052,1.221-4.576,1.526
			C476.028,435.951,474.503,435.951,472.367,435.951z M471.452,411.544c-1.831,0-3.355,0.61-4.576,1.831
			c-1.221,1.221-1.831,3.051-2.137,5.187h12.815c0-2.442-0.61-3.966-1.832-5.187C474.808,412.155,473.282,411.544,471.452,411.544z"
			/>
		<path fill="#FFFFFF" d="M502.267,407.273c1.219,0,2.135,0,3.05,0.305l-0.609,5.492c-0.916-0.305-1.83-0.305-2.746-0.305
			c-2.441,0-4.271,0.915-5.797,2.44c-1.525,1.526-2.137,3.662-2.137,6.103v14.644h-6.1v-27.763h4.881l0.914,4.881h0.305
			c0.916-1.525,2.137-3.052,3.663-3.965C498.909,407.578,500.436,407.273,502.267,407.273z"/>
		<path fill="#FFFFFF" d="M533.081,421.612c0,4.576-1.221,8.238-3.662,10.679c-2.44,2.441-5.797,3.965-10.068,3.965
			c-2.745,0-4.882-0.61-7.017-1.83c-2.136-1.22-3.66-2.746-4.576-5.187c-1.221-2.136-1.525-4.881-1.525-7.628
			c0-4.576,1.221-7.932,3.661-10.679c2.44-2.44,5.797-3.661,10.067-3.661c3.966,0,7.323,1.221,9.763,3.966
			C531.86,413.68,533.081,417.036,533.081,421.612z M512.334,421.612c0,6.407,2.44,9.763,7.322,9.763
			c4.881,0,7.322-3.355,7.322-9.763c0-6.406-2.441-9.458-7.322-9.458c-2.44,0-4.271,0.915-5.492,2.441
			C512.944,416.12,512.334,418.562,512.334,421.612z"/>
		<path fill="#FFFFFF" d="M557.487,435.646l-0.915-3.661h-0.305c-0.916,1.221-2.137,2.441-3.661,3.052
			c-1.526,0.609-3.356,1.219-5.187,1.219c-3.356,0-6.103-0.914-7.628-2.44c-1.83-1.831-2.439-4.271-2.439-7.628v-18.305h6.1v17.085
			c0,2.136,0.306,3.661,1.221,4.882c0.916,0.914,2.442,1.524,4.271,1.524c2.441,0,4.271-0.61,5.492-2.135
			c1.221-1.526,1.831-3.966,1.831-7.323v-14.034h6.102v27.763H557.487z"/>
		<path fill="#FFFFFF" d="M587.082,427.714c0,2.745-0.916,4.882-3.053,6.407c-2.134,1.526-4.881,2.135-8.541,2.135
			c-3.661,0-6.712-0.609-9.153-1.83v-5.187c3.355,1.524,6.407,2.135,9.458,2.135c3.66,0,5.492-1.219,5.492-3.355
			c0-0.61-0.306-1.221-0.611-1.831c-0.305-0.61-1.221-0.914-2.135-1.524c-0.915-0.61-2.136-1.221-3.967-1.831
			c-3.355-1.221-5.49-2.441-6.711-3.661c-1.221-1.22-1.831-2.746-1.831-4.881c0-2.441,0.915-4.273,3.052-5.492
			c1.83-1.221,4.574-1.831,7.932-1.831c3.355,0,6.407,0.61,9.458,2.137l-1.832,4.576c-3.05-1.22-5.795-1.831-7.626-1.831
			c-3.052,0-4.882,0.916-4.882,2.746c0,0.914,0.306,1.524,1.221,2.135c0.914,0.61,2.746,1.526,5.492,2.441
			c2.44,0.915,3.966,1.83,5.185,2.44c0.916,0.61,1.831,1.526,2.442,2.441C587.082,425.274,587.082,426.188,587.082,427.714z"/>
		<path fill="#FFFFFF" d="M621.252,427.714c0,2.745-0.916,4.882-3.05,6.407c-2.137,1.526-4.883,2.135-8.544,2.135
			s-6.712-0.609-9.153-1.83v-5.187c3.356,1.524,6.407,2.135,9.458,2.135c3.662,0,5.492-1.219,5.492-3.355
			c0-0.61-0.306-1.221-0.61-1.831c-0.306-0.61-1.22-0.914-2.136-1.524c-0.915-0.61-2.136-1.221-3.966-1.831
			c-3.356-1.221-5.491-2.441-6.713-3.661c-1.221-1.22-1.83-2.746-1.83-4.881c0-2.441,0.915-4.273,3.052-5.492
			c1.83-1.221,4.575-1.831,7.932-1.831c3.355,0,6.408,0.61,9.458,2.137l-1.83,4.576c-3.052-1.22-5.798-1.831-7.628-1.831
			c-3.051,0-4.881,0.916-4.881,2.746c0,0.914,0.304,1.524,1.22,2.135c0.916,0.61,2.746,1.526,5.491,2.441
			c2.441,0.915,3.967,1.83,5.188,2.44c0.914,0.61,1.829,1.526,2.439,2.441C620.946,425.274,621.252,426.188,621.252,427.714z"/>
		<path fill="#FFFFFF" d="M645.353,435.646l-0.915-3.661h-0.305c-0.914,1.221-2.135,2.441-3.661,3.052
			c-1.524,0.609-3.355,1.219-5.187,1.219c-3.355,0-6.1-0.914-7.626-2.44c-1.831-1.831-2.442-4.271-2.442-7.628v-18.305h6.103v17.085
			c0,2.136,0.306,3.661,1.221,4.882c0.916,0.914,2.439,1.524,4.271,1.524c2.441,0,4.271-0.61,5.491-2.135
			c1.221-1.526,1.83-3.966,1.83-7.323v-14.034h6.103v27.763H645.353z"/>
		<path fill="#FFFFFF" d="M670.371,435.951c-3.661,0-6.408-1.219-8.236-3.66h-0.306c0.306,2.441,0.306,3.66,0.306,4.271v11.289
			h-6.103v-40.272h4.881c0,0.61,0.306,1.831,0.916,3.661h0.306c1.83-2.746,4.575-4.271,8.541-4.271c3.66,0,6.407,1.221,8.239,3.661
			c1.828,2.441,3.05,6.102,3.05,10.679c0,4.576-0.916,8.238-3.05,10.678C676.778,434.732,674.031,435.951,670.371,435.951z
			 M668.846,412.155c-2.44,0-4.271,0.61-5.187,2.136c-1.221,1.524-1.524,3.661-1.524,6.711v0.915c0,3.357,0.608,5.797,1.524,7.323
			c1.22,1.524,2.746,2.135,5.492,2.135c2.135,0,3.661-0.914,4.88-2.44c1.221-1.831,1.831-3.966,1.831-7.323
			c0-3.05-0.61-5.492-1.831-7.017C672.812,412.765,670.981,412.155,668.846,412.155z"/>
		<path fill="#FFFFFF" d="M700.575,435.951c-3.662,0-6.406-1.219-8.237-3.66h-0.306c0.306,2.441,0.306,3.66,0.306,4.271v11.289
			h-6.103v-40.272h4.881c0,0.61,0.306,1.831,0.916,3.661h0.306c1.831-2.746,4.575-4.271,8.542-4.271
			c3.661,0,6.408,1.221,8.238,3.661c1.83,2.441,3.051,6.102,3.051,10.679c0,4.576-0.916,8.238-3.051,10.678
			C706.982,434.732,704.235,435.951,700.575,435.951z M699.05,412.155c-2.441,0-4.271,0.61-5.187,2.136
			c-1.221,1.524-1.525,3.661-1.525,6.711v0.915c0,3.357,0.61,5.797,1.525,7.323c1.22,1.524,2.745,2.135,5.492,2.135
			c2.136,0,3.66-0.914,4.88-2.44c1.221-1.831,1.831-3.966,1.831-7.323c0-3.05-0.61-5.492-1.831-7.017
			C703.016,412.765,701.186,412.155,699.05,412.155z"/>
		<path fill="#FFFFFF" d="M741.456,421.612c0,4.576-1.218,8.238-3.66,10.679c-2.441,2.441-5.797,3.965-10.067,3.965
			c-2.747,0-4.882-0.61-7.018-1.83c-2.135-1.22-3.661-2.746-4.576-5.187c-1.221-2.136-1.526-4.881-1.526-7.628
			c0-4.576,1.221-7.932,3.663-10.679c2.439-2.44,5.797-3.661,10.067-3.661c3.966,0,7.32,1.221,9.763,3.966
			C740.238,413.68,741.456,417.036,741.456,421.612z M721.016,421.612c0,6.407,2.442,9.763,7.323,9.763s7.32-3.355,7.32-9.763
			c0-6.406-2.439-9.458-7.32-9.458c-2.441,0-4.271,0.915-5.492,2.441C721.321,416.12,721.016,418.562,721.016,421.612z"/>
		<path fill="#FFFFFF" d="M760.373,407.273c1.22,0,2.136,0,3.052,0.305l-0.611,5.492c-0.915-0.305-1.831-0.305-2.745-0.305
			c-2.44,0-4.272,0.915-5.797,2.44c-1.526,1.526-2.136,3.662-2.136,6.103v14.644h-6.103v-27.763h4.882l0.915,4.881h0.306
			c0.914-1.525,2.136-3.052,3.66-3.965C757.017,407.578,758.543,407.273,760.373,407.273z"/>
		<path fill="#FFFFFF" d="M776.542,431.375c1.526,0,3.053-0.305,4.271-0.61v4.578c-0.607,0.303-1.523,0.608-2.439,0.608
			c-0.915,0.305-2.137,0.305-3.357,0.305c-5.794,0-8.541-3.05-8.541-8.847v-14.95h-3.966v-2.745l4.271-2.137l2.137-5.797h3.66v6.102
			h8.239v4.577h-8.239v14.95c0,1.525,0.306,2.441,1.221,3.05C774.407,431.07,775.321,431.375,776.542,431.375z"/>
		<path fill="#FFFFFF" d="M809.188,412.155h-7.018v23.493h-6.103v-23.493h-4.576v-2.746l4.576-1.831v-1.831
			c0-3.355,0.915-5.795,2.441-7.321c1.525-1.526,3.966-2.441,7.321-2.441c2.137,0,4.272,0.305,6.407,0.916l-1.524,4.576
			c-1.525-0.611-3.052-0.611-4.272-0.611c-1.222,0-2.439,0.306-3.05,1.221c-0.611,0.916-0.916,2.137-0.916,3.661v1.831h7.018v4.577
			H809.188z"/>
		<path fill="#FFFFFF" d="M836.646,421.612c0,4.576-1.221,8.238-3.661,10.679c-2.439,2.441-5.797,3.965-10.068,3.965
			c-2.744,0-4.881-0.61-7.018-1.83c-2.134-1.22-3.66-2.746-4.576-5.187c-1.219-2.136-1.523-4.881-1.523-7.628
			c0-4.576,1.219-7.932,3.66-10.679c2.439-2.44,5.797-3.661,10.067-3.661c3.966,0,7.323,1.221,9.763,3.966
			C835.425,413.68,836.646,417.036,836.646,421.612z M816.204,421.612c0,6.407,2.441,9.763,7.322,9.763
			c4.882,0,7.323-3.355,7.323-9.763c0-6.406-2.441-9.458-7.323-9.458c-2.441,0-4.271,0.915-5.491,2.441
			C816.509,416.12,816.204,418.562,816.204,421.612z"/>
		<path fill="#FFFFFF" d="M855.561,407.273c1.221,0,2.136,0,3.052,0.305l-0.61,5.492c-0.916-0.305-1.831-0.305-2.747-0.305
			c-2.439,0-4.27,0.915-5.796,2.44c-1.524,1.526-2.136,3.662-2.136,6.103v14.644h-6.102v-27.763h4.881l0.916,4.881h0.305
			c0.916-1.525,2.136-3.052,3.662-3.965C852.205,407.578,853.731,407.273,855.561,407.273z"/>
		<path fill="#FFFFFF" d="M884.545,435.951c-4.271,0-7.933-1.219-10.373-3.66c-2.441-2.44-3.66-6.103-3.66-10.374
			c0-4.576,1.219-8.237,3.354-10.678c2.441-2.746,5.492-3.966,9.458-3.966c3.661,0,6.712,1.221,8.848,3.356
			c2.137,2.136,3.356,5.186,3.356,9.153v3.051h-18.916c0,2.745,0.915,4.881,2.136,6.102c1.526,1.524,3.356,2.135,5.797,2.135
			c1.83,0,3.356-0.305,4.577-0.61c1.525-0.303,3.05-0.914,4.576-1.524v4.881c-1.526,0.61-3.051,1.221-4.576,1.526
			C888.206,435.951,886.681,435.951,884.545,435.951z M883.629,411.544c-1.83,0-3.354,0.61-4.576,1.831
			c-1.221,1.221-1.83,3.051-2.135,5.187h12.813c0-2.442-0.609-3.966-1.83-5.187C886.985,412.155,885.459,411.544,883.629,411.544z"
			/>
		<path fill="#FFFFFF" d="M919.021,427.714c0,2.745-0.916,4.882-3.053,6.407c-2.134,1.526-4.879,2.135-8.542,2.135
			c-3.66,0-6.71-0.609-9.151-1.83v-5.187c3.354,1.524,6.407,2.135,9.457,2.135c3.663,0,5.492-1.219,5.492-3.355
			c0-0.61-0.306-1.221-0.611-1.831c-0.305-0.61-1.218-0.914-2.134-1.524s-2.137-1.221-3.968-1.831
			c-3.355-1.221-5.489-2.441-6.711-3.661c-1.221-1.22-1.831-2.746-1.831-4.881c0-2.441,0.916-4.273,3.053-5.492
			c1.829-1.221,4.573-1.831,7.931-1.831c3.355,0,6.407,0.61,9.457,2.137l-1.831,4.576c-3.05-1.22-5.794-1.831-7.626-1.831
			c-3.052,0-4.881,0.916-4.881,2.746c0,0.914,0.305,1.524,1.219,2.135c0.915,0.61,2.746,1.526,5.494,2.441
			c2.439,0.915,3.965,1.83,5.184,2.44c0.916,0.61,1.831,1.526,2.441,2.441C918.715,425.274,919.021,426.188,919.021,427.714z"/>
		<path fill="#FFFFFF" d="M933.358,431.375c1.526,0,3.051-0.305,4.272-0.61v4.578c-0.61,0.303-1.526,0.608-2.44,0.608
			c-0.916,0.305-2.136,0.305-3.356,0.305c-5.797,0-8.543-3.05-8.543-8.847v-14.95h-3.966v-2.745l4.271-2.137l2.137-5.797h3.661
			v6.102h8.237v4.577h-8.237v14.95c0,1.525,0.305,2.441,1.221,3.05C931.225,431.07,932.444,431.375,933.358,431.375z"/>
		<path fill="#FFFFFF" d="M958.682,435.646l-1.221-3.965h-0.306c-1.221,1.831-2.744,2.746-4.271,3.356
			c-1.524,0.61-3.05,0.914-5.491,0.914c-2.745,0-4.882-0.608-6.406-2.135c-1.526-1.525-2.441-3.662-2.441-6.407
			c0-2.746,1.22-5.187,3.355-6.408c2.137-1.525,5.492-2.135,10.067-2.44h4.882v-1.526c0-1.831-0.306-3.051-1.219-3.966
			c-0.916-0.915-2.137-1.22-3.967-1.22c-1.525,0-2.746,0.305-4.271,0.61c-1.221,0.305-2.745,0.915-3.966,1.525l-1.83-4.271
			c1.524-0.916,3.356-1.526,5.185-1.832c1.832-0.305,3.663-0.61,5.188-0.61c3.661,0,6.406,0.916,8.237,2.442
			c1.831,1.524,2.744,3.965,2.744,7.321v18.915h-4.271V435.646L958.682,435.646z M949.835,431.681c2.134,0,3.966-0.611,5.187-1.83
			c1.219-1.221,2.134-2.746,2.134-5.187v-2.441h-3.66c-2.744,0-4.881,0.61-6.102,1.526c-1.222,0.916-1.83,2.135-1.83,3.966
			c0,1.221,0.305,2.136,1.219,2.745C947.088,431.07,948.309,431.681,949.835,431.681z"/>
		<path fill="#FFFFFF" d="M983.395,407.273c3.66,0,6.407,1.221,8.237,3.661c1.83,2.441,3.051,6.103,3.051,10.679
			s-0.915,8.238-3.051,10.679c-2.135,2.441-4.882,3.965-8.237,3.965c-3.661,0-6.407-1.219-8.237-3.66h-0.306l-1.221,3.355h-4.576
			v-39.356h6.103v9.458c0,0.61,0,1.831,0,3.052c0,1.219,0,2.135-0.306,2.745h0.306C976.987,408.494,979.733,407.273,983.395,407.273
			z M981.869,412.155c-2.44,0-4.271,0.61-5.188,2.136c-1.22,1.524-1.524,3.661-1.524,7.017v0.305c0,3.356,0.61,5.797,1.524,7.323
			c1.221,1.524,2.747,2.135,5.492,2.135c2.137,0,3.661-0.914,4.881-2.44c1.221-1.525,1.526-3.966,1.526-7.322
			C988.581,415.207,986.14,412.155,981.869,412.155z"/>
		<path fill="#FFFFFF" d="M1005.056,435.646h-6.102V396.29h6.102V435.646z"/>
		<path fill="#FFFFFF" d="M1010.853,400.256c0-0.914,0.306-1.83,0.916-2.44c0.608-0.61,1.523-0.916,2.439-0.916
			s1.832,0.305,2.44,0.916c0.61,0.61,0.915,1.526,0.915,2.44c0,0.915-0.305,1.831-0.915,2.441c-0.61,0.611-1.524,0.916-2.44,0.916
			c-1.221,0-1.831-0.305-2.439-0.916C1011.158,402.086,1010.853,401.171,1010.853,400.256z M1017.259,435.646h-6.101v-27.763h6.101
			V435.646z"/>
		<path fill="#FFFFFF" d="M1042.277,427.714c0,2.745-0.915,4.882-3.052,6.407c-2.136,1.526-4.881,2.135-8.542,2.135
			c-3.662,0-6.713-0.609-9.152-1.83v-5.187c3.355,1.524,6.406,2.135,9.457,2.135c3.662,0,5.492-1.219,5.492-3.355
			c0-0.61-0.306-1.221-0.61-1.831c-0.306-0.61-1.22-0.914-2.136-1.524s-2.136-1.221-3.967-1.831
			c-3.356-1.221-5.491-2.441-6.712-3.661c-1.219-1.22-1.83-2.746-1.83-4.881c0-2.441,0.915-4.273,3.051-5.492
			c1.831-1.221,4.577-1.831,7.934-1.831c3.354,0,6.405,0.61,9.457,2.137l-1.83,4.576c-3.053-1.22-5.797-1.831-7.627-1.831
			c-3.052,0-4.883,0.916-4.883,2.746c0,0.914,0.305,1.524,1.221,2.135c0.916,0.61,2.746,1.526,5.492,2.441
			c2.439,0.915,3.965,1.83,5.186,2.44c0.916,0.61,1.832,1.526,2.441,2.441C1041.972,425.274,1042.277,426.188,1042.277,427.714z"/>
		<path fill="#FFFFFF" d="M1071.261,435.646h-6.103v-17.084c0-2.136-0.305-3.661-1.221-4.882c-0.914-0.915-2.134-1.525-4.271-1.525
			c-2.44,0-4.271,0.61-5.492,2.136c-1.221,1.524-1.829,3.966-1.829,7.626v13.729h-6.102V396.29h6.102v10.068
			c0,1.525,0,3.357-0.305,5.187h0.305c0.914-1.221,1.829-2.44,3.355-3.051c1.525-0.61,3.05-1.221,5.187-1.221
			c7.017,0,10.373,3.356,10.373,10.068V435.646L1071.261,435.646z"/>
		<path fill="#FFFFFF" d="M1076.751,400.256c0-0.914,0.306-1.83,0.916-2.44s1.526-0.916,2.441-0.916c0.916,0,1.83,0.305,2.439,0.916
			c0.61,0.61,0.916,1.526,0.916,2.44c0,0.915-0.306,1.831-0.916,2.441c-0.609,0.611-1.523,0.916-2.439,0.916
			c-1.221,0-1.831-0.305-2.441-0.916C1077.057,402.086,1076.751,401.171,1076.751,400.256z M1083.158,435.646h-6.102v-27.763h6.102
			V435.646z"/>
		<path fill="#FFFFFF" d="M1113.973,435.646h-6.103v-17.084c0-2.136-0.304-3.661-1.219-4.882c-0.916-0.915-2.137-1.525-4.271-1.525
			c-2.442,0-4.273,0.61-5.492,2.136c-1.221,1.524-1.831,3.966-1.831,7.321v14.034h-6.102v-27.763h4.881l0.916,3.661h0.305
			c0.916-1.221,2.137-2.44,3.66-3.051c1.526-0.61,3.357-1.221,5.187-1.221c6.713,0,10.373,3.356,10.373,10.068v18.305H1113.973z"/>
		<path fill="#FFFFFF" d="M1143.871,407.578v3.355l-4.881,0.916c0.306,0.61,0.916,1.22,1.221,2.136
			c0.306,0.916,0.306,1.83,0.306,2.746c0,2.746-0.916,5.186-3.053,6.712c-2.134,1.525-4.88,2.44-8.236,2.44
			c-0.916,0-1.831,0-2.44-0.305c-1.22,0.916-1.83,1.832-1.83,2.747c0,0.61,0.305,1.221,0.914,1.526
			c0.61,0.306,1.83,0.609,3.356,0.609h4.881c3.051,0,5.492,0.61,7.019,1.832c1.526,1.22,2.439,3.052,2.439,5.797
			c0,3.05-1.219,5.492-3.966,7.323c-2.744,1.829-6.407,2.439-11.594,2.439c-3.966,0-6.712-0.61-8.847-2.136
			c-2.137-1.219-3.052-3.356-3.052-5.796c0-1.831,0.611-3.052,1.525-4.272c1.221-1.219,2.746-1.83,4.577-2.439
			c-0.916-0.305-1.526-0.916-2.137-1.526c-0.609-0.611-0.914-1.524-0.914-2.44c0-0.916,0.305-1.831,0.914-2.746
			c0.61-0.611,1.526-1.525,2.746-2.135c-1.525-0.611-2.746-1.526-3.66-3.052c-0.916-1.525-1.526-3.051-1.526-4.882
			c0-3.051,0.916-5.492,3.051-7.017c1.832-1.526,4.577-2.441,8.238-2.441c0.915,0,1.525,0,2.441,0.305
			c0.914,0,1.523,0.305,2.135,0.305H1143.871L1143.871,407.578z M1121.601,439.918c0,1.219,0.61,2.135,1.83,3.05
			c1.221,0.611,2.746,0.916,4.881,0.916c3.358,0,5.797-0.61,7.323-1.526c1.526-0.916,2.439-2.137,2.439-3.66
			c0-1.221-0.305-2.137-1.218-2.442c-0.916-0.61-2.442-0.914-4.883-0.914h-4.577c-1.829,0-3.05,0.305-4.271,1.219
			C1121.905,437.478,1121.601,438.393,1121.601,439.918z M1124.041,416.731c0,1.831,0.61,3.051,1.526,3.966
			c0.914,0.916,2.134,1.526,3.966,1.526c3.356,0,5.187-1.831,5.187-5.492c0-1.83-0.306-3.356-1.221-4.271
			c-0.915-0.916-2.135-1.526-3.966-1.526c-1.832,0-3.052,0.611-3.966,1.526C1124.651,413.375,1124.041,414.901,1124.041,416.731z"/>
		<path fill="#FFFFFF" d="M544.673,503.377h-6.101v-31.729h-10.983v-5.187h28.373v5.187h-10.983L544.673,503.377L544.673,503.377z"
			/>
		<path fill="#FFFFFF" d="M583.115,503.377h-6.102v-17.086c0-2.134-0.305-3.66-1.221-4.881c-0.916-0.914-2.137-1.524-4.271-1.524
			c-2.439,0-4.271,0.61-5.491,2.135c-1.221,1.526-1.831,3.965-1.831,7.628v13.729h-6.101V464.02h6.101v10.068
			c0,1.526,0,3.356-0.306,5.187h0.306c0.915-1.22,1.831-2.441,3.356-3.051c1.526-0.609,3.051-1.22,5.187-1.22
			c7.017,0,10.373,3.356,10.373,10.068V503.377z"/>
		<path fill="#FFFFFF" d="M601.42,503.682c-4.271,0-7.932-1.22-10.373-3.66c-2.439-2.442-3.66-6.102-3.66-10.373
			c0-4.577,1.221-8.239,3.355-10.679c2.441-2.746,5.491-3.966,9.458-3.966c3.661,0,6.712,1.22,8.849,3.356
			c2.135,2.136,3.354,5.187,3.354,9.152v3.053h-18.914c0,2.745,0.913,4.881,2.134,6.1c1.526,1.526,3.357,2.136,5.797,2.136
			c1.832,0,3.356-0.306,4.577-0.61c1.525-0.306,3.052-0.916,4.576-1.526v4.881c-1.524,0.61-3.051,1.221-4.576,1.525
			C605.082,503.682,603.252,503.682,601.42,503.682z M600.2,479.275c-1.83,0-3.356,0.611-4.577,1.83
			c-1.221,1.221-1.83,3.052-2.134,5.187h12.813c0-2.439-0.61-3.966-1.831-5.187C603.556,479.886,602.03,479.275,600.2,479.275z"/>
		<path fill="#FFFFFF" d="M634.369,503.377h-6.1v-36.916h21.356v5.187h-15.257v11.594h14.036v5.187h-14.036V503.377z"/>
		<path fill="#FFFFFF" d="M659.083,503.377h-6.102V464.02h6.102V503.377z"/>
		<path fill="#FFFFFF" d="M690.508,489.343c0,4.576-1.22,8.236-3.662,10.678c-2.44,2.44-5.797,3.966-10.067,3.966
			c-2.747,0-4.882-0.61-7.017-1.831c-2.136-1.221-3.662-2.745-4.577-5.187c-1.22-2.135-1.525-4.882-1.525-7.626
			c0-4.577,1.22-7.934,3.661-10.679c2.441-2.441,5.798-3.661,10.068-3.661c3.966,0,7.32,1.22,9.763,3.966
			C689.288,481.41,690.508,484.767,690.508,489.343z M669.762,489.343c0,6.408,2.44,9.763,7.321,9.763
			c4.882,0,7.322-3.355,7.322-9.763c0-6.407-2.44-9.458-7.322-9.458c-2.441,0-4.271,0.914-5.491,2.439
			C670.371,483.852,669.762,486.291,669.762,489.343z"/>
		<path fill="#FFFFFF" d="M709.118,475.004c1.22,0,2.135,0,3.051,0.306l-0.61,5.49c-0.916-0.303-1.83-0.303-2.746-0.303
			c-2.44,0-4.271,0.914-5.797,2.44c-1.524,1.526-2.136,3.66-2.136,6.102v14.644h-6.102v-27.764h4.882l0.915,4.881h0.305
			c0.916-1.524,2.136-3.05,3.661-3.965C705.762,475.31,707.288,475.004,709.118,475.004z"/>
		<path fill="#FFFFFF" d="M714.306,467.986c0-0.916,0.303-1.831,0.913-2.44c0.61-0.61,1.526-0.916,2.441-0.916
			c0.916,0,1.832,0.305,2.439,0.916c0.611,0.609,0.916,1.524,0.916,2.44c0,0.916-0.305,1.832-0.916,2.44
			c-0.607,0.611-1.523,0.916-2.439,0.916c-1.221,0-1.831-0.305-2.441-0.916C714.608,469.818,714.306,468.902,714.306,467.986z
			 M720.711,503.377h-6.103v-27.762h6.103V503.377z"/>
		<path fill="#FFFFFF" d="M736.27,503.682c-3.66,0-6.404-1.22-8.236-3.66c-2.136-2.442-3.052-6.102-3.052-10.678
			c0-4.577,0.916-8.239,3.052-10.679c2.137-2.441,4.882-3.965,8.236-3.965c3.663,0,6.713,1.219,8.543,3.965h0.306
			c-0.306-2.136-0.306-3.661-0.306-4.881v-10.067h6.103v39.355h-4.882l-0.915-3.66h-0.306
			C742.982,502.461,740.238,503.682,736.27,503.682z M738.102,499.106c2.439,0,4.271-0.611,5.491-2.136
			c1.22-1.219,1.83-3.661,1.83-6.711v-0.916c0-3.661-0.61-6.102-1.83-7.628c-1.221-1.524-3.052-2.135-5.491-2.135
			c-2.137,0-3.662,0.914-4.882,2.44c-1.221,1.831-1.831,3.965-1.831,7.323c0,3.05,0.61,5.492,1.526,7.016
			C734.136,498.19,735.659,499.106,738.102,499.106z"/>
		<path fill="#FFFFFF" d="M774.712,503.377l-1.22-3.966h-0.306c-1.221,1.83-2.744,2.745-4.271,3.355s-3.052,0.915-5.491,0.915
			c-2.746,0-4.882-0.61-6.408-2.136c-1.525-1.524-2.44-3.661-2.44-6.406c0-2.747,1.22-5.186,3.356-6.407
			c2.136-1.526,5.492-2.137,10.067-2.442h4.882v-1.524c0-1.831-0.306-3.052-1.221-3.967c-0.915-0.914-2.135-1.219-3.966-1.219
			c-1.526,0-2.746,0.306-4.271,0.61c-1.222,0.306-2.746,0.914-3.967,1.524l-1.83-4.271c1.524-0.916,3.355-1.524,5.186-1.83
			s3.661-0.611,5.187-0.611c3.661,0,6.407,0.914,8.236,2.44c1.832,1.525,2.747,3.965,2.747,7.322v18.915h-4.271V503.377z
			 M765.864,499.106c2.136,0,3.968-0.611,5.186-1.832c1.222-1.22,2.137-2.745,2.137-5.187v-2.439h-3.66
			c-2.747,0-4.883,0.61-6.102,1.524c-1.222,0.916-1.832,2.137-1.832,3.968c0,1.219,0.306,2.134,1.221,2.745
			C763.119,498.801,764.34,499.106,765.864,499.106z"/>
		<path fill="#FFFFFF" d="M812.543,471.037c-3.66,0-6.407,1.221-8.236,3.662c-2.136,2.44-3.052,5.797-3.052,10.067
			c0,4.577,0.916,7.932,3.052,10.374c1.829,2.439,4.882,3.355,8.542,3.355c1.526,0,3.05-0.305,4.576-0.61
			c1.525-0.305,3.052-0.61,4.576-1.22v5.187c-3.051,1.22-6.408,1.526-10.068,1.526c-5.491,0-9.762-1.526-12.813-4.882
			c-3.051-3.355-4.271-7.933-4.271-14.033c0-3.966,0.61-7.323,2.136-10.068c1.526-2.746,3.356-5.187,6.103-6.712
			c2.745-1.525,5.797-2.44,9.457-2.44c3.966,0,7.323,0.915,10.679,2.44l-2.137,4.882c-1.219-0.61-2.745-1.221-3.966-1.526
			C815.593,471.342,814.069,471.037,812.543,471.037z"/>
		<path fill="#FFFFFF" d="M851.595,503.377h-6.103v-17.086c0-2.134-0.304-3.66-1.22-4.881c-0.915-0.914-2.135-1.524-4.271-1.524
			c-2.442,0-4.272,0.61-5.492,2.135c-1.221,1.526-1.831,3.965-1.831,7.628v13.729h-6.102V464.02h6.102v10.068
			c0,1.526,0,3.356-0.305,5.187h0.305c0.916-1.22,1.831-2.441,3.356-3.051c1.524-0.609,3.051-1.22,5.188-1.22
			c7.017,0,10.372,3.356,10.372,10.068V503.377L851.595,503.377z"/>
		<path fill="#FFFFFF" d="M875.392,503.377l-1.22-3.966h-0.306c-1.221,1.83-2.744,2.745-4.271,3.355s-3.052,0.915-5.491,0.915
			c-2.746,0-4.882-0.61-6.408-2.136c-1.525-1.524-2.44-3.661-2.44-6.406c0-2.747,1.22-5.186,3.356-6.407
			c2.137-1.526,5.492-2.137,10.068-2.442h4.881v-1.524c0-1.831-0.306-3.052-1.221-3.967c-0.914-0.914-2.135-1.219-3.966-1.219
			c-1.526,0-2.745,0.306-4.271,0.61c-1.222,0.306-2.746,0.914-3.966,1.524l-1.831-4.271c1.525-0.916,3.355-1.524,5.186-1.83
			c1.832-0.305,3.661-0.611,5.188-0.611c3.66,0,6.407,0.914,8.237,2.44c1.83,1.525,2.745,3.965,2.745,7.322v18.915h-4.271V503.377z
			 M866.238,499.106c2.137,0,3.968-0.611,5.187-1.832c1.221-1.22,2.137-2.745,2.137-5.187v-2.439h-3.66
			c-2.747,0-4.882,0.61-6.103,1.524c-1.221,0.916-1.831,2.137-1.831,3.968c0,1.219,0.305,2.134,1.221,2.745
			C863.493,498.801,864.715,499.106,866.238,499.106z"/>
		<path fill="#FFFFFF" d="M899.8,503.682c-3.662,0-6.407-1.22-8.238-3.66h-0.306c0.306,2.44,0.306,3.66,0.306,4.271v11.289h-6.103
			V475.31h4.883c0,0.608,0.306,1.83,0.914,3.66h0.306c1.831-2.746,4.576-4.271,8.544-4.271c3.66,0,6.405,1.219,8.236,3.661
			c1.831,2.439,3.053,6.102,3.053,10.678s-0.916,8.236-3.053,10.678C906.205,502.461,903.461,503.682,899.8,503.682z
			 M898.274,479.58c-2.442,0-4.271,0.61-5.187,2.135c-1.222,1.526-1.526,3.662-1.526,6.713v0.916c0,3.355,0.61,5.797,1.526,7.321
			c1.221,1.526,2.744,2.136,5.491,2.136c2.137,0,3.66-0.916,4.882-2.439c1.221-1.832,1.831-3.968,1.831-7.323
			c0-3.05-0.61-5.492-1.831-7.018C902.239,480.496,900.411,479.58,898.274,479.58z"/>
		<path fill="#FFFFFF" d="M926.037,499.106c1.524,0,3.051-0.305,4.271-0.611v4.576c-0.61,0.306-1.526,0.61-2.441,0.61
			c-0.915,0.306-2.136,0.306-3.355,0.306c-5.797,0-8.544-3.052-8.544-8.847v-14.95h-3.966v-2.746l4.271-2.135l2.136-5.797h3.661
			v6.102h8.238v4.576h-8.238v14.95c0,1.524,0.305,2.439,1.221,3.05C923.901,498.495,925.122,499.106,926.037,499.106z"/>
		<path fill="#FFFFFF" d="M946.172,503.682c-4.271,0-7.931-1.22-10.371-3.66c-2.442-2.442-3.662-6.102-3.662-10.373
			c0-4.577,1.22-8.239,3.356-10.679c2.44-2.746,5.492-3.966,9.459-3.966c3.66,0,6.711,1.22,8.847,3.356
			c2.137,2.136,3.354,5.187,3.354,9.152v3.053h-18.914c0,2.745,0.916,4.881,2.135,6.1c1.525,1.526,3.356,2.136,5.796,2.136
			c1.832,0,3.357-0.306,4.579-0.61c1.523-0.306,3.05-0.916,4.576-1.526v4.881c-1.526,0.61-3.053,1.221-4.576,1.525
			C949.835,503.682,948.004,503.682,946.172,503.682z M944.954,479.275c-1.832,0-3.357,0.611-4.578,1.83
			c-1.219,1.221-1.83,3.052-2.135,5.187h12.814c0-2.439-0.61-3.966-1.831-5.187C948.309,479.886,946.782,479.275,944.954,479.275z"
			/>
		<path fill="#FFFFFF" d="M975.768,475.004c1.22,0,2.135,0,3.051,0.306l-0.61,5.49c-0.916-0.303-1.831-0.303-2.746-0.303
			c-2.44,0-4.271,0.914-5.797,2.44c-1.526,1.526-2.137,3.66-2.137,6.102v14.644h-6.1v-27.764h4.88l0.916,4.881h0.304
			c0.916-1.524,2.137-3.05,3.663-3.965C972.411,475.31,973.937,475.004,975.768,475.004z"/>
		<path fill="#FFFFFF" d="M397.62,555.853c0,6.101-1.525,10.678-4.577,14.034c-3.05,3.355-7.321,4.881-13.118,4.881
			s-10.068-1.526-13.118-4.881c-3.052-3.356-4.578-7.933-4.578-14.034c0-6.102,1.526-10.678,4.578-14.035
			c3.05-3.356,7.321-4.882,13.118-4.882c5.491,0,9.763,1.526,12.812,4.882C396.095,545.175,397.62,549.751,397.62,555.853z
			 M368.941,555.853c0,4.576,0.915,7.932,2.746,10.374c1.83,2.439,4.576,3.661,8.237,3.661s6.407-1.221,8.236-3.356
			c1.832-2.441,2.747-5.797,2.747-10.373c0-4.578-0.915-7.933-2.747-10.373c-1.829-2.441-4.575-3.357-8.236-3.357
			s-6.407,1.221-8.237,3.357C369.856,547.92,368.941,551.275,368.941,555.853z"/>
		<path fill="#FFFFFF" d="M416.841,550.972h-7.018v23.492h-6.103v-23.492h-4.576v-2.746l4.576-1.832v-1.83
			c0-3.357,0.916-5.797,2.442-7.323c1.525-1.524,3.965-2.439,7.321-2.439c2.136,0,4.272,0.306,6.407,0.915l-1.526,4.577
			c-1.524-0.611-3.051-0.611-4.271-0.611c-1.221,0-2.44,0.305-3.051,1.219c-0.61,0.916-0.916,2.136-0.916,3.662v1.83h7.019v4.578
			H416.841z"/>
		<path fill="#FFFFFF" d="M440.638,569.887c1.525,0,3.05-0.305,4.271-0.611v4.577c-0.61,0.305-1.526,0.61-2.44,0.61
			c-0.915,0.305-2.136,0.305-3.356,0.305c-5.797,0-8.543-3.052-8.543-8.847v-14.95h-3.965v-2.746l4.271-2.135l2.135-5.797h3.662v6.1
			h8.237v4.578h-8.237v14.95c0,1.524,0.306,2.44,1.219,3.05C438.501,569.582,439.417,569.887,440.638,569.887z"/>
		<path fill="#FFFFFF" d="M472.977,574.158h-6.101v-17.086c0-2.135-0.306-3.66-1.221-4.881c-0.916-0.916-2.137-1.524-4.271-1.524
			c-2.441,0-4.271,0.609-5.491,2.135c-1.222,1.526-1.831,3.965-1.831,7.627v13.729h-6.101v-39.356h6.101v10.068
			c0,1.524,0,3.356-0.306,5.187h0.306c0.915-1.221,1.831-2.441,3.356-3.052c1.524-0.61,3.051-1.219,5.187-1.219
			c7.017,0,10.372,3.355,10.372,10.068V574.158z"/>
		<path fill="#FFFFFF" d="M491.283,574.769c-4.271,0-7.934-1.221-10.374-3.662c-2.44-2.44-3.66-6.101-3.66-10.372
			c0-4.576,1.22-8.238,3.355-10.678c2.441-2.747,5.492-3.965,9.458-3.965c3.66,0,6.712,1.219,8.847,3.355
			c2.137,2.135,3.357,5.187,3.357,9.153v3.05H483.35c0,2.747,0.916,4.882,2.137,6.102c1.525,1.525,3.355,2.136,5.797,2.136
			c1.831,0,3.355-0.305,4.576-0.611c1.526-0.305,3.05-0.915,4.576-1.525v4.881c-1.526,0.61-3.05,1.221-4.576,1.526
			C494.943,574.769,493.112,574.769,491.283,574.769z M490.062,550.361c-1.83,0-3.355,0.61-4.576,1.83
			c-1.221,1.221-1.831,3.052-2.137,5.187h12.814c0-2.44-0.61-3.965-1.831-5.187C493.723,550.972,492.199,550.361,490.062,550.361z"
			/>
		<path fill="#FFFFFF" d="M533.689,554.328h13.73v18.61c-2.137,0.61-4.576,1.221-6.407,1.526c-2.135,0.305-4.271,0.305-6.713,0.305
			c-5.795,0-10.067-1.526-13.118-4.881c-3.051-3.356-4.576-7.933-4.576-14.034c0-5.797,1.831-10.678,5.187-14.035
			c3.355-3.356,8.237-4.882,14.339-4.882c3.966,0,7.627,0.611,11.289,2.137l-2.137,4.881c-3.05-1.526-6.102-2.136-9.152-2.136
			c-3.966,0-7.322,1.22-9.457,3.662c-2.441,2.439-3.357,5.795-3.357,10.067c0,4.577,0.916,7.932,3.052,10.374
			c2.137,2.44,5.188,3.661,9.152,3.661c2.137,0,3.966-0.306,6.408-0.61v-9.458h-8.239V554.328z"/>
		<path fill="#FFFFFF" d="M559.317,574.158h-6.103v-39.356h6.103V574.158z"/>
		<path fill="#FFFFFF" d="M590.437,560.429c0,4.577-1.219,8.237-3.66,10.679c-2.441,2.44-5.797,3.966-10.067,3.966
			c-2.747,0-4.882-0.61-7.019-1.831c-2.135-1.221-3.66-2.745-4.576-5.187c-1.221-2.135-1.525-4.882-1.525-7.627
			c0-4.576,1.221-7.933,3.662-10.678c2.439-2.441,5.797-3.662,10.067-3.662c3.967,0,7.321,1.221,9.764,3.967
			C589.218,552.496,590.437,555.853,590.437,560.429z M569.69,560.429c0,6.406,2.441,9.763,7.323,9.763s7.321-3.357,7.321-9.763
			c0-6.407-2.439-9.458-7.321-9.458c-2.441,0-4.271,0.914-5.492,2.44C570.302,554.938,569.69,557.072,569.69,560.429z"/>
		<path fill="#FFFFFF" d="M609.354,545.785c3.66,0,6.406,1.219,8.238,3.661c1.83,2.44,3.05,6.102,3.05,10.679
			c0,4.576-0.916,8.237-3.05,10.678c-2.137,2.44-4.883,3.966-8.238,3.966c-3.661,0-6.407-1.221-8.238-3.662h-0.306l-1.22,3.357
			h-4.882v-39.356h6.102v9.457c0,0.61,0,1.83,0,3.051c0,1.22,0,2.136-0.305,2.746h0.305
			C602.642,547.31,605.692,545.785,609.354,545.785z M607.827,550.667c-2.44,0-4.271,0.609-5.186,2.135
			c-1.222,1.526-1.526,3.662-1.526,7.018v0.305c0,3.355,0.61,5.797,1.526,7.321c1.22,1.526,2.745,2.136,5.491,2.136
			c2.136,0,3.661-0.916,4.881-2.441c1.22-1.524,1.525-3.966,1.525-7.321C614.539,554.022,612.1,550.667,607.827,550.667z"/>
		<path fill="#FFFFFF" d="M642.913,574.158l-1.221-3.966h-0.306c-1.221,1.83-2.744,2.745-4.271,3.355s-3.052,0.916-5.491,0.916
			c-2.745,0-4.882-0.61-6.408-2.137c-1.523-1.524-2.439-3.661-2.439-6.406c0-2.747,1.219-5.187,3.355-6.407
			c2.137-1.526,5.492-2.137,10.067-2.442h4.882v-1.524c0-1.831-0.306-3.052-1.221-3.967c-0.914-0.914-2.135-1.219-3.966-1.219
			c-1.526,0-2.745,0.305-4.271,0.61c-1.222,0.306-2.745,0.914-3.966,1.524l-1.831-4.271c1.525-0.916,3.357-1.524,5.187-1.83
			c1.831-0.305,3.66-0.611,5.186-0.611c3.663,0,6.408,0.914,8.237,2.44c1.831,1.525,2.747,3.965,2.747,7.322v18.916h-4.271V574.158
			L642.913,574.158z M633.759,570.192c2.137,0,3.968-0.61,5.188-1.831c1.219-1.221,2.135-2.745,2.135-5.187v-2.44h-3.66
			c-2.747,0-4.882,0.609-6.103,1.525c-1.221,0.915-1.831,2.136-1.831,3.966c0,1.221,0.305,2.136,1.221,2.747
			C631.015,569.887,632.235,570.192,633.759,570.192z"/>
		<path fill="#FFFFFF" d="M659.083,574.158h-6.102v-39.356h6.102V574.158z"/>
		<path fill="#FFFFFF" d="M701.491,548.53c0,3.966-1.222,6.712-3.967,8.847c-2.441,2.137-6.103,3.052-10.983,3.052h-3.966v13.729
			h-6.103v-36.917h10.679c4.576,0,8.237,0.916,10.678,2.747C700.27,542.123,701.491,544.87,701.491,548.53z M682.88,555.548h3.355
			c3.053,0,5.492-0.61,7.018-1.525c1.525-1.221,2.136-2.747,2.136-5.187c0-2.136-0.61-3.661-1.83-4.881
			c-1.221-0.916-3.356-1.526-6.103-1.526h-4.271v13.12H682.88L682.88,555.548z"/>
		<path fill="#FFFFFF" d="M718.271,574.769c-4.271,0-7.934-1.221-10.373-3.662c-2.442-2.44-3.663-6.101-3.663-10.372
			c0-4.576,1.221-8.238,3.357-10.678c2.44-2.747,5.492-3.965,9.457-3.965c3.661,0,6.713,1.219,8.848,3.355
			c2.136,2.135,3.357,5.187,3.357,9.153v3.05h-18.917c0,2.747,0.915,4.882,2.137,6.102c1.525,1.525,3.354,2.136,5.797,2.136
			c1.831,0,3.354-0.305,4.575-0.611c1.524-0.305,3.051-0.915,4.576-1.525v4.881c-1.525,0.61-3.052,1.221-4.576,1.526
			C721.932,574.769,720.103,574.769,718.271,574.769z M717.05,550.361c-1.831,0-3.354,0.61-4.575,1.83
			c-1.222,1.221-1.832,3.052-2.137,5.187h12.814c0-2.44-0.61-3.965-1.831-5.187C720.405,550.972,718.882,550.361,717.05,550.361z"/>
		<path fill="#FFFFFF" d="M751.22,574.158l-1.22-3.966h-0.305c-1.222,1.83-2.747,2.745-4.272,3.355
			c-1.524,0.61-3.051,0.916-5.49,0.916c-2.747,0-4.884-0.61-6.407-2.137c-1.526-1.524-2.441-3.661-2.441-6.406
			c0-2.747,1.221-5.187,3.357-6.407c2.134-1.526,5.491-2.137,10.067-2.442h4.881v-1.524c0-1.831-0.305-3.052-1.221-3.967
			c-0.916-0.914-2.136-1.219-3.966-1.219c-1.525,0-2.747,0.305-4.271,0.61c-1.221,0.306-2.747,0.914-3.968,1.524l-1.829-4.271
			c1.523-0.916,3.355-1.524,5.187-1.83c1.829-0.305,3.66-0.611,5.187-0.611c3.66,0,6.407,0.914,8.236,2.44
			c1.831,1.525,2.746,3.965,2.746,7.322v18.916h-4.271V574.158L751.22,574.158z M742.372,570.192c2.137,0,3.967-0.61,5.187-1.831
			c1.221-1.221,2.137-2.745,2.137-5.187v-2.44h-3.662c-2.745,0-4.882,0.609-6.101,1.525c-1.221,0.915-1.831,2.136-1.831,3.966
			c0,1.221,0.305,2.136,1.221,2.747C739.628,569.887,740.846,570.192,742.372,570.192z"/>
		<path fill="#FFFFFF" d="M780.51,566.227c0,2.745-0.915,4.881-3.052,6.406c-2.137,1.526-4.882,2.136-8.542,2.136
			c-3.663,0-6.713-0.61-9.153-1.831v-5.187c3.356,1.525,6.406,2.136,9.459,2.136c3.66,0,5.49-1.221,5.49-3.356
			c0-0.61-0.305-1.22-0.609-1.831c-0.306-0.611-1.221-0.916-2.137-1.526c-0.916-0.61-2.134-1.22-3.966-1.831
			c-3.357-1.219-5.491-2.44-6.712-3.661c-1.22-1.22-1.83-2.745-1.83-4.881c0-2.44,0.914-4.271,3.051-5.492
			c1.831-1.219,4.576-1.829,7.931-1.829c3.357,0,6.407,0.61,9.46,2.135l-1.831,4.576c-3.053-1.219-5.797-1.83-7.629-1.83
			c-3.05,0-4.881,0.914-4.881,2.745c0,0.916,0.306,1.526,1.221,2.136c0.916,0.61,2.747,1.524,5.492,2.44
			c2.44,0.916,3.965,1.832,5.187,2.442c0.915,0.61,1.831,1.524,2.441,2.439C780.205,563.785,780.51,565.006,780.51,566.227z"/>
		<path fill="#FFFFFF" d="M796.983,574.769c-4.271,0-7.932-1.221-10.373-3.662c-2.44-2.44-3.661-6.101-3.661-10.372
			c0-4.576,1.221-8.238,3.356-10.678c2.44-2.747,5.492-3.965,9.457-3.965c3.662,0,6.713,1.219,8.85,3.355
			c2.134,2.135,3.355,5.187,3.355,9.153v3.05h-18.916c0,2.747,0.915,4.882,2.135,6.102c1.526,1.525,3.356,2.136,5.797,2.136
			c1.831,0,3.356-0.305,4.576-0.611c1.526-0.305,3.053-0.915,4.576-1.525v4.881c-1.523,0.61-3.05,1.221-4.576,1.526
			C800.646,574.769,798.814,574.769,796.983,574.769z M795.763,550.361c-1.83,0-3.354,0.61-4.576,1.83
			c-1.22,1.221-1.83,3.052-2.135,5.187h12.813c0-2.44-0.61-3.965-1.83-5.187C799.119,550.972,797.595,550.361,795.763,550.361z"/>
		<path fill="#FFFFFF" d="M829.935,574.158h-6.103v-36.917h21.356v5.187h-15.254v11.595h14.033v5.187h-14.033V574.158z"/>
		<path fill="#FFFFFF" d="M882.715,555.853c0,6.101-1.525,10.678-4.577,14.034c-3.05,3.355-7.321,4.881-13.118,4.881
			s-10.067-1.526-13.12-4.881c-3.05-3.356-4.576-7.933-4.576-14.034c0-6.102,1.526-10.678,4.576-14.035
			c3.053-3.356,7.323-4.882,13.12-4.882c5.492,0,9.763,1.526,12.812,4.882C881.189,545.175,882.715,549.751,882.715,555.853z
			 M854.036,555.853c0,4.576,0.916,7.932,2.745,10.374c1.831,2.439,4.576,3.661,8.238,3.661c3.661,0,6.405-1.221,8.236-3.356
			c1.832-2.441,2.746-5.797,2.746-10.373c0-4.578-0.914-7.933-2.746-10.373c-1.831-2.441-4.575-3.357-8.236-3.357
			c-3.662,0-6.407,1.221-8.238,3.357C854.952,547.92,854.036,551.275,854.036,555.853z"/>
		<path fill="#FFFFFF" d="M917.494,537.547v23.797c0,2.746-0.61,5.188-1.831,7.018c-1.219,2.136-3.051,3.661-5.185,4.576
			c-2.137,1.221-4.884,1.526-8.239,1.526c-4.575,0-8.236-1.221-10.983-3.661c-2.439-2.441-3.965-5.797-3.965-10.068v-23.798h6.102
			v23.188c0,3.05,0.61,5.187,2.135,6.711c1.526,1.526,3.662,2.136,6.712,2.136c5.797,0,8.545-3.05,8.545-8.847v-23.188h6.71V537.547
			z"/>
		<path fill="#FFFFFF" d="M955.935,574.158h-7.626l-18.61-29.289h-0.305v1.524c0.305,3.052,0.305,6.102,0.305,8.543v19.221h-5.492
			v-36.917h7.323l18.306,29.289h0.305c0-0.305,0-1.83-0.305-4.271c0-2.44-0.306-4.271-0.306-5.797v-19.221h5.492v36.917H955.935z"/>
		<path fill="#FFFFFF" d="M993.768,555.548c0,6.101-1.831,10.679-5.187,14.034s-8.543,4.882-14.95,4.882h-10.373v-36.917h11.594
			c6.103,0,10.679,1.526,14.034,4.881C991.938,545.175,993.768,549.751,993.768,555.548z M987.055,555.548
			c0-8.849-4.271-13.12-12.509-13.12h-5.186v26.849h4.271C982.784,569.276,987.055,564.701,987.055,555.548z"/>
		<path fill="#FFFFFF" d="M1022.445,574.158l-3.661-10.373h-14.339l-3.66,10.373h-6.407l14.033-36.917h6.713l14.034,36.917H1022.445
			z M1016.954,558.904l-3.662-10.068c-0.305-0.61-0.61-1.831-0.915-3.05c-0.303-1.526-0.913-2.441-0.913-3.052
			c-0.611,2.136-1.222,4.271-2.137,6.712l-3.355,9.458H1016.954L1016.954,558.904z"/>
		<path fill="#FFFFFF" d="M1044.413,574.158h-6.103v-31.73h-10.983v-5.187h28.374v5.187h-10.983L1044.413,574.158L1044.413,574.158z
			"/>
		<path fill="#FFFFFF" d="M1058.446,574.158v-36.917h6.102v36.917H1058.446z"/>
		<path fill="#FFFFFF" d="M1105.431,555.853c0,6.101-1.526,10.678-4.576,14.034c-3.052,3.355-7.323,4.881-13.12,4.881
			c-5.796,0-10.067-1.526-13.117-4.881c-3.052-3.356-4.577-7.933-4.577-14.034c0-6.102,1.525-10.678,4.577-14.035
			c3.05-3.356,7.321-4.882,13.117-4.882c5.492,0,9.763,1.526,12.815,4.882C1103.904,545.175,1105.431,549.751,1105.431,555.853z
			 M1076.751,555.853c0,4.576,0.916,7.932,2.747,10.374c1.831,2.439,4.576,3.661,8.236,3.661c3.663,0,6.407-1.221,8.239-3.356
			c1.829-2.441,2.744-5.797,2.744-10.373c0-4.578-0.915-7.933-2.744-10.373c-1.832-2.441-4.576-3.357-8.239-3.357
			c-3.66,0-6.405,1.221-8.236,3.357C1077.667,547.92,1076.751,551.275,1076.751,555.853z"/>
		<path fill="#FFFFFF" d="M1142.042,574.158h-7.628l-18.61-29.289h-0.306v1.524c0.306,3.052,0.306,6.102,0.306,8.543v19.221h-5.492
			v-36.917h7.322l18.307,29.289h0.305c0-0.305,0-1.83-0.305-4.271c0-2.44-0.306-4.271-0.306-5.797v-19.221h5.492v36.917H1142.042z"
			/>
		<path fill="#FFFFFF" d="M315.245,645.244l-1.221-3.965h-0.305c-1.221,1.83-2.745,2.745-4.271,3.355
			c-1.525,0.61-3.05,0.916-5.491,0.916c-2.745,0-4.882-0.611-6.407-2.136c-1.524-1.526-2.44-3.661-2.44-6.407
			c0-2.746,1.221-5.187,3.355-6.406c2.137-1.526,5.492-2.137,10.068-2.442h4.881v-1.524c0-1.831-0.305-3.051-1.221-3.967
			c-0.913-0.916-2.135-1.219-3.966-1.219c-1.524,0-2.744,0.304-4.271,0.609c-1.221,0.305-2.745,0.916-3.967,1.526l-1.83-4.271
			c1.526-0.916,3.356-1.526,5.187-1.832c1.831-0.305,3.662-0.608,5.187-0.608c3.66,0,6.407,0.914,8.238,2.44
			c1.83,1.525,2.745,3.965,2.745,7.322v18.916h-4.271V645.244z M306.094,641.279c2.134,0,3.965-0.61,5.187-1.832
			c1.219-1.22,2.134-2.745,2.134-5.187v-2.441h-3.66c-2.745,0-4.882,0.61-6.103,1.525c-1.221,0.916-1.831,2.137-1.831,3.966
			c0,1.221,0.306,2.136,1.221,2.746C303.651,640.974,304.567,641.279,306.094,641.279z"/>
		<path fill="#FFFFFF" d="M350.331,645.244h-6.102v-17.085c0-2.135-0.306-3.66-1.222-4.881c-0.915-0.916-2.135-1.526-4.271-1.526
			c-2.44,0-4.271,0.61-5.492,2.136c-1.221,1.526-1.83,3.966-1.83,7.323v14.033h-6.102V617.48h4.882l0.915,3.662h0.305
			c0.915-1.221,2.135-2.441,3.661-3.052s3.355-1.219,5.187-1.219c6.713,0,10.374,3.355,10.374,10.066v18.306H350.331z"/>
		<path fill="#FFFFFF" d="M365.585,645.854c-3.66,0-6.407-1.221-8.236-3.662c-2.136-2.44-3.052-6.1-3.052-10.676
			c0-4.578,0.916-8.239,3.052-10.679c2.135-2.441,4.88-3.965,8.236-3.965c3.661,0,6.712,1.219,8.543,3.965h0.305
			c-0.305-2.136-0.305-3.662-0.305-4.881v-10.068h6.102v39.356h-4.881l-0.916-3.662h-0.305
			C372.297,644.329,369.552,645.854,365.585,645.854z M367.417,640.974c2.439,0,4.271-0.61,5.489-2.137
			c1.222-1.22,1.832-3.66,1.832-6.712v-0.914c0-3.663-0.61-6.102-1.832-7.628c-1.219-1.526-3.05-2.137-5.489-2.137
			c-2.137,0-3.662,0.916-4.883,2.441c-1.22,1.831-1.83,3.966-1.83,7.321c0,3.052,0.61,5.492,1.524,7.018
			C363.449,640.058,364.975,640.974,367.417,640.974z"/>
		<path fill="#FFFFFF" d="M397.924,645.244v-36.916h6.103v31.729h15.865v5.187H397.924z"/>
		<path fill="#FFFFFF" d="M440.943,645.244l-1.221-3.965h-0.306c-1.219,1.83-2.745,2.745-4.271,3.355
			c-1.526,0.61-3.051,0.916-5.492,0.916c-2.745,0-4.882-0.611-6.407-2.136c-1.524-1.526-2.439-3.661-2.439-6.407
			c0-2.746,1.22-5.187,3.354-6.406c2.137-1.526,5.492-2.137,10.068-2.442h4.882v-1.524c0-1.831-0.306-3.051-1.22-3.967
			c-0.915-0.916-2.137-1.219-3.967-1.219c-1.524,0-2.746,0.304-4.271,0.609c-1.221,0.305-2.745,0.916-3.966,1.526l-1.831-4.271
			c1.525-0.916,3.356-1.526,5.187-1.832c1.831-0.305,3.66-0.608,5.187-0.608c3.662,0,6.407,0.914,8.238,2.44
			c1.83,1.525,2.745,3.965,2.745,7.322v18.916h-4.271V645.244z M432.096,641.279c2.135,0,3.966-0.61,5.187-1.832
			c1.219-1.22,2.135-2.745,2.135-5.187v-2.441h-3.661c-2.746,0-4.881,0.61-6.102,1.525c-1.221,0.916-1.83,2.137-1.83,3.966
			c0,1.221,0.305,2.136,1.22,2.746C429.35,640.974,430.569,641.279,432.096,641.279z"/>
		<path fill="#FFFFFF" d="M461.689,640.974c1.524,0,3.05-0.305,4.271-0.61v4.576c-0.61,0.305-1.526,0.611-2.442,0.611
			c-0.914,0.305-2.135,0.305-3.355,0.305c-5.797,0-8.542-3.051-8.542-8.847v-14.951h-3.965v-2.745l4.271-2.137l2.135-5.795h3.662
			v6.101h8.237v4.576h-8.237v14.951c0,1.524,0.304,2.439,1.219,3.05C459.553,640.668,460.469,640.974,461.689,640.974z"/>
		<path fill="#FFFFFF" d="M469.011,610.159c0-0.916,0.305-1.831,0.915-2.442c0.61-0.61,1.526-0.914,2.441-0.914
			s1.83,0.304,2.44,0.914c0.61,0.611,0.915,1.526,0.915,2.442c0,0.916-0.305,1.83-0.915,2.44c-0.61,0.611-1.525,0.916-2.44,0.916
			c-1.22,0-1.831-0.305-2.441-0.916C469.315,611.684,469.011,611.075,469.011,610.159z M475.418,645.244h-6.103V617.48h6.103
			V645.244z"/>
		<path fill="#FFFFFF" d="M506.232,645.244h-6.103v-17.085c0-2.135-0.305-3.66-1.221-4.881c-0.913-0.916-2.135-1.526-4.271-1.526
			c-2.439,0-4.271,0.61-5.492,2.136c-1.219,1.526-1.829,3.966-1.829,7.323v14.033h-6.103V617.48h4.882l0.915,3.662h0.306
			c0.915-1.221,2.135-2.441,3.66-3.052c1.526-0.61,3.355-1.219,5.187-1.219c6.713,0,10.373,3.355,10.373,10.066v18.306H506.232z"/>
		<path fill="#FFFFFF" d="M547.115,645.244l-3.663-10.373h-14.339l-3.66,10.373h-6.407l14.035-36.916h6.711l14.033,36.916H547.115z
			 M541.623,629.99l-3.661-10.068c-0.305-0.61-0.609-1.831-0.915-3.05c-0.305-1.526-0.916-2.442-0.916-3.053
			c-0.61,2.137-1.221,4.271-2.136,6.713l-3.355,9.458H541.623L541.623,629.99z"/>
		<path fill="#FFFFFF" d="M579.453,645.244h-6.101v-17.085c0-2.135-0.305-3.66-1.221-4.881c-0.915-0.916-2.136-1.526-3.965-1.526
			c-2.442,0-3.968,0.61-5.188,2.136c-1.221,1.526-1.525,3.966-1.525,7.323v14.033h-6.103V617.48h4.882l0.915,3.662h0.306
			c0.915-1.221,1.83-2.441,3.355-3.052s3.052-1.219,4.881-1.219c4.271,0,7.323,1.524,8.544,4.271h0.305
			c0.916-1.525,2.135-2.441,3.661-3.357c1.525-0.914,3.355-1.219,5.187-1.219c3.355,0,5.797,0.914,7.321,2.44
			c1.525,1.831,2.441,4.271,2.441,7.627v18.305h-6.103v-17.085c0-2.135-0.305-3.66-1.221-4.881
			c-0.913-0.916-2.134-1.526-3.966-1.526c-2.439,0-3.965,0.61-5.187,2.137c-1.219,1.526-1.523,3.66-1.523,6.712L579.453,645.244
			L579.453,645.244z"/>
		<path fill="#FFFFFF" d="M615.455,645.854c-4.271,0-7.933-1.221-10.373-3.662c-2.44-2.44-3.662-6.1-3.662-10.373
			c0-4.577,1.222-8.237,3.356-10.677c2.44-2.746,5.492-3.967,9.457-3.967c3.663,0,6.713,1.221,8.85,3.357
			c2.134,2.135,3.355,5.187,3.355,9.153v3.05h-18.916c0,2.747,0.916,4.882,2.136,6.102c1.525,1.526,3.355,2.137,5.797,2.137
			c1.831,0,3.356-0.305,4.576-0.61c1.525-0.306,3.052-0.916,4.575-1.526v4.882c-1.523,0.61-3.05,1.22-4.575,1.525
			C619.116,645.55,617.286,645.854,615.455,645.854z M614.233,621.448c-1.83,0-3.354,0.609-4.575,1.83
			c-1.22,1.221-1.831,3.052-2.136,5.187h12.813c0-2.44-0.61-3.965-1.83-5.187C617.896,622.057,616.37,621.448,614.233,621.448z"/>
		<path fill="#FFFFFF" d="M645.353,616.872c1.221,0,2.137,0,3.053,0.303l-0.61,5.492c-0.916-0.305-1.832-0.305-2.747-0.305
			c-2.439,0-4.271,0.916-5.795,2.442c-1.526,1.525-2.137,3.66-2.137,6.102v14.644h-6.102v-27.764h4.881l0.916,4.881h0.305
			c0.916-1.524,2.137-3.05,3.66-3.966C641.692,617.48,643.523,616.872,645.353,616.872z"/>
		<path fill="#FFFFFF" d="M650.539,610.159c0-0.916,0.306-1.831,0.916-2.442c0.61-0.61,1.526-0.914,2.44-0.914
			c0.916,0,1.831,0.304,2.44,0.914c0.61,0.611,0.916,1.526,0.916,2.442c0,0.916-0.306,1.83-0.916,2.44
			c-0.609,0.611-1.524,0.916-2.44,0.916c-1.22,0-1.83-0.305-2.44-0.916C650.845,611.684,650.539,611.075,650.539,610.159z
			 M656.946,645.244h-6.102V617.48h6.102V645.244z"/>
		<path fill="#FFFFFF" d="M674.336,645.854c-4.271,0-7.626-1.221-9.762-3.662c-2.136-2.44-3.355-6.1-3.355-10.676
			c0-4.578,1.22-8.239,3.66-10.679c2.441-2.441,5.797-3.662,10.067-3.662c3.053,0,5.797,0.61,8.239,1.526l-1.831,4.882
			c-2.439-0.916-4.576-1.526-6.408-1.526c-4.881,0-7.32,3.052-7.32,9.459c0,3.05,0.61,5.49,1.83,7.016
			c1.22,1.525,3.051,2.441,5.49,2.441c2.747,0,5.187-0.61,7.629-1.832v5.187c-1.221,0.61-2.137,1.221-3.355,1.221
			C677.693,645.55,676.168,645.854,674.336,645.854z"/>
		<path fill="#FFFFFF" d="M704.235,645.244l-1.22-3.965h-0.305c-1.22,1.83-2.745,2.745-4.271,3.355
			c-1.526,0.61-3.051,0.916-5.491,0.916c-2.745,0-4.882-0.611-6.407-2.136c-1.526-1.526-2.439-3.661-2.439-6.407
			c0-2.746,1.218-5.187,3.354-6.406c2.137-1.526,5.492-2.137,10.068-2.442h4.882v-1.524c0-1.831-0.305-3.051-1.221-3.967
			c-0.914-0.916-2.136-1.219-3.967-1.219c-1.525,0-2.745,0.304-4.271,0.609c-1.221,0.305-2.745,0.916-3.966,1.526l-1.831-4.271
			c1.525-0.916,3.357-1.526,5.187-1.832c1.831-0.305,3.661-0.608,5.187-0.608c3.661,0,6.407,0.914,8.237,2.44
			c1.831,1.525,2.747,3.965,2.747,7.322v18.916h-4.272L704.235,645.244L704.235,645.244z M695.083,641.279
			c2.136,0,3.967-0.61,5.187-1.832c1.222-1.22,2.137-2.745,2.137-5.187v-2.441h-3.661c-2.746,0-4.882,0.61-6.103,1.525
			c-1.221,0.916-1.831,2.137-1.831,3.966c0,1.221,0.305,2.136,1.221,2.746C692.643,640.974,693.559,641.279,695.083,641.279z"/>
		<path fill="#FFFFFF" d="M739.322,645.244h-6.103v-17.085c0-2.135-0.305-3.66-1.221-4.881c-0.915-0.916-2.134-1.526-4.271-1.526
			c-2.442,0-4.271,0.61-5.492,2.136c-1.221,1.526-1.831,3.966-1.831,7.323v14.033h-6.1V617.48h4.881l0.916,3.662h0.303
			c0.916-1.221,2.137-2.441,3.663-3.052c1.523-0.61,3.354-1.219,5.187-1.219c6.71,0,10.373,3.355,10.373,10.066v18.306H739.322z"/>
		<path fill="#FFFFFF" d="M781.729,619.617c0,3.966-1.219,6.712-3.966,8.847c-2.441,2.137-6.102,3.052-10.983,3.052h-3.966v13.728
			h-6.102v-36.916h10.678c4.576,0,8.236,0.916,10.679,2.747C780.51,613.21,781.729,615.956,781.729,619.617z M762.813,626.329h3.355
			c3.053,0,5.492-0.61,7.018-1.525c1.525-1.221,2.135-2.747,2.135-5.187c0-2.137-0.609-3.661-1.829-4.882
			c-1.221-0.916-3.355-1.525-6.103-1.525h-4.271v13.119H762.813L762.813,626.329z"/>
		<path fill="#FFFFFF" d="M800.34,616.872c1.22,0,2.136,0,3.052,0.303l-0.611,5.492c-0.915-0.305-1.831-0.305-2.745-0.305
			c-2.44,0-4.272,0.916-5.797,2.442c-1.525,1.525-2.136,3.66-2.136,6.102v14.644h-6.102v-27.764h4.881l0.916,4.881h0.305
			c0.914-1.524,2.136-3.05,3.66-3.966C796.983,617.48,798.51,616.872,800.34,616.872z"/>
		<path fill="#FFFFFF" d="M818.34,645.854c-4.271,0-7.931-1.221-10.372-3.662c-2.442-2.44-3.661-6.1-3.661-10.373
			c0-4.577,1.219-8.237,3.355-10.677c2.441-2.746,5.491-3.967,9.457-3.967c3.663,0,6.713,1.221,8.847,3.357
			c2.137,2.135,3.357,5.187,3.357,9.153v3.05h-18.914c0,2.747,0.913,4.882,2.134,6.102c1.526,1.526,3.355,2.137,5.797,2.137
			c1.832,0,3.355-0.305,4.576-0.61c1.526-0.306,3.05-0.916,4.576-1.526v4.882c-1.526,0.61-3.05,1.22-4.576,1.525
			C822.001,645.55,820.172,645.854,818.34,645.854z M817.119,621.448c-1.831,0-3.354,0.609-4.576,1.83
			c-1.221,1.221-1.829,3.052-2.134,5.187h12.812c0-2.44-0.61-3.965-1.832-5.187C820.782,622.057,819.256,621.448,817.119,621.448z"
			/>
		<path fill="#FFFFFF" d="M852.815,637.312c0,2.746-0.916,4.881-3.051,6.407c-2.136,1.525-4.882,2.136-8.542,2.136
			c-3.663,0-6.713-0.61-9.154-1.831v-5.187c3.356,1.526,6.407,2.137,9.458,2.137c3.662,0,5.492-1.221,5.492-3.357
			c0-0.61-0.306-1.219-0.61-1.83c-0.306-0.61-1.22-0.916-2.136-1.526c-0.915-0.61-2.135-1.221-3.965-1.831
			c-3.356-1.219-5.492-2.44-6.713-3.661c-1.221-1.221-1.832-2.745-1.832-4.881c0-2.441,0.916-4.271,3.053-5.491
			c1.83-1.221,4.576-1.832,7.933-1.832c3.354,0,6.406,0.61,9.457,2.136l-1.83,4.576c-3.052-1.221-5.797-1.831-7.627-1.831
			c-3.052,0-4.883,0.916-4.883,2.747c0,0.916,0.306,1.525,1.221,2.136c0.916,0.609,2.746,1.524,5.492,2.44
			c2.44,0.916,3.967,1.832,5.187,2.44c0.915,0.611,1.83,1.526,2.44,2.441C852.511,634.871,852.815,636.092,852.815,637.312z"/>
		<path fill="#FFFFFF" d="M856.171,610.159c0-0.916,0.305-1.831,0.915-2.442c0.61-0.61,1.526-0.914,2.442-0.914
			c0.915,0,1.829,0.304,2.439,0.914c0.61,0.611,0.915,1.526,0.915,2.442c0,0.916-0.305,1.83-0.915,2.44
			c-0.61,0.611-1.524,0.916-2.439,0.916c-1.221,0-1.832-0.305-2.442-0.916C856.476,611.684,856.171,611.075,856.171,610.159z
			 M862.578,645.244h-6.103V617.48h6.103V645.244z"/>
		<path fill="#FFFFFF" d="M878.442,645.854c-3.66,0-6.407-1.221-8.236-3.662c-2.137-2.44-3.052-6.1-3.052-10.676
			c0-4.578,0.915-8.239,3.052-10.679c2.135-2.441,4.882-3.965,8.236-3.965c3.662,0,6.713,1.219,8.543,3.965h0.306
			c-0.306-2.136-0.306-3.662-0.306-4.881v-10.068h6.103v39.356h-4.882l-0.915-3.662h-0.306
			C884.851,644.329,882.104,645.854,878.442,645.854z M879.969,640.974c2.44,0,4.271-0.61,5.49-2.137
			c1.222-1.22,1.832-3.66,1.832-6.712v-0.914c0-3.663-0.61-6.102-1.832-7.628c-1.22-1.526-3.05-2.137-5.49-2.137
			c-2.137,0-3.661,0.916-4.881,2.441c-1.222,1.831-1.832,3.966-1.832,7.321c0,3.052,0.61,5.492,1.526,7.018
			C876.002,640.058,877.832,640.974,879.969,640.974z"/>
		<path fill="#FFFFFF" d="M911.395,645.854c-4.273,0-7.934-1.221-10.373-3.662c-2.442-2.44-3.663-6.1-3.663-10.373
			c0-4.577,1.221-8.237,3.357-10.677c2.439-2.746,5.489-3.967,9.457-3.967c3.661,0,6.711,1.221,8.848,3.357
			c2.136,2.135,3.354,5.187,3.354,9.153v3.05h-18.914c0,2.747,0.915,4.882,2.134,6.102c1.526,1.526,3.357,2.137,5.8,2.137
			c1.829,0,3.354-0.305,4.573-0.61c1.526-0.306,3.053-0.916,4.578-1.526v4.882c-1.525,0.61-3.052,1.22-4.578,1.525
			C915.055,645.55,913.224,645.854,911.395,645.854z M910.173,621.448c-1.831,0-3.357,0.609-4.578,1.83
			c-1.219,1.221-1.829,3.052-2.134,5.187h12.812c0-2.44-0.61-3.965-1.829-5.187C913.528,622.057,912.002,621.448,910.173,621.448z"
			/>
		<path fill="#FFFFFF" d="M951.665,645.244h-6.102v-17.085c0-2.135-0.305-3.66-1.221-4.881c-0.915-0.916-2.136-1.526-4.271-1.526
			c-2.44,0-4.271,0.61-5.492,2.136c-1.221,1.526-1.83,3.966-1.83,7.323v14.033h-6.102V617.48h4.882l0.915,3.662h0.305
			c0.915-1.221,2.136-2.441,3.66-3.052c1.526-0.61,3.356-1.219,5.188-1.219c6.711,0,10.373,3.355,10.373,10.066v18.306H951.665z"/>
		<path fill="#FFFFFF" d="M968.139,640.974c1.526,0,3.053-0.305,4.272-0.61v4.576c-0.61,0.305-1.525,0.611-2.44,0.611
			c-0.916,0.305-2.137,0.305-3.356,0.305c-5.796,0-8.543-3.051-8.543-8.847v-14.951h-3.966v-2.745l4.271-2.137l2.136-5.795h3.661
			v6.101h8.237v4.576h-8.237v14.951c0,1.524,0.305,2.439,1.221,3.05C966.005,640.668,966.919,640.974,968.139,640.974z"/>
		<path fill="#FFFFFF" d="M975.157,610.159c0-0.916,0.305-1.831,0.914-2.442c0.61-0.61,1.526-0.914,2.441-0.914
			c0.916,0,1.831,0.304,2.441,0.914c0.61,0.611,0.914,1.526,0.914,2.442c0,0.916-0.304,1.83-0.914,2.44
			c-0.61,0.611-1.525,0.916-2.441,0.916c-1.221,0-1.831-0.305-2.441-0.916C975.462,611.684,975.157,611.075,975.157,610.159z
			 M981.564,645.244h-6.103V617.48h6.103V645.244z"/>
		<path fill="#FFFFFF" d="M1005.361,645.244l-1.221-3.965h-0.306c-1.221,1.83-2.744,2.745-4.271,3.355
			c-1.526,0.61-3.053,0.916-5.492,0.916c-2.744,0-4.881-0.611-6.407-2.136c-1.524-1.526-2.439-3.661-2.439-6.407
			c0-2.746,1.219-5.187,3.355-6.406c2.137-1.526,5.491-2.137,10.067-2.442h4.882v-1.524c0-1.831-0.306-3.051-1.219-3.967
			c-0.916-0.916-2.137-1.219-3.968-1.219c-1.526,0-2.745,0.304-4.271,0.609c-1.221,0.305-2.744,0.916-3.965,1.526l-1.832-4.271
			c1.526-0.916,3.356-1.526,5.187-1.832c1.832-0.305,3.66-0.608,5.187-0.608c3.663,0,6.407,0.914,8.239,2.44
			c1.829,1.525,2.744,3.965,2.744,7.322v18.916h-4.271V645.244L1005.361,645.244z M996.209,641.279c2.135,0,3.966-0.61,5.187-1.832
			c1.219-1.22,2.135-2.745,2.135-5.187v-2.441h-3.66c-2.748,0-4.882,0.61-6.103,1.525c-1.221,0.916-1.83,2.137-1.83,3.966
			c0,1.221,0.304,2.136,1.22,2.746C993.768,640.974,994.683,641.279,996.209,641.279z"/>
		<path fill="#FFFFFF" d="M1021.531,645.244h-6.103v-39.356h6.103V645.244z"/>
		<path fill="#FFFFFF" d="M1055.396,645.244l-10.982-30.814h-0.306c0.306,4.577,0.306,8.847,0.306,12.813v18.001h-5.492v-36.916
			h8.541l10.373,29.289h0.306l10.68-29.289h8.541v36.916h-5.796v-18.306c0-1.829,0-4.271,0-7.016c0-3.05,0.306-4.576,0.306-5.492
			h-0.306l-11.288,30.814H1055.396L1055.396,645.244z"/>
		<path fill="#FFFFFF" d="M1084.074,610.159c0-0.916,0.306-1.831,0.916-2.442c0.61-0.61,1.526-0.914,2.439-0.914
			c0.915,0,1.831,0.304,2.441,0.914c0.61,0.611,0.916,1.526,0.916,2.442c0,0.916-0.306,1.83-0.916,2.44
			c-0.61,0.611-1.526,0.916-2.441,0.916c-1.219,0-1.829-0.305-2.439-0.916C1084.38,611.684,1084.074,611.075,1084.074,610.159z
			 M1090.481,645.244h-6.102V617.48h6.102V645.244z"/>
		<path fill="#FFFFFF" d="M1115.804,637.312c0,2.746-0.916,4.881-3.051,6.407c-2.136,1.525-4.883,2.136-8.543,2.136
			s-6.713-0.61-9.152-1.831v-5.187c3.355,1.526,6.407,2.137,9.457,2.137c3.66,0,5.492-1.221,5.492-3.357
			c0-0.61-0.306-1.219-0.61-1.83c-0.306-0.61-1.222-0.916-2.136-1.526s-2.135-1.221-3.967-1.831
			c-3.355-1.219-5.491-2.44-6.713-3.661c-1.218-1.221-1.828-2.745-1.828-4.881c0-2.441,0.915-4.271,3.05-5.491
			c1.831-1.221,4.578-1.832,7.933-1.832c3.355,0,6.408,0.61,9.458,2.136l-1.83,4.576c-3.052-1.221-5.797-1.831-7.628-1.831
			c-3.052,0-4.881,0.916-4.881,2.747c0,0.916,0.306,1.525,1.221,2.136c0.914,0.609,2.745,1.524,5.491,2.44
			c2.44,0.916,3.967,1.832,5.187,2.44c0.915,0.611,1.83,1.526,2.44,2.441C1115.498,634.871,1115.804,636.092,1115.804,637.312z"/>
		<path fill="#FFFFFF" d="M1138.685,637.312c0,2.746-0.915,4.881-3.05,6.407c-2.136,1.525-4.881,2.136-8.544,2.136
			c-3.66,0-6.711-0.61-9.151-1.831v-5.187c3.355,1.526,6.407,2.137,9.457,2.137c3.663,0,5.493-1.221,5.493-3.357
			c0-0.61-0.306-1.219-0.611-1.83c-0.305-0.61-1.219-0.916-2.135-1.526s-2.137-1.221-3.967-1.831
			c-3.356-1.219-5.492-2.44-6.712-3.661c-1.221-1.221-1.831-2.745-1.831-4.881c0-2.441,0.916-4.271,3.051-5.491
			c1.832-1.221,4.577-1.832,7.933-1.832c3.356,0,6.407,0.61,9.457,2.136l-1.829,4.576c-3.052-1.221-5.797-1.831-7.628-1.831
			c-3.05,0-4.881,0.916-4.881,2.747c0,0.916,0.305,1.525,1.221,2.136c0.914,0.609,2.744,1.524,5.491,2.44
			c2.439,0.916,3.966,1.832,5.187,2.44c0.916,0.611,1.829,1.526,2.439,2.441C1138.38,634.871,1138.685,636.092,1138.685,637.312z"/>
		<path fill="#FFFFFF" d="M1142.348,610.159c0-0.916,0.306-1.831,0.913-2.442c0.61-0.61,1.526-0.914,2.442-0.914
			c0.915,0,1.83,0.304,2.439,0.914c0.61,0.611,0.915,1.526,0.915,2.442c0,0.916-0.305,1.83-0.915,2.44
			c-0.609,0.611-1.524,0.916-2.439,0.916c-1.222,0-1.832-0.305-2.442-0.916C1142.653,611.684,1142.348,611.075,1142.348,610.159z
			 M1148.753,645.244h-6.1V617.48h6.1V645.244z"/>
		<path fill="#FFFFFF" d="M1179.873,631.211c0,4.576-1.222,8.236-3.661,10.677c-2.441,2.441-5.797,3.967-10.068,3.967
			c-2.746,0-4.881-0.61-7.017-1.831c-2.136-1.221-3.661-2.745-4.577-5.187c-1.22-2.136-1.523-4.881-1.523-7.628
			c0-4.576,1.218-7.932,3.66-10.677c2.44-2.441,5.797-3.662,10.067-3.662c3.967,0,7.322,1.221,9.764,3.967
			C1178.651,623.277,1179.873,626.938,1179.873,631.211z M1159.127,631.211c0,6.406,2.44,9.763,7.321,9.763
			c4.883,0,7.322-3.357,7.322-9.763c0-6.407-2.439-9.459-7.322-9.459c-2.44,0-4.271,0.916-5.491,2.442
			C1159.737,625.719,1159.127,628.159,1159.127,631.211z"/>
		<path fill="#FFFFFF" d="M1209.161,645.244h-6.101v-17.085c0-2.135-0.306-3.66-1.221-4.881c-0.916-0.916-2.137-1.526-4.272-1.526
			c-2.44,0-4.27,0.61-5.49,2.136c-1.221,1.526-1.831,3.966-1.831,7.323v14.033h-6.103V617.48h4.881l0.916,3.662h0.306
			c0.915-1.221,2.136-2.441,3.66-3.052c1.526-0.61,3.357-1.219,5.187-1.219c6.713,0,10.374,3.355,10.374,10.066v18.306H1209.161z"/>
	</g>
	<g>
		<path fill="#FFFFFF" d="M684.405,733.72h-36.61v-5.492l14.644-14.644c4.577-4.576,7.321-7.627,8.848-9.763
			c1.526-1.83,2.439-3.967,3.355-5.797c0.61-1.83,1.221-3.662,1.221-5.797c0-3.05-0.916-5.186-2.744-7.017
			c-1.832-1.831-4.272-2.747-7.629-2.747c-2.44,0-4.576,0.305-6.711,1.221c-2.137,0.915-4.272,2.136-7.019,4.271l-3.354-4.271
			c5.187-4.271,10.678-6.406,16.779-6.406c5.187,0,9.457,1.219,12.204,3.966c3.05,2.745,4.576,6.406,4.576,10.678
			c0,3.66-0.916,7.017-3.05,10.372c-2.137,3.356-5.797,7.934-11.289,13.12l-12.204,11.899v0.303H684.1v6.102H684.405z"/>
		<path fill="#FFFFFF" d="M729.865,705.652c0,9.764-1.526,16.779-4.579,21.663c-3.05,4.881-7.626,7.015-14.033,7.015
			c-6.102,0-10.678-2.439-13.729-7.32c-3.052-4.884-4.576-11.899-4.576-21.358c0-9.762,1.524-16.78,4.576-21.662
			c3.051-4.576,7.627-7.016,13.729-7.016c6.103,0,10.679,2.44,13.729,7.321C728.033,689.178,729.865,696.5,729.865,705.652z
			 M699.355,705.652c0,8.238,0.914,14.035,2.746,17.695c1.83,3.663,4.881,5.492,9.151,5.492c4.271,0,7.323-1.829,9.152-5.492
			c1.831-3.66,2.747-9.762,2.747-17.695c0-7.932-0.916-14.033-2.747-17.695c-1.829-3.661-4.881-5.492-9.152-5.492
			c-4.271,0-7.321,1.831-9.151,5.492C700.27,691.619,699.355,697.72,699.355,705.652z"/>
		<path fill="#FFFFFF" d="M761.288,733.72h-6.103v-39.662c0-3.355,0-6.407,0.306-9.458c-0.611,0.611-1.22,1.221-1.83,1.832
			c-0.611,0.61-3.661,3.05-9.152,7.321l-3.357-4.271l14.645-11.289h5.492V733.72L761.288,733.72z"/>
		<path fill="#FFFFFF" d="M783.56,709.924c0-10.983,2.136-19.221,6.407-24.712s10.679-8.237,18.916-8.237
			c2.745,0,5.187,0.304,6.71,0.609v5.492c-1.828-0.61-4.271-0.916-6.71-0.916c-6.103,0-10.678,1.831-13.73,5.492
			c-3.05,3.662-4.88,9.459-5.186,17.696h0.61c2.745-4.271,7.322-6.712,13.425-6.712c4.881,0,8.847,1.525,11.896,4.576
			c2.747,3.051,4.273,7.018,4.273,12.204c0,5.797-1.526,10.373-4.884,13.728c-3.05,3.356-7.32,4.881-12.812,4.881
			c-5.797,0-10.373-2.135-13.729-6.407C785.085,723.652,783.56,717.551,783.56,709.924z M802.171,729.144
			c3.66,0,6.407-1.221,8.543-3.355c2.135-2.136,3.051-5.492,3.051-9.762c0-3.663-0.916-6.713-2.747-8.848
			c-1.829-2.135-4.576-3.051-8.237-3.051c-2.44,0-4.271,0.61-6.407,1.525c-1.831,0.916-3.356,2.135-4.575,3.967
			c-1.222,1.526-1.831,3.355-1.831,5.187c0,2.745,0.609,5.187,1.525,7.321c0.916,2.137,2.44,3.968,4.271,5.492
			C797.899,728.533,800.035,729.144,802.171,729.144z"/>
	</g>
	<g>
		<path fill="#FFFFFF" d="M527.589,834.4c-7.323,0.916-7.628,1.525-7.628,8.542v9.765c0,3.966,0,7.932,0.61,10.981
			c-7.322,1.526-16.17,4.273-26.238,4.273c-25.933,0-43.017-16.476-43.017-39.967c0-25.324,20.136-39.358,43.322-39.358
			c12.204,0,20.746,2.746,24.102,3.052c0.306,4.271,0.916,11.592,1.831,18.915l-3.355,0.61c-2.747-9.762-6.407-14.34-13.73-16.78
			c-2.745-0.915-6.711-1.221-10.373-1.221c-17.694,0-29.594,11.594-29.594,33.561c0,18.61,9.458,36.915,32.341,36.915
			c3.966,0,7.626-0.608,9.763-1.829c2.441-1.526,3.966-3.052,3.966-7.628v-9.458c0-8.542-0.916-9.457-12.202-10.373v-3.356h29.898
			v3.356H527.589L527.589,834.4z"/>
		<path fill="#FFFFFF" d="M533.081,866.13v-3.354c7.321-0.61,8.236-1.222,8.236-8.85v-55.831c0-7.018-0.61-7.933-7.933-8.848v-3.051
			c6.407-0.61,13.425-2.441,17.391-3.966c0,5.492,0,10.982,0,16.475v54.915c0,7.629,0.61,8.239,8.236,8.85v3.355L533.081,866.13
			L533.081,866.13z"/>
		<path fill="#FFFFFF" d="M590.437,813.653c14.646,0,25.323,10.983,25.323,26.239c0,18.915-14.034,27.764-25.323,27.764
			c-16.17,0-25.933-12.814-25.933-25.934C564.504,822.503,579.453,813.653,590.437,813.653z M588.913,817.622
			c-7.018,0-13.425,7.015-13.425,20.44c0,14.645,6.407,25.626,16.17,25.626c7.322,0,13.424-5.187,13.424-21.05
			C604.776,828.604,599.286,817.622,588.913,817.622z"/>
		<path fill="#FFFFFF" d="M647.185,814.569c1.831-0.916,3.66-1.221,5.186-1.221c12.509,0,22.882,10.983,22.882,24.714
			c0,15.863-13.423,29.288-28.679,29.288c-4.881,0-11.594-1.221-17.998-4.271c0-3.052,0-6.102,0-9.46v-55.83
			c0-7.323-0.306-7.934-7.934-8.543v-3.051c5.491-0.61,12.814-2.441,17.085-3.966c0,4.576,0,9.152,0,13.729v22.576L647.185,814.569z
			 M637.727,852.402c0,1.829,0,3.05,0.61,3.966c1.524,3.049,5.492,6.407,10.983,6.407c9.763,0,15.559-8.544,15.559-21.662
			c0-13.424-7.933-21.052-17.694-21.052c-3.355,0-7.321,0.915-9.458,2.136V852.402L637.727,852.402z"/>
		<path fill="#FFFFFF" d="M720.103,867.351c-1.831,0-4.273-0.915-5.494-2.136c-1.523-1.526-2.134-3.05-2.745-5.187
			c-4.575,3.05-10.372,7.322-14.034,7.322c-8.236,0-14.339-7.018-14.339-14.341c0-5.794,3.051-9.457,9.458-11.593
			c7.018-2.44,15.864-5.491,18.305-7.627v-2.44c0-8.237-4.271-13.117-10.373-13.117c-2.745,0-4.271,1.218-5.491,2.744
			s-2.136,4.271-3.051,7.627c-0.61,1.831-1.526,2.746-3.355,2.746c-2.137,0-5.187-2.44-5.187-5.187c0-1.526,1.523-3.051,3.966-4.576
			c3.354-2.441,10.067-6.712,16.779-8.238c3.357,0,7.018,0.916,9.765,3.052c3.966,3.355,5.797,7.321,5.797,13.423
			c0,6.408,0,16.172,0,22.579c0,5.491,1.829,7.015,3.966,7.015c1.523,0,3.05-0.609,4.271-1.221l1.221,3.357L720.103,867.351z
			 M711.559,838.062c-2.44,1.22-8.237,3.66-10.983,4.881c-4.576,1.83-7.017,4.272-7.017,8.543c0,6.103,4.576,8.847,8.237,8.847
			c3.05,0,7.322-1.831,9.457-4.271C711.559,850.57,711.559,843.553,711.559,838.062z"/>
		<path fill="#FFFFFF" d="M731.999,866.13v-3.354c7.323-0.61,8.239-1.222,8.239-8.85v-55.831c0-7.018-0.61-7.933-7.934-8.848v-3.051
			c6.407-0.61,13.424-2.441,17.391-3.966c0,5.492,0,10.982,0,16.475v54.915c0,7.629,0.61,8.239,8.237,8.85v3.355L731.999,866.13
			L731.999,866.13z"/>
		<path fill="#FFFFFF" d="M820.477,790.467c8.236,0,14.948,1.526,19.831,4.883c4.575,3.355,7.627,8.847,7.627,16.476
			c0,17.084-14.646,23.795-25.629,23.795c-1.221,0-2.439,0-3.05-0.304l-7.934-2.137v18.307c0,9.763,0.916,10.067,11.594,11.289
			v3.354h-32.034v-3.354c10.067-0.916,10.373-1.832,10.373-11.289v-46.374c0-10.373-1.22-10.679-10.373-11.594v-3.356h29.595
			V790.467z M811.018,829.519c1.525,0.61,4.575,1.525,8.544,1.525c7.931,0,17.39-3.965,17.39-18.608
			c0-12.815-8.238-18.002-18.306-18.002c-3.357,0-5.797,0.61-6.407,1.525c-0.916,0.915-1.221,2.136-1.221,5.493V829.519z"/>
		<path fill="#FFFFFF" d="M895.528,856.062c-7.322,9.457-15.56,11.288-19.221,11.288c-14.34,0-22.882-11.594-22.882-25.018
			c0-7.933,2.745-15.254,7.628-20.44c4.879-5.492,11.287-8.544,17.389-8.544c10.069,0,17.695,8.849,17.695,18.001
			c0,2.44-0.609,3.356-2.439,3.967c-2.44,0.609-17.391,1.525-31.12,1.83c-0.306,15.561,9.152,21.966,17.391,21.966
			c4.882,0,9.153-1.829,13.424-5.797L895.528,856.062z M875.392,817.927c-5.49,0-10.677,4.881-12.203,14.339
			c6.407,0,13.119,0,19.831-0.306c2.136,0,2.745-0.61,2.745-2.441C886.069,823.416,881.799,817.927,875.392,817.927z"/>
		<path fill="#FFFFFF" d="M940.071,867.351c-1.83,0-4.271-0.915-5.492-2.136c-1.524-1.526-2.135-3.05-2.744-5.187
			c-4.578,3.05-10.373,7.322-14.036,7.322c-8.236,0-14.338-7.018-14.338-14.341c0-5.794,3.05-9.457,9.457-11.593
			c7.018-2.44,15.864-5.491,18.307-7.627v-2.44c0-8.237-4.272-13.117-10.373-13.117c-2.747,0-4.273,1.218-5.492,2.744
			c-1.221,1.526-2.136,4.271-3.052,7.627c-0.608,1.831-1.523,2.746-3.355,2.746c-2.137,0-5.187-2.44-5.187-5.187
			c0-1.526,1.526-3.051,3.966-4.576c3.357-2.441,10.067-6.712,16.78-8.238c3.355,0,7.018,0.916,9.763,3.052
			c3.967,3.355,5.797,7.321,5.797,13.423c0,6.408,0,16.172,0,22.579c0,5.491,1.83,7.015,3.967,7.015c1.525,0,3.05-0.609,4.271-1.221
			l1.221,3.357L940.071,867.351z M931.529,838.062c-2.441,1.22-8.238,3.66-10.983,4.881c-4.578,1.83-7.018,4.272-7.018,8.543
			c0,6.103,4.576,8.847,8.236,8.847c3.053,0,7.323-1.831,9.46-4.271C931.529,850.57,931.529,843.553,931.529,838.062z"/>
		<path fill="#FFFFFF" d="M983.7,828.909c-2.136-6.712-5.492-11.287-12.509-11.287c-3.967,0-7.323,3.05-7.323,7.625
			c0,5.188,3.966,7.629,10.068,10.373c9.458,4.272,14.949,7.933,14.949,15.866c0,10.679-9.762,16.17-18.915,16.17
			c-6.103,0-11.289-1.831-13.73-3.357c-0.61-3.355-1.524-10.067-2.135-13.729l3.355-0.61c2.137,7.323,6.103,13.729,14.34,13.729
			c4.576,0,8.237-3.05,8.237-7.932c0-5.187-3.051-7.932-9.457-10.983c-7.629-3.356-14.949-7.321-14.949-16.17
			c0-8.542,7.32-14.95,18.305-14.95c4.882,0,9.152,1.222,11.289,1.526c0.305,2.745,1.219,10.067,1.829,12.815L983.7,828.909z"/>
		<path fill="#FFFFFF" d="M1039.531,856.062c-7.321,9.457-15.561,11.288-19.221,11.288c-14.339,0-22.883-11.594-22.883-25.018
			c0-7.933,2.747-15.254,7.628-20.44c4.882-5.492,11.289-8.544,17.39-8.544c10.068,0,17.696,8.849,17.696,18.001
			c0,2.44-0.61,3.356-2.441,3.967c-2.439,0.609-17.39,1.525-31.12,1.83c-0.306,15.561,9.154,21.966,17.391,21.966
			c4.883,0,9.153-1.829,13.424-5.797L1039.531,856.062z M1019.395,817.927c-5.491,0-10.678,4.881-12.204,14.339
			c6.407,0,13.12,0,19.831-0.306c2.137,0,2.746-0.61,2.746-2.441C1030.073,823.416,1025.802,817.927,1019.395,817.927z"/>
	</g>
	<g>
		<path fill="#FFFFFF" d="M487.622,915.555c-0.61-2.136-1.22-3.661-2.441-5.492c-1.525-2.439-2.745-3.05-7.321-3.05h-8.544
			c-2.439,0-2.439,0.306-2.439,2.439v16.78h10.068c5.797,0,6.1-0.914,7.321-5.797h2.441v15.256h-2.441
			c-0.916-5.187-1.524-6.103-7.321-6.103h-10.068v12.814c0,6.405,0.915,6.711,7.932,7.016v2.137h-22.271v-2.137
			c6.405-0.305,7.321-0.913,7.321-7.016v-28.681c0-6.404-0.916-6.71-7.321-7.015v-2.137h25.322c7.321,0,10.068,0,11.287,0
			c0,2.747,0.306,7.628,0.916,10.983H487.622z"/>
		<path fill="#FFFFFF" d="M532.775,903.353c13.729,0,25.934,9.457,25.934,23.796c0,15.561-11.594,25.323-26.544,25.323
			c-15.254,0-26.543-10.679-26.543-24.103C505.927,915.249,515.995,903.353,532.775,903.353z M531.25,905.792
			c-8.848,0-17.086,6.713-17.086,20.44c0,13.424,8.238,23.492,19.525,23.492c9.763,0,17.086-6.405,17.086-20.44
			C550.775,914.028,541.623,905.792,531.25,905.792z"/>
		<path fill="#FFFFFF" d="M629.488,906.402c-5.187,0.306-7.016,1.526-7.016,4.881c0,1.526-0.306,4.576-0.306,11.289v7.933
			c0,7.321-0.915,13.117-5.491,17.391c-3.662,3.66-9.153,4.576-14.646,4.576c-4.575,0-9.457-0.916-13.117-3.355
			c-4.884-3.357-7.018-8.238-7.018-16.781v-18.307c0-6.405-0.61-7.016-7.019-7.32v-2.137h21.052v2.137
			c-6.407,0.305-7.018,0.915-7.018,7.32v18.001c0,10.68,5.491,16.477,15.255,16.477c11.289,0,14.949-6.407,14.949-18.307v-7.321
			c0-6.713-0.304-9.458-0.304-11.289c-0.306-3.355-2.136-4.576-7.933-4.881v-2.137h19.22v1.831H629.488z"/>
		<path fill="#FFFFFF" d="M697.219,906.402c-5.187,0.61-6.711,1.221-7.016,4.576c0,2.44-0.305,5.491-0.305,12.204v28.983h-3.053
			l-34.17-38.138v18.001c0,6.407,0.306,9.764,0.306,11.898c0.305,3.662,2.135,4.884,7.932,5.188v2.135h-19.526v-2.135
			c4.882-0.305,7.019-1.526,7.323-4.883c0.306-2.44,0.306-5.491,0.306-12.204v-18.304c0-2.137-0.306-3.053-1.526-4.882
			c-1.526-1.831-3.052-2.136-7.018-2.747v-2.134h11.898l33.865,36.304v-17.389c0-6.713-0.306-9.763-0.306-11.899
			c-0.305-3.355-2.134-4.271-8.541-4.576v-2.137h19.83V906.402L697.219,906.402z"/>
		<path fill="#FFFFFF" d="M733.83,904.266c11.288,0,18.306,2.137,23.492,6.407c3.966,3.355,6.713,8.543,6.713,15.56
			c0,8.543-3.967,15.256-10.069,19.526s-13.728,5.797-23.796,5.797h-18.611v-2.137c7.018-0.607,7.323-1.219,7.323-7.016V913.42
			c0-6.102-0.916-6.407-7.323-7.018v-2.137H733.83L733.83,904.266z M725.897,941.488c0,5.491,2.441,7.018,8.542,7.018
			c14.34,0,21.662-8.85,21.662-21.663c0-7.932-3.052-13.728-9.153-17.391c-3.66-2.134-8.236-2.744-13.729-2.744
			c-3.66,0-5.491,0.305-6.407,0.915c-0.61,0.306-0.915,1.219-0.915,3.966V941.488z"/>
		<path fill="#FFFFFF" d="M807.968,951.251v-2.137c5.186-0.608,5.797-1.219,4.575-3.966c-0.915-2.745-2.744-6.406-4.271-10.983
			h-17.391c-1.22,3.357-2.44,6.102-3.662,9.154c-1.83,4.576-0.609,5.187,5.797,6.1v2.137h-18.61v-2.137
			c5.188-0.607,6.406-1.219,9.153-7.626l16.476-37.833l2.44-0.305c5.187,12.51,10.678,25.934,15.56,38.443
			c2.439,6.407,3.354,7.016,8.847,7.32v2.137h-18.914V951.251L807.968,951.251z M800.035,912.81
			c-2.44,6.102-5.188,12.812-7.627,18.61h14.948L800.035,912.81z"/>
		<path fill="#FFFFFF" d="M874.478,915.555c-0.611-2.439-1.832-4.576-2.442-6.103c-1.219-1.829-2.134-2.439-6.407-2.439h-7.932
			v35.086c0,5.491,0.611,6.407,8.236,7.016v2.137h-23.185v-2.137c7.321-0.303,7.932-1.219,7.932-7.016v-35.086h-7.322
			c-4.271,0-5.798,0.306-7.017,2.745c-0.915,1.525-1.525,3.052-2.746,5.797h-2.439c0.607-4.271,0.913-8.847,1.219-13.118h1.831
			c1.221,1.829,2.136,1.523,4.271,1.523h31.73c2.135,0,2.745-0.303,3.966-1.523h1.83c0,3.355,0.306,8.542,0.61,12.812
			L874.478,915.555z"/>
		<path fill="#FFFFFF" d="M891.562,951.251v-2.137c6.407-0.608,7.323-0.914,7.323-7.016v-28.68c0-6.101-0.61-6.406-7.323-7.017
			v-2.137h21.356v2.137c-6.713,0.61-7.323,0.916-7.323,7.017v28.68c0,6.102,0.61,6.407,7.323,7.016v2.137H891.562z"/>
		<path fill="#FFFFFF" d="M955.632,903.353c13.729,0,25.933,9.457,25.933,23.796c0,15.561-11.594,25.323-26.543,25.323
			c-15.256,0-26.544-10.679-26.544-24.103C928.478,915.249,938.852,903.353,955.632,903.353z M954.105,905.792
			c-8.847,0-17.085,6.713-17.085,20.44c0,13.424,8.238,23.492,19.524,23.492c9.764,0,17.086-6.405,17.086-20.44
			C973.327,914.028,964.479,905.792,954.105,905.792z"/>
		<path fill="#FFFFFF" d="M1052.649,906.402c-5.188,0.61-6.711,1.221-7.016,4.576c0,2.44-0.306,5.491-0.306,12.204v28.983h-3.051
			l-34.171-37.833v18.002c0,6.406,0.305,9.764,0.305,11.897c0.306,3.663,2.137,4.882,7.934,5.187v2.137h-19.527v-2.137
			c4.884-0.303,7.018-1.523,7.323-4.881c0.305-2.439,0.305-5.49,0.305-12.203v-18.307c0-2.135-0.305-3.05-1.525-4.879
			c-1.524-1.831-3.05-2.137-7.016-2.747v-2.137h11.896l33.866,36.307v-17.694c0-6.713-0.305-9.763-0.305-11.899
			c-0.305-3.355-2.137-4.271-8.544-4.576v-2.137h19.833L1052.649,906.402L1052.649,906.402z"/>
	</g>
	<path fill="#FFFFFF" d="M296.94,806.027c3.355-8.542,11.593-18.305,10.982-16.78l-2.135,8.848l16.168-4.882l-15.862,12.204
		c0,0,0,7.019,0.915,11.289c0.914,4.271,3.661,10.983,3.661,10.983s-6.103-8.239-7.934-11.289c-2.135-3.965-2.746-7.934-2.746-7.934
		l-6.406,14.646c0,0,0.609-7.933,1.525-10.982C296.025,809.077,296.94,806.027,296.94,806.027z"/>
	
		<ellipse transform="matrix(-0.8011 -0.5986 0.5986 -0.8011 86.2398 1613.1173)" fill="#FFFFFF" cx="311.184" cy="792.228" rx="1.83" ry="4.273"/>
	
		<ellipse transform="matrix(-0.5834 -0.8122 0.8122 -0.5834 -11.8669 1589.1672)" fill="#FFFFFF" cx="401.619" cy="797.627" rx="3.051" ry="1.221"/>
	
		<ellipse transform="matrix(-0.0816 -0.9967 0.9967 -0.0816 -383.72 1192.0637)" fill="#FFFFFF" cx="357.361" cy="772.824" rx="1.831" ry="4.271"/>
	
		<ellipse transform="matrix(-0.063 -0.998 0.998 -0.063 -518.4814 1188.6766)" fill="#FFFFFF" cx="298.764" cy="837.731" rx="4.271" ry="1.831"/>
	
		<ellipse transform="matrix(-0.5 -0.866 0.866 -0.5 -288.5447 1563.1378)" fill="#FFFFFF" cx="306.989" cy="864.869" rx="4.271" ry="1.22"/>
	
		<ellipse transform="matrix(-0.4688 -0.8833 0.8833 -0.4688 -207.2852 1635.6567)" fill="#FFFFFF" cx="388.154" cy="880.153" rx="1.221" ry="4.271"/>
	
		<ellipse transform="matrix(-0.9867 -0.1625 0.1625 -0.9867 687.3521 1736.3126)" fill="#FFFFFF" cx="414.693" cy="840.043" rx="1.22" ry="3.661"/>
	<path fill="#FFFFFF" d="M294.805,843.248c0,0,4.882,1.221,6.712,0c1.83-1.22,3.051-17.695,3.051-17.695l4.881,17.086l31.73-0.61
		c0,0-9.764,4.271-16.476,5.491s-11.289,2.746-11.289,2.746s-0.61,2.441,0.916,4.271c1.526,1.832,10.068,11.289,10.068,11.289
		s-18.915-15.56-19.526-15.56c-0.61-0.306-6.102-2.746-7.322-3.966C296.33,845.079,294.805,843.248,294.805,843.248z"/>
	<path fill="#FFFFFF" d="M322.566,859.112c1.526,0.305,11.595,4.576,11.595,4.576s7.018,1.221,10.068-2.439
		s12.204-11.289,12.204-11.289l-4.271,13.423c0,0-1.221,3.663,0.304,5.189c1.525,1.523,20.44,7.32,20.44,7.32
		s-7.016,1.221-13.423,0.306c-6.407-0.916-10.373-2.137-10.373-2.137s-1.524,0.305-1.524,1.221s0.304,9.764,0.304,9.764
		s-5.187-5.187-6.711-8.237c-1.526-3.052-2.747-6.103-3.967-7.629c-1.22-1.218-4.271-1.829-8.237-4.271
		C324.093,861.859,322.566,859.112,322.566,859.112z"/>
	<path fill="#FFFFFF" d="M321.653,796.569c0,0,3.965,7.322,8.236,8.543c4.576,1.221,9.153,0,11.289-0.916
		c2.135-0.916,15.865-4.271,15.865-4.271l-16.171,10.983c0,0-2.746,1.831-1.525,5.491c1.221,3.661,17.086,21.662,17.086,21.662
		s-16.171-8.544-20.441-11.289c-4.271-2.747-5.797-5.797-6.713-6.407c-0.61-0.61-3.355-0.61-3.661,0.306
		c-0.61,0.915-10.067,15.56-10.067,15.56s0.916-10.373,3.355-16.781c2.441-6.407,5.187-9.457,4.271-12.507
		c-0.916-3.052-1.83-4.272-2.136-6.407C320.737,798.399,321.653,796.569,321.653,796.569z"/>
	<path fill="#FFFFFF" d="M353.687,790.772c0,0,10.373,6.713,11.898,7.933c1.526,0.915,4.576,3.355,4.271,5.797
		c-0.61,2.441-9.763,13.73-10.679,15.254c-1.221,1.831-5.187,6.407-5.187,6.407s11.899-6.407,15.865-9.457
		c3.966-3.053,9.152-7.629,10.068-7.934c0.915-0.306,2.439,0.305,3.966,2.137c1.525,1.831,11.289,14.338,11.289,14.338
		s-1.832-11.594-5.187-16.78c-3.356-5.187-5.797-6.101-6.103-8.236c-0.305-2.136,1.831-4.881,1.525-7.018
		c-0.305-2.136-1.22-4.881-1.22-4.881s-3.356,7.627-5.797,7.932c-2.441,0.306-4.271,0.916-9.764-1.524
		c-5.491-2.44-10.373-3.051-11.287-3.356C355.823,790.772,353.687,790.772,353.687,790.772z"/>
	<path fill="#FFFFFF" d="M345.755,840.809c0,0,25.933,2.744,28.983,0.914c3.05-1.524,9.763-9.152,10.983-10.983
		c1.221-1.83,3.355-5.187,3.355-5.187l0.306,16.476c0,0,10.067,6.711,10.678,7.321s5.797,3.66,5.797,3.66
		s-14.339-0.913-15.255-0.913c-0.915,0-5.187-0.61-6.102,0s-4.576,6.711-5.797,9.152c-1.22,2.439-5.187,7.626-5.187,7.626
		s-0.611-11.896-0.916-14.033c-0.305-2.135,0.61-4.576-0.914-5.797c-1.526-1.22-11.899-2.745-17.696-4.882
		C348.194,841.723,345.755,840.809,345.755,840.809z"/>
	<path fill="#FFFFFF" d="M354.602,881.079c0,0,17.695,3.356,20.441,2.746c3.051-0.61,14.034-13.119,14.034-13.119l-7.932,13.119
		c0,0,7.932,0,12.508-2.746c4.576-2.744-8.542,6.103-17.695,8.237c-9.151,2.137-20.135,3.356-20.135,3.356s6.102-1.524,9.457-2.135
		c3.355-0.611,5.491-0.611,5.491-1.832c0-1.22-3.051-0.609-7.933-3.05S354.602,881.079,354.602,881.079z"/>
	<path fill="#FFFFFF" d="M305.483,856.979l6.102,12.812c0,0,0.914,1.832-0.61,1.832c-1.526,0-9.458-8.542-11.899-11.899
		c-2.439-3.354,5.187,11.899,13.729,18.917c8.544,7.017,22.272,12.813,22.883,12.813s1.221-0.61-2.441-3.051
		c-3.66-2.442-11.592-6.407-12.203-7.018c-0.61-0.61,5.492-0.61,9.763-0.61c3.967,0,7.933,0.61,7.933,0
		c0-0.611-1.525-1.221-5.797-1.831c-7.322-1.22-11.593-2.44-13.729-4.882c-4.576-5.187-8.541-9.152-10.678-12.508
		C306.398,857.894,305.483,856.979,305.483,856.979z"/>
	<path fill="#FFFFFF" d="M395.18,871.316c0.305-0.305,13.423-13.728,14.338-15.56c0.916-1.525,1.526-4.576,0.916-5.797
		s-3.05-4.576-3.66-5.491c-0.61-0.916-1.832-3.355-1.526-3.966s1.526-0.916,2.745,0.914c1.221,1.831,2.441,3.052,3.357,3.967
		c0.915,0.916,2.745,1.222,3.355,0.611c0.305-0.611,2.441-4.578,3.052-8.238c0.608-3.356,0.914-0.305,0.608,0.61
		c-0.305,0.915-0.914,8.238-5.491,15.559c-4.271,7.323-7.933,10.373-10.982,13.12C397.01,871.622,395.18,871.316,395.18,871.316z"/>
	
		<ellipse transform="matrix(-0.9757 -0.2189 0.2189 -0.9757 476.4272 1769.8386)" fill="#FFFFFF" cx="336.262" cy="858.525" rx="3.966" ry="3.051"/>
	
		<ellipse transform="matrix(-0.9973 -0.0734 0.0734 -0.9973 678.8 1695.9099)" fill="#FFFFFF" cx="370.553" cy="835.486" rx="5.796" ry="3.355"/>
	
		<ellipse transform="matrix(-0.3183 -0.948 0.948 -0.3183 -316.8568 1372.5112)" fill="#FFFFFF" cx="335.063" cy="800.183" rx="3.051" ry="4.882"/>
	
		<ellipse transform="matrix(-0.9552 -0.2961 0.2961 -0.9552 495.918 1656.1791)" fill="#FFFFFF" cx="373.367" cy="790.538" rx="4.271" ry="2.745"/>
	<path fill="#FFFFFF" d="M325.618,776.739c0,0,2.745-0.61,5.797-0.306c0.609,0,0.915,3.05,0.609,3.966l-5.49,12.203
		c0,0,0.306,0.61,1.219,0c0.61-0.609,10.984-12.509,13.73-13.424c2.746-0.916,16.779,0.305,19.526,0.915
		c2.745,0.61,10.067,2.137,10.067,2.137s0.916-0.305,0.306-0.915c-0.611-0.611-6.713-4.271-19.223-5.797
		c-3.05-0.306-5.185-0.306-5.185-0.916c0-2.135,6.101-3.966,8.237-4.881c1.831-0.611,5.797-0.611,5.491-0.916
		c0-0.913-9.457-0.913-13.729,0c-5.797,1.221-10.068,3.662-10.068,3.662s-10.679,2.135-14.035,3.966
		c-3.355,1.829-2.44,1.526-1.83,1.526C322.262,777.654,325.618,776.739,325.618,776.739z"/>
	<path fill="#FFFFFF" d="M389.993,797.485l13.728,5.49c0,0,2.137,0.916,2.442,0c0-0.915-0.61-7.32-0.61-7.32
		s3.05,7.625,4.881,10.982c0.916,1.829,3.051,5.492,3.661,8.542s0.915,3.966,1.22,6.407c0.306,2.135,0.611,6.103,0.611,6.103
		s-3.357-10.983-4.576-11.899c-2.441-1.831-2.441,1.526-4.882,5.492c-0.61,0.915-3.967,4.881-3.967,4.881s-4.577,3.66-4.881,3.966
		c-0.305,0-0.305-1.22,2.136-3.966c2.745-2.747,5.186-11.898,4.575-15.254s-2.136-3.966-3.965-5.797
		c-1.832-1.832-4.271-3.052-4.271-3.052l-6.102-3.966V797.485z"/>
	<path fill="#FFFFFF" d="M370.161,770.332l6.407,3.965l-8.543,0.916c0,0-3.355,0.916,0.306,1.221c3.662,0,11.594,1.524,13.729,2.745
		s11.593,14.034,11.593,14.034s0.61-0.306-1.219-4.576c-1.832-4.271-4.576-9.153-4.576-9.153s2.744,1.221,6.1,3.662
		c1.222,0.914,3.357,2.746,3.357,2.135c0-0.61-0.61-3.354-8.238-7.931c-7.626-4.579-8.237-4.579-10.983-5.492
		C370.771,769.11,370.161,770.332,370.161,770.332z"/>
	<g>
		<path fill="#FFFFFF" d="M277.413,385.611c0,0-5.797-23.187,3.662-40.272c9.458-17.083,24.408-20.44,24.408-20.44
			s8.236,21.051-1.832,37.526C293.584,378.9,277.413,385.611,277.413,385.611z"/>
		<path fill="#FFFFFF" d="M305.483,374.629c0,0,10.983-14.951,25.932-18.001c14.95-3.05,24.408,4.271,24.408,4.271
			s-8.543,15.254-23.493,17.696C317.38,380.73,305.483,374.629,305.483,374.629z"/>
		<path fill="#FFFFFF" d="M271.922,388.053c0,0,22.883-7.018,40.577,1.525c17.696,8.542,21.662,23.187,21.662,23.187
			s-20.441,9.152-37.525,0C279.55,403.918,271.922,388.053,271.922,388.053z"/>
		<path fill="#FFFFFF" d="M223.718,415.815c0,0,21.357-10.373,40.272-4.576s25.017,19.831,25.017,19.831
			s-18.915,12.205-37.222,5.797C233.48,430.156,223.718,415.815,223.718,415.815z"/>
		<path fill="#FFFFFF" d="M180.091,452.121c0,0,19.525-13.728,39.051-10.983c19.525,2.747,27.763,15.56,27.763,15.56
			s-16.779,14.95-36,11.594C191.683,464.936,180.091,452.121,180.091,452.121z"/>
		<path fill="#FFFFFF" d="M141.037,498.19c0,0,17.696-18,38.443-18.916c20.746-0.915,32.033,10.679,32.033,10.679
			s-14.644,18.915-35.085,18.915C155.989,509.174,141.037,498.19,141.037,498.19z"/>
		<path fill="#FFFFFF" d="M111.749,549.751c0,0,14.035-21.051,34.172-25.933c20.136-4.881,33.56,4.577,33.56,4.577
			s-10.679,21.356-30.814,25.323C128.225,557.683,111.749,549.751,111.749,549.751z"/>
		<path fill="#FFFFFF" d="M91.919,605.583c0,0,10.678-24.103,30.509-32.34c19.831-8.542,35.086-1.221,35.086-1.221
			s-7.321,23.493-27.152,31.12C110.528,610.77,91.919,605.583,91.919,605.583z"/>
		<path fill="#FFFFFF" d="M82.766,663.855c0,0,6.103-25.628,23.797-37.526c18.002-11.899,34.17-7.933,34.17-7.933
			s-2.745,24.712-20.745,35.695C101.986,665.38,82.766,663.855,82.766,663.855z"/>
		<path fill="#FFFFFF" d="M83.376,723.652c0,0,1.832-27.458,18.305-42.712c16.476-15.255,33.867-13.729,33.867-13.729
			s1.219,25.932-15.561,40.271C103.207,721.823,83.376,723.652,83.376,723.652z"/>
		<path fill="#FFFFFF" d="M95.581,780.094c0,0-3.357-27.153,10.068-45.458c13.118-18.305,30.812-19.831,30.812-19.831
			s6.102,25.017-7.627,42.408C114.801,774.907,95.581,780.094,95.581,780.094z"/>
		<path fill="#FFFFFF" d="M114.19,832.57c0,0-7.018-26.543,3.661-46.374c10.678-19.83,27.764-23.799,27.764-23.799
			s9.458,24.104-1.831,43.325C132.496,824.942,114.19,832.57,114.19,832.57z"/>
		<path fill="#FFFFFF" d="M110.225,827.689c0,0-26.543,7.017-46.374-3.663c-19.831-10.678-23.798-27.763-23.798-27.763
			s24.104-9.457,43.323,1.831C102.597,809.383,110.225,827.689,110.225,827.689z"/>
		<path fill="#FFFFFF" d="M139.818,877.724c0,0-25.628,12.203-47.899,5.187c-22.271-7.018-29.594-23.798-29.594-23.798
			s22.577-14.339,44.543-6.405C128.529,860.333,139.818,877.724,139.818,877.724z"/>
		<path fill="#FFFFFF" d="M178.259,922.572c0,0-23.796,17.39-47.897,14.34c-24.104-3.052-34.78-18.61-34.78-18.61
			s20.439-18.917,43.932-14.949C163.615,907.318,178.259,922.572,178.259,922.572z"/>
		<path fill="#FFFFFF" d="M221.582,960.708c0,0-21.05,20.747-45.153,21.357c-24.102,0.609-37.221-13.119-37.221-13.119
			s17.39-21.661,41.188-21.661C204.192,947.285,221.582,960.708,221.582,960.708z"/>
		<path fill="#FFFFFF" d="M275.278,990.302c0,0-18.609,25.018-43.629,29.594c-25.018,4.576-40.881-7.627-40.881-7.627
			s14.645-25.322,39.662-28.983C255.447,979.624,275.278,990.302,275.278,990.302z"/>
		<path fill="#FFFFFF" d="M227.989,962.539c0,0-20.747-21.051-21.357-45.153c-0.608-24.103,13.12-37.223,13.12-37.223
			s21.662,17.393,21.662,41.188C240.804,945.454,227.989,962.539,227.989,962.539z"/>
		<path fill="#FFFFFF" d="M281.685,990.606c0,0-25.321-16.475-31.118-40.577c-5.797-24.102,5.187-39.967,5.187-39.967
			s25.628,12.815,30.509,36.612C290.839,970.775,281.685,990.606,281.685,990.606z"/>
		<path fill="#FFFFFF" d="M339.348,1011.353c0,0-29.594-12.507-40.577-36.61c-10.679-24.103-2.44-43.018-2.44-43.018
			s29.288,8.237,39.052,32.644C345.145,988.472,339.348,1011.353,339.348,1011.353z"/>
		<path fill="#FFFFFF" d="M331.415,1011.353c0,0-14.338,28.983-39.052,38.139c-24.713,9.151-43.018-0.306-43.018-0.306
			s10.068-28.68,35.086-36.917C309.448,1004.335,331.415,1011.353,331.415,1011.353z"/>
		<path fill="#FFFFFF" d="M145.311,884.741c0,0-13.425-25.934-7.018-48.815c6.407-23.188,23.186-31.119,23.186-31.119
			s15.561,22.577,8.239,45.153C162.395,872.538,145.311,884.741,145.311,884.741z"/>
		<path fill="#FFFFFF" d="M183.446,927.759c0,0-17.39-24.712-14.034-49.12c3.355-24.407,19.221-35.086,19.221-35.086
			s18.915,21.052,14.645,45.153C199.311,912.81,183.446,927.759,183.446,927.759z"/>
		<path fill="#FFFFFF" d="M92.224,773.076c0,0-27.152,3.357-45.459-10.067c-18.305-13.118-19.83-30.812-19.83-30.812
			s25.017-6.103,42.408,7.626C87.037,753.856,92.224,773.076,92.224,773.076z"/>
		<path fill="#FFFFFF" d="M82.766,716.026c0,0-26.848-1.832-42.103-18.307c-15.254-16.474-13.424-33.56-13.424-33.56
			s25.322-1.221,39.662,15.254C81.24,695.89,82.766,716.026,82.766,716.026z"/>
		<path fill="#FFFFFF" d="M81.851,657.447c0,0-25.323-7.016-36.61-25.322c-11.288-18.306-6.407-34.476-6.407-34.476
			s24.407,3.662,35.086,22.272C84.292,638.532,81.851,657.447,81.851,657.447z"/>
		<path fill="#FFFFFF" d="M93.749,598.26c0,0-24.102-10.679-32.339-30.509c-8.237-19.831-1.221-35.085-1.221-35.085
			s23.492,7.323,31.118,27.154C98.937,579.65,93.749,598.26,93.749,598.26z"/>
		<path fill="#FFFFFF" d="M114.801,542.733c0,0-21.052-14.034-25.933-34.17c-4.882-20.136,4.576-33.56,4.576-33.56
			s21.356,10.679,25.323,30.814C122.732,526.258,114.801,542.733,114.801,542.733z"/>
		<path fill="#FFFFFF" d="M227.379,413.375c0,0-9.764-22.882-3.355-41.798c6.407-18.915,20.746-25.017,20.746-25.017
			s11.594,20.136,4.576,38.746C242.328,403.918,227.379,413.375,227.379,413.375z"/>
		<path fill="#FFFFFF" d="M183.446,448.461c0,0-14.034-20.441-11.594-40.578c2.746-20.135,15.56-28.678,15.56-28.678
			s15.56,17.389,12.204,37.22C195.956,436.256,183.446,448.461,183.446,448.461z"/>
		<path fill="#FFFFFF" d="M145.005,492.393c0,0-17.391-17.694-18.306-37.83s10.373-31.12,10.373-31.12s18.306,14.645,18.306,34.475
			C155.378,477.75,145.005,492.393,145.005,492.393z"/>
		<path fill="#FFFFFF" d="M316.161,376.458c0,0-59.492,15.255-122.037,73.223c-49.119,45.458-69.865,90.001-79.323,113.493
			c-7.322,18.001-23.798,64.069-25.322,122.953c-1.221,48.509,9.458,79.629,18.915,112.578c9.458,32.95,30.814,62.544,51.256,92.138
			c20.441,29.287,56.441,57.357,82.984,75.967c26.237,18.611,67.12,33.56,79.933,36.917c12.815,3.355,49.427,9.152,75.968,19.831
			c20.137,8.237,37.222,21.354,37.222,43.933c-0.305,28.678-17.085,36.611-17.085,36.611s-1.22-18.611-2.44-24.103
			c-1.221-5.492-7.018-21.967-17.696-32.645c-10.678-10.679-28.678-21.052-48.813-26.849c-19.831-5.797-42.409-10.374-68.341-21.052
			c-25.933-10.678-45.763-25.018-71.391-45.459c-25.628-20.44-48.511-45.459-64.984-66.509
			c-16.476-21.051-36.001-61.018-46.374-92.137c-10.373-31.426-15.56-68.646-15.865-94.884c-0.305-25.932,4.271-64.373,8.542-82.985
			c4.273-18.61,18.002-56.442,22.272-66.815c4.271-10.371,33.254-55.83,33.254-55.83s16.781-28.069,62.85-64.07
			c50.035-38.746,104.036-56.441,104.036-56.441L316.161,376.458z"/>
	</g>
	<g>
		<path fill="#FFFFFF" d="M1222.28,385.611c0,0,5.796-23.187-3.661-40.272c-9.458-17.083-24.408-20.44-24.408-20.44
			s-8.236,21.051,1.832,37.526C1206.416,378.9,1222.28,385.611,1222.28,385.611z"/>
		<path fill="#FFFFFF" d="M1194.517,374.629c0,0-10.983-14.951-25.933-18.001c-14.949-3.05-24.407,4.271-24.407,4.271
			s8.544,15.254,23.492,17.696C1182.62,381.035,1194.517,374.629,1194.517,374.629z"/>
		<path fill="#FFFFFF" d="M1228.076,388.053c0,0-22.882-7.018-40.575,1.525c-17.696,8.542-21.661,23.187-21.661,23.187
			s20.44,9.152,37.526,0C1220.45,403.918,1228.076,388.053,1228.076,388.053z"/>
		<path fill="#FFFFFF" d="M1276.282,415.815c0,0-21.356-10.373-40.272-4.576s-25.019,19.831-25.019,19.831
			s18.916,12.205,37.222,5.797C1266.52,430.156,1276.282,415.815,1276.282,415.815z"/>
		<path fill="#FFFFFF" d="M1319.909,452.121c0,0-19.526-13.728-39.052-10.983c-19.524,2.747-27.763,15.56-27.763,15.56
			s16.779,14.95,36,11.594C1308.011,464.936,1319.909,452.121,1319.909,452.121z"/>
		<path fill="#FFFFFF" d="M1358.96,498.19c0,0-17.694-18-38.44-18.916c-20.746-0.915-32.036,10.679-32.036,10.679
			s14.646,18.915,35.088,18.915C1344.013,509.174,1358.96,498.19,1358.96,498.19z"/>
		<path fill="#FFFFFF" d="M1388.25,549.751c0,0-14.033-21.051-34.17-25.933c-20.136-4.881-33.561,4.577-33.561,4.577
			s10.679,21.356,30.814,25.323C1371.47,557.683,1388.25,549.751,1388.25,549.751z"/>
		<path fill="#FFFFFF" d="M1408.082,605.583c0,0-10.68-24.103-30.51-32.34s-35.086-1.221-35.086-1.221s7.322,23.493,27.152,31.12
			C1389.47,610.77,1408.082,605.583,1408.082,605.583z"/>
		<path fill="#FFFFFF" d="M1416.929,663.855c0,0-6.103-25.628-23.797-37.526c-18.002-11.899-34.172-7.933-34.172-7.933
			s2.747,24.712,20.746,35.695C1398.013,665.38,1416.929,663.855,1416.929,663.855z"/>
		<path fill="#FFFFFF" d="M1416.623,723.652c0,0-1.83-27.458-18.305-42.712c-16.476-15.255-33.865-13.729-33.865-13.729
			s-1.22,25.932,15.559,40.271C1396.792,721.823,1416.623,723.652,1416.623,723.652z"/>
		<path fill="#FFFFFF" d="M1404.42,780.094c0,0,3.356-27.153-10.067-45.458c-13.12-18.305-30.813-19.831-30.813-19.831
			s-6.103,25.017,7.626,42.408C1385.198,774.907,1404.42,780.094,1404.42,780.094z"/>
		<path fill="#FFFFFF" d="M1385.809,832.57c0,0,7.018-26.543-3.66-46.374c-10.679-19.83-27.765-23.799-27.765-23.799
			s-9.457,24.104,1.832,43.325C1367.504,824.942,1385.809,832.57,1385.809,832.57z"/>
		<path fill="#FFFFFF" d="M1389.775,827.689c0,0,26.543,7.017,46.374-3.663c19.83-10.678,23.796-27.763,23.796-27.763
			s-24.101-9.457-43.322,1.831C1397.402,809.383,1389.775,827.689,1389.775,827.689z"/>
		<path fill="#FFFFFF" d="M1359.876,877.724c0,0,25.627,12.203,47.9,5.187c22.271-7.018,29.593-23.798,29.593-23.798
			s-22.577-14.339-44.543-6.405C1371.47,860.333,1359.876,877.724,1359.876,877.724z"/>
		<path fill="#FFFFFF" d="M1321.436,922.572c0,0,23.797,17.39,47.897,14.34c24.104-3.052,34.782-18.61,34.782-18.61
			s-20.441-18.917-43.934-14.949C1336.384,907.318,1321.436,922.572,1321.436,922.572z"/>
		<path fill="#FFFFFF" d="M1278.416,960.708c0,0,21.053,20.747,45.155,21.357c24.102,0.609,37.221-13.119,37.221-13.119
			s-17.39-21.661-41.188-21.661C1295.502,947.59,1278.416,960.708,1278.416,960.708z"/>
		<path fill="#FFFFFF" d="M1224.721,990.302c0,0,18.612,25.018,43.628,29.594c25.019,4.576,40.882-7.627,40.882-7.627
			s-14.645-25.322-39.661-28.983C1244.552,979.624,1224.721,990.302,1224.721,990.302z"/>
		<path fill="#FFFFFF" d="M1272.011,962.539c0,0,20.746-21.051,21.356-45.153s-13.12-37.223-13.12-37.223
			s-21.661,17.393-21.661,41.188C1258.891,945.454,1272.011,962.539,1272.011,962.539z"/>
		<path fill="#FFFFFF" d="M1218.313,990.606c0,0,25.323-16.475,31.12-40.577c5.797-24.102-5.188-39.967-5.188-39.967
			s-25.627,12.815-30.509,36.612C1209.161,970.775,1218.313,990.606,1218.313,990.606z"/>
		<path fill="#FFFFFF" d="M1160.651,1011.353c0,0,29.595-12.507,40.578-36.61c10.678-24.103,2.44-43.018,2.44-43.018
			s-29.289,8.237-39.052,32.644C1154.854,988.472,1160.651,1011.353,1160.651,1011.353z"/>
		<path fill="#FFFFFF" d="M1168.584,1011.353c0,0,14.341,28.983,39.052,38.139c24.714,9.151,43.018-0.306,43.018-0.306
			s-10.067-28.68-35.084-36.917C1190.551,1004.032,1168.584,1011.353,1168.584,1011.353z"/>
		<path fill="#FFFFFF" d="M1354.689,884.741c0,0,13.425-25.934,7.018-48.815c-6.407-23.188-23.188-31.119-23.188-31.119
			s-15.559,22.577-8.237,45.153C1337.3,872.538,1354.689,884.741,1354.689,884.741z"/>
		<path fill="#FFFFFF" d="M1316.554,927.759c0,0,17.391-24.712,14.033-49.12c-3.354-24.407-19.22-35.086-19.22-35.086
			s-18.915,21.052-14.645,45.153C1300.688,912.81,1316.554,927.759,1316.554,927.759z"/>
		<path fill="#FFFFFF" d="M1407.776,773.076c0,0,27.153,3.357,45.459-10.067c18.304-13.118,19.83-30.812,19.83-30.812
			s-25.017-6.103-42.409,7.626C1412.963,753.856,1407.776,773.076,1407.776,773.076z"/>
		<path fill="#FFFFFF" d="M1417.233,716.026c0,0,26.849-1.832,42.102-18.307c15.257-16.169,13.425-33.56,13.425-33.56
			s-25.321-1.221-39.661,15.254C1418.758,695.89,1417.233,716.026,1417.233,716.026z"/>
		<path fill="#FFFFFF" d="M1417.845,657.447c0,0,25.321-7.016,36.611-25.322c11.286-18.306,6.405-34.476,6.405-34.476
			s-24.406,3.662-35.086,22.272C1415.097,638.532,1417.845,657.447,1417.845,657.447z"/>
		<path fill="#FFFFFF" d="M1406.25,598.26c0,0,24.103-10.679,32.34-30.509c8.238-19.831,1.22-35.085,1.22-35.085
			s-23.491,7.323-31.119,27.154C1401.063,579.956,1406.25,598.26,1406.25,598.26z"/>
		<path fill="#FFFFFF" d="M1385.198,542.733c0,0,21.052-14.034,25.934-34.17c4.881-20.136-4.576-33.56-4.576-33.56
			s-21.357,10.679-25.323,30.814C1377.267,525.955,1385.198,542.733,1385.198,542.733z"/>
		<path fill="#FFFFFF" d="M1272.621,413.375c0,0,9.763-22.882,3.355-41.798c-6.407-19.22-20.746-25.017-20.746-25.017
			s-11.593,20.136-4.577,38.746C1257.671,403.918,1272.621,413.375,1272.621,413.375z"/>
		<path fill="#FFFFFF" d="M1316.554,448.461c0,0,14.033-20.441,11.594-40.578c-2.747-20.135-15.561-28.678-15.561-28.678
			s-15.56,17.389-12.204,37.22C1304.046,436.256,1316.554,448.461,1316.554,448.461z"/>
		<path fill="#FFFFFF" d="M1354.995,492.393c0,0,17.391-17.694,18.307-37.83c0.915-20.136-10.373-31.12-10.373-31.12
			s-18.307,14.645-18.307,34.475C1344.622,478.055,1354.995,492.393,1354.995,492.393z"/>
		<path fill="#FFFFFF" d="M1183.533,376.458c0,0,59.494,15.255,122.037,73.223c49.119,45.458,69.865,90.001,79.322,113.493
			c7.323,18.001,23.798,64.069,25.323,122.953c1.221,48.509-9.457,79.629-18.916,112.578c-9.457,32.95-30.813,62.544-51.254,92.138
			c-20.442,29.287-56.441,57.357-82.985,75.967c-26.237,18.611-67.12,33.56-79.935,36.917c-12.812,3.355-49.425,9.152-75.966,19.831
			c-20.136,8.237-37.223,21.354-37.223,43.933c0.306,28.678,17.087,36.611,17.087,36.611s1.22-18.611,2.439-24.103
			c1.221-5.492,7.018-21.967,17.696-32.645c10.678-10.679,28.678-21.052,48.813-26.849c19.831-5.797,42.408-10.374,68.34-21.052
			c25.933-10.678,45.764-25.018,71.392-45.459c25.628-20.44,48.509-45.459,64.984-66.509c16.476-21.051,36-61.018,46.374-92.137
			c10.373-31.426,15.56-68.646,15.865-94.884c0.305-25.932-4.271-64.373-8.543-82.985c-4.271-18.61-18.001-56.442-22.272-66.815
			c-4.271-10.371-33.254-55.83-33.254-55.83s-16.78-28.069-62.85-64.07c-49.424-38.746-103.425-56.746-103.425-56.746
			L1183.533,376.458z"/>
	</g>
</g>
</svg>
