<?xml version="1.0" encoding="utf-8"?>
<!-- Generator: Adobe Illustrator 22.1.0, SVG Export Plug-In . SVG Version: 6.00 Build 0)  -->
<svg version="1.1" id="Layer_1" xmlns="http://www.w3.org/2000/svg" xmlns:xlink="http://www.w3.org/1999/xlink" x="0px" y="0px"
	 viewBox="0 0 716 390" style="enable-background:new 0 0 716 390;" xml:space="preserve">
<style type="text/css">
	.st0{display:none;}
	.st1{fill:#FFFFFF;}
	.st2{fill:none;stroke:#FFFFFF;stroke-width:5;stroke-miterlimit:10;}
</style>
<g id="Grid" class="st0">
</g>
<g id="Layer_1_1_">
</g>
<g id="Desktop">
</g>
<g id="Guides">
</g>
<g id="Page_1">
	<g id="Layer_1_2_">
		<path class="st1" d="M111.3,106l-12.8,17.5c-6.4,8.8-4.4,24.4,4.3,30.7l23.6,17.1c4.1,2.9,4.4,5.8,2.5,8.9l3.4,2.5l12-16.6
			c7.4-10.2,6.7-24.2-4.2-32.2l-23.8-17.4c-2.9-2.1-3.1-5-1.6-8.2L111.3,106L111.3,106z M131.7,28.4l-19.8,27.5
			c-9.3,12.9-5.9,34.9,6.8,44.2l32.6,23.9c6.6,4.9,7.5,17.2,2.7,23.6l2.8,2.1l22.5-31.7c10.1-14.2,9.5-35.2-6.4-46.8L138,45.9
			c-4.9-3.5-7.3-9.6-3.3-15.3L131.7,28.4L131.7,28.4z M79.4,200.5h26.3l4.7,15.9c14.3,0,28.7,0,43,0l4.7-15.9h26.3l-3.4-11.7
			c-32.7,0-65.4,0-98.1,0L79.4,200.5L79.4,200.5z M41.4,15h178.3c11.5,0,21,9.4,21,21v315.1c0,11.5-9.4,21-21,21H41.4
			c-11.5,0-21-9.4-21-21V36C20.4,24.4,29.8,15,41.4,15L41.4,15z M41.4,16.4h178.3c10.8,0,19.5,8.8,19.5,19.5V351
			c0,10.7-8.8,19.5-19.5,19.5H41.4c-10.7,0-19.5-8.8-19.5-19.5V36C21.8,25.2,30.6,16.4,41.4,16.4L41.4,16.4z M234.9,302v49.1
			c0,8.4-6.9,15.2-15.2,15.2H41.4c-8.4,0-15.2-6.9-15.2-15.2V302L234.9,302L234.9,302z M61.3,329l-7.8-19.5h-4L41.6,329H46l1.6-4.3
			h7.5l1.6,4.3H61.3L61.3,329z M53.7,321H49l1.3-3.5c0.2-0.6,0.4-1.1,0.6-1.7c0.2-0.5,0.3-1,0.4-1.4c0.1,0.4,0.2,0.8,0.4,1.4
			c0.2,0.5,0.4,1.1,0.6,1.7L53.7,321L53.7,321z M78.6,312.7c-1.2-1.4-3.1-2.7-4.9-3.2c-0.8-0.2-1.7-0.3-2.6-0.3
			c-1.4,0-2.6,0.2-3.7,0.7c-1.1,0.5-2.1,1.2-2.9,2.1c-0.8,0.9-1.4,1.9-1.9,3.2c-0.5,1.2-0.7,2.6-0.7,4.1s0.2,2.9,0.6,4.2
			c0.4,1.2,1,2.3,1.8,3.2s1.7,1.5,2.8,2s2.3,0.7,3.7,0.7c2.5,0,6.8-1.4,8-3.8l-2.9-2.6c-0.8,1.3-3.4,2.5-5,2.5
			c-0.8,0-1.4-0.2-2.1-0.5c-0.6-0.3-1.1-0.8-1.5-1.3s-0.7-1.2-1-2c-0.2-0.8-0.3-1.6-0.3-2.4c0-0.9,0.1-1.7,0.3-2.5s0.5-1.4,0.9-2
			c0.4-0.5,0.9-1,1.5-1.3s1.3-0.5,2.1-0.5c1.5,0,3.7,1,4.7,2.4L78.6,312.7L78.6,312.7z M117.6,329l-4.6-7.4c1.3-0.5,2.8-1.4,3.4-2.3
			c0.7-0.9,1-2.1,1-3.6c0-1-0.2-1.9-0.6-2.7s-0.9-1.4-1.5-1.9s-1.4-0.9-2.3-1.2s-1.8-0.4-2.7-0.4h-9.6V329h4.1v-7l3.7,0.2l4.3,6.9
			h4.8V329z M113.3,315.8c0,1.7-1,2.5-2.9,2.5H105v-5h5.4c0.9,0,1.6,0.2,2.2,0.6C113,314.3,113.3,314.9,113.3,315.8L113.3,315.8z
			 M134.9,329v-3.8h-10.6v-4.7h8.5v-3.8h-8.5v-3.4h10.2v-3.8h-14.3V329H134.9L134.9,329z M154.7,319.3c0-1.8-0.3-3.3-0.8-4.5
			s-1.2-2.2-2.1-3s-2-1.3-3.2-1.7c-1.2-0.3-2.6-0.5-4.1-0.5h-6.4v19.5h6.1c1.3,0,2.6-0.2,3.9-0.6c1.3-0.4,2.4-1,3.4-1.7
			c1-0.8,1.8-1.8,2.4-3C154.4,322.5,154.7,321,154.7,319.3L154.7,319.3z M150.4,319.3c0,0.9-0.1,1.7-0.4,2.4s-0.6,1.4-1.1,1.9
			s-1.2,0.9-2,1.2s-1.7,0.4-2.8,0.4h-2v-11.9h2.2c2.2,0,3.7,0.5,4.7,1.5C150,315.8,150.4,317.3,150.4,319.3L150.4,319.3z M162.8,329
			v-19.5h-4.1V329H162.8L162.8,329z M181.9,313.4v-3.9H166v3.8h5.9V329h4.1v-15.7h5.9V313.4z M219,319.3c0-1.8-0.3-3.3-0.8-4.5
			s-1.2-2.2-2.1-3s-2-1.3-3.2-1.7c-1.2-0.3-2.6-0.5-4.1-0.5h-6.4v19.5h6.1c1.3,0,2.6-0.2,3.9-0.6c1.3-0.4,2.4-1,3.4-1.7
			c1-0.8,1.8-1.8,2.4-3C218.7,322.5,219,321,219,319.3L219,319.3z M214.8,319.3c0,0.9-0.1,1.7-0.4,2.4s-0.6,1.4-1.1,1.9
			s-1.2,0.9-2,1.2s-1.7,0.4-2.8,0.4h-2v-11.9h2.2c2.2,0,3.7,0.5,4.7,1.5C214.3,315.8,214.8,317.3,214.8,319.3L214.8,319.3z
			 M199.3,329v-3.8h-10.6v-4.7h8.5v-3.8h-8.5v-3.4h10.2v-3.8h-14.3V329H199.3L199.3,329z M164.9,354.2v-3.8h-10.6v-4.7h8.5v-3.8
			h-8.5v-3.4h10.2v-3.8h-14.3v19.5H164.9L164.9,354.2z M97.6,312.7c-1.2-1.4-3.1-2.7-4.9-3.2c-0.8-0.2-1.7-0.3-2.6-0.3
			c-1.4,0-2.6,0.2-3.7,0.7s-2.1,1.2-2.9,2.1c-0.8,0.9-1.4,1.9-1.9,3.2c-0.5,1.2-0.7,2.6-0.7,4.1s0.2,2.9,0.6,4.2
			c0.4,1.2,1,2.3,1.8,3.2s1.7,1.5,2.8,2c1.1,0.5,2.3,0.7,3.7,0.7c2.5,0,6.8-1.4,8-3.8l-2.9-2.6c-0.8,1.3-3.4,2.5-5,2.5
			c-0.8,0-1.4-0.2-2.1-0.5c-0.6-0.3-1.1-0.8-1.5-1.3s-0.7-1.2-1-2c-0.2-0.8-0.3-1.6-0.3-2.4c0-0.9,0.1-1.7,0.3-2.5
			c0.2-0.8,0.5-1.4,0.9-2c0.4-0.5,0.9-1,1.5-1.3s1.3-0.5,2.1-0.5c1.5,0,3.7,1,4.7,2.4L97.6,312.7L97.6,312.7z M80.8,347.9
			c0-1.1-0.3-2-0.8-2.7s-1.2-1.2-2-1.6c0.7-0.4,1.2-0.9,1.6-1.6c0.4-0.7,0.6-1.4,0.6-2.2c0-1.7-0.6-3-1.7-3.8
			c-1.1-0.9-2.7-1.3-4.6-1.3h-9.2v19.5h9.1c1.1,0,2-0.1,2.9-0.4c0.9-0.3,1.6-0.7,2.2-1.2c0.6-0.5,1.1-1.2,1.4-2
			C80.6,349.9,80.8,349,80.8,347.9L80.8,347.9z M76,340.2c0,0.5-0.2,1-0.5,1.3s-0.9,0.5-1.8,0.5h-5.2v-3.7h5.1
			c0.9,0,1.5,0.2,1.9,0.5S76,339.6,76,340.2L76,340.2z M76.7,348c0,0.8-0.2,1.4-0.7,1.9s-1.2,0.7-2.2,0.7h-5.3v-5h5.3
			C75.7,345.5,76.7,346.3,76.7,348L76.7,348z M99.7,345.6v-10.9h-4v11c0,1.6-0.4,2.8-1.1,3.7s-1.7,1.3-3,1.3s-2.3-0.5-3-1.4
			s-1.1-2.2-1.1-3.7v-10.9h-4v11c0,1.4,0.2,2.7,0.6,3.8s0.9,2,1.6,2.8s1.6,1.3,2.6,1.7s2.1,0.6,3.3,0.6c2.6,0,4.6-0.8,6-2.3
			C99,350.7,99.7,348.5,99.7,345.6L99.7,345.6z M118.1,348.3c0-1.1-0.2-1.9-0.6-2.6c-0.4-0.7-0.9-1.3-1.6-1.7
			c-0.6-0.4-1.4-0.8-2.1-1c-0.8-0.3-1.6-0.5-2.4-0.7s-1.5-0.4-2-0.5s-0.9-0.3-1.2-0.5c-0.3-0.2-0.5-0.4-0.6-0.6
			c-0.1-0.2-0.2-0.5-0.2-0.8c0-0.2,0-0.4,0.1-0.6c0.1-0.2,0.3-0.4,0.5-0.6c0.2-0.2,0.5-0.3,0.9-0.4c0.4-0.1,0.8-0.2,1.3-0.2
			c0.9,0,1.7,0.2,2.5,0.5c0.7,0.3,1.4,0.8,2.1,1.5l2.9-2.7c-1-1-2-1.7-3.2-2.3c-1.2-0.5-2.5-0.8-4.1-0.8c-1,0-1.9,0.1-2.8,0.4
			c-0.9,0.3-1.6,0.6-2.3,1.1c-0.6,0.5-1.2,1.1-1.5,1.8c-0.4,0.7-0.6,1.5-0.6,2.4c0,1,0.2,1.8,0.5,2.4s0.7,1.2,1.3,1.6
			c0.6,0.4,1.2,0.8,2,1.1s1.6,0.5,2.5,0.7s1.7,0.4,2.3,0.6c0.6,0.2,1,0.4,1.4,0.6c0.3,0.2,0.5,0.4,0.6,0.7c0.1,0.2,0.2,0.5,0.2,0.8
			c0,0.7-0.3,1.3-0.8,1.6c-0.6,0.3-1.4,0.5-2.6,0.5c-1,0-1.9-0.2-2.8-0.5s-1.7-0.9-2.4-1.7l-2.9,2.5c0.8,1.1,1.8,2,3.2,2.6
			c1.4,0.6,2.9,0.9,4.6,0.9c1.4,0,2.6-0.1,3.5-0.4c1-0.3,1.8-0.7,2.4-1.3c0.6-0.5,1.1-1.2,1.4-2C118,350.1,118.1,349.3,118.1,348.3
			L118.1,348.3z M125.4,354.2v-19.5h-4v19.5H125.4L125.4,354.2z M145.8,354.2v-19.5h-4v8.3c0,0.3,0,0.6,0,1s0,0.8,0,1.3
			c0,0.4,0,0.8,0,1.2s0,0.6,0,0.8c-0.1-0.3-0.3-0.6-0.6-1c-0.3-0.4-0.5-0.8-0.8-1.2l-7.1-10.3h-3.8v19.5h4v-8.6c0-0.3,0-0.6,0-1
			s0-0.8,0-1.2s0-0.8,0-1.2s0-0.6,0-0.8c0.1,0.3,0.3,0.6,0.6,1c0.3,0.4,0.5,0.8,0.8,1.2l7.4,10.7h3.5V354.2z M181.2,348.3
			c0-1.1-0.2-1.9-0.6-2.6c-0.4-0.7-0.9-1.3-1.6-1.7c-0.6-0.4-1.4-0.8-2.1-1c-0.8-0.3-1.6-0.5-2.4-0.7s-1.5-0.4-2-0.5
			s-0.9-0.3-1.2-0.5c-0.3-0.2-0.5-0.4-0.6-0.6c-0.1-0.2-0.2-0.5-0.2-0.8c0-0.2,0-0.4,0.1-0.6c0.1-0.2,0.3-0.4,0.5-0.6
			c0.2-0.2,0.5-0.3,0.9-0.4c0.4-0.1,0.8-0.2,1.3-0.2c0.9,0,1.7,0.2,2.5,0.5c0.7,0.3,1.4,0.8,2.1,1.5l2.9-2.7c-1-1-2-1.7-3.2-2.3
			c-1.2-0.5-2.5-0.8-4.1-0.8c-1,0-1.9,0.1-2.8,0.4c-0.9,0.3-1.6,0.6-2.3,1.1c-0.6,0.5-1.2,1.1-1.5,1.8c-0.4,0.7-0.6,1.5-0.6,2.4
			c0,1,0.2,1.8,0.5,2.4s0.7,1.2,1.3,1.6c0.6,0.4,1.2,0.8,2,1.1s1.6,0.5,2.5,0.7s1.7,0.4,2.3,0.6c0.6,0.2,1,0.4,1.4,0.6
			c0.3,0.2,0.5,0.4,0.6,0.7c0.1,0.2,0.2,0.5,0.2,0.8c0,0.7-0.3,1.3-0.8,1.6c-0.6,0.3-1.4,0.5-2.6,0.5c-1,0-1.9-0.2-2.8-0.5
			s-1.7-0.9-2.4-1.7l-2.9,2.5c0.8,1.1,1.8,2,3.2,2.6c1.4,0.6,2.9,0.9,4.6,0.9c1.4,0,2.6-0.1,3.5-0.4c1-0.3,1.8-0.7,2.4-1.3
			c0.6-0.5,1.1-1.2,1.4-2C181.1,350.1,181.2,349.3,181.2,348.3L181.2,348.3z M198.5,348.3c0-1.1-0.2-1.9-0.6-2.6
			c-0.4-0.7-0.9-1.3-1.6-1.7c-0.6-0.4-1.4-0.8-2.1-1c-0.8-0.3-1.6-0.5-2.4-0.7s-1.5-0.4-2-0.5s-0.9-0.3-1.2-0.5
			c-0.3-0.2-0.5-0.4-0.6-0.6c-0.1-0.2-0.2-0.5-0.2-0.8c0-0.2,0-0.4,0.1-0.6c0.1-0.2,0.3-0.4,0.5-0.6c0.2-0.2,0.5-0.3,0.9-0.4
			c0.4-0.1,0.8-0.2,1.3-0.2c0.9,0,1.7,0.2,2.5,0.5c0.7,0.3,1.4,0.8,2.1,1.5l2.9-2.7c-1-1-2-1.7-3.2-2.3c-1.2-0.5-2.5-0.8-4.1-0.8
			c-1,0-1.9,0.1-2.8,0.4c-0.9,0.3-1.6,0.6-2.3,1.1c-0.6,0.5-1.2,1.1-1.5,1.8c-0.4,0.7-0.6,1.5-0.6,2.4c0,1,0.2,1.8,0.5,2.4
			s0.7,1.2,1.3,1.6c0.6,0.4,1.2,0.8,2,1.1s1.6,0.5,2.5,0.7s1.7,0.4,2.3,0.6c0.6,0.2,1,0.4,1.4,0.6c0.3,0.2,0.5,0.4,0.6,0.7
			c0.1,0.2,0.2,0.5,0.2,0.8c0,0.7-0.3,1.3-0.8,1.6c-0.6,0.3-1.4,0.5-2.6,0.5c-1,0-1.9-0.2-2.8-0.5s-1.7-0.9-2.4-1.7l-2.9,2.5
			c0.8,1.1,1.8,2,3.2,2.6c1.4,0.6,2.9,0.9,4.6,0.9c1.4,0,2.6-0.1,3.5-0.4c1-0.3,1.8-0.7,2.4-1.3c0.6-0.5,1.1-1.2,1.4-2
			C198.3,350.1,198.5,349.3,198.5,348.3L198.5,348.3z M81.4,273.3H65.6v-13.2h15.8C93,260.1,92.3,273.3,81.4,273.3L81.4,273.3z
			 M135.4,273.3h-15.8v-13.2h15.8C147,260.1,146.3,273.3,135.4,273.3L135.4,273.3z M189.4,273.3h-15.8v-13.2h15.8
			C201,260.1,200.3,273.3,189.4,273.3L189.4,273.3z M80.3,249.8H65.6v-12.3h14.1C88.6,237.5,88.9,249.8,80.3,249.8L80.3,249.8z
			 M134.3,249.8h-14.7v-12.3h14.1C142.6,237.5,142.9,249.8,134.3,249.8L134.3,249.8z M188.3,249.8h-14.7v-12.3h14.1
			C196.6,237.5,196.9,249.8,188.3,249.8L188.3,249.8z M102,266c-1.1-7.6-4.2-9.4-10.3-12.1c4.6-2.7,7.5-6.7,7.5-12.1
			c0-10.9-8.9-15.3-18.7-15.3H53.3v57.8h26.9C91.8,284.2,104,279.2,102,266L102,266z M156,266c-1.1-7.6-4.2-9.4-10.3-12.1
			c4.6-2.7,7.5-6.7,7.5-12.1c0-10.9-8.9-15.3-18.7-15.3h-27.2v57.8h26.9C145.8,284.2,158,279.2,156,266L156,266z M210,266
			c-1.1-7.6-4.2-9.4-10.3-12.1c4.6-2.7,7.5-6.7,7.5-12.1c0-10.9-8.9-15.3-18.7-15.3h-27.2v57.8h26.9C199.8,284.2,212,279.2,210,266
			L210,266z M215.3,282.3c0-0.2,0-0.5-0.1-0.6c-0.1-0.2-0.2-0.4-0.3-0.5c-0.2-0.2-0.3-0.3-0.6-0.4c-0.2-0.1-0.6-0.3-0.9-0.4
			s-0.6-0.2-0.8-0.3c-0.2-0.1-0.4-0.2-0.5-0.3c-0.1-0.1-0.2-0.2-0.2-0.3c0-0.1-0.1-0.2-0.1-0.4c0-0.1,0-0.3,0.1-0.4
			c0-0.1,0.1-0.2,0.2-0.3c0.1-0.1,0.2-0.2,0.4-0.2c0.2-0.1,0.4-0.1,0.6-0.1c0.3,0,0.6,0.1,0.9,0.2c0.2,0.1,0.5,0.3,0.7,0.5l0.5-0.6
			c-0.3-0.2-0.6-0.4-0.9-0.5s-0.7-0.2-1.1-0.2c-0.3,0-0.6,0-0.9,0.1s-0.5,0.2-0.7,0.3c-0.2,0.1-0.3,0.3-0.4,0.5s-0.2,0.4-0.2,0.7
			c0,0.2,0,0.4,0.1,0.6s0.2,0.3,0.3,0.5c0.2,0.1,0.3,0.3,0.6,0.4c0.2,0.1,0.6,0.3,0.9,0.4s0.6,0.2,0.8,0.3c0.2,0.1,0.4,0.2,0.5,0.3
			c0.1,0.1,0.2,0.2,0.3,0.3c0.1,0.1,0.1,0.3,0.1,0.4c0,0.3-0.1,0.6-0.4,0.8c-0.3,0.2-0.6,0.3-1.1,0.3c-0.3,0-0.7-0.1-1-0.2
			s-0.6-0.3-0.8-0.6l-0.5,0.5c0.3,0.3,0.6,0.5,1,0.6c0.4,0.2,0.8,0.3,1.3,0.3c0.4,0,0.7,0,0.9-0.1c0.3-0.1,0.5-0.2,0.7-0.4
			c0.2-0.2,0.3-0.4,0.4-0.6C215.2,282.8,215.3,282.6,215.3,282.3L215.3,282.3z M222.2,284.1v-6.6h-0.8l-1.6,3.9
			c0,0.1-0.1,0.2-0.1,0.3c0,0.1-0.1,0.2-0.1,0.4c0,0.1-0.1,0.2-0.1,0.3c0,0.1-0.1,0.2-0.1,0.3c0-0.1,0-0.2-0.1-0.3
			c0-0.1-0.1-0.2-0.1-0.3c0-0.1-0.1-0.2-0.1-0.4c0-0.1-0.1-0.2-0.1-0.3l-1.6-3.9h-0.8v6.5h0.7v-4.4v-0.7c0,0.1,0,0.1,0.1,0.2
			c0,0.1,0.1,0.2,0.1,0.3c0,0.1,0.1,0.2,0.1,0.3c0,0.1,0.1,0.2,0.1,0.3l1.8,4.2l1.8-4.2c0-0.1,0.1-0.2,0.1-0.3
			c0-0.1,0.1-0.2,0.1-0.3c0-0.1,0.1-0.2,0.1-0.3c0-0.1,0.1-0.2,0.1-0.2v0.7v4.4h0.5V284.1z"/>
	</g>
	<g>
		<path class="st1" d="M292.9,73h19.9c11,0,15.2,5.7,15.2,11.6c0,5.1-2.7,8.5-5.8,9.9c3.1,1.2,7.1,4.4,7.1,10.4
			c0,7.8-6.1,13.6-15.8,13.6H293V73H292.9z M311.7,90.9c4.7,0,6.6-2.1,6.6-5.3c0-3.3-2.5-5.1-6.3-5.1h-9.4v10.3h9.1V90.9z
			 M302.6,110.9h8.9c5.3,0,7.7-2.2,7.7-6.3c0-3.7-2.4-6-7.8-6h-8.8L302.6,110.9L302.6,110.9z"/>
		<path class="st1" d="M336.9,73h19.9c11,0,15.2,5.7,15.2,11.6c0,5.1-2.7,8.5-5.8,9.9c3.1,1.2,7.1,4.4,7.1,10.4
			c0,7.8-6.1,13.6-15.8,13.6H337V73H336.9z M355.7,90.9c4.7,0,6.6-2.1,6.6-5.3c0-3.3-2.5-5.1-6.3-5.1h-9.4v10.3h9.1V90.9z
			 M346.6,110.9h8.9c5.3,0,7.7-2.2,7.7-6.3c0-3.7-2.4-6-7.8-6h-8.8L346.6,110.9L346.6,110.9z"/>
		<path class="st1" d="M390.5,81.1h-13.8V73h37.4v8.1h-13.8v37.4h-9.8V81.1z"/>
		<path class="st1" d="M445.8,100.3v18.2h-9.6V73h20c9.9,0,15.3,5.5,15.3,12.5c0,6.1-3.3,9.4-6.6,10.8c2.3,0.8,5.7,3.2,5.7,11.3v2.2
			c0,3.1,0,6.5,0.7,8.7H462c-0.8-2-1-5.4-1-10.2v-0.7c0-5-1.3-7.3-8.6-7.3H445.8z M445.8,92.5h8.2c5.4,0,7.5-2,7.5-5.9
			c0-3.7-2.4-5.8-7.2-5.8h-8.5V92.5z"/>
		<path class="st1" d="M489.5,108l-3.5,10.5h-9.7L491.8,73h12.4l16.1,45.5H510l-3.7-10.5H489.5z M504.1,99.9
			c-3.2-9.6-5.3-15.7-6.4-19.8h-0.1c-1.1,4.5-3.4,11.6-6,19.8H504.1z"/>
		<path class="st1" d="M530.4,81.1h-13.8V73H554v8.1h-13.8v37.4h-9.8L530.4,81.1L530.4,81.1z"/>
		<path class="st1" d="M570,73v45.5h-9.8V73H570z"/>
		<path class="st1" d="M580.9,118.5V73h12.2c5.7,10.2,16.2,28.6,18.3,33.6h0.1C611,101.9,611,94,611,86.5V73h8.9v45.5h-11.6
			c-4.9-8.9-16.5-30.1-18.8-35.3h-0.1c0.3,4,0.4,13.3,0.4,21.5v13.8H580.9z"/>
		<path class="st1" d="M670.3,118.5h-7.2c-0.4-1.4-0.6-3-0.8-4.5c-2.5,3.4-7,5.2-13.3,5.2c-13.2,0-20.6-10-20.6-22.9
			c0-13.7,8-24,22.3-24c11.7,0,18.6,6.6,19.7,14.4h-9.8c-0.9-3-3.3-6.7-10-6.7c-9.3,0-12,7.8-12,15.8c0,7.8,3,15.5,12.1,15.5
			c8.4,0,10-5.8,10-9.9V101h-10v-8.1h19.6V118.5z"/>
	</g>
	<g>
		<path class="st1" d="M421,271.8l-6.2,18.5h-17l27.2-80h21.7l28.3,80h-18.2l-6.6-18.5H421z M446.5,257.7
			c-5.7-16.9-9.3-27.7-11.2-34.8h-0.1c-2,7.9-6,20.4-10.5,34.8H446.5z"/>
		<path class="st1" d="M514.5,228.6v27.3h26.2v7h-26.2v27.5h-7.4v-27.5h-26.2v-7h26.2v-27.3H514.5z"/>
	</g>
	<circle class="st2" cx="465.6" cy="258.6" r="95.1"/>
	<path class="st2" d="M701.5,387.5h-687c-6.6,0-12-5.4-12-12v-361c0-6.6,5.4-12,12-12h687c6.6,0,12,5.4,12,12v361
		C713.5,382.1,708.1,387.5,701.5,387.5z"/>
</g>
</svg>
